<svg xmlns="http://www.w3.org/2000/svg" width="150" height="150" viewBox="0 0 150 150"><title>1</title><g id="acc0e235-e6ad-452e-9b30-fbf3b2df0990" data-name="fond"><rect y="-0.13" width="150.09" height="150.37" style="fill:#fff"/></g><g id="aabe356c-b571-4dd6-8b16-5d23fbcf5c83" data-name="shuri peinture"><path d="M159,20.43l-13.42-.64a2.78,2.78,0,0,0-.21-1.76l.06,0a.1.1,0,0,0,.08.06l7.41.37-6.14-4.66h0v0a2.75,2.75,0,0,0,1.52-1Z" style="fill:#fff"/><path d="M153.53-3.32,146.79,8.32a2.8,2.8,0,0,0-1.64-.64V7.56a.22.22,0,0,0,.2-.12l2.93-5.55-6.43,2.82a.1.1,0,0,0-.05,0l-.1,0a2.71,2.71,0,0,0-.14-1.81Z" style="fill:#fff"/><path d="M152.92,18.43l-7.41-.37a.1.1,0,0,1-.08-.06.06.06,0,0,1,0-.06l1.3-4.15s0,0,0,0h0Z" style="fill:#423c25"/><path d="M148.27,1.89l-2.93,5.55a.22.22,0,0,1-.2.12.2.2,0,0,1-.14,0L141.81,4.9a.12.12,0,0,1,0-.15.1.1,0,0,1,.05,0Z" style="fill:#423c25"/><path d="M146.75,13.74v0s0,0,0,0l-1.3,4.15a.06.06,0,0,0,0,.06l-.06,0a1.52,1.52,0,0,0-.21-.33c-.88-1-2.61-.75-3.62-.17-.11.07-2,1.22-1.69,3a2.36,2.36,0,0,0,.92,1.52l-.05.07a.11.11,0,0,0-.12,0l-4,1.08a.16.16,0,0,0-.12.16l-.13,0c.28-1.28-.93-2.5-2-3-.11-.06-2.17-1-3.45.35a2.48,2.48,0,0,0-.4.55l-.06,0a.09.09,0,0,0,0-.11L127.33,19l-.08,0v-.08a1.13,1.13,0,0,0,.3,0c1.31-.28,1.89-1.94,1.86-3.1,0-.13-.1-2.38-1.86-2.92a2.86,2.86,0,0,0-1.56-.05l0-.09a.11.11,0,0,0,.09-.1L127.18,9a.14.14,0,0,0-.07-.18l.06-.09c1,.77,2.53.39,3.44-.21.11-.08,2-1.35,1.49-3.13a2.47,2.47,0,0,0-.67-1.18l.1-.09a.16.16,0,0,0,.19.08L135.47,3a.18.18,0,0,0,.12-.12l.1.05c0,.07-.05.13-.07.2-.41,1.28.74,2.61,1.76,3.15.12.07,2.12,1.1,3.47-.16a2.88,2.88,0,0,0,.84-1.37l.1,0a.12.12,0,0,0,0,.15L145,7.51a.2.2,0,0,0,.14,0v.12a1.92,1.92,0,0,0-.41.05c-1.31.3-1.86,2-1.81,3.13,0,.13.14,2.38,1.91,2.89A3.54,3.54,0,0,0,146.75,13.74ZM137.9,15a2.32,2.32,0,1,0-3.27.3A2.31,2.31,0,0,0,137.9,15Z" style="fill:#423c25"/><path d="M142.07,22.82V36.3L134.85,25a2.62,2.62,0,0,0,1.47-1.54v-.08l.13,0a.19.19,0,0,0,0,.1l4,6.34.23-7.56a.12.12,0,0,0,0-.09l.05-.07a2.76,2.76,0,0,0,1.3.48Z" style="fill:#fff"/><path d="M140.75,22.24l-.23,7.56-4-6.34a.19.19,0,0,1,0-.1.16.16,0,0,1,.12-.16l4-1.08a.11.11,0,0,1,.12,0A.12.12,0,0,1,140.75,22.24Z" style="fill:#423c25"/><path d="M137.61,11.73a2.33,2.33,0,1,1-3.27.3A2.31,2.31,0,0,1,137.61,11.73Z" style="fill:#fff"/><path d="M130.61-10.08l6.56,11.73a2.64,2.64,0,0,0-1.48,1.26l-.1-.05a.16.16,0,0,0,0-.15l-3.34-6L131.52,4a.25.25,0,0,0,0,.08l-.1.09a2.8,2.8,0,0,0-1.77-.72Z" style="fill:#fff"/><path d="M135.58,2.71a.16.16,0,0,1,0,.15.18.18,0,0,1-.12.12l-3.75,1.17a.16.16,0,0,1-.19-.08.25.25,0,0,1,0-.08l.72-7.27Z" style="fill:#423c25"/><path d="M130.69,23.6l-12.1,6.12L125.5,18.2a2.76,2.76,0,0,0,1.75.66v.08a.16.16,0,0,0-.14.08l-3.65,6.13,7-3.88,0,0,.06,0a1.85,1.85,0,0,0-.18.44A2.7,2.7,0,0,0,130.69,23.6Z" style="fill:#fff"/><path d="M130.44,21.13a.09.09,0,0,1,0,.11l0,0-7,3.88L127.11,19a.16.16,0,0,1,.14-.08l.08,0Z" style="fill:#423c25"/><path d="M127.11,8.77a.14.14,0,0,1,.07.18l-1.13,3.61a.11.11,0,0,1-.09.1.17.17,0,0,1-.12,0l-6.52-4,7.72.15Z" style="fill:#423c25"/><path d="M127.17,8.68l-.06.09H127l-7.72-.15,6.52,4a.17.17,0,0,0,.12,0l0,.09a2.65,2.65,0,0,0-1.5,1L113,6.71l13.44-.24A2.6,2.6,0,0,0,127,8.53C127.05,8.58,127.11,8.64,127.17,8.68Z" style="fill:#fff"/><path d="M145.15,7.68a2.8,2.8,0,0,1,1.64.64l6.74-11.64-12,6.24a2.71,2.71,0,0,1,.14,1.81,2.88,2.88,0,0,1-.84,1.37c-1.35,1.26-3.35.23-3.47.16-1-.54-2.17-1.87-1.76-3.15,0-.07,0-.13.07-.2a2.64,2.64,0,0,1,1.48-1.26l-6.56-11.73-1,13.52a2.8,2.8,0,0,1,1.77.72,2.47,2.47,0,0,1,.67,1.18c.48,1.78-1.38,3.05-1.49,3.13-.91.6-2.48,1-3.44.21-.06,0-.12-.1-.18-.15a2.6,2.6,0,0,1-.55-2.06L113,6.71l11.49,7.06a2.65,2.65,0,0,1,1.5-1,2.86,2.86,0,0,1,1.56.05c1.76.54,1.86,2.79,1.86,2.92,0,1.16-.55,2.82-1.86,3.1a1.13,1.13,0,0,1-.3,0,2.76,2.76,0,0,1-1.75-.66l-6.91,11.52,12.1-6.12a2.7,2.7,0,0,1-.35-1.89,1.85,1.85,0,0,1,.18-.44,2.48,2.48,0,0,1,.4-.55c1.28-1.33,3.34-.41,3.45-.35,1,.47,2.24,1.69,2,3v.08A2.62,2.62,0,0,1,134.85,25l7.22,11.34V22.56a2.76,2.76,0,0,1-1.3-.48,2.36,2.36,0,0,1-.92-1.52c-.35-1.81,1.58-3,1.69-3,1-.58,2.74-.86,3.62.17a1.52,1.52,0,0,1,.21.33,2.78,2.78,0,0,1,.21,1.76l13.42.64-10.73-7.69a2.75,2.75,0,0,1-1.52,1,3.54,3.54,0,0,1-1.91,0c-1.77-.51-1.91-2.76-1.91-2.89-.05-1.16.5-2.83,1.81-3.13A1.92,1.92,0,0,1,145.15,7.68Z" style="fill:none;stroke:#423c25;stroke-miterlimit:10;stroke-width:0.6019204074589367px"/><path d="M130.46,21.24l0,0-7,3.88L127.11,19a.16.16,0,0,1,.14-.08l.08,0,3.11,2.17A.09.09,0,0,1,130.46,21.24Z" style="fill:none;stroke:#423c25;stroke-miterlimit:10;stroke-width:0.6019204074589367px"/><path d="M136.46,23.36a.19.19,0,0,0,0,.1l4,6.34.23-7.56a.12.12,0,0,0,0-.09.11.11,0,0,0-.12,0l-4,1.08A.16.16,0,0,0,136.46,23.36Z" style="fill:none;stroke:#423c25;stroke-miterlimit:10;stroke-width:0.6019204074589367px"/><path d="M146.76,13.77h0l6.14,4.66-7.41-.37a.1.1,0,0,1-.08-.06.06.06,0,0,1,0-.06l1.3-4.15S146.75,13.77,146.76,13.77Z" style="fill:none;stroke:#423c25;stroke-miterlimit:10;stroke-width:0.6019204074589367px"/><path d="M141.79,4.75a.1.1,0,0,1,.05,0l6.43-2.82-2.93,5.55a.22.22,0,0,1-.2.12.2.2,0,0,1-.14,0L141.81,4.9A.12.12,0,0,1,141.79,4.75Z" style="fill:none;stroke:#423c25;stroke-miterlimit:10;stroke-width:0.6019204074589367px"/><path d="M135.59,2.86a.16.16,0,0,0,0-.15l-3.34-6L131.52,4a.25.25,0,0,0,0,.08.16.16,0,0,0,.19.08L135.47,3A.18.18,0,0,0,135.59,2.86Z" style="fill:none;stroke:#423c25;stroke-miterlimit:10;stroke-width:0.6019204074589367px"/><path d="M126,12.66a.17.17,0,0,1-.12,0l-6.52-4,7.72.15h.07a.14.14,0,0,1,.07.18l-1.13,3.61A.11.11,0,0,1,126,12.66Z" style="fill:none;stroke:#423c25;stroke-miterlimit:10;stroke-width:0.6019204074589367px"/><path d="M137.61,11.73a2.33,2.33,0,1,1-3.27.3A2.31,2.31,0,0,1,137.61,11.73Z" style="fill:none;stroke:#423c25;stroke-miterlimit:10;stroke-width:0.6019204074589367px"/></g><g id="a55ea789-866f-4623-9b9b-88eb8f3d89a0" data-name="Textes Cartes vecto"><g id="bfc80070-a6f8-47a1-a341-43eb8372f507" data-name="Calque 20 - copie"><path d="M17.82,27.25l-.16.48h-.25a3.08,3.08,0,0,0-.43,0l-.49,0a1.25,1.25,0,0,1-.35,0c-.1,0-.14-.07-.12-.16s0-.12,0-.25a.44.44,0,0,1,0-.25l0-.13a.33.33,0,0,0,0-.14q0-.08-.15-.15c-.12,0-.2.09-.23.26a.41.41,0,0,0,0,.19.42.42,0,0,1,0,.2.36.36,0,0,1-.06.11l0,.05h-.09l-.15,0h-.2l-.12.06s-.07,0-.09,0a1.28,1.28,0,0,1-.19-.35c0-.14-.1-.28-.14-.41a3.26,3.26,0,0,1-.06-.38,1.78,1.78,0,0,1,0-.26l0-.13a.74.74,0,0,0,0-.18l0-.13,0-.07,1.64-5.2s0-.05.16-.1l.34-.17.34-.17c.11-.06.16-.1.16-.12l-.61-.34.06-.2a1.88,1.88,0,0,1,.12-.3l.15-.29a.64.64,0,0,1,.12-.2l.13-.15.11-.14,0-.14h-.56l-.3,0a1,1,0,0,1-.24-.07.1.1,0,0,1-.07-.12l.11-.16.13-.18v0s0,0,0-.05,0,0,0-.06L16.9,17l-.25-.25a.09.09,0,0,1,0-.1s0-.05,0-.06a.47.47,0,0,1,.24-.13.18.18,0,0,0,.17-.14l0-.07a.28.28,0,0,0,0-.16c0-.09-.05-.18-.08-.27L17,15.58q0-.11,0-.15a2.47,2.47,0,0,1,.93-.35,13.63,13.63,0,0,1,1.35-.21c.47,0,.91-.08,1.33-.1l.85,0,.69,0h.28l.31,0h.11c.35.08.64.16.89.24a2.7,2.7,0,0,1,.75.39,2.63,2.63,0,0,1,.49.41.75.75,0,0,1,.1.56,9.59,9.59,0,0,1,0,1.53c0,.37-.06.7-.09,1a3.15,3.15,0,0,1-.09.36c0,.14-.07.27-.11.4-.12.41-.27.89-.45,1.43s-.39,1.11-.63,1.69-.5,1.16-.8,1.73A11.08,11.08,0,0,1,22,26a6.23,6.23,0,0,1-1,1.11,1.93,1.93,0,0,1-1.12.47l-1.2.25a.11.11,0,0,1,.06-.11s0,0,0,0Zm.38-2a.34.34,0,0,0,0,.16c0,.06,0,.1.11.11a1,1,0,0,0,.35-.13l.44-.26a3.81,3.81,0,0,0,.36-.3.72.72,0,0,0,.2-.24l2-5.77.05-.19a.56.56,0,0,0,0-.34,1.94,1.94,0,0,0-.13-.3,2.89,2.89,0,0,1-.15-.31.67.67,0,0,1-.06-.35.24.24,0,0,1-.11-.06.24.24,0,0,0-.12-.05h.18l-.33,0-.47,0-.44-.05a.56.56,0,0,0-.2,0l-.19.07s0,0-.07.11v.06a.37.37,0,0,1,.31.12.79.79,0,0,1,.15.32,1.33,1.33,0,0,1,0,.4c0,.13,0,.26,0,.37a1.06,1.06,0,0,0,0,.29,4,4,0,0,1-.05.44,3.32,3.32,0,0,1-.13.55,4,4,0,0,1-.3.64A7.46,7.46,0,0,0,19,21.65c-.17.47-.32.93-.45,1.4s-.22.9-.29,1.3A4.22,4.22,0,0,0,18.2,25.28Z" style="fill:#423c25"/><path d="M23.58,27.55l.22-.72c.32-1.27.64-2.5.95-3.7s.64-2.43,1-3.7l0-.14a1.3,1.3,0,0,0,.06-.19l.05-.14,0-.09a.34.34,0,0,1,.05-.12l.13-.23c0-.08.09-.15.12-.22l.06-.13s0-.09.08-.2.08-.22.13-.34.09-.24.14-.35.07-.19.08-.23l.09-.25c0-.11.07-.23.11-.36L27,16l.13-.43c0-.14.06-.25.08-.35a1.85,1.85,0,0,1,.06-.25l.2-.08.4-.13.57-.2a.35.35,0,0,1,.3.11.64.64,0,0,1,.1.26,2.28,2.28,0,0,1,0,.26c0,.07,0,.11.07.11H29a1.07,1.07,0,0,0,.17-.26.16.16,0,0,0,.11-.1s0-.06.05-.06a1.18,1.18,0,0,1,.28-.05l.2,0A1.46,1.46,0,0,1,30,15l.13.15h.11l.43-.16h.11a.19.19,0,0,1,0,.08.16.16,0,0,0,.1.08l-.1.36A24.64,24.64,0,0,1,30,18.05l-1,2.57a1,1,0,0,1-.26.41,1,1,0,0,0-.24.42,1.47,1.47,0,0,0-.06.59,3.4,3.4,0,0,1,0,.56l-.11.41-.33,1.14-.1.38c-.14.45-.27.94-.41,1.47a9.52,9.52,0,0,1-.55,1.55.19.19,0,0,1-.12.1h-.11a.22.22,0,0,1-.1,0,.22.22,0,0,0-.1,0,.88.88,0,0,0-.17-.34.65.65,0,0,0-.41-.09h-.12a.22.22,0,0,0-.13.05l-.21.21-.28,0a.38.38,0,0,0-.25.06l-.12.06a1,1,0,0,0-.19.12,1.41,1.41,0,0,0-.18.14l-.1.08A1.09,1.09,0,0,1,23.58,27.55Z" style="fill:#423c25"/><path d="M28.05,26.9v0c0-.05.11-.09.27-.13l.41-.08.22,0a1,1,0,0,0-.08-.2,2.94,2.94,0,0,0-.16-.31l-.1-.15,1.28,0s0-.09-.11-.13a1.17,1.17,0,0,0-.25-.08l-.32-.08-.19,0c-.09,0-.2-.09-.3-.27,0,0,0-.06.07-.13a1.8,1.8,0,0,1,.08-.21,1,1,0,0,1,.11-.2.18.18,0,0,1,.15-.09,1,1,0,0,1,.53.17,1.3,1.3,0,0,0,.66.17,1.13,1.13,0,0,0,.54-.13,1.45,1.45,0,0,0,.45-.33,2.36,2.36,0,0,0,.33-.45,1.6,1.6,0,0,0,.19-.46.22.22,0,0,1,.17-.14c.09,0,.14-.07.14-.15a.6.6,0,0,1-.16-.15L31.73,23l-.24-.29c-.07-.09-.11-.14-.11-.17a1.73,1.73,0,0,0-.06-.27c0-.14-.09-.29-.15-.46s-.1-.31-.14-.46a1.48,1.48,0,0,1-.06-.25c-.1-.26-.19-.48-.26-.65a1.8,1.8,0,0,1-.17-.51,1.63,1.63,0,0,1,0-.59,4.71,4.71,0,0,1,.2-.88,7.31,7.31,0,0,1,.69-1.65,4.19,4.19,0,0,1,1.07-1.22A4.73,4.73,0,0,1,34,14.86a8,8,0,0,1,2.15-.26h.07s0,0-.06.09l-.19.2-.2.19c-.06.05-.08.08-.07.08l.16-.06.32-.13.32-.12a.63.63,0,0,1,.19-.07.86.86,0,0,1,.34.06c.1,0,.12.13.07.29a.25.25,0,0,1-.12.17l-.2.07-.21.06a.52.52,0,0,0-.17.13s0,.07-.12.14l-.27.23-.24.21c-.07.07-.1.1-.09.1l1.35-.56s0,.06,0,.16,0,.22,0,.35,0,.26,0,.39a2,2,0,0,1-.06.24.55.55,0,0,1-.36.37,4,4,0,0,1-.57.21l-.25.08-.38.1-.38.09-.23,0a.51.51,0,0,0-.29.31.56.56,0,0,0,0,.3l.06.46c0,.16.05.31.08.45s0,.24.07.3l-.42.57a1,1,0,0,0,.24-.08.46.46,0,0,1,.19,0q.23,0,.33.36c.06.15.13.38.22.68s.18.62.25,1a7.21,7.21,0,0,1,.17,1,2.29,2.29,0,0,1,0,.81v0a4.35,4.35,0,0,0-.59.92,4.41,4.41,0,0,1-.6.9c0,.06-.13.16-.24.29l-.37.41-.38.41a2,2,0,0,1-.29.26,1.35,1.35,0,0,1-.67.31,9.16,9.16,0,0,1-1,.2,10.5,10.5,0,0,1-1.07.11l-.8,0a1.77,1.77,0,0,1-.44-.07,2.34,2.34,0,0,1-.53-.17,1.94,1.94,0,0,1-.43-.24C28.06,27.11,28,27,28.05,26.9Z" style="fill:#423c25"/><path d="M40.13,23.21l-.36.78-.17.53c-.08.24-.16.5-.26.78s-.18.54-.26.78-.14.43-.17.54l0,.12a1.07,1.07,0,0,1-.09.27,1,1,0,0,1-.07.16c0,.06,0,.09-.13.09l-.09,0-.09,0s0,0,0,0l-.16.67H38.1A.36.36,0,0,1,38,28a1.7,1.7,0,0,0-.39,0l-.36,0A.7.7,0,0,1,37,28c-.06,0-.07-.08-.05-.18s0-.05,0-.12a1.16,1.16,0,0,1,.07-.24l0-.23,0-.13a.05.05,0,0,1,0,0,.05.05,0,0,0,0,0H37a.22.22,0,0,0-.19.09,1.1,1.1,0,0,0-.14.21,2.26,2.26,0,0,0-.11.22.41.41,0,0,1-.11.16h-.08l-.18-.05H36l-.11.05a.07.07,0,0,1-.1,0,3,3,0,0,1-.16-.4,4.15,4.15,0,0,1-.09-.43,3,3,0,0,1,0-.39.63.63,0,0,1,0-.29l0-.13.09-.3,0-.09L37.34,21s0-.05.09-.09l.2-.17.2-.17c.06-.05.09-.08.09-.1a.45.45,0,0,0,0-.16v-.63a1.47,1.47,0,0,1,0-.16,2.33,2.33,0,0,1,.09-.23c0-.12.1-.25.16-.39a3.54,3.54,0,0,1,.19-.39.43.43,0,0,1,.17-.21s0-.07.12-.16L38.8,18l.05-.18h-.19l-.34,0a.82.82,0,0,1-.29-.08c-.09,0-.12-.08-.09-.14a.58.58,0,0,1,.1-.16l.11-.18,0,0s0-.06,0-.08,0,0,.08-.07l.41-.27-.23-.25a.06.06,0,0,1,0-.1s0-.05,0-.08a.53.53,0,0,1,.28-.14c.1,0,.16-.08.18-.2a.32.32,0,0,0,0-.19c0-.09,0-.18-.08-.28a1.31,1.31,0,0,1-.06-.27c0-.08,0-.14.05-.16a1.65,1.65,0,0,1,.55-.28,6.6,6.6,0,0,1,.77-.2,8,8,0,0,1,.89-.11l.88-.07c.27,0,.51,0,.72,0h.49l.61.05h.72a5.31,5.31,0,0,1,.87.33,3.36,3.36,0,0,1,.7.48,1.94,1.94,0,0,1,.48.44.93.93,0,0,1,.06.61,8.12,8.12,0,0,1,0,.91c0,.27,0,.5-.08.71s-.06.39-.1.56a4.28,4.28,0,0,0-.07.48,7.53,7.53,0,0,1-.37,1c-.16.37-.34.74-.53,1.11a10.35,10.35,0,0,1-.61,1,6.86,6.86,0,0,1-.61.8l-1,.37c-.34.12-.72.24-1.14.35l-1.19.21a.1.1,0,0,1,.07-.11s0,0,0,0Zm.76-2s0,.09,0,.15,0,.11.13.12a.86.86,0,0,0,.4-.14,1.25,1.25,0,0,0,.28-.36l1.05-2,0-.18a2.33,2.33,0,0,0,.05-.79,3.41,3.41,0,0,1,0-.78q0-.15-.18-.15h.18l-.29.07-.4.08-.36.07a.59.59,0,0,0-.19.05l-.17,0s0,.06-.07.13l0,.07c.29,0,.46.11.5.26a1.22,1.22,0,0,1,0,.59,6.27,6.27,0,0,1-.44,1.38A6.35,6.35,0,0,0,40.89,21.23Z" style="fill:#423c25"/><path d="M45.36,26.85h-.09l-.08.07-.23.81-.05,0s-.06,0-.09.06h-.06c-.08,0-.14-.07-.17-.21a.5.5,0,0,1,0-.27c0-.1.07-.29.15-.58s.14-.44.18-.54-.07-.12-.06-.13l0-.14,0-.13c0-.14.11-.36.21-.65l.35-1c.13-.36.27-.74.42-1.13s.28-.78.41-1.14.25-.68.35-1l.23-.65a10.72,10.72,0,0,1,.57-.94,5.28,5.28,0,0,0,.52-.95c.19-.36.35-.7.51-1s.32-.66.49-1,.35-.64.54-1,.43-.65.68-1q.06,0,.15.06a2.94,2.94,0,0,1,.22.3l.22.33c.06.11.11.16.15.16s.09,0,.13-.16a2.52,2.52,0,0,0,.13-.33,1.93,1.93,0,0,1,.13-.32c0-.1.08-.14.11-.13h1.93l.4-.14s.06,0,.07,0a.88.88,0,0,1,0,.17,1.41,1.41,0,0,1,0,.18c0,.06,0,.08,0,.08a.52.52,0,0,0,.22,0h.25a.38.38,0,0,1,.18.07c.05,0,.05.11,0,.22L54,17a1.38,1.38,0,0,0-.06.48,3.5,3.5,0,0,0,.07.45c0,.15.07.3.1.45a1.75,1.75,0,0,1,0,.46c0,.17-.12.45-.21.85s-.18.83-.27,1.29-.18.89-.27,1.3-.16.69-.2.86l0,.07a15.69,15.69,0,0,1-.24,2,19.75,19.75,0,0,1-.48,2,1.65,1.65,0,0,1-.56-.08,1.91,1.91,0,0,0-.54-.08.21.21,0,0,0-.16.08l-.15.18a1.43,1.43,0,0,1-.15.18.21.21,0,0,1-.17.08c-.07,0-.1,0-.09-.14s0-.2,0-.32.05-.23.07-.33,0-.14-.07-.14a.67.67,0,0,0-.14.15l-.23.28-.11.14s-.06.12-.14.25a1.15,1.15,0,0,1-.19.24s0,.06-.12.07l0,0h0a.28.28,0,0,1-.29-.19,1.15,1.15,0,0,1-.06-.48,3.57,3.57,0,0,1,.07-.62c0-.22.08-.43.11-.62a3.06,3.06,0,0,0,0-.47c0-.13,0-.2-.1-.2H49a.63.63,0,0,0-.49.18l-.27,1-.29,1a1.84,1.84,0,0,1-.06.18l-.09.2-.12.25-.12.07H46l-.36-.38-.18-.09a.27.27,0,0,1,0-.18c0-.07,0-.15,0-.23a.64.64,0,0,0,0-.22Q45.5,26.85,45.36,26.85Zm4.1-4.52-.08.16c0,.09,0,.13.08.15a2.42,2.42,0,0,0,.59-.1.61.61,0,0,0,.42-.35.28.28,0,0,1,.07-.09.17.17,0,0,0,.07-.08c0-.07,0-.19,0-.35s.05-.34.09-.53.07-.37.1-.53.06-.28.08-.35,0-.08,0-.16l0-.26a.55.55,0,0,0,0-.22c0-.07,0-.1-.06-.1s-.17.07-.27.2a4.49,4.49,0,0,0-.31.48c-.1.2-.21.41-.31.64s-.19.46-.27.67-.15.39-.2.54S49.47,22.29,49.46,22.33Z" style="fill:#423c25"/><path d="M58.2,23.46l-.09,0-.17.34c0,.11-.1.3-.19.56l-.28.83c-.11.29-.2.56-.29.83s-.16.45-.19.56a2,2,0,0,1-.09.3,1.25,1.25,0,0,1-.11.26.13.13,0,0,1-.14.09h-.09l-.08,0s-.07,0-.07,0l-.16.66h-.09c-.08,0-.13,0-.13,0a.58.58,0,0,1-.51-.35.65.65,0,0,1,.14-.6.14.14,0,0,0-.09-.05h0a.26.26,0,0,0-.19.09l-.15.19-.13.22a.27.27,0,0,1-.11.14h0l-.06,0h-.41l-.22,0-.2,0h-.12a.26.26,0,0,1-.33-.16,1.11,1.11,0,0,1-.09-.46,2.27,2.27,0,0,1,0-.52,2.38,2.38,0,0,1,.08-.35l0-.13a1.07,1.07,0,0,1,.06-.17.32.32,0,0,0,0-.14l0-.07L55.42,21s0-.09.07-.19.06-.17.08-.21a.92.92,0,0,0,.11-.2,2.29,2.29,0,0,0,.16-.35c0-.12.09-.24.13-.35l.08-.21a2.25,2.25,0,0,1,.1-.23l.19-.37c.07-.13.14-.25.22-.37a1,1,0,0,1,.16-.22,1.12,1.12,0,0,1,.13-.18l.14-.16,0-.08v-.09h-.19a1.84,1.84,0,0,1-.33,0,2,2,0,0,1-.29-.08c-.08,0-.12-.09-.1-.15l.12-.15.13-.17.29-.08.19-.06s.07,0,.06-.06l-.43-.22.09-.27s0,0,0-.1a.28.28,0,0,0,0-.09.49.49,0,0,1,.18-.08l.18,0,.17,0a.18.18,0,0,0,.09-.1l-.35-.48c-.08-.11-.05-.22.1-.32A2.61,2.61,0,0,1,57.6,15a9,9,0,0,1,1-.24c.37-.07.74-.14,1.09-.19l1-.13c.29,0,.49,0,.6,0a2.32,2.32,0,0,1,.6.05,2.15,2.15,0,0,0,.55.08.41.41,0,0,0,.19-.06.34.34,0,0,1,.17,0h.11a3.69,3.69,0,0,1,.83.32,5.61,5.61,0,0,1,.68.47,1.69,1.69,0,0,1,.49.46,1,1,0,0,1,0,.62l-.43.38.29.16,0,.34,0,.18a2.93,2.93,0,0,0-.05.88,2.29,2.29,0,0,1-.1.92.88.88,0,0,1-.52.67l-2,2.34-.07.31c.1.75.18,1.52.25,2.31a8.41,8.41,0,0,1-.14,2.39l-.36,0a1,1,0,0,1-.22-.05l-.17,0-.24,0a.18.18,0,0,0,0,.09v.07a.18.18,0,0,1,0,.08.91.91,0,0,1-.12.17,3.52,3.52,0,0,1-.38.42.66.66,0,0,1-.38.21c-.08,0-.13,0-.14-.09a1.08,1.08,0,0,1,0-.19.61.61,0,0,0,0-.18c0-.06-.07-.09-.16-.09a.21.21,0,0,0-.13.07l-.17.15-.18.16a.41.41,0,0,1-.11.1.25.25,0,0,1-.13.09c-.14,0-.26-.07-.35-.26a3.19,3.19,0,0,1-.22-.73,7.2,7.2,0,0,1-.1-1c0-.36,0-.71,0-1.05s0-.65,0-.92,0-.46,0-.57S58.3,23.46,58.2,23.46Zm.7-2.32-.06.16c0,.05,0,.09.11.11a2,2,0,0,0,.57-.15.73.73,0,0,0,.4-.37L61.11,19l.06-.18a.73.73,0,0,0,0-.36,2.75,2.75,0,0,0-.15-.36,3.73,3.73,0,0,1-.16-.35.67.67,0,0,1,0-.37q0-.15-.18-.15h0a1.41,1.41,0,0,1-.31.06l-.38.06-.34.05-.18,0-.17,0a.29.29,0,0,0-.08.13l0,.05a.72.72,0,0,1,.53.26.81.81,0,0,1,0,.57,6,6,0,0,1-.42,1.32A6.44,6.44,0,0,0,58.9,21.14Z" style="fill:#423c25"/><path d="M63.13,27.55l.22-.72c.32-1.27.63-2.5.94-3.7s.64-2.43,1-3.7l0-.14a1.45,1.45,0,0,1,.06-.19l0-.14,0-.09a1,1,0,0,1,0-.12l.13-.23.13-.22,0-.13s0-.09.08-.2.09-.22.14-.34.09-.24.13-.35.07-.19.08-.23a1.37,1.37,0,0,0,.09-.25c0-.11.07-.23.11-.36l.13-.43.12-.43a2.1,2.1,0,0,0,.08-.35,1,1,0,0,1,.07-.25l.2-.08.39-.13.58-.2a.34.34,0,0,1,.29.11.52.52,0,0,1,.1.26,1.14,1.14,0,0,1,0,.26c0,.07,0,.11.07.11h.06a1.21,1.21,0,0,0,.16-.26.18.18,0,0,0,.12-.1s0-.06,0-.06a1.18,1.18,0,0,1,.28-.05l.21,0,.15.17a1.14,1.14,0,0,0,.14.15h.1l.44-.16h.1s0,0,0,.08a.14.14,0,0,0,.1.08l-.11.36a24.59,24.59,0,0,1-.85,2.55l-1,2.57a1.07,1.07,0,0,1-.26.41.89.89,0,0,0-.25.42,1.47,1.47,0,0,0-.06.59,2.07,2.07,0,0,1,0,.56l-.11.41-.32,1.14-.11.38c-.13.45-.27.94-.4,1.47a10.57,10.57,0,0,1-.55,1.55.2.2,0,0,1-.13.1h-.11l-.1,0a.19.19,0,0,0-.1,0,.67.67,0,0,0-.17-.34.61.61,0,0,0-.4-.09h-.13c-.06,0-.1,0-.12.05l-.22.21-.28,0c-.14,0-.22,0-.24.06a.28.28,0,0,0-.13.06l-.19.12-.18.14-.1.08A1.07,1.07,0,0,1,63.13,27.55Z" style="fill:#423c25"/><path d="M70.08,27.05a.25.25,0,0,0-.15.09,1.26,1.26,0,0,0-.2.2l-.18.19a.21.21,0,0,1-.14.09c-.15,0-.23-.13-.22-.38a3.76,3.76,0,0,1,.12-.88,9.25,9.25,0,0,1,.25-.94l.18-.62A38.09,38.09,0,0,1,71,21.07c.48-1.23.91-2.47,1.27-3.73a.11.11,0,0,1,0-.11s0-.05,0-.05H70.67A.43.43,0,0,1,70.8,17a.37.37,0,0,0,.13-.2v-.09c-.1-.12-.15-.19-.14-.23s.07-.11.17-.14a1.59,1.59,0,0,1,.33-.09,2.23,2.23,0,0,1,.36-.05h.24L71.61,16a1.73,1.73,0,0,1-.32,0,1.63,1.63,0,0,1-.29-.1.4.4,0,0,1-.19-.17.32.32,0,0,1,0-.27.89.89,0,0,1,.16-.27.67.67,0,0,1,.27-.2l.92-.16h.41l.89,0,1,0H78.4c0,.15-.09.24-.17.28a.57.57,0,0,1-.25.08l-.28,0a.38.38,0,0,0-.25.17.78.78,0,0,0,0,.32q0,.15,0,.27a2.45,2.45,0,0,1,0,.27.62.62,0,0,1,0,.29,2.15,2.15,0,0,1-.16.38,2.24,2.24,0,0,1-.34.38.62.62,0,0,1-.44.1l-.52,0a.62.62,0,0,0-.31.07,1.64,1.64,0,0,1-.07.21c0,.1-.07.21-.11.32s-.09.23-.13.34a2.2,2.2,0,0,0-.08.23l-.09.31-.15.49-.25.74c-.08.26-.17.5-.25.72s-.14.38-.18.46l-1.58,5.48c0,.09-.08.22-.15.38a1.42,1.42,0,0,1-.29.43,1,1,0,0,0-.53,0,1,1,0,0,0-.28.21l-.2.23A.4.4,0,0,1,71,28a.34.34,0,0,1-.31-.15,1.71,1.71,0,0,1-.17-.33,1.87,1.87,0,0,0-.15-.32A.29.29,0,0,0,70.08,27.05Z" style="fill:#423c25"/><path d="M75.52,27.55l.21-.72c.33-1.27.64-2.5,1-3.7s.64-2.43,1-3.7l0-.14a1.45,1.45,0,0,1,.06-.19l0-.14,0-.09a1,1,0,0,1,0-.12l.13-.23.13-.22,0-.13s0-.09.08-.2.09-.22.14-.34.09-.24.13-.35.07-.19.08-.23a1.37,1.37,0,0,0,.09-.25c0-.11.07-.23.11-.36L79,16l.12-.43a2.1,2.1,0,0,0,.08-.35,1,1,0,0,1,.07-.25.79.79,0,0,1,.19-.08l.4-.13.58-.2a.34.34,0,0,1,.29.11.52.52,0,0,1,.1.26,2.28,2.28,0,0,1,0,.26c0,.07,0,.11.07.11H81a1.21,1.21,0,0,0,.16-.26.18.18,0,0,0,.12-.1s0-.06,0-.06a1.18,1.18,0,0,1,.28-.05l.21,0,.15.17a1.14,1.14,0,0,0,.14.15h.1L82.6,15h.1s0,0,0,.08a.14.14,0,0,0,.1.08l-.11.36a24.64,24.64,0,0,1-.86,2.55c-.33.84-.67,1.69-1,2.57a1.07,1.07,0,0,1-.26.41.89.89,0,0,0-.25.42,1.47,1.47,0,0,0-.06.59,2.57,2.57,0,0,1,0,.56l-.11.41-.32,1.14-.11.38c-.13.45-.27.94-.4,1.47a10.57,10.57,0,0,1-.55,1.55.2.2,0,0,1-.13.1h-.11l-.1,0a.22.22,0,0,0-.1,0,.67.67,0,0,0-.17-.34.61.61,0,0,0-.4-.09h-.13c-.06,0-.1,0-.12.05l-.22.21-.28,0c-.14,0-.22,0-.24.06a.28.28,0,0,0-.13.06l-.19.12-.18.14-.1.08A1.07,1.07,0,0,1,75.52,27.55Z" style="fill:#423c25"/><path d="M81.86,19.86a1.66,1.66,0,0,1,.16-.37l.23-.38c.09-.14.16-.27.23-.39a.85.85,0,0,0,.1-.35,1.5,1.5,0,0,1,.17-.26l.3-.41.3-.41a2.49,2.49,0,0,1,.2-.26l.37-.45c.1-.12.21-.22.31-.32l.35-.29c.12-.09.27-.22.45-.38l.18-.24a.58.58,0,0,1,.23-.24,3.4,3.4,0,0,1,.89-.4,11.13,11.13,0,0,1,1.17-.3c.4-.07.79-.14,1.17-.18a7.54,7.54,0,0,1,.89-.08c.23,0,.32.1.27.29a.42.42,0,0,1-.11.18l-.18.14-.18.12a.23.23,0,0,0-.1.16c0,.07,0,.12.07.16l.24.08.27.05c.09,0,.14.05.16.1l.3.65a1.15,1.15,0,0,1,.09.26c0,.07,0,.13,0,.18s0,.11,0,.17a1.11,1.11,0,0,0,.14.25,1.55,1.55,0,0,0,.19.31,1.51,1.51,0,0,1,.12.2.52.52,0,0,1,0,.23,2.23,2.23,0,0,1-.07.4,5.13,5.13,0,0,1-.25.72,5.05,5.05,0,0,0-.27.74v0a2,2,0,0,0-.08.45c0,.23,0,.48-.08.75s-.06.52-.09.76,0,.37-.06.42l0,.07,0,.1a.62.62,0,0,1,0,.16l0,.07,0,.09,0,.11-.05.1,0,.09a.51.51,0,0,1-.28.15.25.25,0,0,0-.22.16.13.13,0,0,0,0,.14.52.52,0,0,0,.1.11l.11.11a.22.22,0,0,1,0,.14,2.31,2.31,0,0,0-.06.37,2.55,2.55,0,0,1-.07.43,2.22,2.22,0,0,1-.55.86,13.14,13.14,0,0,1-1,1q-.56.48-1.11.9c-.37.29-.67.52-.88.7a.13.13,0,0,0,0,.07c0,.07,0,.13,0,.16a.17.17,0,0,1,0,.16c0,.11-.19.18-.47.21a7.45,7.45,0,0,1-.79.05h-.36a3.53,3.53,0,0,1-.6-.07,6.61,6.61,0,0,1-.81-.18,5.78,5.78,0,0,1-.74-.26.65.65,0,0,1-.39-.3,1.18,1.18,0,0,0-.16-.29L81.38,27a2.28,2.28,0,0,1-.17-.3.48.48,0,0,1,0-.31l0-.13.07-.25,0-.22,0-.12a.29.29,0,0,0-.11-.2.23.23,0,0,1-.07-.22.57.57,0,0,1,0-.21c0-.11,0-.23,0-.35s0-.22,0-.32a.69.69,0,0,1,0-.2,7.12,7.12,0,0,1,.1-.94,9.2,9.2,0,0,1,.22-1c.1-.32.19-.64.28-.94a7,7,0,0,0,.21-.93.24.24,0,0,0,0-.16c-.05-.09-.06-.14-.05-.15V20A.29.29,0,0,1,81.86,19.86ZM84,23.93a.65.65,0,0,0,0,.31c0,.14.1.29.16.45s.14.29.21.41.13.18.18.18a.46.46,0,0,0,.32-.17,1.17,1.17,0,0,1,.26-.21l.16-.16.27-.27.29-.28A1.64,1.64,0,0,1,86,24l0-.12c.08-.29.16-.57.22-.84s.11-.54.17-.8.12-.53.19-.8.15-.55.25-.84a2.47,2.47,0,0,1,0-.35c0-.14,0-.28.06-.42s.05-.27.07-.39,0-.23.07-.3.06-.13.14-.27a1.39,1.39,0,0,0,.13-.27v0a.36.36,0,0,0,0-.09l0-.07v-.07a.43.43,0,0,0,0-.41.81.81,0,0,0-.3-.21l-.3-.15c-.09,0-.11-.1,0-.17h-.2a.11.11,0,0,0-.1.05l-.06.21-1,1.4-.06.16a1.21,1.21,0,0,0,0,.5,1.15,1.15,0,0,1-.06.51,13.32,13.32,0,0,1-.68,1.85A12.75,12.75,0,0,0,84,23.93Z" style="fill:#423c25"/><path d="M91.51,26.8l-.63.52a.46.46,0,0,0-.2.05l-.18.13a.94.94,0,0,1-.18.12.36.36,0,0,1-.2.06c-.12,0-.18-.07-.2-.2a1,1,0,0,1,0-.31l0-.07.32-.79,0-.09,0-.07.25-1.61,1.91-6.24a6,6,0,0,1-.31-1.13,2.84,2.84,0,0,1,.06-1.23.63.63,0,0,1,.19-.18l.36-.31a3.48,3.48,0,0,1,.39-.27c.13-.07.2-.1.23-.07l.55.68a.23.23,0,0,0,.22-.17,3.19,3.19,0,0,0,.13-.37,2.43,2.43,0,0,1,.16-.37.3.3,0,0,1,.29-.17h.11l.27,0,.28,0a15.63,15.63,0,0,1,.84,1.69A18.46,18.46,0,0,1,97,18.21l-.15.39.33-.39a1.31,1.31,0,0,1,.08-.21c.05-.13.12-.27.19-.42l.21-.48a2.65,2.65,0,0,0,.13-.41s.07-.08.11-.21a.34.34,0,0,1,.2-.27l.64-.26-.39-.28c-.1,0-.14-.13-.14-.27a1.59,1.59,0,0,1,.07-.38l0-.16a.46.46,0,0,1,.14-.1.78.78,0,0,1,.2-.11.51.51,0,0,1,.2,0,.1.1,0,0,1,.09.12c0,.12,0,.19,0,.22A.53.53,0,0,1,99,15a3.68,3.68,0,0,0,.56.05l.84.05a3.82,3.82,0,0,1,.76.14c.21.07.3.16.27.28a.21.21,0,0,1,0,.09.12.12,0,0,0,0,.09l-.26.66-.4,1-.4,1c-.12.32-.21.54-.26.66l-.36,1.84-1.87,6.53a.59.59,0,0,1-.22.15,1.8,1.8,0,0,1-.28.11l-.27.05a.31.31,0,0,1-.24-.14,2.2,2.2,0,0,1-.19-.3q-.07-.18-.15-.33a.62.62,0,0,0-.11-.2l-.47.34-.1.4a.31.31,0,0,1-.13.06l-.18,0a.68.68,0,0,1-.59-.3.9.9,0,0,1-.2-.6L95,23.79l-.16-1.37h-.06c-.15.54-.32,1.08-.49,1.63s-.35,1.09-.52,1.63l-.09.36c-.06.17-.11.33-.17.48s-.13.34-.22.58l-.08,0-.07,0H93l-.12-.07a.21.21,0,0,0-.18.12,2,2,0,0,0-.14.25,2,2,0,0,1-.14.25.25.25,0,0,1-.21.12l0,0-.09-.28a.39.39,0,0,0-.18-.2.33.33,0,0,0-.21.17,1.28,1.28,0,0,0-.1.26,1.17,1.17,0,0,1-.1.26.27.27,0,0,1-.26.12c-.11,0-.15-.07-.14-.19a1.6,1.6,0,0,1,.11-.43l.21-.45A1,1,0,0,0,91.51,26.8Z" style="fill:#423c25"/><path d="M13.64,47.52l1.21,0,0,6.25,4,0,0,1.16H13.58Z" style="fill:#423c25"/><path d="M21.2,52.79a2.15,2.15,0,0,0,.42,1.34,1.3,1.3,0,0,0,.91.39h.14a1.44,1.44,0,0,0,.79-.22,1.7,1.7,0,0,0,.58-1l1.17.22a3.43,3.43,0,0,1-.65,1.26,1.88,1.88,0,0,1-1.19.65,4.62,4.62,0,0,1-.73.07,4.17,4.17,0,0,1-.71-.07,2.17,2.17,0,0,1-1.2-.69,2.73,2.73,0,0,1-.67-1.25,5.17,5.17,0,0,1-.11-1c0-.13,0-.25,0-.38a3.41,3.41,0,0,1,.37-1.32,2.05,2.05,0,0,1,.78-.9,3,3,0,0,1,1-.4,3.7,3.7,0,0,1,.6,0l.6,0a2,2,0,0,1,1.29.8,4,4,0,0,1,.59,2.46Zm2.73-.93a1.6,1.6,0,0,0-.39-1,1.2,1.2,0,0,0-.94-.42,1.31,1.31,0,0,0-1,.4,1.44,1.44,0,0,0-.41,1Z" style="fill:#423c25"/><path d="M35.68,47.26h1.37l3.53,5.68h0V47.1h1.28L41.78,55H40.45L37,49.2h0v5.25H35.63Z" style="fill:#423c25"/><path d="M44.13,47.87a.62.62,0,0,1,.21.47.67.67,0,0,1-.21.49.69.69,0,0,1-.49.19.67.67,0,0,1-.7-.68.65.65,0,0,1,.2-.47.66.66,0,0,1,.5-.2A.66.66,0,0,1,44.13,47.87ZM43,49.69l1.18,0-.1,5.86h-1Z" style="fill:#423c25"/><path d="M46.54,49.19l.06,1.34a1.73,1.73,0,0,1,.95-.92,2.27,2.27,0,0,1,.76-.14,1.51,1.51,0,0,1,.42.05,1.61,1.61,0,0,1,1,.61,2.7,2.7,0,0,1,.51,1.13,12.84,12.84,0,0,1,.07,1.81c0,.72,0,1.64,0,2.76l-1.11,0c0-1,0-1.76,0-2.39a15.57,15.57,0,0,0,0-1.82,1.16,1.16,0,0,0-.37-.7,1.07,1.07,0,0,0-.71-.24h0a.92.92,0,0,0-.66.22,2.08,2.08,0,0,0-.45.58,3.56,3.56,0,0,0-.22,1.42l-.06,2.54-1.11,0-.1-6.12Z" style="fill:#423c25"/><path d="M51,56.29h0a.38.38,0,0,1,.22.07,1.06,1.06,0,0,0,.78-.5,3.61,3.61,0,0,0,.2-1.52l0-4.53,1.07.07c0,.82,0,1.56,0,2.21a27.77,27.77,0,0,1-.13,3.79,1.74,1.74,0,0,1-1.5,1.46,1.55,1.55,0,0,1-.31,0,2.8,2.8,0,0,1-.48,0Zm2.23-8.42a.65.65,0,0,1,.2.47.67.67,0,0,1-.7.68.69.69,0,0,1-.49-.19.7.7,0,0,1-.2-.49.68.68,0,0,1,.69-.67A.66.66,0,0,1,53.19,47.87Z" style="fill:#423c25"/><path d="M55.15,50.38a2.24,2.24,0,0,1,1.15-.61,3.08,3.08,0,0,1,.68-.08,4.47,4.47,0,0,1,.87.1,1.41,1.41,0,0,1,1.08,1.13,7.56,7.56,0,0,1,.16,1.8c0,.4,0,.86,0,1.36v0c0,.29.11.43.33.43a1.32,1.32,0,0,0,.42-.1l.09,1a3,3,0,0,1-.74.1,1.06,1.06,0,0,1-1-.55,2.66,2.66,0,0,1-1,.58,2.86,2.86,0,0,1-.89.13h0a2.14,2.14,0,0,1-.84-.17,1.54,1.54,0,0,1-.65-.49,1.39,1.39,0,0,1-.29-.77V54.1a2.52,2.52,0,0,1,.14-.78,1.71,1.71,0,0,1,.92-.87A8,8,0,0,1,58,51.93a1.43,1.43,0,0,0-.19-.92,1.1,1.1,0,0,0-.75-.24h-.19a1.48,1.48,0,0,0-.7.15,1,1,0,0,0-.4.82l-1.13-.14A1.88,1.88,0,0,1,55.15,50.38ZM58,52.87a4.88,4.88,0,0,0-1.91.41.87.87,0,0,0-.46.71s0,0,0,.06a.67.67,0,0,0,.27.58,1.08,1.08,0,0,0,.59.16l.17,0a1.58,1.58,0,0,0,.75-.21,5.86,5.86,0,0,0,.6-.41Z" style="fill:#423c25"/><path d="M73.83,50.79a1.52,1.52,0,0,0-.79-.25h-.12a1.4,1.4,0,0,0-.68.25,2.09,2.09,0,0,0-.45.52,3.4,3.4,0,0,0-.22,1.4l-.07,2.54-1.1,0-.1-6.12L71.45,49l0,1.34a1.83,1.83,0,0,1,1-.94,1.33,1.33,0,0,1,.54-.1,3.14,3.14,0,0,1,1.13.25Z" style="fill:#423c25"/><path d="M76.46,52.79a2.16,2.16,0,0,0,.41,1.34,1.32,1.32,0,0,0,.91.39h.14a1.47,1.47,0,0,0,.8-.22,1.69,1.69,0,0,0,.57-1l1.18.22a3.6,3.6,0,0,1-.66,1.26,1.85,1.85,0,0,1-1.19.65,4.61,4.61,0,0,1-.72.07,4.18,4.18,0,0,1-.72-.07,2.24,2.24,0,0,1-1.2-.69,2.62,2.62,0,0,1-.66-1.25,4.55,4.55,0,0,1-.12-1c0-.13,0-.25,0-.38a3.24,3.24,0,0,1,.36-1.32,2.12,2.12,0,0,1,.78-.9,3,3,0,0,1,1-.4,3.7,3.7,0,0,1,.6,0l.6,0a2,2,0,0,1,1.29.8,4,4,0,0,1,.59,2.46Zm2.72-.93a1.6,1.6,0,0,0-.39-1,1.2,1.2,0,0,0-.94-.42,1.31,1.31,0,0,0-1,.4,1.43,1.43,0,0,0-.4,1Z" style="fill:#423c25"/><path d="M82.64,49.15l0,1a1.67,1.67,0,0,1,.74-.7,2.39,2.39,0,0,1,1.09-.24,2.19,2.19,0,0,1,1.2.39,2.11,2.11,0,0,1,.83,1.09,4.68,4.68,0,0,1,.26,1.42v.08a5.24,5.24,0,0,1-.24,1.49,2.28,2.28,0,0,1-.84,1.26,1.88,1.88,0,0,1-1.12.31,2.89,2.89,0,0,1-.5,0,1.67,1.67,0,0,1-1.43-1.07l0,2.9h-1.2V49.15Zm2.94,3a2.5,2.5,0,0,0-.36-1.35,1.18,1.18,0,0,0-1-.62,1.3,1.3,0,0,0-1.11.56,2.23,2.23,0,0,0-.37,1.34v.07c0,1.32.48,2,1.38,2a1.26,1.26,0,0,0,1.11-.61,2.4,2.4,0,0,0,.35-1.32Z" style="fill:#423c25"/><path d="M91.39,50.79a1.55,1.55,0,0,0-.8-.25h-.12a1.4,1.4,0,0,0-.68.25,2.09,2.09,0,0,0-.45.52,3.4,3.4,0,0,0-.22,1.4l-.06,2.54-1.11,0-.1-6.12L89,49l.06,1.34a1.81,1.81,0,0,1,1-.94,1.33,1.33,0,0,1,.54-.1,3.14,3.14,0,0,1,1.13.25Z" style="fill:#423c25"/><path d="M94,52.79a2.16,2.16,0,0,0,.41,1.34,1.34,1.34,0,0,0,.91.39h.14a1.47,1.47,0,0,0,.8-.22,1.64,1.64,0,0,0,.57-1l1.18.22a3.76,3.76,0,0,1-.65,1.26,1.88,1.88,0,0,1-1.2.65,4.61,4.61,0,0,1-.72.07,4.18,4.18,0,0,1-.72-.07,2.18,2.18,0,0,1-1.19-.69,2.56,2.56,0,0,1-.67-1.25,4.55,4.55,0,0,1-.12-1c0-.13,0-.25,0-.38a3.59,3.59,0,0,1,.36-1.32,2.13,2.13,0,0,1,.79-.9,2.89,2.89,0,0,1,1-.4,3.62,3.62,0,0,1,.6,0l.59,0a2,2,0,0,1,1.29.8,4,4,0,0,1,.6,2.46Zm2.72-.93a1.59,1.59,0,0,0-.38-1,1.22,1.22,0,0,0-.95-.42,1.29,1.29,0,0,0-1,.4,1.39,1.39,0,0,0-.41,1Z" style="fill:#423c25"/><path d="M100.22,49.19l.06,1.34a1.73,1.73,0,0,1,1-.92,2.31,2.31,0,0,1,.76-.14,1.51,1.51,0,0,1,.42.05,1.61,1.61,0,0,1,1,.61,2.59,2.59,0,0,1,.51,1.13,12.84,12.84,0,0,1,.07,1.81c0,.72,0,1.64,0,2.76l-1.11,0c0-1,0-1.76,0-2.39a14.52,14.52,0,0,0-.06-1.82,1.11,1.11,0,0,0-.37-.7,1.05,1.05,0,0,0-.71-.24h0a1,1,0,0,0-.66.22,2.08,2.08,0,0,0-.45.58,3.76,3.76,0,0,0-.22,1.42l-.06,2.54-1.11,0-.1-6.12Z" style="fill:#423c25"/><path d="M109.17,55.47l0-.95a1.76,1.76,0,0,1-.74.69,2.38,2.38,0,0,1-1.08.24,2.19,2.19,0,0,1-1.21-.39,2,2,0,0,1-.83-1.09,4.38,4.38,0,0,1-.25-1.42.22.22,0,0,1,0-.08,5.12,5.12,0,0,1,.24-1.48,2.21,2.21,0,0,1,.84-1.26,1.86,1.86,0,0,1,1.12-.32,3.08,3.08,0,0,1,.51,0,1.67,1.67,0,0,1,1.42,1.07l0-2.9h1.2v7.85Zm-3-3a2.49,2.49,0,0,0,.37,1.34,1.18,1.18,0,0,0,1,.62,1.3,1.3,0,0,0,1.11-.56,2.3,2.3,0,0,0,.37-1.33v-.07q0-2-1.38-2a1.26,1.26,0,0,0-1.11.61,2.33,2.33,0,0,0-.36,1.32Z" style="fill:#423c25"/><path d="M124.45,55.82l-.07-1.33a1.7,1.7,0,0,1-.95.92,2.06,2.06,0,0,1-.76.15,2,2,0,0,1-.42-.05,1.62,1.62,0,0,1-1-.62,2.53,2.53,0,0,1-.51-1.13,16.33,16.33,0,0,1-.08-2.12c0-.67,0-1.48,0-2.45l1.11,0c0,.76,0,1.41,0,2a21.17,21.17,0,0,0,.06,2.23,1.11,1.11,0,0,0,.37.7,1.05,1.05,0,0,0,.71.24h0a1,1,0,0,0,.66-.22,2,2,0,0,0,.44-.57,3.65,3.65,0,0,0,.22-1.44l.06-2.5,1.14-.07.09,6.13Z" style="fill:#423c25"/><path d="M127.81,49.19l0,1.34a1.73,1.73,0,0,1,1-.92,2.31,2.31,0,0,1,.76-.14,1.63,1.63,0,0,1,.43.05,1.67,1.67,0,0,1,1,.61,2.69,2.69,0,0,1,.5,1.13,12.22,12.22,0,0,1,.08,1.81c0,.72,0,1.64,0,2.76l-1.1,0c0-1,0-1.76,0-2.39a14.52,14.52,0,0,0-.06-1.82,1.11,1.11,0,0,0-.37-.7,1.05,1.05,0,0,0-.71-.24h0a1,1,0,0,0-.66.22,1.89,1.89,0,0,0-.44.58,3.51,3.51,0,0,0-.23,1.42l-.06,2.54-1.11,0-.09-6.12Z" style="fill:#423c25"/><path d="M133.85,52.79a2.16,2.16,0,0,0,.41,1.34,1.34,1.34,0,0,0,.91.39h.14a1.47,1.47,0,0,0,.8-.22,1.69,1.69,0,0,0,.57-1l1.18.22a3.6,3.6,0,0,1-.66,1.26,1.85,1.85,0,0,1-1.19.65,4.61,4.61,0,0,1-.72.07,4.18,4.18,0,0,1-.72-.07,2.18,2.18,0,0,1-1.19-.69,2.56,2.56,0,0,1-.67-1.25,4.55,4.55,0,0,1-.12-1c0-.13,0-.25,0-.38A3.24,3.24,0,0,1,133,50.8a2.12,2.12,0,0,1,.78-.9,3,3,0,0,1,1-.4,3.7,3.7,0,0,1,.6,0l.6,0a2,2,0,0,1,1.29.8,4,4,0,0,1,.59,2.46Zm2.72-.93a1.6,1.6,0,0,0-.39-1,1.2,1.2,0,0,0-.94-.42,1.31,1.31,0,0,0-1,.4,1.43,1.43,0,0,0-.4,1Z" style="fill:#423c25"/><path d="M16.74,63.36a1.59,1.59,0,0,0-.59-.12,1.53,1.53,0,0,0-.3,0,1.4,1.4,0,0,0-.72.47,1.86,1.86,0,0,0-.38,1,3,3,0,0,0,0,.51,3.11,3.11,0,0,0,.06.62,1.82,1.82,0,0,0,.43.88,1.32,1.32,0,0,0,.84.39h.13A1.42,1.42,0,0,0,17,66.9a1.25,1.25,0,0,0,.5-1l1.11.23A2.36,2.36,0,0,1,18,67.43a2,2,0,0,1-1.18.65,4,4,0,0,1-.68.06,3,3,0,0,1-.68-.07,2.21,2.21,0,0,1-1.08-.54,2.59,2.59,0,0,1-.63-1.15,4.29,4.29,0,0,1-.16-1.17c0-.1,0-.21,0-.31a3.74,3.74,0,0,1,.35-1.35,2.17,2.17,0,0,1,.74-.9,2.46,2.46,0,0,1,.92-.39,3.27,3.27,0,0,1,.57,0l.52,0a2.15,2.15,0,0,1,1.17.53,2.07,2.07,0,0,1,.65,1.36l-1.1.18A1.24,1.24,0,0,0,16.74,63.36Z" style="fill:#423c25"/><path d="M20.32,63.35a2.25,2.25,0,0,1,1.15-.62,3.73,3.73,0,0,1,.68-.07,3.81,3.81,0,0,1,.87.1,1.43,1.43,0,0,1,1.08,1.13,7.45,7.45,0,0,1,.16,1.8c0,.4,0,.85,0,1.35v0q0,.42.33.42a1.1,1.1,0,0,0,.42-.1l.08,1a3,3,0,0,1-.73.1,1.07,1.07,0,0,1-1-.56,2.71,2.71,0,0,1-1,.59,3.19,3.19,0,0,1-.89.13h0a2.13,2.13,0,0,1-.84-.16,1.62,1.62,0,0,1-.65-.49,1.42,1.42,0,0,1-.29-.77v-.17a2.31,2.31,0,0,1,.14-.79,1.73,1.73,0,0,1,.92-.86,8,8,0,0,1,2.51-.52A1.56,1.56,0,0,0,23,64a1.22,1.22,0,0,0-.75-.24h-.19a1.45,1.45,0,0,0-.7.15,1,1,0,0,0-.4.82l-1.13-.15A1.88,1.88,0,0,1,20.32,63.35Zm2.88,2.49a4.93,4.93,0,0,0-1.91.4.87.87,0,0,0-.46.72.43.43,0,0,1,0,.05.64.64,0,0,0,.27.58,1,1,0,0,0,.59.16h.17a1.85,1.85,0,0,0,.75-.21,5.86,5.86,0,0,0,.6-.41Z" style="fill:#423c25"/><path d="M29.65,63.75a1.68,1.68,0,0,0-.8-.25h-.12a1.23,1.23,0,0,0-.68.25,1.92,1.92,0,0,0-.45.52,3.37,3.37,0,0,0-.22,1.4l-.07,2.54-1.1,0-.1-6.12L27.26,62l0,1.34a1.85,1.85,0,0,1,1-1,1.53,1.53,0,0,1,.54-.09,3.33,3.33,0,0,1,1.13.24Z" style="fill:#423c25"/><path d="M31,62.09h.93V60.42l1.18-.16V62L34.66,62v1l-1.54,0v3.51a1.14,1.14,0,0,0,.1.57.39.39,0,0,0,.34.14,4,4,0,0,0,.94-.2l.16,1a7.41,7.41,0,0,1-1.41.22,1.8,1.8,0,0,1-1-.37,1.67,1.67,0,0,1-.3-1.06V63.06H31Z" style="fill:#423c25"/><path d="M37,65.75a2.11,2.11,0,0,0,.41,1.34,1.39,1.39,0,0,0,.91.4h.14a1.39,1.39,0,0,0,.8-.22,1.64,1.64,0,0,0,.57-1l1.18.23a3.6,3.6,0,0,1-.66,1.26,1.9,1.9,0,0,1-1.19.65,4.56,4.56,0,0,1-.72.06,3.38,3.38,0,0,1-.72-.07,2.22,2.22,0,0,1-1.19-.68,2.6,2.6,0,0,1-.67-1.25,4.7,4.7,0,0,1-.12-1.05c0-.12,0-.25,0-.37a3.33,3.33,0,0,1,.36-1.33,2.24,2.24,0,0,1,.78-.9,2.75,2.75,0,0,1,1-.39,3.64,3.64,0,0,1,.6,0l.6,0a2,2,0,0,1,1.29.8,4,4,0,0,1,.59,2.47Zm2.72-.92a1.62,1.62,0,0,0-.38-1,1.22,1.22,0,0,0-1-.42,1.31,1.31,0,0,0-1,.4,1.41,1.41,0,0,0-.4,1Z" style="fill:#423c25"/><path d="M48.17,63.35a2.3,2.3,0,0,1,1.15-.62,3.65,3.65,0,0,1,1.56,0A1.43,1.43,0,0,1,52,63.89a8,8,0,0,1,.16,1.8c0,.4,0,.85,0,1.35v0c0,.28.12.42.34.42a1.05,1.05,0,0,0,.41-.1l.09,1a3,3,0,0,1-.74.1,1.08,1.08,0,0,1-1-.56,2.68,2.68,0,0,1-.94.59,3.24,3.24,0,0,1-.89.13h0a2.13,2.13,0,0,1-.84-.16,1.59,1.59,0,0,1-.66-.49,1.49,1.49,0,0,1-.28-.77.91.91,0,0,1,0-.17,2.34,2.34,0,0,1,.15-.79,1.7,1.7,0,0,1,.92-.86A7.88,7.88,0,0,1,51,64.9a1.49,1.49,0,0,0-.19-.93,1.16,1.16,0,0,0-.74-.24h-.19a1.45,1.45,0,0,0-.7.15,1,1,0,0,0-.4.82l-1.13-.15A1.87,1.87,0,0,1,48.17,63.35Zm2.89,2.49a4.88,4.88,0,0,0-1.91.4.87.87,0,0,0-.46.72.11.11,0,0,0,0,.05.64.64,0,0,0,.27.58,1,1,0,0,0,.59.16h.16a1.86,1.86,0,0,0,.76-.21,5.86,5.86,0,0,0,.6-.41Z" style="fill:#423c25"/><path d="M53.44,62.62l1.23-.27,1.47,4.77h0l1.42-4.5,1.22.26-2,5.38-1.33-.05Z" style="fill:#423c25"/><path d="M61.11,65.75a2,2,0,0,0,.42,1.34,1.35,1.35,0,0,0,.91.4h.13a1.37,1.37,0,0,0,.8-.22,1.64,1.64,0,0,0,.57-1l1.18.23a3.58,3.58,0,0,1-.65,1.26,1.92,1.92,0,0,1-1.2.65,4.56,4.56,0,0,1-.72.06,3.51,3.51,0,0,1-.72-.07,2.22,2.22,0,0,1-1.19-.68A2.69,2.69,0,0,1,60,66.51a4.68,4.68,0,0,1-.11-1.05c0-.12,0-.25,0-.37a3.7,3.7,0,0,1,.36-1.33,2.26,2.26,0,0,1,.79-.9,2.68,2.68,0,0,1,1-.39,3.64,3.64,0,0,1,.6,0l.59,0a1.94,1.94,0,0,1,1.29.8,4.05,4.05,0,0,1,.6,2.47Zm2.72-.92a1.51,1.51,0,0,0-.38-1,1.22,1.22,0,0,0-1-.42,1.3,1.3,0,0,0-1,.4,1.42,1.42,0,0,0-.41,1Z" style="fill:#423c25"/><path d="M67.33,62.16l0,1.33a1.71,1.71,0,0,1,1-.91,2,2,0,0,1,1.19-.1,1.68,1.68,0,0,1,1,.62,2.63,2.63,0,0,1,.5,1.13,12.05,12.05,0,0,1,.08,1.8c0,.72,0,1.64,0,2.77l-1.1,0c0-1,0-1.75,0-2.39a14.31,14.31,0,0,0-.06-1.81,1.11,1.11,0,0,0-.37-.7,1.05,1.05,0,0,0-.71-.24h0a1,1,0,0,0-.66.22,2,2,0,0,0-.44.57,3.57,3.57,0,0,0-.23,1.43l-.06,2.53-1.11,0-.09-6.12Z" style="fill:#423c25"/><path d="M72.11,62.09H73V60.42l1.18-.16V62L75.76,62v1l-1.54,0v3.51a1.14,1.14,0,0,0,.1.57.4.4,0,0,0,.35.14,4,4,0,0,0,.93-.2l.16,1a7.41,7.41,0,0,1-1.41.22,1.8,1.8,0,0,1-1-.37,1.67,1.67,0,0,1-.3-1.06V63.06h-.93Z" style="fill:#423c25"/><path d="M80.56,68.79l-.07-1.33a1.74,1.74,0,0,1-.95.92,2.21,2.21,0,0,1-.75.14,1.54,1.54,0,0,1-.43,0,1.61,1.61,0,0,1-1-.61,2.7,2.7,0,0,1-.51-1.13,16.44,16.44,0,0,1-.08-2.12c0-.67,0-1.49,0-2.45l1.11,0c0,.75,0,1.41,0,2A21.42,21.42,0,0,0,78,66.4a1.16,1.16,0,0,0,.37.7,1.07,1.07,0,0,0,.71.24h0a.92.92,0,0,0,.66-.22,2.08,2.08,0,0,0,.45-.58,3.49,3.49,0,0,0,.21-1.43l.06-2.5,1.14-.08.09,6.14Z" style="fill:#423c25"/><path d="M86.3,63.75a1.61,1.61,0,0,0-.79-.25h-.12a1.2,1.2,0,0,0-.68.25,1.92,1.92,0,0,0-.45.52,3.37,3.37,0,0,0-.22,1.4L84,68.22l-1.11,0-.09-6.12L83.92,62l0,1.34a1.85,1.85,0,0,1,1-1,1.53,1.53,0,0,1,.54-.09,3.23,3.23,0,0,1,1.12.24Z" style="fill:#423c25"/><path d="M88.93,65.75a2.11,2.11,0,0,0,.41,1.34,1.37,1.37,0,0,0,.91.4h.14a1.34,1.34,0,0,0,.79-.22,1.7,1.7,0,0,0,.58-1l1.18.23a3.6,3.6,0,0,1-.66,1.26,1.9,1.9,0,0,1-1.19.65,4.56,4.56,0,0,1-.72.06,3.38,3.38,0,0,1-.72-.07,2.25,2.25,0,0,1-1.2-.68,2.67,2.67,0,0,1-.66-1.25,4.7,4.7,0,0,1-.12-1.05c0-.12,0-.25,0-.37a3.33,3.33,0,0,1,.36-1.33,2.17,2.17,0,0,1,.78-.9,2.75,2.75,0,0,1,1-.39,3.64,3.64,0,0,1,.6,0l.6,0a2,2,0,0,1,1.29.8,4,4,0,0,1,.59,2.47Zm2.72-.92a1.57,1.57,0,0,0-.39-1,1.2,1.2,0,0,0-.94-.42,1.31,1.31,0,0,0-1,.4,1.41,1.41,0,0,0-.4,1Z" style="fill:#423c25"/><path d="M99.43,62.62l1.24-.27,1.46,4.77h0l1.42-4.5,1.22.26-2,5.38-1.33-.05Z" style="fill:#423c25"/><path d="M107.1,65.75a2,2,0,0,0,.42,1.34,1.35,1.35,0,0,0,.91.4h.13a1.37,1.37,0,0,0,.8-.22,1.7,1.7,0,0,0,.58-1l1.17.23a3.58,3.58,0,0,1-.65,1.26,1.92,1.92,0,0,1-1.19.65,4.68,4.68,0,0,1-.73.06,3.51,3.51,0,0,1-.72-.07,2.22,2.22,0,0,1-1.19-.68,2.69,2.69,0,0,1-.67-1.25,5.35,5.35,0,0,1-.11-1.05c0-.12,0-.25,0-.37a3.7,3.7,0,0,1,.36-1.33,2.26,2.26,0,0,1,.79-.9,2.68,2.68,0,0,1,1-.39,3.64,3.64,0,0,1,.6,0l.6,0a2,2,0,0,1,1.29.8,4.13,4.13,0,0,1,.59,2.47Zm2.72-.92a1.51,1.51,0,0,0-.38-1,1.2,1.2,0,0,0-.94-.42,1.31,1.31,0,0,0-1,.4,1.42,1.42,0,0,0-.41,1Z" style="fill:#423c25"/><path d="M115.7,63.75a1.65,1.65,0,0,0-.8-.25h-.12a1.26,1.26,0,0,0-.68.25,1.89,1.89,0,0,0-.44.52,3.32,3.32,0,0,0-.23,1.4l-.06,2.54-1.11,0-.09-6.12,1.15-.13.05,1.34a1.85,1.85,0,0,1,1-1,1.44,1.44,0,0,1,.53-.09,3.28,3.28,0,0,1,1.13.24Z" style="fill:#423c25"/><path d="M117.07,66.37l1.12-.21c.06.57.28.9.66,1a3.07,3.07,0,0,0,.71.09,1.27,1.27,0,0,0,.28,0,.93.93,0,0,0,.59-.24.79.79,0,0,0,.19-.36.13.13,0,0,0,0-.06.43.43,0,0,0-.1-.27,1.16,1.16,0,0,0-.28-.26,5.51,5.51,0,0,0-1-.35,10.17,10.17,0,0,1-1.22-.4,1.53,1.53,0,0,1-.59-.43,1.14,1.14,0,0,1-.24-.71V64a1.66,1.66,0,0,1,.16-.73,1.38,1.38,0,0,1,.67-.63,2.76,2.76,0,0,1,1-.31l.4,0a3.27,3.27,0,0,1,.54,0,2.3,2.3,0,0,1,.9.37,2.24,2.24,0,0,1,.72,1.37l-1.05.14c-.14-.48-.33-.76-.55-.83a1.88,1.88,0,0,0-.57-.09h-.11a1.08,1.08,0,0,0-.57.19.57.57,0,0,0-.26.42v0a.42.42,0,0,0,.15.34,2.52,2.52,0,0,0,1,.34,7,7,0,0,1,1.38.47,1.44,1.44,0,0,1,.72.63,2.09,2.09,0,0,1,.13.76v0a1.46,1.46,0,0,1-.23.79,1.67,1.67,0,0,1-.76.62,3,3,0,0,1-1.29.27h-.08a3.66,3.66,0,0,1-1.11-.13,1.93,1.93,0,0,1-.75-.45A2.38,2.38,0,0,1,117.07,66.37Z" style="fill:#423c25"/><path d="M128.27,60.49l1.18,0v7.88l-1.13,0Z" style="fill:#423c25"/><path d="M134.25,68.79l-.07-1.33a1.74,1.74,0,0,1-1,.92,2.27,2.27,0,0,1-.76.14,1.51,1.51,0,0,1-.42,0,1.61,1.61,0,0,1-1-.61,2.59,2.59,0,0,1-.51-1.13,16.44,16.44,0,0,1-.08-2.12c0-.67,0-1.49,0-2.45l1.11,0c0,.75,0,1.41,0,2a21.42,21.42,0,0,0,.06,2.24,1.11,1.11,0,0,0,.37.7,1.05,1.05,0,0,0,.71.24h0a.92.92,0,0,0,.66-.22,2.08,2.08,0,0,0,.45-.58,3.68,3.68,0,0,0,.21-1.43l.06-2.5,1.14-.08.09,6.14Z" style="fill:#423c25"/><path d="M137.65,60.83a.65.65,0,0,1,0,1,.71.71,0,0,1-1,0,.68.68,0,0,1,0-1,.71.71,0,0,1,1,0Zm-1.1,1.82,1.18,0-.11,5.87h-1Z" style="fill:#423c25"/><path d="M14.7,75.08l0,1a1.73,1.73,0,0,1,.74-.7,2.37,2.37,0,0,1,1.09-.24,2.19,2.19,0,0,1,1.2.39,2.11,2.11,0,0,1,.83,1.09A4.69,4.69,0,0,1,18.86,78v.07a5.19,5.19,0,0,1-.24,1.49,2.32,2.32,0,0,1-.84,1.26,1.88,1.88,0,0,1-1.12.32,3.14,3.14,0,0,1-.51-.05A1.68,1.68,0,0,1,14.73,80l0,2.89h-1.2V75.08Zm2.94,3a2.5,2.5,0,0,0-.36-1.35,1.18,1.18,0,0,0-1-.61,1.3,1.3,0,0,0-1.11.55A2.23,2.23,0,0,0,14.8,78v.07q0,2,1.38,2a1.24,1.24,0,0,0,1.1-.62,2.27,2.27,0,0,0,.36-1.31Z" style="fill:#423c25"/><path d="M20.62,80.77a3.79,3.79,0,0,1,0-4.42,2.73,2.73,0,0,1,4,0,3.79,3.79,0,0,1,0,4.42,2.73,2.73,0,0,1-4,0ZM23.81,80a2.74,2.74,0,0,0,0-2.82,1.35,1.35,0,0,0-1.2-.65,1.39,1.39,0,0,0-1.21.65,2.81,2.81,0,0,0,0,2.82,1.38,1.38,0,0,0,1.21.66A1.34,1.34,0,0,0,23.81,80Z" style="fill:#423c25"/><path d="M30.14,81.76l-.07-1.34a1.75,1.75,0,0,1-.95.93,2.27,2.27,0,0,1-.76.14,2,2,0,0,1-.42,0,1.58,1.58,0,0,1-1-.62,2.49,2.49,0,0,1-.51-1.13,16.21,16.21,0,0,1-.08-2.12c0-.66,0-1.48,0-2.44l1.11,0c0,.76,0,1.41,0,2a21.17,21.17,0,0,0,.06,2.23,1.08,1.08,0,0,0,.37.7,1.11,1.11,0,0,0,.71.25h0a1,1,0,0,0,.66-.23,2,2,0,0,0,.44-.57A3.65,3.65,0,0,0,30,78.07l.06-2.5,1.14-.07.09,6.14Z" style="fill:#423c25"/><path d="M35.88,76.72a1.55,1.55,0,0,0-.8-.25H35a1.34,1.34,0,0,0-.68.24,1.78,1.78,0,0,0-.44.53,3.3,3.3,0,0,0-.23,1.39l-.06,2.54-1.11,0-.09-6.12L33.5,75l0,1.33a1.85,1.85,0,0,1,1-.94,1.33,1.33,0,0,1,.54-.1,3.32,3.32,0,0,1,1.13.25Z" style="fill:#423c25"/><path d="M41.51,78.72a2.14,2.14,0,0,0,.41,1.34,1.34,1.34,0,0,0,.91.39H43a1.39,1.39,0,0,0,.8-.22,1.64,1.64,0,0,0,.57-1l1.18.22a3.56,3.56,0,0,1-.66,1.27,1.89,1.89,0,0,1-1.19.64,3.65,3.65,0,0,1-.72.07,4.18,4.18,0,0,1-.72-.07A2.18,2.18,0,0,1,41,80.72a2.51,2.51,0,0,1-.67-1.25,4.55,4.55,0,0,1-.12-1c0-.13,0-.25,0-.38a3.28,3.28,0,0,1,.36-1.32,2.12,2.12,0,0,1,.78-.9,2.75,2.75,0,0,1,1-.39,2.8,2.8,0,0,1,.6,0l.6,0a2,2,0,0,1,1.29.8,4,4,0,0,1,.59,2.47Zm2.72-.93a1.6,1.6,0,0,0-.39-1,1.2,1.2,0,0,0-.94-.42,1.35,1.35,0,0,0-1,.4,1.43,1.43,0,0,0-.4,1Zm.27-5L43,74.6l-.9-.21,1.14-1.92Z" style="fill:#423c25"/><path d="M46.57,75.58l1.24-.26,1.46,4.76h0l1.42-4.5,1.22.27-2,5.37-1.33,0Z" style="fill:#423c25"/><path d="M54.18,73.8a.65.65,0,0,1,0,1,.71.71,0,0,1-1,0,.68.68,0,0,1,0-1,.71.71,0,0,1,1,0Zm-1.1,1.82,1.18-.05-.11,5.87h-1Z" style="fill:#423c25"/><path d="M55.44,75.06h.93V73.38l1.18-.15V75l1.54,0v1l-1.54,0v3.52a1.2,1.2,0,0,0,.1.57.42.42,0,0,0,.34.14,4.6,4.6,0,0,0,.94-.2l.16,1a6.67,6.67,0,0,1-1.41.22,1.86,1.86,0,0,1-1-.36,1.69,1.69,0,0,1-.3-1.06V76h-.93Z" style="fill:#423c25"/><path d="M61.4,78.72a2.14,2.14,0,0,0,.41,1.34,1.32,1.32,0,0,0,.91.39h.14a1.39,1.39,0,0,0,.8-.22,1.69,1.69,0,0,0,.57-1l1.18.22a3.56,3.56,0,0,1-.66,1.27,1.89,1.89,0,0,1-1.19.64,3.65,3.65,0,0,1-.72.07,4.18,4.18,0,0,1-.72-.07,2.24,2.24,0,0,1-1.2-.69,2.58,2.58,0,0,1-.66-1.25,4.55,4.55,0,0,1-.12-1c0-.13,0-.25,0-.38a3.28,3.28,0,0,1,.36-1.32,2.12,2.12,0,0,1,.78-.9,2.75,2.75,0,0,1,1-.39,2.8,2.8,0,0,1,.6,0l.6,0a2,2,0,0,1,1.29.8,4,4,0,0,1,.59,2.47Zm2.72-.93a1.6,1.6,0,0,0-.39-1,1.2,1.2,0,0,0-.94-.42,1.35,1.35,0,0,0-1,.4,1.43,1.43,0,0,0-.4,1Z" style="fill:#423c25"/><path d="M70,76.72a1.58,1.58,0,0,0-.8-.25h-.12a1.31,1.31,0,0,0-.68.24,2,2,0,0,0-.45.53,3.35,3.35,0,0,0-.22,1.39l-.07,2.54-1.1,0-.1-6.12L67.61,75l0,1.33a1.86,1.86,0,0,1,1-.94,1.33,1.33,0,0,1,.54-.1,3.37,3.37,0,0,1,1.13.25Z" style="fill:#423c25"/><path d="M79.63,75v7.85H78.45l0-2.9a1.66,1.66,0,0,1-1.42,1.07,2.89,2.89,0,0,1-.5,0,1.91,1.91,0,0,1-1.13-.31,2.31,2.31,0,0,1-.83-1.27A5.12,5.12,0,0,1,74.37,78V78a4.66,4.66,0,0,1,.25-1.42,2.08,2.08,0,0,1,.84-1.09,2.14,2.14,0,0,1,1.2-.39,2.39,2.39,0,0,1,1.09.24,1.72,1.72,0,0,1,.74.7l0-1Zm-4,3v0a2.33,2.33,0,0,0,.36,1.32A1.24,1.24,0,0,0,77,80c.9,0,1.36-.66,1.38-2v-.07a2.3,2.3,0,0,0-.36-1.34A1.32,1.32,0,0,0,77,76a1.18,1.18,0,0,0-1,.62A2.42,2.42,0,0,0,75.58,78Z" style="fill:#423c25"/><path d="M84.44,81.76l-.06-1.34a1.75,1.75,0,0,1-.95.93,2.27,2.27,0,0,1-.76.14,2.18,2.18,0,0,1-.43,0,1.63,1.63,0,0,1-1-.62,2.58,2.58,0,0,1-.5-1.13,16.21,16.21,0,0,1-.08-2.12c0-.66,0-1.48,0-2.44l1.11,0c0,.76,0,1.41,0,2a21.17,21.17,0,0,0,.06,2.23,1.08,1.08,0,0,0,.37.7,1.11,1.11,0,0,0,.71.25h0a1,1,0,0,0,.66-.23,2,2,0,0,0,.44-.57,3.65,3.65,0,0,0,.22-1.44l.06-2.5,1.14-.07.09,6.14Z" style="fill:#423c25"/><path d="M87.91,78.72a2.07,2.07,0,0,0,.42,1.34,1.3,1.3,0,0,0,.91.39h.13a1.37,1.37,0,0,0,.8-.22,1.64,1.64,0,0,0,.57-1l1.18.22a3.55,3.55,0,0,1-.65,1.27,1.91,1.91,0,0,1-1.2.64,3.65,3.65,0,0,1-.72.07,4.39,4.39,0,0,1-.72-.07,2.18,2.18,0,0,1-1.19-.69,2.59,2.59,0,0,1-.67-1.25,4.54,4.54,0,0,1-.11-1c0-.13,0-.25,0-.38A3.64,3.64,0,0,1,87,76.73a2.13,2.13,0,0,1,.79-.9,2.68,2.68,0,0,1,1-.39,2.8,2.8,0,0,1,.6,0l.59,0a1.91,1.91,0,0,1,1.29.8,4,4,0,0,1,.6,2.47Zm2.72-.93a1.53,1.53,0,0,0-.38-1,1.22,1.22,0,0,0-1-.42,1.34,1.34,0,0,0-1,.4,1.44,1.44,0,0,0-.41,1Z" style="fill:#423c25"/><path d="M96.14,81,96,73.18l3.74-.06a3,3,0,0,1,1.71.54,1.74,1.74,0,0,1,.62,1.49v0a1.57,1.57,0,0,1-1.13,1.51,2.14,2.14,0,0,1,.79,3.62,3.19,3.19,0,0,1-2.18.62H96.14Zm1.24-4.58,2.16-.05c.75,0,1.13-.36,1.13-1.07s-.38-1-1.13-1H97.33Zm0,3.44,2.39-.06c.86,0,1.29-.4,1.29-1.22s-.43-1.14-1.29-1.14l-2.34,0Z" style="fill:#423c25"/><path d="M104.17,76.31a2.24,2.24,0,0,1,1.15-.61,3.08,3.08,0,0,1,.68-.07,3.81,3.81,0,0,1,.87.1A1.39,1.39,0,0,1,108,76.86a7.41,7.41,0,0,1,.16,1.79c0,.41,0,.86,0,1.36v0c0,.29.11.43.33.43a1.1,1.1,0,0,0,.42-.1l.09,1a3.08,3.08,0,0,1-.74.11,1.07,1.07,0,0,1-1-.56,2.87,2.87,0,0,1-.95.59,3.19,3.19,0,0,1-.89.12h0a2.14,2.14,0,0,1-.84-.17,1.52,1.52,0,0,1-.65-.48,1.42,1.42,0,0,1-.29-.77V80a2.58,2.58,0,0,1,.14-.79,1.66,1.66,0,0,1,.92-.86,7.89,7.89,0,0,1,2.51-.53,1.43,1.43,0,0,0-.19-.92,1.22,1.22,0,0,0-.75-.24h-.19a1.37,1.37,0,0,0-.7.16,1,1,0,0,0-.4.81l-1.13-.14A1.88,1.88,0,0,1,104.17,76.31Zm2.88,2.49a4.88,4.88,0,0,0-1.91.41.87.87,0,0,0-.46.72s0,0,0,0a.65.65,0,0,0,.27.58,1,1,0,0,0,.59.16h.17a1.85,1.85,0,0,0,.75-.21,6.06,6.06,0,0,0,.6-.42Z" style="fill:#423c25"/><path d="M113.5,76.72a1.58,1.58,0,0,0-.8-.25h-.12a1.31,1.31,0,0,0-.68.24,2,2,0,0,0-.45.53,3.35,3.35,0,0,0-.22,1.39l-.07,2.54-1.1,0-.1-6.12,1.15-.12,0,1.33a1.86,1.86,0,0,1,1-.94,1.33,1.33,0,0,1,.54-.1,3.37,3.37,0,0,1,1.13.25Z" style="fill:#423c25"/><path d="M114.87,81.56V73.71h1.2l0,2.9a1.69,1.69,0,0,1,1.43-1.07,2.89,2.89,0,0,1,.5,0,1.86,1.86,0,0,1,1.12.32,2.21,2.21,0,0,1,.84,1.26,5.12,5.12,0,0,1,.24,1.48v.08a4.68,4.68,0,0,1-.26,1.42,2.07,2.07,0,0,1-.83,1.09,2.19,2.19,0,0,1-1.2.39,2.39,2.39,0,0,1-1.09-.24,1.71,1.71,0,0,1-.74-.69l0,1Zm4-3v0a2.32,2.32,0,0,0-.35-1.32,1.26,1.26,0,0,0-1.11-.61q-1.35,0-1.38,2v.07a2.2,2.2,0,0,0,.37,1.33,1.3,1.3,0,0,0,1.11.56,1.18,1.18,0,0,0,1-.62A2.49,2.49,0,0,0,118.92,78.6Z" style="fill:#423c25"/><path d="M121.9,76.31a2.2,2.2,0,0,1,1.15-.61,3,3,0,0,1,.68-.07,3.87,3.87,0,0,1,.87.1,1.41,1.41,0,0,1,1.08,1.13,8,8,0,0,1,.16,1.79c0,.41,0,.86,0,1.36v0c0,.29.12.43.34.43a1.05,1.05,0,0,0,.41-.1l.09,1a3,3,0,0,1-.74.11,1.09,1.09,0,0,1-1-.56,2.84,2.84,0,0,1-.94.59,3.19,3.19,0,0,1-.89.12h0a2.14,2.14,0,0,1-.84-.17,1.55,1.55,0,0,1-.66-.48,1.49,1.49,0,0,1-.28-.77c0-.06,0-.11,0-.17a2.34,2.34,0,0,1,.15-.79,1.63,1.63,0,0,1,.92-.86,7.83,7.83,0,0,1,2.51-.53,1.5,1.5,0,0,0-.19-.92,1.22,1.22,0,0,0-.75-.24h-.19a1.34,1.34,0,0,0-.7.16,1,1,0,0,0-.4.81l-1.13-.14A1.83,1.83,0,0,1,121.9,76.31Zm2.88,2.49a4.83,4.83,0,0,0-1.91.41.87.87,0,0,0-.46.72.09.09,0,0,0,0,0,.65.65,0,0,0,.27.58,1,1,0,0,0,.59.16h.17a1.85,1.85,0,0,0,.75-.21,6.06,6.06,0,0,0,.6-.42Z" style="fill:#423c25"/><path d="M131.22,76.72a1.52,1.52,0,0,0-.79-.25h-.12a1.35,1.35,0,0,0-.69.24,2.14,2.14,0,0,0-.44.53,3.47,3.47,0,0,0-.23,1.39l-.06,2.54-1.11,0-.09-6.12,1.15-.12,0,1.33a1.83,1.83,0,0,1,1-.94,1.3,1.3,0,0,1,.54-.1,3.32,3.32,0,0,1,1.12.25Z" style="fill:#423c25"/><path d="M133.85,78.72a2.14,2.14,0,0,0,.41,1.34,1.32,1.32,0,0,0,.91.39h.14a1.34,1.34,0,0,0,.79-.22,1.7,1.7,0,0,0,.58-1l1.17.22a3.39,3.39,0,0,1-.65,1.27,1.91,1.91,0,0,1-1.19.64,3.65,3.65,0,0,1-.72.07,4.18,4.18,0,0,1-.72-.07,2.2,2.2,0,0,1-1.2-.69,2.58,2.58,0,0,1-.66-1.25,4.55,4.55,0,0,1-.12-1,2.42,2.42,0,0,1,0-.38,3.28,3.28,0,0,1,.36-1.32,2.05,2.05,0,0,1,.78-.9,2.75,2.75,0,0,1,1-.39,2.8,2.8,0,0,1,.6,0l.6,0a2,2,0,0,1,1.29.8,4,4,0,0,1,.59,2.47Zm2.72-.93a1.6,1.6,0,0,0-.39-1,1.2,1.2,0,0,0-.94-.42,1.35,1.35,0,0,0-1,.4,1.38,1.38,0,0,0-.4,1Z" style="fill:#423c25"/><path d="M14.73,88.09l0,1.34a1.72,1.72,0,0,1,1-.92,2,2,0,0,1,.75-.14,2,2,0,0,1,.43,0,1.62,1.62,0,0,1,1,.62,2.77,2.77,0,0,1,.51,1.13,12.66,12.66,0,0,1,.07,1.8c0,.72,0,1.65,0,2.77l-1.11,0c0-1,0-1.76,0-2.39,0-1,0-1.63,0-1.82a1.16,1.16,0,0,0-.37-.7,1.07,1.07,0,0,0-.71-.24h0a.92.92,0,0,0-.66.22,2.18,2.18,0,0,0-.45.57,3.66,3.66,0,0,0-.22,1.43l-.07,2.54-1.11,0-.09-6.12Z" style="fill:#423c25"/><path d="M20.77,91.68A2.1,2.1,0,0,0,21.19,93a1.34,1.34,0,0,0,.91.39h.13a1.37,1.37,0,0,0,.8-.22,1.64,1.64,0,0,0,.57-1l1.18.23a3.58,3.58,0,0,1-.65,1.26,1.88,1.88,0,0,1-1.2.65,4.56,4.56,0,0,1-.72.06,3.51,3.51,0,0,1-.72-.07,2.22,2.22,0,0,1-1.19-.68,2.64,2.64,0,0,1-.67-1.25,4.62,4.62,0,0,1-.11-1c0-.12,0-.24,0-.37a3.7,3.7,0,0,1,.36-1.33,2.26,2.26,0,0,1,.79-.9,3.09,3.09,0,0,1,1-.39,3.64,3.64,0,0,1,.6-.05c.18,0,.38,0,.59,0a1.91,1.91,0,0,1,1.29.8,4,4,0,0,1,.6,2.46Zm2.72-.92a1.53,1.53,0,0,0-.38-1,1.22,1.22,0,0,0-.95-.42,1.3,1.3,0,0,0-1,.4,1.44,1.44,0,0,0-.41,1Z" style="fill:#423c25"/><path d="M30.37,86.42l1.17.06v7.87l-1.12.05Z" style="fill:#423c25"/><path d="M33.3,89.28a2.24,2.24,0,0,1,1.15-.61,3.1,3.1,0,0,1,.69-.08,4.46,4.46,0,0,1,.86.1,1.41,1.41,0,0,1,1.08,1.13,7.56,7.56,0,0,1,.16,1.8c0,.4,0,.85,0,1.36v0c0,.28.11.43.34.43a1.27,1.27,0,0,0,.41-.1l.09,1a3,3,0,0,1-.74.1,1.05,1.05,0,0,1-1-.56,2.71,2.71,0,0,1-.95.59,3.13,3.13,0,0,1-.89.13h0a2.14,2.14,0,0,1-.84-.17,1.62,1.62,0,0,1-.65-.49,1.5,1.5,0,0,1-.29-.77V93a2.24,2.24,0,0,1,.15-.78,1.65,1.65,0,0,1,.91-.87,8,8,0,0,1,2.51-.52,1.43,1.43,0,0,0-.19-.92,1.14,1.14,0,0,0-.74-.25h-.19a1.49,1.49,0,0,0-.71.15,1,1,0,0,0-.4.82l-1.13-.14A1.88,1.88,0,0,1,33.3,89.28Zm2.89,2.49a4.94,4.94,0,0,0-1.92.4.89.89,0,0,0-.46.72v0a.67.67,0,0,0,.27.59,1,1,0,0,0,.58.15h.17a1.71,1.71,0,0,0,.75-.21,7.26,7.26,0,0,0,.61-.41Z" style="fill:#423c25"/><path d="M47.78,94.37l0-1a1.67,1.67,0,0,1-.74.7,2.38,2.38,0,0,1-1.08.24A2.19,2.19,0,0,1,44.71,94a2.11,2.11,0,0,1-.83-1.09,4.66,4.66,0,0,1-.25-1.42.22.22,0,0,1,0-.08,5.24,5.24,0,0,1,.24-1.49,2.39,2.39,0,0,1,.84-1.26,1.88,1.88,0,0,1,1.12-.31l.51,0a1.7,1.7,0,0,1,1.42,1.08l0-2.9h1.2v7.85Zm-2.94-3a2.5,2.5,0,0,0,.36,1.35,1.19,1.19,0,0,0,1,.62,1.3,1.3,0,0,0,1.11-.56,2.23,2.23,0,0,0,.37-1.34V91.4c0-1.31-.48-2-1.38-2a1.26,1.26,0,0,0-1.11.61,2.4,2.4,0,0,0-.35,1.32Z" style="fill:#423c25"/><path d="M51.21,91.68A2.17,2.17,0,0,0,51.62,93a1.38,1.38,0,0,0,.91.39h.14a1.39,1.39,0,0,0,.8-.22,1.64,1.64,0,0,0,.57-1l1.18.23a3.6,3.6,0,0,1-.66,1.26,1.83,1.83,0,0,1-1.19.65,4.56,4.56,0,0,1-.72.06,3.38,3.38,0,0,1-.72-.07,2.22,2.22,0,0,1-1.19-.68,2.56,2.56,0,0,1-.67-1.25,4.63,4.63,0,0,1-.12-1c0-.12,0-.24,0-.37a3.5,3.5,0,0,1,.36-1.33,2.32,2.32,0,0,1,.78-.9,3.14,3.14,0,0,1,1-.39,3.54,3.54,0,0,1,.6-.05c.18,0,.38,0,.59,0a2,2,0,0,1,1.29.8,4,4,0,0,1,.6,2.46Zm2.72-.92a1.59,1.59,0,0,0-.38-1,1.22,1.22,0,0,0-.95-.42,1.29,1.29,0,0,0-1,.4,1.39,1.39,0,0,0-.41,1Zm.28-5-1.54,1.75-.9-.21,1.14-1.91Z" style="fill:#423c25"/><path d="M56.27,88h.93V86.35l1.18-.16V88l1.54,0v1l-1.54,0v3.51a1,1,0,0,0,.11.57.38.38,0,0,0,.34.15,4.69,4.69,0,0,0,.93-.2l.16,1a6.6,6.6,0,0,1-1.4.22,1.89,1.89,0,0,1-1-.36,1.69,1.69,0,0,1-.3-1.06V89h-.93Z" style="fill:#423c25"/><path d="M64.51,89.68a1.63,1.63,0,0,0-.8-.24h-.12a1.35,1.35,0,0,0-.68.25,1.74,1.74,0,0,0-.44.52,3.36,3.36,0,0,0-.23,1.4l-.06,2.54-1.11,0L61,88.06l1.15-.13.06,1.34a1.87,1.87,0,0,1,1-1,1.53,1.53,0,0,1,.54-.09,3.1,3.1,0,0,1,1.13.25Z" style="fill:#423c25"/><path d="M69.62,94.72l-.07-1.33a1.72,1.72,0,0,1-.94.92,2.2,2.2,0,0,1-1.19.1,1.65,1.65,0,0,1-1-.62,2.63,2.63,0,0,1-.5-1.13,14.58,14.58,0,0,1-.08-2.12c0-.67,0-1.49,0-2.45l1.12,0c0,.75,0,1.41,0,2,0,1.27,0,2,0,2.23a1.16,1.16,0,0,0,.37.7,1.08,1.08,0,0,0,.72.24h0a1,1,0,0,0,.66-.22,2.39,2.39,0,0,0,.44-.57A3.59,3.59,0,0,0,69.48,91l.06-2.5,1.15-.07.09,6.13Z" style="fill:#423c25"/><path d="M73,86.76a.66.66,0,0,1,.21.48.63.63,0,0,1-.21.48.7.7,0,0,1-1,0,.63.63,0,0,1-.21-.48.66.66,0,0,1,.21-.48.73.73,0,0,1,1,0Zm-1.09,1.83,1.17-.06L73,94.4H72Z" style="fill:#423c25"/><path d="M74.29,92.31l1.12-.21c.06.56.27.89.65,1a3.22,3.22,0,0,0,.72.09l.28,0a.93.93,0,0,0,.59-.25.7.7,0,0,0,.19-.36.13.13,0,0,0,0-.06.39.39,0,0,0-.1-.26.94.94,0,0,0-.29-.27,6.07,6.07,0,0,0-1-.35,10.51,10.51,0,0,1-1.21-.4,1.46,1.46,0,0,1-.59-.43,1.14,1.14,0,0,1-.24-.71V90a1.66,1.66,0,0,1,.16-.73,1.45,1.45,0,0,1,.66-.63,2.81,2.81,0,0,1,1-.31l.4,0a3.08,3.08,0,0,1,.53,0,2.28,2.28,0,0,1,.91.37,2.24,2.24,0,0,1,.72,1.37l-1.06.14c-.14-.48-.32-.75-.54-.83a1.88,1.88,0,0,0-.57-.09h-.11a1.08,1.08,0,0,0-.57.19.57.57,0,0,0-.26.42v0a.45.45,0,0,0,.15.35,2.69,2.69,0,0,0,1,.33,6.07,6.07,0,0,1,1.37.48,1.35,1.35,0,0,1,.72.63,1.87,1.87,0,0,1,.14.76h0a1.49,1.49,0,0,1-.23.8,1.87,1.87,0,0,1-.76.62,3,3,0,0,1-1.29.26h-.09a3.59,3.59,0,0,1-1.1-.14,1.75,1.75,0,0,1-.76-.45A2.3,2.3,0,0,1,74.29,92.31Z" style="fill:#423c25"/><path d="M81.3,91.68A2.16,2.16,0,0,0,81.72,93a1.34,1.34,0,0,0,.91.39h.13a1.37,1.37,0,0,0,.8-.22,1.7,1.7,0,0,0,.58-1l1.17.23a3.58,3.58,0,0,1-.65,1.26,1.88,1.88,0,0,1-1.19.65,4.59,4.59,0,0,1-.73.06,3.35,3.35,0,0,1-.71-.07,2.21,2.21,0,0,1-1.2-.68,2.73,2.73,0,0,1-.67-1.25,5.27,5.27,0,0,1-.11-1c0-.12,0-.24,0-.37a3.7,3.7,0,0,1,.36-1.33,2.26,2.26,0,0,1,.79-.9,3.09,3.09,0,0,1,1-.39,3.64,3.64,0,0,1,.6-.05c.18,0,.38,0,.6,0a2,2,0,0,1,1.29.8,4.1,4.1,0,0,1,.59,2.46ZM84,90.76a1.53,1.53,0,0,0-.38-1,1.2,1.2,0,0,0-.94-.42,1.31,1.31,0,0,0-1,.4,1.44,1.44,0,0,0-.41,1Z" style="fill:#423c25"/><path d="M87.56,92.67a.64.64,0,0,1,.21.48.63.63,0,0,1-.21.48.66.66,0,0,1-.5.2.68.68,0,0,1-.69-.68.67.67,0,0,1,.2-.48.69.69,0,0,1,.49-.19A.69.69,0,0,1,87.56,92.67Z" style="fill:#423c25"/><path d="M93.35,86.42l1.18.06v7.87l-1.13.05Z" style="fill:#423c25"/><path d="M95.58,86.42l1.18.06v7.87l-1.12.05Z" style="fill:#423c25"/><path d="M103.46,88.05l0,1a1.76,1.76,0,0,1,.74-.69,2.39,2.39,0,0,1,1.09-.24,2.16,2.16,0,0,1,1.2.39,2,2,0,0,1,.83,1.09,4.68,4.68,0,0,1,.26,1.42v.08a5.12,5.12,0,0,1-.24,1.48,2.21,2.21,0,0,1-.84,1.26,1.79,1.79,0,0,1-1.12.32,2.89,2.89,0,0,1-.5,0A1.7,1.7,0,0,1,103.49,93l.05,2.9h-1.2V88.05Zm3,3a2.49,2.49,0,0,0-.37-1.34,1.18,1.18,0,0,0-1-.62,1.3,1.3,0,0,0-1.11.56,2.31,2.31,0,0,0-.37,1.34V91c0,1.32.48,2,1.39,2a1.25,1.25,0,0,0,1.1-.61,2.33,2.33,0,0,0,.36-1.32Z" style="fill:#423c25"/><path d="M109.93,91.68a2.1,2.1,0,0,0,.42,1.35,1.34,1.34,0,0,0,.91.39h.13a1.37,1.37,0,0,0,.8-.22,1.64,1.64,0,0,0,.57-1l1.18.23a3.58,3.58,0,0,1-.65,1.26,1.88,1.88,0,0,1-1.2.65,4.56,4.56,0,0,1-.72.06,3.51,3.51,0,0,1-.72-.07,2.22,2.22,0,0,1-1.19-.68,2.64,2.64,0,0,1-.67-1.25,4.62,4.62,0,0,1-.11-1c0-.12,0-.24,0-.37a3.7,3.7,0,0,1,.36-1.33,2.26,2.26,0,0,1,.79-.9,3.09,3.09,0,0,1,1-.39,3.64,3.64,0,0,1,.6-.05c.18,0,.38,0,.59,0a1.91,1.91,0,0,1,1.29.8,4,4,0,0,1,.6,2.46Zm2.72-.92a1.53,1.53,0,0,0-.38-1,1.22,1.22,0,0,0-1-.42,1.3,1.3,0,0,0-1,.4,1.44,1.44,0,0,0-.41,1Z" style="fill:#423c25"/><path d="M118.74,94.72l-.07-1.33a1.72,1.72,0,0,1-.94.92,2.08,2.08,0,0,1-.76.14,2,2,0,0,1-.43,0,1.62,1.62,0,0,1-1-.62,2.63,2.63,0,0,1-.5-1.13,14.58,14.58,0,0,1-.08-2.12c0-.67,0-1.49,0-2.45l1.12,0c0,.75,0,1.41,0,2a21.31,21.31,0,0,0,.06,2.23,1.16,1.16,0,0,0,.37.7,1.07,1.07,0,0,0,.71.24h0a.92.92,0,0,0,.65-.22,2.18,2.18,0,0,0,.45-.57A3.59,3.59,0,0,0,118.6,91l.06-2.5,1.15-.07.09,6.13Z" style="fill:#423c25"/><path d="M121,88h.93V86.35l1.18-.16V88l1.54,0v1l-1.54,0v3.51a1,1,0,0,0,.11.57.37.37,0,0,0,.34.15,4.69,4.69,0,0,0,.93-.2l.16,1a6.67,6.67,0,0,1-1.41.22,1.86,1.86,0,0,1-1-.36,1.69,1.69,0,0,1-.3-1.06V89H121Z" style="fill:#423c25"/><path d="M130.18,86.42l1.18.06v7.87l-1.12.05Z" style="fill:#423c25"/><path d="M133.12,89.28a2.24,2.24,0,0,1,1.15-.61,3,3,0,0,1,.68-.08,4.47,4.47,0,0,1,.87.1,1.44,1.44,0,0,1,1.08,1.13,7.56,7.56,0,0,1,.16,1.8c0,.4,0,.85,0,1.36v0c0,.28.11.43.33.43a1.32,1.32,0,0,0,.42-.1l.08,1a3,3,0,0,1-.73.1,1.05,1.05,0,0,1-1-.56,2.71,2.71,0,0,1-1,.59,3.19,3.19,0,0,1-.89.13h0a2.14,2.14,0,0,1-.84-.17,1.62,1.62,0,0,1-.65-.49,1.42,1.42,0,0,1-.29-.77V93a2.22,2.22,0,0,1,.14-.78,1.71,1.71,0,0,1,.92-.87,8,8,0,0,1,2.51-.52,1.5,1.5,0,0,0-.19-.92,1.15,1.15,0,0,0-.75-.25h-.19a1.45,1.45,0,0,0-.7.15,1,1,0,0,0-.4.82l-1.13-.14A1.88,1.88,0,0,1,133.12,89.28ZM136,91.77a4.88,4.88,0,0,0-1.91.4.87.87,0,0,0-.46.72.11.11,0,0,0,0,0,.67.67,0,0,0,.27.59,1.08,1.08,0,0,0,.59.15h.17a1.71,1.71,0,0,0,.75-.21,5.86,5.86,0,0,0,.6-.41Z" style="fill:#423c25"/><path d="M17.11,102.65a1.52,1.52,0,0,0-.79-.25H16.2a1.23,1.23,0,0,0-.68.25,1.78,1.78,0,0,0-.45.52,3.37,3.37,0,0,0-.22,1.4l-.07,2.53-1.11,0L13.58,101l1.15-.13,0,1.33a1.83,1.83,0,0,1,1-.94,1.53,1.53,0,0,1,.54-.1,3.37,3.37,0,0,1,1.13.25Z" style="fill:#423c25"/><path d="M19.74,104.65a2.14,2.14,0,0,0,.41,1.34,1.37,1.37,0,0,0,.91.4h.14a1.39,1.39,0,0,0,.8-.22,1.69,1.69,0,0,0,.57-1l1.18.23a3.6,3.6,0,0,1-.66,1.26,1.94,1.94,0,0,1-1.19.65,4.56,4.56,0,0,1-.72.06,3.38,3.38,0,0,1-.72-.07,2.24,2.24,0,0,1-1.2-.69,2.58,2.58,0,0,1-.66-1.25,4.55,4.55,0,0,1-.12-1c0-.12,0-.25,0-.38a3.33,3.33,0,0,1,.36-1.32,2.24,2.24,0,0,1,.78-.9,2.75,2.75,0,0,1,1-.39,3.64,3.64,0,0,1,.6-.05l.6,0a2,2,0,0,1,1.29.8,4,4,0,0,1,.59,2.47Zm2.72-.92a1.55,1.55,0,0,0-.39-1,1.18,1.18,0,0,0-.94-.43,1.32,1.32,0,0,0-1,.41,1.41,1.41,0,0,0-.4,1Zm.27-5-1.53,1.76-.9-.21,1.14-1.92Z" style="fill:#423c25"/><path d="M26,99.73a.65.65,0,0,1,0,1,.68.68,0,0,1-.49.2.7.7,0,0,1-.5-.2.68.68,0,0,1,0-1,.7.7,0,0,1,.5-.2A.68.68,0,0,1,26,99.73Zm-1.09,1.82,1.17,0-.1,5.87H25Z" style="fill:#423c25"/><path d="M28.4,101.06l.06,1.33a1.77,1.77,0,0,1,.95-.92,2.31,2.31,0,0,1,.76-.14,2,2,0,0,1,.42,0,1.58,1.58,0,0,1,1,.62,2.5,2.5,0,0,1,.51,1.12,12.93,12.93,0,0,1,.07,1.81c0,.72,0,1.64,0,2.76l-1.11,0c0-1,0-1.75,0-2.39a14.31,14.31,0,0,0-.06-1.81,1.08,1.08,0,0,0-.37-.7,1.11,1.11,0,0,0-.71-.25h0a1,1,0,0,0-.66.22,2.16,2.16,0,0,0-.44.58,3.55,3.55,0,0,0-.23,1.42l-.06,2.54-1.11,0-.1-6.12Z" style="fill:#423c25"/><path d="M33.19,101h.93V99.32l1.18-.16v1.78l1.54-.06v1l-1.54.06v3.51a1,1,0,0,0,.1.57.42.42,0,0,0,.34.14,4,4,0,0,0,.94-.2l.16,1a6.84,6.84,0,0,1-1.41.23,1.88,1.88,0,0,1-1-.37,1.69,1.69,0,0,1-.3-1.06V102h-.93Z" style="fill:#423c25"/><path d="M41.43,102.65a1.58,1.58,0,0,0-.8-.25h-.12a1.23,1.23,0,0,0-.68.25,1.78,1.78,0,0,0-.45.52,3.37,3.37,0,0,0-.22,1.4l-.07,2.53-1.1,0-.1-6.12L39,100.9l.05,1.33a1.86,1.86,0,0,1,1-.94,1.53,1.53,0,0,1,.54-.1,3.37,3.37,0,0,1,1.13.25Z" style="fill:#423c25"/><path d="M43.5,106.7a3.78,3.78,0,0,1,0-4.41,2.73,2.73,0,0,1,4,0,3.74,3.74,0,0,1,0,4.41,2.73,2.73,0,0,1-4,0Zm3.2-.76a2.81,2.81,0,0,0,0-2.82,1.38,1.38,0,0,0-1.21-.65,1.36,1.36,0,0,0-1.2.65,2.74,2.74,0,0,0,0,2.82,1.35,1.35,0,0,0,1.2.66A1.37,1.37,0,0,0,46.7,105.94Z" style="fill:#423c25"/><path d="M53.43,107.33l0-1a1.71,1.71,0,0,1-.74.69,2.38,2.38,0,0,1-1.08.24,2.19,2.19,0,0,1-1.21-.39,2,2,0,0,1-.83-1.09,4.33,4.33,0,0,1-.25-1.42.17.17,0,0,1,0-.07,5.19,5.19,0,0,1,.24-1.49,2.21,2.21,0,0,1,.84-1.26,1.86,1.86,0,0,1,1.12-.32,4.75,4.75,0,0,1,.51,0,1.71,1.71,0,0,1,1.42,1.07l0-2.9h1.2v7.85Zm-3-3a2.53,2.53,0,0,0,.37,1.35,1.17,1.17,0,0,0,1,.61,1.28,1.28,0,0,0,1.11-.56,2.27,2.27,0,0,0,.37-1.33v-.07q0-2-1.38-2a1.28,1.28,0,0,0-1.11.61,2.33,2.33,0,0,0-.36,1.32Z" style="fill:#423c25"/><path d="M59.35,107.69l-.07-1.34a1.72,1.72,0,0,1-1,.93,2.25,2.25,0,0,1-.75.14,2,2,0,0,1-.43,0,1.58,1.58,0,0,1-1-.62,2.61,2.61,0,0,1-.51-1.12,16.53,16.53,0,0,1-.08-2.13c0-.66,0-1.48,0-2.44l1.11,0c0,.76,0,1.42,0,2a21.17,21.17,0,0,0,.06,2.23,1,1,0,0,0,1.08.95h0a1,1,0,0,0,.66-.22,2.24,2.24,0,0,0,.45-.58,3.68,3.68,0,0,0,.21-1.43l.06-2.5,1.14-.08.09,6.14Z" style="fill:#423c25"/><path d="M62.75,99.73a.65.65,0,0,1,0,1,.71.71,0,0,1-1,0,.68.68,0,0,1,0-1,.71.71,0,0,1,1,0Zm-1.1,1.82,1.18,0-.11,5.87h-1Z" style="fill:#423c25"/><path d="M67.55,102.65a1.58,1.58,0,0,0-.8-.25h-.12a1.23,1.23,0,0,0-.68.25,1.78,1.78,0,0,0-.45.52,3.37,3.37,0,0,0-.22,1.4l-.07,2.53-1.1,0L64,101l1.15-.13,0,1.33a1.86,1.86,0,0,1,1-.94,1.53,1.53,0,0,1,.54-.1,3.37,3.37,0,0,1,1.13.25Z" style="fill:#423c25"/><path d="M70.17,104.65a2.14,2.14,0,0,0,.41,1.34,1.39,1.39,0,0,0,.91.4h.14a1.39,1.39,0,0,0,.8-.22,1.64,1.64,0,0,0,.57-1l1.18.23a3.6,3.6,0,0,1-.66,1.26,1.92,1.92,0,0,1-1.19.65,4.56,4.56,0,0,1-.72.06,3.38,3.38,0,0,1-.72-.07,2.18,2.18,0,0,1-1.19-.69A2.51,2.51,0,0,1,69,105.4a4.55,4.55,0,0,1-.12-1c0-.12,0-.25,0-.38a3.33,3.33,0,0,1,.36-1.32,2.32,2.32,0,0,1,.78-.9,2.75,2.75,0,0,1,1-.39,3.67,3.67,0,0,1,.61-.05l.59,0a2,2,0,0,1,1.29.8,4,4,0,0,1,.6,2.47Zm2.72-.92a1.6,1.6,0,0,0-.38-1,1.2,1.2,0,0,0-1-.43,1.32,1.32,0,0,0-1,.41,1.41,1.41,0,0,0-.4,1Z" style="fill:#423c25"/><path d="M94.26,104.65a2.14,2.14,0,0,0,.41,1.34,1.39,1.39,0,0,0,.91.4h.14a1.39,1.39,0,0,0,.8-.22,1.64,1.64,0,0,0,.57-1l1.18.23a3.76,3.76,0,0,1-.65,1.26,2,2,0,0,1-1.2.65,4.56,4.56,0,0,1-.72.06,3.38,3.38,0,0,1-.72-.07,2.18,2.18,0,0,1-1.19-.69,2.51,2.51,0,0,1-.67-1.25,4.55,4.55,0,0,1-.12-1c0-.12,0-.25,0-.38a3.7,3.7,0,0,1,.36-1.32,2.26,2.26,0,0,1,.79-.9,2.68,2.68,0,0,1,1-.39,3.54,3.54,0,0,1,.6-.05l.59,0a2,2,0,0,1,1.29.8,4,4,0,0,1,.6,2.47Zm2.72-.92a1.54,1.54,0,0,0-.38-1,1.2,1.2,0,0,0-.95-.43,1.3,1.3,0,0,0-1,.41,1.37,1.37,0,0,0-.41,1Z" style="fill:#423c25"/><path d="M100.47,101.06l.06,1.33a1.77,1.77,0,0,1,1-.92,2.31,2.31,0,0,1,.76-.14,2,2,0,0,1,.42,0,1.58,1.58,0,0,1,1,.62,2.5,2.5,0,0,1,.51,1.12,12.93,12.93,0,0,1,.07,1.81c0,.72,0,1.64,0,2.76l-1.11,0c0-1,0-1.75,0-2.39a14.31,14.31,0,0,0-.06-1.81,1.08,1.08,0,0,0-.37-.7,1.11,1.11,0,0,0-.71-.25h0a1,1,0,0,0-.66.22,2.42,2.42,0,0,0-.45.58,3.8,3.8,0,0,0-.22,1.42l-.06,2.54-1.11,0-.1-6.12Z" style="fill:#423c25"/><path d="M123.15,108.16h0a.51.51,0,0,1,.23.07,1.08,1.08,0,0,0,.78-.49,3.82,3.82,0,0,0,.2-1.52l0-4.54,1.07.08c0,.82,0,1.55,0,2.21a29.51,29.51,0,0,1-.13,3.78,1.92,1.92,0,0,1-.57,1,2,2,0,0,1-.93.42,1.55,1.55,0,0,1-.31,0,2.8,2.8,0,0,1-.48,0Zm2.23-8.43a.68.68,0,0,1,0,1,.71.71,0,0,1-1,0,.68.68,0,0,1,0-1,.71.71,0,0,1,1,0Z" style="fill:#423c25"/><path d="M127.89,104.65a2.14,2.14,0,0,0,.41,1.34,1.39,1.39,0,0,0,.91.4h.14a1.37,1.37,0,0,0,.8-.22,1.64,1.64,0,0,0,.57-1l1.18.23a3.76,3.76,0,0,1-.65,1.26,2,2,0,0,1-1.2.65,4.56,4.56,0,0,1-.72.06,3.45,3.45,0,0,1-.72-.07,2.18,2.18,0,0,1-1.19-.69,2.59,2.59,0,0,1-.67-1.25,4.55,4.55,0,0,1-.12-1c0-.12,0-.25,0-.38a3.7,3.7,0,0,1,.36-1.32,2.26,2.26,0,0,1,.79-.9,2.68,2.68,0,0,1,1-.39,3.64,3.64,0,0,1,.6-.05l.59,0a1.94,1.94,0,0,1,1.29.8,4,4,0,0,1,.6,2.47Zm2.72-.92a1.54,1.54,0,0,0-.38-1,1.2,1.2,0,0,0-.95-.43,1.31,1.31,0,0,0-1,.41,1.37,1.37,0,0,0-.41,1Z" style="fill:#423c25"/><path d="M136.7,107.69l-.07-1.34a1.74,1.74,0,0,1-.94.93,2.31,2.31,0,0,1-.76.14,2,2,0,0,1-.43,0,1.58,1.58,0,0,1-1-.62,2.73,2.73,0,0,1-.51-1.12,17.38,17.38,0,0,1-.07-2.13c0-.66,0-1.48,0-2.44l1.11,0c0,.76,0,1.42,0,2a21.17,21.17,0,0,0,.06,2.23,1,1,0,0,0,1.08.95h0a1,1,0,0,0,.65-.22,2.24,2.24,0,0,0,.45-.58,3.49,3.49,0,0,0,.21-1.43l.06-2.5,1.15-.08.09,6.14Z" style="fill:#423c25"/><path d="M18.85,113.93v7.85h-1.2l.05-2.9A1.69,1.69,0,0,1,16.29,120a3.08,3.08,0,0,1-.51,0,1.86,1.86,0,0,1-1.12-.32,2.21,2.21,0,0,1-.84-1.26,5.13,5.13,0,0,1-.24-1.49v-.07a4.68,4.68,0,0,1,.26-1.42,2,2,0,0,1,.83-1.09,2.17,2.17,0,0,1,1.21-.39,2.38,2.38,0,0,1,1.08.24,1.76,1.76,0,0,1,.74.69l0-.95Zm-4.06,3v0a2.33,2.33,0,0,0,.36,1.32,1.25,1.25,0,0,0,1.1.61c.91,0,1.37-.66,1.39-2v-.07a2.27,2.27,0,0,0-.37-1.33,1.3,1.3,0,0,0-1.11-.56,1.18,1.18,0,0,0-1,.62A2.49,2.49,0,0,0,14.79,116.89Z" style="fill:#423c25"/><path d="M23.66,120.65l-.07-1.33a1.7,1.7,0,0,1-.95.92,2.06,2.06,0,0,1-.76.15,2,2,0,0,1-.42,0,1.62,1.62,0,0,1-1-.62,2.53,2.53,0,0,1-.51-1.13,16.33,16.33,0,0,1-.08-2.12c0-.67,0-1.48,0-2.45l1.11,0c0,.76,0,1.41,0,2a21.31,21.31,0,0,0,.06,2.23,1.11,1.11,0,0,0,.37.7,1.05,1.05,0,0,0,.71.24h0a.94.94,0,0,0,.66-.22,2.18,2.18,0,0,0,.45-.57,3.74,3.74,0,0,0,.21-1.44l.06-2.5,1.14-.07.09,6.13Z" style="fill:#423c25"/><path d="M26.57,115.21a2.24,2.24,0,0,1,1.15-.61,3.1,3.1,0,0,1,.69-.08,4.46,4.46,0,0,1,.86.1,1.41,1.41,0,0,1,1.08,1.13,7.56,7.56,0,0,1,.16,1.8c0,.4,0,.86,0,1.36v0c0,.29.11.43.34.43a1.27,1.27,0,0,0,.41-.1l.09,1a3,3,0,0,1-.74.1,1.06,1.06,0,0,1-1-.55,2.51,2.51,0,0,1-1.84.71h0a2.14,2.14,0,0,1-.84-.17,1.54,1.54,0,0,1-.65-.49,1.47,1.47,0,0,1-.29-.77v-.17a2.29,2.29,0,0,1,.15-.78,1.65,1.65,0,0,1,.91-.87,8,8,0,0,1,2.51-.52,1.43,1.43,0,0,0-.19-.92,1.14,1.14,0,0,0-.74-.25h-.19a1.49,1.49,0,0,0-.71.15,1,1,0,0,0-.4.82l-1.13-.14A1.88,1.88,0,0,1,26.57,115.21Zm2.89,2.49a4.89,4.89,0,0,0-1.92.41.89.89,0,0,0-.46.71v.06a.68.68,0,0,0,.26.58,1.08,1.08,0,0,0,.59.16l.17,0a1.58,1.58,0,0,0,.75-.21,7.26,7.26,0,0,0,.61-.41Z" style="fill:#423c25"/><path d="M33.51,114l.05,1.34a1.78,1.78,0,0,1,1-.92,2,2,0,0,1,.75-.14,2,2,0,0,1,.43,0,1.62,1.62,0,0,1,1,.62,2.7,2.7,0,0,1,.51,1.13,12.84,12.84,0,0,1,.07,1.81c0,.72,0,1.64,0,2.76l-1.11,0c0-1,0-1.76,0-2.39a15.57,15.57,0,0,0,0-1.82,1.16,1.16,0,0,0-.37-.7,1.07,1.07,0,0,0-.71-.24h0a.92.92,0,0,0-.66.22,2.08,2.08,0,0,0-.45.58,3.56,3.56,0,0,0-.22,1.42l-.07,2.54-1.1,0-.1-6.12Z" style="fill:#423c25"/><path d="M42.46,120.3l0-1a1.76,1.76,0,0,1-.74.69,2.39,2.39,0,0,1-1.09.24,2.14,2.14,0,0,1-1.2-.39,2,2,0,0,1-.84-1.09,4.66,4.66,0,0,1-.25-1.42v-.08a5.12,5.12,0,0,1,.24-1.48,2.25,2.25,0,0,1,.83-1.26,1.84,1.84,0,0,1,1.13-.32,3,3,0,0,1,.5,0,1.66,1.66,0,0,1,1.42,1.07l0-2.9h1.19v7.85Zm-3-3a2.41,2.41,0,0,0,.37,1.34,1.18,1.18,0,0,0,1,.62,1.32,1.32,0,0,0,1.11-.56,2.3,2.3,0,0,0,.36-1.34v-.06q0-2-1.38-2a1.24,1.24,0,0,0-1.1.61,2.33,2.33,0,0,0-.36,1.32Z" style="fill:#423c25"/><path d="M47.94,112.7a.65.65,0,0,1,.2.47.7.7,0,0,1-.2.49.71.71,0,0,1-.5.19.68.68,0,0,1-.7-.68.62.62,0,0,1,.21-.47.64.64,0,0,1,.49-.2A.68.68,0,0,1,47.94,112.7Zm-1.1,1.82,1.18,0-.11,5.86h-1Z" style="fill:#423c25"/><path d="M49.2,112.36l1.17,0v7.87l-1.12,0Z" style="fill:#423c25"/><path d="M53.54,112.36l1.18,0v7.87l-1.12,0Z" style="fill:#423c25"/><path d="M57,117.62a2.09,2.09,0,0,0,.42,1.34,1.3,1.3,0,0,0,.91.39h.13a1.45,1.45,0,0,0,.8-.22,1.64,1.64,0,0,0,.57-1l1.18.23a3.58,3.58,0,0,1-.65,1.26,1.88,1.88,0,0,1-1.2.65,4.5,4.5,0,0,1-.72.07,4.39,4.39,0,0,1-.72-.07,2.24,2.24,0,0,1-1.19-.69,2.64,2.64,0,0,1-.67-1.25,4.54,4.54,0,0,1-.11-1c0-.13,0-.25,0-.38a3.59,3.59,0,0,1,.36-1.32,2.23,2.23,0,0,1,.79-.91,3.09,3.09,0,0,1,1-.39,3.7,3.7,0,0,1,.6,0l.59,0a2,2,0,0,1,1.3.8,4.1,4.1,0,0,1,.59,2.46Zm2.72-.93a1.53,1.53,0,0,0-.38-1,1.22,1.22,0,0,0-.95-.42,1.3,1.3,0,0,0-1,.4,1.44,1.44,0,0,0-.41,1Z" style="fill:#423c25"/><path d="M64.21,118.24l1.13-.21c0,.56.27.89.65,1a3.14,3.14,0,0,0,.71.09l.29,0a.9.9,0,0,0,.59-.25.81.81,0,0,0,.19-.35v-.07a.43.43,0,0,0-.09-.26,1.24,1.24,0,0,0-.29-.27,5.84,5.84,0,0,0-1-.34c-.56-.17-1-.3-1.21-.4a1.41,1.41,0,0,1-.59-.44,1.21,1.21,0,0,1-.25-.71v-.08a1.71,1.71,0,0,1,.17-.74,1.45,1.45,0,0,1,.66-.63,2.75,2.75,0,0,1,1-.31l.39,0a4.56,4.56,0,0,1,.54,0,2.5,2.5,0,0,1,.91.37,2.25,2.25,0,0,1,.72,1.38l-1.06.13c-.14-.48-.32-.75-.55-.83a2.25,2.25,0,0,0-.56-.09h-.11a1,1,0,0,0-.58.2.57.57,0,0,0-.26.41v.06a.41.41,0,0,0,.16.34,2.84,2.84,0,0,0,1,.34,6.45,6.45,0,0,1,1.37.47,1.35,1.35,0,0,1,.72.63,2.06,2.06,0,0,1,.14.76h0a1.58,1.58,0,0,1-.23.8,1.83,1.83,0,0,1-.77.62,2.93,2.93,0,0,1-1.29.26h-.08a3.93,3.93,0,0,1-1.1-.13,1.81,1.81,0,0,1-.76-.46A2.34,2.34,0,0,1,64.21,118.24Z" style="fill:#423c25"/><path d="M70.69,119.67a3.29,3.29,0,0,1-.72-2.22,3.26,3.26,0,0,1,.72-2.2,2.72,2.72,0,0,1,4,0,3.26,3.26,0,0,1,.72,2.2,3.29,3.29,0,0,1-.72,2.22,2.72,2.72,0,0,1-4,0Zm3.19-.76a2.81,2.81,0,0,0,0-2.82,1.36,1.36,0,0,0-1.21-.65,1.34,1.34,0,0,0-1.2.65,2.74,2.74,0,0,0,0,2.82,1.36,1.36,0,0,0,1.2.65A1.38,1.38,0,0,0,73.88,118.91Z" style="fill:#423c25"/><path d="M80.2,120.65l-.07-1.33a1.67,1.67,0,0,1-.95.92,2,2,0,0,1-.75.15,2,2,0,0,1-.43,0,1.62,1.62,0,0,1-1-.62,2.65,2.65,0,0,1-.51-1.13,16.33,16.33,0,0,1-.08-2.12c0-.67,0-1.48,0-2.45l1.11,0c0,.76,0,1.41,0,2a21.31,21.31,0,0,0,.06,2.23,1.16,1.16,0,0,0,.37.7,1.07,1.07,0,0,0,.71.24h0a.92.92,0,0,0,.66-.22,2.18,2.18,0,0,0,.45-.57,3.55,3.55,0,0,0,.21-1.44l.06-2.5,1.14-.07.09,6.13Z" style="fill:#423c25"/><path d="M83.61,112.33v2.92a1.75,1.75,0,0,1,1-.92,2.21,2.21,0,0,1,.75-.14,2.1,2.1,0,0,1,.43,0,1.6,1.6,0,0,1,1,.62,2.58,2.58,0,0,1,.5,1.13,12.05,12.05,0,0,1,.08,1.8c0,.72,0,1.64,0,2.76l-1.11,0c0-1,0-1.75,0-2.39,0-1,0-1.62,0-1.81a1.06,1.06,0,0,0-1.08-.95h0a1,1,0,0,0-.66.22,2.68,2.68,0,0,0-.44.58,3.74,3.74,0,0,0-.23,1.42l-.06,2.54-1.11,0-.09-7.7Z" style="fill:#423c25"/><path d="M89.05,115.21a2.2,2.2,0,0,1,1.15-.61,3,3,0,0,1,.68-.08,4.56,4.56,0,0,1,.87.1,1.44,1.44,0,0,1,1.08,1.13,8.13,8.13,0,0,1,.16,1.8c0,.4,0,.86,0,1.36v0c0,.29.12.43.34.43a1.27,1.27,0,0,0,.41-.1l.09,1a3,3,0,0,1-.74.1,1.06,1.06,0,0,1-1-.55,2.91,2.91,0,0,1-1,.58,2.86,2.86,0,0,1-.89.13h0a2.14,2.14,0,0,1-.84-.17,1.57,1.57,0,0,1-.66-.49,1.46,1.46,0,0,1-.28-.77s0-.11,0-.17a2.29,2.29,0,0,1,.15-.78,1.67,1.67,0,0,1,.92-.87,7.88,7.88,0,0,1,2.51-.52,1.5,1.5,0,0,0-.19-.92,1.15,1.15,0,0,0-.75-.25h-.19a1.45,1.45,0,0,0-.7.15,1,1,0,0,0-.4.82l-1.13-.14A1.88,1.88,0,0,1,89.05,115.21Zm2.88,2.49a4.83,4.83,0,0,0-1.91.41.87.87,0,0,0-.46.71.13.13,0,0,0,0,.06.67.67,0,0,0,.27.58,1.08,1.08,0,0,0,.59.16l.17,0a1.58,1.58,0,0,0,.75-.21,5.86,5.86,0,0,0,.6-.41Z" style="fill:#423c25"/><path d="M96,112.7a.62.62,0,0,1,.21.47.67.67,0,0,1-.21.49.69.69,0,0,1-.49.19.67.67,0,0,1-.7-.68.65.65,0,0,1,.2-.47.66.66,0,0,1,.5-.2A.66.66,0,0,1,96,112.7Zm-1.1,1.82,1.18,0L96,120.33H95Z" style="fill:#423c25"/><path d="M97.29,114h.93v-1.67l1.18-.16v1.78l1.54-.05v1l-1.54.05v3.52a1.2,1.2,0,0,0,.1.57.42.42,0,0,0,.35.14,4.69,4.69,0,0,0,.93-.2l.16,1a6.67,6.67,0,0,1-1.41.22,1.86,1.86,0,0,1-1-.36,1.69,1.69,0,0,1-.3-1.06v-3.78h-.93Z" style="fill:#423c25"/><path d="M103.25,117.62a2.16,2.16,0,0,0,.41,1.34,1.34,1.34,0,0,0,.91.39h.14a1.47,1.47,0,0,0,.8-.22,1.64,1.64,0,0,0,.57-1l1.18.23a3.6,3.6,0,0,1-.66,1.26,1.85,1.85,0,0,1-1.19.65,4.61,4.61,0,0,1-.72.07,4.18,4.18,0,0,1-.72-.07,2.24,2.24,0,0,1-1.19-.69,2.56,2.56,0,0,1-.67-1.25,4.55,4.55,0,0,1-.12-1c0-.13,0-.25,0-.38a3.24,3.24,0,0,1,.36-1.32,2.28,2.28,0,0,1,.78-.91,3.19,3.19,0,0,1,1-.39,3.74,3.74,0,0,1,.61,0l.59,0a2,2,0,0,1,1.29.8,4,4,0,0,1,.6,2.46Zm2.72-.93a1.65,1.65,0,0,0-.38-1,1.22,1.22,0,0,0-1-.42,1.31,1.31,0,0,0-1,.4,1.43,1.43,0,0,0-.4,1Z" style="fill:#423c25"/><path d="M109.5,118.6a.66.66,0,0,1,.21.48.63.63,0,0,1-.21.48.7.7,0,0,1-1,0,.63.63,0,0,1-.21-.48.66.66,0,0,1,.21-.48.73.73,0,0,1,1,0Z" style="fill:#423c25"/></g></g></svg>