<svg xmlns="http://www.w3.org/2000/svg" width="150" height="150" viewBox="0 0 150 150"><title>2</title><g id="b9b6390b-30b0-4347-81bb-36b845498b93" data-name="fond"><rect x="0.3" y="-0.1" width="149.39" height="149.69" style="fill:#fff"/></g><g id="a5f7ef9f-8a17-4ccb-a62e-0bb8b5fa5e9b" data-name="shuri peinture"><path d="M158.59,20.38l-13.37-.64A2.75,2.75,0,0,0,145,18l0,0a.15.15,0,0,0,.09.06l7.38.36-6.12-4.63h0v0a2.7,2.7,0,0,0,1.5-1Z" style="fill:#fff"/><path d="M153.14-3.26,146.43,8.31a2.87,2.87,0,0,0-1.63-.63V7.56a.23.23,0,0,0,.2-.11l2.91-5.54-6.4,2.82s0,0-.05,0l-.1,0a2.57,2.57,0,0,0-.14-1.8Z" style="fill:#fff"/><path d="M152.54,18.38,145.16,18a.15.15,0,0,1-.09-.06s0,0,0-.06l1.3-4.14,0,0h0Z" style="fill:#423c25"/><path d="M147.9,1.91,145,7.45a.23.23,0,0,1-.2.11.19.19,0,0,1-.14,0l-3.17-2.6a.11.11,0,0,1,0-.14s0,0,.05,0Z" style="fill:#423c25"/><path d="M146.4,13.72v0l0,0-1.3,4.14s0,0,0,.06l0,0a1.6,1.6,0,0,0-.21-.32c-.87-1-2.6-.75-3.6-.17-.11.07-2,1.21-1.69,3a2.31,2.31,0,0,0,.92,1.51l-.05.08a.11.11,0,0,0-.12,0l-4,1.08a.16.16,0,0,0-.12.16l-.13,0c.28-1.27-.92-2.49-2-3-.12-.06-2.16-1-3.44.36a2.29,2.29,0,0,0-.39.54l-.07,0a.08.08,0,0,0,0-.11l-3.09-2.15a.11.11,0,0,0-.08,0v-.08l.29,0c1.32-.29,1.89-1.94,1.86-3.09,0-.13-.1-2.37-1.86-2.91a2.82,2.82,0,0,0-1.55,0l0-.09a.13.13,0,0,0,.09-.1L126.91,9a.14.14,0,0,0-.07-.18l.06-.09c1,.77,2.52.39,3.43-.22.1-.07,1.95-1.33,1.48-3.11a2.49,2.49,0,0,0-.67-1.17l.1-.1a.15.15,0,0,0,.19.09L135.16,3a.21.21,0,0,0,.13-.11l.09,0-.07.19c-.41,1.28.74,2.6,1.76,3.14.12.06,2.11,1.09,3.45-.16a2.86,2.86,0,0,0,.83-1.37l.1,0a.11.11,0,0,0,0,.14l3.17,2.6a.19.19,0,0,0,.14,0v.12a1.92,1.92,0,0,0-.41.05c-1.3.3-1.85,2-1.8,3.12,0,.13.14,2.36,1.9,2.88A3.54,3.54,0,0,0,146.4,13.72ZM137.59,15a2.31,2.31,0,1,0-3.26.3A2.29,2.29,0,0,0,137.59,15Z" style="fill:#423c25"/><path d="M141.73,22.75V36.18l-7.18-11.29A2.64,2.64,0,0,0,136,23.35v-.08l.13,0a.19.19,0,0,0,0,.1l4,6.31.23-7.53a.11.11,0,0,0,0-.08l.05-.08a2.77,2.77,0,0,0,1.29.49Z" style="fill:#fff"/><path d="M140.42,22.17l-.23,7.53-4-6.31a.19.19,0,0,1,0-.1.16.16,0,0,1,.12-.16l4-1.08a.11.11,0,0,1,.12,0A.11.11,0,0,1,140.42,22.17Z" style="fill:#423c25"/><path d="M137.29,11.72A2.31,2.31,0,1,1,134,12,2.29,2.29,0,0,1,137.29,11.72Z" style="fill:#fff"/><path d="M130.32-10l6.54,11.68a2.6,2.6,0,0,0-1.48,1.26l-.09,0a.19.19,0,0,0,0-.15l-3.32-6L131.23,4a.17.17,0,0,0,0,.07l-.1.1a2.77,2.77,0,0,0-1.76-.72Z" style="fill:#fff"/><path d="M135.27,2.74a.19.19,0,0,1,0,.15.21.21,0,0,1-.13.11l-3.73,1.17a.15.15,0,0,1-.19-.09.17.17,0,0,1,0-.07L132-3.23Z" style="fill:#423c25"/><path d="M130.41,23.53l-12,6.09,6.88-11.46a2.79,2.79,0,0,0,1.74.65v.08a.16.16,0,0,0-.14.08l-3.64,6.1,6.94-3.86,0,0,.07,0a1.51,1.51,0,0,0-.18.44A2.68,2.68,0,0,0,130.41,23.53Z" style="fill:#fff"/><path d="M130.15,21.07a.08.08,0,0,1,0,.11l0,0-6.94,3.86,3.64-6.1a.16.16,0,0,1,.14-.08.11.11,0,0,1,.08,0Z" style="fill:#423c25"/><path d="M126.84,8.77a.14.14,0,0,1,.07.18l-1.12,3.59a.13.13,0,0,1-.09.1.17.17,0,0,1-.12,0l-6.49-4,7.68.16Z" style="fill:#423c25"/><path d="M126.9,8.68l-.06.09h-.07l-7.68-.16,6.49,4a.17.17,0,0,0,.12,0l0,.09a2.53,2.53,0,0,0-1.49,1l-11.44-7,13.38-.23a2.58,2.58,0,0,0,.55,2Z" style="fill:#fff"/><path d="M144.8,7.68a2.87,2.87,0,0,1,1.63.63l6.71-11.57-11.93,6.2a2.57,2.57,0,0,1,.14,1.8,2.86,2.86,0,0,1-.83,1.37c-1.34,1.25-3.33.22-3.45.16-1-.54-2.17-1.86-1.76-3.14l.07-.19a2.6,2.6,0,0,1,1.48-1.26L130.32-10l-.94,13.46a2.77,2.77,0,0,1,1.76.72,2.49,2.49,0,0,1,.67,1.17c.47,1.78-1.38,3-1.48,3.11-.91.61-2.47,1-3.43.22l-.18-.15a2.58,2.58,0,0,1-.55-2l-13.38.23,11.44,7a2.53,2.53,0,0,1,1.49-1,2.82,2.82,0,0,1,1.55,0c1.76.54,1.86,2.78,1.86,2.91,0,1.15-.54,2.8-1.86,3.09l-.29,0a2.79,2.79,0,0,1-1.74-.65l-6.88,11.46,12-6.09a2.68,2.68,0,0,1-.35-1.88,1.51,1.51,0,0,1,.18-.44,2.29,2.29,0,0,1,.39-.54c1.28-1.33,3.32-.42,3.44-.36,1,.47,2.23,1.69,2,3v.08a2.64,2.64,0,0,1-1.46,1.54l7.18,11.29V22.5a2.77,2.77,0,0,1-1.29-.49,2.31,2.31,0,0,1-.92-1.51c-.35-1.8,1.58-2.94,1.69-3,1-.58,2.73-.85,3.6.17A1.6,1.6,0,0,1,145,18a2.75,2.75,0,0,1,.2,1.76l13.37.64L147.9,12.72a2.7,2.7,0,0,1-1.5,1,3.54,3.54,0,0,1-1.91,0c-1.76-.52-1.9-2.75-1.9-2.88-.05-1.16.5-2.82,1.8-3.12A1.92,1.92,0,0,1,144.8,7.68Z" style="fill:none;stroke:#423c25;stroke-miterlimit:10;stroke-width:0.5992138385772705px"/><path d="M130.17,21.18l0,0-6.94,3.86,3.64-6.1a.16.16,0,0,1,.14-.08.11.11,0,0,1,.08,0l3.09,2.15A.08.08,0,0,1,130.17,21.18Z" style="fill:none;stroke:#423c25;stroke-miterlimit:10;stroke-width:0.5992138385772705px"/><path d="M136.15,23.29a.19.19,0,0,0,0,.1l4,6.31.23-7.53a.11.11,0,0,0,0-.08.11.11,0,0,0-.12,0l-4,1.08A.16.16,0,0,0,136.15,23.29Z" style="fill:none;stroke:#423c25;stroke-miterlimit:10;stroke-width:0.5992138385772705px"/><path d="M146.4,13.74h0l6.12,4.63L145.16,18a.15.15,0,0,1-.09-.06s0,0,0-.06l1.3-4.14Z" style="fill:none;stroke:#423c25;stroke-miterlimit:10;stroke-width:0.5992138385772705px"/><path d="M141.45,4.77s0,0,.05,0l6.4-2.82L145,7.45a.23.23,0,0,1-.2.11.19.19,0,0,1-.14,0l-3.17-2.6A.11.11,0,0,1,141.45,4.77Z" style="fill:none;stroke:#423c25;stroke-miterlimit:10;stroke-width:0.5992138385772705px"/><path d="M135.29,2.89a.19.19,0,0,0,0-.15l-3.32-6L131.23,4a.17.17,0,0,0,0,.07.15.15,0,0,0,.19.09L135.16,3A.21.21,0,0,0,135.29,2.89Z" style="fill:none;stroke:#423c25;stroke-miterlimit:10;stroke-width:0.5992138385772705px"/><path d="M125.7,12.64a.17.17,0,0,1-.12,0l-6.49-4,7.68.16h.07a.14.14,0,0,1,.07.18l-1.12,3.59A.13.13,0,0,1,125.7,12.64Z" style="fill:none;stroke:#423c25;stroke-miterlimit:10;stroke-width:0.5992138385772705px"/><path d="M137.29,11.72A2.31,2.31,0,1,1,134,12,2.29,2.29,0,0,1,137.29,11.72Z" style="fill:none;stroke:#423c25;stroke-miterlimit:10;stroke-width:0.5992138385772705px"/><path d="M158.59,20.38l-13.37-.64A2.75,2.75,0,0,0,145,18l0,0a.15.15,0,0,0,.09.06l7.38.36-6.12-4.63h0v0a2.7,2.7,0,0,0,1.5-1Z" style="fill:#fff"/><path d="M153.14-3.26,146.43,8.31a2.87,2.87,0,0,0-1.63-.63V7.56a.23.23,0,0,0,.2-.11l2.91-5.54-6.4,2.82s0,0-.05,0l-.1,0a2.57,2.57,0,0,0-.14-1.8Z" style="fill:#fff"/><path d="M152.54,18.38,145.16,18a.15.15,0,0,1-.09-.06s0,0,0-.06l1.3-4.14,0,0h0Z" style="fill:#423c25"/><path d="M147.9,1.91,145,7.45a.23.23,0,0,1-.2.11.19.19,0,0,1-.14,0l-3.17-2.6a.11.11,0,0,1,0-.14s0,0,.05,0Z" style="fill:#423c25"/><path d="M146.4,13.72v0l0,0-1.3,4.14s0,0,0,.06l0,0a1.6,1.6,0,0,0-.21-.32c-.87-1-2.6-.75-3.6-.17-.11.07-2,1.21-1.69,3a2.31,2.31,0,0,0,.92,1.51l-.05.08a.11.11,0,0,0-.12,0l-4,1.08a.16.16,0,0,0-.12.16l-.13,0c.28-1.27-.92-2.49-2-3-.12-.06-2.16-1-3.44.36a2.29,2.29,0,0,0-.39.54l-.07,0a.08.08,0,0,0,0-.11l-3.09-2.15a.11.11,0,0,0-.08,0v-.08l.29,0c1.32-.29,1.89-1.94,1.86-3.09,0-.13-.1-2.37-1.86-2.91a2.82,2.82,0,0,0-1.55,0l0-.09a.13.13,0,0,0,.09-.1L126.91,9a.14.14,0,0,0-.07-.18l.06-.09c1,.77,2.52.39,3.43-.22.1-.07,1.95-1.33,1.48-3.11a2.49,2.49,0,0,0-.67-1.17l.1-.1a.15.15,0,0,0,.19.09L135.16,3a.21.21,0,0,0,.13-.11l.09,0-.07.19c-.41,1.28.74,2.6,1.76,3.14.12.06,2.11,1.09,3.45-.16a2.86,2.86,0,0,0,.83-1.37l.1,0a.11.11,0,0,0,0,.14l3.17,2.6a.19.19,0,0,0,.14,0v.12a1.92,1.92,0,0,0-.41.05c-1.3.3-1.85,2-1.8,3.12,0,.13.14,2.36,1.9,2.88A3.54,3.54,0,0,0,146.4,13.72ZM137.59,15a2.31,2.31,0,1,0-3.26.3A2.29,2.29,0,0,0,137.59,15Z" style="fill:#423c25"/><path d="M141.73,22.75V36.18l-7.18-11.29A2.64,2.64,0,0,0,136,23.35v-.08l.13,0a.19.19,0,0,0,0,.1l4,6.31.23-7.53a.11.11,0,0,0,0-.08l.05-.08a2.77,2.77,0,0,0,1.29.49Z" style="fill:#fff"/><path d="M140.42,22.17l-.23,7.53-4-6.31a.19.19,0,0,1,0-.1.16.16,0,0,1,.12-.16l4-1.08a.11.11,0,0,1,.12,0A.11.11,0,0,1,140.42,22.17Z" style="fill:#423c25"/><path d="M137.29,11.72A2.31,2.31,0,1,1,134,12,2.29,2.29,0,0,1,137.29,11.72Z" style="fill:#fff"/><path d="M130.32-10l6.54,11.68a2.6,2.6,0,0,0-1.48,1.26l-.09,0a.19.19,0,0,0,0-.15l-3.32-6L131.23,4a.17.17,0,0,0,0,.07l-.1.1a2.77,2.77,0,0,0-1.76-.72Z" style="fill:#fff"/><path d="M135.27,2.74a.19.19,0,0,1,0,.15.21.21,0,0,1-.13.11l-3.73,1.17a.15.15,0,0,1-.19-.09.17.17,0,0,1,0-.07L132-3.23Z" style="fill:#423c25"/><path d="M130.41,23.53l-12,6.09,6.88-11.46a2.79,2.79,0,0,0,1.74.65v.08a.16.16,0,0,0-.14.08l-3.64,6.1,6.94-3.86,0,0,.07,0a1.51,1.51,0,0,0-.18.44A2.68,2.68,0,0,0,130.41,23.53Z" style="fill:#fff"/><path d="M130.15,21.07a.08.08,0,0,1,0,.11l0,0-6.94,3.86,3.64-6.1a.16.16,0,0,1,.14-.08.11.11,0,0,1,.08,0Z" style="fill:#423c25"/><path d="M126.84,8.77a.14.14,0,0,1,.07.18l-1.12,3.59a.13.13,0,0,1-.09.1.17.17,0,0,1-.12,0l-6.49-4,7.68.16Z" style="fill:#423c25"/><path d="M126.9,8.68l-.06.09h-.07l-7.68-.16,6.49,4a.17.17,0,0,0,.12,0l0,.09a2.53,2.53,0,0,0-1.49,1l-11.44-7,13.38-.23a2.58,2.58,0,0,0,.55,2Z" style="fill:#fff"/><path d="M144.8,7.68a2.87,2.87,0,0,1,1.63.63l6.71-11.57-11.93,6.2a2.57,2.57,0,0,1,.14,1.8,2.86,2.86,0,0,1-.83,1.37c-1.34,1.25-3.33.22-3.45.16-1-.54-2.17-1.86-1.76-3.14l.07-.19a2.6,2.6,0,0,1,1.48-1.26L130.32-10l-.94,13.46a2.77,2.77,0,0,1,1.76.72,2.49,2.49,0,0,1,.67,1.17c.47,1.78-1.38,3-1.48,3.11-.91.61-2.47,1-3.43.22l-.18-.15a2.58,2.58,0,0,1-.55-2l-13.38.23,11.44,7a2.53,2.53,0,0,1,1.49-1,2.82,2.82,0,0,1,1.55,0c1.76.54,1.86,2.78,1.86,2.91,0,1.15-.54,2.8-1.86,3.09l-.29,0a2.79,2.79,0,0,1-1.74-.65l-6.88,11.46,12-6.09a2.68,2.68,0,0,1-.35-1.88,1.51,1.51,0,0,1,.18-.44,2.29,2.29,0,0,1,.39-.54c1.28-1.33,3.32-.42,3.44-.36,1,.47,2.23,1.69,2,3v.08a2.64,2.64,0,0,1-1.46,1.54l7.18,11.29V22.5a2.77,2.77,0,0,1-1.29-.49,2.31,2.31,0,0,1-.92-1.51c-.35-1.8,1.58-2.94,1.69-3,1-.58,2.73-.85,3.6.17A1.6,1.6,0,0,1,145,18a2.75,2.75,0,0,1,.2,1.76l13.37.64L147.9,12.72a2.7,2.7,0,0,1-1.5,1,3.54,3.54,0,0,1-1.91,0c-1.76-.52-1.9-2.75-1.9-2.88-.05-1.16.5-2.82,1.8-3.12A1.92,1.92,0,0,1,144.8,7.68Z" style="fill:none;stroke:#423c25;stroke-miterlimit:10;stroke-width:0.5992138385772705px"/><path d="M130.17,21.18l0,0-6.94,3.86,3.64-6.1a.16.16,0,0,1,.14-.08.11.11,0,0,1,.08,0l3.09,2.15A.08.08,0,0,1,130.17,21.18Z" style="fill:none;stroke:#423c25;stroke-miterlimit:10;stroke-width:0.5992138385772705px"/><path d="M136.15,23.29a.19.19,0,0,0,0,.1l4,6.31.23-7.53a.11.11,0,0,0,0-.08.11.11,0,0,0-.12,0l-4,1.08A.16.16,0,0,0,136.15,23.29Z" style="fill:none;stroke:#423c25;stroke-miterlimit:10;stroke-width:0.5992138385772705px"/><path d="M146.4,13.74h0l6.12,4.63L145.16,18a.15.15,0,0,1-.09-.06s0,0,0-.06l1.3-4.14Z" style="fill:none;stroke:#423c25;stroke-miterlimit:10;stroke-width:0.5992138385772705px"/><path d="M141.45,4.77s0,0,.05,0l6.4-2.82L145,7.45a.23.23,0,0,1-.2.11.19.19,0,0,1-.14,0l-3.17-2.6A.11.11,0,0,1,141.45,4.77Z" style="fill:none;stroke:#423c25;stroke-miterlimit:10;stroke-width:0.5992138385772705px"/><path d="M135.29,2.89a.19.19,0,0,0,0-.15l-3.32-6L131.23,4a.17.17,0,0,0,0,.07.15.15,0,0,0,.19.09L135.16,3A.21.21,0,0,0,135.29,2.89Z" style="fill:none;stroke:#423c25;stroke-miterlimit:10;stroke-width:0.5992138385772705px"/><path d="M125.7,12.64a.17.17,0,0,1-.12,0l-6.49-4,7.68.16h.07a.14.14,0,0,1,.07.18l-1.12,3.59A.13.13,0,0,1,125.7,12.64Z" style="fill:none;stroke:#423c25;stroke-miterlimit:10;stroke-width:0.5992138385772705px"/><path d="M137.29,11.72A2.31,2.31,0,1,1,134,12,2.29,2.29,0,0,1,137.29,11.72Z" style="fill:none;stroke:#423c25;stroke-miterlimit:10;stroke-width:0.5992138385772705px"/></g><g id="ae49531a-5b50-4e87-8c85-e15b3eabafa3" data-name="Textes Cartes vecto"><g id="eda6cc6c-a175-4252-ac05-127efe6e0bb1" data-name="Calque 20 - copie"><path d="M16.32,27a.31.31,0,0,0-.15.09c-.07.06-.13.13-.2.2l-.18.2c0,.06-.09.09-.13.09s-.23-.13-.22-.39a4.14,4.14,0,0,1,.11-.87c.07-.32.16-.63.25-.94a5.5,5.5,0,0,0,.18-.62A38.65,38.65,0,0,1,17.25,21c.48-1.22.9-2.46,1.26-3.71a.15.15,0,0,1,0-.11s0-.05,0-.05H16.91a.43.43,0,0,1,.13-.22.38.38,0,0,0,.13-.19v-.09c-.1-.12-.15-.2-.14-.24s.07-.1.17-.14a1.59,1.59,0,0,1,.33-.09,2.21,2.21,0,0,1,.35,0h.24l-.28-.18a1.24,1.24,0,0,1-.33,0,1.16,1.16,0,0,1-.28-.1.4.4,0,0,1-.19-.17.31.31,0,0,1,0-.27,1,1,0,0,1,.16-.26.56.56,0,0,1,.27-.2l.91-.16h.41l.89,0,1,0h3.91a.43.43,0,0,1-.17.28.79.79,0,0,1-.26.08l-.27.05a.38.38,0,0,0-.25.17.78.78,0,0,0-.05.32,2,2,0,0,0,0,.27,2.11,2.11,0,0,1,0,.26.66.66,0,0,1,0,.3,2.35,2.35,0,0,1-.16.37,1.91,1.91,0,0,1-.34.38.64.64,0,0,1-.43.1l-.52,0a.62.62,0,0,0-.31.07,1.64,1.64,0,0,1-.07.21c0,.1-.07.21-.12.32l-.12.33a2.16,2.16,0,0,0-.08.24l-.09.3-.15.49-.25.74c-.08.26-.16.49-.25.72s-.14.37-.18.45L19,26.53a3.63,3.63,0,0,1-.15.39,1.34,1.34,0,0,1-.28.42.87.87,0,0,0-.53,0,.75.75,0,0,0-.28.2c-.07.09-.14.16-.21.24a.4.4,0,0,1-.31.1.34.34,0,0,1-.31-.15,2,2,0,0,1-.17-.32,2,2,0,0,0-.15-.33A.29.29,0,0,0,16.32,27Z" style="fill:#423c25"/><path d="M26.54,23.4h-.09l-.16.34-.19.56c-.09.26-.18.54-.29.82l-.28.83c-.09.26-.15.45-.19.55a2.07,2.07,0,0,1-.09.31.75.75,0,0,1-.11.25.13.13,0,0,1-.14.09l-.09,0-.08,0s-.06,0-.06,0l-.17.66h-.08c-.09,0-.13,0-.13,0a.59.59,0,0,1-.51-.35.66.66,0,0,1,.13-.61.14.14,0,0,0-.09-.05h0a.25.25,0,0,0-.19.09,1.49,1.49,0,0,0-.15.2,2.39,2.39,0,0,0-.13.21.37.37,0,0,1-.11.15h0l-.06,0h-.41l-.21,0-.21,0h-.12a.27.27,0,0,1-.33-.16,1.5,1.5,0,0,1-.09-.45,3,3,0,0,1,0-.52,2.38,2.38,0,0,1,.08-.35L22,26a1.07,1.07,0,0,1,.06-.17.31.31,0,0,0,0-.13v-.08l1.67-4.73a1.4,1.4,0,0,0,.07-.19c0-.1.06-.17.07-.2a.71.71,0,0,0,.12-.2c.05-.11.1-.22.15-.35l.14-.35.08-.21a1.1,1.1,0,0,1,.1-.23l.18-.37.22-.36a1.92,1.92,0,0,1,.16-.23l.14-.18.13-.16,0-.07,0-.09h-.2a3.16,3.16,0,0,1-.32,0,1.1,1.1,0,0,1-.29-.09c-.08,0-.12-.08-.11-.14l.13-.15.12-.17.29-.08.19-.06s.07,0,.06-.06l-.43-.21.09-.27s0-.05,0-.11a.2.2,0,0,0,0-.09.33.33,0,0,1,.17-.07l.19,0a.76.76,0,0,0,.16,0,.18.18,0,0,0,.09-.1l-.34-.49c-.09-.1-.05-.21.09-.31a2.61,2.61,0,0,1,.66-.29,8.49,8.49,0,0,1,1-.24L28,14.51l1-.12.59-.05a1.91,1.91,0,0,1,.6.06,2.67,2.67,0,0,0,.55.07.35.35,0,0,0,.19-.06.32.32,0,0,1,.17,0h.1a3.69,3.69,0,0,1,.83.32,5.61,5.61,0,0,1,.68.47,1.76,1.76,0,0,1,.48.45,1,1,0,0,1,.06.62l-.43.38.28.16,0,.34,0,.18a2.92,2.92,0,0,0,0,.88,2.26,2.26,0,0,1-.1.91.88.88,0,0,1-.52.67l-2,2.33-.07.3c.09.75.18,1.52.25,2.3a8.32,8.32,0,0,1-.14,2.38l-.36,0-.22,0L29.65,27l-.24,0a.51.51,0,0,0,0,.09v.08a.27.27,0,0,1,0,.08l-.13.17a2.79,2.79,0,0,1-.38.41.64.64,0,0,1-.37.21c-.09,0-.13,0-.15-.08a1.37,1.37,0,0,1,0-.19.59.59,0,0,0,0-.19.15.15,0,0,0-.16-.09.19.19,0,0,0-.13.07l-.17.15-.17.16a.58.58,0,0,1-.12.1.25.25,0,0,1-.13.09c-.14,0-.26-.07-.35-.26a2.59,2.59,0,0,1-.21-.72,9.07,9.07,0,0,1-.11-1q0-.54,0-1.05c0-.34,0-.64,0-.91s0-.46,0-.57S26.65,23.4,26.54,23.4Zm.7-2.32,0,.16c0,.05,0,.09.1.11a2,2,0,0,0,.57-.15.76.76,0,0,0,.4-.37L29.45,19l.05-.18a.56.56,0,0,0,0-.36,2.13,2.13,0,0,0-.14-.35,3.78,3.78,0,0,1-.17-.35.69.69,0,0,1,0-.38c0-.09-.06-.14-.18-.14h-.05l-.31.06-.38.06-.34.05a.69.69,0,0,0-.18.05l-.17,0s-.05.06-.08.13l0,.05a.69.69,0,0,1,.53.26.79.79,0,0,1,0,.56,6,6,0,0,1-.42,1.32A7.87,7.87,0,0,0,27.24,21.08Z" style="fill:#423c25"/><path d="M32,26.77h-.08l-.08.07-.23.8a.05.05,0,0,1,0,0,.24.24,0,0,0-.09.06h-.06c-.08,0-.14-.06-.17-.2a.54.54,0,0,1,0-.28q0-.15.15-.57a5.36,5.36,0,0,1,.18-.54c-.05-.07-.07-.12-.06-.13l0-.14,0-.13c0-.14.11-.36.21-.64s.22-.61.35-1,.27-.73.41-1.13.28-.77.41-1.13.25-.68.35-1,.18-.5.23-.64c.17-.31.36-.63.57-.94a5.21,5.21,0,0,0,.52-.94c.18-.36.35-.71.5-1s.32-.65.49-1,.35-.64.54-1,.43-.65.68-1c0,0,.08,0,.15.07a1.45,1.45,0,0,1,.21.29l.22.33c.07.11.12.16.15.16s.09,0,.14-.16l.12-.33c0-.12.09-.23.13-.32s.08-.14.11-.13h1.92l.4-.14s.06,0,.07.05l0,.17c0,.07,0,.13,0,.18s0,.08.05.08a.52.52,0,0,0,.22,0H41a.38.38,0,0,1,.18.07s0,.11,0,.22l-.55,2a1.38,1.38,0,0,0-.06.48,3.11,3.11,0,0,0,.07.44c0,.15.07.3.1.45a1.75,1.75,0,0,1,0,.46c-.05.17-.12.45-.21.85s-.18.83-.27,1.28-.18.89-.26,1.29-.16.7-.21.86l0,.08a14.1,14.1,0,0,1-.23,2,17.84,17.84,0,0,1-.49,2A1.92,1.92,0,0,1,38.5,27a1.61,1.61,0,0,0-.54-.08.19.19,0,0,0-.16.08.86.86,0,0,0-.14.18l-.16.18a.25.25,0,0,1-.17.08q-.11,0-.09-.15c0-.09,0-.2.06-.32s0-.23.06-.32,0-.15-.06-.15a1.3,1.3,0,0,0-.15.16l-.22.27-.12.15a1.59,1.59,0,0,1-.13.24.77.77,0,0,1-.19.24s-.05.06-.13.07v0h0a.28.28,0,0,1-.29-.19A1.1,1.1,0,0,1,36,27a4.9,4.9,0,0,1,.07-.62c0-.22.08-.43.11-.62a3,3,0,0,0,0-.46c0-.14,0-.2-.1-.2h-.56a.6.6,0,0,0-.48.18l-.27,1-.29,1a.94.94,0,0,1-.06.18l-.09.2-.12.25-.12.07H32.6l-.36-.38-.18-.09a.21.21,0,0,1,0-.18c0-.07,0-.15,0-.23a.89.89,0,0,0,0-.22C32.1,26.8,32.05,26.77,32,26.77ZM36,22.27s0,.07-.08.16,0,.13.08.14a1.91,1.91,0,0,0,.58-.1.56.56,0,0,0,.43-.35.23.23,0,0,1,.07-.08l.07-.08a2,2,0,0,1,0-.35c0-.16.05-.34.08-.53s.07-.37.1-.53.06-.27.08-.35,0-.07,0-.16,0-.16,0-.25a1.77,1.77,0,0,0,0-.22c0-.07,0-.1-.07-.1s-.17.06-.26.2a4.49,4.49,0,0,0-.31.48,5.47,5.47,0,0,0-.31.64q-.15.34-.27.66c-.08.21-.15.39-.2.54S36.05,22.23,36,22.27Z" style="fill:#423c25"/><path d="M39.93,27.46l.22-.71c.32-1.27.63-2.5.94-3.69s.64-2.41,1-3.68l0-.14a1.45,1.45,0,0,1,.06-.19,1.09,1.09,0,0,1,0-.14l0-.09a.57.57,0,0,1,.06-.12,1.71,1.71,0,0,1,.12-.23,2.53,2.53,0,0,0,.13-.22.58.58,0,0,0,0-.13l.08-.19c0-.11.09-.22.14-.34s.09-.24.13-.35.07-.19.08-.23a1.37,1.37,0,0,0,.09-.25c0-.11.07-.22.11-.36l.12-.43.13-.43a3.34,3.34,0,0,0,.08-.35,2.08,2.08,0,0,1,.06-.24l.2-.08.39-.13.58-.2a.32.32,0,0,1,.29.12.46.46,0,0,1,.1.25,2.28,2.28,0,0,1,0,.26c0,.07,0,.1.07.1h.06a1.12,1.12,0,0,0,.16-.25c.06,0,.1,0,.11-.1s0-.06.05-.06a1.18,1.18,0,0,1,.28,0l.2,0a1.46,1.46,0,0,1,.16.17l.13.15h.11L47,15h.11l0,.08a.14.14,0,0,0,.1.08l-.11.36A25.23,25.23,0,0,1,46.27,18c-.33.83-.67,1.68-1,2.55A1.11,1.11,0,0,1,45,21a.82.82,0,0,0-.25.41,1.47,1.47,0,0,0-.06.59,2,2,0,0,1,0,.55l-.1.42-.33,1.13-.1.37c-.14.46-.27.95-.41,1.47a10.41,10.41,0,0,1-.54,1.54c0,.06-.08.1-.13.1H43c-.05,0-.08,0-.1,0h-.1a.63.63,0,0,0-.17-.34.61.61,0,0,0-.4-.09h-.12a.27.27,0,0,0-.13.05l-.21.22-.28,0q-.21,0-.24.06a.28.28,0,0,0-.13.06l-.19.12-.18.14-.1.08A1,1,0,0,1,39.93,27.46Z" style="fill:#423c25"/><path d="M46.85,27a.31.31,0,0,0-.15.09c-.07.06-.13.13-.2.2l-.18.2a.21.21,0,0,1-.13.09c-.16,0-.23-.13-.23-.39a5,5,0,0,1,.12-.87c.07-.32.16-.63.25-.94a5.5,5.5,0,0,0,.18-.62c.36-1.25.78-2.49,1.26-3.71A38.65,38.65,0,0,0,49,17.3a.11.11,0,0,1,0-.11s0-.05,0-.05H47.44a.43.43,0,0,1,.13-.22.31.31,0,0,0,.12-.19l0-.09c-.11-.12-.15-.2-.14-.24s.07-.1.17-.14a1.59,1.59,0,0,1,.33-.09,2.21,2.21,0,0,1,.35,0h.24l-.28-.18a1.24,1.24,0,0,1-.33,0,1.16,1.16,0,0,1-.28-.1.4.4,0,0,1-.19-.17.31.31,0,0,1,0-.27,1,1,0,0,1,.16-.26.56.56,0,0,1,.27-.2l.91-.16h.41l.88,0,1,0h3.9a.37.37,0,0,1-.17.28.67.67,0,0,1-.25.08l-.27.05a.43.43,0,0,0-.26.17,1,1,0,0,0,0,.32,2,2,0,0,0,0,.27,2.11,2.11,0,0,1,0,.26.83.83,0,0,1,0,.3,4,4,0,0,1-.16.37,1.91,1.91,0,0,1-.34.38.64.64,0,0,1-.43.1l-.52,0a.59.59,0,0,0-.31.07,1.64,1.64,0,0,1-.07.21l-.12.32-.12.33a2.16,2.16,0,0,0-.08.24l-.09.3c0,.1-.08.26-.16.49s-.15.48-.24.74-.16.49-.25.72-.14.37-.18.45L49.5,26.53a2.1,2.1,0,0,1-.14.39,1.37,1.37,0,0,1-.29.42.85.85,0,0,0-.52,0,.75.75,0,0,0-.28.2c-.07.09-.14.16-.21.24a.4.4,0,0,1-.31.1.36.36,0,0,1-.32-.15,1.91,1.91,0,0,1-.16-.32,2,2,0,0,0-.15-.33A.29.29,0,0,0,46.85,27Z" style="fill:#423c25"/><path d="M52.27,27.46l.21-.71c.32-1.27.64-2.5.94-3.69s.64-2.41,1-3.68l0-.14.07-.19a1.27,1.27,0,0,1,0-.14l0-.09a.34.34,0,0,1,0-.12l.13-.23.12-.22a.3.3,0,0,0,.05-.13,1.88,1.88,0,0,0,.09-.19c0-.11.08-.22.13-.34s.09-.24.13-.35a1.59,1.59,0,0,0,.08-.23,1.37,1.37,0,0,0,.09-.25,2.57,2.57,0,0,0,.11-.36l.13-.43.12-.43a1.9,1.9,0,0,0,.08-.35A1,1,0,0,1,56,15a.79.79,0,0,1,.19-.08l.4-.13.57-.2a.34.34,0,0,1,.3.12.69.69,0,0,1,.1.25,2.26,2.26,0,0,1,0,.26c0,.07,0,.1.08.1h0a.82.82,0,0,0,.16-.25.18.18,0,0,0,.12-.1s0-.06,0-.06a1.18,1.18,0,0,1,.28,0l.21,0,.15.17.13.15h.11l.43-.16h.11a.19.19,0,0,1,0,.08.14.14,0,0,0,.1.08l-.11.36A25.23,25.23,0,0,1,58.6,18c-.33.83-.66,1.68-1,2.55a1.11,1.11,0,0,1-.26.42.88.88,0,0,0-.24.41A1.68,1.68,0,0,0,57,22a2.52,2.52,0,0,1,0,.55l-.11.42-.32,1.13-.11.37c-.13.46-.27.95-.41,1.47a9.38,9.38,0,0,1-.54,1.54c0,.06-.08.1-.13.1h-.11s-.08,0-.09,0h-.1a.81.81,0,0,0-.17-.34.65.65,0,0,0-.41-.09H54.4a.32.32,0,0,0-.13.05l-.21.22-.28,0q-.21,0-.24.06a.28.28,0,0,0-.13.06l-.19.12-.17.14-.1.08A1,1,0,0,1,52.27,27.46Z" style="fill:#423c25"/><path d="M56.71,26.82v0s.11-.09.27-.12a4.18,4.18,0,0,1,.41-.08l.22,0a1.31,1.31,0,0,0-.08-.21l-.16-.3-.1-.15,1.27,0s0-.09-.11-.13a1,1,0,0,0-.25-.08l-.31-.07a.54.54,0,0,0-.19,0c-.1,0-.2-.09-.31-.27,0,0,.05,0,.08-.12a1.43,1.43,0,0,1,.08-.22,1.24,1.24,0,0,1,.1-.2.21.21,0,0,1,.16-.09,1.09,1.09,0,0,1,.53.17A1.15,1.15,0,0,0,59,25a1.25,1.25,0,0,0,.54-.12,2,2,0,0,0,.45-.33,2.36,2.36,0,0,0,.33-.45,2,2,0,0,0,.19-.46.21.21,0,0,1,.17-.14c.09,0,.13-.07.13-.14l-.15-.16L60.38,23l-.25-.29a.46.46,0,0,1-.1-.17,1,1,0,0,0-.07-.27c0-.14-.08-.3-.14-.46s-.1-.31-.14-.45a1.73,1.73,0,0,1-.06-.26c-.1-.26-.19-.47-.27-.64a3.39,3.39,0,0,1-.17-.51,1.92,1.92,0,0,1,0-.59,5.39,5.39,0,0,1,.19-.87,7.31,7.31,0,0,1,.69-1.65,4.15,4.15,0,0,1,1.07-1.21,4.77,4.77,0,0,1,1.55-.76,7.93,7.93,0,0,1,2.14-.26h.08s0,0-.07.09a1.7,1.7,0,0,1-.19.2c-.07.07-.13.14-.19.19s-.09.08-.07.08l.16-.06.31-.13.32-.12.19-.07a.86.86,0,0,1,.34.06c.1,0,.12.13.07.28a.24.24,0,0,1-.12.18l-.2.07a1.17,1.17,0,0,0-.2.06.44.44,0,0,0-.18.12s0,.08-.12.15l-.26.22-.24.22c-.07.06-.1.1-.09.1l1.34-.56s0,0,0,.15,0,.22,0,.35,0,.26,0,.39a2,2,0,0,1-.06.24.53.53,0,0,1-.35.37,3.34,3.34,0,0,1-.58.2,1,1,0,0,1-.25.08l-.38.1-.37.09a1.33,1.33,0,0,0-.23.06.5.5,0,0,0-.29.3.59.59,0,0,0,0,.31q0,.21.06.45c0,.16,0,.31.08.45s.05.24.07.3l-.42.57a1.23,1.23,0,0,0,.25-.08.39.39,0,0,1,.18,0c.15,0,.25.11.33.35s.13.39.22.69.17.61.25.95a7.4,7.4,0,0,1,.16,1,2.31,2.31,0,0,1,0,.81v0a4.11,4.11,0,0,0-.59.92,4.44,4.44,0,0,1-.59.89l-.25.29-.36.41-.38.4a1.46,1.46,0,0,1-.29.26,1.35,1.35,0,0,1-.67.32c-.32.08-.66.14-1,.2a10.4,10.4,0,0,1-1.07.1l-.8,0a2.16,2.16,0,0,1-.43-.06,2.74,2.74,0,0,1-.53-.17,2,2,0,0,1-.43-.25A.24.24,0,0,1,56.71,26.82Z" style="fill:#423c25"/><path d="M64.51,25.74a5.24,5.24,0,0,1,.4-1,5,5,0,0,0,.41-1,17.86,17.86,0,0,0,.44-1.95c.11-.62.25-1.26.43-1.92a8.38,8.38,0,0,1,.45-1.14,8.73,8.73,0,0,0,.45-1.12l0-.07,0-.23,0-.06q0-.11-.18-.15a.49.49,0,0,0-.32,0l-.36-.4v-.09l.38-.43.26-.29a.58.58,0,0,0,.11-.17s0,0,.08,0l.18,0,.28,0a.75.75,0,0,0-.18-.14.59.59,0,0,0-.36-.13.09.09,0,0,1,0-.07.53.53,0,0,1,.32-.34,2.73,2.73,0,0,1,.61-.2,4.17,4.17,0,0,1,.72-.09l.68,0h.4c.45,0,.91,0,1.37.05s.92,0,1.37,0a1.66,1.66,0,0,0,.42,0,1.73,1.73,0,0,1,.42-.05l0,.17c0,.09-.06.15-.07.16a1,1,0,0,1-.15.19,1.06,1.06,0,0,0-.14.2l-.06.16-.44.27.3.27-.05.16a.83.83,0,0,1-.36.41,3.7,3.7,0,0,1-.59.32,4.2,4.2,0,0,1-.66.21,2.79,2.79,0,0,1-.53.1l-.1.07a.83.83,0,0,0-.08.18l-.08.34-.12.39c0,.12-.08.23-.1.31l0,.09a.28.28,0,0,0,0,.13.15.15,0,0,1-.09.14l-.39.2.34,0c.06,0,.07,0,0,.1a.73.73,0,0,0-.09.18l0,.09q0,.09.06.09H70a3.61,3.61,0,0,0,.79-.09,3.75,3.75,0,0,1,.79-.09c.17,0,.27.05.32.15a.55.55,0,0,1,0,.34.61.61,0,0,1-.24.25,3.45,3.45,0,0,1-.43.23l-.42.21a.5.5,0,0,0-.21.15s0,0,.13.07l.3.09a1.1,1.1,0,0,1,.26.15.23.23,0,0,1,0,.28.89.89,0,0,1-.38.49,1.89,1.89,0,0,1-.54.17l-.6.09a1.87,1.87,0,0,0-.58.18,1.41,1.41,0,0,0-.13.26c-.07.15-.13.32-.2.5s-.13.35-.19.51a2.37,2.37,0,0,0-.1.31v0a1.78,1.78,0,0,1,0,.28c0,.11,0,.22,0,.33s0,.24-.07.39H70q.24,0,.18.18a1.18,1.18,0,0,0,0,.31c0,.05,0,.08.09.11l.18.11a.39.39,0,0,1,.14.17.41.41,0,0,1,0,.31.43.43,0,0,1-.26.25,3.33,3.33,0,0,1-.45.16l-.44.15a.37.37,0,0,0-.25.22c.1.15.14.23.13.24l0,.07a.35.35,0,0,1-.24.27,3.78,3.78,0,0,1-.46.05l-.82.1a4.51,4.51,0,0,1-.7.06,1.51,1.51,0,0,1-.4-.05L66,27.43l-.31.16a.49.49,0,0,1-.3,0,1.35,1.35,0,0,0-.33,0h-.21a1,1,0,0,1-.49-.8A3.25,3.25,0,0,1,64.51,25.74Z" style="fill:#423c25"/><path d="M13.88,47.34l1.21,0,0,6.23,4,0,0,1.16H13.82Z" style="fill:#423c25"/><path d="M21.41,52.58a2.11,2.11,0,0,0,.41,1.34,1.34,1.34,0,0,0,.91.39h.13a1.45,1.45,0,0,0,.8-.22,1.64,1.64,0,0,0,.57-1l1.17.23a3.45,3.45,0,0,1-.65,1.25,1.85,1.85,0,0,1-1.19.65,4.56,4.56,0,0,1-.72.06,3.35,3.35,0,0,1-.71-.07,2.16,2.16,0,0,1-1.19-.68,2.59,2.59,0,0,1-.66-1.24,4.61,4.61,0,0,1-.12-1c0-.13,0-.25,0-.38a3.33,3.33,0,0,1,.36-1.32,2.08,2.08,0,0,1,.78-.89,2.63,2.63,0,0,1,1-.39,3.64,3.64,0,0,1,.6,0l.59,0a2,2,0,0,1,1.29.8,4,4,0,0,1,.59,2.45Zm2.71-.91a1.62,1.62,0,0,0-.38-1,1.22,1.22,0,0,0-.94-.42,1.31,1.31,0,0,0-1,.4,1.41,1.41,0,0,0-.4,1Z" style="fill:#423c25"/><path d="M30.05,47.09h1.37l3.51,5.65h0V46.93h1.28l-.11,7.83H34.8L31.31,49h0v5.23H30Z" style="fill:#423c25"/><path d="M38.47,47.69a.66.66,0,0,1,0,1,.72.72,0,0,1-.5.2.7.7,0,0,1-.49-.2.66.66,0,0,1,0-1,.7.7,0,0,1,.49-.2A.72.72,0,0,1,38.47,47.69Zm-1.1,1.81,1.17,0-.1,5.84h-1Z" style="fill:#423c25"/><path d="M40.87,49l.05,1.33a1.77,1.77,0,0,1,.95-.92,2.21,2.21,0,0,1,.75-.14,1.93,1.93,0,0,1,.42,0,1.61,1.61,0,0,1,1,.61,2.77,2.77,0,0,1,.51,1.13,14.42,14.42,0,0,1,.07,1.79c0,.72,0,1.64,0,2.76l-1.11,0c0-.95,0-1.75,0-2.37a15.34,15.34,0,0,0-.05-1.81,1.11,1.11,0,0,0-.37-.7,1,1,0,0,0-.7-.24h0a.92.92,0,0,0-.65.22,2.18,2.18,0,0,0-.45.57A3.8,3.8,0,0,0,41,52.67l-.06,2.53-1.11,0-.09-6.1Z" style="fill:#423c25"/><path d="M45.27,56.08h0a.47.47,0,0,1,.22.07,1.08,1.08,0,0,0,.78-.49,3.82,3.82,0,0,0,.2-1.52l0-4.51,1.06.08c0,.81,0,1.55,0,2.2a27.29,27.29,0,0,1-.13,3.76,1.86,1.86,0,0,1-.57,1,1.9,1.9,0,0,1-.92.42,1.56,1.56,0,0,1-.31,0,2.56,2.56,0,0,1-.47,0Zm2.21-8.39a.61.61,0,0,1,.2.47.62.62,0,0,1-.2.48.7.7,0,0,1-1,0,.62.62,0,0,1-.2-.48.61.61,0,0,1,.2-.47.7.7,0,0,1,1,0Z" style="fill:#423c25"/><path d="M49.43,50.19a2.24,2.24,0,0,1,1.15-.61,3,3,0,0,1,.68-.07,3.79,3.79,0,0,1,.86.1,1.41,1.41,0,0,1,1.08,1.12,8.08,8.08,0,0,1,.15,1.79c0,.4,0,.85,0,1.35v0c0,.29.12.43.34.43a1.05,1.05,0,0,0,.41-.1l.09,1a3,3,0,0,1-.74.1,1,1,0,0,1-1-.56,2.77,2.77,0,0,1-.94.59,3.19,3.19,0,0,1-.89.13h0a2.13,2.13,0,0,1-.84-.16,1.62,1.62,0,0,1-.65-.49,1.46,1.46,0,0,1-.28-.76,1,1,0,0,1,0-.17,2.24,2.24,0,0,1,.15-.78,1.69,1.69,0,0,1,.91-.87,8.17,8.17,0,0,1,2.5-.52,1.45,1.45,0,0,0-.19-.92,1.18,1.18,0,0,0-.74-.24h-.19a1.45,1.45,0,0,0-.7.15,1,1,0,0,0-.4.81L49,51.39A1.82,1.82,0,0,1,49.43,50.19Zm2.87,2.48a4.86,4.86,0,0,0-1.9.4.87.87,0,0,0-.46.72v.05a.67.67,0,0,0,.26.58,1.08,1.08,0,0,0,.59.16l.17,0a1.58,1.58,0,0,0,.75-.21,5.61,5.61,0,0,0,.59-.4Z" style="fill:#423c25"/><path d="M59.86,49l0,1a1.74,1.74,0,0,1,.73-.69A2.39,2.39,0,0,1,61.72,49a2.13,2.13,0,0,1,1.19.39,2,2,0,0,1,.83,1.08A4.62,4.62,0,0,1,64,51.88V52a5.12,5.12,0,0,1-.24,1.48,2.25,2.25,0,0,1-.83,1.26,1.9,1.9,0,0,1-1.12.31,2.89,2.89,0,0,1-.5,0,1.7,1.7,0,0,1-1.42-1.06l0,2.88H58.75V49Zm2.93,3a2.49,2.49,0,0,0-.36-1.34,1.19,1.19,0,0,0-1-.62,1.29,1.29,0,0,0-1.1.56A2.2,2.2,0,0,0,60,51.85v.07c0,1.31.48,2,1.37,2a1.25,1.25,0,0,0,1.1-.61A2.32,2.32,0,0,0,62.79,52Z" style="fill:#423c25"/><path d="M66.3,52.58a2.11,2.11,0,0,0,.41,1.34,1.3,1.3,0,0,0,.91.39h.13a1.47,1.47,0,0,0,.8-.22,1.75,1.75,0,0,0,.57-1l1.17.23a3.45,3.45,0,0,1-.65,1.25,1.85,1.85,0,0,1-1.19.65,4.56,4.56,0,0,1-.72.06,3.35,3.35,0,0,1-.71-.07,2.16,2.16,0,0,1-1.19-.68,2.61,2.61,0,0,1-.67-1.24,5.25,5.25,0,0,1-.11-1c0-.13,0-.25,0-.38a3.7,3.7,0,0,1,.36-1.32,2.22,2.22,0,0,1,.78-.89,2.75,2.75,0,0,1,1-.39,3.64,3.64,0,0,1,.6,0l.59,0a2,2,0,0,1,1.29.8,4.06,4.06,0,0,1,.59,2.45ZM69,51.67a1.57,1.57,0,0,0-.39-1,1.19,1.19,0,0,0-.94-.42,1.3,1.3,0,0,0-1,.4,1.41,1.41,0,0,0-.4,1Z" style="fill:#423c25"/><path d="M75.07,55.61,75,54.28a1.72,1.72,0,0,1-.94.92,2.08,2.08,0,0,1-.76.14,2,2,0,0,1-.42,0,1.62,1.62,0,0,1-1-.62,2.65,2.65,0,0,1-.5-1.12,16.24,16.24,0,0,1-.08-2.11c0-.67,0-1.48,0-2.44l1.1,0c0,.75,0,1.4,0,2a21.31,21.31,0,0,0,.06,2.23,1.13,1.13,0,0,0,.37.69,1.11,1.11,0,0,0,.71.25h0a1,1,0,0,0,.66-.22,2.68,2.68,0,0,0,.44-.58,3.46,3.46,0,0,0,.21-1.43L75,49.46l1.14-.08.09,6.11Z" style="fill:#423c25"/><path d="M77.27,48.94h.92V47.28l1.18-.16v1.77l1.53-.06v1l-1.53.05v3.5a1.06,1.06,0,0,0,.1.57.4.4,0,0,0,.34.14,4.42,4.42,0,0,0,.93-.2l.16,1a6.51,6.51,0,0,1-1.4.22,1.86,1.86,0,0,1-1-.36,1.69,1.69,0,0,1-.3-1.06V49.91h-.92Z" style="fill:#423c25"/><path d="M86.61,49l0,1a1.74,1.74,0,0,1,.73-.69A2.39,2.39,0,0,1,88.47,49a2.13,2.13,0,0,1,1.19.39,2,2,0,0,1,.83,1.08,4.62,4.62,0,0,1,.26,1.42V52a5.12,5.12,0,0,1-.24,1.48,2.25,2.25,0,0,1-.83,1.26,1.88,1.88,0,0,1-1.12.31,2.89,2.89,0,0,1-.5,0,1.7,1.7,0,0,1-1.42-1.06l0,2.88H85.5V49Zm2.93,3a2.49,2.49,0,0,0-.36-1.34,1.18,1.18,0,0,0-1-.62,1.29,1.29,0,0,0-1.1.56,2.2,2.2,0,0,0-.37,1.33v.07c0,1.31.48,2,1.37,2a1.25,1.25,0,0,0,1.1-.61A2.32,2.32,0,0,0,89.54,52Z" style="fill:#423c25"/><path d="M95.32,50.59a1.63,1.63,0,0,0-.8-.24H94.4a1.27,1.27,0,0,0-.67.25,1.92,1.92,0,0,0-.45.52,3.35,3.35,0,0,0-.22,1.39L93,55l-1.11,0L91.8,49l1.14-.13L93,50.18a1.81,1.81,0,0,1,1-.94,1.44,1.44,0,0,1,.53-.09,3.28,3.28,0,0,1,1.13.24Z" style="fill:#423c25"/><path d="M97.93,52.58a2.11,2.11,0,0,0,.41,1.34,1.32,1.32,0,0,0,.91.39h.13a1.47,1.47,0,0,0,.8-.22,1.69,1.69,0,0,0,.57-1l1.17.23a3.61,3.61,0,0,1-.65,1.25,1.88,1.88,0,0,1-1.19.65,4.56,4.56,0,0,1-.72.06,3.35,3.35,0,0,1-.71-.07,2.16,2.16,0,0,1-1.19-.68,2.61,2.61,0,0,1-.67-1.24,5.25,5.25,0,0,1-.11-1c0-.13,0-.25,0-.38a3.7,3.7,0,0,1,.36-1.32,2.22,2.22,0,0,1,.78-.89,2.75,2.75,0,0,1,1-.39,3.64,3.64,0,0,1,.6,0l.59,0a2,2,0,0,1,1.29.8,4.06,4.06,0,0,1,.59,2.45Zm2.71-.91a1.57,1.57,0,0,0-.39-1,1.19,1.19,0,0,0-.94-.42,1.3,1.3,0,0,0-1,.4,1.41,1.41,0,0,0-.4,1Z" style="fill:#423c25"/><path d="M104.11,49l.06,1.33a1.74,1.74,0,0,1,1-.92,2.21,2.21,0,0,1,.75-.14,2,2,0,0,1,.42,0,1.61,1.61,0,0,1,1,.61,2.63,2.63,0,0,1,.5,1.13,12,12,0,0,1,.08,1.79c0,.72,0,1.64,0,2.76l-1.11,0c0-.95,0-1.75,0-2.37a15.34,15.34,0,0,0,0-1.81,1.11,1.11,0,0,0-.37-.7,1.05,1.05,0,0,0-.71-.24h0a.92.92,0,0,0-.65.22,2.18,2.18,0,0,0-.45.57,3.8,3.8,0,0,0-.22,1.42l-.06,2.53-1.11,0-.09-6.1Z" style="fill:#423c25"/><path d="M113,55.26l0-.95a1.76,1.76,0,0,1-.74.69,2.35,2.35,0,0,1-1.08.24,2.19,2.19,0,0,1-1.2-.39,2.07,2.07,0,0,1-.83-1.09,4.55,4.55,0,0,1-.25-1.41v-.07a5.52,5.52,0,0,1,.23-1.49,2.33,2.33,0,0,1,.84-1.25,1.86,1.86,0,0,1,1.12-.32,4.57,4.57,0,0,1,.5,0A1.69,1.69,0,0,1,113,50.33l0-2.89h1.19v7.82Zm-2.93-2.95a2.49,2.49,0,0,0,.36,1.34,1.17,1.17,0,0,0,1,.61,1.28,1.28,0,0,0,1.1-.56,2.24,2.24,0,0,0,.37-1.32v-.07c0-1.32-.48-2-1.38-2a1.25,1.25,0,0,0-1.1.61,2.35,2.35,0,0,0-.35,1.31Z" style="fill:#423c25"/><path d="M118.7,50.59a1.59,1.59,0,0,0-.79-.24h-.12a1.31,1.31,0,0,0-.68.25,1.92,1.92,0,0,0-.45.52,3.53,3.53,0,0,0-.22,1.39L116.38,55l-1.1,0-.1-6.09,1.15-.13,0,1.33a1.81,1.81,0,0,1,1-.94,1.53,1.53,0,0,1,.54-.09,3.28,3.28,0,0,1,1.12.24Z" style="fill:#423c25"/><path d="M121.31,52.58a2.11,2.11,0,0,0,.41,1.34,1.32,1.32,0,0,0,.91.39h.13a1.45,1.45,0,0,0,.8-.22,1.64,1.64,0,0,0,.57-1l1.17.23a3.45,3.45,0,0,1-.65,1.25,1.85,1.85,0,0,1-1.19.65,4.56,4.56,0,0,1-.72.06,3.35,3.35,0,0,1-.71-.07,2.16,2.16,0,0,1-1.19-.68,2.7,2.7,0,0,1-.67-1.24,5.25,5.25,0,0,1-.11-1,2.42,2.42,0,0,1,0-.38,3.49,3.49,0,0,1,.35-1.32,2.22,2.22,0,0,1,.78-.89,2.75,2.75,0,0,1,1-.39,3.64,3.64,0,0,1,.6,0l.59,0a2,2,0,0,1,1.29.8,4.06,4.06,0,0,1,.59,2.45Zm2.71-.91a1.62,1.62,0,0,0-.38-1,1.22,1.22,0,0,0-.94-.42,1.31,1.31,0,0,0-1,.4,1.41,1.41,0,0,0-.4,1Z" style="fill:#423c25"/><path d="M129.9,47.35l1.17,0v7.84l-1.12,0Z" style="fill:#423c25"/><path d="M132.82,50.19a2.25,2.25,0,0,1,1.14-.61,3.11,3.11,0,0,1,.69-.07,3.79,3.79,0,0,1,.86.1,1.39,1.39,0,0,1,1.07,1.12,7.41,7.41,0,0,1,.16,1.79c0,.4,0,.85,0,1.35v0c0,.29.11.43.34.43a1.05,1.05,0,0,0,.41-.1l.09,1a3,3,0,0,1-.74.1,1,1,0,0,1-1-.56,2.71,2.71,0,0,1-1,.59,3.12,3.12,0,0,1-.88.13h0a2.13,2.13,0,0,1-.84-.16,1.62,1.62,0,0,1-.65-.49,1.37,1.37,0,0,1-.28-.76,1,1,0,0,1,0-.17,2.24,2.24,0,0,1,.15-.78,1.69,1.69,0,0,1,.91-.87,8.17,8.17,0,0,1,2.5-.52,1.52,1.52,0,0,0-.19-.92,1.21,1.21,0,0,0-.74-.24h-.19a1.43,1.43,0,0,0-.7.15,1,1,0,0,0-.4.81l-1.12-.14A1.82,1.82,0,0,1,132.82,50.19Zm2.87,2.48a4.81,4.81,0,0,0-1.9.4.87.87,0,0,0-.46.72.43.43,0,0,1,0,.05.65.65,0,0,0,.27.58,1.07,1.07,0,0,0,.58.16l.17,0a1.58,1.58,0,0,0,.75-.21,5.68,5.68,0,0,0,.6-.4Z" style="fill:#423c25"/><path d="M17,63.11a1.63,1.63,0,0,0-.59-.12,1.53,1.53,0,0,0-.3,0,1.44,1.44,0,0,0-.72.47,1.86,1.86,0,0,0-.38,1,4.73,4.73,0,0,0,0,.52,3,3,0,0,0,.07.61,1.67,1.67,0,0,0,.43.87,1.19,1.19,0,0,0,.83.39h.12a1.54,1.54,0,0,0,.79-.22,1.24,1.24,0,0,0,.49-1l1.11.23a2.29,2.29,0,0,1-.57,1.25,1.93,1.93,0,0,1-1.17.65,4.08,4.08,0,0,1-.68.06,3,3,0,0,1-.68-.07,2.18,2.18,0,0,1-1.07-.54A2.5,2.5,0,0,1,14,66.12,4.71,4.71,0,0,1,13.82,65c0-.1,0-.2,0-.3a3.68,3.68,0,0,1,.35-1.35,2.23,2.23,0,0,1,.73-.9,2.68,2.68,0,0,1,.92-.38A2.52,2.52,0,0,1,16.4,62l.52,0a2,2,0,0,1,1.81,1.88l-1.1.17A1.25,1.25,0,0,0,17,63.11Z" style="fill:#423c25"/><path d="M20.53,63.1a2.21,2.21,0,0,1,1.14-.61,3.08,3.08,0,0,1,.68-.07,4.43,4.43,0,0,1,.87.09,1.42,1.42,0,0,1,1.07,1.13,7.41,7.41,0,0,1,.16,1.79c0,.4,0,.85,0,1.35v0c0,.28.11.43.34.43a1.22,1.22,0,0,0,.4-.1l.09,1a2.94,2.94,0,0,1-.73.11,1.08,1.08,0,0,1-1-.56,2.6,2.6,0,0,1-.94.59,3.52,3.52,0,0,1-.88.13h0a2,2,0,0,1-.83-.17,1.52,1.52,0,0,1-.65-.48,1.5,1.5,0,0,1-.29-.77v-.16A2.34,2.34,0,0,1,20,66a1.67,1.67,0,0,1,.91-.86,7.87,7.87,0,0,1,2.49-.52,1.54,1.54,0,0,0-.18-.92,1.21,1.21,0,0,0-.74-.24h-.19a1.43,1.43,0,0,0-.7.15,1,1,0,0,0-.4.81L20,64.3A1.88,1.88,0,0,1,20.53,63.1Zm2.87,2.48a4.81,4.81,0,0,0-1.9.4.87.87,0,0,0-.46.72.09.09,0,0,0,0,0,.67.67,0,0,0,.27.58,1,1,0,0,0,.58.15h.17a1.71,1.71,0,0,0,.75-.21,5.86,5.86,0,0,0,.6-.41Z" style="fill:#423c25"/><path d="M29.81,63.5a1.59,1.59,0,0,0-.79-.24H28.9a1.26,1.26,0,0,0-.68.25,1.76,1.76,0,0,0-.44.52,3.47,3.47,0,0,0-.23,1.39L27.49,68l-1.1,0-.1-6.1,1.15-.12,0,1.33a1.81,1.81,0,0,1,1-.94,1.33,1.33,0,0,1,.54-.1,3,3,0,0,1,1.12.25Z" style="fill:#423c25"/><path d="M31.17,61.85h.93V60.18L33.27,60V61.8l1.53-.06v1l-1.53,0v3.5a1.06,1.06,0,0,0,.11.57.4.4,0,0,0,.34.14,4.69,4.69,0,0,0,.93-.2l.15,1a7.26,7.26,0,0,1-1.39.22,1.77,1.77,0,0,1-1-.37,1.64,1.64,0,0,1-.3-1.05V62.81h-.93Z" style="fill:#423c25"/><path d="M37.1,65.49a2.13,2.13,0,0,0,.42,1.34,1.29,1.29,0,0,0,.9.39h.14a1.44,1.44,0,0,0,.79-.22,1.64,1.64,0,0,0,.57-1l1.17.23a3.38,3.38,0,0,1-.65,1.25,1.87,1.87,0,0,1-1.18.65,4.56,4.56,0,0,1-.72.06,3.38,3.38,0,0,1-.72-.07,2.22,2.22,0,0,1-1.19-.68A2.62,2.62,0,0,1,36,66.24a4.55,4.55,0,0,1-.12-1c0-.12,0-.24,0-.37a3.28,3.28,0,0,1,.36-1.32,2.17,2.17,0,0,1,.78-.9,2.84,2.84,0,0,1,1-.38,2.65,2.65,0,0,1,.59,0l.6,0a1.93,1.93,0,0,1,1.28.8A3.91,3.91,0,0,1,41,65.46Zm2.71-.92a1.48,1.48,0,0,0-.38-.95,1.2,1.2,0,0,0-.94-.42,1.29,1.29,0,0,0-1,.4,1.41,1.41,0,0,0-.41,1Z" style="fill:#423c25"/><path d="M49.92,65.59l0-1.17,1.67-1.32,0,1.1-1,.79,1,.85v1.08Zm2,0,0-1.19,1.68-1.32,0,1.14-1,.79,1,.83,0,1.1Z" style="fill:#423c25"/><path d="M68.45,61.26a4.75,4.75,0,0,1,0,5.67,3.37,3.37,0,0,1-5.14,0,4.75,4.75,0,0,1,0-5.67,3.37,3.37,0,0,1,5.14,0Zm-4.3,1a3.82,3.82,0,0,0,0,3.88,1.94,1.94,0,0,0,1.71.88,2,2,0,0,0,1.73-.88,3.82,3.82,0,0,0,0-3.88,2,2,0,0,0-1.73-.88A1.94,1.94,0,0,0,64.15,62.25Z" style="fill:#423c25"/><path d="M70.45,68.32V60.51h1.19l0,2.88A1.68,1.68,0,0,1,73,62.33a3,3,0,0,1,.5,0,1.86,1.86,0,0,1,1.12.31,2.25,2.25,0,0,1,.83,1.26,5.12,5.12,0,0,1,.24,1.48v.07a4.61,4.61,0,0,1-.25,1.42,2.09,2.09,0,0,1-.83,1.08,2.19,2.19,0,0,1-1.2.39,2.32,2.32,0,0,1-1.08-.24,1.71,1.71,0,0,1-.74-.69l0,.95Zm4-2.95v-.05A2.39,2.39,0,0,0,74.13,64,1.28,1.28,0,0,0,73,63.4c-.9,0-1.36.66-1.38,2v.07A2.2,2.2,0,0,0,72,66.77a1.3,1.3,0,0,0,1.1.56,1.18,1.18,0,0,0,1-.62A2.49,2.49,0,0,0,74.48,65.37Z" style="fill:#423c25"/><path d="M76.36,69h0a.38.38,0,0,1,.22.07,1.08,1.08,0,0,0,.78-.49A3.82,3.82,0,0,0,77.6,67l0-4.51,1.06.07c0,.82,0,1.55,0,2.2a27.37,27.37,0,0,1-.13,3.77A1.74,1.74,0,0,1,77,70l-.31,0a1.93,1.93,0,0,1-.47,0Zm2.21-8.39a.6.6,0,0,1,.2.47.62.62,0,0,1-.2.48.7.7,0,0,1-1,0,.66.66,0,0,1-.2-.48.63.63,0,0,1,.2-.47.7.7,0,0,1,1,0Z" style="fill:#423c25"/><path d="M81.07,65.49a2.13,2.13,0,0,0,.42,1.34,1.29,1.29,0,0,0,.9.39h.14a1.44,1.44,0,0,0,.79-.22,1.64,1.64,0,0,0,.57-1l1.18.23a3.55,3.55,0,0,1-.66,1.25,1.87,1.87,0,0,1-1.18.65,4.56,4.56,0,0,1-.72.06,3.38,3.38,0,0,1-.72-.07,2.26,2.26,0,0,1-1.19-.68,2.62,2.62,0,0,1-.66-1.25,4.55,4.55,0,0,1-.12-1c0-.12,0-.24,0-.37a3.64,3.64,0,0,1,.36-1.32,2.17,2.17,0,0,1,.78-.9,2.84,2.84,0,0,1,1-.38,2.65,2.65,0,0,1,.59,0l.6,0a1.91,1.91,0,0,1,1.28.8A3.91,3.91,0,0,1,85,65.46Zm2.71-.92a1.48,1.48,0,0,0-.38-.95,1.2,1.2,0,0,0-.94-.42,1.29,1.29,0,0,0-1,.4,1.41,1.41,0,0,0-.41,1Z" style="fill:#423c25"/><path d="M89.26,63.11a1.58,1.58,0,0,0-.58-.12,1.39,1.39,0,0,0-.3,0,1.36,1.36,0,0,0-.72.47,1.86,1.86,0,0,0-.38,1,3.12,3.12,0,0,0,0,.52,3,3,0,0,0,.06.61,1.75,1.75,0,0,0,.43.87,1.19,1.19,0,0,0,.84.39h.12a1.48,1.48,0,0,0,.78-.22,1.25,1.25,0,0,0,.5-1l1.1.23a2.36,2.36,0,0,1-.56,1.25,2,2,0,0,1-1.18.65,4,4,0,0,1-.68.06A2.93,2.93,0,0,1,88,67.8a2.14,2.14,0,0,1-1.07-.54,2.33,2.33,0,0,1-.63-1.14A4.29,4.29,0,0,1,86.12,65c0-.1,0-.2,0-.3a3.68,3.68,0,0,1,.34-1.35,2.25,2.25,0,0,1,.74-.9,2.64,2.64,0,0,1,.91-.38A2.56,2.56,0,0,1,88.7,62l.51,0a2.08,2.08,0,0,1,1.17.53A2,2,0,0,1,91,63.88l-1.09.17A1.24,1.24,0,0,0,89.26,63.11Z" style="fill:#423c25"/><path d="M92.12,61.85h.93V60.18L94.23,60V61.8l1.52-.06v1l-1.52,0v3.5a1.09,1.09,0,0,0,.1.57.4.4,0,0,0,.34.14,4.69,4.69,0,0,0,.93-.2l.15,1a7.14,7.14,0,0,1-1.39.22,1.77,1.77,0,0,1-1-.37,1.64,1.64,0,0,1-.3-1.05V62.81h-.93Z" style="fill:#423c25"/><path d="M98,60.6a.61.61,0,0,1,.21.47.63.63,0,0,1-.21.48.7.7,0,0,1-.49.2.68.68,0,0,1-.49-.2.63.63,0,0,1-.21-.48A.61.61,0,0,1,97,60.6a.64.64,0,0,1,.49-.2A.66.66,0,0,1,98,60.6ZM96.9,62.41l1.17,0L98,68.2H97Z" style="fill:#423c25"/><path d="M100.22,68.32l0-5.29-1-.05,0-.86h.94a2.58,2.58,0,0,1,.38-1.61,1.5,1.5,0,0,1,.87-.53,1.83,1.83,0,0,1,.35,0,3.6,3.6,0,0,1,.85.12l-.14,1a1.78,1.78,0,0,0-.47-.08.71.71,0,0,0-.45.13c-.21.14-.31.44-.31.89a.57.57,0,0,0,0,.13h1.12l0,1h-1.13v5.26Z" style="fill:#423c25"/><path d="M113.14,64.43v1.21l-1.66,1.28V65.83l1-.83-1-.79V63.06Zm2,0v1.19l-1.69,1.31,0-1.07,1-.86-1-.8,0-1.13Z" style="fill:#423c25"/><path d="M116.53,68.91l-.34-.23a2.41,2.41,0,0,0,.64-.86.51.51,0,0,1-.52-.26.82.82,0,0,1-.1-.4.34.34,0,0,1,0-.1.65.65,0,0,1,.18-.39.74.74,0,0,1,.37-.17h.1a.77.77,0,0,1,.66.41.81.81,0,0,1,.06.33,1.62,1.62,0,0,1,0,.21,1.73,1.73,0,0,1-.22.6A6.89,6.89,0,0,1,116.53,68.91Z" style="fill:#423c25"/><path d="M127.64,65.49a2.14,2.14,0,0,0,.41,1.34,1.32,1.32,0,0,0,.91.39h.13a1.45,1.45,0,0,0,.8-.22,1.69,1.69,0,0,0,.57-1l1.17.23a3.54,3.54,0,0,1-.65,1.25,1.9,1.9,0,0,1-1.19.65,4.56,4.56,0,0,1-.72.06,3.35,3.35,0,0,1-.71-.07,2.22,2.22,0,0,1-1.19-.68,2.73,2.73,0,0,1-.67-1.25,5.17,5.17,0,0,1-.11-1c0-.12,0-.24,0-.37a3.64,3.64,0,0,1,.36-1.32,2.32,2.32,0,0,1,.78-.9,2.92,2.92,0,0,1,1-.38,2.8,2.8,0,0,1,.6,0l.59,0A2,2,0,0,1,131,63a4,4,0,0,1,.59,2.45Zm2.71-.92a1.54,1.54,0,0,0-.39-.95,1.18,1.18,0,0,0-.93-.42,1.31,1.31,0,0,0-1,.4,1.4,1.4,0,0,0-.4,1Z" style="fill:#423c25"/><path d="M133.83,61.92l0,1.33a1.73,1.73,0,0,1,1-.92,2.21,2.21,0,0,1,.75-.14,1.93,1.93,0,0,1,.42.05,1.61,1.61,0,0,1,1,.61,2.63,2.63,0,0,1,.5,1.13,12,12,0,0,1,.08,1.79c0,.72,0,1.64,0,2.75l-1.11,0c0-.95,0-1.75,0-2.38a14.22,14.22,0,0,0-.06-1.8,1.08,1.08,0,0,0-.37-.7,1,1,0,0,0-.7-.24h0a.92.92,0,0,0-.65.22,2.18,2.18,0,0,0-.45.57,3.76,3.76,0,0,0-.22,1.42l-.06,2.52-1.1,0-.1-6.09Z" style="fill:#423c25"/><path d="M15.07,78.4a2.14,2.14,0,0,0,.41,1.34,1.43,1.43,0,0,0,.91.39h.14a1.36,1.36,0,0,0,.79-.22,1.58,1.58,0,0,0,.57-1l1.17.22a3.43,3.43,0,0,1-.65,1.26,1.84,1.84,0,0,1-1.19.64,3.51,3.51,0,0,1-.72.07,4.17,4.17,0,0,1-.71-.07,2.22,2.22,0,0,1-1.19-.68,2.62,2.62,0,0,1-.66-1.25,4.55,4.55,0,0,1-.12-1c0-.12,0-.25,0-.37a3.24,3.24,0,0,1,.36-1.32,2.17,2.17,0,0,1,.78-.9,3,3,0,0,1,1-.39,3.7,3.7,0,0,1,.6,0l.59,0a2,2,0,0,1,1.29.79A4,4,0,0,1,19,78.37Zm2.71-.92a1.59,1.59,0,0,0-.38-1,1.2,1.2,0,0,0-.94-.42,1.3,1.3,0,0,0-1,.39,1.39,1.39,0,0,0-.41,1Zm.27-4.93L16.53,74.3l-.9-.21,1.14-1.91Z" style="fill:#423c25"/><path d="M23.26,76a1.58,1.58,0,0,0-.58-.12,1.39,1.39,0,0,0-.3,0,1.36,1.36,0,0,0-.72.47,1.83,1.83,0,0,0-.39,1,4.67,4.67,0,0,0,0,.52,3.08,3.08,0,0,0,.06.61,1.79,1.79,0,0,0,.43.87,1.19,1.19,0,0,0,.84.39h.12a1.53,1.53,0,0,0,.78-.22,1.24,1.24,0,0,0,.49-1l1.11.23a2.33,2.33,0,0,1-.57,1.25,2,2,0,0,1-1.17.65,4,4,0,0,1-.68.06,3,3,0,0,1-.68-.07,2.18,2.18,0,0,1-1.07-.54A2.4,2.4,0,0,1,20.28,79a4.3,4.3,0,0,1-.17-1.17c0-.1,0-.2,0-.3a3.63,3.63,0,0,1,.35-1.35,2.17,2.17,0,0,1,.74-.9,2.79,2.79,0,0,1,.91-.39,3.32,3.32,0,0,1,.57,0l.52,0a2.16,2.16,0,0,1,1.16.53A2.06,2.06,0,0,1,25,76.78L23.93,77A1.26,1.26,0,0,0,23.26,76Z" style="fill:#423c25"/><path d="M29.64,76.41a1.61,1.61,0,0,0-.79-.25h-.12a1.23,1.23,0,0,0-.68.25,1.78,1.78,0,0,0-.45.52,3.49,3.49,0,0,0-.22,1.39l-.06,2.52-1.1,0-.1-6.09,1.15-.12L27.32,76a1.83,1.83,0,0,1,1-1,1.53,1.53,0,0,1,.54-.09,3.09,3.09,0,0,1,1.12.25Z" style="fill:#423c25"/><path d="M32.19,73.5a.68.68,0,0,1,0,1,.71.71,0,0,1-1,0,.68.68,0,0,1,0-1,.69.69,0,0,1,.49-.19A.69.69,0,0,1,32.19,73.5Zm-1.1,1.82,1.18,0-.11,5.84h-1Z" style="fill:#423c25"/><path d="M37,76.41a1.61,1.61,0,0,0-.79-.25h-.12a1.23,1.23,0,0,0-.68.25,1.62,1.62,0,0,0-.44.52,3.26,3.26,0,0,0-.23,1.39l-.06,2.52-1.1,0-.1-6.09,1.15-.12,0,1.33a1.87,1.87,0,0,1,1-1,1.53,1.53,0,0,1,.54-.09,3.09,3.09,0,0,1,1.12.25Z" style="fill:#423c25"/><path d="M39.57,78.4A2.14,2.14,0,0,0,40,79.74a1.43,1.43,0,0,0,.91.39H41a1.36,1.36,0,0,0,.79-.22,1.58,1.58,0,0,0,.57-1l1.17.22a3.43,3.43,0,0,1-.65,1.26,1.82,1.82,0,0,1-1.18.64,3.65,3.65,0,0,1-.72.07,4.18,4.18,0,0,1-.72-.07,2.22,2.22,0,0,1-1.19-.68,2.62,2.62,0,0,1-.66-1.25,4.55,4.55,0,0,1-.12-1c0-.12,0-.25,0-.37a3.24,3.24,0,0,1,.36-1.32,2.17,2.17,0,0,1,.78-.9,3,3,0,0,1,1-.39,3.7,3.7,0,0,1,.6,0l.6,0a2,2,0,0,1,1.28.79,4,4,0,0,1,.59,2.46Zm2.71-.92a1.53,1.53,0,0,0-.38-1,1.2,1.2,0,0,0-.94-.42,1.32,1.32,0,0,0-1,.39,1.44,1.44,0,0,0-.41,1Z" style="fill:#423c25"/><path d="M57.14,81.43l-.07-1.33a1.75,1.75,0,0,1-.94.92,2.31,2.31,0,0,1-.76.14,2.1,2.1,0,0,1-.43,0A1.61,1.61,0,0,1,54,80.5a2.77,2.77,0,0,1-.51-1.13,17,17,0,0,1-.07-2.11c0-.66,0-1.48,0-2.44l1.11,0c0,.75,0,1.41,0,2A20.91,20.91,0,0,0,54.59,79a1.11,1.11,0,0,0,.37.7,1,1,0,0,0,.7.24h0a.92.92,0,0,0,.65-.22,2.18,2.18,0,0,0,.45-.57A3.89,3.89,0,0,0,57,77.76l.06-2.49,1.14-.07.09,6.11Z" style="fill:#423c25"/><path d="M60.48,74.82l.05,1.33a1.75,1.75,0,0,1,.95-.91,2.07,2.07,0,0,1,.75-.14,2,2,0,0,1,.43,0,1.65,1.65,0,0,1,1,.62,2.59,2.59,0,0,1,.5,1.12,12.66,12.66,0,0,1,.07,1.8c0,.72,0,1.63,0,2.75l-1.1,0c0-1,0-1.75,0-2.38,0-1,0-1.62,0-1.81a1.06,1.06,0,0,0-1.08-.94h0a1,1,0,0,0-.66.22,2.45,2.45,0,0,0-.44.58,3.54,3.54,0,0,0-.22,1.41L60.53,81l-1.1,0L59.34,75Z" style="fill:#423c25"/><path d="M75.18,74.82l0,1.33a1.75,1.75,0,0,1,1-.91,2.08,2.08,0,0,1,.76-.14,2,2,0,0,1,.42,0,1.65,1.65,0,0,1,1,.62,2.59,2.59,0,0,1,.5,1.12,12.66,12.66,0,0,1,.07,1.8c0,.72,0,1.63,0,2.75l-1.1,0c0-1,0-1.75,0-2.38,0-1,0-1.62,0-1.81a1.13,1.13,0,0,0-.37-.69,1.11,1.11,0,0,0-.71-.25h0a1,1,0,0,0-.66.22,2.45,2.45,0,0,0-.44.58,3.54,3.54,0,0,0-.22,1.41L75.23,81l-1.1,0L74,75Z" style="fill:#423c25"/><path d="M80.65,80.44a3.79,3.79,0,0,1,0-4.39,2.72,2.72,0,0,1,4,0,3.79,3.79,0,0,1,0,4.39,2.72,2.72,0,0,1-4,0Zm3.18-.75a2.79,2.79,0,0,0,0-2.81,1.43,1.43,0,0,0-2.4,0,2.79,2.79,0,0,0,0,2.81,1.43,1.43,0,0,0,2.4,0Z" style="fill:#423c25"/><path d="M90.12,81.43l-.06-1.33a1.79,1.79,0,0,1-.94.92,2.31,2.31,0,0,1-.76.14,2.1,2.1,0,0,1-.43,0,1.61,1.61,0,0,1-1-.61,2.77,2.77,0,0,1-.51-1.13,17,17,0,0,1-.07-2.11c0-.66,0-1.48,0-2.44l1.11,0c0,.75,0,1.41,0,2A20.91,20.91,0,0,0,87.58,79a1.15,1.15,0,0,0,.36.7,1.07,1.07,0,0,0,.71.24h0a.92.92,0,0,0,.66-.22,2.18,2.18,0,0,0,.45-.57A3.89,3.89,0,0,0,90,77.76l.06-2.49,1.14-.07.08,6.11Z" style="fill:#423c25"/><path d="M92.32,75.28,93.55,75,95,79.76h0l1.41-4.48,1.22.26-2,5.36-1.32-.06Z" style="fill:#423c25"/><path d="M100,78.4a2.14,2.14,0,0,0,.41,1.34,1.43,1.43,0,0,0,.91.39h.14a1.36,1.36,0,0,0,.79-.22,1.58,1.58,0,0,0,.57-1l1.17.22a3.43,3.43,0,0,1-.65,1.26,1.84,1.84,0,0,1-1.19.64,3.51,3.51,0,0,1-.72.07,4.17,4.17,0,0,1-.71-.07,2.22,2.22,0,0,1-1.19-.68,2.62,2.62,0,0,1-.66-1.25,4.55,4.55,0,0,1-.12-1c0-.12,0-.25,0-.37a3.24,3.24,0,0,1,.36-1.32,2.17,2.17,0,0,1,.78-.9,3,3,0,0,1,1-.39,3.7,3.7,0,0,1,.6,0l.59,0a2,2,0,0,1,1.29.79,4,4,0,0,1,.59,2.46Zm2.71-.92a1.59,1.59,0,0,0-.38-1,1.2,1.2,0,0,0-.94-.42,1.3,1.3,0,0,0-1,.39,1.39,1.39,0,0,0-.41,1Z" style="fill:#423c25"/><path d="M105.7,76a2.17,2.17,0,0,1,1.15-.61,3,3,0,0,1,.68-.08,4.46,4.46,0,0,1,.86.1,1.43,1.43,0,0,1,1.08,1.13,8.08,8.08,0,0,1,.15,1.79c0,.4,0,.85,0,1.35v0c0,.28.11.42.34.42a1.22,1.22,0,0,0,.41-.09l.09,1a3.08,3.08,0,0,1-.74.11,1.06,1.06,0,0,1-1-.56,2.94,2.94,0,0,1-.94.59,3.24,3.24,0,0,1-.89.12h0a2.14,2.14,0,0,1-.84-.17,1.52,1.52,0,0,1-.65-.48,1.49,1.49,0,0,1-.28-.77.91.91,0,0,1,0-.17,2.24,2.24,0,0,1,.15-.78,1.67,1.67,0,0,1,.91-.86,7.88,7.88,0,0,1,2.5-.52,1.43,1.43,0,0,0-.19-.92,1.18,1.18,0,0,0-.74-.24h-.19a1.34,1.34,0,0,0-.7.16,1,1,0,0,0-.4.81l-1.12-.14A1.78,1.78,0,0,1,105.7,76Zm2.87,2.47a4.81,4.81,0,0,0-1.9.41.87.87,0,0,0-.46.71v.06a.63.63,0,0,0,.26.57,1,1,0,0,0,.59.16h.16a1.86,1.86,0,0,0,.76-.21,7.17,7.17,0,0,0,.59-.41Z" style="fill:#423c25"/><path d="M115.2,81.43l-.07-1.33a1.75,1.75,0,0,1-.94.92,2.31,2.31,0,0,1-.76.14,2,2,0,0,1-.42,0,1.61,1.61,0,0,1-1-.61,2.63,2.63,0,0,1-.5-1.13,16.13,16.13,0,0,1-.08-2.11c0-.66,0-1.48,0-2.44l1.1,0c0,.75,0,1.41,0,2a20.91,20.91,0,0,0,.06,2.22,1.16,1.16,0,0,0,.37.7,1.05,1.05,0,0,0,.71.24h0a.92.92,0,0,0,.65-.22,2.18,2.18,0,0,0,.45-.57,3.49,3.49,0,0,0,.21-1.43l.06-2.49,1.14-.07.09,6.11Z" style="fill:#423c25"/><path d="M126.89,76A2.17,2.17,0,0,1,128,75.4a3,3,0,0,1,.68-.08,4.46,4.46,0,0,1,.86.1,1.43,1.43,0,0,1,1.08,1.13,8.08,8.08,0,0,1,.15,1.79c0,.4,0,.85,0,1.35v0c0,.28.11.42.34.42a1.22,1.22,0,0,0,.41-.09l.09,1a3.08,3.08,0,0,1-.74.11,1.06,1.06,0,0,1-1-.56,2.87,2.87,0,0,1-1,.59,3.12,3.12,0,0,1-.88.12h0a2.14,2.14,0,0,1-.84-.17,1.52,1.52,0,0,1-.65-.48,1.49,1.49,0,0,1-.28-.77.91.91,0,0,1,0-.17,2.24,2.24,0,0,1,.15-.78,1.67,1.67,0,0,1,.91-.86,7.88,7.88,0,0,1,2.5-.52,1.5,1.5,0,0,0-.19-.92,1.18,1.18,0,0,0-.74-.24h-.19a1.34,1.34,0,0,0-.7.16,1,1,0,0,0-.4.81l-1.12-.14A1.78,1.78,0,0,1,126.89,76Zm2.87,2.47a4.81,4.81,0,0,0-1.9.41.87.87,0,0,0-.46.71s0,0,0,.06a.64.64,0,0,0,.27.57,1,1,0,0,0,.59.16h.16a1.86,1.86,0,0,0,.76-.21,7.17,7.17,0,0,0,.59-.41Z" style="fill:#423c25"/><path d="M136.39,81.43l-.07-1.33a1.75,1.75,0,0,1-.94.92,2.31,2.31,0,0,1-.76.14,2,2,0,0,1-.42,0,1.61,1.61,0,0,1-1-.61,2.63,2.63,0,0,1-.5-1.13,14.4,14.4,0,0,1-.08-2.11c0-.66,0-1.48,0-2.44l1.11,0c0,.75,0,1.41,0,2a20.91,20.91,0,0,0,.06,2.22,1.16,1.16,0,0,0,.37.7,1.05,1.05,0,0,0,.71.24h0a.92.92,0,0,0,.65-.22,2.18,2.18,0,0,0,.45-.57,3.49,3.49,0,0,0,.21-1.43l.06-2.49,1.14-.07.09,6.11Z" style="fill:#423c25"/><path d="M13.82,88.19l1.23-.26,1.46,4.74h0l1.41-4.48,1.22.26-2,5.35-1.33,0Z" style="fill:#423c25"/><path d="M21.46,91.31a2.16,2.16,0,0,0,.41,1.34,1.39,1.39,0,0,0,.91.39h.13a1.39,1.39,0,0,0,.8-.22,1.75,1.75,0,0,0,.57-1l1.17.23a3.76,3.76,0,0,1-.65,1.26,1.91,1.91,0,0,1-1.19.64,4.61,4.61,0,0,1-.72.07,4.17,4.17,0,0,1-.71-.07A2.18,2.18,0,0,1,21,93.3a2.61,2.61,0,0,1-.67-1.24,5.17,5.17,0,0,1-.11-1c0-.12,0-.25,0-.37a3.59,3.59,0,0,1,.36-1.32,2.32,2.32,0,0,1,.78-.9,2.75,2.75,0,0,1,1-.39,3.64,3.64,0,0,1,.6-.05,4.18,4.18,0,0,1,.59,0,1.93,1.93,0,0,1,1.29.79,4.1,4.1,0,0,1,.59,2.46Zm2.71-.92a1.6,1.6,0,0,0-.39-1,1.19,1.19,0,0,0-.94-.42,1.34,1.34,0,0,0-1,.4,1.43,1.43,0,0,0-.4,1Z" style="fill:#423c25"/><path d="M30,89.32a1.54,1.54,0,0,0-.79-.25H29.1a1.27,1.27,0,0,0-.67.24,2.09,2.09,0,0,0-.45.52,3.38,3.38,0,0,0-.22,1.39l-.06,2.53-1.11,0L26.5,87.7l1.14-.13.06,1.33a1.85,1.85,0,0,1,1-.94,1.47,1.47,0,0,1,.53-.09,3.28,3.28,0,0,1,1.13.24Z" style="fill:#423c25"/><path d="M31.38,91.93l1.12-.21c0,.56.27.89.65,1a3.07,3.07,0,0,0,.71.09,1.27,1.27,0,0,0,.28,0,1,1,0,0,0,.59-.24.84.84,0,0,0,.19-.36V92.1a.43.43,0,0,0-.09-.26,1,1,0,0,0-.29-.26,5.28,5.28,0,0,0-1-.35,9.87,9.87,0,0,1-1.21-.4,1.46,1.46,0,0,1-.59-.43,1.14,1.14,0,0,1-.24-.71v-.08a1.63,1.63,0,0,1,.16-.73,1.35,1.35,0,0,1,.66-.63,2.75,2.75,0,0,1,1-.31l.39,0a3.08,3.08,0,0,1,.53,0,2.28,2.28,0,0,1,.91.37,2.21,2.21,0,0,1,.71,1.37l-1,.13c-.14-.47-.32-.75-.54-.82a1.88,1.88,0,0,0-.57-.09h-.11a1.09,1.09,0,0,0-.57.2.57.57,0,0,0-.26.41v.06a.41.41,0,0,0,.16.34,2.69,2.69,0,0,0,1,.33,6.84,6.84,0,0,1,1.37.47,1.35,1.35,0,0,1,.72.63,2.06,2.06,0,0,1,.13.76h0a1.46,1.46,0,0,1-.23.79,1.74,1.74,0,0,1-.76.62,2.92,2.92,0,0,1-1.28.26h-.08a3.93,3.93,0,0,1-1.1-.13,1.9,1.9,0,0,1-.76-.45A2.46,2.46,0,0,1,31.38,91.93Z" style="fill:#423c25"/><path d="M37.82,93.35a3.3,3.3,0,0,1-.71-2.2A3.26,3.26,0,0,1,37.82,89a2.71,2.71,0,0,1,4,0,3.21,3.21,0,0,1,.71,2.19,3.25,3.25,0,0,1-.71,2.2,2.71,2.71,0,0,1-4,0ZM41,92.6a2.44,2.44,0,0,0,.38-1.41,2.4,2.4,0,0,0-.38-1.4,1.43,1.43,0,0,0-2.4,0,2.4,2.4,0,0,0-.38,1.4,2.44,2.44,0,0,0,.38,1.41,1.43,1.43,0,0,0,2.4,0Z" style="fill:#423c25"/><path d="M49.48,91.31a2.16,2.16,0,0,0,.41,1.34,1.38,1.38,0,0,0,.9.39h.14a1.34,1.34,0,0,0,.79-.22,1.7,1.7,0,0,0,.58-1l1.17.23a3.76,3.76,0,0,1-.65,1.26,1.91,1.91,0,0,1-1.19.64,4.61,4.61,0,0,1-.72.07A4.17,4.17,0,0,1,50.2,94,2.14,2.14,0,0,1,49,93.3a2.61,2.61,0,0,1-.67-1.24,4.54,4.54,0,0,1-.11-1c0-.12,0-.25,0-.37a3.59,3.59,0,0,1,.36-1.32,2.32,2.32,0,0,1,.78-.9,2.75,2.75,0,0,1,1-.39A3.64,3.64,0,0,1,51,88a4.18,4.18,0,0,1,.59,0,1.89,1.89,0,0,1,1.28.79,4,4,0,0,1,.6,2.46Zm2.71-.92a1.6,1.6,0,0,0-.39-1,1.2,1.2,0,0,0-.94-.42,1.34,1.34,0,0,0-1,.4,1.38,1.38,0,0,0-.4,1Z" style="fill:#423c25"/><path d="M54.52,87.66h.92V86l1.18-.16v1.77l1.53,0v1l-1.53.06v3.5a1,1,0,0,0,.1.56.38.38,0,0,0,.34.14,4,4,0,0,0,.93-.2l.16,1a6.6,6.6,0,0,1-1.4.22,1.86,1.86,0,0,1-1-.36,1.69,1.69,0,0,1-.3-1.06V88.63h-.92Z" style="fill:#423c25"/><path d="M63.86,86.07l1.17.05V94L63.91,94Z" style="fill:#423c25"/><path d="M66.78,88.91a2.32,2.32,0,0,1,1.15-.61,3,3,0,0,1,.68-.07,3.79,3.79,0,0,1,.86.1,1.43,1.43,0,0,1,1.08,1.12,8.18,8.18,0,0,1,.15,1.8c0,.39,0,.84,0,1.35v0c0,.28.11.42.34.42a1.05,1.05,0,0,0,.41-.1l.09,1a3,3,0,0,1-.74.1,1,1,0,0,1-1-.55,2.66,2.66,0,0,1-1,.58,2.8,2.8,0,0,1-.88.13h0A2.14,2.14,0,0,1,67,94a1.52,1.52,0,0,1-.65-.48,1.49,1.49,0,0,1-.28-.77.91.91,0,0,1,0-.17,2.24,2.24,0,0,1,.15-.78,1.67,1.67,0,0,1,.91-.86,7.88,7.88,0,0,1,2.5-.52,1.43,1.43,0,0,0-.19-.92,1.13,1.13,0,0,0-.74-.24h-.19a1.45,1.45,0,0,0-.7.15,1,1,0,0,0-.4.82l-1.12-.14A1.82,1.82,0,0,1,66.78,88.91Zm2.87,2.48a4.81,4.81,0,0,0-1.9.41.85.85,0,0,0-.46.71v0a.64.64,0,0,0,.26.58,1,1,0,0,0,.59.16h.16a1.86,1.86,0,0,0,.76-.21,7.17,7.17,0,0,0,.59-.41Z" style="fill:#423c25"/><path d="M80.73,89.32a1.54,1.54,0,0,0-.79-.25h-.13a1.3,1.3,0,0,0-.67.24,2.09,2.09,0,0,0-.45.52,3.57,3.57,0,0,0-.22,1.39l-.06,2.53-1.11,0-.09-6.09,1.14-.13.06,1.33a1.85,1.85,0,0,1,1-.94,1.49,1.49,0,0,1,.54-.09,3.28,3.28,0,0,1,1.12.24Z" style="fill:#423c25"/><path d="M83.34,91.31a2.16,2.16,0,0,0,.41,1.34,1.41,1.41,0,0,0,.91.39h.13a1.37,1.37,0,0,0,.8-.22,1.64,1.64,0,0,0,.57-1l1.17.23a3.58,3.58,0,0,1-.65,1.26,1.89,1.89,0,0,1-1.19.64,4.61,4.61,0,0,1-.72.07,4.17,4.17,0,0,1-.71-.07,2.18,2.18,0,0,1-1.19-.69,2.59,2.59,0,0,1-.66-1.24,4.55,4.55,0,0,1-.12-1,2.3,2.3,0,0,1,0-.37,3.4,3.4,0,0,1,.35-1.32,2.26,2.26,0,0,1,.79-.9,2.63,2.63,0,0,1,1-.39,3.64,3.64,0,0,1,.6-.05,4.18,4.18,0,0,1,.59,0,1.93,1.93,0,0,1,1.29.79,4,4,0,0,1,.59,2.46Zm2.71-.92a1.65,1.65,0,0,0-.38-1,1.22,1.22,0,0,0-.94-.42,1.35,1.35,0,0,0-1,.4,1.43,1.43,0,0,0-.4,1Zm.27-4.93-1.53,1.75L83.9,87,85,85.09Z" style="fill:#423c25"/><path d="M89.57,86.41a.68.68,0,0,1,0,1,.69.69,0,0,1-.49.19.69.69,0,0,1-.5-.19.68.68,0,0,1,0-1,.71.71,0,0,1,1,0Zm-1.09,1.82,1.17-.06L89.54,94h-1Z" style="fill:#423c25"/><path d="M92,87.73l0,1.33a1.71,1.71,0,0,1,1-.91,1.92,1.92,0,0,1,1.18-.1,1.63,1.63,0,0,1,.95.62,2.61,2.61,0,0,1,.51,1.12,12.66,12.66,0,0,1,.07,1.8c0,.71,0,1.63,0,2.75l-1.1,0c0-1,0-1.75,0-2.38,0-1,0-1.62,0-1.81a1.16,1.16,0,0,0-.37-.7,1.13,1.13,0,0,0-.71-.24h0a.94.94,0,0,0-.66.22,2.16,2.16,0,0,0-.44.57,3.79,3.79,0,0,0-.23,1.42L92,93.92l-1.1,0-.1-6.09Z" style="fill:#423c25"/><path d="M96.73,87.66h.93V86l1.17-.16v1.77l1.53,0v1l-1.53.06v3.5a1,1,0,0,0,.11.56.36.36,0,0,0,.33.14,3.84,3.84,0,0,0,.93-.2l.16,1a6.51,6.51,0,0,1-1.4.22,1.83,1.83,0,0,1-1-.36,1.58,1.58,0,0,1-.3-1.06V88.63h-.93Z" style="fill:#423c25"/><path d="M104.93,89.32a1.52,1.52,0,0,0-.79-.25H104a1.31,1.31,0,0,0-.68.24,1.87,1.87,0,0,0-.44.52,3.33,3.33,0,0,0-.23,1.39l-.06,2.53-1.1,0-.1-6.09,1.15-.13,0,1.33a1.85,1.85,0,0,1,1-.94,1.53,1.53,0,0,1,.54-.09,3.28,3.28,0,0,1,1.12.24Z" style="fill:#423c25"/><path d="M107,93.35a3.3,3.3,0,0,1-.71-2.2A3.26,3.26,0,0,1,107,89a2.71,2.71,0,0,1,4,0,3.26,3.26,0,0,1,.71,2.19,3.3,3.3,0,0,1-.71,2.2,2.71,2.71,0,0,1-4,0Zm3.18-.75a2.51,2.51,0,0,0,.38-1.41,2.48,2.48,0,0,0-.38-1.4,1.38,1.38,0,0,0-1.2-.65,1.35,1.35,0,0,0-1.2.65,2.41,2.41,0,0,0-.39,1.4,2.44,2.44,0,0,0,.39,1.41,1.35,1.35,0,0,0,1.2.65A1.38,1.38,0,0,0,110.18,92.6Z" style="fill:#423c25"/><path d="M116.88,94l0-1a1.71,1.71,0,0,1-.74.69A2.32,2.32,0,0,1,115,94a2.19,2.19,0,0,1-1.2-.39,2,2,0,0,1-.82-1.08,4.13,4.13,0,0,1-.25-1.42.17.17,0,0,1,0-.07,5.12,5.12,0,0,1,.24-1.48,2.25,2.25,0,0,1,.83-1.26,1.86,1.86,0,0,1,1.12-.31l.5,0a1.71,1.71,0,0,1,1.42,1.07l0-2.88H118V94ZM114,91a2.49,2.49,0,0,0,.36,1.34,1.17,1.17,0,0,0,1,.61,1.29,1.29,0,0,0,1.1-.55,2.22,2.22,0,0,0,.37-1.33V91c0-1.31-.48-2-1.38-2a1.23,1.23,0,0,0-1.09.61A2.29,2.29,0,0,0,114,91Z" style="fill:#423c25"/><path d="M122.77,94.33,122.7,93a1.66,1.66,0,0,1-.94.92,1.92,1.92,0,0,1-1.18.1,1.63,1.63,0,0,1-1-.62,2.61,2.61,0,0,1-.51-1.12,16.24,16.24,0,0,1-.08-2.11c0-.67,0-1.48,0-2.44l1.11,0c0,.75,0,1.4,0,2,0,1.27,0,2,0,2.22a1.16,1.16,0,0,0,.37.7,1.07,1.07,0,0,0,.71.24h0a.94.94,0,0,0,.66-.22,2.16,2.16,0,0,0,.44-.57,3.53,3.53,0,0,0,.21-1.43l.06-2.49,1.14-.08.09,6.11Z" style="fill:#423c25"/><path d="M126.16,86.41a.68.68,0,0,1,0,1,.69.69,0,0,1-.49.19.69.69,0,0,1-.5-.19.68.68,0,0,1,0-1,.71.71,0,0,1,1,0Zm-1.09,1.82,1.17-.06L126.13,94h-1Z" style="fill:#423c25"/><path d="M130.93,89.32a1.52,1.52,0,0,0-.79-.25H130a1.34,1.34,0,0,0-.68.24,2.05,2.05,0,0,0-.44.52,3.38,3.38,0,0,0-.22,1.39l-.07,2.53-1.1,0-.09-6.09,1.14-.13.05,1.33a1.88,1.88,0,0,1,1-.94,1.53,1.53,0,0,1,.54-.09,3.23,3.23,0,0,1,1.12.24Z" style="fill:#423c25"/><path d="M133.54,91.31a2.15,2.15,0,0,0,.42,1.34,1.38,1.38,0,0,0,.9.39H135a1.36,1.36,0,0,0,.79-.22,1.64,1.64,0,0,0,.57-1l1.18.23a3.6,3.6,0,0,1-.66,1.26,1.86,1.86,0,0,1-1.18.64,4.61,4.61,0,0,1-.72.07,4.18,4.18,0,0,1-.72-.07,2.21,2.21,0,0,1-1.19-.69,2.59,2.59,0,0,1-.66-1.24,4.55,4.55,0,0,1-.12-1c0-.12,0-.25,0-.37a3.24,3.24,0,0,1,.36-1.32,2.17,2.17,0,0,1,.78-.9,2.68,2.68,0,0,1,1-.39A3.42,3.42,0,0,1,135,88a4.31,4.31,0,0,1,.6,0,1.91,1.91,0,0,1,1.28.79,4,4,0,0,1,.59,2.46Zm2.71-.92a1.53,1.53,0,0,0-.38-1,1.2,1.2,0,0,0-.94-.42,1.33,1.33,0,0,0-1,.4,1.44,1.44,0,0,0-.41,1Z" style="fill:#423c25"/><path d="M15,99.32a.66.66,0,0,1,0,1,.66.66,0,0,1-.5.2A.67.67,0,0,1,14,99.32a.71.71,0,0,1,1,0Zm-1.09,1.81,1.17,0L15,106.92H14Z" style="fill:#423c25"/><path d="M17.43,100.17l.06,1.26a1.44,1.44,0,0,1,.82-.91,2,2,0,0,1,.65-.11,2.3,2.3,0,0,1,.45,0,2,2,0,0,1,1.15,1,2.13,2.13,0,0,1,.82-1,2.23,2.23,0,0,1,1-.23h.11a1.46,1.46,0,0,1,1.14.63,2.34,2.34,0,0,1,.54,1.35c0,.21,0,.58,0,1.1,0,.7,0,1.67,0,2.92l-1.06-.09V103.1a2.13,2.13,0,0,0-.39-1.26,1,1,0,0,0-.55-.28h-.06a.87.87,0,0,0-.52.23,1.41,1.41,0,0,0-.45.61,6.41,6.41,0,0,0-.22,1.6l0,1.7-1,0a25,25,0,0,0-.11-3.22,1.57,1.57,0,0,0-.38-.75.63.63,0,0,0-.49-.23h-.11a1.45,1.45,0,0,0-.61.26,1.48,1.48,0,0,0-.43.57,4.93,4.93,0,0,0-.18,1.47l-.1,2.56h-1l-.16-6.19Z" style="fill:#423c25"/><path d="M26.44,100.17l.06,1.26a1.46,1.46,0,0,1,.81-.91,2.08,2.08,0,0,1,.66-.11,2.3,2.3,0,0,1,.45,0,2,2,0,0,1,1.15,1,2.07,2.07,0,0,1,.82-1,2.21,2.21,0,0,1,1-.23h.11a1.49,1.49,0,0,1,1.14.63,2.41,2.41,0,0,1,.54,1.35c0,.21,0,.58,0,1.1,0,.7,0,1.67,0,2.92l-1.06-.09V103.1a2.13,2.13,0,0,0-.39-1.26,1,1,0,0,0-.55-.28h-.06a.87.87,0,0,0-.52.23,1.52,1.52,0,0,0-.46.61,7.13,7.13,0,0,0-.21,1.6l0,1.7-1,0a25,25,0,0,0-.11-3.22,1.66,1.66,0,0,0-.38-.75.65.65,0,0,0-.49-.23h-.11a1.45,1.45,0,0,0-.61.26,1.48,1.48,0,0,0-.43.57,4.83,4.83,0,0,0-.19,1.47l-.09,2.56h-1l-.16-6.19Z" style="fill:#423c25"/><path d="M35.53,104.22a2.1,2.1,0,0,0,.41,1.33,1.3,1.3,0,0,0,.91.39H37a1.39,1.39,0,0,0,.8-.22,1.75,1.75,0,0,0,.57-1l1.17.23a3.45,3.45,0,0,1-.65,1.25,1.85,1.85,0,0,1-1.19.65A4.56,4.56,0,0,1,37,107a3.35,3.35,0,0,1-.71-.07,2.16,2.16,0,0,1-1.19-.68,2.61,2.61,0,0,1-.67-1.24,5.25,5.25,0,0,1-.11-1c0-.13,0-.25,0-.38a3.59,3.59,0,0,1,.36-1.31,2.19,2.19,0,0,1,.78-.9,2.75,2.75,0,0,1,1-.39,3.64,3.64,0,0,1,.6,0l.59,0a2,2,0,0,1,1.29.8,4.08,4.08,0,0,1,.59,2.45Zm2.71-.92a1.6,1.6,0,0,0-.39-1,1.19,1.19,0,0,0-.94-.42,1.3,1.3,0,0,0-1,.4,1.41,1.41,0,0,0-.4,1Zm.27-4.93L37,100.11l-.89-.21L37.22,98Z" style="fill:#423c25"/><path d="M44.71,106.89l0-1a1.71,1.71,0,0,1-.74.69,2.32,2.32,0,0,1-1.08.24,2.19,2.19,0,0,1-1.2-.39,2.09,2.09,0,0,1-.83-1.08,5,5,0,0,1-.25-1.42v-.07a5.19,5.19,0,0,1,.24-1.49,2.26,2.26,0,0,1,.83-1.25,1.86,1.86,0,0,1,1.12-.32,4.38,4.38,0,0,1,.5,0A1.69,1.69,0,0,1,44.68,102l0-2.89h1.19v7.82Zm-2.93-3a2.49,2.49,0,0,0,.36,1.34,1.17,1.17,0,0,0,1,.61,1.28,1.28,0,0,0,1.1-.56,2.17,2.17,0,0,0,.37-1.32v-.07c0-1.32-.48-2-1.38-2a1.25,1.25,0,0,0-1.1.61,2.35,2.35,0,0,0-.35,1.31Z" style="fill:#423c25"/><path d="M48.06,99.32a.61.61,0,0,1,.2.47.62.62,0,0,1-.2.48.66.66,0,0,1-.49.2.66.66,0,0,1-.5-.2.66.66,0,0,1,0-1,.71.71,0,0,1,1,0ZM47,101.13l1.17,0L48,106.92H47Z" style="fill:#423c25"/><path d="M50,101.82a2.24,2.24,0,0,1,1.15-.61,3,3,0,0,1,.68-.07,3.79,3.79,0,0,1,.86.1,1.4,1.4,0,0,1,1.08,1.12,8,8,0,0,1,.16,1.79c0,.4,0,.85,0,1.35v0c0,.29.12.43.34.43a1.05,1.05,0,0,0,.41-.1l.09,1a3,3,0,0,1-.74.1,1.06,1.06,0,0,1-1-.55A2.78,2.78,0,0,1,52,107a3.19,3.19,0,0,1-.89.13h0a2.14,2.14,0,0,1-.84-.17,1.62,1.62,0,0,1-.65-.49,1.46,1.46,0,0,1-.28-.76c0-.06,0-.11,0-.17a2.24,2.24,0,0,1,.15-.78,1.63,1.63,0,0,1,.92-.86,7.47,7.47,0,0,1,2.49-.52,1.43,1.43,0,0,0-.19-.92,1.1,1.1,0,0,0-.74-.25h-.19a1.48,1.48,0,0,0-.7.15,1,1,0,0,0-.4.82L49.53,103A1.87,1.87,0,0,1,50,101.82Zm2.88,2.48a5.07,5.07,0,0,0-1.91.4.89.89,0,0,0-.46.72v0a.65.65,0,0,0,.27.58,1,1,0,0,0,.58.16h.17a1.85,1.85,0,0,0,.75-.21c.19-.12.39-.25.6-.41Z" style="fill:#423c25"/><path d="M55.78,100.57h.92V98.91l1.18-.16v1.77l1.53,0v1l-1.53,0V105a1.14,1.14,0,0,0,.1.57.4.4,0,0,0,.34.14,3.84,3.84,0,0,0,.93-.2l.16,1a6.51,6.51,0,0,1-1.4.22,1.86,1.86,0,0,1-1-.36,1.69,1.69,0,0,1-.3-1.06v-3.75h-.92Z" style="fill:#423c25"/><path d="M61.71,104.22a2.1,2.1,0,0,0,.41,1.33,1.32,1.32,0,0,0,.91.39h.13a1.37,1.37,0,0,0,.8-.22,1.64,1.64,0,0,0,.57-1l1.17.23a3.45,3.45,0,0,1-.65,1.25,1.85,1.85,0,0,1-1.19.65,4.56,4.56,0,0,1-.72.06,3.35,3.35,0,0,1-.71-.07,2.16,2.16,0,0,1-1.19-.68,2.59,2.59,0,0,1-.66-1.24,4.61,4.61,0,0,1-.12-1,2.42,2.42,0,0,1,0-.38,3.24,3.24,0,0,1,.36-1.31,2.05,2.05,0,0,1,.78-.9,2.63,2.63,0,0,1,1-.39,3.64,3.64,0,0,1,.6,0l.59,0a2,2,0,0,1,1.29.8,4.08,4.08,0,0,1,.59,2.45Zm2.71-.92a1.65,1.65,0,0,0-.38-1,1.22,1.22,0,0,0-.94-.42,1.31,1.31,0,0,0-1,.4,1.41,1.41,0,0,0-.4,1Z" style="fill:#423c25"/><path d="M67.92,100.17l.06,1.26a1.46,1.46,0,0,1,.81-.91,2.08,2.08,0,0,1,.66-.11,2.3,2.3,0,0,1,.45,0,2,2,0,0,1,1.15,1,2.07,2.07,0,0,1,.82-1,2.23,2.23,0,0,1,1-.23H73a1.47,1.47,0,0,1,1.14.63,2.34,2.34,0,0,1,.54,1.35c0,.21,0,.58,0,1.1,0,.7,0,1.67,0,2.92l-1.06-.09V103.1a2.13,2.13,0,0,0-.39-1.26,1,1,0,0,0-.55-.28h-.06a.87.87,0,0,0-.52.23,1.41,1.41,0,0,0-.45.61,6.41,6.41,0,0,0-.22,1.6l0,1.7-1,0a25,25,0,0,0-.11-3.22,1.57,1.57,0,0,0-.38-.75.65.65,0,0,0-.49-.23h-.11a1.45,1.45,0,0,0-.61.26,1.48,1.48,0,0,0-.43.57,4.83,4.83,0,0,0-.19,1.47L68,106.39h-1l-.16-6.19Z" style="fill:#423c25"/><path d="M77,104.22a2.1,2.1,0,0,0,.41,1.33,1.32,1.32,0,0,0,.91.39h.13a1.37,1.37,0,0,0,.8-.22,1.64,1.64,0,0,0,.57-1L81,105a3.45,3.45,0,0,1-.65,1.25,1.85,1.85,0,0,1-1.19.65,4.56,4.56,0,0,1-.72.06,3.35,3.35,0,0,1-.71-.07,2.16,2.16,0,0,1-1.19-.68,2.7,2.7,0,0,1-.67-1.24,5.25,5.25,0,0,1-.11-1c0-.13,0-.25,0-.38a3.59,3.59,0,0,1,.36-1.31,2.19,2.19,0,0,1,.78-.9,2.75,2.75,0,0,1,1-.39,3.64,3.64,0,0,1,.6,0l.59,0a2,2,0,0,1,1.29.8,4.08,4.08,0,0,1,.59,2.45Zm2.71-.92a1.65,1.65,0,0,0-.38-1,1.22,1.22,0,0,0-.94-.42,1.31,1.31,0,0,0-1,.4,1.41,1.41,0,0,0-.4,1Z" style="fill:#423c25"/><path d="M83.2,100.64l0,1.33a1.77,1.77,0,0,1,1-.92,2.21,2.21,0,0,1,.75-.14,2.1,2.1,0,0,1,.43,0,1.61,1.61,0,0,1,1,.61,2.77,2.77,0,0,1,.51,1.13,12.58,12.58,0,0,1,.07,1.79c0,.72,0,1.64,0,2.76l-1.11,0q0-1.42,0-2.37a14.31,14.31,0,0,0-.06-1.81,1.15,1.15,0,0,0-.36-.7,1.07,1.07,0,0,0-.71-.24h0a.92.92,0,0,0-.66.22,2,2,0,0,0-.44.57,3.55,3.55,0,0,0-.23,1.42l-.06,2.53-1.1,0-.1-6.09Z" style="fill:#423c25"/><path d="M88,100.57h.92V98.91l1.18-.16v1.77l1.53,0v1l-1.53,0V105a1,1,0,0,0,.1.57.4.4,0,0,0,.34.14,3.84,3.84,0,0,0,.93-.2l.16,1a6.51,6.51,0,0,1-1.4.22,1.86,1.86,0,0,1-1-.36,1.69,1.69,0,0,1-.3-1.06v-3.75H88Z" style="fill:#423c25"/><path d="M101.64,104.22a2.1,2.1,0,0,0,.41,1.33,1.32,1.32,0,0,0,.91.39h.13a1.37,1.37,0,0,0,.8-.22,1.69,1.69,0,0,0,.57-1l1.17.23a3.45,3.45,0,0,1-.65,1.25,1.85,1.85,0,0,1-1.19.65,4.56,4.56,0,0,1-.72.06,3.35,3.35,0,0,1-.71-.07,2.16,2.16,0,0,1-1.19-.68,2.7,2.7,0,0,1-.67-1.24,5.25,5.25,0,0,1-.11-1c0-.13,0-.25,0-.38a3.59,3.59,0,0,1,.36-1.31,2.19,2.19,0,0,1,.78-.9,2.75,2.75,0,0,1,1-.39,3.64,3.64,0,0,1,.6,0l.59,0a2,2,0,0,1,1.29.8,4.08,4.08,0,0,1,.59,2.45Zm2.71-.92a1.6,1.6,0,0,0-.39-1,1.18,1.18,0,0,0-.93-.42,1.31,1.31,0,0,0-1,.4,1.41,1.41,0,0,0-.4,1Z" style="fill:#423c25"/><path d="M107.83,100.64l0,1.33a1.77,1.77,0,0,1,1-.92,2.21,2.21,0,0,1,.75-.14,1.93,1.93,0,0,1,.42,0,1.61,1.61,0,0,1,1,.61,2.63,2.63,0,0,1,.5,1.13,12,12,0,0,1,.08,1.79c0,.72,0,1.64,0,2.76l-1.11,0q0-1.42,0-2.37a14.31,14.31,0,0,0-.06-1.81,1.11,1.11,0,0,0-.37-.7,1,1,0,0,0-.7-.24h0a.92.92,0,0,0-.65.22,2.18,2.18,0,0,0-.45.57,3.8,3.8,0,0,0-.22,1.42l-.06,2.53-1.1,0-.1-6.09Z" style="fill:#423c25"/><path d="M120.46,107.71h0a.55.55,0,0,1,.23.07,1.08,1.08,0,0,0,.77-.49,3.76,3.76,0,0,0,.2-1.51l0-4.52,1.06.08c0,.81,0,1.55,0,2.2a27.29,27.29,0,0,1-.13,3.76,1.8,1.8,0,0,1-.57,1,1.9,1.9,0,0,1-.92.42,1.56,1.56,0,0,1-.31,0,2.63,2.63,0,0,1-.47,0Zm2.21-8.39a.61.61,0,0,1,.2.47.62.62,0,0,1-.2.48.64.64,0,0,1-.49.2.67.67,0,0,1-.49-1.15.7.7,0,0,1,.49-.2A.68.68,0,0,1,122.67,99.32Z" style="fill:#423c25"/><path d="M125.17,104.22a2.1,2.1,0,0,0,.42,1.33,1.29,1.29,0,0,0,.9.39h.14a1.34,1.34,0,0,0,.79-.22,1.7,1.7,0,0,0,.58-1l1.17.23a3.47,3.47,0,0,1-.66,1.25,1.83,1.83,0,0,1-1.18.65,4.56,4.56,0,0,1-.72.06,3.38,3.38,0,0,1-.72-.07,2.19,2.19,0,0,1-1.19-.68A2.59,2.59,0,0,1,124,105a4.61,4.61,0,0,1-.12-1c0-.13,0-.25,0-.38a3.59,3.59,0,0,1,.36-1.31,2.05,2.05,0,0,1,.78-.9,2.75,2.75,0,0,1,1-.39,3.45,3.45,0,0,1,.6,0l.59,0a2,2,0,0,1,1.28.8,4,4,0,0,1,.59,2.45Zm2.71-.92a1.53,1.53,0,0,0-.38-1,1.2,1.2,0,0,0-.94-.42,1.3,1.3,0,0,0-1,.4,1.42,1.42,0,0,0-.41,1Z" style="fill:#423c25"/><path d="M134,107.24l-.07-1.33a1.72,1.72,0,0,1-.94.92,2.08,2.08,0,0,1-.76.14,2,2,0,0,1-.42,0,1.62,1.62,0,0,1-1-.62,2.73,2.73,0,0,1-.51-1.12,17.08,17.08,0,0,1-.07-2.11c0-.67,0-1.48,0-2.44l1.11,0c0,.75,0,1.4,0,2a21.19,21.19,0,0,0,.06,2.22,1.11,1.11,0,0,0,.37.7,1.16,1.16,0,0,0,.7.24h0a1,1,0,0,0,.65-.22,2.24,2.24,0,0,0,.45-.58,3.82,3.82,0,0,0,.21-1.42l.06-2.49L135,101l.09,6.11Z" style="fill:#423c25"/><path d="M137.33,105.2a.65.65,0,0,1,0,1,.73.73,0,0,1-1,0,.68.68,0,0,1,0-1,.7.7,0,0,1,1,0Z" style="fill:#423c25"/><path d="M13.88,111.88l1.21,0,0,6.23,4,0,0,1.15H13.82Z" style="fill:#423c25"/><path d="M21.41,117.12a2.14,2.14,0,0,0,.41,1.34,1.34,1.34,0,0,0,.91.39h.13a1.45,1.45,0,0,0,.8-.22,1.64,1.64,0,0,0,.57-1l1.17.23a3.54,3.54,0,0,1-.65,1.25,1.9,1.9,0,0,1-1.19.65,4.56,4.56,0,0,1-.72.06,3.35,3.35,0,0,1-.71-.07,2.22,2.22,0,0,1-1.19-.68,2.62,2.62,0,0,1-.66-1.25,4.55,4.55,0,0,1-.12-1c0-.12,0-.24,0-.37a3.33,3.33,0,0,1,.36-1.32,2.08,2.08,0,0,1,.78-.89,2.63,2.63,0,0,1,1-.39,2.8,2.8,0,0,1,.6,0l.59,0a2,2,0,0,1,1.29.8,4,4,0,0,1,.59,2.45Zm2.71-.92a1.59,1.59,0,0,0-.38-1,1.22,1.22,0,0,0-.94-.42,1.31,1.31,0,0,0-1,.4,1.4,1.4,0,0,0-.4,1Z" style="fill:#423c25"/><path d="M29.7,113.55l.06,1.33a1.7,1.7,0,0,1,.95-.92,2.21,2.21,0,0,1,.75-.14,2,2,0,0,1,.42.05,1.61,1.61,0,0,1,1,.61,2.63,2.63,0,0,1,.5,1.13,12,12,0,0,1,.08,1.79c0,.72,0,1.64-.05,2.75l-1.1,0c0-1,0-1.75,0-2.38,0-1,0-1.61,0-1.8a1.16,1.16,0,0,0-.37-.7,1.05,1.05,0,0,0-.71-.24h0a.92.92,0,0,0-.65.22,2.18,2.18,0,0,0-.45.57,3.56,3.56,0,0,0-.22,1.42l-.06,2.52-1.11,0-.09-6.1Z" style="fill:#423c25"/><path d="M35.18,119.17a3.28,3.28,0,0,1-.71-2.21,3.24,3.24,0,0,1,.71-2.19,2.71,2.71,0,0,1,4,0,3.29,3.29,0,0,1,.71,2.19,3.33,3.33,0,0,1-.71,2.21,2.73,2.73,0,0,1-4,0Zm3.17-.76a2.44,2.44,0,0,0,.39-1.41,2.37,2.37,0,0,0-.39-1.39,1.34,1.34,0,0,0-1.19-.66,1.37,1.37,0,0,0-1.21.66,2.45,2.45,0,0,0-.38,1.39,2.51,2.51,0,0,0,.38,1.41,1.38,1.38,0,0,0,1.21.65A1.35,1.35,0,0,0,38.35,118.41Z" style="fill:#423c25"/><path d="M44.65,120.15l-.07-1.33a1.72,1.72,0,0,1-.94.92,2.31,2.31,0,0,1-.76.14,2,2,0,0,1-.42,0,1.61,1.61,0,0,1-1-.61,2.63,2.63,0,0,1-.5-1.13,14.4,14.4,0,0,1-.08-2.11c0-.66,0-1.47,0-2.43l1.11,0c0,.76,0,1.41,0,2a20.91,20.91,0,0,0,.06,2.22,1.11,1.11,0,0,0,.37.7,1,1,0,0,0,.7.24h0a.92.92,0,0,0,.65-.22,2.18,2.18,0,0,0,.45-.57,3.89,3.89,0,0,0,.21-1.43l.06-2.49,1.14-.07L45.8,120Z" style="fill:#423c25"/><path d="M46.85,114l1.23-.26,1.46,4.74h0L51,114l1.22.27-2,5.35-1.32-.05Z" style="fill:#423c25"/><path d="M54.48,117.12a2.07,2.07,0,0,0,.42,1.34,1.29,1.29,0,0,0,.9.39h.14a1.44,1.44,0,0,0,.79-.22,1.64,1.64,0,0,0,.57-1l1.17.23a3.38,3.38,0,0,1-.65,1.25,1.87,1.87,0,0,1-1.18.65,4.56,4.56,0,0,1-.72.06,3.38,3.38,0,0,1-.72-.07,2.22,2.22,0,0,1-1.19-.68,2.62,2.62,0,0,1-.66-1.25,4.55,4.55,0,0,1-.12-1c0-.12,0-.24,0-.37a3.33,3.33,0,0,1,.36-1.32,2.08,2.08,0,0,1,.78-.89,2.7,2.7,0,0,1,1-.39,2.8,2.8,0,0,1,.6,0l.6,0a1.93,1.93,0,0,1,1.28.8,4,4,0,0,1,.59,2.45Zm2.71-.92a1.53,1.53,0,0,0-.38-1,1.2,1.2,0,0,0-.94-.42,1.29,1.29,0,0,0-1,.4,1.41,1.41,0,0,0-.41,1Z" style="fill:#423c25"/><path d="M59.52,111.89l1.18,0v7.84l-1.12,0Z" style="fill:#423c25"/><path d="M64.56,119.17a3.33,3.33,0,0,1-.71-2.21,3.29,3.29,0,0,1,.71-2.19,2.71,2.71,0,0,1,4,0,3.24,3.24,0,0,1,.71,2.19,3.28,3.28,0,0,1-.71,2.21,2.73,2.73,0,0,1-4,0Zm3.18-.76a2.51,2.51,0,0,0,.38-1.41,2.45,2.45,0,0,0-.38-1.39,1.42,1.42,0,0,0-2.4,0A2.37,2.37,0,0,0,65,117a2.44,2.44,0,0,0,.38,1.41,1.43,1.43,0,0,0,2.4,0Z" style="fill:#423c25"/><path d="M70.31,120v-7.81h1.19l0,2.88A1.67,1.67,0,0,1,72.87,114a2.85,2.85,0,0,1,.49,0,1.86,1.86,0,0,1,1.12.31,2.26,2.26,0,0,1,.84,1.26,5.09,5.09,0,0,1,.23,1.48V117a4.61,4.61,0,0,1-.25,1.42,2.05,2.05,0,0,1-.83,1.08,2.14,2.14,0,0,1-1.2.39,2.38,2.38,0,0,1-1.08-.24,1.76,1.76,0,0,1-.74-.69l0,1Zm4-3v0a2.33,2.33,0,0,0-.36-1.32,1.26,1.26,0,0,0-1.1-.61c-.89,0-1.35.66-1.37,2v.07a2.27,2.27,0,0,0,.36,1.33A1.3,1.3,0,0,0,73,119a1.18,1.18,0,0,0,1-.62A2.49,2.49,0,0,0,74.35,117Z" style="fill:#423c25"/><path d="M76.22,120.62h0a.41.41,0,0,1,.23.07,1.06,1.06,0,0,0,.77-.49,3.64,3.64,0,0,0,.2-1.52l0-4.51,1.06.07c0,.82,0,1.55,0,2.21a29.21,29.21,0,0,1-.13,3.76,2,2,0,0,1-.57,1,1.93,1.93,0,0,1-.93.42l-.31,0a2,2,0,0,1-.47-.05Zm2.21-8.39a.64.64,0,0,1,0,1,.66.66,0,0,1-.49.2.7.7,0,0,1-.49-.2.68.68,0,0,1,.49-1.15A.63.63,0,0,1,78.43,112.23Z" style="fill:#423c25"/><path d="M80.94,117.12a2.14,2.14,0,0,0,.41,1.34,1.3,1.3,0,0,0,.91.39h.13a1.47,1.47,0,0,0,.8-.22,1.75,1.75,0,0,0,.57-1l1.17.23a3.71,3.71,0,0,1-.65,1.25,1.92,1.92,0,0,1-1.19.65,4.56,4.56,0,0,1-.72.06,3.35,3.35,0,0,1-.71-.07,2.22,2.22,0,0,1-1.19-.68,2.64,2.64,0,0,1-.67-1.25,5.17,5.17,0,0,1-.11-1c0-.12,0-.24,0-.37a3.7,3.7,0,0,1,.36-1.32,2.22,2.22,0,0,1,.78-.89,2.75,2.75,0,0,1,1-.39,2.8,2.8,0,0,1,.6,0l.59,0a2,2,0,0,1,1.29.8,4,4,0,0,1,.59,2.45Zm2.71-.92a1.54,1.54,0,0,0-.39-1,1.19,1.19,0,0,0-.94-.42,1.3,1.3,0,0,0-1,.4,1.4,1.4,0,0,0-.4,1Z" style="fill:#423c25"/><path d="M89.12,114.74a1.54,1.54,0,0,0-.58-.12,1.53,1.53,0,0,0-.3,0,1.44,1.44,0,0,0-.72.47,1.86,1.86,0,0,0-.38,1,4.73,4.73,0,0,0,0,.52,2.43,2.43,0,0,0,.07.61,1.67,1.67,0,0,0,.43.87,1.19,1.19,0,0,0,.83.39h.12a1.39,1.39,0,0,0,.78-.22,1.22,1.22,0,0,0,.5-1l1.11.23a2.45,2.45,0,0,1-.57,1.25,1.93,1.93,0,0,1-1.18.65,3.88,3.88,0,0,1-.67.06,3,3,0,0,1-.68-.07,2.14,2.14,0,0,1-1.07-.54,2.41,2.41,0,0,1-.63-1.14,4.29,4.29,0,0,1-.16-1.17c0-.1,0-.2,0-.3a3.68,3.68,0,0,1,.34-1.35,2.15,2.15,0,0,1,.74-.89,2.46,2.46,0,0,1,.92-.39,2.52,2.52,0,0,1,.57-.05l.52,0a2,2,0,0,1,1.16.53,2,2,0,0,1,.64,1.35l-1.09.17A1.24,1.24,0,0,0,89.12,114.74Z" style="fill:#423c25"/><path d="M92,113.48h.92v-1.67l1.18-.15v1.77l1.53-.06v1l-1.53,0v3.5a1.09,1.09,0,0,0,.1.57.4.4,0,0,0,.34.14,4.69,4.69,0,0,0,.93-.2l.16,1a7.33,7.33,0,0,1-1.4.22,1.86,1.86,0,0,1-1-.36,1.69,1.69,0,0,1-.3-1.06v-3.76H92Z" style="fill:#423c25"/><path d="M97.85,112.23a.64.64,0,0,1,0,1,.7.7,0,0,1-1,0,.66.66,0,0,1,0-1,.7.7,0,0,1,1,0ZM96.76,114l1.17-.05-.1,5.84h-1Z" style="fill:#423c25"/><path d="M100.09,120l0-5.28-1-.06,0-.86h1a2.59,2.59,0,0,1,.37-1.61,1.56,1.56,0,0,1,.87-.53,1.9,1.9,0,0,1,.35,0,3.53,3.53,0,0,1,.85.12l-.14,1a1.71,1.71,0,0,0-.47-.08.73.73,0,0,0-.45.13,1,1,0,0,0-.31.89s0,.09,0,.13h1.13l0,1H101.2V120Z" style="fill:#423c25"/><path d="M17.34,128a1.65,1.65,0,0,0-.79-.25h-.12a1.23,1.23,0,0,0-.68.25,1.78,1.78,0,0,0-.45.52,3.49,3.49,0,0,0-.22,1.39L15,132.48l-1.1,0-.1-6.1L15,126.3l0,1.33a1.78,1.78,0,0,1,1-.94,1.33,1.33,0,0,1,.54-.1,3.09,3.09,0,0,1,1.12.25Z" style="fill:#423c25"/><path d="M20,130a2.14,2.14,0,0,0,.41,1.34,1.43,1.43,0,0,0,.91.39h.13a1.37,1.37,0,0,0,.8-.22,1.58,1.58,0,0,0,.57-.95l1.17.22a3.58,3.58,0,0,1-.65,1.26,1.84,1.84,0,0,1-1.19.64,3.65,3.65,0,0,1-.72.07,4.17,4.17,0,0,1-.71-.07,2.22,2.22,0,0,1-1.19-.68,2.62,2.62,0,0,1-.66-1.25,4.55,4.55,0,0,1-.12-1c0-.12,0-.24,0-.37a3.24,3.24,0,0,1,.36-1.32,2.17,2.17,0,0,1,.78-.9,3,3,0,0,1,1-.39,3.7,3.7,0,0,1,.6,0l.59,0a2,2,0,0,1,1.29.79,4,4,0,0,1,.59,2.46Zm2.71-.92a1.59,1.59,0,0,0-.38-1,1.22,1.22,0,0,0-.94-.42,1.34,1.34,0,0,0-1,.39,1.43,1.43,0,0,0-.4,1Z" style="fill:#423c25"/><path d="M26.16,126l.06,1.26a1.4,1.4,0,0,1,.82-.91,2,2,0,0,1,.65-.11,1.73,1.73,0,0,1,.45,0,2,2,0,0,1,1.15,1,2.13,2.13,0,0,1,.82-1,2.23,2.23,0,0,1,1-.23h.11a1.5,1.5,0,0,1,1.14.64,2.34,2.34,0,0,1,.54,1.35c0,.21,0,.58,0,1.1,0,.69,0,1.67,0,2.92l-1.06-.1v-3.12a2.13,2.13,0,0,0-.39-1.26,1,1,0,0,0-.55-.29h-.06a.85.85,0,0,0-.52.22,1.44,1.44,0,0,0-.45.62,6.24,6.24,0,0,0-.22,1.6l0,1.7-1,0a24.89,24.89,0,0,0-.11-3.22,1.56,1.56,0,0,0-.38-.76.68.68,0,0,0-.49-.23h-.11a1.35,1.35,0,0,0-.61.27,1.48,1.48,0,0,0-.43.57,5.15,5.15,0,0,0-.19,1.46l-.09,2.56h-1L25,126Z" style="fill:#423c25"/><path d="M35.11,126.41l0,1a1.71,1.71,0,0,1,.74-.69,2.35,2.35,0,0,1,1.08-.24,2.19,2.19,0,0,1,1.2.39,2.07,2.07,0,0,1,.83,1.09,4.55,4.55,0,0,1,.25,1.41v.08a5.51,5.51,0,0,1-.23,1.48,2.33,2.33,0,0,1-.84,1.25,1.86,1.86,0,0,1-1.12.32,3,3,0,0,1-.5,0,1.66,1.66,0,0,1-1.42-1.06l0,2.89H34v-7.82Zm2.93,3a2.52,2.52,0,0,0-.36-1.34,1.17,1.17,0,0,0-1-.61,1.3,1.3,0,0,0-1.1.56,2.18,2.18,0,0,0-.37,1.33v.06c0,1.32.48,2,1.38,2a1.25,1.25,0,0,0,1.1-.61,2.35,2.35,0,0,0,.35-1.31Z" style="fill:#423c25"/><path d="M40.3,124.79l1.17.06v7.83l-1.12.06Z" style="fill:#423c25"/><path d="M43.22,127.64a2.24,2.24,0,0,1,1.15-.61,3,3,0,0,1,.68-.08,4.46,4.46,0,0,1,.86.1A1.43,1.43,0,0,1,47,128.18a8,8,0,0,1,.16,1.79c0,.4,0,.85,0,1.35v0c0,.28.12.43.34.43a1.27,1.27,0,0,0,.41-.1l.09,1a3,3,0,0,1-.74.11,1.06,1.06,0,0,1-1-.56,2.94,2.94,0,0,1-.94.59,3.19,3.19,0,0,1-.89.12h0a2.14,2.14,0,0,1-.84-.17,1.52,1.52,0,0,1-.65-.48,1.49,1.49,0,0,1-.28-.77s0-.11,0-.17a2.29,2.29,0,0,1,.15-.78,1.71,1.71,0,0,1,.91-.86,7.88,7.88,0,0,1,2.5-.52,1.43,1.43,0,0,0-.19-.92,1.18,1.18,0,0,0-.74-.24H45a1.34,1.34,0,0,0-.7.16,1,1,0,0,0-.4.81l-1.12-.14A1.83,1.83,0,0,1,43.22,127.64Zm2.88,2.47a5,5,0,0,0-1.91.41.89.89,0,0,0-.46.71v.06a.65.65,0,0,0,.26.57,1,1,0,0,0,.59.16h.17a1.85,1.85,0,0,0,.75-.21,5.86,5.86,0,0,0,.6-.41Z" style="fill:#423c25"/><path d="M52.14,127.65a1.63,1.63,0,0,0-.59-.12,1.53,1.53,0,0,0-.3,0,1.44,1.44,0,0,0-.72.47,1.86,1.86,0,0,0-.38,1,4.73,4.73,0,0,0,0,.52,2.48,2.48,0,0,0,.07.61,1.71,1.71,0,0,0,.43.87,1.19,1.19,0,0,0,.83.39h.12a1.54,1.54,0,0,0,.79-.22,1.27,1.27,0,0,0,.49-1l1.11.23a2.48,2.48,0,0,1-.57,1.25,2,2,0,0,1-1.18.65,3.88,3.88,0,0,1-.67.06,3,3,0,0,1-.68-.07,2.14,2.14,0,0,1-1.07-.54,2.41,2.41,0,0,1-.63-1.14,4.29,4.29,0,0,1-.16-1.17c0-.1,0-.2,0-.3a3.63,3.63,0,0,1,.34-1.35,2.25,2.25,0,0,1,.74-.9,2.83,2.83,0,0,1,.92-.39,3.32,3.32,0,0,1,.57,0l.52,0a2.16,2.16,0,0,1,1.16.53,2,2,0,0,1,.64,1.35l-1.09.18A1.25,1.25,0,0,0,52.14,127.65Z" style="fill:#423c25"/><path d="M56.25,130a2.14,2.14,0,0,0,.41,1.34,1.39,1.39,0,0,0,.91.39h.13a1.39,1.39,0,0,0,.8-.22,1.68,1.68,0,0,0,.57-.95l1.17.22a3.58,3.58,0,0,1-.65,1.26,1.87,1.87,0,0,1-1.19.64,3.65,3.65,0,0,1-.72.07,4.17,4.17,0,0,1-.71-.07,2.22,2.22,0,0,1-1.19-.68,2.64,2.64,0,0,1-.67-1.25,5.17,5.17,0,0,1-.11-1c0-.12,0-.24,0-.37a3.59,3.59,0,0,1,.36-1.32,2.32,2.32,0,0,1,.78-.9,3.19,3.19,0,0,1,1-.39,3.7,3.7,0,0,1,.6,0l.59,0a2,2,0,0,1,1.29.79,4.1,4.1,0,0,1,.59,2.46Zm2.71-.92a1.54,1.54,0,0,0-.39-1,1.19,1.19,0,0,0-.94-.42,1.33,1.33,0,0,0-1,.39,1.43,1.43,0,0,0-.4,1Z" style="fill:#423c25"/><path d="M63.4,124.79l1.17.06v7.83l-1.12.06Z" style="fill:#423c25"/><path d="M66.87,130a2.14,2.14,0,0,0,.41,1.34,1.39,1.39,0,0,0,.91.39h.13a1.34,1.34,0,0,0,.79-.22,1.64,1.64,0,0,0,.58-.95l1.17.22a3.76,3.76,0,0,1-.65,1.26,1.87,1.87,0,0,1-1.19.64,3.65,3.65,0,0,1-.72.07,4.17,4.17,0,0,1-.71-.07A2.18,2.18,0,0,1,66.4,132a2.64,2.64,0,0,1-.67-1.25,5.17,5.17,0,0,1-.11-1c0-.12,0-.24,0-.37a3.59,3.59,0,0,1,.36-1.32,2.32,2.32,0,0,1,.78-.9,3.19,3.19,0,0,1,1-.39,3.7,3.7,0,0,1,.6,0l.59,0a2,2,0,0,1,1.29.79,4.1,4.1,0,0,1,.59,2.46Zm2.71-.92a1.54,1.54,0,0,0-.39-1,1.2,1.2,0,0,0-.94-.42,1.33,1.33,0,0,0-1,.39,1.43,1.43,0,0,0-.4,1Z" style="fill:#423c25"/><path d="M75.13,126.41l0,1a1.74,1.74,0,0,1,.73-.69,2.39,2.39,0,0,1,1.09-.24,2.13,2.13,0,0,1,1.19.39,2,2,0,0,1,.83,1.09,4.56,4.56,0,0,1,.26,1.41v.08a5.18,5.18,0,0,1-.24,1.48,2.26,2.26,0,0,1-.83,1.25,1.9,1.9,0,0,1-1.12.32,2.92,2.92,0,0,1-.5,0,1.66,1.66,0,0,1-1.42-1.06l0,2.89H74v-7.82Zm2.93,3A2.52,2.52,0,0,0,77.7,128a1.18,1.18,0,0,0-1-.61,1.29,1.29,0,0,0-1.1.56,2.18,2.18,0,0,0-.37,1.33v.06c0,1.32.48,2,1.37,2a1.23,1.23,0,0,0,1.1-.61,2.27,2.27,0,0,0,.36-1.31Z" style="fill:#423c25"/><path d="M83.84,128a1.65,1.65,0,0,0-.8-.25h-.12a1.2,1.2,0,0,0-.67.25,1.78,1.78,0,0,0-.45.52,3.31,3.31,0,0,0-.22,1.39l-.07,2.52-1.1,0-.09-6.1,1.14-.12.05,1.33a1.83,1.83,0,0,1,1-.94,1.25,1.25,0,0,1,.53-.1,3.14,3.14,0,0,1,1.13.25Z" style="fill:#423c25"/><path d="M86.45,130a2.14,2.14,0,0,0,.41,1.34,1.38,1.38,0,0,0,.9.39h.14a1.34,1.34,0,0,0,.79-.22,1.64,1.64,0,0,0,.58-.95l1.17.22a3.76,3.76,0,0,1-.65,1.26,1.87,1.87,0,0,1-1.19.64,3.65,3.65,0,0,1-.72.07,4.07,4.07,0,0,1-.71-.07A2.18,2.18,0,0,1,86,132a2.56,2.56,0,0,1-.67-1.25,4.54,4.54,0,0,1-.11-1c0-.12,0-.24,0-.37a3.59,3.59,0,0,1,.36-1.32,2.32,2.32,0,0,1,.78-.9,3.19,3.19,0,0,1,1-.39,3.7,3.7,0,0,1,.6,0l.59,0a1.93,1.93,0,0,1,1.28.79,4,4,0,0,1,.59,2.46Zm2.71-.92a1.54,1.54,0,0,0-.39-1,1.2,1.2,0,0,0-.94-.42,1.33,1.33,0,0,0-1,.39,1.38,1.38,0,0,0-.4,1Z" style="fill:#423c25"/><path d="M92.65,126l.07,1.26a1.41,1.41,0,0,1,.81-.91,2.08,2.08,0,0,1,.66-.11,1.77,1.77,0,0,1,.45,0,2,2,0,0,1,1.15,1,2.07,2.07,0,0,1,.82-1,2.21,2.21,0,0,1,1-.23h.1a1.53,1.53,0,0,1,1.15.64,2.4,2.4,0,0,1,.53,1.35c0,.21,0,.58,0,1.1,0,.69,0,1.67,0,2.92l-1.06-.1v-3.12a2.13,2.13,0,0,0-.39-1.26,1.06,1.06,0,0,0-.55-.29h-.06a.83.83,0,0,0-.52.22,1.55,1.55,0,0,0-.46.62,6.94,6.94,0,0,0-.21,1.6l0,1.7-1,0a24.89,24.89,0,0,0-.11-3.22,1.65,1.65,0,0,0-.38-.76.68.68,0,0,0-.49-.23H94a1.4,1.4,0,0,0-.61.27,1.46,1.46,0,0,0-.42.57,4.49,4.49,0,0,0-.19,1.46l-.09,2.56h-1L91.49,126Z" style="fill:#423c25"/><path d="M101.68,125.13a.65.65,0,0,1,0,1,.7.7,0,0,1-1,0,.68.68,0,0,1,0-1,.73.73,0,0,1,1,0ZM100.59,127l1.17,0-.1,5.84h-1Z" style="fill:#423c25"/><path d="M104.19,130a2.14,2.14,0,0,0,.41,1.34,1.41,1.41,0,0,0,.91.39h.13a1.37,1.37,0,0,0,.8-.22,1.63,1.63,0,0,0,.57-.95l1.17.22a3.58,3.58,0,0,1-.65,1.26,1.84,1.84,0,0,1-1.19.64,3.65,3.65,0,0,1-.72.07,4.17,4.17,0,0,1-.71-.07,2.22,2.22,0,0,1-1.19-.68,2.73,2.73,0,0,1-.67-1.25,5.17,5.17,0,0,1-.11-1c0-.12,0-.24,0-.37a3.59,3.59,0,0,1,.36-1.32,2.32,2.32,0,0,1,.78-.9,3.19,3.19,0,0,1,1-.39,3.7,3.7,0,0,1,.6,0l.59,0a2,2,0,0,1,1.29.79,4.1,4.1,0,0,1,.59,2.46Zm2.71-.92a1.54,1.54,0,0,0-.39-1,1.18,1.18,0,0,0-.93-.42,1.34,1.34,0,0,0-1,.39,1.43,1.43,0,0,0-.4,1Z" style="fill:#423c25"/><path d="M112.75,128a1.61,1.61,0,0,0-.79-.25h-.13a1.23,1.23,0,0,0-.67.25,1.78,1.78,0,0,0-.45.52,3.49,3.49,0,0,0-.22,1.39l-.06,2.52-1.1,0-.1-6.1,1.15-.12.05,1.33a1.78,1.78,0,0,1,1-.94,1.33,1.33,0,0,1,.54-.1,3.09,3.09,0,0,1,1.12.25Z" style="fill:#423c25"/><path d="M115.3,131a.66.66,0,0,1,0,.95.71.71,0,0,1-1,0,.68.68,0,0,1,.49-1.15A.66.66,0,0,1,115.3,131Z" style="fill:#423c25"/></g></g></svg>