<svg xmlns="http://www.w3.org/2000/svg" width="150" height="150" viewBox="0 0 150 150"><title>4</title><g id="aef6da4c-65a5-489c-b373-a9843baa6bef" data-name="fond"><rect x="0.3" y="-0.1" width="149.39" height="149.69" style="fill:#fff"/></g><g id="af72b206-3377-4847-ae70-7e0d67658438" data-name="shuri peinture"><path d="M158.59,20.38l-13.37-.64A2.75,2.75,0,0,0,145,18l0,0a.15.15,0,0,0,.09.06l7.38.36-6.12-4.63h0v0a2.7,2.7,0,0,0,1.5-1Z" style="fill:#fff"/><path d="M153.14-3.26,146.43,8.31a2.87,2.87,0,0,0-1.63-.63V7.56a.23.23,0,0,0,.2-.11l2.91-5.54-6.4,2.82s0,0-.05,0l-.1,0a2.57,2.57,0,0,0-.14-1.8Z" style="fill:#fff"/><path d="M152.54,18.38,145.16,18a.15.15,0,0,1-.09-.06s0,0,0-.06l1.3-4.14,0,0h0Z" style="fill:#423c25"/><path d="M147.9,1.91,145,7.45a.23.23,0,0,1-.2.11.19.19,0,0,1-.14,0l-3.17-2.6a.11.11,0,0,1,0-.14s0,0,.05,0Z" style="fill:#423c25"/><path d="M146.4,13.72v0l0,0-1.3,4.14s0,0,0,.06l0,0a1.6,1.6,0,0,0-.21-.32c-.87-1-2.6-.75-3.6-.17-.11.07-2,1.21-1.69,3a2.31,2.31,0,0,0,.92,1.51l-.05.08a.11.11,0,0,0-.12,0l-4,1.08a.16.16,0,0,0-.12.16l-.13,0c.28-1.27-.92-2.49-2-3-.12-.06-2.16-1-3.44.36a2.29,2.29,0,0,0-.39.54l-.07,0a.08.08,0,0,0,0-.11l-3.09-2.15a.11.11,0,0,0-.08,0v-.08l.29,0c1.32-.29,1.89-1.94,1.86-3.09,0-.13-.1-2.37-1.86-2.91a2.82,2.82,0,0,0-1.55,0l0-.09a.13.13,0,0,0,.09-.1L126.91,9a.14.14,0,0,0-.07-.18l.06-.09c1,.77,2.52.39,3.43-.22.1-.07,1.95-1.33,1.48-3.11a2.49,2.49,0,0,0-.67-1.17l.1-.1a.15.15,0,0,0,.19.09L135.16,3a.21.21,0,0,0,.13-.11l.09,0-.07.19c-.41,1.28.74,2.6,1.76,3.14.12.06,2.11,1.09,3.45-.16a2.86,2.86,0,0,0,.83-1.37l.1,0a.11.11,0,0,0,0,.14l3.17,2.6a.19.19,0,0,0,.14,0v.12a1.92,1.92,0,0,0-.41.05c-1.3.3-1.85,2-1.8,3.12,0,.13.14,2.36,1.9,2.88A3.54,3.54,0,0,0,146.4,13.72ZM137.59,15a2.31,2.31,0,1,0-3.26.3A2.29,2.29,0,0,0,137.59,15Z" style="fill:#423c25"/><path d="M141.73,22.75V36.18l-7.18-11.29A2.64,2.64,0,0,0,136,23.35v-.08l.13,0a.19.19,0,0,0,0,.1l4,6.31.23-7.53a.11.11,0,0,0,0-.08l.05-.08a2.77,2.77,0,0,0,1.29.49Z" style="fill:#fff"/><path d="M140.42,22.17l-.23,7.53-4-6.31a.19.19,0,0,1,0-.1.16.16,0,0,1,.12-.16l4-1.08a.11.11,0,0,1,.12,0A.11.11,0,0,1,140.42,22.17Z" style="fill:#423c25"/><path d="M137.29,11.72A2.31,2.31,0,1,1,134,12,2.29,2.29,0,0,1,137.29,11.72Z" style="fill:#fff"/><path d="M130.32-10l6.54,11.68a2.6,2.6,0,0,0-1.48,1.26l-.09,0a.19.19,0,0,0,0-.15l-3.32-6L131.23,4a.17.17,0,0,0,0,.07l-.1.1a2.77,2.77,0,0,0-1.76-.72Z" style="fill:#fff"/><path d="M135.27,2.74a.19.19,0,0,1,0,.15.21.21,0,0,1-.13.11l-3.73,1.17a.15.15,0,0,1-.19-.09.17.17,0,0,1,0-.07L132-3.23Z" style="fill:#423c25"/><path d="M130.41,23.53l-12,6.09,6.88-11.46a2.79,2.79,0,0,0,1.74.65v.08a.16.16,0,0,0-.14.08l-3.64,6.1,6.94-3.86,0,0,.07,0a1.51,1.51,0,0,0-.18.44A2.68,2.68,0,0,0,130.41,23.53Z" style="fill:#fff"/><path d="M130.15,21.07a.08.08,0,0,1,0,.11l0,0-6.94,3.86,3.64-6.1a.16.16,0,0,1,.14-.08.11.11,0,0,1,.08,0Z" style="fill:#423c25"/><path d="M126.84,8.77a.14.14,0,0,1,.07.18l-1.12,3.59a.13.13,0,0,1-.09.1.17.17,0,0,1-.12,0l-6.49-4,7.68.16Z" style="fill:#423c25"/><path d="M126.9,8.68l-.06.09h-.07l-7.68-.16,6.49,4a.17.17,0,0,0,.12,0l0,.09a2.53,2.53,0,0,0-1.49,1l-11.44-7,13.38-.23a2.58,2.58,0,0,0,.55,2Z" style="fill:#fff"/><path d="M144.8,7.68a2.87,2.87,0,0,1,1.63.63l6.71-11.57-11.93,6.2a2.57,2.57,0,0,1,.14,1.8,2.86,2.86,0,0,1-.83,1.37c-1.34,1.25-3.33.22-3.45.16-1-.54-2.17-1.86-1.76-3.14l.07-.19a2.6,2.6,0,0,1,1.48-1.26L130.32-10l-.94,13.46a2.77,2.77,0,0,1,1.76.72,2.49,2.49,0,0,1,.67,1.17c.47,1.78-1.38,3-1.48,3.11-.91.61-2.47,1-3.43.22l-.18-.15a2.58,2.58,0,0,1-.55-2l-13.38.23,11.44,7a2.53,2.53,0,0,1,1.49-1,2.82,2.82,0,0,1,1.55,0c1.76.54,1.86,2.78,1.86,2.91,0,1.15-.54,2.8-1.86,3.09l-.29,0a2.79,2.79,0,0,1-1.74-.65l-6.88,11.46,12-6.09a2.68,2.68,0,0,1-.35-1.88,1.51,1.51,0,0,1,.18-.44,2.29,2.29,0,0,1,.39-.54c1.28-1.33,3.32-.42,3.44-.36,1,.47,2.23,1.69,2,3v.08a2.64,2.64,0,0,1-1.46,1.54l7.18,11.29V22.5a2.77,2.77,0,0,1-1.29-.49,2.31,2.31,0,0,1-.92-1.51c-.35-1.8,1.58-2.94,1.69-3,1-.58,2.73-.85,3.6.17A1.6,1.6,0,0,1,145,18a2.75,2.75,0,0,1,.2,1.76l13.37.64L147.9,12.72a2.7,2.7,0,0,1-1.5,1,3.54,3.54,0,0,1-1.91,0c-1.76-.52-1.9-2.75-1.9-2.88-.05-1.16.5-2.82,1.8-3.12A1.92,1.92,0,0,1,144.8,7.68Z" style="fill:none;stroke:#423c25;stroke-miterlimit:10;stroke-width:0.5992138385772705px"/><path d="M130.17,21.18l0,0-6.94,3.86,3.64-6.1a.16.16,0,0,1,.14-.08.11.11,0,0,1,.08,0l3.09,2.15A.08.08,0,0,1,130.17,21.18Z" style="fill:none;stroke:#423c25;stroke-miterlimit:10;stroke-width:0.5992138385772705px"/><path d="M136.15,23.29a.19.19,0,0,0,0,.1l4,6.31.23-7.53a.11.11,0,0,0,0-.08.11.11,0,0,0-.12,0l-4,1.08A.16.16,0,0,0,136.15,23.29Z" style="fill:none;stroke:#423c25;stroke-miterlimit:10;stroke-width:0.5992138385772705px"/><path d="M146.4,13.74h0l6.12,4.63L145.16,18a.15.15,0,0,1-.09-.06s0,0,0-.06l1.3-4.14Z" style="fill:none;stroke:#423c25;stroke-miterlimit:10;stroke-width:0.5992138385772705px"/><path d="M141.45,4.77s0,0,.05,0l6.4-2.82L145,7.45a.23.23,0,0,1-.2.11.19.19,0,0,1-.14,0l-3.17-2.6A.11.11,0,0,1,141.45,4.77Z" style="fill:none;stroke:#423c25;stroke-miterlimit:10;stroke-width:0.5992138385772705px"/><path d="M135.29,2.89a.19.19,0,0,0,0-.15l-3.32-6L131.23,4a.17.17,0,0,0,0,.07.15.15,0,0,0,.19.09L135.16,3A.21.21,0,0,0,135.29,2.89Z" style="fill:none;stroke:#423c25;stroke-miterlimit:10;stroke-width:0.5992138385772705px"/><path d="M125.7,12.64a.17.17,0,0,1-.12,0l-6.49-4,7.68.16h.07a.14.14,0,0,1,.07.18l-1.12,3.59A.13.13,0,0,1,125.7,12.64Z" style="fill:none;stroke:#423c25;stroke-miterlimit:10;stroke-width:0.5992138385772705px"/><path d="M137.29,11.72A2.31,2.31,0,1,1,134,12,2.29,2.29,0,0,1,137.29,11.72Z" style="fill:none;stroke:#423c25;stroke-miterlimit:10;stroke-width:0.5992138385772705px"/><path d="M158.59,20.38l-13.37-.64A2.75,2.75,0,0,0,145,18l0,0a.15.15,0,0,0,.09.06l7.38.36-6.12-4.63h0v0a2.7,2.7,0,0,0,1.5-1Z" style="fill:#fff"/><path d="M153.14-3.26,146.43,8.31a2.87,2.87,0,0,0-1.63-.63V7.56a.23.23,0,0,0,.2-.11l2.91-5.54-6.4,2.82s0,0-.05,0l-.1,0a2.57,2.57,0,0,0-.14-1.8Z" style="fill:#fff"/><path d="M152.54,18.38,145.16,18a.15.15,0,0,1-.09-.06s0,0,0-.06l1.3-4.14,0,0h0Z" style="fill:#423c25"/><path d="M147.9,1.91,145,7.45a.23.23,0,0,1-.2.11.19.19,0,0,1-.14,0l-3.17-2.6a.11.11,0,0,1,0-.14s0,0,.05,0Z" style="fill:#423c25"/><path d="M146.4,13.72v0l0,0-1.3,4.14s0,0,0,.06l0,0a1.6,1.6,0,0,0-.21-.32c-.87-1-2.6-.75-3.6-.17-.11.07-2,1.21-1.69,3a2.31,2.31,0,0,0,.92,1.51l-.05.08a.11.11,0,0,0-.12,0l-4,1.08a.16.16,0,0,0-.12.16l-.13,0c.28-1.27-.92-2.49-2-3-.12-.06-2.16-1-3.44.36a2.29,2.29,0,0,0-.39.54l-.07,0a.08.08,0,0,0,0-.11l-3.09-2.15a.11.11,0,0,0-.08,0v-.08l.29,0c1.32-.29,1.89-1.94,1.86-3.09,0-.13-.1-2.37-1.86-2.91a2.82,2.82,0,0,0-1.55,0l0-.09a.13.13,0,0,0,.09-.1L126.91,9a.14.14,0,0,0-.07-.18l.06-.09c1,.77,2.52.39,3.43-.22.1-.07,1.95-1.33,1.48-3.11a2.49,2.49,0,0,0-.67-1.17l.1-.1a.15.15,0,0,0,.19.09L135.16,3a.21.21,0,0,0,.13-.11l.09,0-.07.19c-.41,1.28.74,2.6,1.76,3.14.12.06,2.11,1.09,3.45-.16a2.86,2.86,0,0,0,.83-1.37l.1,0a.11.11,0,0,0,0,.14l3.17,2.6a.19.19,0,0,0,.14,0v.12a1.92,1.92,0,0,0-.41.05c-1.3.3-1.85,2-1.8,3.12,0,.13.14,2.36,1.9,2.88A3.54,3.54,0,0,0,146.4,13.72ZM137.59,15a2.31,2.31,0,1,0-3.26.3A2.29,2.29,0,0,0,137.59,15Z" style="fill:#423c25"/><path d="M141.73,22.75V36.18l-7.18-11.29A2.64,2.64,0,0,0,136,23.35v-.08l.13,0a.19.19,0,0,0,0,.1l4,6.31.23-7.53a.11.11,0,0,0,0-.08l.05-.08a2.77,2.77,0,0,0,1.29.49Z" style="fill:#fff"/><path d="M140.42,22.17l-.23,7.53-4-6.31a.19.19,0,0,1,0-.1.16.16,0,0,1,.12-.16l4-1.08a.11.11,0,0,1,.12,0A.11.11,0,0,1,140.42,22.17Z" style="fill:#423c25"/><path d="M137.29,11.72A2.31,2.31,0,1,1,134,12,2.29,2.29,0,0,1,137.29,11.72Z" style="fill:#fff"/><path d="M130.32-10l6.54,11.68a2.6,2.6,0,0,0-1.48,1.26l-.09,0a.19.19,0,0,0,0-.15l-3.32-6L131.23,4a.17.17,0,0,0,0,.07l-.1.1a2.77,2.77,0,0,0-1.76-.72Z" style="fill:#fff"/><path d="M135.27,2.74a.19.19,0,0,1,0,.15.21.21,0,0,1-.13.11l-3.73,1.17a.15.15,0,0,1-.19-.09.17.17,0,0,1,0-.07L132-3.23Z" style="fill:#423c25"/><path d="M130.41,23.53l-12,6.09,6.88-11.46a2.79,2.79,0,0,0,1.74.65v.08a.16.16,0,0,0-.14.08l-3.64,6.1,6.94-3.86,0,0,.07,0a1.51,1.51,0,0,0-.18.44A2.68,2.68,0,0,0,130.41,23.53Z" style="fill:#fff"/><path d="M130.15,21.07a.08.08,0,0,1,0,.11l0,0-6.94,3.86,3.64-6.1a.16.16,0,0,1,.14-.08.11.11,0,0,1,.08,0Z" style="fill:#423c25"/><path d="M126.84,8.77a.14.14,0,0,1,.07.18l-1.12,3.59a.13.13,0,0,1-.09.1.17.17,0,0,1-.12,0l-6.49-4,7.68.16Z" style="fill:#423c25"/><path d="M126.9,8.68l-.06.09h-.07l-7.68-.16,6.49,4a.17.17,0,0,0,.12,0l0,.09a2.53,2.53,0,0,0-1.49,1l-11.44-7,13.38-.23a2.58,2.58,0,0,0,.55,2Z" style="fill:#fff"/><path d="M144.8,7.68a2.87,2.87,0,0,1,1.63.63l6.71-11.57-11.93,6.2a2.57,2.57,0,0,1,.14,1.8,2.86,2.86,0,0,1-.83,1.37c-1.34,1.25-3.33.22-3.45.16-1-.54-2.17-1.86-1.76-3.14l.07-.19a2.6,2.6,0,0,1,1.48-1.26L130.32-10l-.94,13.46a2.77,2.77,0,0,1,1.76.72,2.49,2.49,0,0,1,.67,1.17c.47,1.78-1.38,3-1.48,3.11-.91.61-2.47,1-3.43.22l-.18-.15a2.58,2.58,0,0,1-.55-2l-13.38.23,11.44,7a2.53,2.53,0,0,1,1.49-1,2.82,2.82,0,0,1,1.55,0c1.76.54,1.86,2.78,1.86,2.91,0,1.15-.54,2.8-1.86,3.09l-.29,0a2.79,2.79,0,0,1-1.74-.65l-6.88,11.46,12-6.09a2.68,2.68,0,0,1-.35-1.88,1.51,1.51,0,0,1,.18-.44,2.29,2.29,0,0,1,.39-.54c1.28-1.33,3.32-.42,3.44-.36,1,.47,2.23,1.69,2,3v.08a2.64,2.64,0,0,1-1.46,1.54l7.18,11.29V22.5a2.77,2.77,0,0,1-1.29-.49,2.31,2.31,0,0,1-.92-1.51c-.35-1.8,1.58-2.94,1.69-3,1-.58,2.73-.85,3.6.17A1.6,1.6,0,0,1,145,18a2.75,2.75,0,0,1,.2,1.76l13.37.64L147.9,12.72a2.7,2.7,0,0,1-1.5,1,3.54,3.54,0,0,1-1.91,0c-1.76-.52-1.9-2.75-1.9-2.88-.05-1.16.5-2.82,1.8-3.12A1.92,1.92,0,0,1,144.8,7.68Z" style="fill:none;stroke:#423c25;stroke-miterlimit:10;stroke-width:0.5992138385772705px"/><path d="M130.17,21.18l0,0-6.94,3.86,3.64-6.1a.16.16,0,0,1,.14-.08.11.11,0,0,1,.08,0l3.09,2.15A.08.08,0,0,1,130.17,21.18Z" style="fill:none;stroke:#423c25;stroke-miterlimit:10;stroke-width:0.5992138385772705px"/><path d="M136.15,23.29a.19.19,0,0,0,0,.1l4,6.31.23-7.53a.11.11,0,0,0,0-.08.11.11,0,0,0-.12,0l-4,1.08A.16.16,0,0,0,136.15,23.29Z" style="fill:none;stroke:#423c25;stroke-miterlimit:10;stroke-width:0.5992138385772705px"/><path d="M146.4,13.74h0l6.12,4.63L145.16,18a.15.15,0,0,1-.09-.06s0,0,0-.06l1.3-4.14Z" style="fill:none;stroke:#423c25;stroke-miterlimit:10;stroke-width:0.5992138385772705px"/><path d="M141.45,4.77s0,0,.05,0l6.4-2.82L145,7.45a.23.23,0,0,1-.2.11.19.19,0,0,1-.14,0l-3.17-2.6A.11.11,0,0,1,141.45,4.77Z" style="fill:none;stroke:#423c25;stroke-miterlimit:10;stroke-width:0.5992138385772705px"/><path d="M135.29,2.89a.19.19,0,0,0,0-.15l-3.32-6L131.23,4a.17.17,0,0,0,0,.07.15.15,0,0,0,.19.09L135.16,3A.21.21,0,0,0,135.29,2.89Z" style="fill:none;stroke:#423c25;stroke-miterlimit:10;stroke-width:0.5992138385772705px"/><path d="M125.7,12.64a.17.17,0,0,1-.12,0l-6.49-4,7.68.16h.07a.14.14,0,0,1,.07.18l-1.12,3.59A.13.13,0,0,1,125.7,12.64Z" style="fill:none;stroke:#423c25;stroke-miterlimit:10;stroke-width:0.5992138385772705px"/><path d="M137.29,11.72A2.31,2.31,0,1,1,134,12,2.29,2.29,0,0,1,137.29,11.72Z" style="fill:none;stroke:#423c25;stroke-miterlimit:10;stroke-width:0.5992138385772705px"/><path d="M158.59,20.38l-13.37-.64A2.75,2.75,0,0,0,145,18l0,0a.15.15,0,0,0,.09.06l7.38.36-6.12-4.63h0v0a2.7,2.7,0,0,0,1.5-1Z" style="fill:#fff"/><path d="M153.14-3.26,146.43,8.31a2.87,2.87,0,0,0-1.63-.63V7.56a.23.23,0,0,0,.2-.11l2.91-5.54-6.4,2.82s0,0-.05,0l-.1,0a2.57,2.57,0,0,0-.14-1.8Z" style="fill:#fff"/><path d="M152.54,18.38,145.16,18a.15.15,0,0,1-.09-.06s0,0,0-.06l1.3-4.14,0,0h0Z" style="fill:#423c25"/><path d="M147.9,1.91,145,7.45a.23.23,0,0,1-.2.11.19.19,0,0,1-.14,0l-3.17-2.6a.11.11,0,0,1,0-.14s0,0,.05,0Z" style="fill:#423c25"/><path d="M146.4,13.72v0l0,0-1.3,4.14s0,0,0,.06l0,0a1.6,1.6,0,0,0-.21-.32c-.87-1-2.6-.75-3.6-.17-.11.07-2,1.21-1.69,3a2.31,2.31,0,0,0,.92,1.51l-.05.08a.11.11,0,0,0-.12,0l-4,1.08a.16.16,0,0,0-.12.16l-.13,0c.28-1.27-.92-2.49-2-3-.12-.06-2.16-1-3.44.36a2.29,2.29,0,0,0-.39.54l-.07,0a.08.08,0,0,0,0-.11l-3.09-2.15a.11.11,0,0,0-.08,0v-.08l.29,0c1.32-.29,1.89-1.94,1.86-3.09,0-.13-.1-2.37-1.86-2.91a2.82,2.82,0,0,0-1.55,0l0-.09a.13.13,0,0,0,.09-.1L126.91,9a.14.14,0,0,0-.07-.18l.06-.09c1,.77,2.52.39,3.43-.22.1-.07,1.95-1.33,1.48-3.11a2.49,2.49,0,0,0-.67-1.17l.1-.1a.15.15,0,0,0,.19.09L135.16,3a.21.21,0,0,0,.13-.11l.09,0-.07.19c-.41,1.28.74,2.6,1.76,3.14.12.06,2.11,1.09,3.45-.16a2.86,2.86,0,0,0,.83-1.37l.1,0a.11.11,0,0,0,0,.14l3.17,2.6a.19.19,0,0,0,.14,0v.12a1.92,1.92,0,0,0-.41.05c-1.3.3-1.85,2-1.8,3.12,0,.13.14,2.36,1.9,2.88A3.54,3.54,0,0,0,146.4,13.72ZM137.59,15a2.31,2.31,0,1,0-3.26.3A2.29,2.29,0,0,0,137.59,15Z" style="fill:#423c25"/><path d="M141.73,22.75V36.18l-7.18-11.29A2.64,2.64,0,0,0,136,23.35v-.08l.13,0a.19.19,0,0,0,0,.1l4,6.31.23-7.53a.11.11,0,0,0,0-.08l.05-.08a2.77,2.77,0,0,0,1.29.49Z" style="fill:#fff"/><path d="M140.42,22.17l-.23,7.53-4-6.31a.19.19,0,0,1,0-.1.16.16,0,0,1,.12-.16l4-1.08a.11.11,0,0,1,.12,0A.11.11,0,0,1,140.42,22.17Z" style="fill:#423c25"/><path d="M137.29,11.72A2.31,2.31,0,1,1,134,12,2.29,2.29,0,0,1,137.29,11.72Z" style="fill:#fff"/><path d="M130.32-10l6.54,11.68a2.6,2.6,0,0,0-1.48,1.26l-.09,0a.19.19,0,0,0,0-.15l-3.32-6L131.23,4a.17.17,0,0,0,0,.07l-.1.1a2.77,2.77,0,0,0-1.76-.72Z" style="fill:#fff"/><path d="M135.27,2.74a.19.19,0,0,1,0,.15.21.21,0,0,1-.13.11l-3.73,1.17a.15.15,0,0,1-.19-.09.17.17,0,0,1,0-.07L132-3.23Z" style="fill:#423c25"/><path d="M130.41,23.53l-12,6.09,6.88-11.46a2.79,2.79,0,0,0,1.74.65v.08a.16.16,0,0,0-.14.08l-3.64,6.1,6.94-3.86,0,0,.07,0a1.51,1.51,0,0,0-.18.44A2.68,2.68,0,0,0,130.41,23.53Z" style="fill:#fff"/><path d="M130.15,21.07a.08.08,0,0,1,0,.11l0,0-6.94,3.86,3.64-6.1a.16.16,0,0,1,.14-.08.11.11,0,0,1,.08,0Z" style="fill:#423c25"/><path d="M126.84,8.77a.14.14,0,0,1,.07.18l-1.12,3.59a.13.13,0,0,1-.09.1.17.17,0,0,1-.12,0l-6.49-4,7.68.16Z" style="fill:#423c25"/><path d="M126.9,8.68l-.06.09h-.07l-7.68-.16,6.49,4a.17.17,0,0,0,.12,0l0,.09a2.53,2.53,0,0,0-1.49,1l-11.44-7,13.38-.23a2.58,2.58,0,0,0,.55,2Z" style="fill:#fff"/><path d="M144.8,7.68a2.87,2.87,0,0,1,1.63.63l6.71-11.57-11.93,6.2a2.57,2.57,0,0,1,.14,1.8,2.86,2.86,0,0,1-.83,1.37c-1.34,1.25-3.33.22-3.45.16-1-.54-2.17-1.86-1.76-3.14l.07-.19a2.6,2.6,0,0,1,1.48-1.26L130.32-10l-.94,13.46a2.77,2.77,0,0,1,1.76.72,2.49,2.49,0,0,1,.67,1.17c.47,1.78-1.38,3-1.48,3.11-.91.61-2.47,1-3.43.22l-.18-.15a2.58,2.58,0,0,1-.55-2l-13.38.23,11.44,7a2.53,2.53,0,0,1,1.49-1,2.82,2.82,0,0,1,1.55,0c1.76.54,1.86,2.78,1.86,2.91,0,1.15-.54,2.8-1.86,3.09l-.29,0a2.79,2.79,0,0,1-1.74-.65l-6.88,11.46,12-6.09a2.68,2.68,0,0,1-.35-1.88,1.51,1.51,0,0,1,.18-.44,2.29,2.29,0,0,1,.39-.54c1.28-1.33,3.32-.42,3.44-.36,1,.47,2.23,1.69,2,3v.08a2.64,2.64,0,0,1-1.46,1.54l7.18,11.29V22.5a2.77,2.77,0,0,1-1.29-.49,2.31,2.31,0,0,1-.92-1.51c-.35-1.8,1.58-2.94,1.69-3,1-.58,2.73-.85,3.6.17A1.6,1.6,0,0,1,145,18a2.75,2.75,0,0,1,.2,1.76l13.37.64L147.9,12.72a2.7,2.7,0,0,1-1.5,1,3.54,3.54,0,0,1-1.91,0c-1.76-.52-1.9-2.75-1.9-2.88-.05-1.16.5-2.82,1.8-3.12A1.92,1.92,0,0,1,144.8,7.68Z" style="fill:none;stroke:#423c25;stroke-miterlimit:10;stroke-width:0.5992138385772705px"/><path d="M130.17,21.18l0,0-6.94,3.86,3.64-6.1a.16.16,0,0,1,.14-.08.11.11,0,0,1,.08,0l3.09,2.15A.08.08,0,0,1,130.17,21.18Z" style="fill:none;stroke:#423c25;stroke-miterlimit:10;stroke-width:0.5992138385772705px"/><path d="M136.15,23.29a.19.19,0,0,0,0,.1l4,6.31.23-7.53a.11.11,0,0,0,0-.08.11.11,0,0,0-.12,0l-4,1.08A.16.16,0,0,0,136.15,23.29Z" style="fill:none;stroke:#423c25;stroke-miterlimit:10;stroke-width:0.5992138385772705px"/><path d="M146.4,13.74h0l6.12,4.63L145.16,18a.15.15,0,0,1-.09-.06s0,0,0-.06l1.3-4.14Z" style="fill:none;stroke:#423c25;stroke-miterlimit:10;stroke-width:0.5992138385772705px"/><path d="M141.45,4.77s0,0,.05,0l6.4-2.82L145,7.45a.23.23,0,0,1-.2.11.19.19,0,0,1-.14,0l-3.17-2.6A.11.11,0,0,1,141.45,4.77Z" style="fill:none;stroke:#423c25;stroke-miterlimit:10;stroke-width:0.5992138385772705px"/><path d="M135.29,2.89a.19.19,0,0,0,0-.15l-3.32-6L131.23,4a.17.17,0,0,0,0,.07.15.15,0,0,0,.19.09L135.16,3A.21.21,0,0,0,135.29,2.89Z" style="fill:none;stroke:#423c25;stroke-miterlimit:10;stroke-width:0.5992138385772705px"/><path d="M125.7,12.64a.17.17,0,0,1-.12,0l-6.49-4,7.68.16h.07a.14.14,0,0,1,.07.18l-1.12,3.59A.13.13,0,0,1,125.7,12.64Z" style="fill:none;stroke:#423c25;stroke-miterlimit:10;stroke-width:0.5992138385772705px"/><path d="M137.29,11.72A2.31,2.31,0,1,1,134,12,2.29,2.29,0,0,1,137.29,11.72Z" style="fill:none;stroke:#423c25;stroke-miterlimit:10;stroke-width:0.5992138385772705px"/><path d="M158.59,20.38l-13.37-.64A2.75,2.75,0,0,0,145,18l0,0a.15.15,0,0,0,.09.06l7.38.36-6.12-4.63h0v0a2.7,2.7,0,0,0,1.5-1Z" style="fill:#fff"/><path d="M153.14-3.26,146.43,8.31a2.87,2.87,0,0,0-1.63-.63V7.56a.23.23,0,0,0,.2-.11l2.91-5.54-6.4,2.82s0,0-.05,0l-.1,0a2.57,2.57,0,0,0-.14-1.8Z" style="fill:#fff"/><path d="M152.54,18.38,145.16,18a.15.15,0,0,1-.09-.06s0,0,0-.06l1.3-4.14,0,0h0Z" style="fill:#423c25"/><path d="M147.9,1.91,145,7.45a.23.23,0,0,1-.2.11.19.19,0,0,1-.14,0l-3.17-2.6a.11.11,0,0,1,0-.14s0,0,.05,0Z" style="fill:#423c25"/><path d="M146.4,13.72v0l0,0-1.3,4.14s0,0,0,.06l0,0a1.6,1.6,0,0,0-.21-.32c-.87-1-2.6-.75-3.6-.17-.11.07-2,1.21-1.69,3a2.31,2.31,0,0,0,.92,1.51l-.05.08a.11.11,0,0,0-.12,0l-4,1.08a.16.16,0,0,0-.12.16l-.13,0c.28-1.27-.92-2.49-2-3-.12-.06-2.16-1-3.44.36a2.29,2.29,0,0,0-.39.54l-.07,0a.08.08,0,0,0,0-.11l-3.09-2.15a.11.11,0,0,0-.08,0v-.08l.29,0c1.32-.29,1.89-1.94,1.86-3.09,0-.13-.1-2.37-1.86-2.91a2.82,2.82,0,0,0-1.55,0l0-.09a.13.13,0,0,0,.09-.1L126.91,9a.14.14,0,0,0-.07-.18l.06-.09c1,.77,2.52.39,3.43-.22.1-.07,1.95-1.33,1.48-3.11a2.49,2.49,0,0,0-.67-1.17l.1-.1a.15.15,0,0,0,.19.09L135.16,3a.21.21,0,0,0,.13-.11l.09,0-.07.19c-.41,1.28.74,2.6,1.76,3.14.12.06,2.11,1.09,3.45-.16a2.86,2.86,0,0,0,.83-1.37l.1,0a.11.11,0,0,0,0,.14l3.17,2.6a.19.19,0,0,0,.14,0v.12a1.92,1.92,0,0,0-.41.05c-1.3.3-1.85,2-1.8,3.12,0,.13.14,2.36,1.9,2.88A3.54,3.54,0,0,0,146.4,13.72ZM137.59,15a2.31,2.31,0,1,0-3.26.3A2.29,2.29,0,0,0,137.59,15Z" style="fill:#423c25"/><path d="M141.73,22.75V36.18l-7.18-11.29A2.64,2.64,0,0,0,136,23.35v-.08l.13,0a.19.19,0,0,0,0,.1l4,6.31.23-7.53a.11.11,0,0,0,0-.08l.05-.08a2.77,2.77,0,0,0,1.29.49Z" style="fill:#fff"/><path d="M140.42,22.17l-.23,7.53-4-6.31a.19.19,0,0,1,0-.1.16.16,0,0,1,.12-.16l4-1.08a.11.11,0,0,1,.12,0A.11.11,0,0,1,140.42,22.17Z" style="fill:#423c25"/><path d="M137.29,11.72A2.31,2.31,0,1,1,134,12,2.29,2.29,0,0,1,137.29,11.72Z" style="fill:#fff"/><path d="M130.32-10l6.54,11.68a2.6,2.6,0,0,0-1.48,1.26l-.09,0a.19.19,0,0,0,0-.15l-3.32-6L131.23,4a.17.17,0,0,0,0,.07l-.1.1a2.77,2.77,0,0,0-1.76-.72Z" style="fill:#fff"/><path d="M135.27,2.74a.19.19,0,0,1,0,.15.21.21,0,0,1-.13.11l-3.73,1.17a.15.15,0,0,1-.19-.09.17.17,0,0,1,0-.07L132-3.23Z" style="fill:#423c25"/><path d="M130.41,23.53l-12,6.09,6.88-11.46a2.79,2.79,0,0,0,1.74.65v.08a.16.16,0,0,0-.14.08l-3.64,6.1,6.94-3.86,0,0,.07,0a1.51,1.51,0,0,0-.18.44A2.68,2.68,0,0,0,130.41,23.53Z" style="fill:#fff"/><path d="M130.15,21.07a.08.08,0,0,1,0,.11l0,0-6.94,3.86,3.64-6.1a.16.16,0,0,1,.14-.08.11.11,0,0,1,.08,0Z" style="fill:#423c25"/><path d="M126.84,8.77a.14.14,0,0,1,.07.18l-1.12,3.59a.13.13,0,0,1-.09.1.17.17,0,0,1-.12,0l-6.49-4,7.68.16Z" style="fill:#423c25"/><path d="M126.9,8.68l-.06.09h-.07l-7.68-.16,6.49,4a.17.17,0,0,0,.12,0l0,.09a2.53,2.53,0,0,0-1.49,1l-11.44-7,13.38-.23a2.58,2.58,0,0,0,.55,2Z" style="fill:#fff"/><path d="M144.8,7.68a2.87,2.87,0,0,1,1.63.63l6.71-11.57-11.93,6.2a2.57,2.57,0,0,1,.14,1.8,2.86,2.86,0,0,1-.83,1.37c-1.34,1.25-3.33.22-3.45.16-1-.54-2.17-1.86-1.76-3.14l.07-.19a2.6,2.6,0,0,1,1.48-1.26L130.32-10l-.94,13.46a2.77,2.77,0,0,1,1.76.72,2.49,2.49,0,0,1,.67,1.17c.47,1.78-1.38,3-1.48,3.11-.91.61-2.47,1-3.43.22l-.18-.15a2.58,2.58,0,0,1-.55-2l-13.38.23,11.44,7a2.53,2.53,0,0,1,1.49-1,2.82,2.82,0,0,1,1.55,0c1.76.54,1.86,2.78,1.86,2.91,0,1.15-.54,2.8-1.86,3.09l-.29,0a2.79,2.79,0,0,1-1.74-.65l-6.88,11.46,12-6.09a2.68,2.68,0,0,1-.35-1.88,1.51,1.51,0,0,1,.18-.44,2.29,2.29,0,0,1,.39-.54c1.28-1.33,3.32-.42,3.44-.36,1,.47,2.23,1.69,2,3v.08a2.64,2.64,0,0,1-1.46,1.54l7.18,11.29V22.5a2.77,2.77,0,0,1-1.29-.49,2.31,2.31,0,0,1-.92-1.51c-.35-1.8,1.58-2.94,1.69-3,1-.58,2.73-.85,3.6.17A1.6,1.6,0,0,1,145,18a2.75,2.75,0,0,1,.2,1.76l13.37.64L147.9,12.72a2.7,2.7,0,0,1-1.5,1,3.54,3.54,0,0,1-1.91,0c-1.76-.52-1.9-2.75-1.9-2.88-.05-1.16.5-2.82,1.8-3.12A1.92,1.92,0,0,1,144.8,7.68Z" style="fill:none;stroke:#423c25;stroke-miterlimit:10;stroke-width:0.5992138385772705px"/><path d="M130.17,21.18l0,0-6.94,3.86,3.64-6.1a.16.16,0,0,1,.14-.08.11.11,0,0,1,.08,0l3.09,2.15A.08.08,0,0,1,130.17,21.18Z" style="fill:none;stroke:#423c25;stroke-miterlimit:10;stroke-width:0.5992138385772705px"/><path d="M136.15,23.29a.19.19,0,0,0,0,.1l4,6.31.23-7.53a.11.11,0,0,0,0-.08.11.11,0,0,0-.12,0l-4,1.08A.16.16,0,0,0,136.15,23.29Z" style="fill:none;stroke:#423c25;stroke-miterlimit:10;stroke-width:0.5992138385772705px"/><path d="M146.4,13.74h0l6.12,4.63L145.16,18a.15.15,0,0,1-.09-.06s0,0,0-.06l1.3-4.14Z" style="fill:none;stroke:#423c25;stroke-miterlimit:10;stroke-width:0.5992138385772705px"/><path d="M141.45,4.77s0,0,.05,0l6.4-2.82L145,7.45a.23.23,0,0,1-.2.11.19.19,0,0,1-.14,0l-3.17-2.6A.11.11,0,0,1,141.45,4.77Z" style="fill:none;stroke:#423c25;stroke-miterlimit:10;stroke-width:0.5992138385772705px"/><path d="M135.29,2.89a.19.19,0,0,0,0-.15l-3.32-6L131.23,4a.17.17,0,0,0,0,.07.15.15,0,0,0,.19.09L135.16,3A.21.21,0,0,0,135.29,2.89Z" style="fill:none;stroke:#423c25;stroke-miterlimit:10;stroke-width:0.5992138385772705px"/><path d="M125.7,12.64a.17.17,0,0,1-.12,0l-6.49-4,7.68.16h.07a.14.14,0,0,1,.07.18l-1.12,3.59A.13.13,0,0,1,125.7,12.64Z" style="fill:none;stroke:#423c25;stroke-miterlimit:10;stroke-width:0.5992138385772705px"/><path d="M137.29,11.72A2.31,2.31,0,1,1,134,12,2.29,2.29,0,0,1,137.29,11.72Z" style="fill:none;stroke:#423c25;stroke-miterlimit:10;stroke-width:0.5992138385772705px"/></g><g id="b36daf86-8872-4285-adb0-6cf5bf292db9" data-name="Textes Cartes vecto"><g id="a812586f-b80c-4122-8cfa-e4bc7df30183" data-name="Calque 20 - copie"><path d="M16.32,27a.31.31,0,0,0-.15.09l-.2.2-.18.2c0,.06-.09.09-.13.09s-.23-.13-.22-.39a4.14,4.14,0,0,1,.11-.87c.07-.32.16-.63.25-.94a5.5,5.5,0,0,0,.18-.62A38.65,38.65,0,0,1,17.25,21c.48-1.22.9-2.46,1.26-3.71a.15.15,0,0,1,0-.11s0-.05,0-.05H16.92a.36.36,0,0,1,.12-.22.38.38,0,0,0,.13-.19v-.09c-.1-.12-.15-.2-.14-.24s.07-.1.17-.14a1.59,1.59,0,0,1,.33-.09,2.21,2.21,0,0,1,.35,0h.24l-.28-.18a1.24,1.24,0,0,1-.33,0,1.16,1.16,0,0,1-.28-.1.4.4,0,0,1-.19-.17.31.31,0,0,1,0-.27,1,1,0,0,1,.16-.26.67.67,0,0,1,.27-.2l.92-.16h.4l.89,0,1,0h3.91a.43.43,0,0,1-.17.28.79.79,0,0,1-.26.08l-.27.05a.38.38,0,0,0-.25.17.78.78,0,0,0-.05.32q0,.15,0,.27a2.11,2.11,0,0,1,0,.26.66.66,0,0,1,0,.3,2.35,2.35,0,0,1-.16.37,1.91,1.91,0,0,1-.34.38.64.64,0,0,1-.43.1l-.52,0a.62.62,0,0,0-.31.07,1.64,1.64,0,0,1-.07.21,2.56,2.56,0,0,1-.12.32l-.12.33a2.16,2.16,0,0,0-.08.24l-.09.3-.15.49-.25.74c-.08.26-.16.49-.25.72s-.14.37-.18.45L19,26.53a3.63,3.63,0,0,1-.15.39,1.34,1.34,0,0,1-.28.42.87.87,0,0,0-.53,0,.75.75,0,0,0-.28.2c-.07.09-.14.16-.21.24a.4.4,0,0,1-.31.1.34.34,0,0,1-.31-.15,2,2,0,0,1-.17-.32,2,2,0,0,0-.15-.33A.29.29,0,0,0,16.32,27Z" style="fill:#423c25"/><path d="M26.54,23.4h-.09l-.16.34-.19.56c-.09.26-.18.54-.28.82s-.2.57-.29.83-.15.45-.19.55a2.07,2.07,0,0,1-.09.31.75.75,0,0,1-.11.25.13.13,0,0,1-.14.09l-.09,0-.08,0s-.06,0-.06,0l-.16.66h-.09c-.09,0-.13,0-.13,0a.6.6,0,0,1-.51-.35.66.66,0,0,1,.13-.61.14.14,0,0,0-.09-.05h0a.25.25,0,0,0-.19.09l-.15.2a2.39,2.39,0,0,0-.13.21.37.37,0,0,1-.11.15h0l-.05,0h-.42l-.21,0-.21,0h-.12a.27.27,0,0,1-.33-.16,1.5,1.5,0,0,1-.09-.45,3,3,0,0,1,0-.52,2.38,2.38,0,0,1,.08-.35L22,26a1.07,1.07,0,0,1,.06-.17.31.31,0,0,0,0-.13v-.08l1.67-4.73a1.4,1.4,0,0,0,.07-.19c0-.1.06-.17.07-.2a.71.71,0,0,0,.12-.2,2.83,2.83,0,0,0,.15-.35l.14-.35.08-.21a1.1,1.1,0,0,1,.1-.23l.18-.37.22-.36a1.92,1.92,0,0,1,.16-.23l.14-.18.13-.16,0-.07,0-.09h-.2a3.16,3.16,0,0,1-.32,0,1.1,1.1,0,0,1-.29-.09c-.08,0-.12-.08-.11-.14l.13-.15.12-.17.29-.08.19-.06s.07,0,.06-.06l-.43-.21.09-.27s0-.05,0-.11a.2.2,0,0,0,0-.09.33.33,0,0,1,.17-.07l.19,0a.76.76,0,0,0,.16,0,.15.15,0,0,0,.09-.1l-.34-.49c-.09-.1-.05-.21.1-.31a2.37,2.37,0,0,1,.65-.29,9,9,0,0,1,1-.24L28,14.51l1-.12.59-.05a1.91,1.91,0,0,1,.6.06,2.67,2.67,0,0,0,.55.07.35.35,0,0,0,.19-.06.32.32,0,0,1,.17,0h.1a3.69,3.69,0,0,1,.83.32,5.61,5.61,0,0,1,.68.47,1.76,1.76,0,0,1,.48.45,1,1,0,0,1,.06.62l-.43.38.28.16,0,.34,0,.18a2.92,2.92,0,0,0,0,.88,2.26,2.26,0,0,1-.1.91.88.88,0,0,1-.52.67l-2,2.33-.07.3c.09.75.18,1.52.25,2.3a8.32,8.32,0,0,1-.14,2.38l-.36,0-.22,0L29.65,27l-.24,0a.51.51,0,0,0,0,.09v.08a.27.27,0,0,1,0,.08l-.13.17a2.79,2.79,0,0,1-.38.41.64.64,0,0,1-.37.21c-.09,0-.13,0-.15-.08a1.37,1.37,0,0,1,0-.19.59.59,0,0,0,0-.19.15.15,0,0,0-.16-.09.21.21,0,0,0-.13.07l-.17.15-.17.16a.58.58,0,0,1-.12.1.22.22,0,0,1-.13.09c-.14,0-.26-.07-.35-.26a2.59,2.59,0,0,1-.21-.72,9.07,9.07,0,0,1-.11-1q0-.54,0-1.05a9,9,0,0,1,0-.91c0-.27,0-.46,0-.57S26.65,23.4,26.54,23.4Zm.7-2.32,0,.16c0,.05,0,.09.1.11a1.92,1.92,0,0,0,.57-.15.76.76,0,0,0,.4-.37L29.45,19l.05-.18a.56.56,0,0,0,0-.36,2.13,2.13,0,0,0-.14-.35,3.78,3.78,0,0,1-.17-.35.69.69,0,0,1,0-.38c0-.09-.06-.14-.18-.14h-.05l-.31.06-.38.06-.34.05a.69.69,0,0,0-.18.05l-.17,0s-.05.06-.08.13l0,.05a.69.69,0,0,1,.53.26.79.79,0,0,1,0,.56,6,6,0,0,1-.42,1.32A7.87,7.87,0,0,0,27.24,21.08Z" style="fill:#423c25"/><path d="M33.05,19.81a1.66,1.66,0,0,1,.16-.37l.23-.38a4,4,0,0,0,.23-.39.81.81,0,0,0,.1-.35,2,2,0,0,1,.17-.26c.09-.12.18-.26.29-.4l.31-.41a1.6,1.6,0,0,1,.19-.25l.37-.45a3.34,3.34,0,0,1,.32-.33l.34-.28.44-.38a1.12,1.12,0,0,0,.18-.24.65.65,0,0,1,.24-.24,3.31,3.31,0,0,1,.88-.4,9.09,9.09,0,0,1,1.17-.29c.4-.08.79-.14,1.16-.19a7.13,7.13,0,0,1,.89-.07c.23,0,.32.09.27.28a.32.32,0,0,1-.12.18.86.86,0,0,1-.18.14l-.17.12a.24.24,0,0,0-.1.15.12.12,0,0,0,.07.17l.24.08.27.05c.09,0,.14,0,.15.1l.31.64.09.26,0,.18a1.09,1.09,0,0,0,.05.17,1.23,1.23,0,0,0,.13.26,2.72,2.72,0,0,0,.19.3,1.67,1.67,0,0,1,.13.2.68.68,0,0,1,0,.23,1.52,1.52,0,0,1-.07.39,5.13,5.13,0,0,1-.25.72,5.05,5.05,0,0,0-.27.74v0a1.67,1.67,0,0,0-.07.44c0,.23-.05.49-.08.75s-.06.52-.09.76a2.76,2.76,0,0,1-.07.42V22a.15.15,0,0,0,0,.1.65.65,0,0,1,0,.15v.07l0,.09-.05.11a.66.66,0,0,1,0,.11l0,.09a.53.53,0,0,1-.29.14c-.12,0-.19.08-.21.16a.13.13,0,0,0,0,.15l.1.1.1.11a.18.18,0,0,1,.06.14,1.4,1.4,0,0,0-.07.37,1.72,1.72,0,0,1-.06.42,2.22,2.22,0,0,1-.55.86,10.19,10.19,0,0,1-1,1c-.36.32-.73.62-1.1.9s-.66.51-.88.69a.78.78,0,0,0,0,.07c0,.07,0,.13,0,.16a.15.15,0,0,1,0,.16c0,.11-.19.18-.46.21a7.45,7.45,0,0,1-.79,0h-.36a4.69,4.69,0,0,1-.59-.07,6.23,6.23,0,0,1-.81-.18,4.57,4.57,0,0,1-.74-.26q-.33-.13-.39-.3a1,1,0,0,0-.16-.29l-.21-.29a2.75,2.75,0,0,1-.17-.29.5.5,0,0,1,0-.32l0-.12.08-.25.05-.22,0-.12a.28.28,0,0,0-.1-.2.2.2,0,0,1-.07-.21.45.45,0,0,1-.06-.22l0-.34a1.89,1.89,0,0,1,0-.32c0-.11,0-.18,0-.2a7.13,7.13,0,0,1,.09-.94,8.56,8.56,0,0,1,.23-.94c.09-.33.19-.64.28-.93a6.79,6.79,0,0,0,.2-.94s0-.07,0-.16-.06-.13-.05-.14V20A.29.29,0,0,1,33.05,19.81Zm2.08,4.05a.82.82,0,0,0,0,.31c0,.14.1.29.16.44a4.1,4.1,0,0,0,.21.42q.1.18.18.18A.46.46,0,0,0,36,25a.88.88,0,0,1,.26-.21l.17-.16.26-.27.29-.28.2-.17,0-.12c.09-.29.16-.57.22-.84s.12-.53.17-.8.12-.52.19-.79.15-.55.25-.84a2.6,2.6,0,0,1,0-.35,3.12,3.12,0,0,1,.06-.41c0-.14.05-.27.07-.39a2.28,2.28,0,0,1,.07-.3,1.75,1.75,0,0,1,.14-.27,2.57,2.57,0,0,0,.13-.27v0a.19.19,0,0,1,0-.09l0-.07,0-.08a.41.41,0,0,0,0-.4,1,1,0,0,0-.3-.21l-.3-.15c-.09,0-.11-.1,0-.17h-.2a.09.09,0,0,0-.09.05,1,1,0,0,0-.07.2l-1,1.4-.05.16a1.21,1.21,0,0,0,0,.5,1,1,0,0,1,0,.51A13.93,13.93,0,0,1,35.81,22,13.2,13.2,0,0,0,35.13,23.86Z" style="fill:#423c25"/><path d="M44.88,22.86l-1,2.72a3.06,3.06,0,0,1-.31.72,3.44,3.44,0,0,0-.33.75,1.27,1.27,0,0,0,0,.24,1.11,1.11,0,0,0,0,.23.38.38,0,0,1-.25.15h-.23a1.36,1.36,0,0,1-.59-.1,1.41,1.41,0,0,1-.35-.2.92.92,0,0,1-.17-.21c0-.07-.08-.1-.11-.1l-.16.54a.19.19,0,0,1-.12.05l-.17,0c-.14,0-.24-.09-.29-.26a2.6,2.6,0,0,1-.07-.6,5.34,5.34,0,0,1,.05-.69,4.64,4.64,0,0,1,.08-.51l.09-.31c0-.15.08-.31.11-.46a5,5,0,0,1,.12-.49l.09-.28a24.17,24.17,0,0,1,1-2.83c.37-.92.7-1.86,1-2.82l0-.13.06-.25v0a.52.52,0,0,0,0-.21c0-.1,0-.21,0-.32s0-.22-.06-.32a.69.69,0,0,1,0-.17v-.2a.39.39,0,0,1,0-.18,1.57,1.57,0,0,1,.25-.48,2.52,2.52,0,0,0,.32-.56c0-.12.12-.19.22-.2a1.06,1.06,0,0,1,.3,0l.31.08a.22.22,0,0,0,.21,0l-.43-.79s.07,0,.22,0a3.06,3.06,0,0,1,.54,0l.72,0c.26,0,.5.05.73.09a2.65,2.65,0,0,1,.58.18.5.5,0,0,1,.29.28,1,1,0,0,1,0,.48c0,.2-.07.42-.11.65s-.08.44-.11.65a1.06,1.06,0,0,0,0,.48l0,.27.41.33.15.12-.49.41L48,20.49c.35-.37.68-.73,1-1.09s.56-.72.81-1.08.49-.71.72-1.07.46-.7.71-1.06c0,0,0-.07.15-.13l.3-.19.31-.2c.09-.06.14-.1.14-.13a3,3,0,0,0,.19-.35,1.53,1.53,0,0,1,.19-.3.84.84,0,0,1,.27-.22,1.08,1.08,0,0,1,.46-.08l.27,0c.15,0,.23,0,.25.07a1.55,1.55,0,0,0,0,.15.23.23,0,0,1,0,.14.59.59,0,0,0,0,.08,1.1,1.1,0,0,0-.07.17.52.52,0,0,0,.33-.11,2.75,2.75,0,0,0,.26-.22,2,2,0,0,1,.26-.23.56.56,0,0,1,.35-.1,1.61,1.61,0,0,0-.08.3.87.87,0,0,1-.08.29c0,.07,0,.15.13.24a.83.83,0,0,1,.18.24l-.07.25a3.73,3.73,0,0,1-.15.38.57.57,0,0,0-.05.38l.07.37a1.9,1.9,0,0,1,0,.47l-.06.34c0,.1-.06.21-.1.33l-.15.49-.43,1.41c-.15.45-.29.9-.43,1.34s-.29.89-.43,1.34-.27.93-.42,1.42a5.76,5.76,0,0,0-.14.61c0,.25-.1.51-.15.79s-.11.54-.16.8a6.81,6.81,0,0,1-.18.67,1,1,0,0,1-.23.24l-.28.22h-.11l-.25-.21h0a.57.57,0,0,0-.38.11,2.37,2.37,0,0,1-.3.23h-.11l-.14-.09h-.09a.28.28,0,0,0-.15,0,.49.49,0,0,1-.23.05c-.33,0-.54-.05-.62-.15a.75.75,0,0,1,0-.57l.69-2.76.21-1.06c0-.12.05-.25.08-.4s0-.23,0-.24l0-.07c-.05,0-.07,0-.07.07a.91.91,0,0,0-.22.2.81.81,0,0,1-.19.19,4.13,4.13,0,0,0-.3.45l-.46.75c-.17.28-.34.56-.52.84a5.67,5.67,0,0,1-.5.69l.07.32a.68.68,0,0,1-.24.36.63.63,0,0,0-.24.34l-.07.25a1.89,1.89,0,0,1-.2.2.56.56,0,0,0-.16.19l-.29.65c-.15,0-.24,0-.27-.1a.53.53,0,0,1,0-.22,1.62,1.62,0,0,0,0-.23c0-.06-.09-.1-.22-.1a.4.4,0,0,0,0,.17.08.08,0,0,1,0,.08,1.19,1.19,0,0,1-.18.29l-.13,0-.18,0-.18,0h-.09a.31.31,0,0,1-.22-.18.64.64,0,0,1-.07-.28,2,2,0,0,1,0-.35c0-.13,0-.25,0-.37a.56.56,0,0,0,0-.24.92.92,0,0,1,0-.23s0-.14,0-.33,0-.4,0-.65,0-.53,0-.83,0-.57,0-.82a6.38,6.38,0,0,0,0-.66.46.46,0,0,0-.13-.33Z" style="fill:#423c25"/><path d="M57.84,23.14l-.36.78-.17.52c-.07.25-.16.51-.26.78s-.18.54-.26.78-.13.42-.17.53l0,.13-.09.27a1.28,1.28,0,0,0-.07.16c0,.06,0,.09-.13.09l-.09,0-.09,0s0,0,0,0l-.16.66h-.09a.32.32,0,0,1-.15,0,1.7,1.7,0,0,0-.39,0l-.36,0a.7.7,0,0,1-.24,0c-.06,0-.07-.08,0-.18s0-.05,0-.12,0-.14.07-.24l.06-.23,0-.13s0,0,0,0a.07.07,0,0,0,0-.06h-.07a.24.24,0,0,0-.2.09,1.91,1.91,0,0,0-.14.21l-.1.22a.37.37,0,0,1-.12.17h-.07l-.18-.06H53.7a.23.23,0,0,0-.12.06.07.07,0,0,1-.09,0,3.19,3.19,0,0,1-.16-.41c0-.15-.07-.29-.1-.43s0-.26,0-.38a.63.63,0,0,1,0-.29l0-.13.09-.3,0-.09,1.7-4.66s0,0,.09-.09l.2-.16.2-.17.09-.1a.38.38,0,0,0,0-.16c0-.1,0-.2,0-.31s0-.22,0-.32a1.26,1.26,0,0,0,0-.16,1.81,1.81,0,0,0,.09-.23l.17-.39q.09-.21.18-.39a.69.69,0,0,1,.17-.21.8.8,0,0,1,.12-.15,1.14,1.14,0,0,1,.14-.15l0-.18h-.2l-.33,0a1.32,1.32,0,0,1-.3-.08c-.08,0-.11-.08-.09-.14a1.18,1.18,0,0,1,.1-.16l.12-.18,0,0a.28.28,0,0,0,0-.08s0,0,.08-.06l.41-.27-.23-.25s0-.07,0-.1a.12.12,0,0,0,0-.08.51.51,0,0,1,.29-.15c.09,0,.15-.08.18-.19a.48.48,0,0,0,0-.19c0-.09,0-.19-.08-.28a1,1,0,0,1-.05-.27.17.17,0,0,1,0-.16,1.65,1.65,0,0,1,.55-.28,6.6,6.6,0,0,1,.77-.2,8,8,0,0,1,.89-.11l.87-.07.72,0h.49l.61,0h.71a5.17,5.17,0,0,1,.86.33,3.36,3.36,0,0,1,.7.48,1.76,1.76,0,0,1,.48.44,1,1,0,0,1,.06.6,8.12,8.12,0,0,1,0,.91c0,.27,0,.5-.08.7s-.06.39-.1.56a4.64,4.64,0,0,0-.07.48,7.37,7.37,0,0,1-.36,1c-.17.37-.34.74-.53,1.1s-.4.71-.61,1a6.66,6.66,0,0,1-.61.79c-.33.13-.65.26-1,.38s-.71.23-1.13.34l-1.18.21a.11.11,0,0,1,.06-.11s0,0,0,0Zm.75-2s0,.09,0,.15,0,.11.12.12a.86.86,0,0,0,.4-.14,1.28,1.28,0,0,0,.29-.36l1-2,.05-.18a2.25,2.25,0,0,0,0-.78,3.39,3.39,0,0,1,0-.78q0-.15-.18-.15h.18l-.29.07-.4.08-.36.07c-.12,0-.18,0-.19.05l-.16,0s-.05.06-.08.13v.07c.28,0,.45.11.49.26a1.18,1.18,0,0,1,0,.58A6.27,6.27,0,0,1,59,19.79,6.85,6.85,0,0,0,58.59,21.17Z" style="fill:#423c25"/><path d="M63.11,25.74a5.31,5.31,0,0,1,.41-1,5.64,5.64,0,0,0,.4-1q.28-1,.45-1.95c.11-.62.25-1.26.43-1.92a7.25,7.25,0,0,1,.45-1.14,7.36,7.36,0,0,0,.44-1.12l0-.07.06-.23v-.06q0-.11-.18-.15a.5.5,0,0,0-.32,0l-.36-.4v-.09c.16-.17.28-.32.38-.43s.18-.2.26-.29a.5.5,0,0,0,.12-.17s0,0,.08,0l.18,0a1.3,1.3,0,0,1,.27,0,.75.75,0,0,0-.18-.14.54.54,0,0,0-.35-.13,0,0,0,0,1,0-.07A.51.51,0,0,1,66,15a2.91,2.91,0,0,1,.61-.2,4.16,4.16,0,0,1,.73-.09l.68,0h.39c.45,0,.91,0,1.37.05s.92,0,1.37,0a1.66,1.66,0,0,0,.42,0,1.75,1.75,0,0,1,.43-.05l0,.17c0,.09-.06.15-.07.16a.83.83,0,0,1-.14.19.86.86,0,0,0-.15.2l0,.16-.45.27.31.27-.06.16a.83.83,0,0,1-.36.41,3.31,3.31,0,0,1-.59.32,3.79,3.79,0,0,1-.65.21,2.94,2.94,0,0,1-.53.1l-.11.07a1.08,1.08,0,0,0-.07.18l-.09.34-.12.39c0,.12-.07.23-.1.31l0,.09a.25.25,0,0,0,0,.13.14.14,0,0,1-.08.14l-.4.2.34,0c.06,0,.07,0,0,.1a.73.73,0,0,0-.09.18l0,.09q0,.09.06.09h.09a3.75,3.75,0,0,0,.79-.09,3.61,3.61,0,0,1,.79-.09c.16,0,.27.05.31.15a.55.55,0,0,1,0,.34.57.57,0,0,1-.23.25,4.53,4.53,0,0,1-.44.23l-.42.21c-.12.06-.19.11-.2.15s0,0,.12.07l.3.09a.93.93,0,0,1,.26.15.23.23,0,0,1,0,.28.89.89,0,0,1-.38.49A1.8,1.8,0,0,1,69,22l-.6.09a1.9,1.9,0,0,0-.57.18,1.21,1.21,0,0,0-.14.26c-.06.15-.13.32-.19.5l-.19.51a3.23,3.23,0,0,0-.11.31v0a1.78,1.78,0,0,1,0,.28c0,.11,0,.22,0,.33s0,.24-.06.39H68.6q.23,0,.18.18a.89.89,0,0,0-.06.31c0,.05,0,.08.09.11l.18.11a.5.5,0,0,1,.15.17.53.53,0,0,1,0,.31.49.49,0,0,1-.26.25,4.72,4.72,0,0,1-.45.16l-.45.15a.33.33,0,0,0-.24.22c.09.15.14.23.12.24v.07a.35.35,0,0,1-.25.27,3.58,3.58,0,0,1-.45.05l-.83.1a4.41,4.41,0,0,1-.7.06,1.39,1.39,0,0,1-.39-.05l-.63-.16-.3.16a.53.53,0,0,1-.31,0,1.33,1.33,0,0,0-.32,0h-.22a1,1,0,0,1-.49-.8A3.25,3.25,0,0,1,63.11,25.74Z" style="fill:#423c25"/><path d="M74.46,23.4h-.09l-.16.34-.19.56c-.09.26-.18.54-.29.82l-.28.83c-.09.26-.16.45-.19.55a2.07,2.07,0,0,1-.09.31.75.75,0,0,1-.11.25.13.13,0,0,1-.14.09l-.09,0-.08,0s-.06,0-.06,0l-.17.66h-.09c-.08,0-.12,0-.12,0a.59.59,0,0,1-.51-.35.66.66,0,0,1,.13-.61.14.14,0,0,0-.09-.05h0a.23.23,0,0,0-.19.09,1,1,0,0,0-.15.2,2.39,2.39,0,0,0-.13.21.48.48,0,0,1-.11.15h0l-.06,0h-.41l-.21,0-.21,0h-.12a.27.27,0,0,1-.33-.16,1.5,1.5,0,0,1-.09-.45,3,3,0,0,1,0-.52,1.52,1.52,0,0,1,.08-.35l0-.13.07-.17a.59.59,0,0,0,0-.13l0-.08,1.67-4.73.07-.19c0-.1.06-.17.07-.2a.71.71,0,0,0,.12-.2c.05-.11.1-.22.15-.35s.09-.24.14-.35a1.59,1.59,0,0,1,.08-.21,1.1,1.1,0,0,1,.1-.23l.18-.37.22-.36a1.19,1.19,0,0,1,.16-.23l.13-.18.14-.16,0-.07v-.09H73.1l-.33,0a1.15,1.15,0,0,1-.28-.09c-.09,0-.12-.08-.11-.14l.13-.15.12-.17.29-.08.19-.06s.07,0,.06-.06l-.43-.21.09-.27s0-.05,0-.11a.2.2,0,0,0,0-.09.29.29,0,0,1,.17-.07l.19,0,.16,0a.22.22,0,0,0,.09-.1l-.34-.49c-.09-.1-.06-.21.09-.31a2.61,2.61,0,0,1,.66-.29,8.81,8.81,0,0,1,1-.24l1.09-.19,1-.12.59-.05a1.94,1.94,0,0,1,.6.06,2.67,2.67,0,0,0,.55.07.35.35,0,0,0,.19-.06.29.29,0,0,1,.17,0h.1a3.69,3.69,0,0,1,.83.32,5.61,5.61,0,0,1,.68.47,1.76,1.76,0,0,1,.48.45,1,1,0,0,1,.06.62l-.43.38.28.16,0,.34-.06.18a2.91,2.91,0,0,0,0,.88,2.26,2.26,0,0,1-.1.91.9.9,0,0,1-.52.67l-2,2.33-.07.3c.09.75.18,1.52.25,2.3a8,8,0,0,1-.15,2.38l-.35,0-.22,0L77.57,27l-.24,0a.51.51,0,0,0,0,.09v.08a.18.18,0,0,1,0,.08.91.91,0,0,1-.12.17,2.79,2.79,0,0,1-.38.41.64.64,0,0,1-.37.21c-.09,0-.14,0-.15-.08a1.37,1.37,0,0,1,0-.19.59.59,0,0,0,0-.19.15.15,0,0,0-.16-.09.19.19,0,0,0-.13.07l-.18.15-.17.16a.41.41,0,0,1-.11.1.25.25,0,0,1-.13.09c-.14,0-.26-.07-.35-.26a2.59,2.59,0,0,1-.21-.72,7.13,7.13,0,0,1-.11-1c0-.36,0-.71,0-1.05s0-.64,0-.91,0-.46,0-.57S74.57,23.4,74.46,23.4Zm.7-2.32,0,.16c0,.05,0,.09.1.11a2,2,0,0,0,.57-.15.76.76,0,0,0,.4-.37L77.36,19l.06-.18a.73.73,0,0,0,0-.36,2.17,2.17,0,0,0-.15-.35,3.73,3.73,0,0,1-.16-.35.69.69,0,0,1,0-.38c0-.09-.06-.14-.18-.14h-.06l-.3.06-.39.06-.33.05a.69.69,0,0,0-.18.05l-.17,0s0,.06-.08.13l0,.05a.69.69,0,0,1,.53.26.85.85,0,0,1,0,.56,6,6,0,0,1-.42,1.32A7,7,0,0,0,75.16,21.08Z" style="fill:#423c25"/><path d="M79.37,27.46l.22-.71c.32-1.27.63-2.5.94-3.69s.63-2.41,1-3.68l0-.14a1.45,1.45,0,0,1,.06-.19,1.09,1.09,0,0,1,0-.14l0-.09a.57.57,0,0,1,.06-.12,1.71,1.71,0,0,1,.12-.23,2.53,2.53,0,0,0,.13-.22.58.58,0,0,0,0-.13l.08-.19c0-.11.09-.22.14-.34s.09-.24.13-.35.07-.19.08-.23.05-.14.09-.25.07-.22.11-.36l.12-.43.13-.43a3.34,3.34,0,0,0,.08-.35,2.08,2.08,0,0,1,.06-.24l.2-.08.39-.13.58-.2a.32.32,0,0,1,.29.12.46.46,0,0,1,.1.25,2.28,2.28,0,0,1,0,.26c0,.07,0,.1.07.1h.06A1.12,1.12,0,0,0,85,15c.06,0,.1,0,.11-.1s0-.06,0-.06a1.18,1.18,0,0,1,.28,0l.2,0a1.46,1.46,0,0,1,.16.17l.13.15H86l.43-.16h.1s0,0,0,.08a.14.14,0,0,0,.1.08l-.11.36A25.23,25.23,0,0,1,85.71,18c-.33.83-.67,1.68-1,2.55a1.11,1.11,0,0,1-.26.42.82.82,0,0,0-.25.41,1.47,1.47,0,0,0-.06.59,2,2,0,0,1,0,.55L84,23l-.33,1.13-.11.37c-.13.46-.26.95-.4,1.47a9.42,9.42,0,0,1-.55,1.54c0,.06-.07.1-.12.1H82.4c-.05,0-.08,0-.1,0h-.1A.63.63,0,0,0,82,27.2a.61.61,0,0,0-.4-.09h-.12a.27.27,0,0,0-.13.05l-.22.22-.27,0a.45.45,0,0,0-.25.06.31.31,0,0,0-.12.06l-.19.12-.18.14-.1.08A1,1,0,0,1,79.37,27.46Z" style="fill:#423c25"/><path d="M84.66,25.74a6,6,0,0,1,.4-1,5,5,0,0,0,.41-1,17.86,17.86,0,0,0,.44-1.95c.11-.62.26-1.26.44-1.92a7.16,7.16,0,0,1,.44-1.14,8.73,8.73,0,0,0,.45-1.12l0-.07,0-.23,0-.06q0-.11-.18-.15a.49.49,0,0,0-.32,0l-.36-.4v-.09c.16-.17.28-.32.38-.43l.26-.29a.58.58,0,0,0,.11-.17s0,0,.08,0l.18,0a1.55,1.55,0,0,1,.28,0,.75.75,0,0,0-.18-.14.59.59,0,0,0-.36-.13.09.09,0,0,1,0-.07.53.53,0,0,1,.32-.34,2.73,2.73,0,0,1,.61-.2,4.17,4.17,0,0,1,.72-.09l.68,0H90c.45,0,.91,0,1.37.05s.92,0,1.37,0a1.66,1.66,0,0,0,.42,0,1.73,1.73,0,0,1,.42-.05l0,.17c0,.09-.06.15-.07.16a1,1,0,0,1-.15.19,1.06,1.06,0,0,0-.14.2l0,.16-.45.27.3.27,0,.16a.83.83,0,0,1-.36.41,3.7,3.7,0,0,1-.59.32,4.2,4.2,0,0,1-.66.21,2.79,2.79,0,0,1-.53.1l-.1.07a1.08,1.08,0,0,0-.07.18l-.09.34-.12.39c0,.12-.08.23-.1.31l0,.09a.18.18,0,0,0,0,.13.14.14,0,0,1-.08.14l-.4.2.34,0c.06,0,.07,0,0,.1a.73.73,0,0,0-.09.18l0,.09q0,.09.06.09h.09a3.59,3.59,0,0,0,.78-.09,3.75,3.75,0,0,1,.79-.09c.17,0,.28.05.32.15a.55.55,0,0,1,0,.34.61.61,0,0,1-.24.25,3.45,3.45,0,0,1-.43.23l-.42.21a.5.5,0,0,0-.21.15s0,0,.13.07l.3.09a1.1,1.1,0,0,1,.26.15.23.23,0,0,1,0,.28.89.89,0,0,1-.38.49,1.8,1.8,0,0,1-.54.17l-.6.09a2,2,0,0,0-.58.18,2.8,2.8,0,0,0-.13.26c-.07.15-.13.32-.2.5s-.13.35-.19.51a2.37,2.37,0,0,0-.1.31v0a1.78,1.78,0,0,1,0,.28c0,.11,0,.22,0,.33s0,.24-.07.39h1.55c.15,0,.21.06.17.18a1.18,1.18,0,0,0,0,.31c0,.05,0,.08.09.11l.18.11a.39.39,0,0,1,.14.17.41.41,0,0,1,0,.31.43.43,0,0,1-.26.25,3.72,3.72,0,0,1-.44.16l-.45.15a.33.33,0,0,0-.24.22q.13.22.12.24l0,.07a.35.35,0,0,1-.24.27,3.78,3.78,0,0,1-.46.05l-.82.1a4.51,4.51,0,0,1-.7.06,1.39,1.39,0,0,1-.39-.05l-.63-.16-.31.16a.49.49,0,0,1-.3,0,1.33,1.33,0,0,0-.32,0H85a1,1,0,0,1-.49-.8A3.25,3.25,0,0,1,84.66,25.74Z" style="fill:#423c25"/><path d="M16.77,47.35H18.2L21,54.76,19.66,55l-.72-2H15.87L15,55.4,13.82,55ZM16.24,52h2.35l-1.1-3.46h0Z" style="fill:#423c25"/><path d="M23.11,49l0,1a1.71,1.71,0,0,1,.74-.69A2.32,2.32,0,0,1,25,49a2.19,2.19,0,0,1,1.2.39A2.09,2.09,0,0,1,27,50.46a4.93,4.93,0,0,1,.25,1.42V52A5.12,5.12,0,0,1,27,53.43a2.25,2.25,0,0,1-.83,1.26,1.86,1.86,0,0,1-1.12.31,3,3,0,0,1-.5,0,1.7,1.7,0,0,1-1.42-1.06l.05,2.88H22V49Zm2.93,3a2.49,2.49,0,0,0-.36-1.34,1.18,1.18,0,0,0-1-.62,1.3,1.3,0,0,0-1.1.56,2.2,2.2,0,0,0-.37,1.33v.07c0,1.31.48,2,1.38,2a1.28,1.28,0,0,0,1.1-.61A2.39,2.39,0,0,0,26,52Z" style="fill:#423c25"/><path d="M31.82,50.59a1.62,1.62,0,0,0-.79-.24h-.12a1.31,1.31,0,0,0-.68.25,1.92,1.92,0,0,0-.45.52,3.53,3.53,0,0,0-.22,1.39L29.5,55l-1.1,0L28.3,49l1.15-.13.05,1.33a1.81,1.81,0,0,1,1-.94,1.53,1.53,0,0,1,.54-.09,3.28,3.28,0,0,1,1.12.24Z" style="fill:#423c25"/><path d="M34.43,52.58a2.11,2.11,0,0,0,.41,1.34,1.34,1.34,0,0,0,.91.39h.13a1.45,1.45,0,0,0,.8-.22,1.64,1.64,0,0,0,.57-1l1.17.23a3.45,3.45,0,0,1-.65,1.25,1.85,1.85,0,0,1-1.19.65,4.56,4.56,0,0,1-.72.06,3.35,3.35,0,0,1-.71-.07A2.16,2.16,0,0,1,34,54.58a2.59,2.59,0,0,1-.66-1.24,4.61,4.61,0,0,1-.12-1c0-.13,0-.25,0-.38a3.33,3.33,0,0,1,.36-1.32,2.08,2.08,0,0,1,.78-.89,2.63,2.63,0,0,1,1-.39,3.64,3.64,0,0,1,.6,0l.59,0a2,2,0,0,1,1.29.8,4,4,0,0,1,.59,2.45Zm1-6.16,1.14,1.91-.89.21-1.53-1.75Zm1.67,5.25a1.62,1.62,0,0,0-.38-1,1.22,1.22,0,0,0-.94-.42,1.31,1.31,0,0,0-1,.4,1.41,1.41,0,0,0-.4,1Z" style="fill:#423c25"/><path d="M39.47,53.21,40.59,53c.06.57.27.89.65,1a3.14,3.14,0,0,0,.71.09l.28,0a.93.93,0,0,0,.59-.24.79.79,0,0,0,.19-.36.13.13,0,0,0,0-.06.39.39,0,0,0-.1-.26,1,1,0,0,0-.28-.27,5.84,5.84,0,0,0-1-.34c-.56-.16-1-.3-1.21-.4a1.64,1.64,0,0,1-.59-.43,1.31,1.31,0,0,1-.24-.71v-.09a1.66,1.66,0,0,1,.17-.73,1.37,1.37,0,0,1,.65-.63,2.65,2.65,0,0,1,1-.3,2.55,2.55,0,0,1,.39,0,3.27,3.27,0,0,1,.54,0,2.43,2.43,0,0,1,.9.36A2.24,2.24,0,0,1,43.93,51l-1,.14c-.14-.48-.33-.75-.55-.83a2.23,2.23,0,0,0-.56-.08h-.11a1,1,0,0,0-.57.2.54.54,0,0,0-.26.41v0a.42.42,0,0,0,.15.34,2.44,2.44,0,0,0,1,.34A6.17,6.17,0,0,1,43.3,52a1.35,1.35,0,0,1,.72.63,2,2,0,0,1,.14.75v0a1.55,1.55,0,0,1-.23.79,1.8,1.8,0,0,1-.76.62,3,3,0,0,1-1.29.26H41.8A3.63,3.63,0,0,1,40.7,55,1.72,1.72,0,0,1,40,54.5,2.33,2.33,0,0,1,39.47,53.21Z" style="fill:#423c25"/><path d="M51,55.61,51,54.28a1.69,1.69,0,0,1-.94.92,2,2,0,0,1-.75.14,2,2,0,0,1-.43,0,1.63,1.63,0,0,1-1-.62,2.67,2.67,0,0,1-.51-1.12,16.24,16.24,0,0,1-.08-2.11c0-.67,0-1.48,0-2.44l1.11,0c0,.75,0,1.4,0,2a21.31,21.31,0,0,0,.06,2.23,1.08,1.08,0,0,0,.36.69,1.13,1.13,0,0,0,.71.25h0a1,1,0,0,0,.66-.22,2.16,2.16,0,0,0,.44-.58,3.58,3.58,0,0,0,.22-1.43L51,49.46l1.14-.08.09,6.11Z" style="fill:#423c25"/><path d="M54.39,49l0,1.33a1.77,1.77,0,0,1,1-.92,2.21,2.21,0,0,1,.75-.14,2,2,0,0,1,.43,0,1.61,1.61,0,0,1,1,.61A2.65,2.65,0,0,1,58,51.07a12.58,12.58,0,0,1,.07,1.79c0,.72,0,1.64,0,2.76l-1.1,0c0-.95,0-1.75,0-2.37a14.31,14.31,0,0,0-.06-1.81,1.1,1.1,0,0,0-.36-.7,1.07,1.07,0,0,0-.71-.24h0a.92.92,0,0,0-.66.22,2,2,0,0,0-.44.57,3.55,3.55,0,0,0-.23,1.42l-.06,2.53-1.1,0-.1-6.1Z" style="fill:#423c25"/><path d="M60.4,52.58a2.11,2.11,0,0,0,.41,1.34,1.34,1.34,0,0,0,.91.39h.14a1.44,1.44,0,0,0,.79-.22,1.64,1.64,0,0,0,.57-1l1.17.23a3.31,3.31,0,0,1-.65,1.25,1.83,1.83,0,0,1-1.18.65,4.56,4.56,0,0,1-.72.06,3.38,3.38,0,0,1-.72-.07,2.16,2.16,0,0,1-1.19-.68,2.59,2.59,0,0,1-.66-1.24,4.61,4.61,0,0,1-.12-1c0-.13,0-.25,0-.38a3.33,3.33,0,0,1,.36-1.32,2.08,2.08,0,0,1,.78-.89,2.63,2.63,0,0,1,1-.39,3.64,3.64,0,0,1,.6,0l.6,0a1.93,1.93,0,0,1,1.28.8,4,4,0,0,1,.59,2.45Zm2.71-.91a1.56,1.56,0,0,0-.38-1,1.2,1.2,0,0,0-.94-.42,1.27,1.27,0,0,0-1,.4,1.42,1.42,0,0,0-.41,1Z" style="fill:#423c25"/><path d="M68.25,50.19a2.25,2.25,0,0,1,1.14-.61,3.11,3.11,0,0,1,.69-.07,3.79,3.79,0,0,1,.86.1A1.39,1.39,0,0,1,72,50.73a7.41,7.41,0,0,1,.16,1.79c0,.4,0,.85,0,1.35v0c0,.29.11.43.34.43a1.09,1.09,0,0,0,.41-.1l.08,1a2.89,2.89,0,0,1-.73.1,1.06,1.06,0,0,1-1-.56,2.6,2.6,0,0,1-.94.59,3.12,3.12,0,0,1-.88.13h-.05a2.12,2.12,0,0,1-.83-.16,1.62,1.62,0,0,1-.65-.49,1.46,1.46,0,0,1-.29-.76V53.9a2.24,2.24,0,0,1,.15-.78,1.65,1.65,0,0,1,.91-.87,8.17,8.17,0,0,1,2.5-.52,1.52,1.52,0,0,0-.19-.92,1.21,1.21,0,0,0-.74-.24H70a1.43,1.43,0,0,0-.7.15,1,1,0,0,0-.4.81l-1.12-.14A1.82,1.82,0,0,1,68.25,50.19Zm2.87,2.48a4.81,4.81,0,0,0-1.9.4.87.87,0,0,0-.46.72.11.11,0,0,0,0,.05.65.65,0,0,0,.27.58,1,1,0,0,0,.58.16l.17,0a1.58,1.58,0,0,0,.75-.21,5.68,5.68,0,0,0,.6-.4Z" style="fill:#423c25"/><path d="M77.16,50.2a1.58,1.58,0,0,0-.58-.12,1.36,1.36,0,0,0-.3,0,1.34,1.34,0,0,0-.72.46,1.89,1.89,0,0,0-.38,1,2.92,2.92,0,0,0,0,.51,3,3,0,0,0,.06.61,1.71,1.71,0,0,0,.43.87,1.24,1.24,0,0,0,.84.4h.12a1.39,1.39,0,0,0,.78-.22,1.21,1.21,0,0,0,.49-1L79,53a2.42,2.42,0,0,1-.56,1.26,2,2,0,0,1-1.18.64,4,4,0,0,1-.68.06,3.82,3.82,0,0,1-.68-.06,2.16,2.16,0,0,1-1.06-.55,2.33,2.33,0,0,1-.63-1.14A4.18,4.18,0,0,1,74,52c0-.1,0-.2,0-.3a3.63,3.63,0,0,1,.34-1.34,2,2,0,0,1,.74-.9,2.42,2.42,0,0,1,.91-.39,3.27,3.27,0,0,1,.57,0l.52,0a2.15,2.15,0,0,1,1.17.53A2,2,0,0,1,78.92,51l-1.09.18A1.26,1.26,0,0,0,77.16,50.2Z" style="fill:#423c25"/><path d="M80,48.94H81V47.28l1.17-.16v1.77l1.53-.06v1l-1.53.05v3.5a1,1,0,0,0,.11.57.39.39,0,0,0,.34.14,4.69,4.69,0,0,0,.93-.2l.15,1a6.53,6.53,0,0,1-1.39.22,1.83,1.83,0,0,1-1-.36,1.63,1.63,0,0,1-.3-1.06V49.91H80Z" style="fill:#423c25"/><path d="M85.89,47.69a.61.61,0,0,1,.2.47.62.62,0,0,1-.2.48.7.7,0,0,1-.49.2.66.66,0,0,1-.49-.2.64.64,0,0,1,0-1,.66.66,0,0,1,.49-.2A.7.7,0,0,1,85.89,47.69ZM84.8,49.5l1.17,0-.11,5.84h-1Z" style="fill:#423c25"/><path d="M87.85,54.63a3.81,3.81,0,0,1,0-4.4,2.74,2.74,0,0,1,4,0,3.81,3.81,0,0,1,0,4.4,2.74,2.74,0,0,1-4,0ZM91,53.87a2.44,2.44,0,0,0,.39-1.41A2.4,2.4,0,0,0,91,51.07a1.43,1.43,0,0,0-2.4,0,2.47,2.47,0,0,0-.38,1.39,2.51,2.51,0,0,0,.38,1.41,1.43,1.43,0,0,0,2.4,0Z" style="fill:#423c25"/><path d="M94.74,49l.05,1.33a1.77,1.77,0,0,1,.95-.92,2.3,2.3,0,0,1,.75-.14,2,2,0,0,1,.43,0,1.67,1.67,0,0,1,1,.61,2.63,2.63,0,0,1,.5,1.13,12.58,12.58,0,0,1,.07,1.79c0,.72,0,1.64,0,2.76l-1.1,0c0-.95,0-1.75,0-2.37,0-1,0-1.62,0-1.81a1.16,1.16,0,0,0-.37-.7,1.07,1.07,0,0,0-.71-.24h0a1,1,0,0,0-.66.22,2.16,2.16,0,0,0-.44.57,3.6,3.6,0,0,0-.22,1.42l-.07,2.53-1.1,0-.09-6.1Z" style="fill:#423c25"/><path d="M105.75,55.26l0-.95A1.71,1.71,0,0,1,105,55a2.32,2.32,0,0,1-1.08.24,2.19,2.19,0,0,1-1.2-.39,2.07,2.07,0,0,1-.83-1.09,4.86,4.86,0,0,1-.25-1.41v-.07a5.19,5.19,0,0,1,.24-1.49,2.26,2.26,0,0,1,.83-1.25,1.86,1.86,0,0,1,1.12-.32,4.38,4.38,0,0,1,.5,0,1.69,1.69,0,0,1,1.42,1.07l0-2.89h1.19v7.82Zm-2.93-2.95a2.49,2.49,0,0,0,.36,1.34,1.17,1.17,0,0,0,1,.61,1.28,1.28,0,0,0,1.1-.56,2.17,2.17,0,0,0,.37-1.32v-.07c0-1.32-.48-2-1.38-2a1.25,1.25,0,0,0-1.1.61,2.35,2.35,0,0,0-.35,1.31Z" style="fill:#423c25"/><path d="M109.16,52.58a2.11,2.11,0,0,0,.41,1.34,1.34,1.34,0,0,0,.91.39h.14a1.44,1.44,0,0,0,.79-.22,1.64,1.64,0,0,0,.57-1l1.17.23a3.31,3.31,0,0,1-.65,1.25,1.83,1.83,0,0,1-1.18.65,4.56,4.56,0,0,1-.72.06,3.38,3.38,0,0,1-.72-.07,2.16,2.16,0,0,1-1.19-.68,2.59,2.59,0,0,1-.66-1.24,4.61,4.61,0,0,1-.12-1c0-.13,0-.25,0-.38a3.33,3.33,0,0,1,.36-1.32,2.08,2.08,0,0,1,.78-.89,2.7,2.7,0,0,1,1-.39,3.64,3.64,0,0,1,.6,0l.6,0a1.93,1.93,0,0,1,1.28.8,4,4,0,0,1,.59,2.45Zm2.71-.91a1.56,1.56,0,0,0-.38-1,1.2,1.2,0,0,0-.94-.42,1.29,1.29,0,0,0-1,.4,1.42,1.42,0,0,0-.41,1Z" style="fill:#423c25"/><path d="M14,67.71,13.82,60l3.72-.06a3,3,0,0,1,1.71.54,1.72,1.72,0,0,1,.61,1.48v0a1.57,1.57,0,0,1-1.12,1.51,2,2,0,0,1,1.48,2.05,2,2,0,0,1-.69,1.54,3.16,3.16,0,0,1-2.18.62H14Zm1.24-4.55,2.14-.06c.75,0,1.13-.35,1.13-1.06s-.38-1-1.13-1h-2.2Zm-.06,3.41,2.38,0c.86,0,1.29-.4,1.29-1.21s-.43-1.14-1.29-1.14l-2.32,0Z" style="fill:#423c25"/><path d="M22,63.1a2.24,2.24,0,0,1,1.15-.61,3,3,0,0,1,.68-.07,4.41,4.41,0,0,1,.86.09,1.44,1.44,0,0,1,1.08,1.13,8.08,8.08,0,0,1,.15,1.79c0,.4,0,.85,0,1.35v0c0,.28.11.43.34.43a1.27,1.27,0,0,0,.41-.1l.09,1a3.08,3.08,0,0,1-.74.11,1.06,1.06,0,0,1-1-.56,2.77,2.77,0,0,1-.94.59,3.61,3.61,0,0,1-.89.13h0a2,2,0,0,1-.84-.17,1.52,1.52,0,0,1-.65-.48,1.49,1.49,0,0,1-.28-.77.81.81,0,0,1,0-.16,2.34,2.34,0,0,1,.15-.79,1.71,1.71,0,0,1,.91-.86,7.88,7.88,0,0,1,2.5-.52,1.45,1.45,0,0,0-.19-.92,1.18,1.18,0,0,0-.74-.24h-.19a1.45,1.45,0,0,0-.7.15,1,1,0,0,0-.4.81l-1.12-.14A1.82,1.82,0,0,1,22,63.1Zm2.87,2.48a4.86,4.86,0,0,0-1.9.4.87.87,0,0,0-.46.72v0a.66.66,0,0,0,.26.58,1.08,1.08,0,0,0,.59.15h.16a1.71,1.71,0,0,0,.76-.21,7.17,7.17,0,0,0,.59-.41Z" style="fill:#423c25"/><path d="M31.26,63.5a1.63,1.63,0,0,0-.8-.24h-.12a1.2,1.2,0,0,0-.67.25,1.78,1.78,0,0,0-.45.52A3.35,3.35,0,0,0,29,65.42L28.94,68l-1.11,0-.09-6.1,1.14-.12.06,1.33a1.78,1.78,0,0,1,1-.94,1.25,1.25,0,0,1,.53-.1,3.1,3.1,0,0,1,1.13.25Z" style="fill:#423c25"/><path d="M32.63,68.32V60.51h1.19l-.05,2.88a1.68,1.68,0,0,1,1.42-1.06,3,3,0,0,1,.5,0,1.88,1.88,0,0,1,1.12.31,2.25,2.25,0,0,1,.83,1.26,5.12,5.12,0,0,1,.24,1.48v.07a4.62,4.62,0,0,1-.26,1.42,2,2,0,0,1-.82,1.08,2.19,2.19,0,0,1-1.2.39,2.32,2.32,0,0,1-1.08-.24,1.71,1.71,0,0,1-.74-.69l0,.95Zm4-2.95v-.05A2.32,2.32,0,0,0,36.3,64a1.25,1.25,0,0,0-1.09-.61c-.9,0-1.36.66-1.38,2v.07a2.2,2.2,0,0,0,.37,1.33,1.3,1.3,0,0,0,1.1.56,1.18,1.18,0,0,0,1-.62A2.49,2.49,0,0,0,36.66,65.37Z" style="fill:#423c25"/><path d="M39.62,63.1a2.25,2.25,0,0,1,1.14-.61,3.11,3.11,0,0,1,.69-.07,4.41,4.41,0,0,1,.86.09,1.42,1.42,0,0,1,1.07,1.13,7.41,7.41,0,0,1,.16,1.79c0,.4,0,.85,0,1.35v0c0,.28.11.43.34.43a1.33,1.33,0,0,0,.41-.1l.08,1a2.94,2.94,0,0,1-.73.11,1.05,1.05,0,0,1-1-.56,2.71,2.71,0,0,1-1,.59,3.52,3.52,0,0,1-.88.13h0a2,2,0,0,1-.84-.17,1.52,1.52,0,0,1-.65-.48,1.41,1.41,0,0,1-.28-.77.81.81,0,0,1,0-.16,2.34,2.34,0,0,1,.15-.79,1.67,1.67,0,0,1,.91-.86,7.88,7.88,0,0,1,2.5-.52,1.52,1.52,0,0,0-.19-.92,1.21,1.21,0,0,0-.74-.24h-.19a1.43,1.43,0,0,0-.7.15,1,1,0,0,0-.4.81l-1.12-.14A1.82,1.82,0,0,1,39.62,63.1Zm2.87,2.48a4.81,4.81,0,0,0-1.9.4.87.87,0,0,0-.46.72.09.09,0,0,0,0,0,.67.67,0,0,0,.27.58,1,1,0,0,0,.58.15h.17a1.71,1.71,0,0,0,.75-.21,5.86,5.86,0,0,0,.6-.41Z" style="fill:#423c25"/><path d="M48.9,63.5a1.59,1.59,0,0,0-.79-.24H48a1.26,1.26,0,0,0-.68.25,1.92,1.92,0,0,0-.44.52,3.35,3.35,0,0,0-.22,1.39L46.58,68l-1.1,0-.09-6.1,1.14-.12,0,1.33a1.81,1.81,0,0,1,1-.94,1.33,1.33,0,0,1,.54-.1,3,3,0,0,1,1.12.25Z" style="fill:#423c25"/><path d="M51.52,65.49a2.08,2.08,0,0,0,.41,1.34,1.29,1.29,0,0,0,.9.39H53a1.41,1.41,0,0,0,.79-.22,1.7,1.7,0,0,0,.58-1l1.17.23a3.71,3.71,0,0,1-.65,1.25,1.92,1.92,0,0,1-1.19.65,4.56,4.56,0,0,1-.72.06,3.45,3.45,0,0,1-.72-.07A2.26,2.26,0,0,1,51,67.49a2.62,2.62,0,0,1-.66-1.25,4.54,4.54,0,0,1-.11-1c0-.12,0-.24,0-.37a3.64,3.64,0,0,1,.36-1.32,2.32,2.32,0,0,1,.78-.9,2.92,2.92,0,0,1,1-.38,2.8,2.8,0,0,1,.6,0l.59,0a1.91,1.91,0,0,1,1.28.8,3.91,3.91,0,0,1,.59,2.45Zm2.71-.92a1.54,1.54,0,0,0-.39-.95,1.2,1.2,0,0,0-.94-.42,1.3,1.3,0,0,0-1,.4,1.36,1.36,0,0,0-.4,1Z" style="fill:#423c25"/><path d="M56.9,68.91l-.34-.23a2.35,2.35,0,0,0,.63-.86.49.49,0,0,1-.51-.26.82.82,0,0,1-.1-.4.34.34,0,0,1,0-.1.65.65,0,0,1,.18-.39.7.7,0,0,1,.37-.17h.09a.76.76,0,0,1,.35.09.82.82,0,0,1,.32.32.81.81,0,0,1,.06.33,1.83,1.83,0,0,1,0,.21,1.55,1.55,0,0,1-.22.6A5.92,5.92,0,0,1,56.9,68.91Z" style="fill:#423c25"/><path d="M61.12,60.26l1.17.05v7.84l-1.12,0Z" style="fill:#423c25"/><path d="M64.59,65.49A2.14,2.14,0,0,0,65,66.83a1.3,1.3,0,0,0,.91.39H66a1.41,1.41,0,0,0,.79-.22,1.7,1.7,0,0,0,.58-1l1.17.23a3.71,3.71,0,0,1-.65,1.25,1.92,1.92,0,0,1-1.19.65,4.56,4.56,0,0,1-.72.06,3.35,3.35,0,0,1-.71-.07,2.18,2.18,0,0,1-1.19-.68,2.64,2.64,0,0,1-.67-1.25,5.17,5.17,0,0,1-.11-1c0-.12,0-.24,0-.37a3.64,3.64,0,0,1,.36-1.32,2.32,2.32,0,0,1,.78-.9,2.92,2.92,0,0,1,1-.38,2.8,2.8,0,0,1,.6,0l.59,0a2,2,0,0,1,1.29.8,4,4,0,0,1,.59,2.45Zm2.71-.92a1.54,1.54,0,0,0-.39-.95A1.19,1.19,0,0,0,66,63.2a1.3,1.3,0,0,0-1,.4,1.4,1.4,0,0,0-.4,1Z" style="fill:#423c25"/><path d="M71.79,60h1.36l3.51,5.66h0V59.84H78l-.1,7.83H76.54l-3.49-5.75h0v5.23H71.74Z" style="fill:#423c25"/><path d="M80.2,60.6a.61.61,0,0,1,.21.47.63.63,0,0,1-.21.48.7.7,0,0,1-.49.2.68.68,0,0,1-.49-.2.63.63,0,0,1-.21-.48.61.61,0,0,1,.21-.47.64.64,0,0,1,.49-.2A.66.66,0,0,1,80.2,60.6Zm-1.09,1.81,1.17,0-.1,5.84h-1Z" style="fill:#423c25"/><path d="M82.6,61.92l.05,1.33a1.77,1.77,0,0,1,.95-.92,2.31,2.31,0,0,1,.76-.14,2,2,0,0,1,.42.05,1.61,1.61,0,0,1,1,.61,2.63,2.63,0,0,1,.5,1.13,12.58,12.58,0,0,1,.07,1.79c0,.72,0,1.64,0,2.75l-1.1,0c0-.95,0-1.75,0-2.38,0-1,0-1.61,0-1.8a1.13,1.13,0,0,0-.37-.7,1.05,1.05,0,0,0-.71-.24h0a1,1,0,0,0-.66.22,2.39,2.39,0,0,0-.44.57,3.56,3.56,0,0,0-.22,1.42l-.07,2.52-1.1,0L81.46,62Z" style="fill:#423c25"/><path d="M87,69h0a.41.41,0,0,1,.23.07,1,1,0,0,0,.77-.49A3.6,3.6,0,0,0,88.25,67l0-4.51,1.06.07c0,.82,0,1.55,0,2.2a29.3,29.3,0,0,1-.13,3.77,2,2,0,0,1-.57,1,1.89,1.89,0,0,1-.93.42l-.31,0a2,2,0,0,1-.47,0Zm2.22-8.39a.63.63,0,0,1,.2.47.66.66,0,0,1-.2.48.71.71,0,0,1-1,0,.66.66,0,0,1-.2-.48.63.63,0,0,1,.2-.47.66.66,0,0,1,.5-.2A.66.66,0,0,1,89.22,60.6Z" style="fill:#423c25"/><path d="M91.17,63.1a2.25,2.25,0,0,1,1.14-.61,3.11,3.11,0,0,1,.69-.07,4.41,4.41,0,0,1,.86.09,1.42,1.42,0,0,1,1.07,1.13,7.41,7.41,0,0,1,.16,1.79c0,.4,0,.85,0,1.35v0c0,.28.11.43.34.43a1.33,1.33,0,0,0,.41-.1l.08,1a2.94,2.94,0,0,1-.73.11,1.08,1.08,0,0,1-1-.56,2.6,2.6,0,0,1-.94.59,3.52,3.52,0,0,1-.88.13h-.05a2,2,0,0,1-.83-.17,1.52,1.52,0,0,1-.65-.48,1.5,1.5,0,0,1-.29-.77v-.16a2.34,2.34,0,0,1,.15-.79,1.67,1.67,0,0,1,.91-.86,7.88,7.88,0,0,1,2.5-.52,1.52,1.52,0,0,0-.19-.92,1.21,1.21,0,0,0-.74-.24h-.19a1.43,1.43,0,0,0-.7.15,1,1,0,0,0-.4.81l-1.12-.14A1.82,1.82,0,0,1,91.17,63.1ZM94,65.58a4.81,4.81,0,0,0-1.9.4.87.87,0,0,0-.46.72.09.09,0,0,0,0,0,.67.67,0,0,0,.27.58,1,1,0,0,0,.58.15h.17a1.71,1.71,0,0,0,.75-.21,5.86,5.86,0,0,0,.6-.41Z" style="fill:#423c25"/><path d="M100.15,61.87l0,1a1.76,1.76,0,0,1,.74-.69A2.38,2.38,0,0,1,102,61.9a2.15,2.15,0,0,1,1.2.38,2.07,2.07,0,0,1,.83,1.09,4.55,4.55,0,0,1,.25,1.41v.08a5.45,5.45,0,0,1-.23,1.48,2.29,2.29,0,0,1-.84,1.25,1.86,1.86,0,0,1-1.12.32,3,3,0,0,1-.5,0,1.67,1.67,0,0,1-1.41-1.06l0,2.88H99V61.87Zm2.93,3a2.46,2.46,0,0,0-.36-1.34,1.18,1.18,0,0,0-1-.62,1.3,1.3,0,0,0-1.1.56,2.25,2.25,0,0,0-.37,1.33v.07c0,1.31.48,2,1.38,2a1.26,1.26,0,0,0,1.1-.61,2.32,2.32,0,0,0,.35-1.32Z" style="fill:#423c25"/><path d="M106.59,65.49a2.13,2.13,0,0,0,.42,1.34,1.29,1.29,0,0,0,.9.39h.14a1.44,1.44,0,0,0,.79-.22,1.64,1.64,0,0,0,.57-1l1.17.23a3.38,3.38,0,0,1-.65,1.25,1.87,1.87,0,0,1-1.18.65,4.56,4.56,0,0,1-.72.06,3.38,3.38,0,0,1-.72-.07,2.22,2.22,0,0,1-1.19-.68,2.62,2.62,0,0,1-.66-1.25,4.55,4.55,0,0,1-.12-1c0-.12,0-.24,0-.37a3.28,3.28,0,0,1,.36-1.32,2.17,2.17,0,0,1,.78-.9,2.84,2.84,0,0,1,1-.38,2.65,2.65,0,0,1,.59,0l.6,0a1.93,1.93,0,0,1,1.28.8,3.91,3.91,0,0,1,.59,2.45Zm2.71-.92a1.48,1.48,0,0,0-.38-.95,1.2,1.2,0,0,0-.94-.42,1.29,1.29,0,0,0-1,.4,1.41,1.41,0,0,0-.41,1Z" style="fill:#423c25"/><path d="M115.36,68.52l-.06-1.33a1.75,1.75,0,0,1-.94.92,2.31,2.31,0,0,1-.76.14,2.1,2.1,0,0,1-.43,0,1.61,1.61,0,0,1-1-.61,2.77,2.77,0,0,1-.51-1.13,17,17,0,0,1-.07-2.11c0-.66,0-1.47,0-2.43l1.11,0c0,.76,0,1.41,0,2a20.91,20.91,0,0,0,.06,2.22,1.11,1.11,0,0,0,.37.7,1,1,0,0,0,.7.24h0a.92.92,0,0,0,.65-.22,2.18,2.18,0,0,0,.45-.57,3.89,3.89,0,0,0,.21-1.43l.06-2.49,1.14-.07.08,6.11Z" style="fill:#423c25"/><path d="M117.57,61.85h.92V60.18l1.18-.15V61.8l1.52-.06v1l-1.52,0v3.5a1.09,1.09,0,0,0,.1.57.4.4,0,0,0,.34.14,4.69,4.69,0,0,0,.93-.2l.15,1a7.14,7.14,0,0,1-1.39.22,1.8,1.8,0,0,1-1-.37,1.64,1.64,0,0,1-.3-1.05V62.81h-.92Z" style="fill:#423c25"/><path d="M17.34,76.41a1.65,1.65,0,0,0-.79-.25h-.12a1.23,1.23,0,0,0-.68.25,1.78,1.78,0,0,0-.45.52,3.49,3.49,0,0,0-.22,1.39L15,80.85l-1.11,0-.09-6.09L15,74.67,15,76a1.83,1.83,0,0,1,1-1,1.51,1.51,0,0,1,.53-.09,3.1,3.1,0,0,1,1.13.25Z" style="fill:#423c25"/><path d="M20,78.4a2.14,2.14,0,0,0,.41,1.34,1.41,1.41,0,0,0,.91.39h.13a1.37,1.37,0,0,0,.8-.22,1.58,1.58,0,0,0,.57-1l1.17.22a3.58,3.58,0,0,1-.65,1.26,1.84,1.84,0,0,1-1.19.64,3.65,3.65,0,0,1-.72.07,4.17,4.17,0,0,1-.71-.07,2.22,2.22,0,0,1-1.19-.68,2.73,2.73,0,0,1-.67-1.25,5.17,5.17,0,0,1-.11-1,2.3,2.3,0,0,1,0-.37,3.24,3.24,0,0,1,.36-1.32,2.22,2.22,0,0,1,.77-.9,3.19,3.19,0,0,1,1-.39,3.7,3.7,0,0,1,.6,0l.59,0a2,2,0,0,1,1.29.79,4.1,4.1,0,0,1,.59,2.46Zm2.71-.92a1.59,1.59,0,0,0-.38-1,1.22,1.22,0,0,0-.94-.42,1.34,1.34,0,0,0-1,.39,1.43,1.43,0,0,0-.4,1Z" style="fill:#423c25"/><path d="M26.1,74.78l0,1a1.76,1.76,0,0,1,.74-.69A2.38,2.38,0,0,1,28,74.8a2.14,2.14,0,0,1,1.2.39A2.07,2.07,0,0,1,30,76.28a4.55,4.55,0,0,1,.25,1.41v.08A5.14,5.14,0,0,1,30,79.25a2.33,2.33,0,0,1-.84,1.25,1.86,1.86,0,0,1-1.12.32,3.13,3.13,0,0,1-.5,0,1.64,1.64,0,0,1-1.41-1.06l0,2.89H25V74.78Zm2.94,3a2.49,2.49,0,0,0-.37-1.34,1.17,1.17,0,0,0-1-.61,1.3,1.3,0,0,0-1.11.56,2.25,2.25,0,0,0-.37,1.33v.06c0,1.32.48,2,1.38,2a1.24,1.24,0,0,0,1.1-.61A2.27,2.27,0,0,0,29,77.78Z" style="fill:#423c25"/><path d="M34.81,76.41a1.61,1.61,0,0,0-.79-.25H33.9a1.26,1.26,0,0,0-.68.25,1.76,1.76,0,0,0-.44.52,3.43,3.43,0,0,0-.23,1.39l-.06,2.52-1.1,0-.1-6.09,1.15-.12L32.49,76a1.87,1.87,0,0,1,1-1A1.53,1.53,0,0,1,34,75a3,3,0,0,1,1.12.25Z" style="fill:#423c25"/><path d="M37.42,78.4a2.13,2.13,0,0,0,.42,1.34,1.38,1.38,0,0,0,.9.39h.14a1.36,1.36,0,0,0,.79-.22,1.58,1.58,0,0,0,.57-1l1.18.22a3.6,3.6,0,0,1-.66,1.26,1.82,1.82,0,0,1-1.18.64,3.65,3.65,0,0,1-.72.07,4.18,4.18,0,0,1-.72-.07A2.22,2.22,0,0,1,37,80.4a2.62,2.62,0,0,1-.66-1.25,4.55,4.55,0,0,1-.12-1c0-.12,0-.25,0-.37a3.24,3.24,0,0,1,.36-1.32,2.17,2.17,0,0,1,.78-.9,3.09,3.09,0,0,1,1-.39,3.49,3.49,0,0,1,.59,0l.6,0a2,2,0,0,1,1.28.79,4,4,0,0,1,.59,2.46Zm2.71-.92a1.48,1.48,0,0,0-.38-1,1.2,1.2,0,0,0-.94-.42,1.32,1.32,0,0,0-1,.39,1.44,1.44,0,0,0-.41,1Z" style="fill:#423c25"/><path d="M43.61,74.82l0,1.33a1.75,1.75,0,0,1,1-.91,2.07,2.07,0,0,1,.75-.14,2,2,0,0,1,.43,0,1.65,1.65,0,0,1,1,.62,2.59,2.59,0,0,1,.5,1.12,12.66,12.66,0,0,1,.07,1.8c0,.72,0,1.63,0,2.75l-1.1,0c0-1,0-1.75,0-2.38,0-1,0-1.62-.05-1.81a1.06,1.06,0,0,0-1.08-.94h0a1,1,0,0,0-.66.22,2.45,2.45,0,0,0-.44.58,3.54,3.54,0,0,0-.22,1.41L43.66,81l-1.1,0L42.47,75Z" style="fill:#423c25"/><path d="M52.51,81.07l0-.95a1.76,1.76,0,0,1-.74.69,2.38,2.38,0,0,1-1.08.24,2.14,2.14,0,0,1-1.2-.39,2,2,0,0,1-.83-1.08,4.61,4.61,0,0,1-.25-1.42s0,0,0-.07a5.12,5.12,0,0,1,.24-1.48,2.26,2.26,0,0,1,.84-1.26A1.84,1.84,0,0,1,50.56,75a3.08,3.08,0,0,1,.51,0,1.66,1.66,0,0,1,1.41,1.06l0-2.88h1.2v7.81Zm-2.93-2.95a2.46,2.46,0,0,0,.36,1.34,1.19,1.19,0,0,0,1,.62,1.3,1.3,0,0,0,1.11-.56,2.27,2.27,0,0,0,.36-1.33v-.07c0-1.31-.48-2-1.37-2a1.26,1.26,0,0,0-1.1.61,2.32,2.32,0,0,0-.36,1.31Z" style="fill:#423c25"/><path d="M58.2,76.41a1.65,1.65,0,0,0-.8-.25h-.12a1.26,1.26,0,0,0-.68.25,1.92,1.92,0,0,0-.44.52,3.31,3.31,0,0,0-.22,1.39l-.07,2.52-1.1,0-.09-6.09,1.14-.12,0,1.33a1.88,1.88,0,0,1,1-1,1.44,1.44,0,0,1,.53-.09,3.14,3.14,0,0,1,1.13.25Z" style="fill:#423c25"/><path d="M60.81,78.4a2.14,2.14,0,0,0,.41,1.34,1.38,1.38,0,0,0,.9.39h.14a1.34,1.34,0,0,0,.79-.22,1.64,1.64,0,0,0,.58-1l1.17.22a3.76,3.76,0,0,1-.65,1.26,1.87,1.87,0,0,1-1.19.64,3.65,3.65,0,0,1-.72.07,4.17,4.17,0,0,1-.71-.07,2.18,2.18,0,0,1-1.19-.68,2.64,2.64,0,0,1-.67-1.25,4.54,4.54,0,0,1-.11-1c0-.12,0-.25,0-.37a3.59,3.59,0,0,1,.36-1.32,2.32,2.32,0,0,1,.78-.9,3.19,3.19,0,0,1,1-.39,3.7,3.7,0,0,1,.6,0l.59,0a1.93,1.93,0,0,1,1.28.79,4,4,0,0,1,.6,2.46Zm2.71-.92a1.54,1.54,0,0,0-.39-1,1.2,1.2,0,0,0-.94-.42,1.33,1.33,0,0,0-1,.39,1.43,1.43,0,0,0-.4,1Z" style="fill:#423c25"/><path d="M68.48,73.16l1.17.06v7.83l-1.12.06Z" style="fill:#423c25"/><path d="M71.4,76a2.1,2.1,0,0,1,1.14-.61,3,3,0,0,1,.68-.08,4.37,4.37,0,0,1,.86.1,1.4,1.4,0,0,1,1.08,1.13,7.41,7.41,0,0,1,.16,1.79c0,.4,0,.85,0,1.35v0q0,.42.33.42a1.22,1.22,0,0,0,.41-.09l.09,1a3,3,0,0,1-.73.11,1.07,1.07,0,0,1-1-.56,2.84,2.84,0,0,1-.94.59,3.19,3.19,0,0,1-.89.12h0a2.09,2.09,0,0,1-.83-.17,1.46,1.46,0,0,1-.65-.48,1.42,1.42,0,0,1-.29-.77v-.17a2.47,2.47,0,0,1,.14-.78,1.7,1.7,0,0,1,.92-.86,7.8,7.8,0,0,1,2.49-.52,1.43,1.43,0,0,0-.19-.92,1.16,1.16,0,0,0-.74-.24h-.19a1.31,1.31,0,0,0-.69.16.94.94,0,0,0-.4.81l-1.13-.14A1.83,1.83,0,0,1,71.4,76Zm2.87,2.47a4.83,4.83,0,0,0-1.91.41.91.91,0,0,0-.46.71v.06a.64.64,0,0,0,.27.57,1,1,0,0,0,.58.16h.17a1.85,1.85,0,0,0,.75-.21,5.86,5.86,0,0,0,.6-.41Z" style="fill:#423c25"/><path d="M80.9,74.78l0,1a1.71,1.71,0,0,1,.74-.69,2.35,2.35,0,0,1,1.08-.24,2.19,2.19,0,0,1,1.2.39,2.07,2.07,0,0,1,.83,1.09A4.55,4.55,0,0,1,85,77.69v.08a5.18,5.18,0,0,1-.24,1.48A2.26,2.26,0,0,1,84,80.5a1.86,1.86,0,0,1-1.12.32,3,3,0,0,1-.5,0,1.66,1.66,0,0,1-1.42-1.06l0,2.89H79.79V74.78Zm2.93,3a2.49,2.49,0,0,0-.36-1.34,1.17,1.17,0,0,0-1-.61,1.3,1.3,0,0,0-1.1.56A2.18,2.18,0,0,0,81,77.67v.06c0,1.32.48,2,1.38,2a1.25,1.25,0,0,0,1.1-.61,2.35,2.35,0,0,0,.35-1.31Z" style="fill:#423c25"/><path d="M86.79,76a2.17,2.17,0,0,1,1.15-.61,3,3,0,0,1,.68-.08,4.46,4.46,0,0,1,.86.1,1.43,1.43,0,0,1,1.08,1.13,8.08,8.08,0,0,1,.15,1.79c0,.4,0,.85,0,1.35v0c0,.28.11.42.34.42a1.22,1.22,0,0,0,.41-.09l.09,1a3.08,3.08,0,0,1-.74.11,1.05,1.05,0,0,1-1-.56,2.87,2.87,0,0,1-.95.59,3.12,3.12,0,0,1-.88.12h0a2.14,2.14,0,0,1-.84-.17,1.52,1.52,0,0,1-.65-.48,1.41,1.41,0,0,1-.28-.77.91.91,0,0,1,0-.17,2.24,2.24,0,0,1,.15-.78,1.67,1.67,0,0,1,.91-.86,7.88,7.88,0,0,1,2.5-.52,1.5,1.5,0,0,0-.19-.92,1.18,1.18,0,0,0-.74-.24h-.19a1.34,1.34,0,0,0-.7.16,1,1,0,0,0-.4.81l-1.12-.14A1.78,1.78,0,0,1,86.79,76Zm2.87,2.47a4.81,4.81,0,0,0-1.9.41.87.87,0,0,0-.46.71s0,0,0,.06a.64.64,0,0,0,.27.57,1,1,0,0,0,.59.16h.16a1.81,1.81,0,0,0,.75-.21,5.86,5.86,0,0,0,.6-.41Z" style="fill:#423c25"/><path d="M96.08,76.41a1.65,1.65,0,0,0-.8-.25h-.12a1.26,1.26,0,0,0-.68.25,1.92,1.92,0,0,0-.44.52,3.31,3.31,0,0,0-.22,1.39l-.07,2.52-1.1,0-.09-6.09,1.14-.12,0,1.33a1.88,1.88,0,0,1,1-1,1.44,1.44,0,0,1,.53-.09,3.14,3.14,0,0,1,1.13.25Z" style="fill:#423c25"/><path d="M98.15,80.44a3.75,3.75,0,0,1,0-4.39,2.71,2.71,0,0,1,4,0,3.75,3.75,0,0,1,0,4.39,2.71,2.71,0,0,1-4,0Zm3.17-.75a2.73,2.73,0,0,0,0-2.81,1.35,1.35,0,0,0-1.19-.65,1.38,1.38,0,0,0-1.21.65,2.79,2.79,0,0,0,0,2.81,1.38,1.38,0,0,0,1.21.65A1.35,1.35,0,0,0,101.32,79.69Z" style="fill:#423c25"/><path d="M103.89,73.16l1.17.06v7.83l-1.12.06Z" style="fill:#423c25"/><path d="M107.36,78.4a2.14,2.14,0,0,0,.41,1.34,1.39,1.39,0,0,0,.91.39h.13a1.39,1.39,0,0,0,.8-.22,1.68,1.68,0,0,0,.57-1l1.17.22a3.58,3.58,0,0,1-.65,1.26,1.84,1.84,0,0,1-1.19.64,3.65,3.65,0,0,1-.72.07,4.17,4.17,0,0,1-.71-.07,2.22,2.22,0,0,1-1.19-.68,2.64,2.64,0,0,1-.67-1.25,5.17,5.17,0,0,1-.11-1c0-.12,0-.25,0-.37a3.59,3.59,0,0,1,.36-1.32,2.32,2.32,0,0,1,.78-.9,3.19,3.19,0,0,1,1-.39,3.7,3.7,0,0,1,.6,0l.59,0a2,2,0,0,1,1.29.79,4.1,4.1,0,0,1,.59,2.46Zm2.71-.92a1.54,1.54,0,0,0-.39-1,1.19,1.19,0,0,0-.94-.42,1.33,1.33,0,0,0-1,.39,1.43,1.43,0,0,0-.4,1Z" style="fill:#423c25"/><path d="M116.14,74.78l0,1a1.74,1.74,0,0,1,.73-.69A2.39,2.39,0,0,1,118,74.8a2.13,2.13,0,0,1,1.19.39,2,2,0,0,1,.83,1.09,4.56,4.56,0,0,1,.26,1.41v.08a5.18,5.18,0,0,1-.24,1.48,2.26,2.26,0,0,1-.83,1.25,1.88,1.88,0,0,1-1.12.32,2.92,2.92,0,0,1-.5,0,1.66,1.66,0,0,1-1.42-1.06l0,2.89H115V74.78Zm2.93,3a2.49,2.49,0,0,0-.36-1.34,1.17,1.17,0,0,0-1-.61,1.29,1.29,0,0,0-1.1.56,2.18,2.18,0,0,0-.37,1.33v.06c0,1.32.48,2,1.38,2a1.23,1.23,0,0,0,1.09-.61,2.27,2.27,0,0,0,.36-1.31Z" style="fill:#423c25"/><path d="M122,80.44a3.75,3.75,0,0,1,0-4.39,2.71,2.71,0,0,1,4,0,3.75,3.75,0,0,1,0,4.39,2.71,2.71,0,0,1-4,0Zm3.18-.75a2.79,2.79,0,0,0,0-2.81,1.38,1.38,0,0,0-1.2-.65,1.35,1.35,0,0,0-1.2.65,2.73,2.73,0,0,0,0,2.81,1.35,1.35,0,0,0,1.2.65A1.38,1.38,0,0,0,125.22,79.69Z" style="fill:#423c25"/><path d="M131.51,81.43l-.07-1.33a1.75,1.75,0,0,1-.94.92,2.31,2.31,0,0,1-.76.14,2,2,0,0,1-.42,0,1.61,1.61,0,0,1-1-.61,2.63,2.63,0,0,1-.5-1.13,14.4,14.4,0,0,1-.08-2.11c0-.66,0-1.48,0-2.44l1.11,0c0,.75,0,1.41,0,2A20.91,20.91,0,0,0,129,79a1.16,1.16,0,0,0,.37.7A1.05,1.05,0,0,0,130,80h0a.92.92,0,0,0,.65-.22,2.18,2.18,0,0,0,.45-.57,3.49,3.49,0,0,0,.21-1.43l.06-2.49,1.14-.07.09,6.11Z" style="fill:#423c25"/><path d="M137.23,76.41a1.65,1.65,0,0,0-.8-.25h-.12a1.2,1.2,0,0,0-.67.25,1.78,1.78,0,0,0-.45.52,3.31,3.31,0,0,0-.22,1.39l-.06,2.52-1.11,0-.09-6.09,1.14-.12.06,1.33a1.83,1.83,0,0,1,1-1,1.47,1.47,0,0,1,.53-.09,3.1,3.1,0,0,1,1.13.25Z" style="fill:#423c25"/><path d="M17,88.92a1.85,1.85,0,0,0-.59-.11,1.53,1.53,0,0,0-.3,0,1.44,1.44,0,0,0-.72.47,1.82,1.82,0,0,0-.38,1,4.56,4.56,0,0,0,0,.51,2.92,2.92,0,0,0,.07.61,1.7,1.7,0,0,0,.43.88,1.27,1.27,0,0,0,.83.39h.12a1.45,1.45,0,0,0,.79-.22,1.2,1.2,0,0,0,.49-1l1.11.22A2.43,2.43,0,0,1,18.21,93a1.92,1.92,0,0,1-1.18.64,3.11,3.11,0,0,1-.67.07,3.73,3.73,0,0,1-.68-.07,2.18,2.18,0,0,1-1.07-.54A2.59,2.59,0,0,1,14,91.93a4.16,4.16,0,0,1-.16-1.16c0-.1,0-.21,0-.31a3.83,3.83,0,0,1,.34-1.34,2.25,2.25,0,0,1,.74-.9,2.46,2.46,0,0,1,.92-.39,3.27,3.27,0,0,1,.57,0l.52,0a2.16,2.16,0,0,1,1.16.53,2.06,2.06,0,0,1,.65,1.35l-1.1.18A1.27,1.27,0,0,0,17,88.92Z" style="fill:#423c25"/><path d="M21,86.05V89A1.7,1.7,0,0,1,22,88a2.21,2.21,0,0,1,.75-.14,2,2,0,0,1,.42,0,1.61,1.61,0,0,1,1,.61,2.63,2.63,0,0,1,.5,1.13,12,12,0,0,1,.08,1.79c0,.72,0,1.64-.05,2.75l-1.1,0c0-1,0-1.75,0-2.38,0-1,0-1.61,0-1.8a1.16,1.16,0,0,0-.37-.7,1.05,1.05,0,0,0-.71-.24h0a.92.92,0,0,0-.65.22,2.18,2.18,0,0,0-.45.57,3.56,3.56,0,0,0-.22,1.42L21,93.81l-1.11,0-.09-7.67Z" style="fill:#423c25"/><path d="M26.44,88.91a2.24,2.24,0,0,1,1.14-.61,3.08,3.08,0,0,1,.68-.07,3.73,3.73,0,0,1,.86.1,1.4,1.4,0,0,1,1.08,1.12,7.51,7.51,0,0,1,.16,1.8c0,.39,0,.84,0,1.35v0q0,.42.33.42a1,1,0,0,0,.41-.1l.09,1a3,3,0,0,1-.73.1,1.06,1.06,0,0,1-1-.55,2.63,2.63,0,0,1-.94.58,2.86,2.86,0,0,1-.89.13h0a2.09,2.09,0,0,1-.83-.17,1.46,1.46,0,0,1-.65-.48,1.42,1.42,0,0,1-.29-.77v-.17a2.47,2.47,0,0,1,.14-.78A1.7,1.7,0,0,1,26.8,91a7.8,7.8,0,0,1,2.49-.52,1.43,1.43,0,0,0-.19-.92,1.1,1.1,0,0,0-.74-.24h-.19a1.41,1.41,0,0,0-.69.15,1,1,0,0,0-.4.82L26,90.12A1.88,1.88,0,0,1,26.44,88.91Zm2.87,2.48a4.83,4.83,0,0,0-1.91.41.86.86,0,0,0-.45.71.11.11,0,0,0,0,0,.64.64,0,0,0,.27.58,1,1,0,0,0,.58.16H28a1.85,1.85,0,0,0,.75-.21,5.86,5.86,0,0,0,.6-.41Z" style="fill:#423c25"/><path d="M33.35,87.73l0,1.33a1.71,1.71,0,0,1,1-.91,1.92,1.92,0,0,1,1.18-.1,1.63,1.63,0,0,1,.95.62A2.73,2.73,0,0,1,37,89.79a12.66,12.66,0,0,1,.07,1.8c0,.71,0,1.63,0,2.75l-1.1,0c0-1,0-1.75,0-2.38a14.31,14.31,0,0,0-.06-1.81,1.1,1.1,0,0,0-.36-.7,1.13,1.13,0,0,0-.71-.24h0a.92.92,0,0,0-.66.22,2,2,0,0,0-.44.57,3.59,3.59,0,0,0-.23,1.42l-.06,2.53-1.1,0-.1-6.09Z" style="fill:#423c25"/><path d="M38.36,94.18l1.1-.19c.12.55.36.87.73,1a2.46,2.46,0,0,0,.6.07,3,3,0,0,0,.52,0,1,1,0,0,0,.77-.49,2.47,2.47,0,0,0,.16-1.08c0-.14,0-.28,0-.44a2.28,2.28,0,0,1-1.07.7,4.56,4.56,0,0,1-.75.06h-.26a2,2,0,0,1-1-.38,2.07,2.07,0,0,1-.73-.91,4,4,0,0,1-.25-1.34,1.7,1.7,0,0,1,0-.22,4,4,0,0,1,.18-1.22A2.19,2.19,0,0,1,39,88.58a2.64,2.64,0,0,1,1-.54,3.08,3.08,0,0,1,.61-.06,3.12,3.12,0,0,1,.52,0,2,2,0,0,1,1.17.65V88l1,0c0,.89,0,1.69,0,2.4a33,33,0,0,1-.13,4,2,2,0,0,1-.57,1,1.9,1.9,0,0,1-.92.42,7.75,7.75,0,0,1-1.05.1h0a3.36,3.36,0,0,1-.88-.11,1.84,1.84,0,0,1-.78-.45A2.71,2.71,0,0,1,38.36,94.18Zm3.56-2.06a2.35,2.35,0,0,0,.34-1.33,2.08,2.08,0,0,0-.35-1.27A1.29,1.29,0,0,0,40.77,89a1.25,1.25,0,0,0-1.14.62,2.38,2.38,0,0,0-.33,1.31,2.2,2.2,0,0,0,.35,1.26,1.38,1.38,0,0,0,2.27,0Z" style="fill:#423c25"/><path d="M45.63,91.31A2.16,2.16,0,0,0,46,92.65a1.38,1.38,0,0,0,.9.39h.14a1.34,1.34,0,0,0,.79-.22,1.7,1.7,0,0,0,.58-1l1.17.23A3.76,3.76,0,0,1,49,93.35a1.91,1.91,0,0,1-1.19.64,4.61,4.61,0,0,1-.72.07,4.17,4.17,0,0,1-.71-.07,2.14,2.14,0,0,1-1.19-.69,2.61,2.61,0,0,1-.67-1.24,5.17,5.17,0,0,1-.11-1c0-.12,0-.25,0-.37a3.59,3.59,0,0,1,.36-1.32,2.32,2.32,0,0,1,.78-.9,2.75,2.75,0,0,1,1-.39,3.64,3.64,0,0,1,.6-.05,4.18,4.18,0,0,1,.59,0,1.93,1.93,0,0,1,1.29.79,4.1,4.1,0,0,1,.59,2.46Zm2.71-.92a1.6,1.6,0,0,0-.39-1A1.2,1.2,0,0,0,47,89a1.34,1.34,0,0,0-1,.4,1.43,1.43,0,0,0-.4,1Z" style="fill:#423c25"/><path d="M54.19,89.32a1.55,1.55,0,0,0-.8-.25h-.12a1.27,1.27,0,0,0-.67.24,2.09,2.09,0,0,0-.45.52,3.38,3.38,0,0,0-.22,1.39l-.06,2.53-1.11,0-.09-6.09,1.14-.13.06,1.33a1.85,1.85,0,0,1,1-.94,1.47,1.47,0,0,1,.53-.09,3.28,3.28,0,0,1,1.13.24Z" style="fill:#423c25"/><path d="M64.66,94.33,64.59,93a1.69,1.69,0,0,1-.94.92,2.1,2.1,0,0,1-.76.15,2,2,0,0,1-.42,0,1.62,1.62,0,0,1-1-.62,2.59,2.59,0,0,1-.5-1.12,14.5,14.5,0,0,1-.08-2.11c0-.67,0-1.48,0-2.44l1.11,0c0,.75,0,1.4,0,2A20.91,20.91,0,0,0,62.11,92a1.11,1.11,0,0,0,.37.7,1.05,1.05,0,0,0,.71.24h0a.92.92,0,0,0,.65-.22,2.18,2.18,0,0,0,.45-.57,3.93,3.93,0,0,0,.21-1.43l.06-2.49,1.14-.08.09,6.11Z" style="fill:#423c25"/><path d="M68,87.73l0,1.33a1.71,1.71,0,0,1,1-.91,2.1,2.1,0,0,1,.76-.15,2,2,0,0,1,.42,0,1.65,1.65,0,0,1,1,.62,2.59,2.59,0,0,1,.5,1.12,12.66,12.66,0,0,1,.07,1.8c0,.71,0,1.63,0,2.75l-1.1,0c0-1,0-1.75,0-2.38,0-1,0-1.62,0-1.81a1.16,1.16,0,0,0-.37-.7,1.11,1.11,0,0,0-.71-.24h0a1,1,0,0,0-.66.22,2.39,2.39,0,0,0-.44.57,3.64,3.64,0,0,0-.22,1.42l-.07,2.53L67,94l-.09-6.09Z" style="fill:#423c25"/><path d="M82.28,94l0-1a1.82,1.82,0,0,1-.74.69,2.38,2.38,0,0,1-1.08.24,2.14,2.14,0,0,1-1.2-.39,2,2,0,0,1-.83-1.08,4.66,4.66,0,0,1-.25-1.42s0,0,0-.07a5.12,5.12,0,0,1,.24-1.48,2.25,2.25,0,0,1,.83-1.26A1.9,1.9,0,0,1,80.33,88l.51,0a1.69,1.69,0,0,1,1.41,1.07l0-2.88h1.2l0,7.81Zm-2.93-3a2.49,2.49,0,0,0,.36,1.34,1.18,1.18,0,0,0,1,.61,1.28,1.28,0,0,0,1.1-.55,2.22,2.22,0,0,0,.37-1.33V91c0-1.31-.48-2-1.37-2a1.23,1.23,0,0,0-1.1.61A2.29,2.29,0,0,0,79.35,91Z" style="fill:#423c25"/><path d="M85.7,91.31a2.16,2.16,0,0,0,.41,1.34A1.38,1.38,0,0,0,87,93h.14a1.34,1.34,0,0,0,.79-.22,1.7,1.7,0,0,0,.58-1l1.17.23A3.76,3.76,0,0,1,89,93.35a1.91,1.91,0,0,1-1.19.64,4.61,4.61,0,0,1-.72.07,4.07,4.07,0,0,1-.71-.07,2.14,2.14,0,0,1-1.19-.69,2.53,2.53,0,0,1-.67-1.24,4.54,4.54,0,0,1-.11-1c0-.12,0-.25,0-.37a3.59,3.59,0,0,1,.36-1.32,2.32,2.32,0,0,1,.78-.9,2.75,2.75,0,0,1,1-.39,3.64,3.64,0,0,1,.6-.05,4.18,4.18,0,0,1,.59,0,1.89,1.89,0,0,1,1.28.79,4,4,0,0,1,.6,2.46Zm2.71-.92a1.6,1.6,0,0,0-.39-1,1.2,1.2,0,0,0-.94-.42,1.34,1.34,0,0,0-1,.4,1.38,1.38,0,0,0-.4,1Zm.27-4.93-1.53,1.75L86.26,87l1.13-1.91Z" style="fill:#423c25"/><path d="M90.74,87.66h.92V86l1.18-.16v1.77l1.53,0v1l-1.53.06v3.5a1,1,0,0,0,.1.56.38.38,0,0,0,.34.14,4,4,0,0,0,.93-.2l.16,1a6.6,6.6,0,0,1-1.4.22,1.86,1.86,0,0,1-1-.36,1.69,1.69,0,0,1-.3-1.06V88.63h-.92Z" style="fill:#423c25"/><path d="M96.12,88.91a2.29,2.29,0,0,1,1.14-.61,3.08,3.08,0,0,1,.68-.07,3.87,3.87,0,0,1,.87.1,1.4,1.4,0,0,1,1.07,1.12,7.51,7.51,0,0,1,.16,1.8c0,.39,0,.84,0,1.35v0q0,.42.33.42a1,1,0,0,0,.41-.1l.09,1a3,3,0,0,1-.73.1,1.07,1.07,0,0,1-1-.55,2.55,2.55,0,0,1-.94.58,2.82,2.82,0,0,1-.89.13h0a2.12,2.12,0,0,1-.83-.17,1.46,1.46,0,0,1-.65-.48,1.5,1.5,0,0,1-.29-.77v-.17a2.47,2.47,0,0,1,.14-.78,1.7,1.7,0,0,1,.92-.86A7.87,7.87,0,0,1,99,90.46a1.43,1.43,0,0,0-.19-.92A1.1,1.1,0,0,0,98,89.3h-.19a1.41,1.41,0,0,0-.69.15,1,1,0,0,0-.4.82l-1.13-.14A1.88,1.88,0,0,1,96.12,88.91ZM99,91.39a4.76,4.76,0,0,0-1.9.41.85.85,0,0,0-.46.71.11.11,0,0,0,0,0,.64.64,0,0,0,.27.58,1,1,0,0,0,.58.16h.17a1.85,1.85,0,0,0,.75-.21,5.86,5.86,0,0,0,.6-.41Z" style="fill:#423c25"/><path d="M103.07,86.41a.68.68,0,0,1,0,1,.69.69,0,0,1-.49.19.66.66,0,0,1-.49-.19.65.65,0,0,1,0-1,.66.66,0,0,1,.49-.2A.7.7,0,0,1,103.07,86.41ZM102,88.23l1.17-.06L103,94h-1Z" style="fill:#423c25"/><path d="M104.33,86.07l1.17.05V94l-1.12.05Z" style="fill:#423c25"/><path d="M116.06,94l0-1a1.76,1.76,0,0,1-.74.69,2.38,2.38,0,0,1-1.08.24,2.14,2.14,0,0,1-1.2-.39,2.09,2.09,0,0,1-.83-1.08,4.66,4.66,0,0,1-.25-1.42V91a5.09,5.09,0,0,1,.23-1.48,2.26,2.26,0,0,1,.84-1.26,1.86,1.86,0,0,1,1.12-.31l.5,0A1.68,1.68,0,0,1,116,89.05l0-2.88h1.19V94Zm-2.93-3a2.49,2.49,0,0,0,.37,1.34,1.17,1.17,0,0,0,1,.61,1.3,1.3,0,0,0,1.11-.55A2.29,2.29,0,0,0,116,91.1V91c0-1.31-.48-2-1.37-2a1.24,1.24,0,0,0-1.1.61,2.29,2.29,0,0,0-.36,1.31Z" style="fill:#423c25"/><path d="M119.48,91.31a2.16,2.16,0,0,0,.41,1.34,1.41,1.41,0,0,0,.91.39h.13a1.39,1.39,0,0,0,.8-.22,1.69,1.69,0,0,0,.57-1l1.17.23a3.58,3.58,0,0,1-.65,1.26,1.89,1.89,0,0,1-1.19.64,4.61,4.61,0,0,1-.72.07,4.17,4.17,0,0,1-.71-.07A2.18,2.18,0,0,1,119,93.3a2.7,2.7,0,0,1-.67-1.24,5.17,5.17,0,0,1-.11-1c0-.12,0-.25,0-.37a3.59,3.59,0,0,1,.36-1.32,2.32,2.32,0,0,1,.78-.9,2.75,2.75,0,0,1,1-.39A3.64,3.64,0,0,1,121,88a4.18,4.18,0,0,1,.59,0,1.93,1.93,0,0,1,1.29.79,4.1,4.1,0,0,1,.59,2.46Zm2.71-.92a1.65,1.65,0,0,0-.38-1,1.22,1.22,0,0,0-1-.42,1.34,1.34,0,0,0-1,.4,1.43,1.43,0,0,0-.4,1Z" style="fill:#423c25"/><path d="M129.9,86.07l1.17.05V94L130,94Z" style="fill:#423c25"/><path d="M132.82,88.91A2.33,2.33,0,0,1,134,88.3a3.11,3.11,0,0,1,.69-.07,3.79,3.79,0,0,1,.86.1,1.4,1.4,0,0,1,1.07,1.12,7.51,7.51,0,0,1,.16,1.8c0,.39,0,.84,0,1.35v0c0,.28.11.42.34.42a1.05,1.05,0,0,0,.41-.1l.09,1a3,3,0,0,1-.74.1,1,1,0,0,1-1-.55,2.66,2.66,0,0,1-1,.58,2.8,2.8,0,0,1-.88.13h0a2.14,2.14,0,0,1-.84-.17,1.52,1.52,0,0,1-.65-.48,1.41,1.41,0,0,1-.28-.77.91.91,0,0,1,0-.17,2.24,2.24,0,0,1,.15-.78,1.64,1.64,0,0,1,.91-.86,7.88,7.88,0,0,1,2.5-.52,1.5,1.5,0,0,0-.19-.92,1.15,1.15,0,0,0-.74-.24h-.19a1.43,1.43,0,0,0-.7.15,1,1,0,0,0-.4.82l-1.12-.14A1.82,1.82,0,0,1,132.82,88.91Zm2.87,2.48a4.76,4.76,0,0,0-1.9.41.85.85,0,0,0-.46.71.11.11,0,0,0,0,0,.64.64,0,0,0,.27.58,1,1,0,0,0,.58.16h.17a1.85,1.85,0,0,0,.75-.21,5.86,5.86,0,0,0,.6-.41Z" style="fill:#423c25"/><path d="M13.82,104.84l1.12-.21c.05.56.27.89.65,1a3.14,3.14,0,0,0,.71.09,1.27,1.27,0,0,0,.28,0,.93.93,0,0,0,.59-.24.79.79,0,0,0,.19-.36s0,0,0-.06a.44.44,0,0,0-.1-.26,1.06,1.06,0,0,0-.29-.27,5.6,5.6,0,0,0-1-.34c-.56-.16-1-.3-1.21-.4a1.64,1.64,0,0,1-.59-.43,1.28,1.28,0,0,1-.24-.71v-.09a1.84,1.84,0,0,1,.16-.73,1.45,1.45,0,0,1,.66-.63,2.73,2.73,0,0,1,1-.3l.39,0a3.27,3.27,0,0,1,.54,0,2.43,2.43,0,0,1,.9.36,2.22,2.22,0,0,1,.71,1.37l-1.05.14c-.14-.48-.32-.75-.54-.82a1.87,1.87,0,0,0-.56-.09H16a1,1,0,0,0-.56.2.54.54,0,0,0-.26.41v0a.42.42,0,0,0,.15.34,2.44,2.44,0,0,0,1,.34,6.26,6.26,0,0,1,1.37.47,1.35,1.35,0,0,1,.72.63,2,2,0,0,1,.13.75v0a1.46,1.46,0,0,1-.23.79,1.76,1.76,0,0,1-.75.62,3,3,0,0,1-1.29.26h-.08a3.54,3.54,0,0,1-1.1-.14,1.74,1.74,0,0,1-.75-.44A2.41,2.41,0,0,1,13.82,104.84Z" style="fill:#423c25"/><path d="M22.7,101.83a1.56,1.56,0,0,0-.58-.11,1.39,1.39,0,0,0-.3,0,1.34,1.34,0,0,0-.72.46,1.89,1.89,0,0,0-.38,1,3.19,3.19,0,0,0,0,1.12,1.78,1.78,0,0,0,.43.88,1.28,1.28,0,0,0,.84.39h.12a1.39,1.39,0,0,0,.78-.22,1.24,1.24,0,0,0,.5-1l1.1.22a2.42,2.42,0,0,1-.56,1.26,2,2,0,0,1-1.18.64,4,4,0,0,1-.68.07,3.82,3.82,0,0,1-.68-.07,2.16,2.16,0,0,1-1.06-.55,2.33,2.33,0,0,1-.63-1.14,4.18,4.18,0,0,1-.16-1.17c0-.1,0-.2,0-.3a3.63,3.63,0,0,1,.34-1.34,2,2,0,0,1,.74-.9,2.49,2.49,0,0,1,.91-.39,3.27,3.27,0,0,1,.57,0l.52,0a2.15,2.15,0,0,1,1.17.53,2,2,0,0,1,.64,1.35l-1.09.18A1.26,1.26,0,0,0,22.7,101.83Z" style="fill:#423c25"/><path d="M26.81,104.22a2.1,2.1,0,0,0,.42,1.33,1.29,1.29,0,0,0,.9.39h.14a1.36,1.36,0,0,0,.79-.22,1.64,1.64,0,0,0,.57-1l1.18.23a3.47,3.47,0,0,1-.66,1.25,1.83,1.83,0,0,1-1.18.65,4.56,4.56,0,0,1-.72.06,3.38,3.38,0,0,1-.72-.07,2.19,2.19,0,0,1-1.19-.68,2.59,2.59,0,0,1-.66-1.24,4.61,4.61,0,0,1-.12-1c0-.13,0-.25,0-.38a3.24,3.24,0,0,1,.36-1.31,2.05,2.05,0,0,1,.78-.9,2.68,2.68,0,0,1,1-.39,3.42,3.42,0,0,1,.59,0l.6,0a2,2,0,0,1,1.28.8,4,4,0,0,1,.59,2.45Zm1-6.17L29,100l-.89.21-1.53-1.75Zm1.67,5.25a1.53,1.53,0,0,0-.38-1,1.2,1.2,0,0,0-.94-.42,1.29,1.29,0,0,0-1,.4,1.42,1.42,0,0,0-.41,1Z" style="fill:#423c25"/><path d="M33,100.64l0,1.33a1.77,1.77,0,0,1,1-.92,2.3,2.3,0,0,1,.75-.14,2,2,0,0,1,.43,0,1.63,1.63,0,0,1,1,.61,2.63,2.63,0,0,1,.5,1.13,12.58,12.58,0,0,1,.07,1.79c0,.72,0,1.64,0,2.76l-1.1,0c0-.95,0-1.74,0-2.37,0-1,0-1.62-.05-1.81a1.16,1.16,0,0,0-.37-.7,1.07,1.07,0,0,0-.71-.24h0a1,1,0,0,0-.66.22,2.39,2.39,0,0,0-.44.57,3.6,3.6,0,0,0-.22,1.42l-.07,2.53-1.1,0-.09-6.09Z" style="fill:#423c25"/><path d="M39,104.22a2.1,2.1,0,0,0,.42,1.33,1.29,1.29,0,0,0,.9.39h.14a1.34,1.34,0,0,0,.79-.22,1.64,1.64,0,0,0,.57-1L43,105a3.47,3.47,0,0,1-.66,1.25,1.83,1.83,0,0,1-1.18.65,4.56,4.56,0,0,1-.72.06,3.45,3.45,0,0,1-.72-.07,2.19,2.19,0,0,1-1.19-.68,2.59,2.59,0,0,1-.66-1.24,4.61,4.61,0,0,1-.12-1c0-.13,0-.25,0-.38a3.59,3.59,0,0,1,.36-1.31,2.05,2.05,0,0,1,.78-.9,2.68,2.68,0,0,1,1-.39,3.42,3.42,0,0,1,.59,0l.6,0a2,2,0,0,1,1.28.8,4,4,0,0,1,.59,2.45Zm2.71-.92a1.53,1.53,0,0,0-.38-1,1.2,1.2,0,0,0-.94-.42,1.3,1.3,0,0,0-1,.4,1.42,1.42,0,0,0-.41,1Z" style="fill:#423c25"/><path d="M45.24,105.2a.65.65,0,0,1,0,1,.73.73,0,0,1-1,0,.68.68,0,0,1,0-1,.7.7,0,0,1,1,0Z" style="fill:#423c25"/><path d="M52.54,98.66l5.69-.1v1.16l-2.12,0v6.57H54.87V99.77l-2.33.06Z" style="fill:#423c25"/><path d="M58.73,106.26a3.76,3.76,0,0,1,0-4.4,2.73,2.73,0,0,1,4,0,3.76,3.76,0,0,1,0,4.4,2.71,2.71,0,0,1-4,0Zm3.18-.76a2.77,2.77,0,0,0,0-2.8,1.35,1.35,0,0,0-1.2-.65,1.33,1.33,0,0,0-1.2.65,2.71,2.71,0,0,0,0,2.8,1.33,1.33,0,0,0,1.2.65A1.35,1.35,0,0,0,61.91,105.5Z" style="fill:#423c25"/><path d="M68.2,107.24l-.07-1.33a1.72,1.72,0,0,1-.94.92,2.08,2.08,0,0,1-.76.14,2,2,0,0,1-.42,0,1.62,1.62,0,0,1-1-.62,2.59,2.59,0,0,1-.5-1.12,14.5,14.5,0,0,1-.08-2.11c0-.67,0-1.48,0-2.44l1.11,0c0,.75,0,1.4,0,2a21.19,21.19,0,0,0,.06,2.22,1,1,0,0,0,1.08.94h0a1,1,0,0,0,.65-.22,2.24,2.24,0,0,0,.45-.58,3.43,3.43,0,0,0,.21-1.42l.06-2.49,1.14-.08.09,6.11Z" style="fill:#423c25"/><path d="M70.4,100.57h.92V98.91l1.18-.16v1.77l1.53,0v1l-1.53,0V105a1,1,0,0,0,.1.57.4.4,0,0,0,.34.14,4,4,0,0,0,.93-.2l.16,1a6.6,6.6,0,0,1-1.4.22,1.86,1.86,0,0,1-1-.36,1.69,1.69,0,0,1-.3-1.06v-3.75H70.4Z" style="fill:#423c25"/><path d="M82.27,100.64l0,1.33a1.77,1.77,0,0,1,1-.92,2.21,2.21,0,0,1,.75-.14,1.93,1.93,0,0,1,.42,0,1.61,1.61,0,0,1,1,.61,2.77,2.77,0,0,1,.51,1.13,14.42,14.42,0,0,1,.07,1.79c0,.72,0,1.64,0,2.76l-1.11,0c0-.95,0-1.74,0-2.37a15.34,15.34,0,0,0,0-1.81,1.11,1.11,0,0,0-.37-.7,1,1,0,0,0-.7-.24h0a.92.92,0,0,0-.65.22,2.18,2.18,0,0,0-.45.57,3.8,3.8,0,0,0-.22,1.42l-.06,2.53-1.11,0-.09-6.09Z" style="fill:#423c25"/><path d="M87.37,101.54l-.34-.23a2.3,2.3,0,0,0,.63-.85.51.51,0,0,1-.51-.27.82.82,0,0,1-.1-.4.34.34,0,0,1,0-.1.59.59,0,0,1,.18-.38.68.68,0,0,1,.37-.18h.1a.77.77,0,0,1,.66.41.81.81,0,0,1,.06.33,1.62,1.62,0,0,1,0,.21,1.73,1.73,0,0,1-.22.6A6.89,6.89,0,0,1,87.37,101.54Z" style="fill:#423c25"/><path d="M90.73,104.22a2.1,2.1,0,0,0,.41,1.33,1.34,1.34,0,0,0,.91.39h.14a1.36,1.36,0,0,0,.79-.22,1.64,1.64,0,0,0,.57-1l1.17.23a3.31,3.31,0,0,1-.65,1.25,1.83,1.83,0,0,1-1.18.65,4.56,4.56,0,0,1-.72.06,3.38,3.38,0,0,1-.72-.07,2.16,2.16,0,0,1-1.19-.68A2.59,2.59,0,0,1,89.6,105a4.61,4.61,0,0,1-.12-1c0-.13,0-.25,0-.38a3.24,3.24,0,0,1,.36-1.31,2.05,2.05,0,0,1,.78-.9,2.63,2.63,0,0,1,1-.39,3.64,3.64,0,0,1,.6,0l.6,0a2,2,0,0,1,1.28.8,4,4,0,0,1,.59,2.45Zm2.71-.92a1.59,1.59,0,0,0-.38-1,1.2,1.2,0,0,0-.94-.42,1.29,1.29,0,0,0-1,.4,1.42,1.42,0,0,0-.41,1Zm.27-4.93-1.52,1.74-.9-.21L92.43,98Z" style="fill:#423c25"/><path d="M95.77,100.57h.93V98.91l1.17-.16v1.77l1.53,0v1l-1.53,0V105a1,1,0,0,0,.11.57.4.4,0,0,0,.34.14,4,4,0,0,0,.93-.2l.15,1a6.53,6.53,0,0,1-1.39.22,1.83,1.83,0,0,1-1-.36,1.69,1.69,0,0,1-.3-1.06v-3.75h-.93Z" style="fill:#423c25"/><path d="M101.15,101.82a2.24,2.24,0,0,1,1.15-.61,3,3,0,0,1,.68-.07,3.79,3.79,0,0,1,.86.1,1.41,1.41,0,0,1,1.08,1.12,8,8,0,0,1,.16,1.79c0,.4,0,.85,0,1.35v0c0,.29.12.43.34.43a1.05,1.05,0,0,0,.41-.1l.09,1a3,3,0,0,1-.74.1,1.06,1.06,0,0,1-1-.55,2.88,2.88,0,0,1-.94.58,3.19,3.19,0,0,1-.89.13h0a2.14,2.14,0,0,1-.84-.17,1.62,1.62,0,0,1-.65-.49,1.46,1.46,0,0,1-.28-.76c0-.06,0-.11,0-.17a2.24,2.24,0,0,1,.15-.78,1.64,1.64,0,0,1,.91-.86,7.6,7.6,0,0,1,2.5-.52,1.43,1.43,0,0,0-.19-.92,1.12,1.12,0,0,0-.74-.25h-.19a1.45,1.45,0,0,0-.7.15,1,1,0,0,0-.4.82l-1.12-.15A1.82,1.82,0,0,1,101.15,101.82ZM104,104.3a5.06,5.06,0,0,0-1.9.4.89.89,0,0,0-.46.72v0a.67.67,0,0,0,.26.58,1.08,1.08,0,0,0,.59.16h.17a1.85,1.85,0,0,0,.75-.21c.19-.12.38-.25.59-.41Z" style="fill:#423c25"/><path d="M108.11,99.32a.66.66,0,0,1,0,1,.68.68,0,0,1-.5.2.67.67,0,0,1-.49-1.15.7.7,0,0,1,.49-.2A.72.72,0,0,1,108.11,99.32Zm-1.1,1.81,1.17,0-.1,5.84h-1Z" style="fill:#423c25"/><path d="M109.36,100.57h.93V98.91l1.17-.16v1.77l1.53,0v1l-1.53,0V105a1.14,1.14,0,0,0,.1.57.42.42,0,0,0,.34.14,3.84,3.84,0,0,0,.93-.2l.16,1a6.51,6.51,0,0,1-1.4.22,1.88,1.88,0,0,1-1-.36,1.64,1.64,0,0,1-.29-1.06v-3.75h-.93Z" style="fill:#423c25"/><path d="M121.2,100.6l0,1a1.76,1.76,0,0,1,.74-.69,2.39,2.39,0,0,1,1.09-.24,2.13,2.13,0,0,1,1.19.39,2.09,2.09,0,0,1,.83,1.08,4.66,4.66,0,0,1,.25,1.42v.07a5.09,5.09,0,0,1-.23,1.48,2.26,2.26,0,0,1-.84,1.26,1.84,1.84,0,0,1-1.11.31,2.89,2.89,0,0,1-.5,0,1.67,1.67,0,0,1-1.42-1.06l0,2.88h-1.19V100.6Zm2.93,3a2.41,2.41,0,0,0-.37-1.34,1.15,1.15,0,0,0-1-.61,1.3,1.3,0,0,0-1.11.55,2.29,2.29,0,0,0-.36,1.33v.07c0,1.31.48,2,1.37,2a1.24,1.24,0,0,0,1.1-.61,2.32,2.32,0,0,0,.36-1.31Z" style="fill:#423c25"/><path d="M127.08,101.82a2.24,2.24,0,0,1,1.15-.61,3,3,0,0,1,.68-.07,3.73,3.73,0,0,1,.86.1,1.39,1.39,0,0,1,1.08,1.12,7.47,7.47,0,0,1,.16,1.79c0,.4,0,.85,0,1.35v0c0,.29.11.43.33.43a1.05,1.05,0,0,0,.41-.1l.09,1a3,3,0,0,1-.73.1,1.06,1.06,0,0,1-1-.55,2.78,2.78,0,0,1-.94.58,3.19,3.19,0,0,1-.89.13h0a2.05,2.05,0,0,1-.83-.17,1.66,1.66,0,0,1-.66-.49,1.46,1.46,0,0,1-.28-.76v-.17a2.22,2.22,0,0,1,.14-.78,1.66,1.66,0,0,1,.92-.86,7.47,7.47,0,0,1,2.49-.52,1.43,1.43,0,0,0-.19-.92,1.1,1.1,0,0,0-.74-.25h-.19a1.48,1.48,0,0,0-.7.15,1,1,0,0,0-.39.82L126.6,103A1.92,1.92,0,0,1,127.08,101.82ZM130,104.3a5.07,5.07,0,0,0-1.91.4.89.89,0,0,0-.46.72v0a.65.65,0,0,0,.27.58,1,1,0,0,0,.58.16h.17a1.85,1.85,0,0,0,.75-.21c.19-.12.39-.25.6-.41Z" style="fill:#423c25"/><path d="M132.85,104.84l1.12-.21c.06.56.27.89.65,1a3.14,3.14,0,0,0,.71.09,1.27,1.27,0,0,0,.28,0,.93.93,0,0,0,.59-.24.79.79,0,0,0,.19-.36s0,0,0-.06a.44.44,0,0,0-.1-.26,1,1,0,0,0-.28-.27,6.21,6.21,0,0,0-1-.34c-.56-.16-1-.3-1.21-.4a1.64,1.64,0,0,1-.59-.43,1.28,1.28,0,0,1-.24-.71v-.09a1.84,1.84,0,0,1,.16-.73,1.45,1.45,0,0,1,.66-.63,2.79,2.79,0,0,1,1-.3l.39,0a3.27,3.27,0,0,1,.54,0,2.43,2.43,0,0,1,.9.36,2.22,2.22,0,0,1,.71,1.37l-1.05.14c-.14-.48-.32-.75-.54-.82a1.87,1.87,0,0,0-.56-.09H135a1.06,1.06,0,0,0-.57.2.54.54,0,0,0-.26.41v0a.42.42,0,0,0,.15.34,2.44,2.44,0,0,0,.95.34,6.09,6.09,0,0,1,1.37.47,1.35,1.35,0,0,1,.72.63,2,2,0,0,1,.14.75v0a1.47,1.47,0,0,1-.24.79,1.76,1.76,0,0,1-.75.62,3,3,0,0,1-1.29.26h-.08a3.59,3.59,0,0,1-1.1-.14,1.74,1.74,0,0,1-.75-.44A2.41,2.41,0,0,1,132.85,104.84Z" style="fill:#423c25"/><path d="M17,114.74a1.63,1.63,0,0,0-.59-.12,1.53,1.53,0,0,0-.3,0,1.44,1.44,0,0,0-.72.47,1.86,1.86,0,0,0-.38,1,4.73,4.73,0,0,0,0,.52,3,3,0,0,0,.07.61,1.67,1.67,0,0,0,.43.87,1.19,1.19,0,0,0,.83.39h.12a1.45,1.45,0,0,0,.79-.22,1.24,1.24,0,0,0,.49-1l1.11.23a2.37,2.37,0,0,1-.57,1.25,1.93,1.93,0,0,1-1.18.65,3.88,3.88,0,0,1-.67.06,3,3,0,0,1-.68-.07,2.18,2.18,0,0,1-1.07-.54,2.5,2.5,0,0,1-.63-1.14,4.29,4.29,0,0,1-.16-1.17c0-.1,0-.2,0-.3a3.89,3.89,0,0,1,.34-1.35,2.15,2.15,0,0,1,.74-.89,2.46,2.46,0,0,1,.92-.39,2.52,2.52,0,0,1,.57-.05l.52,0a2,2,0,0,1,1.81,1.88l-1.1.17A1.25,1.25,0,0,0,17,114.74Z" style="fill:#423c25"/><path d="M21.08,117.12a2.14,2.14,0,0,0,.41,1.34,1.32,1.32,0,0,0,.91.39h.13a1.47,1.47,0,0,0,.8-.22,1.69,1.69,0,0,0,.57-1l1.17.23a3.54,3.54,0,0,1-.65,1.25,1.9,1.9,0,0,1-1.19.65,4.56,4.56,0,0,1-.72.06,3.35,3.35,0,0,1-.71-.07,2.22,2.22,0,0,1-1.19-.68,2.73,2.73,0,0,1-.67-1.25,5.17,5.17,0,0,1-.11-1c0-.12,0-.24,0-.37a3.7,3.7,0,0,1,.36-1.32,2.22,2.22,0,0,1,.78-.89,2.75,2.75,0,0,1,1-.39,2.8,2.8,0,0,1,.6,0l.59,0a2,2,0,0,1,1.29.8,4,4,0,0,1,.59,2.45Zm2.71-.92a1.59,1.59,0,0,0-.38-1,1.22,1.22,0,0,0-.95-.42,1.3,1.3,0,0,0-1,.4,1.4,1.4,0,0,0-.4,1Z" style="fill:#423c25"/><path d="M33.47,113.45v7.82H32.29l0-2.89a1.64,1.64,0,0,1-1.41,1.06,3.13,3.13,0,0,1-.5,0,1.86,1.86,0,0,1-1.12-.32,2.33,2.33,0,0,1-.84-1.25,5.51,5.51,0,0,1-.23-1.48v-.08a4.55,4.55,0,0,1,.25-1.41,2.07,2.07,0,0,1,.83-1.09,2.16,2.16,0,0,1,1.2-.39,2.38,2.38,0,0,1,1.08.24,1.76,1.76,0,0,1,.74.69l0-1Zm-4,3v0a2.27,2.27,0,0,0,.36,1.31,1.24,1.24,0,0,0,1.1.61c.9,0,1.35-.65,1.38-2v-.06A2.25,2.25,0,0,0,31.9,115a1.3,1.3,0,0,0-1.11-.56,1.17,1.17,0,0,0-1,.61A2.49,2.49,0,0,0,29.43,116.4Z" style="fill:#423c25"/><path d="M38.26,120.15l-.07-1.33a1.72,1.72,0,0,1-.94.92,2.31,2.31,0,0,1-.76.14,2,2,0,0,1-.42,0,1.61,1.61,0,0,1-1-.61,2.63,2.63,0,0,1-.5-1.13,16.13,16.13,0,0,1-.08-2.11q0-1,0-2.43l1.1,0c0,.76,0,1.41,0,2a20.91,20.91,0,0,0,.06,2.22,1.16,1.16,0,0,0,.37.7,1.05,1.05,0,0,0,.71.24h0a.92.92,0,0,0,.65-.22,2.18,2.18,0,0,0,.45-.57,3.49,3.49,0,0,0,.21-1.43l.06-2.49,1.14-.07.09,6.11Z" style="fill:#423c25"/><path d="M40.8,114.44l-.34-.23a2.15,2.15,0,0,0,.63-.85.49.49,0,0,1-.51-.26.85.85,0,0,1-.1-.4.34.34,0,0,1,0-.1.65.65,0,0,1,.18-.39A.85.85,0,0,1,41,112h.1a.66.66,0,0,1,.34.1.82.82,0,0,1,.32.32.76.76,0,0,1,.06.32,1.48,1.48,0,0,1,0,.21,1.55,1.55,0,0,1-.23.61A5.53,5.53,0,0,1,40.8,114.44Z" style="fill:#423c25"/><path d="M44.1,112.23a.66.66,0,0,1,0,1,.71.71,0,0,1-1,0A.68.68,0,0,1,43.6,112,.66.66,0,0,1,44.1,112.23ZM43,114l1.17-.05-.11,5.84h-1Z" style="fill:#423c25"/><path d="M45.35,111.89l1.17,0v7.84l-1.11,0Z" style="fill:#423c25"/><path d="M49.68,117.74l1.12-.21c.06.57.27.89.65,1a3.14,3.14,0,0,0,.71.09l.28,0a.88.88,0,0,0,.59-.25.72.72,0,0,0,.19-.35s0,0,0-.06a.43.43,0,0,0-.1-.27,1.16,1.16,0,0,0-.28-.26,6.47,6.47,0,0,0-1-.35c-.56-.16-1-.29-1.21-.39a1.55,1.55,0,0,1-.59-.44,1.25,1.25,0,0,1-.24-.7v-.09a1.81,1.81,0,0,1,.16-.73,1.45,1.45,0,0,1,.66-.63,2.59,2.59,0,0,1,1-.3,2.55,2.55,0,0,1,.39,0,3.27,3.27,0,0,1,.54,0,2.43,2.43,0,0,1,.9.36,2.24,2.24,0,0,1,.72,1.37l-1.06.14c-.14-.48-.32-.75-.54-.83a1.87,1.87,0,0,0-.56-.09h-.11a1.08,1.08,0,0,0-.57.19.57.57,0,0,0-.26.42v.05a.43.43,0,0,0,.15.34,2.63,2.63,0,0,0,1,.34,6.09,6.09,0,0,1,1.37.47,1.35,1.35,0,0,1,.72.63,2,2,0,0,1,.14.75v0a1.58,1.58,0,0,1-.23.79,1.94,1.94,0,0,1-.76.62,3.15,3.15,0,0,1-1.29.26H52a3.63,3.63,0,0,1-1.1-.13,1.93,1.93,0,0,1-.75-.45A2.34,2.34,0,0,1,49.68,117.74Z" style="fill:#423c25"/><path d="M56.67,117.12a2.14,2.14,0,0,0,.41,1.34,1.29,1.29,0,0,0,.9.39h.14a1.41,1.41,0,0,0,.79-.22,1.7,1.7,0,0,0,.58-1l1.17.23a3.71,3.71,0,0,1-.65,1.25,1.92,1.92,0,0,1-1.19.65,4.56,4.56,0,0,1-.72.06,3.35,3.35,0,0,1-.71-.07,2.18,2.18,0,0,1-1.19-.68,2.64,2.64,0,0,1-.67-1.25,5.17,5.17,0,0,1-.11-1c0-.12,0-.24,0-.37a3.7,3.7,0,0,1,.36-1.32,2.22,2.22,0,0,1,.78-.89,2.75,2.75,0,0,1,1-.39,2.8,2.8,0,0,1,.6,0l.59,0a2,2,0,0,1,1.29.8,4,4,0,0,1,.59,2.45Zm2.71-.92a1.54,1.54,0,0,0-.39-1,1.2,1.2,0,0,0-.94-.42,1.3,1.3,0,0,0-1,.4,1.4,1.4,0,0,0-.4,1Z" style="fill:#423c25"/><path d="M62.88,113.08l.06,1.26a1.43,1.43,0,0,1,.81-.91,2.08,2.08,0,0,1,.66-.11,2.3,2.3,0,0,1,.45.05,2,2,0,0,1,1.15,1,2,2,0,0,1,.82-.94,2.09,2.09,0,0,1,1-.23H68a1.49,1.49,0,0,1,1.15.63,2.4,2.4,0,0,1,.53,1.35c0,.21,0,.58,0,1.1,0,.7,0,1.67,0,2.92l-1.06-.1V116a2.13,2.13,0,0,0-.39-1.26,1,1,0,0,0-.55-.28h-.06a.87.87,0,0,0-.52.23,1.46,1.46,0,0,0-.46.61,6.94,6.94,0,0,0-.21,1.6l0,1.7-1,0a25,25,0,0,0-.11-3.22,1.7,1.7,0,0,0-.38-.76.68.68,0,0,0-.49-.23h-.12a1.56,1.56,0,0,0-.6.27,1.39,1.39,0,0,0-.43.57,4.49,4.49,0,0,0-.19,1.46l-.09,2.56h-1l-.16-6.18Z" style="fill:#423c25"/><path d="M70.73,120v-7.81h1.19l0,2.88A1.68,1.68,0,0,1,73.28,114a2.89,2.89,0,0,1,.5,0,1.88,1.88,0,0,1,1.12.31,2.25,2.25,0,0,1,.83,1.26A5.12,5.12,0,0,1,76,117V117a4.62,4.62,0,0,1-.26,1.42,2,2,0,0,1-.83,1.08,2.13,2.13,0,0,1-1.19.39,2.39,2.39,0,0,1-1.09-.24,1.74,1.74,0,0,1-.73-.69l0,1Zm4-3v0a2.33,2.33,0,0,0-.36-1.32,1.25,1.25,0,0,0-1.09-.61c-.9,0-1.36.66-1.38,2v.07a2.2,2.2,0,0,0,.37,1.33,1.29,1.29,0,0,0,1.1.56,1.18,1.18,0,0,0,1-.62A2.49,2.49,0,0,0,74.76,117Z" style="fill:#423c25"/><path d="M77,111.89l1.17,0v7.84l-1.12,0Z" style="fill:#423c25"/><path d="M79.94,114.73a2.25,2.25,0,0,1,1.14-.61,3.11,3.11,0,0,1,.69-.07,3.79,3.79,0,0,1,.86.1,1.41,1.41,0,0,1,1.08,1.12,8.08,8.08,0,0,1,.15,1.79c0,.4,0,.85,0,1.35v0c0,.29.11.43.34.43a1.27,1.27,0,0,0,.41-.1l.09,1a3.08,3.08,0,0,1-.74.11,1.05,1.05,0,0,1-1-.56,2.71,2.71,0,0,1-1,.59,3.52,3.52,0,0,1-.88.13h0a2,2,0,0,1-.84-.17,1.52,1.52,0,0,1-.65-.48,1.38,1.38,0,0,1-.28-.77.81.81,0,0,1,0-.16,2.34,2.34,0,0,1,.15-.79,1.67,1.67,0,0,1,.91-.86,7.88,7.88,0,0,1,2.5-.52,1.52,1.52,0,0,0-.19-.92,1.21,1.21,0,0,0-.74-.24h-.19a1.43,1.43,0,0,0-.7.15,1,1,0,0,0-.4.81l-1.12-.14A1.82,1.82,0,0,1,79.94,114.73Zm2.87,2.48a4.81,4.81,0,0,0-1.9.4.87.87,0,0,0-.46.72.09.09,0,0,0,0,0,.67.67,0,0,0,.27.58,1.06,1.06,0,0,0,.58.15h.17a1.58,1.58,0,0,0,.75-.21,5.86,5.86,0,0,0,.6-.41Z" style="fill:#423c25"/><path d="M86.89,112.23a.64.64,0,0,1,0,1,.7.7,0,0,1-1,0,.62.62,0,0,1-.2-.48.61.61,0,0,1,.2-.47.7.7,0,0,1,1,0ZM85.8,114,87,114l-.1,5.84h-1Z" style="fill:#423c25"/><path d="M88.15,113.48h.92v-1.67l1.18-.15v1.77l1.53-.06v1l-1.53,0v3.5a1.09,1.09,0,0,0,.1.57.4.4,0,0,0,.34.14,4.69,4.69,0,0,0,.93-.2l.16,1a7.33,7.33,0,0,1-1.4.22,1.86,1.86,0,0,1-1-.36,1.69,1.69,0,0,1-.3-1.06v-3.76h-.92Z" style="fill:#423c25"/><path d="M96.18,117.12a2.13,2.13,0,0,0,.42,1.34,1.29,1.29,0,0,0,.9.39h.14a1.44,1.44,0,0,0,.79-.22,1.64,1.64,0,0,0,.57-1l1.18.23a3.55,3.55,0,0,1-.66,1.25,1.87,1.87,0,0,1-1.18.65,4.56,4.56,0,0,1-.72.06,3.38,3.38,0,0,1-.72-.07,2.26,2.26,0,0,1-1.19-.68,2.62,2.62,0,0,1-.66-1.25,4.55,4.55,0,0,1-.12-1c0-.12,0-.24,0-.37a3.33,3.33,0,0,1,.36-1.32,2.08,2.08,0,0,1,.78-.89,2.76,2.76,0,0,1,1.56-.44l.6,0a1.91,1.91,0,0,1,1.28.8,3.91,3.91,0,0,1,.59,2.45Zm.8-5.83h1.2l1.11,1.65-.77.2L97.59,112l-1,1.18-.79-.21Zm1.91,4.91a1.48,1.48,0,0,0-.38-1,1.2,1.2,0,0,0-.94-.42,1.29,1.29,0,0,0-1,.4,1.41,1.41,0,0,0-.41,1Z" style="fill:#423c25"/><path d="M101.23,113.48h.92v-1.67l1.18-.15v1.77l1.52-.06v1l-1.52,0v3.5a1.09,1.09,0,0,0,.1.57.4.4,0,0,0,.34.14,4.69,4.69,0,0,0,.93-.2l.15,1a7.14,7.14,0,0,1-1.39.22,1.86,1.86,0,0,1-1-.36,1.69,1.69,0,0,1-.3-1.06v-3.76h-.92Z" style="fill:#423c25"/><path d="M109.42,115.13a1.59,1.59,0,0,0-.79-.24h-.12a1.26,1.26,0,0,0-.68.25,1.92,1.92,0,0,0-.44.52,3.35,3.35,0,0,0-.22,1.39l-.07,2.53-1.1,0-.09-6.09,1.14-.13,0,1.33a1.85,1.85,0,0,1,1-.94,1.33,1.33,0,0,1,.54-.1,3.27,3.27,0,0,1,1.12.25Z" style="fill:#423c25"/><path d="M112,117.12a2.08,2.08,0,0,0,.41,1.34,1.29,1.29,0,0,0,.9.39h.14a1.41,1.41,0,0,0,.79-.22,1.7,1.7,0,0,0,.58-1l1.17.23a3.71,3.71,0,0,1-.65,1.25,1.92,1.92,0,0,1-1.19.65,4.56,4.56,0,0,1-.72.06,3.45,3.45,0,0,1-.72-.07,2.26,2.26,0,0,1-1.19-.68,2.62,2.62,0,0,1-.66-1.25,4.54,4.54,0,0,1-.11-1c0-.12,0-.24,0-.37a3.7,3.7,0,0,1,.36-1.32,2.22,2.22,0,0,1,.78-.89,2.75,2.75,0,0,1,1-.39,2.8,2.8,0,0,1,.6,0l.59,0a1.91,1.91,0,0,1,1.28.8,3.91,3.91,0,0,1,.59,2.45Zm2.71-.92a1.54,1.54,0,0,0-.39-1,1.2,1.2,0,0,0-.94-.42,1.3,1.3,0,0,0-1,.4,1.36,1.36,0,0,0-.4,1Z" style="fill:#423c25"/><path d="M118.26,118.11a.64.64,0,0,1,0,1,.7.7,0,0,1-1,0,.62.62,0,0,1-.2-.48.61.61,0,0,1,.2-.47.7.7,0,0,1,1,0Zm2.54.16a.64.64,0,0,1,0,1,.7.7,0,0,1-.49.2.66.66,0,0,1-.49-.2.68.68,0,0,1,.49-1.15A.66.66,0,0,1,120.8,118.27Zm2.54-.16a.66.66,0,0,1,0,1,.66.66,0,0,1-.5.2.67.67,0,0,1-.49-1.15.71.71,0,0,1,1,0Z" style="fill:#423c25"/></g></g></svg>