<svg xmlns="http://www.w3.org/2000/svg" width="150" height="150" viewBox="0 0 150 150"><title>5</title><g id="b14bd0f3-50e3-40c3-a5b2-c214c0f55d9f" data-name="fond"><rect x="0.3" y="-0.1" width="149.39" height="149.69" style="fill:#fff"/></g><g id="a7073b12-ed13-4aef-8298-bfcec1348867" data-name="shuri peinture"><path d="M158.59,20.38l-13.37-.64A2.75,2.75,0,0,0,145,18l0,0a.15.15,0,0,0,.09.06l7.38.36-6.12-4.63h0v0a2.7,2.7,0,0,0,1.5-1Z" style="fill:#fff"/><path d="M153.14-3.26,146.43,8.31a2.87,2.87,0,0,0-1.63-.63V7.56a.23.23,0,0,0,.2-.11l2.91-5.54-6.4,2.82s0,0-.05,0l-.1,0a2.57,2.57,0,0,0-.14-1.8Z" style="fill:#fff"/><path d="M152.54,18.38,145.16,18a.15.15,0,0,1-.09-.06s0,0,0-.06l1.3-4.14,0,0h0Z" style="fill:#423c25"/><path d="M147.9,1.91,145,7.45a.23.23,0,0,1-.2.11.19.19,0,0,1-.14,0l-3.17-2.6a.11.11,0,0,1,0-.14s0,0,.05,0Z" style="fill:#423c25"/><path d="M146.4,13.72v0l0,0-1.3,4.14s0,0,0,.06l0,0a1.6,1.6,0,0,0-.21-.32c-.87-1-2.6-.75-3.6-.17-.11.07-2,1.21-1.69,3a2.31,2.31,0,0,0,.92,1.51l-.05.08a.11.11,0,0,0-.12,0l-4,1.08a.16.16,0,0,0-.12.16l-.13,0c.28-1.27-.92-2.49-2-3-.12-.06-2.16-1-3.44.36a2.29,2.29,0,0,0-.39.54l-.07,0a.08.08,0,0,0,0-.11l-3.09-2.15a.11.11,0,0,0-.08,0v-.08l.29,0c1.32-.29,1.89-1.94,1.86-3.09,0-.13-.1-2.37-1.86-2.91a2.82,2.82,0,0,0-1.55,0l0-.09a.13.13,0,0,0,.09-.1L126.91,9a.14.14,0,0,0-.07-.18l.06-.09c1,.77,2.52.39,3.43-.22.1-.07,1.95-1.33,1.48-3.11a2.49,2.49,0,0,0-.67-1.17l.1-.1a.15.15,0,0,0,.19.09L135.16,3a.21.21,0,0,0,.13-.11l.09,0-.07.19c-.41,1.28.74,2.6,1.76,3.14.12.06,2.11,1.09,3.45-.16a2.86,2.86,0,0,0,.83-1.37l.1,0a.11.11,0,0,0,0,.14l3.17,2.6a.19.19,0,0,0,.14,0v.12a1.92,1.92,0,0,0-.41.05c-1.3.3-1.85,2-1.8,3.12,0,.13.14,2.36,1.9,2.88A3.54,3.54,0,0,0,146.4,13.72ZM137.59,15a2.31,2.31,0,1,0-3.26.3A2.29,2.29,0,0,0,137.59,15Z" style="fill:#423c25"/><path d="M141.73,22.75V36.18l-7.18-11.29A2.64,2.64,0,0,0,136,23.35v-.08l.13,0a.19.19,0,0,0,0,.1l4,6.31.23-7.53a.11.11,0,0,0,0-.08l.05-.08a2.77,2.77,0,0,0,1.29.49Z" style="fill:#fff"/><path d="M140.42,22.17l-.23,7.53-4-6.31a.19.19,0,0,1,0-.1.16.16,0,0,1,.12-.16l4-1.08a.11.11,0,0,1,.12,0A.11.11,0,0,1,140.42,22.17Z" style="fill:#423c25"/><path d="M137.29,11.72A2.31,2.31,0,1,1,134,12,2.29,2.29,0,0,1,137.29,11.72Z" style="fill:#fff"/><path d="M130.32-10l6.54,11.68a2.6,2.6,0,0,0-1.48,1.26l-.09,0a.19.19,0,0,0,0-.15l-3.32-6L131.23,4a.17.17,0,0,0,0,.07l-.1.1a2.77,2.77,0,0,0-1.76-.72Z" style="fill:#fff"/><path d="M135.27,2.74a.19.19,0,0,1,0,.15.21.21,0,0,1-.13.11l-3.73,1.17a.15.15,0,0,1-.19-.09.17.17,0,0,1,0-.07L132-3.23Z" style="fill:#423c25"/><path d="M130.41,23.53l-12,6.09,6.88-11.46a2.79,2.79,0,0,0,1.74.65v.08a.16.16,0,0,0-.14.08l-3.64,6.1,6.94-3.86,0,0,.07,0a1.51,1.51,0,0,0-.18.44A2.68,2.68,0,0,0,130.41,23.53Z" style="fill:#fff"/><path d="M130.15,21.07a.08.08,0,0,1,0,.11l0,0-6.94,3.86,3.64-6.1a.16.16,0,0,1,.14-.08.11.11,0,0,1,.08,0Z" style="fill:#423c25"/><path d="M126.84,8.77a.14.14,0,0,1,.07.18l-1.12,3.59a.13.13,0,0,1-.09.1.17.17,0,0,1-.12,0l-6.49-4,7.68.16Z" style="fill:#423c25"/><path d="M126.9,8.68l-.06.09h-.07l-7.68-.16,6.49,4a.17.17,0,0,0,.12,0l0,.09a2.53,2.53,0,0,0-1.49,1l-11.44-7,13.38-.23a2.58,2.58,0,0,0,.55,2Z" style="fill:#fff"/><path d="M144.8,7.68a2.87,2.87,0,0,1,1.63.63l6.71-11.57-11.93,6.2a2.57,2.57,0,0,1,.14,1.8,2.86,2.86,0,0,1-.83,1.37c-1.34,1.25-3.33.22-3.45.16-1-.54-2.17-1.86-1.76-3.14l.07-.19a2.6,2.6,0,0,1,1.48-1.26L130.32-10l-.94,13.46a2.77,2.77,0,0,1,1.76.72,2.49,2.49,0,0,1,.67,1.17c.47,1.78-1.38,3-1.48,3.11-.91.61-2.47,1-3.43.22l-.18-.15a2.58,2.58,0,0,1-.55-2l-13.38.23,11.44,7a2.53,2.53,0,0,1,1.49-1,2.82,2.82,0,0,1,1.55,0c1.76.54,1.86,2.78,1.86,2.91,0,1.15-.54,2.8-1.86,3.09l-.29,0a2.79,2.79,0,0,1-1.74-.65l-6.88,11.46,12-6.09a2.68,2.68,0,0,1-.35-1.88,1.51,1.51,0,0,1,.18-.44,2.29,2.29,0,0,1,.39-.54c1.28-1.33,3.32-.42,3.44-.36,1,.47,2.23,1.69,2,3v.08a2.64,2.64,0,0,1-1.46,1.54l7.18,11.29V22.5a2.77,2.77,0,0,1-1.29-.49,2.31,2.31,0,0,1-.92-1.51c-.35-1.8,1.58-2.94,1.69-3,1-.58,2.73-.85,3.6.17A1.6,1.6,0,0,1,145,18a2.75,2.75,0,0,1,.2,1.76l13.37.64L147.9,12.72a2.7,2.7,0,0,1-1.5,1,3.54,3.54,0,0,1-1.91,0c-1.76-.52-1.9-2.75-1.9-2.88-.05-1.16.5-2.82,1.8-3.12A1.92,1.92,0,0,1,144.8,7.68Z" style="fill:none;stroke:#423c25;stroke-miterlimit:10;stroke-width:0.5992138385772705px"/><path d="M130.17,21.18l0,0-6.94,3.86,3.64-6.1a.16.16,0,0,1,.14-.08.11.11,0,0,1,.08,0l3.09,2.15A.08.08,0,0,1,130.17,21.18Z" style="fill:none;stroke:#423c25;stroke-miterlimit:10;stroke-width:0.5992138385772705px"/><path d="M136.15,23.29a.19.19,0,0,0,0,.1l4,6.31.23-7.53a.11.11,0,0,0,0-.08.11.11,0,0,0-.12,0l-4,1.08A.16.16,0,0,0,136.15,23.29Z" style="fill:none;stroke:#423c25;stroke-miterlimit:10;stroke-width:0.5992138385772705px"/><path d="M146.4,13.74h0l6.12,4.63L145.16,18a.15.15,0,0,1-.09-.06s0,0,0-.06l1.3-4.14Z" style="fill:none;stroke:#423c25;stroke-miterlimit:10;stroke-width:0.5992138385772705px"/><path d="M141.45,4.77s0,0,.05,0l6.4-2.82L145,7.45a.23.23,0,0,1-.2.11.19.19,0,0,1-.14,0l-3.17-2.6A.11.11,0,0,1,141.45,4.77Z" style="fill:none;stroke:#423c25;stroke-miterlimit:10;stroke-width:0.5992138385772705px"/><path d="M135.29,2.89a.19.19,0,0,0,0-.15l-3.32-6L131.23,4a.17.17,0,0,0,0,.07.15.15,0,0,0,.19.09L135.16,3A.21.21,0,0,0,135.29,2.89Z" style="fill:none;stroke:#423c25;stroke-miterlimit:10;stroke-width:0.5992138385772705px"/><path d="M125.7,12.64a.17.17,0,0,1-.12,0l-6.49-4,7.68.16h.07a.14.14,0,0,1,.07.18l-1.12,3.59A.13.13,0,0,1,125.7,12.64Z" style="fill:none;stroke:#423c25;stroke-miterlimit:10;stroke-width:0.5992138385772705px"/><path d="M137.29,11.72A2.31,2.31,0,1,1,134,12,2.29,2.29,0,0,1,137.29,11.72Z" style="fill:none;stroke:#423c25;stroke-miterlimit:10;stroke-width:0.5992138385772705px"/><path d="M158.59,20.38l-13.37-.64A2.75,2.75,0,0,0,145,18l0,0a.15.15,0,0,0,.09.06l7.38.36-6.12-4.63h0v0a2.7,2.7,0,0,0,1.5-1Z" style="fill:#fff"/><path d="M153.14-3.26,146.43,8.31a2.87,2.87,0,0,0-1.63-.63V7.56a.23.23,0,0,0,.2-.11l2.91-5.54-6.4,2.82s0,0-.05,0l-.1,0a2.57,2.57,0,0,0-.14-1.8Z" style="fill:#fff"/><path d="M152.54,18.38,145.16,18a.15.15,0,0,1-.09-.06s0,0,0-.06l1.3-4.14,0,0h0Z" style="fill:#423c25"/><path d="M147.9,1.91,145,7.45a.23.23,0,0,1-.2.11.19.19,0,0,1-.14,0l-3.17-2.6a.11.11,0,0,1,0-.14s0,0,.05,0Z" style="fill:#423c25"/><path d="M146.4,13.72v0l0,0-1.3,4.14s0,0,0,.06l0,0a1.6,1.6,0,0,0-.21-.32c-.87-1-2.6-.75-3.6-.17-.11.07-2,1.21-1.69,3a2.31,2.31,0,0,0,.92,1.51l-.05.08a.11.11,0,0,0-.12,0l-4,1.08a.16.16,0,0,0-.12.16l-.13,0c.28-1.27-.92-2.49-2-3-.12-.06-2.16-1-3.44.36a2.29,2.29,0,0,0-.39.54l-.07,0a.08.08,0,0,0,0-.11l-3.09-2.15a.11.11,0,0,0-.08,0v-.08l.29,0c1.32-.29,1.89-1.94,1.86-3.09,0-.13-.1-2.37-1.86-2.91a2.82,2.82,0,0,0-1.55,0l0-.09a.13.13,0,0,0,.09-.1L126.91,9a.14.14,0,0,0-.07-.18l.06-.09c1,.77,2.52.39,3.43-.22.1-.07,1.95-1.33,1.48-3.11a2.49,2.49,0,0,0-.67-1.17l.1-.1a.15.15,0,0,0,.19.09L135.16,3a.21.21,0,0,0,.13-.11l.09,0-.07.19c-.41,1.28.74,2.6,1.76,3.14.12.06,2.11,1.09,3.45-.16a2.86,2.86,0,0,0,.83-1.37l.1,0a.11.11,0,0,0,0,.14l3.17,2.6a.19.19,0,0,0,.14,0v.12a1.92,1.92,0,0,0-.41.05c-1.3.3-1.85,2-1.8,3.12,0,.13.14,2.36,1.9,2.88A3.54,3.54,0,0,0,146.4,13.72ZM137.59,15a2.31,2.31,0,1,0-3.26.3A2.29,2.29,0,0,0,137.59,15Z" style="fill:#423c25"/><path d="M141.73,22.75V36.18l-7.18-11.29A2.64,2.64,0,0,0,136,23.35v-.08l.13,0a.19.19,0,0,0,0,.1l4,6.31.23-7.53a.11.11,0,0,0,0-.08l.05-.08a2.77,2.77,0,0,0,1.29.49Z" style="fill:#fff"/><path d="M140.42,22.17l-.23,7.53-4-6.31a.19.19,0,0,1,0-.1.16.16,0,0,1,.12-.16l4-1.08a.11.11,0,0,1,.12,0A.11.11,0,0,1,140.42,22.17Z" style="fill:#423c25"/><path d="M137.29,11.72A2.31,2.31,0,1,1,134,12,2.29,2.29,0,0,1,137.29,11.72Z" style="fill:#fff"/><path d="M130.32-10l6.54,11.68a2.6,2.6,0,0,0-1.48,1.26l-.09,0a.19.19,0,0,0,0-.15l-3.32-6L131.23,4a.17.17,0,0,0,0,.07l-.1.1a2.77,2.77,0,0,0-1.76-.72Z" style="fill:#fff"/><path d="M135.27,2.74a.19.19,0,0,1,0,.15.21.21,0,0,1-.13.11l-3.73,1.17a.15.15,0,0,1-.19-.09.17.17,0,0,1,0-.07L132-3.23Z" style="fill:#423c25"/><path d="M130.41,23.53l-12,6.09,6.88-11.46a2.79,2.79,0,0,0,1.74.65v.08a.16.16,0,0,0-.14.08l-3.64,6.1,6.94-3.86,0,0,.07,0a1.51,1.51,0,0,0-.18.44A2.68,2.68,0,0,0,130.41,23.53Z" style="fill:#fff"/><path d="M130.15,21.07a.08.08,0,0,1,0,.11l0,0-6.94,3.86,3.64-6.1a.16.16,0,0,1,.14-.08.11.11,0,0,1,.08,0Z" style="fill:#423c25"/><path d="M126.84,8.77a.14.14,0,0,1,.07.18l-1.12,3.59a.13.13,0,0,1-.09.1.17.17,0,0,1-.12,0l-6.49-4,7.68.16Z" style="fill:#423c25"/><path d="M126.9,8.68l-.06.09h-.07l-7.68-.16,6.49,4a.17.17,0,0,0,.12,0l0,.09a2.53,2.53,0,0,0-1.49,1l-11.44-7,13.38-.23a2.58,2.58,0,0,0,.55,2Z" style="fill:#fff"/><path d="M144.8,7.68a2.87,2.87,0,0,1,1.63.63l6.71-11.57-11.93,6.2a2.57,2.57,0,0,1,.14,1.8,2.86,2.86,0,0,1-.83,1.37c-1.34,1.25-3.33.22-3.45.16-1-.54-2.17-1.86-1.76-3.14l.07-.19a2.6,2.6,0,0,1,1.48-1.26L130.32-10l-.94,13.46a2.77,2.77,0,0,1,1.76.72,2.49,2.49,0,0,1,.67,1.17c.47,1.78-1.38,3-1.48,3.11-.91.61-2.47,1-3.43.22l-.18-.15a2.58,2.58,0,0,1-.55-2l-13.38.23,11.44,7a2.53,2.53,0,0,1,1.49-1,2.82,2.82,0,0,1,1.55,0c1.76.54,1.86,2.78,1.86,2.91,0,1.15-.54,2.8-1.86,3.09l-.29,0a2.79,2.79,0,0,1-1.74-.65l-6.88,11.46,12-6.09a2.68,2.68,0,0,1-.35-1.88,1.51,1.51,0,0,1,.18-.44,2.29,2.29,0,0,1,.39-.54c1.28-1.33,3.32-.42,3.44-.36,1,.47,2.23,1.69,2,3v.08a2.64,2.64,0,0,1-1.46,1.54l7.18,11.29V22.5a2.77,2.77,0,0,1-1.29-.49,2.31,2.31,0,0,1-.92-1.51c-.35-1.8,1.58-2.94,1.69-3,1-.58,2.73-.85,3.6.17A1.6,1.6,0,0,1,145,18a2.75,2.75,0,0,1,.2,1.76l13.37.64L147.9,12.72a2.7,2.7,0,0,1-1.5,1,3.54,3.54,0,0,1-1.91,0c-1.76-.52-1.9-2.75-1.9-2.88-.05-1.16.5-2.82,1.8-3.12A1.92,1.92,0,0,1,144.8,7.68Z" style="fill:none;stroke:#423c25;stroke-miterlimit:10;stroke-width:0.5992138385772705px"/><path d="M130.17,21.18l0,0-6.94,3.86,3.64-6.1a.16.16,0,0,1,.14-.08.11.11,0,0,1,.08,0l3.09,2.15A.08.08,0,0,1,130.17,21.18Z" style="fill:none;stroke:#423c25;stroke-miterlimit:10;stroke-width:0.5992138385772705px"/><path d="M136.15,23.29a.19.19,0,0,0,0,.1l4,6.31.23-7.53a.11.11,0,0,0,0-.08.11.11,0,0,0-.12,0l-4,1.08A.16.16,0,0,0,136.15,23.29Z" style="fill:none;stroke:#423c25;stroke-miterlimit:10;stroke-width:0.5992138385772705px"/><path d="M146.4,13.74h0l6.12,4.63L145.16,18a.15.15,0,0,1-.09-.06s0,0,0-.06l1.3-4.14Z" style="fill:none;stroke:#423c25;stroke-miterlimit:10;stroke-width:0.5992138385772705px"/><path d="M141.45,4.77s0,0,.05,0l6.4-2.82L145,7.45a.23.23,0,0,1-.2.11.19.19,0,0,1-.14,0l-3.17-2.6A.11.11,0,0,1,141.45,4.77Z" style="fill:none;stroke:#423c25;stroke-miterlimit:10;stroke-width:0.5992138385772705px"/><path d="M135.29,2.89a.19.19,0,0,0,0-.15l-3.32-6L131.23,4a.17.17,0,0,0,0,.07.15.15,0,0,0,.19.09L135.16,3A.21.21,0,0,0,135.29,2.89Z" style="fill:none;stroke:#423c25;stroke-miterlimit:10;stroke-width:0.5992138385772705px"/><path d="M125.7,12.64a.17.17,0,0,1-.12,0l-6.49-4,7.68.16h.07a.14.14,0,0,1,.07.18l-1.12,3.59A.13.13,0,0,1,125.7,12.64Z" style="fill:none;stroke:#423c25;stroke-miterlimit:10;stroke-width:0.5992138385772705px"/><path d="M137.29,11.72A2.31,2.31,0,1,1,134,12,2.29,2.29,0,0,1,137.29,11.72Z" style="fill:none;stroke:#423c25;stroke-miterlimit:10;stroke-width:0.5992138385772705px"/><path d="M158.59,20.38l-13.37-.64A2.75,2.75,0,0,0,145,18l0,0a.15.15,0,0,0,.09.06l7.38.36-6.12-4.63h0v0a2.7,2.7,0,0,0,1.5-1Z" style="fill:#fff"/><path d="M153.14-3.26,146.43,8.31a2.87,2.87,0,0,0-1.63-.63V7.56a.23.23,0,0,0,.2-.11l2.91-5.54-6.4,2.82s0,0-.05,0l-.1,0a2.57,2.57,0,0,0-.14-1.8Z" style="fill:#fff"/><path d="M152.54,18.38,145.16,18a.15.15,0,0,1-.09-.06s0,0,0-.06l1.3-4.14,0,0h0Z" style="fill:#423c25"/><path d="M147.9,1.91,145,7.45a.23.23,0,0,1-.2.11.19.19,0,0,1-.14,0l-3.17-2.6a.11.11,0,0,1,0-.14s0,0,.05,0Z" style="fill:#423c25"/><path d="M146.4,13.72v0l0,0-1.3,4.14s0,0,0,.06l0,0a1.6,1.6,0,0,0-.21-.32c-.87-1-2.6-.75-3.6-.17-.11.07-2,1.21-1.69,3a2.31,2.31,0,0,0,.92,1.51l-.05.08a.11.11,0,0,0-.12,0l-4,1.08a.16.16,0,0,0-.12.16l-.13,0c.28-1.27-.92-2.49-2-3-.12-.06-2.16-1-3.44.36a2.29,2.29,0,0,0-.39.54l-.07,0a.08.08,0,0,0,0-.11l-3.09-2.15a.11.11,0,0,0-.08,0v-.08l.29,0c1.32-.29,1.89-1.94,1.86-3.09,0-.13-.1-2.37-1.86-2.91a2.82,2.82,0,0,0-1.55,0l0-.09a.13.13,0,0,0,.09-.1L126.91,9a.14.14,0,0,0-.07-.18l.06-.09c1,.77,2.52.39,3.43-.22.1-.07,1.95-1.33,1.48-3.11a2.49,2.49,0,0,0-.67-1.17l.1-.1a.15.15,0,0,0,.19.09L135.16,3a.21.21,0,0,0,.13-.11l.09,0-.07.19c-.41,1.28.74,2.6,1.76,3.14.12.06,2.11,1.09,3.45-.16a2.86,2.86,0,0,0,.83-1.37l.1,0a.11.11,0,0,0,0,.14l3.17,2.6a.19.19,0,0,0,.14,0v.12a1.92,1.92,0,0,0-.41.05c-1.3.3-1.85,2-1.8,3.12,0,.13.14,2.36,1.9,2.88A3.54,3.54,0,0,0,146.4,13.72ZM137.59,15a2.31,2.31,0,1,0-3.26.3A2.29,2.29,0,0,0,137.59,15Z" style="fill:#423c25"/><path d="M141.73,22.75V36.18l-7.18-11.29A2.64,2.64,0,0,0,136,23.35v-.08l.13,0a.19.19,0,0,0,0,.1l4,6.31.23-7.53a.11.11,0,0,0,0-.08l.05-.08a2.77,2.77,0,0,0,1.29.49Z" style="fill:#fff"/><path d="M140.42,22.17l-.23,7.53-4-6.31a.19.19,0,0,1,0-.1.16.16,0,0,1,.12-.16l4-1.08a.11.11,0,0,1,.12,0A.11.11,0,0,1,140.42,22.17Z" style="fill:#423c25"/><path d="M137.29,11.72A2.31,2.31,0,1,1,134,12,2.29,2.29,0,0,1,137.29,11.72Z" style="fill:#fff"/><path d="M130.32-10l6.54,11.68a2.6,2.6,0,0,0-1.48,1.26l-.09,0a.19.19,0,0,0,0-.15l-3.32-6L131.23,4a.17.17,0,0,0,0,.07l-.1.1a2.77,2.77,0,0,0-1.76-.72Z" style="fill:#fff"/><path d="M135.27,2.74a.19.19,0,0,1,0,.15.21.21,0,0,1-.13.11l-3.73,1.17a.15.15,0,0,1-.19-.09.17.17,0,0,1,0-.07L132-3.23Z" style="fill:#423c25"/><path d="M130.41,23.53l-12,6.09,6.88-11.46a2.79,2.79,0,0,0,1.74.65v.08a.16.16,0,0,0-.14.08l-3.64,6.1,6.94-3.86,0,0,.07,0a1.51,1.51,0,0,0-.18.44A2.68,2.68,0,0,0,130.41,23.53Z" style="fill:#fff"/><path d="M130.15,21.07a.08.08,0,0,1,0,.11l0,0-6.94,3.86,3.64-6.1a.16.16,0,0,1,.14-.08.11.11,0,0,1,.08,0Z" style="fill:#423c25"/><path d="M126.84,8.77a.14.14,0,0,1,.07.18l-1.12,3.59a.13.13,0,0,1-.09.1.17.17,0,0,1-.12,0l-6.49-4,7.68.16Z" style="fill:#423c25"/><path d="M126.9,8.68l-.06.09h-.07l-7.68-.16,6.49,4a.17.17,0,0,0,.12,0l0,.09a2.53,2.53,0,0,0-1.49,1l-11.44-7,13.38-.23a2.58,2.58,0,0,0,.55,2Z" style="fill:#fff"/><path d="M144.8,7.68a2.87,2.87,0,0,1,1.63.63l6.71-11.57-11.93,6.2a2.57,2.57,0,0,1,.14,1.8,2.86,2.86,0,0,1-.83,1.37c-1.34,1.25-3.33.22-3.45.16-1-.54-2.17-1.86-1.76-3.14l.07-.19a2.6,2.6,0,0,1,1.48-1.26L130.32-10l-.94,13.46a2.77,2.77,0,0,1,1.76.72,2.49,2.49,0,0,1,.67,1.17c.47,1.78-1.38,3-1.48,3.11-.91.61-2.47,1-3.43.22l-.18-.15a2.58,2.58,0,0,1-.55-2l-13.38.23,11.44,7a2.53,2.53,0,0,1,1.49-1,2.82,2.82,0,0,1,1.55,0c1.76.54,1.86,2.78,1.86,2.91,0,1.15-.54,2.8-1.86,3.09l-.29,0a2.79,2.79,0,0,1-1.74-.65l-6.88,11.46,12-6.09a2.68,2.68,0,0,1-.35-1.88,1.51,1.51,0,0,1,.18-.44,2.29,2.29,0,0,1,.39-.54c1.28-1.33,3.32-.42,3.44-.36,1,.47,2.23,1.69,2,3v.08a2.64,2.64,0,0,1-1.46,1.54l7.18,11.29V22.5a2.77,2.77,0,0,1-1.29-.49,2.31,2.31,0,0,1-.92-1.51c-.35-1.8,1.58-2.94,1.69-3,1-.58,2.73-.85,3.6.17A1.6,1.6,0,0,1,145,18a2.75,2.75,0,0,1,.2,1.76l13.37.64L147.9,12.72a2.7,2.7,0,0,1-1.5,1,3.54,3.54,0,0,1-1.91,0c-1.76-.52-1.9-2.75-1.9-2.88-.05-1.16.5-2.82,1.8-3.12A1.92,1.92,0,0,1,144.8,7.68Z" style="fill:none;stroke:#423c25;stroke-miterlimit:10;stroke-width:0.5992138385772705px"/><path d="M130.17,21.18l0,0-6.94,3.86,3.64-6.1a.16.16,0,0,1,.14-.08.11.11,0,0,1,.08,0l3.09,2.15A.08.08,0,0,1,130.17,21.18Z" style="fill:none;stroke:#423c25;stroke-miterlimit:10;stroke-width:0.5992138385772705px"/><path d="M136.15,23.29a.19.19,0,0,0,0,.1l4,6.31.23-7.53a.11.11,0,0,0,0-.08.11.11,0,0,0-.12,0l-4,1.08A.16.16,0,0,0,136.15,23.29Z" style="fill:none;stroke:#423c25;stroke-miterlimit:10;stroke-width:0.5992138385772705px"/><path d="M146.4,13.74h0l6.12,4.63L145.16,18a.15.15,0,0,1-.09-.06s0,0,0-.06l1.3-4.14Z" style="fill:none;stroke:#423c25;stroke-miterlimit:10;stroke-width:0.5992138385772705px"/><path d="M141.45,4.77s0,0,.05,0l6.4-2.82L145,7.45a.23.23,0,0,1-.2.11.19.19,0,0,1-.14,0l-3.17-2.6A.11.11,0,0,1,141.45,4.77Z" style="fill:none;stroke:#423c25;stroke-miterlimit:10;stroke-width:0.5992138385772705px"/><path d="M135.29,2.89a.19.19,0,0,0,0-.15l-3.32-6L131.23,4a.17.17,0,0,0,0,.07.15.15,0,0,0,.19.09L135.16,3A.21.21,0,0,0,135.29,2.89Z" style="fill:none;stroke:#423c25;stroke-miterlimit:10;stroke-width:0.5992138385772705px"/><path d="M125.7,12.64a.17.17,0,0,1-.12,0l-6.49-4,7.68.16h.07a.14.14,0,0,1,.07.18l-1.12,3.59A.13.13,0,0,1,125.7,12.64Z" style="fill:none;stroke:#423c25;stroke-miterlimit:10;stroke-width:0.5992138385772705px"/><path d="M137.29,11.72A2.31,2.31,0,1,1,134,12,2.29,2.29,0,0,1,137.29,11.72Z" style="fill:none;stroke:#423c25;stroke-miterlimit:10;stroke-width:0.5992138385772705px"/><path d="M158.59,20.38l-13.37-.64A2.75,2.75,0,0,0,145,18l0,0a.15.15,0,0,0,.09.06l7.38.36-6.12-4.63h0v0a2.7,2.7,0,0,0,1.5-1Z" style="fill:#fff"/><path d="M153.14-3.26,146.43,8.31a2.87,2.87,0,0,0-1.63-.63V7.56a.23.23,0,0,0,.2-.11l2.91-5.54-6.4,2.82s0,0-.05,0l-.1,0a2.57,2.57,0,0,0-.14-1.8Z" style="fill:#fff"/><path d="M152.54,18.38,145.16,18a.15.15,0,0,1-.09-.06s0,0,0-.06l1.3-4.14,0,0h0Z" style="fill:#423c25"/><path d="M147.9,1.91,145,7.45a.23.23,0,0,1-.2.11.19.19,0,0,1-.14,0l-3.17-2.6a.11.11,0,0,1,0-.14s0,0,.05,0Z" style="fill:#423c25"/><path d="M146.4,13.72v0l0,0-1.3,4.14s0,0,0,.06l0,0a1.6,1.6,0,0,0-.21-.32c-.87-1-2.6-.75-3.6-.17-.11.07-2,1.21-1.69,3a2.31,2.31,0,0,0,.92,1.51l-.05.08a.11.11,0,0,0-.12,0l-4,1.08a.16.16,0,0,0-.12.16l-.13,0c.28-1.27-.92-2.49-2-3-.12-.06-2.16-1-3.44.36a2.29,2.29,0,0,0-.39.54l-.07,0a.08.08,0,0,0,0-.11l-3.09-2.15a.11.11,0,0,0-.08,0v-.08l.29,0c1.32-.29,1.89-1.94,1.86-3.09,0-.13-.1-2.37-1.86-2.91a2.82,2.82,0,0,0-1.55,0l0-.09a.13.13,0,0,0,.09-.1L126.91,9a.14.14,0,0,0-.07-.18l.06-.09c1,.77,2.52.39,3.43-.22.1-.07,1.95-1.33,1.48-3.11a2.49,2.49,0,0,0-.67-1.17l.1-.1a.15.15,0,0,0,.19.09L135.16,3a.21.21,0,0,0,.13-.11l.09,0-.07.19c-.41,1.28.74,2.6,1.76,3.14.12.06,2.11,1.09,3.45-.16a2.86,2.86,0,0,0,.83-1.37l.1,0a.11.11,0,0,0,0,.14l3.17,2.6a.19.19,0,0,0,.14,0v.12a1.92,1.92,0,0,0-.41.05c-1.3.3-1.85,2-1.8,3.12,0,.13.14,2.36,1.9,2.88A3.54,3.54,0,0,0,146.4,13.72ZM137.59,15a2.31,2.31,0,1,0-3.26.3A2.29,2.29,0,0,0,137.59,15Z" style="fill:#423c25"/><path d="M141.73,22.75V36.18l-7.18-11.29A2.64,2.64,0,0,0,136,23.35v-.08l.13,0a.19.19,0,0,0,0,.1l4,6.31.23-7.53a.11.11,0,0,0,0-.08l.05-.08a2.77,2.77,0,0,0,1.29.49Z" style="fill:#fff"/><path d="M140.42,22.17l-.23,7.53-4-6.31a.19.19,0,0,1,0-.1.16.16,0,0,1,.12-.16l4-1.08a.11.11,0,0,1,.12,0A.11.11,0,0,1,140.42,22.17Z" style="fill:#423c25"/><path d="M137.29,11.72A2.31,2.31,0,1,1,134,12,2.29,2.29,0,0,1,137.29,11.72Z" style="fill:#fff"/><path d="M130.32-10l6.54,11.68a2.6,2.6,0,0,0-1.48,1.26l-.09,0a.19.19,0,0,0,0-.15l-3.32-6L131.23,4a.17.17,0,0,0,0,.07l-.1.1a2.77,2.77,0,0,0-1.76-.72Z" style="fill:#fff"/><path d="M135.27,2.74a.19.19,0,0,1,0,.15.21.21,0,0,1-.13.11l-3.73,1.17a.15.15,0,0,1-.19-.09.17.17,0,0,1,0-.07L132-3.23Z" style="fill:#423c25"/><path d="M130.41,23.53l-12,6.09,6.88-11.46a2.79,2.79,0,0,0,1.74.65v.08a.16.16,0,0,0-.14.08l-3.64,6.1,6.94-3.86,0,0,.07,0a1.51,1.51,0,0,0-.18.44A2.68,2.68,0,0,0,130.41,23.53Z" style="fill:#fff"/><path d="M130.15,21.07a.08.08,0,0,1,0,.11l0,0-6.94,3.86,3.64-6.1a.16.16,0,0,1,.14-.08.11.11,0,0,1,.08,0Z" style="fill:#423c25"/><path d="M126.84,8.77a.14.14,0,0,1,.07.18l-1.12,3.59a.13.13,0,0,1-.09.1.17.17,0,0,1-.12,0l-6.49-4,7.68.16Z" style="fill:#423c25"/><path d="M126.9,8.68l-.06.09h-.07l-7.68-.16,6.49,4a.17.17,0,0,0,.12,0l0,.09a2.53,2.53,0,0,0-1.49,1l-11.44-7,13.38-.23a2.58,2.58,0,0,0,.55,2Z" style="fill:#fff"/><path d="M144.8,7.68a2.87,2.87,0,0,1,1.63.63l6.71-11.57-11.93,6.2a2.57,2.57,0,0,1,.14,1.8,2.86,2.86,0,0,1-.83,1.37c-1.34,1.25-3.33.22-3.45.16-1-.54-2.17-1.86-1.76-3.14l.07-.19a2.6,2.6,0,0,1,1.48-1.26L130.32-10l-.94,13.46a2.77,2.77,0,0,1,1.76.72,2.49,2.49,0,0,1,.67,1.17c.47,1.78-1.38,3-1.48,3.11-.91.61-2.47,1-3.43.22l-.18-.15a2.58,2.58,0,0,1-.55-2l-13.38.23,11.44,7a2.53,2.53,0,0,1,1.49-1,2.82,2.82,0,0,1,1.55,0c1.76.54,1.86,2.78,1.86,2.91,0,1.15-.54,2.8-1.86,3.09l-.29,0a2.79,2.79,0,0,1-1.74-.65l-6.88,11.46,12-6.09a2.68,2.68,0,0,1-.35-1.88,1.51,1.51,0,0,1,.18-.44,2.29,2.29,0,0,1,.39-.54c1.28-1.33,3.32-.42,3.44-.36,1,.47,2.23,1.69,2,3v.08a2.64,2.64,0,0,1-1.46,1.54l7.18,11.29V22.5a2.77,2.77,0,0,1-1.29-.49,2.31,2.31,0,0,1-.92-1.51c-.35-1.8,1.58-2.94,1.69-3,1-.58,2.73-.85,3.6.17A1.6,1.6,0,0,1,145,18a2.75,2.75,0,0,1,.2,1.76l13.37.64L147.9,12.72a2.7,2.7,0,0,1-1.5,1,3.54,3.54,0,0,1-1.91,0c-1.76-.52-1.9-2.75-1.9-2.88-.05-1.16.5-2.82,1.8-3.12A1.92,1.92,0,0,1,144.8,7.68Z" style="fill:none;stroke:#423c25;stroke-miterlimit:10;stroke-width:0.5992138385772705px"/><path d="M130.17,21.18l0,0-6.94,3.86,3.64-6.1a.16.16,0,0,1,.14-.08.11.11,0,0,1,.08,0l3.09,2.15A.08.08,0,0,1,130.17,21.18Z" style="fill:none;stroke:#423c25;stroke-miterlimit:10;stroke-width:0.5992138385772705px"/><path d="M136.15,23.29a.19.19,0,0,0,0,.1l4,6.31.23-7.53a.11.11,0,0,0,0-.08.11.11,0,0,0-.12,0l-4,1.08A.16.16,0,0,0,136.15,23.29Z" style="fill:none;stroke:#423c25;stroke-miterlimit:10;stroke-width:0.5992138385772705px"/><path d="M146.4,13.74h0l6.12,4.63L145.16,18a.15.15,0,0,1-.09-.06s0,0,0-.06l1.3-4.14Z" style="fill:none;stroke:#423c25;stroke-miterlimit:10;stroke-width:0.5992138385772705px"/><path d="M141.45,4.77s0,0,.05,0l6.4-2.82L145,7.45a.23.23,0,0,1-.2.11.19.19,0,0,1-.14,0l-3.17-2.6A.11.11,0,0,1,141.45,4.77Z" style="fill:none;stroke:#423c25;stroke-miterlimit:10;stroke-width:0.5992138385772705px"/><path d="M135.29,2.89a.19.19,0,0,0,0-.15l-3.32-6L131.23,4a.17.17,0,0,0,0,.07.15.15,0,0,0,.19.09L135.16,3A.21.21,0,0,0,135.29,2.89Z" style="fill:none;stroke:#423c25;stroke-miterlimit:10;stroke-width:0.5992138385772705px"/><path d="M125.7,12.64a.17.17,0,0,1-.12,0l-6.49-4,7.68.16h.07a.14.14,0,0,1,.07.18l-1.12,3.59A.13.13,0,0,1,125.7,12.64Z" style="fill:none;stroke:#423c25;stroke-miterlimit:10;stroke-width:0.5992138385772705px"/><path d="M137.29,11.72A2.31,2.31,0,1,1,134,12,2.29,2.29,0,0,1,137.29,11.72Z" style="fill:none;stroke:#423c25;stroke-miterlimit:10;stroke-width:0.5992138385772705px"/><path d="M158.59,20.38l-13.37-.64A2.75,2.75,0,0,0,145,18l0,0a.15.15,0,0,0,.09.06l7.38.36-6.12-4.63h0v0a2.7,2.7,0,0,0,1.5-1Z" style="fill:#fff"/><path d="M153.14-3.26,146.43,8.31a2.87,2.87,0,0,0-1.63-.63V7.56a.23.23,0,0,0,.2-.11l2.91-5.54-6.4,2.82s0,0-.05,0l-.1,0a2.57,2.57,0,0,0-.14-1.8Z" style="fill:#fff"/><path d="M152.54,18.38,145.16,18a.15.15,0,0,1-.09-.06s0,0,0-.06l1.3-4.14,0,0h0Z" style="fill:#423c25"/><path d="M147.9,1.91,145,7.45a.23.23,0,0,1-.2.11.19.19,0,0,1-.14,0l-3.17-2.6a.11.11,0,0,1,0-.14s0,0,.05,0Z" style="fill:#423c25"/><path d="M146.4,13.72v0l0,0-1.3,4.14s0,0,0,.06l0,0a1.6,1.6,0,0,0-.21-.32c-.87-1-2.6-.75-3.6-.17-.11.07-2,1.21-1.69,3a2.31,2.31,0,0,0,.92,1.51l-.05.08a.11.11,0,0,0-.12,0l-4,1.08a.16.16,0,0,0-.12.16l-.13,0c.28-1.27-.92-2.49-2-3-.12-.06-2.16-1-3.44.36a2.29,2.29,0,0,0-.39.54l-.07,0a.08.08,0,0,0,0-.11l-3.09-2.15a.11.11,0,0,0-.08,0v-.08l.29,0c1.32-.29,1.89-1.94,1.86-3.09,0-.13-.1-2.37-1.86-2.91a2.82,2.82,0,0,0-1.55,0l0-.09a.13.13,0,0,0,.09-.1L126.91,9a.14.14,0,0,0-.07-.18l.06-.09c1,.77,2.52.39,3.43-.22.1-.07,1.95-1.33,1.48-3.11a2.49,2.49,0,0,0-.67-1.17l.1-.1a.15.15,0,0,0,.19.09L135.16,3a.21.21,0,0,0,.13-.11l.09,0-.07.19c-.41,1.28.74,2.6,1.76,3.14.12.06,2.11,1.09,3.45-.16a2.86,2.86,0,0,0,.83-1.37l.1,0a.11.11,0,0,0,0,.14l3.17,2.6a.19.19,0,0,0,.14,0v.12a1.92,1.92,0,0,0-.41.05c-1.3.3-1.85,2-1.8,3.12,0,.13.14,2.36,1.9,2.88A3.54,3.54,0,0,0,146.4,13.72ZM137.59,15a2.31,2.31,0,1,0-3.26.3A2.29,2.29,0,0,0,137.59,15Z" style="fill:#423c25"/><path d="M141.73,22.75V36.18l-7.18-11.29A2.64,2.64,0,0,0,136,23.35v-.08l.13,0a.19.19,0,0,0,0,.1l4,6.31.23-7.53a.11.11,0,0,0,0-.08l.05-.08a2.77,2.77,0,0,0,1.29.49Z" style="fill:#fff"/><path d="M140.42,22.17l-.23,7.53-4-6.31a.19.19,0,0,1,0-.1.16.16,0,0,1,.12-.16l4-1.08a.11.11,0,0,1,.12,0A.11.11,0,0,1,140.42,22.17Z" style="fill:#423c25"/><path d="M137.29,11.72A2.31,2.31,0,1,1,134,12,2.29,2.29,0,0,1,137.29,11.72Z" style="fill:#fff"/><path d="M130.32-10l6.54,11.68a2.6,2.6,0,0,0-1.48,1.26l-.09,0a.19.19,0,0,0,0-.15l-3.32-6L131.23,4a.17.17,0,0,0,0,.07l-.1.1a2.77,2.77,0,0,0-1.76-.72Z" style="fill:#fff"/><path d="M135.27,2.74a.19.19,0,0,1,0,.15.21.21,0,0,1-.13.11l-3.73,1.17a.15.15,0,0,1-.19-.09.17.17,0,0,1,0-.07L132-3.23Z" style="fill:#423c25"/><path d="M130.41,23.53l-12,6.09,6.88-11.46a2.79,2.79,0,0,0,1.74.65v.08a.16.16,0,0,0-.14.08l-3.64,6.1,6.94-3.86,0,0,.07,0a1.51,1.51,0,0,0-.18.44A2.68,2.68,0,0,0,130.41,23.53Z" style="fill:#fff"/><path d="M130.15,21.07a.08.08,0,0,1,0,.11l0,0-6.94,3.86,3.64-6.1a.16.16,0,0,1,.14-.08.11.11,0,0,1,.08,0Z" style="fill:#423c25"/><path d="M126.84,8.77a.14.14,0,0,1,.07.18l-1.12,3.59a.13.13,0,0,1-.09.1.17.17,0,0,1-.12,0l-6.49-4,7.68.16Z" style="fill:#423c25"/><path d="M126.9,8.68l-.06.09h-.07l-7.68-.16,6.49,4a.17.17,0,0,0,.12,0l0,.09a2.53,2.53,0,0,0-1.49,1l-11.44-7,13.38-.23a2.58,2.58,0,0,0,.55,2Z" style="fill:#fff"/><path d="M144.8,7.68a2.87,2.87,0,0,1,1.63.63l6.71-11.57-11.93,6.2a2.57,2.57,0,0,1,.14,1.8,2.86,2.86,0,0,1-.83,1.37c-1.34,1.25-3.33.22-3.45.16-1-.54-2.17-1.86-1.76-3.14l.07-.19a2.6,2.6,0,0,1,1.48-1.26L130.32-10l-.94,13.46a2.77,2.77,0,0,1,1.76.72,2.49,2.49,0,0,1,.67,1.17c.47,1.78-1.38,3-1.48,3.11-.91.61-2.47,1-3.43.22l-.18-.15a2.58,2.58,0,0,1-.55-2l-13.38.23,11.44,7a2.53,2.53,0,0,1,1.49-1,2.82,2.82,0,0,1,1.55,0c1.76.54,1.86,2.78,1.86,2.91,0,1.15-.54,2.8-1.86,3.09l-.29,0a2.79,2.79,0,0,1-1.74-.65l-6.88,11.46,12-6.09a2.68,2.68,0,0,1-.35-1.88,1.51,1.51,0,0,1,.18-.44,2.29,2.29,0,0,1,.39-.54c1.28-1.33,3.32-.42,3.44-.36,1,.47,2.23,1.69,2,3v.08a2.64,2.64,0,0,1-1.46,1.54l7.18,11.29V22.5a2.77,2.77,0,0,1-1.29-.49,2.31,2.31,0,0,1-.92-1.51c-.35-1.8,1.58-2.94,1.69-3,1-.58,2.73-.85,3.6.17A1.6,1.6,0,0,1,145,18a2.75,2.75,0,0,1,.2,1.76l13.37.64L147.9,12.72a2.7,2.7,0,0,1-1.5,1,3.54,3.54,0,0,1-1.91,0c-1.76-.52-1.9-2.75-1.9-2.88-.05-1.16.5-2.82,1.8-3.12A1.92,1.92,0,0,1,144.8,7.68Z" style="fill:none;stroke:#423c25;stroke-miterlimit:10;stroke-width:0.5992138385772705px"/><path d="M130.17,21.18l0,0-6.94,3.86,3.64-6.1a.16.16,0,0,1,.14-.08.11.11,0,0,1,.08,0l3.09,2.15A.08.08,0,0,1,130.17,21.18Z" style="fill:none;stroke:#423c25;stroke-miterlimit:10;stroke-width:0.5992138385772705px"/><path d="M136.15,23.29a.19.19,0,0,0,0,.1l4,6.31.23-7.53a.11.11,0,0,0,0-.08.11.11,0,0,0-.12,0l-4,1.08A.16.16,0,0,0,136.15,23.29Z" style="fill:none;stroke:#423c25;stroke-miterlimit:10;stroke-width:0.5992138385772705px"/><path d="M146.4,13.74h0l6.12,4.63L145.16,18a.15.15,0,0,1-.09-.06s0,0,0-.06l1.3-4.14Z" style="fill:none;stroke:#423c25;stroke-miterlimit:10;stroke-width:0.5992138385772705px"/><path d="M141.45,4.77s0,0,.05,0l6.4-2.82L145,7.45a.23.23,0,0,1-.2.11.19.19,0,0,1-.14,0l-3.17-2.6A.11.11,0,0,1,141.45,4.77Z" style="fill:none;stroke:#423c25;stroke-miterlimit:10;stroke-width:0.5992138385772705px"/><path d="M135.29,2.89a.19.19,0,0,0,0-.15l-3.32-6L131.23,4a.17.17,0,0,0,0,.07.15.15,0,0,0,.19.09L135.16,3A.21.21,0,0,0,135.29,2.89Z" style="fill:none;stroke:#423c25;stroke-miterlimit:10;stroke-width:0.5992138385772705px"/><path d="M125.7,12.64a.17.17,0,0,1-.12,0l-6.49-4,7.68.16h.07a.14.14,0,0,1,.07.18l-1.12,3.59A.13.13,0,0,1,125.7,12.64Z" style="fill:none;stroke:#423c25;stroke-miterlimit:10;stroke-width:0.5992138385772705px"/><path d="M137.29,11.72A2.31,2.31,0,1,1,134,12,2.29,2.29,0,0,1,137.29,11.72Z" style="fill:none;stroke:#423c25;stroke-miterlimit:10;stroke-width:0.5992138385772705px"/></g><g id="b0872461-7567-4686-bb47-a4ea1d9f4d15" data-name="Textes Cartes vecto"><g id="ad22535e-26be-4e7e-9ea3-5a4875ab705c" data-name="Calque 20 - copie"><path d="M18.92,23.14l-.36.78-.17.52c-.07.25-.16.51-.26.78l-.26.78c-.07.25-.13.42-.17.53l0,.13-.09.27a1.28,1.28,0,0,0-.07.16c0,.06-.05.09-.13.09l-.09,0-.09,0s-.05,0-.05,0l-.16.66H16.9a.36.36,0,0,1-.15,0,1.7,1.7,0,0,0-.39,0L16,28a.7.7,0,0,1-.24,0c-.06,0-.07-.08,0-.18s0-.05,0-.12,0-.14.07-.24l.06-.23,0-.13a0,0,0,0,1,0,0s0,0,0-.06h-.07a.24.24,0,0,0-.2.09,1.07,1.07,0,0,0-.13.21,1.5,1.5,0,0,0-.11.22.37.37,0,0,1-.12.17h-.07L15,27.57h-.18a.23.23,0,0,0-.12.06.07.07,0,0,1-.09,0,3.19,3.19,0,0,1-.16-.41c0-.15-.07-.29-.1-.43s0-.26,0-.38a.63.63,0,0,1,0-.29l0-.13.09-.3,0-.09,1.7-4.66s0,0,.09-.09l.2-.16.2-.17.09-.1a.38.38,0,0,0,0-.16c0-.1,0-.2,0-.31s0-.22,0-.32v-.16s0-.11.08-.23l.17-.39q.09-.21.18-.39a.69.69,0,0,1,.17-.21.8.8,0,0,1,.12-.15A1.14,1.14,0,0,1,17.6,18l0-.18h-.2l-.33,0a1.32,1.32,0,0,1-.3-.08c-.08,0-.11-.08-.08-.14a.72.72,0,0,1,.09-.16l.12-.18,0,0a.28.28,0,0,0,0-.08s0,0,.08-.06l.41-.27-.23-.25s0-.07,0-.1a.12.12,0,0,0,0-.08.51.51,0,0,1,.29-.15.2.2,0,0,0,.18-.19.34.34,0,0,0,0-.19c0-.09,0-.19-.08-.28a1,1,0,0,1-.05-.27.17.17,0,0,1,0-.16,1.76,1.76,0,0,1,.55-.28,6.6,6.6,0,0,1,.77-.2,8,8,0,0,1,.89-.11l.87-.07.72,0h.49l.61,0h.71a5.17,5.17,0,0,1,.86.33,3.12,3.12,0,0,1,.7.48,1.76,1.76,0,0,1,.48.44,1,1,0,0,1,.06.6,8.12,8.12,0,0,1,0,.91c0,.27-.05.5-.08.7s-.06.39-.09.56a4.8,4.8,0,0,0-.08.48,7.37,7.37,0,0,1-.36,1c-.17.37-.34.74-.53,1.1s-.4.71-.61,1a6.66,6.66,0,0,1-.61.79c-.32.13-.65.26-1,.38s-.71.23-1.13.34l-1.18.21a.11.11,0,0,1,.06-.11s0,0,0,0Zm.76-2a.54.54,0,0,0,0,.15c0,.07,0,.11.13.12a.86.86,0,0,0,.39-.14,1.28,1.28,0,0,0,.29-.36l1-2,.05-.18a2.25,2.25,0,0,0,0-.78,3.39,3.39,0,0,1,0-.78q0-.15-.18-.15h.18l-.29.07-.4.08-.36.07c-.12,0-.18,0-.19.05l-.16,0s-.05.06-.07.13l0,.07c.28,0,.45.11.49.26a1.18,1.18,0,0,1,0,.58,6.27,6.27,0,0,1-.44,1.38A6.79,6.79,0,0,0,19.68,21.17Z" style="fill:#423c25"/><path d="M25.21,19.81a1.72,1.72,0,0,1,.17-.37l.23-.38a3.84,3.84,0,0,0,.22-.39.69.69,0,0,0,.1-.35l.17-.26.3-.4c.11-.14.21-.28.3-.41a1.44,1.44,0,0,1,.2-.25l.37-.45a3.26,3.26,0,0,1,.31-.33l.34-.28.45-.38.18-.24c.1-.14.17-.22.23-.24a3.4,3.4,0,0,1,.89-.4,8.94,8.94,0,0,1,1.16-.29c.41-.08.79-.14,1.17-.19a7,7,0,0,1,.89-.07c.22,0,.31.09.27.28a.47.47,0,0,1-.12.18.86.86,0,0,1-.18.14l-.18.12a.29.29,0,0,0-.1.15.13.13,0,0,0,.07.17l.25.08.27.05c.09,0,.14,0,.15.1l.3.64a1.15,1.15,0,0,1,.09.26c0,.07,0,.13,0,.18s0,.11,0,.17a1.39,1.39,0,0,0,.14.26,1.76,1.76,0,0,0,.19.3,1.51,1.51,0,0,1,.12.2.49.49,0,0,1,0,.23,1.66,1.66,0,0,1-.08.39,4.11,4.11,0,0,1-.25.72c-.1.24-.19.49-.27.74v0a3.61,3.61,0,0,0-.07.44c0,.23,0,.49-.08.75s-.06.52-.09.76-.05.37-.06.42l0,.07a.62.62,0,0,0,0,.1.56.56,0,0,1,0,.15l0,.07,0,.09,0,.11a.58.58,0,0,1,0,.11v.09a.56.56,0,0,1-.29.14.28.28,0,0,0-.22.16.16.16,0,0,0,0,.15l.1.1.11.11a.17.17,0,0,1,.05.14,2.31,2.31,0,0,0-.06.37,4.12,4.12,0,0,1-.06.42,2.26,2.26,0,0,1-.56.86,11.3,11.3,0,0,1-1,1c-.37.32-.73.62-1.1.9s-.67.51-.88.69c0,0,0,.06,0,.07s0,.13,0,.16a.17.17,0,0,1,0,.16c0,.11-.19.18-.47.21a7.29,7.29,0,0,1-.79,0h-.35a4.8,4.8,0,0,1-.6-.07,6.09,6.09,0,0,1-.8-.18,4.38,4.38,0,0,1-.75-.26c-.22-.09-.35-.19-.38-.3a1.4,1.4,0,0,0-.16-.29,3.06,3.06,0,0,1-.21-.29,1.69,1.69,0,0,1-.17-.29.5.5,0,0,1,0-.32l0-.12.07-.25.05-.22,0-.12a.29.29,0,0,0-.11-.2.22.22,0,0,1-.07-.21A.64.64,0,0,1,24.5,25c0-.11,0-.22,0-.34s0-.23,0-.32a.64.64,0,0,1,0-.2,7.12,7.12,0,0,1,.1-.94,8.48,8.48,0,0,1,.22-.94l.28-.93a6.79,6.79,0,0,0,.21-.94s0-.07-.05-.16,0-.13,0-.14V20A.41.41,0,0,1,25.21,19.81Zm2.08,4.05a.9.9,0,0,0,.05.31,3,3,0,0,0,.16.44,4.1,4.1,0,0,0,.21.42q.11.18.18.18A.49.49,0,0,0,28.2,25a.77.77,0,0,1,.26-.21l.16-.16a3.44,3.44,0,0,1,.27-.27l.29-.28.19-.17,0-.12q.12-.43.21-.84l.18-.8c.05-.26.11-.52.18-.79s.16-.55.25-.84a2.6,2.6,0,0,1,0-.35l.06-.41c0-.14.05-.27.08-.39a1.33,1.33,0,0,1,.07-.3,1.39,1.39,0,0,1,.13-.27c.08-.14.12-.23.14-.27v0l0-.09,0-.07,0-.08a.41.41,0,0,0-.06-.4.86.86,0,0,0-.29-.21l-.31-.15c-.09,0-.1-.1,0-.17h-.2a.11.11,0,0,0-.1.05.68.68,0,0,0-.06.2l-1,1.4-.05.16a1.21,1.21,0,0,0,0,.5,1.14,1.14,0,0,1-.05.51A13.93,13.93,0,0,1,28,22,13.27,13.27,0,0,0,27.29,23.86Z" style="fill:#423c25"/><path d="M32.65,27.46l.22-.71c.32-1.27.64-2.5.94-3.69s.64-2.41,1-3.68l0-.14a1.3,1.3,0,0,0,.06-.19c0-.06,0-.1.05-.14l0-.09A.57.57,0,0,1,35,18.7c0-.07.08-.15.12-.23a2.53,2.53,0,0,0,.13-.22.3.3,0,0,0,.05-.13,1,1,0,0,0,.08-.19c0-.11.09-.22.14-.34s.09-.24.13-.35.07-.19.08-.23a1.37,1.37,0,0,0,.09-.25A2.57,2.57,0,0,0,36,16.4L36.1,16l.12-.43a3.34,3.34,0,0,0,.08-.35,1,1,0,0,1,.07-.24.79.79,0,0,1,.19-.08l.4-.13.57-.2a.35.35,0,0,1,.3.12.69.69,0,0,1,.1.25,2.26,2.26,0,0,1,0,.26c0,.07,0,.1.07.1h.06a.82.82,0,0,0,.16-.25.18.18,0,0,0,.12-.1s0-.06,0-.06a1.18,1.18,0,0,1,.28,0l.21,0L39,15l.13.15h.11L39.7,15h.11l0,.08a.14.14,0,0,0,.1.08l-.11.36A25.23,25.23,0,0,1,39,18c-.33.83-.66,1.68-1,2.55a1.11,1.11,0,0,1-.26.42.8.8,0,0,0-.24.41,1.68,1.68,0,0,0-.07.59,2.52,2.52,0,0,1,0,.55L37.3,23,37,24.08l-.11.37c-.13.46-.27.95-.41,1.47a9.38,9.38,0,0,1-.54,1.54c0,.06-.08.1-.13.1h-.11s-.08,0-.09,0h-.1a.81.81,0,0,0-.17-.34.65.65,0,0,0-.41-.09h-.12a.32.32,0,0,0-.13.05l-.21.22-.28,0q-.21,0-.24.06a.28.28,0,0,0-.13.06l-.19.12-.18.14-.09.08A1.05,1.05,0,0,1,32.65,27.46Z" style="fill:#423c25"/><path d="M37.1,26.82v0s.11-.09.27-.12a4.18,4.18,0,0,1,.41-.08l.22,0a1.31,1.31,0,0,0-.08-.21c-.06-.11-.11-.21-.17-.3l-.09-.15,1.27,0s0-.09-.11-.13a1,1,0,0,0-.25-.08l-.31-.07a.54.54,0,0,0-.19,0c-.1,0-.2-.09-.31-.27,0,0,.05,0,.08-.12a1.43,1.43,0,0,1,.08-.22,1.24,1.24,0,0,1,.1-.2.21.21,0,0,1,.16-.09,1.09,1.09,0,0,1,.53.17,1.15,1.15,0,0,0,.65.17,1.25,1.25,0,0,0,.54-.12,2,2,0,0,0,.45-.33,2.36,2.36,0,0,0,.33-.45,2,2,0,0,0,.19-.46.21.21,0,0,1,.17-.14c.08,0,.13-.07.13-.14L41,23.24,40.77,23l-.25-.29a.46.46,0,0,1-.1-.17,1,1,0,0,0-.07-.27l-.14-.46c-.05-.16-.1-.31-.14-.45s-.07-.23-.07-.26a6.41,6.41,0,0,0-.26-.64,3.39,3.39,0,0,1-.17-.51,1.92,1.92,0,0,1,0-.59,5.39,5.39,0,0,1,.19-.87,7.31,7.31,0,0,1,.69-1.65,4.15,4.15,0,0,1,1.07-1.21,4.77,4.77,0,0,1,1.55-.76,7.93,7.93,0,0,1,2.14-.26h.08s0,0-.07.09a1.7,1.7,0,0,1-.19.2l-.19.19c-.06,0-.09.08-.07.08l.16-.06.31-.13.32-.12a.63.63,0,0,1,.19-.07.86.86,0,0,1,.34.06c.1,0,.12.13.07.28a.24.24,0,0,1-.12.18l-.2.07-.21.06a.48.48,0,0,0-.17.12s0,.08-.12.15l-.26.22-.24.22c-.07.06-.1.1-.09.1l1.34-.56s0,0,0,.15,0,.22,0,.35,0,.26,0,.39a2,2,0,0,1-.06.24.53.53,0,0,1-.35.37,3.34,3.34,0,0,1-.58.2,1,1,0,0,1-.25.08l-.38.1-.37.09a1.33,1.33,0,0,0-.23.06.5.5,0,0,0-.29.3.59.59,0,0,0,0,.31q0,.21.06.45c0,.16,0,.31.08.45s.05.24.07.3l-.42.57a1.23,1.23,0,0,0,.25-.08.39.39,0,0,1,.18,0c.15,0,.25.11.33.35s.13.39.22.69.17.61.25.95a7.4,7.4,0,0,1,.16,1,2.31,2.31,0,0,1,0,.81v0a4.11,4.11,0,0,0-.59.92,4.09,4.09,0,0,1-.6.89,2.66,2.66,0,0,1-.24.29c-.11.13-.23.27-.37.41l-.37.4a1.46,1.46,0,0,1-.29.26,1.35,1.35,0,0,1-.67.32c-.32.08-.66.14-1,.2a10.4,10.4,0,0,1-1.07.1l-.8,0a2.16,2.16,0,0,1-.43-.06,2.74,2.74,0,0,1-.53-.17,2,2,0,0,1-.43-.25A.24.24,0,0,1,37.1,26.82Z" style="fill:#423c25"/><path d="M45.92,19.81a2.3,2.3,0,0,1,.16-.37l.23-.38a4,4,0,0,0,.23-.39.81.81,0,0,0,.1-.35,2,2,0,0,1,.17-.26l.29-.4.31-.41a1.07,1.07,0,0,1,.2-.25l.36-.45a3.34,3.34,0,0,1,.32-.33l.34-.28.45-.38a2.07,2.07,0,0,0,.17-.24.65.65,0,0,1,.24-.24,3.25,3.25,0,0,1,.89-.4,8.55,8.55,0,0,1,1.16-.29c.4-.08.79-.14,1.17-.19a6.86,6.86,0,0,1,.88-.07c.23,0,.32.09.27.28a.37.37,0,0,1-.11.18l-.18.14-.18.12a.24.24,0,0,0-.1.15.12.12,0,0,0,.07.17,1.35,1.35,0,0,0,.24.08l.27.05c.09,0,.14,0,.15.1l.31.64a1.15,1.15,0,0,1,.09.26q0,.11,0,.18l0,.17a1.23,1.23,0,0,0,.13.26,2.72,2.72,0,0,0,.19.3,1,1,0,0,1,.13.2.5.5,0,0,1,0,.23,1.52,1.52,0,0,1-.07.39,4.11,4.11,0,0,1-.25.72,5.05,5.05,0,0,0-.27.74v0a2.29,2.29,0,0,0-.07.44c0,.23,0,.49-.08.75s-.06.52-.09.76,0,.37-.06.42l0,.07a.62.62,0,0,0,0,.1s0,.09,0,.15l0,.07,0,.09,0,.11a.66.66,0,0,1,0,.11l0,.09a.53.53,0,0,1-.28.14c-.12,0-.2.08-.22.16a.16.16,0,0,0,0,.15l.1.1.11.11a.22.22,0,0,1,.05.14,1.15,1.15,0,0,0-.06.37A1.81,1.81,0,0,1,53,25.13a10.19,10.19,0,0,1-1,1c-.36.32-.73.62-1.1.9s-.66.51-.88.69a.26.26,0,0,0,0,.07.15.15,0,0,0,0,.16.18.18,0,0,1,0,.16c0,.11-.19.18-.46.21a7.45,7.45,0,0,1-.79,0h-.36a4.69,4.69,0,0,1-.59-.07,6.61,6.61,0,0,1-.81-.18,4.57,4.57,0,0,1-.74-.26q-.33-.13-.39-.3a1,1,0,0,0-.16-.29,3,3,0,0,1-.2-.29,1.75,1.75,0,0,1-.18-.29.58.58,0,0,1,0-.32l0-.12.08-.25,0-.22,0-.12a.33.33,0,0,0-.11-.2.22.22,0,0,1-.07-.21A.6.6,0,0,1,45.2,25l0-.34c0-.12,0-.23,0-.32a.64.64,0,0,1,0-.2,5.76,5.76,0,0,1,.1-.94,6.7,6.7,0,0,1,.22-.94l.28-.93a5.59,5.59,0,0,0,.2-.94s0-.07,0-.16-.06-.13,0-.14V20A.42.42,0,0,1,45.92,19.81ZM48,23.86a.82.82,0,0,0,0,.31c.05.14.1.29.17.44a2.75,2.75,0,0,0,.2.42q.11.18.18.18a.51.51,0,0,0,.32-.17.77.77,0,0,1,.26-.21l.16-.16a3.44,3.44,0,0,1,.27-.27c.09-.1.19-.19.28-.28l.2-.17,0-.12q.12-.43.21-.84c.06-.27.12-.53.17-.8s.12-.52.19-.79.15-.55.25-.84a2.6,2.6,0,0,1,0-.35c0-.13,0-.27.06-.41s0-.27.07-.39,0-.23.07-.3.06-.13.14-.27a1.39,1.39,0,0,0,.13-.27v0a.39.39,0,0,1,0-.09l0-.07,0-.08a.41.41,0,0,0-.05-.4.9.9,0,0,0-.3-.21l-.3-.15c-.09,0-.11-.1-.05-.17h-.19a.1.1,0,0,0-.1.05,1,1,0,0,0-.07.2l-1,1.4-.06.16a1.06,1.06,0,0,0,0,.5,1.15,1.15,0,0,1-.06.51A12.63,12.63,0,0,1,48.68,22,14.61,14.61,0,0,0,48,23.86Z" style="fill:#423c25"/><path d="M55.53,26.71l-.63.52a.36.36,0,0,0-.2.06.66.66,0,0,0-.17.12l-.18.13a.46.46,0,0,1-.2.05.19.19,0,0,1-.2-.2.88.88,0,0,1,0-.3L54,27l.32-.79,0-.09,0-.07.25-1.6,1.9-6.22a5.7,5.7,0,0,1-.3-1.12,2.84,2.84,0,0,1,.05-1.23,1.85,1.85,0,0,1,.19-.18l.37-.3a2.7,2.7,0,0,1,.38-.27c.13-.07.2-.1.23-.07l.55.68a.24.24,0,0,0,.22-.17,2.29,2.29,0,0,0,.12-.37c0-.13.11-.25.17-.37a.29.29,0,0,1,.28-.17h.11l.27,0,.29,0a18.69,18.69,0,0,1,.83,1.68c.24.58.46,1.15.65,1.74l-.14.39.32-.39s0-.08.08-.21.12-.26.19-.42l.21-.47a2.65,2.65,0,0,0,.13-.41s.07-.08.11-.21a.41.41,0,0,1,.2-.27l.64-.25-.39-.29c-.1,0-.14-.12-.14-.26a1.59,1.59,0,0,1,.07-.38l.05-.16a.53.53,0,0,1,.13-.1l.21-.11a.51.51,0,0,1,.2,0,.1.1,0,0,1,.09.12c0,.12,0,.19,0,.22L63,15a2.56,2.56,0,0,0,.56.06l.84,0a3.59,3.59,0,0,1,.75.14c.22.06.31.16.27.27a.12.12,0,0,1,0,.09.21.21,0,0,0-.05.09c0,.14-.13.36-.26.67l-.39,1-.4,1c-.12.31-.21.53-.26.65l-.35,1.83-1.87,6.51a.66.66,0,0,1-.21.14,1.26,1.26,0,0,1-.29.11l-.27.05a.29.29,0,0,1-.23-.13,1.35,1.35,0,0,1-.19-.31c-.05-.11-.11-.22-.15-.33a1.31,1.31,0,0,0-.11-.2L59.9,27l-.1.4a.31.31,0,0,1-.13.06l-.18,0a.68.68,0,0,1-.59-.3.92.92,0,0,1-.2-.6l.25-2.9-.16-1.36h0c-.16.53-.32,1.07-.49,1.62s-.35,1.08-.52,1.62l-.09.36c-.06.17-.11.32-.17.47s-.12.35-.22.59l-.08,0-.06,0H57L56.89,27a.22.22,0,0,0-.18.11,2,2,0,0,0-.13.25,1,1,0,0,1-.15.25.23.23,0,0,1-.2.12s0,0-.06,0a1.43,1.43,0,0,0-.09-.27.39.39,0,0,0-.17-.21.37.37,0,0,0-.21.17,1,1,0,0,0-.1.26,1,1,0,0,1-.1.26.27.27,0,0,1-.26.12c-.11,0-.15-.07-.14-.19a1.22,1.22,0,0,1,.12-.42,4.68,4.68,0,0,1,.2-.45A1,1,0,0,0,55.53,26.71Z" style="fill:#423c25"/><path d="M13.88,47.34l1.21,0,0,6.23,4,0,0,1.15H13.82Z" style="fill:#423c25"/><path d="M21.41,52.59a2.1,2.1,0,0,0,.41,1.33,1.34,1.34,0,0,0,.91.39h.13a1.37,1.37,0,0,0,.8-.22,1.64,1.64,0,0,0,.57-1l1.17.23a3.45,3.45,0,0,1-.65,1.25,1.85,1.85,0,0,1-1.19.65,4.56,4.56,0,0,1-.72.06,3.35,3.35,0,0,1-.71-.07,2.16,2.16,0,0,1-1.19-.68,2.59,2.59,0,0,1-.66-1.24,4.61,4.61,0,0,1-.12-1c0-.13,0-.25,0-.38a3.24,3.24,0,0,1,.36-1.31,2.05,2.05,0,0,1,.78-.9,2.63,2.63,0,0,1,1-.39,3.64,3.64,0,0,1,.6,0l.59,0a2,2,0,0,1,1.29.8,4,4,0,0,1,.59,2.45Zm2.71-.92a1.62,1.62,0,0,0-.38-1,1.22,1.22,0,0,0-.94-.42,1.31,1.31,0,0,0-1,.4,1.41,1.41,0,0,0-.4,1Z" style="fill:#423c25"/><path d="M29,47.09h1.36l3.51,5.65h0V46.93h1.28l-.1,7.84H33.77L30.28,49h0v5.23H29Z" style="fill:#423c25"/><path d="M37.43,47.69a.64.64,0,0,1,0,1,.7.7,0,0,1-1,0,.62.62,0,0,1-.2-.48.61.61,0,0,1,.2-.47.7.7,0,0,1,1,0ZM36.34,49.5l1.17,0-.1,5.84h-1Z" style="fill:#423c25"/><path d="M39.83,49l.05,1.33a1.79,1.79,0,0,1,1-.92,2.21,2.21,0,0,1,.75-.14,2,2,0,0,1,.42,0,1.61,1.61,0,0,1,1,.61,2.63,2.63,0,0,1,.5,1.13,12,12,0,0,1,.08,1.79c0,.72,0,1.64,0,2.76l-1.1,0c0-.95,0-1.74,0-2.37,0-1,0-1.62-.05-1.81a1.16,1.16,0,0,0-.37-.7,1.05,1.05,0,0,0-.71-.24h0a1,1,0,0,0-.66.22,2.39,2.39,0,0,0-.44.57A3.6,3.6,0,0,0,40,52.67l-.07,2.53-1.1,0-.09-6.1Z" style="fill:#423c25"/><path d="M44.23,56.08h.05a.51.51,0,0,1,.22.07,1,1,0,0,0,.77-.49,3.56,3.56,0,0,0,.21-1.52l0-4.51,1.06.08c0,.81,0,1.55,0,2.2a29.21,29.21,0,0,1-.13,3.76,1.92,1.92,0,0,1-.57,1,1.9,1.9,0,0,1-.92.42,1.62,1.62,0,0,1-.31,0,2.74,2.74,0,0,1-.48,0Zm2.22-8.39A.68.68,0,0,1,46,48.84a.66.66,0,0,1-.5-.2.66.66,0,0,1,0-1,.71.71,0,0,1,1,0Z" style="fill:#423c25"/><path d="M48.4,50.19a2.25,2.25,0,0,1,1.14-.61,3.11,3.11,0,0,1,.69-.07,3.79,3.79,0,0,1,.86.1,1.39,1.39,0,0,1,1.07,1.12,7.47,7.47,0,0,1,.16,1.79c0,.4,0,.85,0,1.35v0c0,.29.11.43.34.43a1.09,1.09,0,0,0,.41-.1l.08,1a2.89,2.89,0,0,1-.73.1,1,1,0,0,1-1-.55,2.81,2.81,0,0,1-1,.58,3.12,3.12,0,0,1-.88.13h0a2.13,2.13,0,0,1-.84-.16,1.62,1.62,0,0,1-.65-.49,1.37,1.37,0,0,1-.28-.76,1,1,0,0,1,0-.17,2.24,2.24,0,0,1,.15-.78,1.65,1.65,0,0,1,.91-.87,8.17,8.17,0,0,1,2.5-.52,1.46,1.46,0,0,0-.19-.91,1.14,1.14,0,0,0-.74-.25h-.19a1.43,1.43,0,0,0-.7.15,1,1,0,0,0-.4.82l-1.12-.15A1.82,1.82,0,0,1,48.4,50.19Zm2.87,2.48a4.81,4.81,0,0,0-1.9.4.87.87,0,0,0-.46.72.11.11,0,0,0,0,.05.65.65,0,0,0,.27.58,1,1,0,0,0,.58.16h.17a1.85,1.85,0,0,0,.75-.21c.19-.12.39-.25.6-.41Z" style="fill:#423c25"/><path d="M57.79,49l0,1a1.71,1.71,0,0,1,.74-.69A2.35,2.35,0,0,1,59.65,49a2.19,2.19,0,0,1,1.2.39,2.09,2.09,0,0,1,.83,1.08,4.66,4.66,0,0,1,.25,1.42V52a5.12,5.12,0,0,1-.24,1.48,2.25,2.25,0,0,1-.83,1.26,1.86,1.86,0,0,1-1.12.31,3,3,0,0,1-.5,0,1.68,1.68,0,0,1-1.42-1.06l0,2.88H56.68V49Zm2.93,3a2.49,2.49,0,0,0-.36-1.34,1.18,1.18,0,0,0-1-.62,1.3,1.3,0,0,0-1.1.56,2.2,2.2,0,0,0-.37,1.33v.07c0,1.31.48,2,1.38,2a1.25,1.25,0,0,0,1.1-.61A2.39,2.39,0,0,0,60.72,52Z" style="fill:#423c25"/><path d="M64.23,52.59a2.1,2.1,0,0,0,.41,1.33,1.34,1.34,0,0,0,.91.39h.14a1.36,1.36,0,0,0,.79-.22,1.64,1.64,0,0,0,.57-1l1.17.23a3.31,3.31,0,0,1-.65,1.25,1.85,1.85,0,0,1-1.19.65,4.34,4.34,0,0,1-.71.06,3.38,3.38,0,0,1-.72-.07,2.16,2.16,0,0,1-1.19-.68,2.59,2.59,0,0,1-.66-1.24,4.61,4.61,0,0,1-.12-1c0-.13,0-.25,0-.38a3.24,3.24,0,0,1,.36-1.31,2.05,2.05,0,0,1,.78-.9,2.63,2.63,0,0,1,1-.39,3.64,3.64,0,0,1,.6,0l.6,0a2,2,0,0,1,1.28.8,4,4,0,0,1,.59,2.45Zm2.71-.92a1.56,1.56,0,0,0-.38-1,1.2,1.2,0,0,0-.94-.42,1.27,1.27,0,0,0-1,.4,1.42,1.42,0,0,0-.41,1Z" style="fill:#423c25"/><path d="M73,55.61l-.07-1.33a1.69,1.69,0,0,1-.94.92,2,2,0,0,1-.75.14,2,2,0,0,1-.43,0,1.63,1.63,0,0,1-1-.62,2.61,2.61,0,0,1-.51-1.12,16.24,16.24,0,0,1-.08-2.11c0-.67,0-1.48,0-2.44l1.11,0c0,.75,0,1.4,0,2a21.31,21.31,0,0,0,.06,2.23,1.08,1.08,0,0,0,.36.69,1.13,1.13,0,0,0,.71.25h0a1,1,0,0,0,.66-.22,2,2,0,0,0,.44-.58,3.58,3.58,0,0,0,.22-1.43l0-2.48,1.14-.08.09,6.11Z" style="fill:#423c25"/><path d="M75.2,48.94h.93V47.28l1.17-.16v1.77l1.53,0v1l-1.53.05v3.5a1,1,0,0,0,.11.57.39.39,0,0,0,.34.14,3.89,3.89,0,0,0,.92-.2l.16,1a6.53,6.53,0,0,1-1.39.22,1.83,1.83,0,0,1-1-.36,1.58,1.58,0,0,1-.3-1.06V49.91H75.2Z" style="fill:#423c25"/><path d="M85.54,50.2a1.56,1.56,0,0,0-.58-.11,1.39,1.39,0,0,0-.3,0,1.34,1.34,0,0,0-.72.46,1.89,1.89,0,0,0-.38,1,2.92,2.92,0,0,0,0,.51,3,3,0,0,0,.06.61,1.71,1.71,0,0,0,.43.87,1.24,1.24,0,0,0,.84.4H85a1.39,1.39,0,0,0,.78-.22,1.25,1.25,0,0,0,.5-1l1.1.23a2.42,2.42,0,0,1-.56,1.26,2,2,0,0,1-1.18.64,4,4,0,0,1-.68.06,3.63,3.63,0,0,1-.67-.06,2.15,2.15,0,0,1-1.07-.55,2.33,2.33,0,0,1-.63-1.14A4.18,4.18,0,0,1,82.4,52c0-.1,0-.2,0-.3a3.63,3.63,0,0,1,.34-1.34,2.12,2.12,0,0,1,.74-.9,2.49,2.49,0,0,1,.91-.39,3.3,3.3,0,0,1,.58,0l.52,0a2.12,2.12,0,0,1,1.16.53A2,2,0,0,1,87.3,51l-1.09.18A1.26,1.26,0,0,0,85.54,50.2Z" style="fill:#423c25"/><path d="M89.11,54.63a3.81,3.81,0,0,1,0-4.4,2.74,2.74,0,0,1,4,0,3.81,3.81,0,0,1,0,4.4,2.72,2.72,0,0,1-4,0Zm3.18-.76a2.44,2.44,0,0,0,.38-1.41,2.39,2.39,0,0,0-.38-1.39,1.43,1.43,0,0,0-2.4,0,2.47,2.47,0,0,0-.38,1.39,2.51,2.51,0,0,0,.38,1.41,1.43,1.43,0,0,0,2.4,0Z" style="fill:#423c25"/><path d="M98,50.2a1.56,1.56,0,0,0-.58-.11,1.39,1.39,0,0,0-.3,0,1.34,1.34,0,0,0-.72.46,2,2,0,0,0-.39,1,4.36,4.36,0,0,0,0,.51,3,3,0,0,0,.06.61,1.71,1.71,0,0,0,.43.87,1.24,1.24,0,0,0,.84.4h.12a1.42,1.42,0,0,0,.78-.22,1.24,1.24,0,0,0,.49-1l1.11.23a2.42,2.42,0,0,1-.56,1.26,2,2,0,0,1-1.18.64,4,4,0,0,1-.68.06,3.82,3.82,0,0,1-.68-.06,2.24,2.24,0,0,1-1.07-.55A2.4,2.4,0,0,1,95,53.21,4.19,4.19,0,0,1,94.85,52c0-.1,0-.2,0-.3a3.44,3.44,0,0,1,.34-1.34,2,2,0,0,1,.74-.9,2.42,2.42,0,0,1,.91-.39,3.27,3.27,0,0,1,.57,0l.52,0a2.15,2.15,0,0,1,1.17.53A2,2,0,0,1,99.76,51l-1.09.18A1.26,1.26,0,0,0,98,50.2Z" style="fill:#423c25"/><path d="M102.06,47.33v2.9a1.75,1.75,0,0,1,1-.91,2,2,0,0,1,.75-.14,2,2,0,0,1,.43,0,1.63,1.63,0,0,1,1,.62,2.61,2.61,0,0,1,.51,1.12,12.66,12.66,0,0,1,.07,1.8c0,.72,0,1.63,0,2.75l-1.1,0c0-1,0-1.75,0-2.38a14.31,14.31,0,0,0-.06-1.81,1.08,1.08,0,0,0-.36-.69,1.13,1.13,0,0,0-.71-.25h0a1,1,0,0,0-.66.22,2,2,0,0,0-.44.58,3.49,3.49,0,0,0-.23,1.41l-.06,2.53-1.1,0-.1-7.67Z" style="fill:#423c25"/><path d="M108,52.59a2.1,2.1,0,0,0,.41,1.33,1.34,1.34,0,0,0,.91.39h.14a1.36,1.36,0,0,0,.79-.22,1.64,1.64,0,0,0,.57-1l1.17.23a3.31,3.31,0,0,1-.65,1.25,1.85,1.85,0,0,1-1.19.65,4.34,4.34,0,0,1-.71.06,3.38,3.38,0,0,1-.72-.07,2.16,2.16,0,0,1-1.19-.68,2.59,2.59,0,0,1-.66-1.24,4.61,4.61,0,0,1-.12-1c0-.13,0-.25,0-.38a3.24,3.24,0,0,1,.36-1.31,2.05,2.05,0,0,1,.78-.9,2.63,2.63,0,0,1,1-.39,3.64,3.64,0,0,1,.6,0l.59,0a2,2,0,0,1,1.29.8,4,4,0,0,1,.59,2.45Zm2.71-.92a1.56,1.56,0,0,0-.38-1,1.2,1.2,0,0,0-.94-.42,1.27,1.27,0,0,0-1,.4,1.42,1.42,0,0,0-.41,1Z" style="fill:#423c25"/><path d="M116.58,50.6a1.52,1.52,0,0,0-.79-.25h-.12a1.31,1.31,0,0,0-.68.25,1.74,1.74,0,0,0-.44.52,3.3,3.3,0,0,0-.23,1.39L114.26,55l-1.1,0-.1-6.09,1.15-.13.05,1.33a1.85,1.85,0,0,1,1-.94,1.53,1.53,0,0,1,.54-.09,3.28,3.28,0,0,1,1.12.24Z" style="fill:#423c25"/><path d="M124.18,55.61l-.06-1.33a1.72,1.72,0,0,1-.94.92,2.08,2.08,0,0,1-.76.14,1.93,1.93,0,0,1-.42,0,1.62,1.62,0,0,1-1-.62,2.73,2.73,0,0,1-.51-1.12,17.08,17.08,0,0,1-.07-2.11c0-.67,0-1.48,0-2.44l1.11,0c0,.75,0,1.4,0,2a21.31,21.31,0,0,0,.06,2.23,1,1,0,0,0,1.07.94h0a1,1,0,0,0,.65-.22,2.24,2.24,0,0,0,.45-.58,3.84,3.84,0,0,0,.21-1.43l.06-2.48,1.14-.08.08,6.11Z" style="fill:#423c25"/><path d="M127.53,49l0,1.33a1.77,1.77,0,0,1,1-.92,2.31,2.31,0,0,1,.76-.14,2,2,0,0,1,.42,0,1.63,1.63,0,0,1,1,.61,2.63,2.63,0,0,1,.5,1.13,12.58,12.58,0,0,1,.07,1.79c0,.72,0,1.64,0,2.76l-1.1,0c0-.95,0-1.74,0-2.37,0-1,0-1.62-.05-1.81a1.16,1.16,0,0,0-.37-.7,1.07,1.07,0,0,0-.71-.24h0a1,1,0,0,0-.66.22,2.39,2.39,0,0,0-.44.57,3.6,3.6,0,0,0-.22,1.42l-.07,2.53-1.1,0-.09-6.1Z" style="fill:#423c25"/><path d="M133.54,52.59a2.1,2.1,0,0,0,.42,1.33,1.29,1.29,0,0,0,.9.39H135a1.36,1.36,0,0,0,.79-.22,1.64,1.64,0,0,0,.57-1l1.18.23a3.47,3.47,0,0,1-.66,1.25,1.83,1.83,0,0,1-1.18.65,4.56,4.56,0,0,1-.72.06,3.38,3.38,0,0,1-.72-.07,2.19,2.19,0,0,1-1.19-.68,2.59,2.59,0,0,1-.66-1.24,4.61,4.61,0,0,1-.12-1c0-.13,0-.25,0-.38a3.24,3.24,0,0,1,.36-1.31,2.05,2.05,0,0,1,.78-.9,2.68,2.68,0,0,1,1-.39,3.42,3.42,0,0,1,.59,0l.6,0a2,2,0,0,1,1.28.8,4,4,0,0,1,.59,2.45Zm2.71-.92a1.51,1.51,0,0,0-.38-1,1.2,1.2,0,0,0-.94-.42,1.29,1.29,0,0,0-1,.4,1.42,1.42,0,0,0-.41,1Z" style="fill:#423c25"/><path d="M14.52,63.1a2.25,2.25,0,0,1,1.14-.61,3.11,3.11,0,0,1,.69-.07,3.79,3.79,0,0,1,.86.1,1.41,1.41,0,0,1,1.08,1.12,8.08,8.08,0,0,1,.15,1.79c0,.4,0,.85,0,1.35v0c0,.29.11.43.34.43a1.27,1.27,0,0,0,.41-.1l.09,1a3.08,3.08,0,0,1-.74.11,1.05,1.05,0,0,1-1-.56,2.71,2.71,0,0,1-.95.59,3.52,3.52,0,0,1-.88.13h0a2,2,0,0,1-.84-.17,1.52,1.52,0,0,1-.65-.48,1.38,1.38,0,0,1-.28-.77.81.81,0,0,1,0-.16A2.34,2.34,0,0,1,14,66a1.71,1.71,0,0,1,.91-.86,7.88,7.88,0,0,1,2.5-.52,1.52,1.52,0,0,0-.19-.92,1.21,1.21,0,0,0-.74-.24h-.19a1.43,1.43,0,0,0-.7.15,1,1,0,0,0-.4.81L14,64.3A1.82,1.82,0,0,1,14.52,63.1Zm2.87,2.48a4.81,4.81,0,0,0-1.9.4.87.87,0,0,0-.46.72.09.09,0,0,0,0,0,.67.67,0,0,0,.27.58,1.06,1.06,0,0,0,.58.15H16a1.58,1.58,0,0,0,.75-.21,5.86,5.86,0,0,0,.6-.41Z" style="fill:#423c25"/><path d="M23.43,63.11a1.58,1.58,0,0,0-.58-.12,1.39,1.39,0,0,0-.3,0,1.36,1.36,0,0,0-.72.47,1.86,1.86,0,0,0-.38,1,3.12,3.12,0,0,0,0,.52,3,3,0,0,0,.06.61,1.75,1.75,0,0,0,.43.87,1.19,1.19,0,0,0,.84.39h.12a1.39,1.39,0,0,0,.78-.22,1.25,1.25,0,0,0,.5-1l1.1.23a2.36,2.36,0,0,1-.56,1.25,2,2,0,0,1-1.18.65,4,4,0,0,1-.68.06,2.93,2.93,0,0,1-.67-.07,2.14,2.14,0,0,1-1.07-.54,2.33,2.33,0,0,1-.63-1.14A4.29,4.29,0,0,1,20.29,65c0-.1,0-.2,0-.3a3.68,3.68,0,0,1,.34-1.35,2.07,2.07,0,0,1,.74-.89,2.49,2.49,0,0,1,.91-.39,2.52,2.52,0,0,1,.57-.05l.52,0a2.08,2.08,0,0,1,1.17.53,2,2,0,0,1,.64,1.35l-1.09.17A1.24,1.24,0,0,0,23.43,63.11Z" style="fill:#423c25"/><path d="M26.29,61.85h.93V60.18L28.4,60V61.8l1.52-.06v1l-1.52,0v3.5a1.09,1.09,0,0,0,.1.57.4.4,0,0,0,.34.14,4.69,4.69,0,0,0,.93-.2l.15,1a7.26,7.26,0,0,1-1.39.22,1.83,1.83,0,0,1-1-.36,1.69,1.69,0,0,1-.3-1.06V62.81h-.93Z" style="fill:#423c25"/><path d="M32.16,60.6a.64.64,0,0,1,0,.95.7.7,0,0,1-.49.2.66.66,0,0,1-.49-.2.68.68,0,0,1,.49-1.15A.66.66,0,0,1,32.16,60.6Zm-1.09,1.81,1.17,0-.11,5.84h-1Z" style="fill:#423c25"/><path d="M34.13,67.54a3.28,3.28,0,0,1-.71-2.21,3.24,3.24,0,0,1,.71-2.19,2.71,2.71,0,0,1,4,0,3.29,3.29,0,0,1,.71,2.19,3.33,3.33,0,0,1-.71,2.21,2.73,2.73,0,0,1-4,0Zm3.17-.76a2.44,2.44,0,0,0,.39-1.41A2.37,2.37,0,0,0,37.3,64a1.34,1.34,0,0,0-1.19-.66A1.37,1.37,0,0,0,34.9,64a2.45,2.45,0,0,0-.38,1.39,2.51,2.51,0,0,0,.38,1.41,1.38,1.38,0,0,0,1.21.65A1.35,1.35,0,0,0,37.3,66.78Z" style="fill:#423c25"/><path d="M41,61.92l.05,1.33a1.73,1.73,0,0,1,.95-.92,2.31,2.31,0,0,1,.76-.14,2,2,0,0,1,.42.05,1.63,1.63,0,0,1,1,.61,2.63,2.63,0,0,1,.5,1.13,12.58,12.58,0,0,1,.07,1.79c0,.72,0,1.64,0,2.75l-1.1,0c0-.95,0-1.75,0-2.38,0-1,0-1.61-.05-1.8a1.16,1.16,0,0,0-.37-.7,1.07,1.07,0,0,0-.71-.24h0a1,1,0,0,0-.66.22,2.39,2.39,0,0,0-.44.57,3.56,3.56,0,0,0-.22,1.42l-.07,2.52-1.1,0L39.87,62Z" style="fill:#423c25"/><path d="M50.63,66.11l1.12-.21c.06.57.27.89.65,1a3.14,3.14,0,0,0,.71.09l.28,0A.88.88,0,0,0,54,66.7a.72.72,0,0,0,.19-.35s0,0,0-.06a.43.43,0,0,0-.1-.27,1.16,1.16,0,0,0-.28-.26,6.47,6.47,0,0,0-1-.35c-.56-.16-1-.29-1.21-.39a1.55,1.55,0,0,1-.59-.44,1.25,1.25,0,0,1-.24-.7v-.09a1.66,1.66,0,0,1,.17-.73,1.37,1.37,0,0,1,.65-.63,2.65,2.65,0,0,1,1-.3,2.55,2.55,0,0,1,.39,0,3.27,3.27,0,0,1,.54,0,2.43,2.43,0,0,1,.9.36,2.24,2.24,0,0,1,.72,1.37L54,64c-.14-.48-.33-.75-.55-.83a1.87,1.87,0,0,0-.56-.09h-.11a1.08,1.08,0,0,0-.57.19.57.57,0,0,0-.26.42v.05a.43.43,0,0,0,.15.34,2.63,2.63,0,0,0,1,.34,6.09,6.09,0,0,1,1.37.47,1.35,1.35,0,0,1,.72.63,2,2,0,0,1,.14.75v0a1.58,1.58,0,0,1-.23.79,1.87,1.87,0,0,1-.76.62A3.15,3.15,0,0,1,53,68H53a3.63,3.63,0,0,1-1.1-.13,1.93,1.93,0,0,1-.75-.45A2.34,2.34,0,0,1,50.63,66.11Z" style="fill:#423c25"/><path d="M60.1,68.52,60,67.19a1.72,1.72,0,0,1-.94.92,2.31,2.31,0,0,1-.76.14,2,2,0,0,1-.42,0,1.61,1.61,0,0,1-1-.61,2.63,2.63,0,0,1-.5-1.13,14.31,14.31,0,0,1-.08-2.11c0-.66,0-1.47,0-2.43l1.11,0c0,.76,0,1.41,0,2a20.91,20.91,0,0,0,.06,2.22,1.11,1.11,0,0,0,.37.7,1.05,1.05,0,0,0,.71.24h0a.92.92,0,0,0,.65-.22,2.18,2.18,0,0,0,.45-.57A3.68,3.68,0,0,0,60,64.85L60,62.36l1.14-.07.09,6.11Z" style="fill:#423c25"/><path d="M65.82,63.5a1.63,1.63,0,0,0-.8-.24H64.9a1.35,1.35,0,0,0-.68.25,1.92,1.92,0,0,0-.44.52,3.35,3.35,0,0,0-.22,1.39L63.49,68l-1.1,0-.09-6.09,1.14-.13.05,1.33a1.86,1.86,0,0,1,1-.94,1.25,1.25,0,0,1,.53-.1,3.37,3.37,0,0,1,1.13.25Z" style="fill:#423c25"/><path d="M72,60.26l1.17.05v7.84l-1.11,0Z" style="fill:#423c25"/><path d="M75,63.1a2.24,2.24,0,0,1,1.15-.61,3,3,0,0,1,.68-.07,3.79,3.79,0,0,1,.86.1,1.4,1.4,0,0,1,1.08,1.12,8,8,0,0,1,.16,1.79c0,.4,0,.85,0,1.35v0c0,.29.11.43.33.43a1.27,1.27,0,0,0,.41-.1l.09,1a3,3,0,0,1-.73.11,1.07,1.07,0,0,1-1-.56,2.68,2.68,0,0,1-.94.59,3.61,3.61,0,0,1-.89.13h0a1.9,1.9,0,0,1-.83-.17,1.55,1.55,0,0,1-.66-.48,1.46,1.46,0,0,1-.28-.77v-.16A2.31,2.31,0,0,1,74.4,66a1.7,1.7,0,0,1,.92-.86,7.73,7.73,0,0,1,2.49-.52,1.45,1.45,0,0,0-.19-.92,1.16,1.16,0,0,0-.74-.24h-.19a1.48,1.48,0,0,0-.7.15,1,1,0,0,0-.4.81l-1.12-.14A1.92,1.92,0,0,1,75,63.1Zm2.88,2.48a4.88,4.88,0,0,0-1.91.4.89.89,0,0,0-.46.72v0a.67.67,0,0,0,.27.58,1,1,0,0,0,.58.15h.17a1.58,1.58,0,0,0,.75-.21,5.86,5.86,0,0,0,.6-.41Z" style="fill:#423c25"/><path d="M86.55,68.32l0-5.28-1-.06,0-.86h.94a2.58,2.58,0,0,1,.38-1.61A1.5,1.5,0,0,1,87.8,60a1.83,1.83,0,0,1,.35,0,3.6,3.6,0,0,1,.85.12l-.14,1a1.78,1.78,0,0,0-.47-.08.71.71,0,0,0-.45.13c-.21.14-.31.44-.31.89a.57.57,0,0,0,0,.13h1.12l0,1H87.67v5.26Z" style="fill:#423c25"/><path d="M91.23,60.6a.64.64,0,0,1,0,.95.7.7,0,0,1-1,0,.62.62,0,0,1-.2-.48.61.61,0,0,1,.2-.47.7.7,0,0,1,1,0Zm-1.09,1.81,1.17,0-.1,5.84h-1Z" style="fill:#423c25"/><path d="M95.63,63.11a1.54,1.54,0,0,0-.58-.12,1.53,1.53,0,0,0-.3,0,1.44,1.44,0,0,0-.72.47,1.86,1.86,0,0,0-.38,1,3.12,3.12,0,0,0,0,.52,2.43,2.43,0,0,0,.07.61,1.67,1.67,0,0,0,.43.87,1.19,1.19,0,0,0,.83.39h.12a1.39,1.39,0,0,0,.78-.22,1.22,1.22,0,0,0,.5-1l1.11.23a2.45,2.45,0,0,1-.57,1.25,1.93,1.93,0,0,1-1.18.65,3.88,3.88,0,0,1-.67.06,3,3,0,0,1-.68-.07,2.14,2.14,0,0,1-1.07-.54,2.41,2.41,0,0,1-.63-1.14A4.29,4.29,0,0,1,92.49,65c0-.1,0-.2,0-.3a3.68,3.68,0,0,1,.34-1.35,2.15,2.15,0,0,1,.74-.89A2.46,2.46,0,0,1,94.5,62a2.52,2.52,0,0,1,.57-.05l.52,0a2,2,0,0,1,1.16.53,2,2,0,0,1,.64,1.35l-1.09.17A1.24,1.24,0,0,0,95.63,63.11Z" style="fill:#423c25"/><path d="M99.7,60.24v2.9a1.68,1.68,0,0,1,1-.91,1.89,1.89,0,0,1,1.17-.1,1.62,1.62,0,0,1,1,.62,2.59,2.59,0,0,1,.5,1.12,12.05,12.05,0,0,1,.08,1.8c0,.71,0,1.63,0,2.75l-1.1,0c0-1,0-1.75,0-2.38,0-1,0-1.62,0-1.81a1.16,1.16,0,0,0-.37-.7,1.11,1.11,0,0,0-.71-.24h0a.92.92,0,0,0-.65.22,2.18,2.18,0,0,0-.45.57,3.64,3.64,0,0,0-.22,1.42L99.7,68l-1.11,0-.09-7.67Z" style="fill:#423c25"/><path d="M105.66,65.49a2.14,2.14,0,0,0,.41,1.34,1.29,1.29,0,0,0,.9.39h.14a1.41,1.41,0,0,0,.79-.22,1.7,1.7,0,0,0,.58-1l1.17.23a3.71,3.71,0,0,1-.65,1.25,1.92,1.92,0,0,1-1.19.65,4.56,4.56,0,0,1-.72.06,3.29,3.29,0,0,1-.71-.07,2.18,2.18,0,0,1-1.19-.68,2.56,2.56,0,0,1-.67-1.25,4.54,4.54,0,0,1-.11-1c0-.12,0-.24,0-.37a3.7,3.7,0,0,1,.36-1.32,2.22,2.22,0,0,1,.78-.89,2.75,2.75,0,0,1,1-.39,2.8,2.8,0,0,1,.6,0l.59,0A1.91,1.91,0,0,1,109,63a3.91,3.91,0,0,1,.59,2.45Zm2.71-.92a1.54,1.54,0,0,0-.39-.95,1.2,1.2,0,0,0-.94-.42,1.3,1.3,0,0,0-1,.4,1.36,1.36,0,0,0-.4,1Z" style="fill:#423c25"/><path d="M115.71,67.71,115.56,60l3.72-.06a3,3,0,0,1,1.7.54,1.72,1.72,0,0,1,.62,1.48v0a1.58,1.58,0,0,1-1.12,1.51A2,2,0,0,1,122,65.54a2,2,0,0,1-.69,1.54,3.16,3.16,0,0,1-2.18.62h-3.38ZM117,63.16l2.15-.06c.75,0,1.13-.35,1.13-1.06s-.38-1-1.13-1h-2.2Zm0,3.42,2.38-.06c.86,0,1.29-.4,1.29-1.21s-.43-1.14-1.29-1.14l-2.33,0Z" style="fill:#423c25"/><path d="M123.71,63.1a2.25,2.25,0,0,1,1.14-.61,3.11,3.11,0,0,1,.69-.07,3.79,3.79,0,0,1,.86.1,1.39,1.39,0,0,1,1.07,1.12,7.41,7.41,0,0,1,.16,1.79c0,.4,0,.85,0,1.35v0c0,.29.11.43.34.43a1.22,1.22,0,0,0,.4-.1l.09,1a2.94,2.94,0,0,1-.73.11,1.08,1.08,0,0,1-1-.56,2.6,2.6,0,0,1-.94.59,3.52,3.52,0,0,1-.88.13h0a2,2,0,0,1-.84-.17,1.52,1.52,0,0,1-.65-.48A1.47,1.47,0,0,1,123,67v-.16a2.34,2.34,0,0,1,.15-.79,1.67,1.67,0,0,1,.91-.86,7.88,7.88,0,0,1,2.5-.52,1.52,1.52,0,0,0-.19-.92,1.21,1.21,0,0,0-.74-.24h-.19a1.43,1.43,0,0,0-.7.15,1,1,0,0,0-.4.81l-1.13-.14A1.88,1.88,0,0,1,123.71,63.1Zm2.87,2.48a4.81,4.81,0,0,0-1.9.4.87.87,0,0,0-.46.72.09.09,0,0,0,0,0,.67.67,0,0,0,.27.58,1,1,0,0,0,.58.15h.17a1.58,1.58,0,0,0,.75-.21,5.86,5.86,0,0,0,.6-.41Z" style="fill:#423c25"/><path d="M133,63.5a1.59,1.59,0,0,0-.79-.24h-.12a1.35,1.35,0,0,0-.68.25A1.92,1.92,0,0,0,131,64a3.35,3.35,0,0,0-.22,1.39L130.67,68l-1.1,0-.09-6.09,1.14-.13,0,1.33a1.85,1.85,0,0,1,1-.94,1.33,1.33,0,0,1,.54-.1,3.27,3.27,0,0,1,1.12.25Z" style="fill:#423c25"/><path d="M134.35,64.48l3.19,0-.06,1.11-3.07,0Z" style="fill:#423c25"/><path d="M13.83,81.23V73.42H15l0,2.88a1.68,1.68,0,0,1,1.41-1.07l.5,0a1.86,1.86,0,0,1,1.12.31,2.32,2.32,0,0,1,.84,1.26,5.45,5.45,0,0,1,.23,1.48v.07a4.66,4.66,0,0,1-.25,1.42A2.09,2.09,0,0,1,18,80.82a2.16,2.16,0,0,1-1.2.39A2.38,2.38,0,0,1,15.71,81a1.76,1.76,0,0,1-.74-.69l0,1Zm4-3v0a2.29,2.29,0,0,0-.35-1.31,1.24,1.24,0,0,0-1.1-.61c-.9,0-1.36.66-1.38,2v.07a2.3,2.3,0,0,0,.37,1.33,1.29,1.29,0,0,0,1.1.55,1.17,1.17,0,0,0,1-.61A2.49,2.49,0,0,0,17.86,78.28Z" style="fill:#423c25"/><path d="M20.82,76A2.24,2.24,0,0,1,22,75.4a3,3,0,0,1,.68-.08,4.46,4.46,0,0,1,.86.1,1.43,1.43,0,0,1,1.08,1.13,8,8,0,0,1,.16,1.79c0,.4,0,.85-.05,1.35v0c0,.28.12.43.34.43a1.27,1.27,0,0,0,.41-.1l.09,1a3,3,0,0,1-.74.11,1.06,1.06,0,0,1-1-.56,2.94,2.94,0,0,1-.94.59,3.19,3.19,0,0,1-.89.12h0a2.14,2.14,0,0,1-.84-.17,1.52,1.52,0,0,1-.65-.48,1.49,1.49,0,0,1-.28-.77.91.91,0,0,1,0-.17,2.29,2.29,0,0,1,.15-.78,1.71,1.71,0,0,1,.91-.86,7.88,7.88,0,0,1,2.5-.52,1.43,1.43,0,0,0-.19-.92,1.18,1.18,0,0,0-.74-.24h-.19a1.45,1.45,0,0,0-.7.16,1,1,0,0,0-.4.81l-1.12-.14A1.78,1.78,0,0,1,20.82,76Zm2.87,2.47a5,5,0,0,0-1.9.41.89.89,0,0,0-.46.71v.06a.65.65,0,0,0,.26.57,1,1,0,0,0,.59.16h.17a1.85,1.85,0,0,0,.75-.21,5.8,5.8,0,0,0,.59-.41Z" style="fill:#423c25"/><path d="M30.11,76.41a1.65,1.65,0,0,0-.8-.25h-.12a1.2,1.2,0,0,0-.67.25,1.78,1.78,0,0,0-.45.52,3.31,3.31,0,0,0-.22,1.39l-.06,2.52-1.11,0-.09-6.1,1.14-.12L27.79,76a1.78,1.78,0,0,1,1-.94,1.29,1.29,0,0,1,.53-.1,3.1,3.1,0,0,1,1.13.25Z" style="fill:#423c25"/><path d="M32.72,78.4a2.14,2.14,0,0,0,.41,1.34,1.41,1.41,0,0,0,.91.39h.13a1.39,1.39,0,0,0,.8-.22,1.63,1.63,0,0,0,.57-1l1.17.22a3.58,3.58,0,0,1-.65,1.26,1.84,1.84,0,0,1-1.19.64,3.65,3.65,0,0,1-.72.07,4.17,4.17,0,0,1-.71-.07,2.22,2.22,0,0,1-1.19-.68,2.73,2.73,0,0,1-.67-1.25,5.17,5.17,0,0,1-.11-1c0-.12,0-.24,0-.37a3.59,3.59,0,0,1,.36-1.32,2.32,2.32,0,0,1,.78-.9,3.19,3.19,0,0,1,1-.39,3.7,3.7,0,0,1,.6,0l.59,0a2,2,0,0,1,1.29.79,4.1,4.1,0,0,1,.59,2.46Zm2.71-.92a1.54,1.54,0,0,0-.39-1,1.19,1.19,0,0,0-.94-.42,1.33,1.33,0,0,0-1,.39,1.43,1.43,0,0,0-.4,1Z" style="fill:#423c25"/><path d="M41.85,76A2.24,2.24,0,0,1,43,75.4a3,3,0,0,1,.68-.08,4.46,4.46,0,0,1,.86.1,1.41,1.41,0,0,1,1.08,1.13,8,8,0,0,1,.16,1.79c0,.4,0,.85-.05,1.35v0c0,.28.12.43.34.43a1.27,1.27,0,0,0,.41-.1l.09,1a3,3,0,0,1-.74.11,1.06,1.06,0,0,1-1-.56,2.84,2.84,0,0,1-.94.59,3.19,3.19,0,0,1-.89.12h0a2.05,2.05,0,0,1-.83-.17,1.4,1.4,0,0,1-.94-1.25v-.17a2.26,2.26,0,0,1,.14-.78,1.7,1.7,0,0,1,.92-.86,7.73,7.73,0,0,1,2.49-.52,1.43,1.43,0,0,0-.19-.92,1.16,1.16,0,0,0-.74-.24h-.19a1.48,1.48,0,0,0-.7.16,1,1,0,0,0-.4.81l-1.12-.14A1.88,1.88,0,0,1,41.85,76Zm2.88,2.47a5,5,0,0,0-1.91.41.89.89,0,0,0-.46.71v.06a.64.64,0,0,0,.27.57,1,1,0,0,0,.58.16h.17a1.85,1.85,0,0,0,.75-.21,5.86,5.86,0,0,0,.6-.41Z" style="fill:#423c25"/><path d="M47.1,75.28,48.32,75l1.46,4.74h0l1.4-4.48,1.22.26-2,5.36-1.32-.06Z" style="fill:#423c25"/><path d="M54.18,76a2.24,2.24,0,0,1,1.15-.61,3,3,0,0,1,.68-.08,4.46,4.46,0,0,1,.86.1A1.43,1.43,0,0,1,58,76.55a8.08,8.08,0,0,1,.15,1.79c0,.4,0,.85,0,1.35v0c0,.28.11.43.34.43a1.27,1.27,0,0,0,.41-.1l.09,1a3.08,3.08,0,0,1-.74.11,1.05,1.05,0,0,1-1-.56,2.87,2.87,0,0,1-1,.59,3.12,3.12,0,0,1-.88.12h0a2.14,2.14,0,0,1-.84-.17,1.52,1.52,0,0,1-.65-.48,1.49,1.49,0,0,1-.28-.77.91.91,0,0,1,0-.17,2.29,2.29,0,0,1,.15-.78,1.71,1.71,0,0,1,.91-.86,7.88,7.88,0,0,1,2.5-.52,1.5,1.5,0,0,0-.19-.92,1.18,1.18,0,0,0-.74-.24h-.19a1.45,1.45,0,0,0-.7.16,1,1,0,0,0-.4.81l-1.12-.14A1.78,1.78,0,0,1,54.18,76Zm2.87,2.47a5,5,0,0,0-1.9.41.87.87,0,0,0-.46.71s0,0,0,.06a.64.64,0,0,0,.27.57,1,1,0,0,0,.59.16h.16a1.76,1.76,0,0,0,.75-.21,5.86,5.86,0,0,0,.6-.41Z" style="fill:#423c25"/><path d="M61.09,74.82l0,1.33a1.77,1.77,0,0,1,1-.91,2.13,2.13,0,0,1,1.17-.1,1.62,1.62,0,0,1,1,.62,2.59,2.59,0,0,1,.5,1.12,12.05,12.05,0,0,1,.08,1.8c0,.72,0,1.63,0,2.75l-1.1,0c0-1,0-1.75,0-2.38,0-1,0-1.62,0-1.81a1.13,1.13,0,0,0-.37-.69,1.11,1.11,0,0,0-.71-.25h0a1,1,0,0,0-.66.22,2.68,2.68,0,0,0-.44.58,3.54,3.54,0,0,0-.22,1.41L61.14,81,60,81,60,75Z" style="fill:#423c25"/><path d="M65.86,74.76h.92V73.09L68,72.93V74.7l1.52,0v1l-1.52,0v3.5a1,1,0,0,0,.1.56.38.38,0,0,0,.34.15,4.69,4.69,0,0,0,.93-.2l.15,1a7.14,7.14,0,0,1-1.39.22,1.88,1.88,0,0,1-1-.37,1.64,1.64,0,0,1-.3-1V75.72h-.92Z" style="fill:#423c25"/><path d="M79.17,74.73v7.81H78L78,79.66a1.68,1.68,0,0,1-1.42,1.06,2.89,2.89,0,0,1-.5,0A1.88,1.88,0,0,1,75,80.45a2.25,2.25,0,0,1-.83-1.26,5.07,5.07,0,0,1-.24-1.48.17.17,0,0,1,0-.07,4.38,4.38,0,0,1,.25-1.42A2,2,0,0,1,75,75.14a2.13,2.13,0,0,1,1.19-.39,2.32,2.32,0,0,1,1.08.24,1.71,1.71,0,0,1,.74.69l0-1Zm-4,3v0A2.29,2.29,0,0,0,75.5,79a1.23,1.23,0,0,0,1.09.61c.9,0,1.36-.66,1.38-2v-.07a2.22,2.22,0,0,0-.37-1.33,1.29,1.29,0,0,0-1.1-.55,1.17,1.17,0,0,0-1,.61A2.49,2.49,0,0,0,75.14,77.68Z" style="fill:#423c25"/><path d="M84,81.43l-.07-1.33A1.72,1.72,0,0,1,83,81a2.21,2.21,0,0,1-.75.14,2,2,0,0,1-.43,0,1.61,1.61,0,0,1-1-.61,2.65,2.65,0,0,1-.51-1.13,16.13,16.13,0,0,1-.08-2.11c0-.66,0-1.48,0-2.44l1.11,0c0,.75,0,1.41,0,2A20.91,20.91,0,0,0,81.42,79a1.1,1.1,0,0,0,.36.7,1.07,1.07,0,0,0,.71.24h0a.94.94,0,0,0,.66-.22,2,2,0,0,0,.44-.57,3.62,3.62,0,0,0,.22-1.43l0-2.49L85,75.2l.09,6.11Z" style="fill:#423c25"/><path d="M87.41,78.4a2.13,2.13,0,0,0,.42,1.34,1.38,1.38,0,0,0,.9.39h.14a1.36,1.36,0,0,0,.79-.22,1.58,1.58,0,0,0,.57-1l1.17.22a3.43,3.43,0,0,1-.65,1.26,1.82,1.82,0,0,1-1.18.64,3.65,3.65,0,0,1-.72.07,4.18,4.18,0,0,1-.72-.07,2.22,2.22,0,0,1-1.19-.68,2.62,2.62,0,0,1-.66-1.25,4.55,4.55,0,0,1-.12-1c0-.12,0-.24,0-.37a3.24,3.24,0,0,1,.36-1.32,2.17,2.17,0,0,1,.78-.9,3.09,3.09,0,0,1,1-.39,3.49,3.49,0,0,1,.59,0l.6,0a2,2,0,0,1,1.28.79,4,4,0,0,1,.59,2.46Zm2.71-.92a1.53,1.53,0,0,0-.38-1,1.2,1.2,0,0,0-.94-.42,1.32,1.32,0,0,0-1,.39,1.44,1.44,0,0,0-.41,1Z" style="fill:#423c25"/><path d="M96,80.62l-.16-7.73,3.72-.06a3.12,3.12,0,0,1,1.71.53,1.75,1.75,0,0,1,.61,1.49v0a1.55,1.55,0,0,1-1.12,1.5,2,2,0,0,1,1.48,2.06,2,2,0,0,1-.69,1.54,3.16,3.16,0,0,1-2.18.62H96Zm1.24-4.56,2.14,0c.75,0,1.13-.35,1.13-1.06s-.38-1-1.13-1H97.2Zm0,3.42,2.37,0c.86,0,1.29-.4,1.29-1.21s-.43-1.14-1.29-1.14l-2.32,0Z" style="fill:#423c25"/><path d="M104,76a2.24,2.24,0,0,1,1.15-.61,3,3,0,0,1,.68-.08,4.46,4.46,0,0,1,.86.1,1.43,1.43,0,0,1,1.08,1.13,8,8,0,0,1,.16,1.79c0,.4,0,.85-.05,1.35v0c0,.28.12.43.34.43a1.27,1.27,0,0,0,.41-.1l.09,1a3,3,0,0,1-.74.11,1.06,1.06,0,0,1-1-.56,2.94,2.94,0,0,1-.94.59,3.19,3.19,0,0,1-.89.12h0a2.14,2.14,0,0,1-.84-.17,1.52,1.52,0,0,1-.65-.48,1.49,1.49,0,0,1-.28-.77s0-.11,0-.17a2.29,2.29,0,0,1,.15-.78,1.71,1.71,0,0,1,.91-.86,7.88,7.88,0,0,1,2.5-.52,1.43,1.43,0,0,0-.19-.92,1.18,1.18,0,0,0-.74-.24h-.19a1.45,1.45,0,0,0-.7.16,1,1,0,0,0-.4.81l-1.12-.14A1.78,1.78,0,0,1,104,76Zm2.88,2.47a5,5,0,0,0-1.91.41.87.87,0,0,0-.46.71v.06a.65.65,0,0,0,.26.57,1,1,0,0,0,.59.16h.17a1.85,1.85,0,0,0,.75-.21,7.21,7.21,0,0,0,.6-.41Z" style="fill:#423c25"/><path d="M113.29,76.41a1.65,1.65,0,0,0-.79-.25h-.13a1.23,1.23,0,0,0-.67.25,1.78,1.78,0,0,0-.45.52,3.31,3.31,0,0,0-.22,1.39L111,80.85l-1.11,0-.09-6.1,1.14-.12L111,76a1.78,1.78,0,0,1,1-.94,1.29,1.29,0,0,1,.53-.1,3.1,3.1,0,0,1,1.13.25Z" style="fill:#423c25"/><path d="M114.66,81.23V73.42h1.19l0,2.88a1.71,1.71,0,0,1,1.42-1.07l.5,0a1.86,1.86,0,0,1,1.12.31,2.25,2.25,0,0,1,.83,1.26,5.12,5.12,0,0,1,.24,1.48v.07a5,5,0,0,1-.25,1.42,2.09,2.09,0,0,1-.83,1.08,2.19,2.19,0,0,1-1.2.39,2.32,2.32,0,0,1-1.08-.24,1.71,1.71,0,0,1-.74-.69l0,1Zm4-3v0a2.29,2.29,0,0,0-.36-1.31,1.23,1.23,0,0,0-1.09-.61c-.9,0-1.36.66-1.38,2v.07a2.22,2.22,0,0,0,.37,1.33,1.29,1.29,0,0,0,1.1.55,1.17,1.17,0,0,0,1-.61A2.49,2.49,0,0,0,118.69,78.28Z" style="fill:#423c25"/><path d="M121.65,76a2.25,2.25,0,0,1,1.14-.61,3.1,3.1,0,0,1,.69-.08,4.46,4.46,0,0,1,.86.1,1.43,1.43,0,0,1,1.08,1.13,8.08,8.08,0,0,1,.15,1.79c0,.4,0,.85,0,1.35v0c0,.28.11.43.34.43a1.27,1.27,0,0,0,.41-.1l.09,1a3.08,3.08,0,0,1-.74.11,1.05,1.05,0,0,1-1-.56,2.87,2.87,0,0,1-.95.59,3.12,3.12,0,0,1-.88.12h0a2.14,2.14,0,0,1-.84-.17,1.52,1.52,0,0,1-.65-.48,1.41,1.41,0,0,1-.28-.77.91.91,0,0,1,0-.17,2.29,2.29,0,0,1,.15-.78,1.71,1.71,0,0,1,.91-.86,7.88,7.88,0,0,1,2.5-.52,1.5,1.5,0,0,0-.19-.92,1.21,1.21,0,0,0-.74-.24h-.19a1.42,1.42,0,0,0-.7.16,1,1,0,0,0-.4.81l-1.12-.14A1.78,1.78,0,0,1,121.65,76Zm2.87,2.47a5,5,0,0,0-1.9.41.87.87,0,0,0-.46.71s0,0,0,.06a.64.64,0,0,0,.27.57,1,1,0,0,0,.58.16h.17a1.85,1.85,0,0,0,.75-.21,5.86,5.86,0,0,0,.6-.41Z" style="fill:#423c25"/><path d="M130.94,76.41a1.65,1.65,0,0,0-.8-.25H130a1.26,1.26,0,0,0-.68.25,1.92,1.92,0,0,0-.44.52,3.31,3.31,0,0,0-.22,1.39l-.07,2.52-1.1,0-.09-6.1,1.14-.12.05,1.33a1.83,1.83,0,0,1,1-.94,1.25,1.25,0,0,1,.53-.1,3.14,3.14,0,0,1,1.13.25Z" style="fill:#423c25"/><path d="M133.55,78.4a2.14,2.14,0,0,0,.41,1.34,1.38,1.38,0,0,0,.9.39H135a1.34,1.34,0,0,0,.79-.22,1.64,1.64,0,0,0,.58-1l1.17.22a3.76,3.76,0,0,1-.65,1.26,1.87,1.87,0,0,1-1.19.64,3.65,3.65,0,0,1-.72.07,4.07,4.07,0,0,1-.71-.07,2.18,2.18,0,0,1-1.19-.68,2.56,2.56,0,0,1-.67-1.25,4.54,4.54,0,0,1-.11-1c0-.12,0-.24,0-.37a3.59,3.59,0,0,1,.36-1.32,2.32,2.32,0,0,1,.78-.9,3.19,3.19,0,0,1,1-.39,3.7,3.7,0,0,1,.6,0l.59,0a1.93,1.93,0,0,1,1.28.79,4,4,0,0,1,.59,2.46Zm2.71-.92a1.54,1.54,0,0,0-.39-1,1.2,1.2,0,0,0-.94-.42,1.33,1.33,0,0,0-1,.39,1.38,1.38,0,0,0-.4,1Z" style="fill:#423c25"/><path d="M15,87.73l0,1.33a1.71,1.71,0,0,1,1-.91,2,2,0,0,1,.75-.14,2.09,2.09,0,0,1,.43,0,1.63,1.63,0,0,1,1,.62,2.73,2.73,0,0,1,.51,1.12,14.51,14.51,0,0,1,.07,1.8c0,.71,0,1.63,0,2.75l-1.11,0c0-1,0-1.75,0-2.38a15.34,15.34,0,0,0-.05-1.81,1.11,1.11,0,0,0-.37-.7,1.14,1.14,0,0,0-.7-.24h0a1,1,0,0,0-.65.22,2.18,2.18,0,0,0-.45.57,3.84,3.84,0,0,0-.22,1.42L15,93.92l-1.1,0-.1-6.09Z" style="fill:#423c25"/><path d="M20.07,88.63l-.34-.23a2.22,2.22,0,0,0,.63-.85.52.52,0,0,1-.51-.26.88.88,0,0,1-.1-.4.41.41,0,0,1,0-.11.59.59,0,0,1,.18-.38.68.68,0,0,1,.37-.18h.1a.77.77,0,0,1,.66.41.81.81,0,0,1,.06.33,1.48,1.48,0,0,1,0,.21,1.59,1.59,0,0,1-.22.6A6.89,6.89,0,0,1,20.07,88.63Z" style="fill:#423c25"/><path d="M22.88,88.91A2.32,2.32,0,0,1,24,88.3a3.64,3.64,0,0,1,.68-.07,3.79,3.79,0,0,1,.86.1,1.43,1.43,0,0,1,1.08,1.12,8.18,8.18,0,0,1,.15,1.8c0,.4,0,.84,0,1.35v0c0,.28.11.42.34.42a1.05,1.05,0,0,0,.41-.1l.09,1a3,3,0,0,1-.74.1,1,1,0,0,1-1-.55,2.66,2.66,0,0,1-.95.58,2.8,2.8,0,0,1-.88.13h0a2.14,2.14,0,0,1-.84-.17,1.52,1.52,0,0,1-.65-.48,1.49,1.49,0,0,1-.28-.77.91.91,0,0,1,0-.17,2.24,2.24,0,0,1,.15-.78,1.67,1.67,0,0,1,.91-.86,7.88,7.88,0,0,1,2.5-.52,1.5,1.5,0,0,0-.19-.92,1.18,1.18,0,0,0-.74-.24h-.19a1.45,1.45,0,0,0-.7.15,1,1,0,0,0-.4.82l-1.12-.14A1.82,1.82,0,0,1,22.88,88.91Zm2.87,2.48a4.81,4.81,0,0,0-1.9.41.85.85,0,0,0-.46.71.43.43,0,0,1,0,0,.64.64,0,0,0,.27.58,1,1,0,0,0,.59.16h.16a1.76,1.76,0,0,0,.75-.21,5.86,5.86,0,0,0,.6-.41Z" style="fill:#423c25"/><path d="M29.83,86.41a.65.65,0,0,1,0,1,.73.73,0,0,1-1,0,.68.68,0,0,1,0-1,.7.7,0,0,1,1,0Zm-1.09,1.82,1.17-.06L29.81,94h-1Z" style="fill:#423c25"/><path d="M31.09,87.66H32V86l1.18-.16v1.77l1.53,0v1l-1.53.06v3.5a1,1,0,0,0,.1.56.38.38,0,0,0,.34.14,3.84,3.84,0,0,0,.93-.2l.16,1a6.51,6.51,0,0,1-1.4.22,1.86,1.86,0,0,1-1-.36,1.66,1.66,0,0,1-.3-1V88.63h-.92Z" style="fill:#423c25"/><path d="M39,87.69l0,1a1.74,1.74,0,0,1,.73-.69,2.39,2.39,0,0,1,1.09-.24A2.13,2.13,0,0,1,42,88.1a2,2,0,0,1,.83,1.08,4.68,4.68,0,0,1,.26,1.42v.07a5.07,5.07,0,0,1-.24,1.48,2.25,2.25,0,0,1-.83,1.26,1.88,1.88,0,0,1-1.12.31,2.89,2.89,0,0,1-.5,0A1.68,1.68,0,0,1,39,92.62l0,2.89H37.88V87.69Zm2.93,3a2.49,2.49,0,0,0-.36-1.34,1.18,1.18,0,0,0-1-.61,1.28,1.28,0,0,0-1.1.55,2.22,2.22,0,0,0-.37,1.33v.07c0,1.31.48,2,1.37,2a1.23,1.23,0,0,0,1.1-.61,2.27,2.27,0,0,0,.36-1.31Z" style="fill:#423c25"/><path d="M47.91,94.33,47.84,93a1.7,1.7,0,0,1-.94.91,2.1,2.1,0,0,1-.76.15,2,2,0,0,1-.42,0,1.62,1.62,0,0,1-1-.62,2.59,2.59,0,0,1-.5-1.12,14.5,14.5,0,0,1-.08-2.11c0-.67,0-1.48,0-2.44l1.11,0c0,.75,0,1.4,0,2A20.91,20.91,0,0,0,45.36,92a1.16,1.16,0,0,0,.37.7,1.05,1.05,0,0,0,.71.24h0a.92.92,0,0,0,.65-.22,2.18,2.18,0,0,0,.45-.57,3.49,3.49,0,0,0,.21-1.43l.06-2.49L49,88.1l.09,6.11Z" style="fill:#423c25"/><path d="M52.21,86.07l1.17.05V94L52.27,94Z" style="fill:#423c25"/><path d="M54.78,88.63l-.34-.23a2.47,2.47,0,0,0,.63-.85.51.51,0,0,1-.51-.26.88.88,0,0,1-.1-.4.41.41,0,0,1,0-.11.59.59,0,0,1,.18-.38.62.62,0,0,1,.37-.18h.09a.69.69,0,0,1,.34.09.71.71,0,0,1,.32.32.67.67,0,0,1,.07.33,1.49,1.49,0,0,1,0,.21,1.44,1.44,0,0,1-.22.6A6.57,6.57,0,0,1,54.78,88.63Z" style="fill:#423c25"/><path d="M60.62,94.33,60.55,93a1.7,1.7,0,0,1-.94.91,2.1,2.1,0,0,1-.76.15,2,2,0,0,1-.42,0,1.62,1.62,0,0,1-1-.62,2.59,2.59,0,0,1-.5-1.12,14.5,14.5,0,0,1-.08-2.11c0-.67,0-1.48,0-2.44l1.11,0c0,.75,0,1.4,0,2A20.91,20.91,0,0,0,58.07,92a1.16,1.16,0,0,0,.37.7,1.05,1.05,0,0,0,.71.24h0a.92.92,0,0,0,.65-.22,2.18,2.18,0,0,0,.45-.57,3.49,3.49,0,0,0,.21-1.43l.06-2.49,1.14-.08.09,6.11Z" style="fill:#423c25"/><path d="M62.82,87.66h.92V86l1.18-.16v1.77l1.53,0v1l-1.53.06v3.5a1,1,0,0,0,.1.56.38.38,0,0,0,.34.14,4,4,0,0,0,.93-.2l.16,1a6.6,6.6,0,0,1-1.4.22,1.86,1.86,0,0,1-1-.36,1.66,1.66,0,0,1-.3-1V88.63h-.92Z" style="fill:#423c25"/><path d="M68.68,86.41a.65.65,0,0,1,0,1,.73.73,0,0,1-1,0,.68.68,0,0,1,0-1,.7.7,0,0,1,1,0Zm-1.09,1.82,1.17-.06L68.66,94h-1Z" style="fill:#423c25"/><path d="M69.94,86.07l1.17.05V94L70,94Z" style="fill:#423c25"/><path d="M73.35,86.41a.68.68,0,0,1,0,1,.69.69,0,0,1-.5.19.69.69,0,0,1-.49-.19.68.68,0,0,1,0-1,.71.71,0,0,1,1,0Zm-1.09,1.82,1.17-.06L73.32,94h-1Z" style="fill:#423c25"/><path d="M74.6,91.93l1.12-.21c.06.56.28.89.65,1a3.86,3.86,0,0,0,.71.08,1.37,1.37,0,0,0,.29,0,.93.93,0,0,0,.59-.24.78.78,0,0,0,.18-.35.2.2,0,0,0,0-.07.39.39,0,0,0-.1-.26,1,1,0,0,0-.28-.26,5.51,5.51,0,0,0-1-.35,10.51,10.51,0,0,1-1.21-.4A1.43,1.43,0,0,1,75,90.4a1.21,1.21,0,0,1-.25-.71v-.08a1.63,1.63,0,0,1,.17-.73,1.4,1.4,0,0,1,.66-.63,2.76,2.76,0,0,1,1-.31l.39,0a4.56,4.56,0,0,1,.54,0,2.3,2.3,0,0,1,.9.37,2.24,2.24,0,0,1,.72,1.37l-1,.13c-.14-.47-.32-.75-.55-.82a1.87,1.87,0,0,0-.56-.09h-.11a1.09,1.09,0,0,0-.57.2.54.54,0,0,0-.26.41v.06a.43.43,0,0,0,.15.34,2.69,2.69,0,0,0,1,.33,7.07,7.07,0,0,1,1.37.47,1.36,1.36,0,0,1,.71.63,2.06,2.06,0,0,1,.14.76h0a1.46,1.46,0,0,1-.23.79,1.8,1.8,0,0,1-.76.62A3,3,0,0,1,77,93.8h-.08a3.63,3.63,0,0,1-1.1-.13,1.93,1.93,0,0,1-.75-.45A2.37,2.37,0,0,1,74.6,91.93Z" style="fill:#423c25"/><path d="M81.59,91.31A2.16,2.16,0,0,0,82,92.65a1.41,1.41,0,0,0,.91.39H83a1.37,1.37,0,0,0,.8-.22,1.7,1.7,0,0,0,.57-.95l1.17.22a3.58,3.58,0,0,1-.65,1.26,1.89,1.89,0,0,1-1.19.64,4.61,4.61,0,0,1-.72.07,4.17,4.17,0,0,1-.71-.07,2.18,2.18,0,0,1-1.19-.69,2.65,2.65,0,0,1-.67-1.24,5.17,5.17,0,0,1-.11-1c0-.12,0-.25,0-.37a3.59,3.59,0,0,1,.36-1.32,2.32,2.32,0,0,1,.78-.9,2.75,2.75,0,0,1,1-.39,3.64,3.64,0,0,1,.6-.05c.18,0,.38,0,.59,0a1.93,1.93,0,0,1,1.29.79,4.1,4.1,0,0,1,.59,2.46Zm2.71-.92a1.65,1.65,0,0,0-.38-1A1.22,1.22,0,0,0,83,89a1.35,1.35,0,0,0-1,.4,1.43,1.43,0,0,0-.4,1Z" style="fill:#423c25"/><path d="M90.15,89.32a1.52,1.52,0,0,0-.79-.25h-.12a1.31,1.31,0,0,0-.68.24,2.09,2.09,0,0,0-.45.52,3.59,3.59,0,0,0-.22,1.4l-.06,2.52-1.1,0-.1-6.09,1.15-.13,0,1.33a1.85,1.85,0,0,1,1-.94,1.53,1.53,0,0,1,.54-.09,3.09,3.09,0,0,1,1.12.25Z" style="fill:#423c25"/><path d="M92.7,92.29a.68.68,0,0,1,0,1,.71.71,0,0,1-1,0,.68.68,0,0,1,0-1,.69.69,0,0,1,.49-.19A.69.69,0,0,1,92.7,92.29Z" style="fill:#423c25"/></g></g></svg>