<svg xmlns="http://www.w3.org/2000/svg" width="150" height="150" viewBox="0 0 150 150"><title>maxtech</title><g id="ae183705-2f86-4509-b946-5e1b3a00f22f" data-name="fond"><rect x="0.3" y="-0.1" width="149.39" height="149.69" style="fill:#fff"/></g><g id="ffdf4fed-c10e-4247-98ae-5a3d4770d955" data-name="shuri peinture"><path d="M158.59,20.38l-13.37-.64A2.75,2.75,0,0,0,145,18l0,0a.15.15,0,0,0,.09.06l7.38.36-6.12-4.63h0v0a2.7,2.7,0,0,0,1.5-1Z" style="fill:#fff"/><path d="M153.14-3.26,146.43,8.31a2.87,2.87,0,0,0-1.63-.63V7.56a.23.23,0,0,0,.2-.11l2.91-5.54-6.4,2.82s0,0-.05,0l-.1,0a2.57,2.57,0,0,0-.14-1.8Z" style="fill:#fff"/><path d="M152.54,18.38,145.16,18a.15.15,0,0,1-.09-.06s0,0,0-.06l1.3-4.14,0,0h0Z" style="fill:#423c25"/><path d="M147.9,1.91,145,7.45a.23.23,0,0,1-.2.11.19.19,0,0,1-.14,0l-3.17-2.6a.11.11,0,0,1,0-.14s0,0,.05,0Z" style="fill:#423c25"/><path d="M146.4,13.72v0l0,0-1.3,4.14s0,0,0,.06l0,0a1.6,1.6,0,0,0-.21-.32c-.87-1-2.6-.75-3.6-.17-.11.07-2,1.21-1.69,3a2.31,2.31,0,0,0,.92,1.51l-.05.08a.11.11,0,0,0-.12,0l-4,1.08a.16.16,0,0,0-.12.16l-.13,0c.28-1.27-.92-2.49-2-3-.12-.06-2.16-1-3.44.36a2.29,2.29,0,0,0-.39.54l-.07,0a.08.08,0,0,0,0-.11l-3.09-2.15a.11.11,0,0,0-.08,0v-.08l.29,0c1.32-.29,1.89-1.94,1.86-3.09,0-.13-.1-2.37-1.86-2.91a2.82,2.82,0,0,0-1.55,0l0-.09a.13.13,0,0,0,.09-.1L126.91,9a.14.14,0,0,0-.07-.18l.06-.09c1,.77,2.52.39,3.43-.22.1-.07,1.95-1.33,1.48-3.11a2.49,2.49,0,0,0-.67-1.17l.1-.1a.15.15,0,0,0,.19.09L135.16,3a.21.21,0,0,0,.13-.11l.09,0-.07.19c-.41,1.28.74,2.6,1.76,3.14.12.06,2.11,1.09,3.45-.16a2.86,2.86,0,0,0,.83-1.37l.1,0a.11.11,0,0,0,0,.14l3.17,2.6a.19.19,0,0,0,.14,0v.12a1.92,1.92,0,0,0-.41.05c-1.3.3-1.85,2-1.8,3.12,0,.13.14,2.36,1.9,2.88A3.54,3.54,0,0,0,146.4,13.72ZM137.59,15a2.31,2.31,0,1,0-3.26.3A2.29,2.29,0,0,0,137.59,15Z" style="fill:#423c25"/><path d="M141.73,22.75V36.18l-7.18-11.29A2.64,2.64,0,0,0,136,23.35v-.08l.13,0a.19.19,0,0,0,0,.1l4,6.31.23-7.53a.11.11,0,0,0,0-.08l.05-.08a2.77,2.77,0,0,0,1.29.49Z" style="fill:#fff"/><path d="M140.42,22.17l-.23,7.53-4-6.31a.19.19,0,0,1,0-.1.16.16,0,0,1,.12-.16l4-1.08a.11.11,0,0,1,.12,0A.11.11,0,0,1,140.42,22.17Z" style="fill:#423c25"/><path d="M137.29,11.72A2.31,2.31,0,1,1,134,12,2.29,2.29,0,0,1,137.29,11.72Z" style="fill:#fff"/><path d="M130.32-10l6.54,11.68a2.6,2.6,0,0,0-1.48,1.26l-.09,0a.19.19,0,0,0,0-.15l-3.32-6L131.23,4a.17.17,0,0,0,0,.07l-.1.1a2.77,2.77,0,0,0-1.76-.72Z" style="fill:#fff"/><path d="M135.27,2.74a.19.19,0,0,1,0,.15.21.21,0,0,1-.13.11l-3.73,1.17a.15.15,0,0,1-.19-.09.17.17,0,0,1,0-.07L132-3.23Z" style="fill:#423c25"/><path d="M130.41,23.53l-12,6.09,6.88-11.46a2.79,2.79,0,0,0,1.74.65v.08a.16.16,0,0,0-.14.08l-3.64,6.1,6.94-3.86,0,0,.07,0a1.51,1.51,0,0,0-.18.44A2.68,2.68,0,0,0,130.41,23.53Z" style="fill:#fff"/><path d="M130.15,21.07a.08.08,0,0,1,0,.11l0,0-6.94,3.86,3.64-6.1a.16.16,0,0,1,.14-.08.11.11,0,0,1,.08,0Z" style="fill:#423c25"/><path d="M126.84,8.77a.14.14,0,0,1,.07.18l-1.12,3.59a.13.13,0,0,1-.09.1.17.17,0,0,1-.12,0l-6.49-4,7.68.16Z" style="fill:#423c25"/><path d="M126.9,8.68l-.06.09h-.07l-7.68-.16,6.49,4a.17.17,0,0,0,.12,0l0,.09a2.53,2.53,0,0,0-1.49,1l-11.44-7,13.38-.23a2.58,2.58,0,0,0,.55,2Z" style="fill:#fff"/><path d="M144.8,7.68a2.87,2.87,0,0,1,1.63.63l6.71-11.57-11.93,6.2a2.57,2.57,0,0,1,.14,1.8,2.86,2.86,0,0,1-.83,1.37c-1.34,1.25-3.33.22-3.45.16-1-.54-2.17-1.86-1.76-3.14l.07-.19a2.6,2.6,0,0,1,1.48-1.26L130.32-10l-.94,13.46a2.77,2.77,0,0,1,1.76.72,2.49,2.49,0,0,1,.67,1.17c.47,1.78-1.38,3-1.48,3.11-.91.61-2.47,1-3.43.22l-.18-.15a2.58,2.58,0,0,1-.55-2l-13.38.23,11.44,7a2.53,2.53,0,0,1,1.49-1,2.82,2.82,0,0,1,1.55,0c1.76.54,1.86,2.78,1.86,2.91,0,1.15-.54,2.8-1.86,3.09l-.29,0a2.79,2.79,0,0,1-1.74-.65l-6.88,11.46,12-6.09a2.68,2.68,0,0,1-.35-1.88,1.51,1.51,0,0,1,.18-.44,2.29,2.29,0,0,1,.39-.54c1.28-1.33,3.32-.42,3.44-.36,1,.47,2.23,1.69,2,3v.08a2.64,2.64,0,0,1-1.46,1.54l7.18,11.29V22.5a2.77,2.77,0,0,1-1.29-.49,2.31,2.31,0,0,1-.92-1.51c-.35-1.8,1.58-2.94,1.69-3,1-.58,2.73-.85,3.6.17A1.6,1.6,0,0,1,145,18a2.75,2.75,0,0,1,.2,1.76l13.37.64L147.9,12.72a2.7,2.7,0,0,1-1.5,1,3.54,3.54,0,0,1-1.91,0c-1.76-.52-1.9-2.75-1.9-2.88-.05-1.16.5-2.82,1.8-3.12A1.92,1.92,0,0,1,144.8,7.68Z" style="fill:none;stroke:#423c25;stroke-miterlimit:10;stroke-width:0.5992138385772705px"/><path d="M130.17,21.18l0,0-6.94,3.86,3.64-6.1a.16.16,0,0,1,.14-.08.11.11,0,0,1,.08,0l3.09,2.15A.08.08,0,0,1,130.17,21.18Z" style="fill:none;stroke:#423c25;stroke-miterlimit:10;stroke-width:0.5992138385772705px"/><path d="M136.15,23.29a.19.19,0,0,0,0,.1l4,6.31.23-7.53a.11.11,0,0,0,0-.08.11.11,0,0,0-.12,0l-4,1.08A.16.16,0,0,0,136.15,23.29Z" style="fill:none;stroke:#423c25;stroke-miterlimit:10;stroke-width:0.5992138385772705px"/><path d="M146.4,13.74h0l6.12,4.63L145.16,18a.15.15,0,0,1-.09-.06s0,0,0-.06l1.3-4.14Z" style="fill:none;stroke:#423c25;stroke-miterlimit:10;stroke-width:0.5992138385772705px"/><path d="M141.45,4.77s0,0,.05,0l6.4-2.82L145,7.45a.23.23,0,0,1-.2.11.19.19,0,0,1-.14,0l-3.17-2.6A.11.11,0,0,1,141.45,4.77Z" style="fill:none;stroke:#423c25;stroke-miterlimit:10;stroke-width:0.5992138385772705px"/><path d="M135.29,2.89a.19.19,0,0,0,0-.15l-3.32-6L131.23,4a.17.17,0,0,0,0,.07.15.15,0,0,0,.19.09L135.16,3A.21.21,0,0,0,135.29,2.89Z" style="fill:none;stroke:#423c25;stroke-miterlimit:10;stroke-width:0.5992138385772705px"/><path d="M125.7,12.64a.17.17,0,0,1-.12,0l-6.49-4,7.68.16h.07a.14.14,0,0,1,.07.18l-1.12,3.59A.13.13,0,0,1,125.7,12.64Z" style="fill:none;stroke:#423c25;stroke-miterlimit:10;stroke-width:0.5992138385772705px"/><path d="M137.29,11.72A2.31,2.31,0,1,1,134,12,2.29,2.29,0,0,1,137.29,11.72Z" style="fill:none;stroke:#423c25;stroke-miterlimit:10;stroke-width:0.5992138385772705px"/><path d="M158.59,20.38l-13.37-.64A2.75,2.75,0,0,0,145,18l0,0a.15.15,0,0,0,.09.06l7.38.36-6.12-4.63h0v0a2.7,2.7,0,0,0,1.5-1Z" style="fill:#fff"/><path d="M153.14-3.26,146.43,8.31a2.87,2.87,0,0,0-1.63-.63V7.56a.23.23,0,0,0,.2-.11l2.91-5.54-6.4,2.82s0,0-.05,0l-.1,0a2.57,2.57,0,0,0-.14-1.8Z" style="fill:#fff"/><path d="M152.54,18.38,145.16,18a.15.15,0,0,1-.09-.06s0,0,0-.06l1.3-4.14,0,0h0Z" style="fill:#423c25"/><path d="M147.9,1.91,145,7.45a.23.23,0,0,1-.2.11.19.19,0,0,1-.14,0l-3.17-2.6a.11.11,0,0,1,0-.14s0,0,.05,0Z" style="fill:#423c25"/><path d="M146.4,13.72v0l0,0-1.3,4.14s0,0,0,.06l0,0a1.6,1.6,0,0,0-.21-.32c-.87-1-2.6-.75-3.6-.17-.11.07-2,1.21-1.69,3a2.31,2.31,0,0,0,.92,1.51l-.05.08a.11.11,0,0,0-.12,0l-4,1.08a.16.16,0,0,0-.12.16l-.13,0c.28-1.27-.92-2.49-2-3-.12-.06-2.16-1-3.44.36a2.29,2.29,0,0,0-.39.54l-.07,0a.08.08,0,0,0,0-.11l-3.09-2.15a.11.11,0,0,0-.08,0v-.08l.29,0c1.32-.29,1.89-1.94,1.86-3.09,0-.13-.1-2.37-1.86-2.91a2.82,2.82,0,0,0-1.55,0l0-.09a.13.13,0,0,0,.09-.1L126.91,9a.14.14,0,0,0-.07-.18l.06-.09c1,.77,2.52.39,3.43-.22.1-.07,1.95-1.33,1.48-3.11a2.49,2.49,0,0,0-.67-1.17l.1-.1a.15.15,0,0,0,.19.09L135.16,3a.21.21,0,0,0,.13-.11l.09,0-.07.19c-.41,1.28.74,2.6,1.76,3.14.12.06,2.11,1.09,3.45-.16a2.86,2.86,0,0,0,.83-1.37l.1,0a.11.11,0,0,0,0,.14l3.17,2.6a.19.19,0,0,0,.14,0v.12a1.92,1.92,0,0,0-.41.05c-1.3.3-1.85,2-1.8,3.12,0,.13.14,2.36,1.9,2.88A3.54,3.54,0,0,0,146.4,13.72ZM137.59,15a2.31,2.31,0,1,0-3.26.3A2.29,2.29,0,0,0,137.59,15Z" style="fill:#423c25"/><path d="M141.73,22.75V36.18l-7.18-11.29A2.64,2.64,0,0,0,136,23.35v-.08l.13,0a.19.19,0,0,0,0,.1l4,6.31.23-7.53a.11.11,0,0,0,0-.08l.05-.08a2.77,2.77,0,0,0,1.29.49Z" style="fill:#fff"/><path d="M140.42,22.17l-.23,7.53-4-6.31a.19.19,0,0,1,0-.1.16.16,0,0,1,.12-.16l4-1.08a.11.11,0,0,1,.12,0A.11.11,0,0,1,140.42,22.17Z" style="fill:#423c25"/><path d="M137.29,11.72A2.31,2.31,0,1,1,134,12,2.29,2.29,0,0,1,137.29,11.72Z" style="fill:#fff"/><path d="M130.32-10l6.54,11.68a2.6,2.6,0,0,0-1.48,1.26l-.09,0a.19.19,0,0,0,0-.15l-3.32-6L131.23,4a.17.17,0,0,0,0,.07l-.1.1a2.77,2.77,0,0,0-1.76-.72Z" style="fill:#fff"/><path d="M135.27,2.74a.19.19,0,0,1,0,.15.21.21,0,0,1-.13.11l-3.73,1.17a.15.15,0,0,1-.19-.09.17.17,0,0,1,0-.07L132-3.23Z" style="fill:#423c25"/><path d="M130.41,23.53l-12,6.09,6.88-11.46a2.79,2.79,0,0,0,1.74.65v.08a.16.16,0,0,0-.14.08l-3.64,6.1,6.94-3.86,0,0,.07,0a1.51,1.51,0,0,0-.18.44A2.68,2.68,0,0,0,130.41,23.53Z" style="fill:#fff"/><path d="M130.15,21.07a.08.08,0,0,1,0,.11l0,0-6.94,3.86,3.64-6.1a.16.16,0,0,1,.14-.08.11.11,0,0,1,.08,0Z" style="fill:#423c25"/><path d="M126.84,8.77a.14.14,0,0,1,.07.18l-1.12,3.59a.13.13,0,0,1-.09.1.17.17,0,0,1-.12,0l-6.49-4,7.68.16Z" style="fill:#423c25"/><path d="M126.9,8.68l-.06.09h-.07l-7.68-.16,6.49,4a.17.17,0,0,0,.12,0l0,.09a2.53,2.53,0,0,0-1.49,1l-11.44-7,13.38-.23a2.58,2.58,0,0,0,.55,2Z" style="fill:#fff"/><path d="M144.8,7.68a2.87,2.87,0,0,1,1.63.63l6.71-11.57-11.93,6.2a2.57,2.57,0,0,1,.14,1.8,2.86,2.86,0,0,1-.83,1.37c-1.34,1.25-3.33.22-3.45.16-1-.54-2.17-1.86-1.76-3.14l.07-.19a2.6,2.6,0,0,1,1.48-1.26L130.32-10l-.94,13.46a2.77,2.77,0,0,1,1.76.72,2.49,2.49,0,0,1,.67,1.17c.47,1.78-1.38,3-1.48,3.11-.91.61-2.47,1-3.43.22l-.18-.15a2.58,2.58,0,0,1-.55-2l-13.38.23,11.44,7a2.53,2.53,0,0,1,1.49-1,2.82,2.82,0,0,1,1.55,0c1.76.54,1.86,2.78,1.86,2.91,0,1.15-.54,2.8-1.86,3.09l-.29,0a2.79,2.79,0,0,1-1.74-.65l-6.88,11.46,12-6.09a2.68,2.68,0,0,1-.35-1.88,1.51,1.51,0,0,1,.18-.44,2.29,2.29,0,0,1,.39-.54c1.28-1.33,3.32-.42,3.44-.36,1,.47,2.23,1.69,2,3v.08a2.64,2.64,0,0,1-1.46,1.54l7.18,11.29V22.5a2.77,2.77,0,0,1-1.29-.49,2.31,2.31,0,0,1-.92-1.51c-.35-1.8,1.58-2.94,1.69-3,1-.58,2.73-.85,3.6.17A1.6,1.6,0,0,1,145,18a2.75,2.75,0,0,1,.2,1.76l13.37.64L147.9,12.72a2.7,2.7,0,0,1-1.5,1,3.54,3.54,0,0,1-1.91,0c-1.76-.52-1.9-2.75-1.9-2.88-.05-1.16.5-2.82,1.8-3.12A1.92,1.92,0,0,1,144.8,7.68Z" style="fill:none;stroke:#423c25;stroke-miterlimit:10;stroke-width:0.5992138385772705px"/><path d="M130.17,21.18l0,0-6.94,3.86,3.64-6.1a.16.16,0,0,1,.14-.08.11.11,0,0,1,.08,0l3.09,2.15A.08.08,0,0,1,130.17,21.18Z" style="fill:none;stroke:#423c25;stroke-miterlimit:10;stroke-width:0.5992138385772705px"/><path d="M136.15,23.29a.19.19,0,0,0,0,.1l4,6.31.23-7.53a.11.11,0,0,0,0-.08.11.11,0,0,0-.12,0l-4,1.08A.16.16,0,0,0,136.15,23.29Z" style="fill:none;stroke:#423c25;stroke-miterlimit:10;stroke-width:0.5992138385772705px"/><path d="M146.4,13.74h0l6.12,4.63L145.16,18a.15.15,0,0,1-.09-.06s0,0,0-.06l1.3-4.14Z" style="fill:none;stroke:#423c25;stroke-miterlimit:10;stroke-width:0.5992138385772705px"/><path d="M141.45,4.77s0,0,.05,0l6.4-2.82L145,7.45a.23.23,0,0,1-.2.11.19.19,0,0,1-.14,0l-3.17-2.6A.11.11,0,0,1,141.45,4.77Z" style="fill:none;stroke:#423c25;stroke-miterlimit:10;stroke-width:0.5992138385772705px"/><path d="M135.29,2.89a.19.19,0,0,0,0-.15l-3.32-6L131.23,4a.17.17,0,0,0,0,.07.15.15,0,0,0,.19.09L135.16,3A.21.21,0,0,0,135.29,2.89Z" style="fill:none;stroke:#423c25;stroke-miterlimit:10;stroke-width:0.5992138385772705px"/><path d="M125.7,12.64a.17.17,0,0,1-.12,0l-6.49-4,7.68.16h.07a.14.14,0,0,1,.07.18l-1.12,3.59A.13.13,0,0,1,125.7,12.64Z" style="fill:none;stroke:#423c25;stroke-miterlimit:10;stroke-width:0.5992138385772705px"/><path d="M137.29,11.72A2.31,2.31,0,1,1,134,12,2.29,2.29,0,0,1,137.29,11.72Z" style="fill:none;stroke:#423c25;stroke-miterlimit:10;stroke-width:0.5992138385772705px"/><path d="M158.59,20.38l-13.37-.64A2.75,2.75,0,0,0,145,18l0,0a.15.15,0,0,0,.09.06l7.38.36-6.12-4.63h0v0a2.7,2.7,0,0,0,1.5-1Z" style="fill:#fff"/><path d="M153.14-3.26,146.43,8.31a2.87,2.87,0,0,0-1.63-.63V7.56a.23.23,0,0,0,.2-.11l2.91-5.54-6.4,2.82s0,0-.05,0l-.1,0a2.57,2.57,0,0,0-.14-1.8Z" style="fill:#fff"/><path d="M152.54,18.38,145.16,18a.15.15,0,0,1-.09-.06s0,0,0-.06l1.3-4.14,0,0h0Z" style="fill:#423c25"/><path d="M147.9,1.91,145,7.45a.23.23,0,0,1-.2.11.19.19,0,0,1-.14,0l-3.17-2.6a.11.11,0,0,1,0-.14s0,0,.05,0Z" style="fill:#423c25"/><path d="M146.4,13.72v0l0,0-1.3,4.14s0,0,0,.06l0,0a1.6,1.6,0,0,0-.21-.32c-.87-1-2.6-.75-3.6-.17-.11.07-2,1.21-1.69,3a2.31,2.31,0,0,0,.92,1.51l-.05.08a.11.11,0,0,0-.12,0l-4,1.08a.16.16,0,0,0-.12.16l-.13,0c.28-1.27-.92-2.49-2-3-.12-.06-2.16-1-3.44.36a2.29,2.29,0,0,0-.39.54l-.07,0a.08.08,0,0,0,0-.11l-3.09-2.15a.11.11,0,0,0-.08,0v-.08l.29,0c1.32-.29,1.89-1.94,1.86-3.09,0-.13-.1-2.37-1.86-2.91a2.82,2.82,0,0,0-1.55,0l0-.09a.13.13,0,0,0,.09-.1L126.91,9a.14.14,0,0,0-.07-.18l.06-.09c1,.77,2.52.39,3.43-.22.1-.07,1.95-1.33,1.48-3.11a2.49,2.49,0,0,0-.67-1.17l.1-.1a.15.15,0,0,0,.19.09L135.16,3a.21.21,0,0,0,.13-.11l.09,0-.07.19c-.41,1.28.74,2.6,1.76,3.14.12.06,2.11,1.09,3.45-.16a2.86,2.86,0,0,0,.83-1.37l.1,0a.11.11,0,0,0,0,.14l3.17,2.6a.19.19,0,0,0,.14,0v.12a1.92,1.92,0,0,0-.41.05c-1.3.3-1.85,2-1.8,3.12,0,.13.14,2.36,1.9,2.88A3.54,3.54,0,0,0,146.4,13.72ZM137.59,15a2.31,2.31,0,1,0-3.26.3A2.29,2.29,0,0,0,137.59,15Z" style="fill:#423c25"/><path d="M141.73,22.75V36.18l-7.18-11.29A2.64,2.64,0,0,0,136,23.35v-.08l.13,0a.19.19,0,0,0,0,.1l4,6.31.23-7.53a.11.11,0,0,0,0-.08l.05-.08a2.77,2.77,0,0,0,1.29.49Z" style="fill:#fff"/><path d="M140.42,22.17l-.23,7.53-4-6.31a.19.19,0,0,1,0-.1.16.16,0,0,1,.12-.16l4-1.08a.11.11,0,0,1,.12,0A.11.11,0,0,1,140.42,22.17Z" style="fill:#423c25"/><path d="M137.29,11.72A2.31,2.31,0,1,1,134,12,2.29,2.29,0,0,1,137.29,11.72Z" style="fill:#fff"/><path d="M130.32-10l6.54,11.68a2.6,2.6,0,0,0-1.48,1.26l-.09,0a.19.19,0,0,0,0-.15l-3.32-6L131.23,4a.17.17,0,0,0,0,.07l-.1.1a2.77,2.77,0,0,0-1.76-.72Z" style="fill:#fff"/><path d="M135.27,2.74a.19.19,0,0,1,0,.15.21.21,0,0,1-.13.11l-3.73,1.17a.15.15,0,0,1-.19-.09.17.17,0,0,1,0-.07L132-3.23Z" style="fill:#423c25"/><path d="M130.41,23.53l-12,6.09,6.88-11.46a2.79,2.79,0,0,0,1.74.65v.08a.16.16,0,0,0-.14.08l-3.64,6.1,6.94-3.86,0,0,.07,0a1.51,1.51,0,0,0-.18.44A2.68,2.68,0,0,0,130.41,23.53Z" style="fill:#fff"/><path d="M130.15,21.07a.08.08,0,0,1,0,.11l0,0-6.94,3.86,3.64-6.1a.16.16,0,0,1,.14-.08.11.11,0,0,1,.08,0Z" style="fill:#423c25"/><path d="M126.84,8.77a.14.14,0,0,1,.07.18l-1.12,3.59a.13.13,0,0,1-.09.1.17.17,0,0,1-.12,0l-6.49-4,7.68.16Z" style="fill:#423c25"/><path d="M126.9,8.68l-.06.09h-.07l-7.68-.16,6.49,4a.17.17,0,0,0,.12,0l0,.09a2.53,2.53,0,0,0-1.49,1l-11.44-7,13.38-.23a2.58,2.58,0,0,0,.55,2Z" style="fill:#fff"/><path d="M144.8,7.68a2.87,2.87,0,0,1,1.63.63l6.71-11.57-11.93,6.2a2.57,2.57,0,0,1,.14,1.8,2.86,2.86,0,0,1-.83,1.37c-1.34,1.25-3.33.22-3.45.16-1-.54-2.17-1.86-1.76-3.14l.07-.19a2.6,2.6,0,0,1,1.48-1.26L130.32-10l-.94,13.46a2.77,2.77,0,0,1,1.76.72,2.49,2.49,0,0,1,.67,1.17c.47,1.78-1.38,3-1.48,3.11-.91.61-2.47,1-3.43.22l-.18-.15a2.58,2.58,0,0,1-.55-2l-13.38.23,11.44,7a2.53,2.53,0,0,1,1.49-1,2.82,2.82,0,0,1,1.55,0c1.76.54,1.86,2.78,1.86,2.91,0,1.15-.54,2.8-1.86,3.09l-.29,0a2.79,2.79,0,0,1-1.74-.65l-6.88,11.46,12-6.09a2.68,2.68,0,0,1-.35-1.88,1.51,1.51,0,0,1,.18-.44,2.29,2.29,0,0,1,.39-.54c1.28-1.33,3.32-.42,3.44-.36,1,.47,2.23,1.69,2,3v.08a2.64,2.64,0,0,1-1.46,1.54l7.18,11.29V22.5a2.77,2.77,0,0,1-1.29-.49,2.31,2.31,0,0,1-.92-1.51c-.35-1.8,1.58-2.94,1.69-3,1-.58,2.73-.85,3.6.17A1.6,1.6,0,0,1,145,18a2.75,2.75,0,0,1,.2,1.76l13.37.64L147.9,12.72a2.7,2.7,0,0,1-1.5,1,3.54,3.54,0,0,1-1.91,0c-1.76-.52-1.9-2.75-1.9-2.88-.05-1.16.5-2.82,1.8-3.12A1.92,1.92,0,0,1,144.8,7.68Z" style="fill:none;stroke:#423c25;stroke-miterlimit:10;stroke-width:0.5992138385772705px"/><path d="M130.17,21.18l0,0-6.94,3.86,3.64-6.1a.16.16,0,0,1,.14-.08.11.11,0,0,1,.08,0l3.09,2.15A.08.08,0,0,1,130.17,21.18Z" style="fill:none;stroke:#423c25;stroke-miterlimit:10;stroke-width:0.5992138385772705px"/><path d="M136.15,23.29a.19.19,0,0,0,0,.1l4,6.31.23-7.53a.11.11,0,0,0,0-.08.11.11,0,0,0-.12,0l-4,1.08A.16.16,0,0,0,136.15,23.29Z" style="fill:none;stroke:#423c25;stroke-miterlimit:10;stroke-width:0.5992138385772705px"/><path d="M146.4,13.74h0l6.12,4.63L145.16,18a.15.15,0,0,1-.09-.06s0,0,0-.06l1.3-4.14Z" style="fill:none;stroke:#423c25;stroke-miterlimit:10;stroke-width:0.5992138385772705px"/><path d="M141.45,4.77s0,0,.05,0l6.4-2.82L145,7.45a.23.23,0,0,1-.2.11.19.19,0,0,1-.14,0l-3.17-2.6A.11.11,0,0,1,141.45,4.77Z" style="fill:none;stroke:#423c25;stroke-miterlimit:10;stroke-width:0.5992138385772705px"/><path d="M135.29,2.89a.19.19,0,0,0,0-.15l-3.32-6L131.23,4a.17.17,0,0,0,0,.07.15.15,0,0,0,.19.09L135.16,3A.21.21,0,0,0,135.29,2.89Z" style="fill:none;stroke:#423c25;stroke-miterlimit:10;stroke-width:0.5992138385772705px"/><path d="M125.7,12.64a.17.17,0,0,1-.12,0l-6.49-4,7.68.16h.07a.14.14,0,0,1,.07.18l-1.12,3.59A.13.13,0,0,1,125.7,12.64Z" style="fill:none;stroke:#423c25;stroke-miterlimit:10;stroke-width:0.5992138385772705px"/><path d="M137.29,11.72A2.31,2.31,0,1,1,134,12,2.29,2.29,0,0,1,137.29,11.72Z" style="fill:none;stroke:#423c25;stroke-miterlimit:10;stroke-width:0.5992138385772705px"/><path d="M158.59,20.38l-13.37-.64A2.75,2.75,0,0,0,145,18l0,0a.15.15,0,0,0,.09.06l7.38.36-6.12-4.63h0v0a2.7,2.7,0,0,0,1.5-1Z" style="fill:#fff"/><path d="M153.14-3.26,146.43,8.31a2.87,2.87,0,0,0-1.63-.63V7.56a.23.23,0,0,0,.2-.11l2.91-5.54-6.4,2.82s0,0-.05,0l-.1,0a2.57,2.57,0,0,0-.14-1.8Z" style="fill:#fff"/><path d="M152.54,18.38,145.16,18a.15.15,0,0,1-.09-.06s0,0,0-.06l1.3-4.14,0,0h0Z" style="fill:#423c25"/><path d="M147.9,1.91,145,7.45a.23.23,0,0,1-.2.11.19.19,0,0,1-.14,0l-3.17-2.6a.11.11,0,0,1,0-.14s0,0,.05,0Z" style="fill:#423c25"/><path d="M146.4,13.72v0l0,0-1.3,4.14s0,0,0,.06l0,0a1.6,1.6,0,0,0-.21-.32c-.87-1-2.6-.75-3.6-.17-.11.07-2,1.21-1.69,3a2.31,2.31,0,0,0,.92,1.51l-.05.08a.11.11,0,0,0-.12,0l-4,1.08a.16.16,0,0,0-.12.16l-.13,0c.28-1.27-.92-2.49-2-3-.12-.06-2.16-1-3.44.36a2.29,2.29,0,0,0-.39.54l-.07,0a.08.08,0,0,0,0-.11l-3.09-2.15a.11.11,0,0,0-.08,0v-.08l.29,0c1.32-.29,1.89-1.94,1.86-3.09,0-.13-.1-2.37-1.86-2.91a2.82,2.82,0,0,0-1.55,0l0-.09a.13.13,0,0,0,.09-.1L126.91,9a.14.14,0,0,0-.07-.18l.06-.09c1,.77,2.52.39,3.43-.22.1-.07,1.95-1.33,1.48-3.11a2.49,2.49,0,0,0-.67-1.17l.1-.1a.15.15,0,0,0,.19.09L135.16,3a.21.21,0,0,0,.13-.11l.09,0-.07.19c-.41,1.28.74,2.6,1.76,3.14.12.06,2.11,1.09,3.45-.16a2.86,2.86,0,0,0,.83-1.37l.1,0a.11.11,0,0,0,0,.14l3.17,2.6a.19.19,0,0,0,.14,0v.12a1.92,1.92,0,0,0-.41.05c-1.3.3-1.85,2-1.8,3.12,0,.13.14,2.36,1.9,2.88A3.54,3.54,0,0,0,146.4,13.72ZM137.59,15a2.31,2.31,0,1,0-3.26.3A2.29,2.29,0,0,0,137.59,15Z" style="fill:#423c25"/><path d="M141.73,22.75V36.18l-7.18-11.29A2.64,2.64,0,0,0,136,23.35v-.08l.13,0a.19.19,0,0,0,0,.1l4,6.31.23-7.53a.11.11,0,0,0,0-.08l.05-.08a2.77,2.77,0,0,0,1.29.49Z" style="fill:#fff"/><path d="M140.42,22.17l-.23,7.53-4-6.31a.19.19,0,0,1,0-.1.16.16,0,0,1,.12-.16l4-1.08a.11.11,0,0,1,.12,0A.11.11,0,0,1,140.42,22.17Z" style="fill:#423c25"/><path d="M137.29,11.72A2.31,2.31,0,1,1,134,12,2.29,2.29,0,0,1,137.29,11.72Z" style="fill:#fff"/><path d="M130.32-10l6.54,11.68a2.6,2.6,0,0,0-1.48,1.26l-.09,0a.19.19,0,0,0,0-.15l-3.32-6L131.23,4a.17.17,0,0,0,0,.07l-.1.1a2.77,2.77,0,0,0-1.76-.72Z" style="fill:#fff"/><path d="M135.27,2.74a.19.19,0,0,1,0,.15.21.21,0,0,1-.13.11l-3.73,1.17a.15.15,0,0,1-.19-.09.17.17,0,0,1,0-.07L132-3.23Z" style="fill:#423c25"/><path d="M130.41,23.53l-12,6.09,6.88-11.46a2.79,2.79,0,0,0,1.74.65v.08a.16.16,0,0,0-.14.08l-3.64,6.1,6.94-3.86,0,0,.07,0a1.51,1.51,0,0,0-.18.44A2.68,2.68,0,0,0,130.41,23.53Z" style="fill:#fff"/><path d="M130.15,21.07a.08.08,0,0,1,0,.11l0,0-6.94,3.86,3.64-6.1a.16.16,0,0,1,.14-.08.11.11,0,0,1,.08,0Z" style="fill:#423c25"/><path d="M126.84,8.77a.14.14,0,0,1,.07.18l-1.12,3.59a.13.13,0,0,1-.09.1.17.17,0,0,1-.12,0l-6.49-4,7.68.16Z" style="fill:#423c25"/><path d="M126.9,8.68l-.06.09h-.07l-7.68-.16,6.49,4a.17.17,0,0,0,.12,0l0,.09a2.53,2.53,0,0,0-1.49,1l-11.44-7,13.38-.23a2.58,2.58,0,0,0,.55,2Z" style="fill:#fff"/><path d="M144.8,7.68a2.87,2.87,0,0,1,1.63.63l6.71-11.57-11.93,6.2a2.57,2.57,0,0,1,.14,1.8,2.86,2.86,0,0,1-.83,1.37c-1.34,1.25-3.33.22-3.45.16-1-.54-2.17-1.86-1.76-3.14l.07-.19a2.6,2.6,0,0,1,1.48-1.26L130.32-10l-.94,13.46a2.77,2.77,0,0,1,1.76.72,2.49,2.49,0,0,1,.67,1.17c.47,1.78-1.38,3-1.48,3.11-.91.61-2.47,1-3.43.22l-.18-.15a2.58,2.58,0,0,1-.55-2l-13.38.23,11.44,7a2.53,2.53,0,0,1,1.49-1,2.82,2.82,0,0,1,1.55,0c1.76.54,1.86,2.78,1.86,2.91,0,1.15-.54,2.8-1.86,3.09l-.29,0a2.79,2.79,0,0,1-1.74-.65l-6.88,11.46,12-6.09a2.68,2.68,0,0,1-.35-1.88,1.51,1.51,0,0,1,.18-.44,2.29,2.29,0,0,1,.39-.54c1.28-1.33,3.32-.42,3.44-.36,1,.47,2.23,1.69,2,3v.08a2.64,2.64,0,0,1-1.46,1.54l7.18,11.29V22.5a2.77,2.77,0,0,1-1.29-.49,2.31,2.31,0,0,1-.92-1.51c-.35-1.8,1.58-2.94,1.69-3,1-.58,2.73-.85,3.6.17A1.6,1.6,0,0,1,145,18a2.75,2.75,0,0,1,.2,1.76l13.37.64L147.9,12.72a2.7,2.7,0,0,1-1.5,1,3.54,3.54,0,0,1-1.91,0c-1.76-.52-1.9-2.75-1.9-2.88-.05-1.16.5-2.82,1.8-3.12A1.92,1.92,0,0,1,144.8,7.68Z" style="fill:none;stroke:#423c25;stroke-miterlimit:10;stroke-width:0.5992138385772705px"/><path d="M130.17,21.18l0,0-6.94,3.86,3.64-6.1a.16.16,0,0,1,.14-.08.11.11,0,0,1,.08,0l3.09,2.15A.08.08,0,0,1,130.17,21.18Z" style="fill:none;stroke:#423c25;stroke-miterlimit:10;stroke-width:0.5992138385772705px"/><path d="M136.15,23.29a.19.19,0,0,0,0,.1l4,6.31.23-7.53a.11.11,0,0,0,0-.08.11.11,0,0,0-.12,0l-4,1.08A.16.16,0,0,0,136.15,23.29Z" style="fill:none;stroke:#423c25;stroke-miterlimit:10;stroke-width:0.5992138385772705px"/><path d="M146.4,13.74h0l6.12,4.63L145.16,18a.15.15,0,0,1-.09-.06s0,0,0-.06l1.3-4.14Z" style="fill:none;stroke:#423c25;stroke-miterlimit:10;stroke-width:0.5992138385772705px"/><path d="M141.45,4.77s0,0,.05,0l6.4-2.82L145,7.45a.23.23,0,0,1-.2.11.19.19,0,0,1-.14,0l-3.17-2.6A.11.11,0,0,1,141.45,4.77Z" style="fill:none;stroke:#423c25;stroke-miterlimit:10;stroke-width:0.5992138385772705px"/><path d="M135.29,2.89a.19.19,0,0,0,0-.15l-3.32-6L131.23,4a.17.17,0,0,0,0,.07.15.15,0,0,0,.19.09L135.16,3A.21.21,0,0,0,135.29,2.89Z" style="fill:none;stroke:#423c25;stroke-miterlimit:10;stroke-width:0.5992138385772705px"/><path d="M125.7,12.64a.17.17,0,0,1-.12,0l-6.49-4,7.68.16h.07a.14.14,0,0,1,.07.18l-1.12,3.59A.13.13,0,0,1,125.7,12.64Z" style="fill:none;stroke:#423c25;stroke-miterlimit:10;stroke-width:0.5992138385772705px"/><path d="M137.29,11.72A2.31,2.31,0,1,1,134,12,2.29,2.29,0,0,1,137.29,11.72Z" style="fill:none;stroke:#423c25;stroke-miterlimit:10;stroke-width:0.5992138385772705px"/><path d="M158.59,20.38l-13.37-.64A2.75,2.75,0,0,0,145,18l0,0a.15.15,0,0,0,.09.06l7.38.36-6.12-4.63h0v0a2.7,2.7,0,0,0,1.5-1Z" style="fill:#fff"/><path d="M153.14-3.26,146.43,8.31a2.87,2.87,0,0,0-1.63-.63V7.56a.23.23,0,0,0,.2-.11l2.91-5.54-6.4,2.82s0,0-.05,0l-.1,0a2.57,2.57,0,0,0-.14-1.8Z" style="fill:#fff"/><path d="M152.54,18.38,145.16,18a.15.15,0,0,1-.09-.06s0,0,0-.06l1.3-4.14,0,0h0Z" style="fill:#423c25"/><path d="M147.9,1.91,145,7.45a.23.23,0,0,1-.2.11.19.19,0,0,1-.14,0l-3.17-2.6a.11.11,0,0,1,0-.14s0,0,.05,0Z" style="fill:#423c25"/><path d="M146.4,13.72v0l0,0-1.3,4.14s0,0,0,.06l0,0a1.6,1.6,0,0,0-.21-.32c-.87-1-2.6-.75-3.6-.17-.11.07-2,1.21-1.69,3a2.31,2.31,0,0,0,.92,1.51l-.05.08a.11.11,0,0,0-.12,0l-4,1.08a.16.16,0,0,0-.12.16l-.13,0c.28-1.27-.92-2.49-2-3-.12-.06-2.16-1-3.44.36a2.29,2.29,0,0,0-.39.54l-.07,0a.08.08,0,0,0,0-.11l-3.09-2.15a.11.11,0,0,0-.08,0v-.08l.29,0c1.32-.29,1.89-1.94,1.86-3.09,0-.13-.1-2.37-1.86-2.91a2.82,2.82,0,0,0-1.55,0l0-.09a.13.13,0,0,0,.09-.1L126.91,9a.14.14,0,0,0-.07-.18l.06-.09c1,.77,2.52.39,3.43-.22.1-.07,1.95-1.33,1.48-3.11a2.49,2.49,0,0,0-.67-1.17l.1-.1a.15.15,0,0,0,.19.09L135.16,3a.21.21,0,0,0,.13-.11l.09,0-.07.19c-.41,1.28.74,2.6,1.76,3.14.12.06,2.11,1.09,3.45-.16a2.86,2.86,0,0,0,.83-1.37l.1,0a.11.11,0,0,0,0,.14l3.17,2.6a.19.19,0,0,0,.14,0v.12a1.92,1.92,0,0,0-.41.05c-1.3.3-1.85,2-1.8,3.12,0,.13.14,2.36,1.9,2.88A3.54,3.54,0,0,0,146.4,13.72ZM137.59,15a2.31,2.31,0,1,0-3.26.3A2.29,2.29,0,0,0,137.59,15Z" style="fill:#423c25"/><path d="M141.73,22.75V36.18l-7.18-11.29A2.64,2.64,0,0,0,136,23.35v-.08l.13,0a.19.19,0,0,0,0,.1l4,6.31.23-7.53a.11.11,0,0,0,0-.08l.05-.08a2.77,2.77,0,0,0,1.29.49Z" style="fill:#fff"/><path d="M140.42,22.17l-.23,7.53-4-6.31a.19.19,0,0,1,0-.1.16.16,0,0,1,.12-.16l4-1.08a.11.11,0,0,1,.12,0A.11.11,0,0,1,140.42,22.17Z" style="fill:#423c25"/><path d="M137.29,11.72A2.31,2.31,0,1,1,134,12,2.29,2.29,0,0,1,137.29,11.72Z" style="fill:#fff"/><path d="M130.32-10l6.54,11.68a2.6,2.6,0,0,0-1.48,1.26l-.09,0a.19.19,0,0,0,0-.15l-3.32-6L131.23,4a.17.17,0,0,0,0,.07l-.1.1a2.77,2.77,0,0,0-1.76-.72Z" style="fill:#fff"/><path d="M135.27,2.74a.19.19,0,0,1,0,.15.21.21,0,0,1-.13.11l-3.73,1.17a.15.15,0,0,1-.19-.09.17.17,0,0,1,0-.07L132-3.23Z" style="fill:#423c25"/><path d="M130.41,23.53l-12,6.09,6.88-11.46a2.79,2.79,0,0,0,1.74.65v.08a.16.16,0,0,0-.14.08l-3.64,6.1,6.94-3.86,0,0,.07,0a1.51,1.51,0,0,0-.18.44A2.68,2.68,0,0,0,130.41,23.53Z" style="fill:#fff"/><path d="M130.15,21.07a.08.08,0,0,1,0,.11l0,0-6.94,3.86,3.64-6.1a.16.16,0,0,1,.14-.08.11.11,0,0,1,.08,0Z" style="fill:#423c25"/><path d="M126.84,8.77a.14.14,0,0,1,.07.18l-1.12,3.59a.13.13,0,0,1-.09.1.17.17,0,0,1-.12,0l-6.49-4,7.68.16Z" style="fill:#423c25"/><path d="M126.9,8.68l-.06.09h-.07l-7.68-.16,6.49,4a.17.17,0,0,0,.12,0l0,.09a2.53,2.53,0,0,0-1.49,1l-11.44-7,13.38-.23a2.58,2.58,0,0,0,.55,2Z" style="fill:#fff"/><path d="M144.8,7.68a2.87,2.87,0,0,1,1.63.63l6.71-11.57-11.93,6.2a2.57,2.57,0,0,1,.14,1.8,2.86,2.86,0,0,1-.83,1.37c-1.34,1.25-3.33.22-3.45.16-1-.54-2.17-1.86-1.76-3.14l.07-.19a2.6,2.6,0,0,1,1.48-1.26L130.32-10l-.94,13.46a2.77,2.77,0,0,1,1.76.72,2.49,2.49,0,0,1,.67,1.17c.47,1.78-1.38,3-1.48,3.11-.91.61-2.47,1-3.43.22l-.18-.15a2.58,2.58,0,0,1-.55-2l-13.38.23,11.44,7a2.53,2.53,0,0,1,1.49-1,2.82,2.82,0,0,1,1.55,0c1.76.54,1.86,2.78,1.86,2.91,0,1.15-.54,2.8-1.86,3.09l-.29,0a2.79,2.79,0,0,1-1.74-.65l-6.88,11.46,12-6.09a2.68,2.68,0,0,1-.35-1.88,1.51,1.51,0,0,1,.18-.44,2.29,2.29,0,0,1,.39-.54c1.28-1.33,3.32-.42,3.44-.36,1,.47,2.23,1.69,2,3v.08a2.64,2.64,0,0,1-1.46,1.54l7.18,11.29V22.5a2.77,2.77,0,0,1-1.29-.49,2.31,2.31,0,0,1-.92-1.51c-.35-1.8,1.58-2.94,1.69-3,1-.58,2.73-.85,3.6.17A1.6,1.6,0,0,1,145,18a2.75,2.75,0,0,1,.2,1.76l13.37.64L147.9,12.72a2.7,2.7,0,0,1-1.5,1,3.54,3.54,0,0,1-1.91,0c-1.76-.52-1.9-2.75-1.9-2.88-.05-1.16.5-2.82,1.8-3.12A1.92,1.92,0,0,1,144.8,7.68Z" style="fill:none;stroke:#423c25;stroke-miterlimit:10;stroke-width:0.5992138385772705px"/><path d="M130.17,21.18l0,0-6.94,3.86,3.64-6.1a.16.16,0,0,1,.14-.08.11.11,0,0,1,.08,0l3.09,2.15A.08.08,0,0,1,130.17,21.18Z" style="fill:none;stroke:#423c25;stroke-miterlimit:10;stroke-width:0.5992138385772705px"/><path d="M136.15,23.29a.19.19,0,0,0,0,.1l4,6.31.23-7.53a.11.11,0,0,0,0-.08.11.11,0,0,0-.12,0l-4,1.08A.16.16,0,0,0,136.15,23.29Z" style="fill:none;stroke:#423c25;stroke-miterlimit:10;stroke-width:0.5992138385772705px"/><path d="M146.4,13.74h0l6.12,4.63L145.16,18a.15.15,0,0,1-.09-.06s0,0,0-.06l1.3-4.14Z" style="fill:none;stroke:#423c25;stroke-miterlimit:10;stroke-width:0.5992138385772705px"/><path d="M141.45,4.77s0,0,.05,0l6.4-2.82L145,7.45a.23.23,0,0,1-.2.11.19.19,0,0,1-.14,0l-3.17-2.6A.11.11,0,0,1,141.45,4.77Z" style="fill:none;stroke:#423c25;stroke-miterlimit:10;stroke-width:0.5992138385772705px"/><path d="M135.29,2.89a.19.19,0,0,0,0-.15l-3.32-6L131.23,4a.17.17,0,0,0,0,.07.15.15,0,0,0,.19.09L135.16,3A.21.21,0,0,0,135.29,2.89Z" style="fill:none;stroke:#423c25;stroke-miterlimit:10;stroke-width:0.5992138385772705px"/><path d="M125.7,12.64a.17.17,0,0,1-.12,0l-6.49-4,7.68.16h.07a.14.14,0,0,1,.07.18l-1.12,3.59A.13.13,0,0,1,125.7,12.64Z" style="fill:none;stroke:#423c25;stroke-miterlimit:10;stroke-width:0.5992138385772705px"/><path d="M137.29,11.72A2.31,2.31,0,1,1,134,12,2.29,2.29,0,0,1,137.29,11.72Z" style="fill:none;stroke:#423c25;stroke-miterlimit:10;stroke-width:0.5992138385772705px"/></g><g id="eb91a82b-11b9-4796-ac73-2427e8e2c0f5" data-name="Textes Cartes vecto"><g id="bc29e365-c26d-4fb5-bb47-cf61334e7a26" data-name="Calque 20 - copie"><path d="M14.69,25.74a5.68,5.68,0,0,1,.4-1,5,5,0,0,0,.41-1q.29-1,.45-1.95a18.62,18.62,0,0,1,.43-1.92,7.16,7.16,0,0,1,.44-1.14,6.55,6.55,0,0,0,.45-1.12l0-.07.05-.24,0,0q0-.11-.18-.15a.5.5,0,0,0-.32,0l-.36-.4v-.09l.38-.43.26-.29a.5.5,0,0,0,.12-.17s0,0,.08,0l.18,0a1.3,1.3,0,0,1,.27,0,.75.75,0,0,0-.18-.14.59.59,0,0,0-.35-.13,0,0,0,0,1,0-.07.51.51,0,0,1,.31-.34,2.91,2.91,0,0,1,.61-.2,4.17,4.17,0,0,1,.72-.09l.69,0H20c.45,0,.91,0,1.37.05s.92,0,1.37,0a1.66,1.66,0,0,0,.42,0,1.75,1.75,0,0,1,.43-.05l0,.17-.07.16a.7.7,0,0,1-.15.19,1.06,1.06,0,0,0-.14.2l-.05.16-.45.27.3.27,0,.16a.87.87,0,0,1-.36.41A3.31,3.31,0,0,1,22,17a4.09,4.09,0,0,1-.65.21,3.1,3.1,0,0,1-.53.1l-.11.07a.78.78,0,0,0-.07.18l-.09.34-.12.39c0,.12-.07.23-.1.31l0,.09a.18.18,0,0,0,0,.13.15.15,0,0,1-.08.14l-.4.2.34,0c.06,0,.07,0,0,.1a.59.59,0,0,0-.09.18l0,.09q0,.09.06.09h.09a3.75,3.75,0,0,0,.79-.09,3.59,3.59,0,0,1,.78-.09c.17,0,.28.05.32.15a.44.44,0,0,1-.23.59,3.45,3.45,0,0,1-.43.23l-.42.21c-.12.06-.19.11-.2.15s0,0,.12.07.2.05.3.09a.93.93,0,0,1,.26.15.23.23,0,0,1,0,.28.83.83,0,0,1-.38.48,1.56,1.56,0,0,1-.54.18l-.6.09a1.9,1.9,0,0,0-.57.18,1.21,1.21,0,0,0-.14.26l-.2.5-.18.51a3.23,3.23,0,0,0-.11.31v0a1.78,1.78,0,0,1,0,.28c0,.11,0,.22-.05.33s0,.24-.06.39h1.54q.22,0,.18.18a.89.89,0,0,0-.06.31s0,.08.09.11l.18.11a.5.5,0,0,1,.15.17.53.53,0,0,1,0,.31.49.49,0,0,1-.26.25,4.72,4.72,0,0,1-.45.16l-.45.15a.33.33,0,0,0-.24.22q.13.22.12.24l0,.07a.34.34,0,0,1-.24.27,3.58,3.58,0,0,1-.45.05l-.83.1a4.41,4.41,0,0,1-.7.06,1.89,1.89,0,0,1-.39-.05l-.63-.16-.3.16a.63.63,0,0,1-.31,0,1.33,1.33,0,0,0-.32,0H15a1,1,0,0,1-.49-.81A3.23,3.23,0,0,1,14.69,25.74Z" style="fill:#423c25"/><path d="M28.12,27.86,28,27.64a.71.71,0,0,0-.21-.18s0,0,0,0l-.15,0-.16,0h-.1a2.31,2.31,0,0,1-.1-.21.28.28,0,0,0-.11-.05h-.14a.89.89,0,0,0-.43.09,1.51,1.51,0,0,0-.38.34H26s0,0-.08,0h-.13s-.07,0-.07-.1a9,9,0,0,1,.33-1.54c.17-.52.31-1,.44-1.47l.54-1.92.11-.18a.73.73,0,0,1,.16-.21,1.41,1.41,0,0,1-.74.29c-.27,0-.53.06-.77.1a20.61,20.61,0,0,1-.53,2.19l-.63,2.19-.09.34a.29.29,0,0,0-.14.08.57.57,0,0,0-.11.1h-.11l-.34-.18h-.11a1.17,1.17,0,0,0-.07.15.41.41,0,0,1-.14.19l-.19,0a.39.39,0,0,1-.23-.07s0,0,0-.06a.08.08,0,0,0,0-.1c0-.16,0-.24,0-.25h0s-.09,0-.14.11l-.17.26a1.2,1.2,0,0,1-.24.26.56.56,0,0,1-.36.12s0,0-.14-.08l-.31-.13-.33-.12-.17-.08a2.54,2.54,0,0,1,.1-.25l.13-.36.25-.86a1.75,1.75,0,0,0,.07-.36,1.44,1.44,0,0,1,0-.23c0-.05,0-.13.05-.25s.05-.23.07-.35.05-.24.07-.34a.6.6,0,0,1,0-.19.83.83,0,0,1,0-.12,1.55,1.55,0,0,0,0-.22,1.85,1.85,0,0,1,0-.24.84.84,0,0,1,0-.12l0-.07a1.56,1.56,0,0,1,.09-.17,2.29,2.29,0,0,1,.17-.27l.17-.29a.76.76,0,0,1,.09-.17l0-.14c.17-.58.33-1.14.48-1.69s.29-1.1.44-1.65.29-1.11.44-1.67.33-1.17.51-1.79l.19-.73a2.22,2.22,0,0,1,.92-.38l.15.21c.08.11.15.17.21.17s0,0,.05,0l.13,0,.16,0h.09s.07.09.1.23l.11,0h.14a.85.85,0,0,0,.44-.09,2.06,2.06,0,0,0,.39-.34h.16c.12,0,.19,0,.22.09a8.28,8.28,0,0,1-.35,1.54c-.16.52-.31,1-.44,1.47l-.54,1.92s0,0,0,.09a.07.07,0,0,1,0,0,5.16,5.16,0,0,0,.66-.08,5.23,5.23,0,0,1,.65-.08,13.09,13.09,0,0,1,.53-2.18c.23-.7.45-1.42.65-2.16l.11-.36a.34.34,0,0,0,.14-.08l.11-.08h.11l.34.16h.11l.19-.15.25-.17a.84.84,0,0,1,.18.07s0,0,0,.06,0,.08,0,.1v.13q0,.11,0,.12h0c.05,0,.09,0,.14-.11l.17-.25a1.42,1.42,0,0,1,.24-.25.56.56,0,0,1,.36-.12l.46.2.32.13.19.08a2.15,2.15,0,0,1-.11.24,2.38,2.38,0,0,0-.12.35L32,16.4a1.75,1.75,0,0,0-.07.36.76.76,0,0,1,0,.25s0,.11-.05.23l-.09.35c0,.12-.05.23-.07.34a.7.7,0,0,1,0,.19.85.85,0,0,1,0,.13,1.69,1.69,0,0,0,0,.23v.34l0,.09a.69.69,0,0,1-.15.2.92.92,0,0,0-.17.25l0,.14c-.36,1.25-.69,2.45-1,3.62s-.66,2.37-1.07,3.63l-.21.71A1.86,1.86,0,0,1,28.12,27.86Z" style="fill:#423c25"/><path d="M36.92,26.71l-.63.52a.33.33,0,0,0-.19.06.94.94,0,0,0-.18.12l-.18.13a.46.46,0,0,1-.2.05.19.19,0,0,1-.2-.2.88.88,0,0,1,0-.3l0-.07.32-.79,0-.09v-.07l.25-1.6,1.9-6.22a5.7,5.7,0,0,1-.3-1.12,3,3,0,0,1,.05-1.23l.19-.18.37-.3a2.7,2.7,0,0,1,.38-.27c.13-.07.2-.1.23-.07l.55.68a.24.24,0,0,0,.22-.17,2.29,2.29,0,0,0,.12-.37c.05-.13.11-.25.17-.37a.3.3,0,0,1,.28-.17h.11l.27,0,.29,0a16.36,16.36,0,0,1,.83,1.68c.24.57.46,1.15.65,1.74l-.14.39.32-.39s0-.08.08-.21.12-.26.19-.42l.21-.47a2.65,2.65,0,0,0,.13-.41s.07-.08.11-.21a.41.41,0,0,1,.2-.27l.64-.25-.39-.29c-.1,0-.14-.12-.14-.26a1.51,1.51,0,0,1,.07-.38l0-.16a.64.64,0,0,1,.14-.1.78.78,0,0,1,.2-.11.51.51,0,0,1,.2,0,.1.1,0,0,1,.09.12c0,.12,0,.19,0,.22l.1.08a2.56,2.56,0,0,0,.56.06l.84,0a3.82,3.82,0,0,1,.76.14c.21.06.3.16.26.27a.12.12,0,0,1,0,.09.21.21,0,0,0,0,.09c0,.13-.13.36-.26.67l-.39,1c-.14.35-.27.69-.39,1s-.22.53-.26.65l-.36,1.83-1.87,6.51a.57.57,0,0,1-.21.14,1.26,1.26,0,0,1-.29.11l-.27.05a.29.29,0,0,1-.23-.13,1.35,1.35,0,0,1-.19-.31l-.15-.33a1.31,1.31,0,0,0-.11-.2l-.47.34-.1.4a.31.31,0,0,1-.13.06l-.18,0a.68.68,0,0,1-.59-.3.94.94,0,0,1-.2-.6l.25-2.9-.16-1.37h0c-.16.54-.32,1.08-.49,1.63s-.35,1.08-.51,1.62L39,26c-.06.17-.12.32-.17.47s-.13.35-.23.59l-.08,0-.06,0h-.09L38.28,27a.2.2,0,0,0-.18.11c0,.08-.09.16-.13.25a1.48,1.48,0,0,1-.14.25.26.26,0,0,1-.21.12s0,0,0,0-.06-.19-.09-.27a.46.46,0,0,0-.18-.21.37.37,0,0,0-.21.17,1.57,1.57,0,0,0-.1.26.74.74,0,0,1-.1.26c0,.08-.12.12-.26.12s-.15-.07-.14-.19a1.22,1.22,0,0,1,.12-.42,4.68,4.68,0,0,1,.2-.45A1,1,0,0,0,36.92,26.71Z" style="fill:#423c25"/><path d="M45.94,19.81a1.66,1.66,0,0,1,.16-.37l.23-.38c.09-.14.16-.26.23-.39a.83.83,0,0,0,.09-.35l.18-.26c.08-.12.18-.26.29-.4l.31-.41a3,3,0,0,1,.19-.26l.37-.44c.1-.12.21-.23.31-.33l.34-.28.45-.38a1.12,1.12,0,0,0,.18-.24.74.74,0,0,1,.23-.24,3.56,3.56,0,0,1,.89-.4,9.09,9.09,0,0,1,1.17-.29c.4-.08.79-.14,1.16-.19a7.13,7.13,0,0,1,.89-.07c.23,0,.32.09.27.28a.36.36,0,0,1-.12.18,1.41,1.41,0,0,1-.18.14l-.18.12a.27.27,0,0,0-.09.15.12.12,0,0,0,.07.17l.24.08.27.05c.09,0,.14,0,.15.1l.31.64.09.26,0,.18a1.09,1.09,0,0,0,.05.17.88.88,0,0,0,.13.26,1.76,1.76,0,0,0,.19.3,1.51,1.51,0,0,1,.12.2.49.49,0,0,1,0,.23,2.16,2.16,0,0,1-.07.39,5.13,5.13,0,0,1-.25.72,5.05,5.05,0,0,0-.27.74v0a1.67,1.67,0,0,0-.07.44c0,.23-.06.49-.09.75s-.06.52-.08.76-.06.37-.07.42l0,.07a.25.25,0,0,0,0,.1.65.65,0,0,1,0,.15l0,.07v.09a.58.58,0,0,0-.05.11l0,.11,0,.09a.53.53,0,0,1-.29.14.23.23,0,0,0-.21.16.13.13,0,0,0,0,.15l.09.1a1.14,1.14,0,0,1,.11.11.18.18,0,0,1,.06.14,1.4,1.4,0,0,0-.07.37,2.43,2.43,0,0,1-.06.42,2.26,2.26,0,0,1-.56.86,10.06,10.06,0,0,1-1,1c-.36.32-.73.62-1.1.9s-.67.51-.88.69a.13.13,0,0,0,0,.07c0,.07,0,.13,0,.16a.15.15,0,0,1,0,.16c0,.11-.19.18-.47.21a7,7,0,0,1-.78,0h-.36a4.28,4.28,0,0,1-.59-.06,5.88,5.88,0,0,1-.81-.18,5.29,5.29,0,0,1-.74-.26.65.65,0,0,1-.39-.3,1.4,1.4,0,0,0-.16-.29l-.21-.29a2.75,2.75,0,0,1-.17-.29.44.44,0,0,1,0-.32l0-.12.07-.25.06-.22,0-.12a.28.28,0,0,0-.1-.2.23.23,0,0,1-.08-.21.64.64,0,0,1-.05-.22c0-.11,0-.22,0-.34s0-.23,0-.32a.82.82,0,0,1,0-.2,9.33,9.33,0,0,1,.1-.94,8.56,8.56,0,0,1,.23-.94c.09-.33.19-.64.28-.93a6.79,6.79,0,0,0,.2-.94s0-.07,0-.16-.06-.13-.05-.14V20A.29.29,0,0,1,45.94,19.81ZM48,23.86a.65.65,0,0,0,0,.31c0,.14.1.29.16.44a4.1,4.1,0,0,0,.21.42q.1.18.18.18a.49.49,0,0,0,.31-.17.88.88,0,0,1,.26-.21l.16-.16.27-.27.29-.28a1.48,1.48,0,0,1,.2-.17l0-.12c.09-.29.16-.57.22-.84s.11-.53.17-.8.11-.52.19-.79.15-.55.25-.84c0-.09,0-.21,0-.35s0-.27.07-.41a3.91,3.91,0,0,1,.07-.39,2.28,2.28,0,0,1,.07-.3,2.57,2.57,0,0,1,.13-.27,1.75,1.75,0,0,0,.14-.27v0a.19.19,0,0,1,0-.09l0-.07,0-.08a.41.41,0,0,0,0-.4,1.29,1.29,0,0,0-.3-.22l-.31-.14c-.09,0-.1-.1,0-.17h-.2a.11.11,0,0,0-.1.05,1,1,0,0,0-.06.2l-1,1.4-.05.16a1.18,1.18,0,0,0,0,.49,1,1,0,0,1,0,.52A13.93,13.93,0,0,1,48.7,22,13.2,13.2,0,0,0,48,23.86Z" style="fill:#423c25"/><path d="M55.55,26.71l-.63.52a.36.36,0,0,0-.2.06.94.94,0,0,0-.18.12l-.18.13a.41.41,0,0,1-.19.05.19.19,0,0,1-.2-.2.68.68,0,0,1,0-.3L54,27l.33-.79,0-.09,0-.07.25-1.6,1.9-6.22a5.7,5.7,0,0,1-.3-1.12,2.7,2.7,0,0,1,0-1.23,1.11,1.11,0,0,1,.19-.18l.36-.3a3.48,3.48,0,0,1,.39-.27c.13-.07.2-.1.22-.07l.56.68a.24.24,0,0,0,.22-.17c0-.12.09-.24.12-.37s.1-.25.16-.37a.31.31,0,0,1,.29-.17h.11l.27,0,.28,0q.47.82.84,1.68c.24.57.46,1.15.65,1.74l-.14.39.32-.39s0-.08.08-.21l.19-.42c.07-.15.14-.31.2-.47a2,2,0,0,0,.14-.41s.07-.08.11-.21a.4.4,0,0,1,.19-.27l.65-.25-.39-.29c-.1,0-.15-.12-.14-.26a2.16,2.16,0,0,1,.06-.38l.06-.16a.53.53,0,0,1,.13-.1,1.06,1.06,0,0,1,.21-.11.5.5,0,0,1,.19,0,.1.1,0,0,1,.09.12c0,.12,0,.19,0,.22L63,15a2.56,2.56,0,0,0,.56.06l.84,0a3.59,3.59,0,0,1,.75.14c.22.06.31.16.27.27a.18.18,0,0,1,0,.09.21.21,0,0,0,0,.09c-.05.13-.13.36-.26.67s-.26.64-.39,1l-.4,1c-.12.31-.21.53-.26.65l-.36,1.83-1.86,6.51a.67.67,0,0,1-.22.14,1.15,1.15,0,0,1-.28.11l-.27.05a.31.31,0,0,1-.24-.13,1.33,1.33,0,0,1-.18-.31c-.06-.11-.11-.22-.16-.33a.87.87,0,0,0-.1-.2l-.47.34-.11.4s-.05,0-.12.06l-.18,0a.68.68,0,0,1-.59-.3.89.89,0,0,1-.2-.6l.25-2.9-.16-1.37h-.05c-.16.54-.32,1.08-.5,1.63l-.51,1.62-.09.36c-.06.17-.11.32-.17.47s-.13.35-.22.59l-.08,0-.07,0H57L56.91,27a.2.2,0,0,0-.18.11,2,2,0,0,0-.13.25,1.5,1.5,0,0,1-.15.25.23.23,0,0,1-.2.12s0,0-.06,0a1.22,1.22,0,0,0-.09-.27.37.37,0,0,0-.18-.21.38.38,0,0,0-.2.17.74.74,0,0,0-.1.26,1.57,1.57,0,0,1-.1.26.27.27,0,0,1-.26.12c-.11,0-.16-.07-.14-.19a1.45,1.45,0,0,1,.11-.42q.1-.24.21-.45A1,1,0,0,0,55.55,26.71Z" style="fill:#423c25"/><path d="M70.77,26.37l-.54,1.15a.53.53,0,0,1-.47.28,9,9,0,0,1-.91,0l-.45-.21a1.21,1.21,0,0,1-.57-.42.84.84,0,0,1-.15-.53,1.45,1.45,0,0,1,.2-.61,3.39,3.39,0,0,1,.48-.65.87.87,0,0,1,.34-.23,1.7,1.7,0,0,1,.38-.12L70,25l.3.09a.05.05,0,0,1,0,.07s0,0,.17.08a.94.94,0,0,1,.22.1.64.64,0,0,1,.14.33A.65.65,0,0,0,71,26l-1.14.34a.15.15,0,0,0,.15.08h.29a.43.43,0,0,0,.22-.06.3.3,0,0,1,.23,0S70.73,26.37,70.77,26.37Zm1-3.19-.38.68a.36.36,0,0,1-.26.11.87.87,0,0,0-.31,0,.64.64,0,0,0-.16-.1l-.18-.08s-.05,0-.17,0a.67.67,0,0,1-.21,0,.52.52,0,0,1-.11-.2s0,0-.1.05a.25.25,0,0,1-.15.07h-.36c-.08,0-.18.08-.29.22h-.25a.12.12,0,0,1-.09-.08c0-.22.06-.4.09-.56s.08-.3.13-.45l.15-.44c.06-.15.11-.32.17-.53l.09-.32.27-1,.11-.36a2.3,2.3,0,0,0,.23-.5q.09-.3.18-.54a2,2,0,0,0,.1-.69,3.66,3.66,0,0,0-.07-.42,2.38,2.38,0,0,1-.06-.37,1.16,1.16,0,0,1,.16-.51l.09-.31a.37.37,0,0,0,.1-.07l.09-.07h.09l.31.14H71l.18-.13.21-.15h.18a.6.6,0,0,1,.22.06s0,0,0,.05a.13.13,0,0,0,0,.09v.11a.23.23,0,0,0,0,.11h0a.19.19,0,0,0,.14-.1l.15-.23a1.45,1.45,0,0,1,.21-.22.43.43,0,0,1,.31-.1l.39.17.28.12c.09,0,.14.06.14.07a1.17,1.17,0,0,0-.08.21c0,.09-.07.19-.1.31l-.11.38-.11.37c0,.12,0,.23-.06.32a1.24,1.24,0,0,1-.06.2s0,.1-.05.2,0,.2,0,.3,0,.21-.06.3,0,.15,0,.17a.8.8,0,0,0,0,.11c0,.06,0,.12,0,.19a1.48,1.48,0,0,0,0,.2v.11l0,.07a.53.53,0,0,0,0,.13.53.53,0,0,1,0,.16l0,.12c-.1.36-.18.63-.24.79s-.09.29-.12.37a.47.47,0,0,1-.08.15.49.49,0,0,0-.09.15c0,.08-.09.21-.16.38Z" style="fill:#423c25"/><path d="M27.55,47.35l1.17,0v7.84l-1.12,0Z" style="fill:#423c25"/><path d="M29.77,47.35l1.17,0v7.84l-1.12,0Z" style="fill:#423c25"/><path d="M35.25,49l0,1.33a1.77,1.77,0,0,1,1-.92,2.21,2.21,0,0,1,.75-.14,2,2,0,0,1,.42,0,1.61,1.61,0,0,1,1,.61,2.63,2.63,0,0,1,.5,1.13A12,12,0,0,1,39,52.86c0,.72,0,1.64,0,2.76l-1.11,0c0-.95,0-1.75,0-2.37a15.34,15.34,0,0,0,0-1.81,1.11,1.11,0,0,0-.37-.7,1,1,0,0,0-.7-.24h0a.92.92,0,0,0-.65.22,2.18,2.18,0,0,0-.45.57,3.8,3.8,0,0,0-.22,1.42L35.3,55.2l-1.11,0-.09-6.1Z" style="fill:#423c25"/><path d="M40.35,49.91,40,49.68a2.23,2.23,0,0,0,.63-.86.49.49,0,0,1-.51-.26.82.82,0,0,1-.1-.4.34.34,0,0,1,0-.1.65.65,0,0,1,.18-.39.74.74,0,0,1,.37-.17h.1a.75.75,0,0,1,.34.09.82.82,0,0,1,.32.32.81.81,0,0,1,.06.33,1.62,1.62,0,0,1,0,.21,1.56,1.56,0,0,1-.23.6A5.92,5.92,0,0,1,40.35,49.91Z" style="fill:#423c25"/><path d="M42.46,49.08l1.23-.25,1.5,4.29,1.56-4,1.06.34L44.66,57.3l-1-.52.87-2.35Z" style="fill:#423c25"/><path d="M51.66,50.19a2.24,2.24,0,0,1,1.15-.61,3,3,0,0,1,.68-.07,3.79,3.79,0,0,1,.86.1,1.41,1.41,0,0,1,1.08,1.12,8,8,0,0,1,.16,1.79c0,.4,0,.85-.05,1.35v0c0,.29.12.43.34.43a1.05,1.05,0,0,0,.41-.1l.09,1a3,3,0,0,1-.74.1,1,1,0,0,1-1-.56,2.68,2.68,0,0,1-.94.59,3.19,3.19,0,0,1-.89.13h0a2.13,2.13,0,0,1-.84-.16,1.62,1.62,0,0,1-.65-.49,1.46,1.46,0,0,1-.28-.76c0-.06,0-.11,0-.17a2.24,2.24,0,0,1,.15-.78,1.69,1.69,0,0,1,.91-.87,8.17,8.17,0,0,1,2.5-.52,1.4,1.4,0,0,0-.19-.91,1.12,1.12,0,0,0-.74-.25H53.4a1.45,1.45,0,0,0-.7.15,1,1,0,0,0-.4.82l-1.12-.15A1.87,1.87,0,0,1,51.66,50.19Zm2.88,2.48a4.88,4.88,0,0,0-1.91.4.89.89,0,0,0-.46.72v.05a.67.67,0,0,0,.26.58,1.08,1.08,0,0,0,.59.16h.17a1.85,1.85,0,0,0,.75-.21c.19-.12.39-.25.6-.41Z" style="fill:#423c25"/><path d="M60.65,49l0,1a1.74,1.74,0,0,1,.73-.69A2.39,2.39,0,0,1,62.51,49a2.13,2.13,0,0,1,1.19.39,2,2,0,0,1,.83,1.08,4.62,4.62,0,0,1,.26,1.42V52a5.12,5.12,0,0,1-.24,1.48,2.25,2.25,0,0,1-.83,1.26A1.88,1.88,0,0,1,62.6,55a2.89,2.89,0,0,1-.5,0,1.7,1.7,0,0,1-1.42-1.06l0,2.88H59.54V49Zm2.93,3a2.49,2.49,0,0,0-.36-1.34,1.19,1.19,0,0,0-1-.62,1.29,1.29,0,0,0-1.1.56,2.2,2.2,0,0,0-.37,1.33v.07c0,1.31.48,2,1.37,2a1.25,1.25,0,0,0,1.1-.61A2.32,2.32,0,0,0,63.58,52Z" style="fill:#423c25"/><path d="M65.84,47.35l1.17,0v7.84l-1.12,0Z" style="fill:#423c25"/><path d="M71.79,55.61l-.07-1.33a1.72,1.72,0,0,1-.94.92,2.31,2.31,0,0,1-.76.14,1.51,1.51,0,0,1-.42-.05,1.59,1.59,0,0,1-1-.61,2.59,2.59,0,0,1-.5-1.12,16.24,16.24,0,0,1-.08-2.11c0-.67,0-1.48,0-2.44l1.1,0c0,.76,0,1.41,0,2a21.31,21.31,0,0,0,.06,2.23,1.13,1.13,0,0,0,.37.69,1.11,1.11,0,0,0,.71.25h0A1,1,0,0,0,71,54a2.68,2.68,0,0,0,.44-.58,3.46,3.46,0,0,0,.21-1.43l.06-2.48,1.14-.08.09,6.11Z" style="fill:#423c25"/><path d="M74,53.21,75.11,53c0,.56.27.88.65,1a3.14,3.14,0,0,0,.71.09l.28,0a.93.93,0,0,0,.59-.24.79.79,0,0,0,.19-.36s0,0,0-.06a.44.44,0,0,0-.1-.26,1.06,1.06,0,0,0-.29-.27,5.6,5.6,0,0,0-1-.34c-.56-.16-1-.3-1.21-.4a1.64,1.64,0,0,1-.59-.43,1.23,1.23,0,0,1-.24-.71v-.09a1.66,1.66,0,0,1,.16-.73,1.45,1.45,0,0,1,.66-.63,2.73,2.73,0,0,1,1-.3,2.55,2.55,0,0,1,.39,0,3.27,3.27,0,0,1,.54,0,2.43,2.43,0,0,1,.9.36A2.19,2.19,0,0,1,78.44,51l-1,.14c-.14-.48-.32-.75-.54-.82a1.87,1.87,0,0,0-.56-.09h-.12a1.08,1.08,0,0,0-.57.19.64.64,0,0,0-.26.42v0a.43.43,0,0,0,.16.34,2.44,2.44,0,0,0,1,.34,6.26,6.26,0,0,1,1.37.47,1.35,1.35,0,0,1,.72.63,2,2,0,0,1,.13.75v0a1.46,1.46,0,0,1-.23.79,1.74,1.74,0,0,1-.76.62,2.92,2.92,0,0,1-1.28.26h-.08a3.59,3.59,0,0,1-1.1-.13,1.75,1.75,0,0,1-.76-.45A2.42,2.42,0,0,1,74,53.21Z" style="fill:#423c25"/><path d="M86,55.26l0-.95a1.74,1.74,0,0,1-.73.69,2.38,2.38,0,0,1-1.08.24,2.14,2.14,0,0,1-1.2-.39,2,2,0,0,1-.83-1.09,4.27,4.27,0,0,1-.25-1.41.2.2,0,0,1,0-.07,5.19,5.19,0,0,1,.24-1.49,2.26,2.26,0,0,1,.83-1.25A1.88,1.88,0,0,1,84,49.22a4.75,4.75,0,0,1,.51,0,1.69,1.69,0,0,1,1.41,1.07l0-2.89h1.19v7.82ZM83,52.31a2.49,2.49,0,0,0,.36,1.34,1.17,1.17,0,0,0,1,.61,1.26,1.26,0,0,0,1.1-.56,2.17,2.17,0,0,0,.37-1.32v-.07c0-1.32-.48-2-1.38-2A1.23,1.23,0,0,0,83.4,51,2.27,2.27,0,0,0,83,52.26Z" style="fill:#423c25"/><path d="M89.38,52.58a2.11,2.11,0,0,0,.42,1.34,1.29,1.29,0,0,0,.9.39h.14a1.36,1.36,0,0,0,.79-.22,1.64,1.64,0,0,0,.57-1l1.18.23a3.47,3.47,0,0,1-.66,1.25,1.87,1.87,0,0,1-1.18.65,4.56,4.56,0,0,1-.72.06,3.38,3.38,0,0,1-.72-.07,2.16,2.16,0,0,1-1.19-.68,2.59,2.59,0,0,1-.66-1.24,4.61,4.61,0,0,1-.12-1c0-.13,0-.25,0-.38a3.24,3.24,0,0,1,.36-1.31,2.05,2.05,0,0,1,.78-.9,2.68,2.68,0,0,1,1-.39,3.42,3.42,0,0,1,.59,0l.6,0a2,2,0,0,1,1.28.8,3.93,3.93,0,0,1,.59,2.45Zm2.71-.91a1.51,1.51,0,0,0-.38-1,1.2,1.2,0,0,0-.94-.42,1.29,1.29,0,0,0-1,.4,1.42,1.42,0,0,0-.41,1Z" style="fill:#423c25"/><path d="M99.68,50.2a1.63,1.63,0,0,0-.59-.12,1.35,1.35,0,0,0-1,.5,1.9,1.9,0,0,0-.39,1,4.36,4.36,0,0,0,0,.51,3,3,0,0,0,.06.61,1.71,1.71,0,0,0,.43.87A1.24,1.24,0,0,0,99,54h.13a1.44,1.44,0,0,0,.78-.22,1.24,1.24,0,0,0,.49-1l1.11.23a2.29,2.29,0,0,1-.57,1.25,1.91,1.91,0,0,1-1.17.65,4,4,0,0,1-.68.06,3.74,3.74,0,0,1-.68-.06,2.28,2.28,0,0,1-1.07-.55,2.4,2.4,0,0,1-.62-1.14A4.19,4.19,0,0,1,96.53,52c0-.1,0-.2,0-.3a3.74,3.74,0,0,1,.35-1.35,2.13,2.13,0,0,1,.73-.89,2.53,2.53,0,0,1,.92-.39,3.27,3.27,0,0,1,.57,0l.52,0a2.09,2.09,0,0,1,1.16.53,2,2,0,0,1,.65,1.35l-1.1.18A1.25,1.25,0,0,0,99.68,50.2Z" style="fill:#423c25"/><path d="M103.24,50.19a2.25,2.25,0,0,1,1.14-.61,3.11,3.11,0,0,1,.69-.07,3.79,3.79,0,0,1,.86.1A1.39,1.39,0,0,1,107,50.73a7.41,7.41,0,0,1,.16,1.79c0,.4,0,.85,0,1.35v0c0,.29.11.43.34.43a1.05,1.05,0,0,0,.41-.1l.09,1a3,3,0,0,1-.74.1,1,1,0,0,1-1-.56,2.71,2.71,0,0,1-1,.59,3.12,3.12,0,0,1-.88.13h0a2.13,2.13,0,0,1-.84-.16,1.62,1.62,0,0,1-.65-.49,1.37,1.37,0,0,1-.28-.76,1,1,0,0,1,0-.17,2.24,2.24,0,0,1,.15-.78,1.69,1.69,0,0,1,.91-.87,8.17,8.17,0,0,1,2.5-.52,1.46,1.46,0,0,0-.19-.91,1.14,1.14,0,0,0-.74-.25H105a1.43,1.43,0,0,0-.7.15,1,1,0,0,0-.4.82l-1.12-.15A1.82,1.82,0,0,1,103.24,50.19Zm2.87,2.48a4.81,4.81,0,0,0-1.9.4.87.87,0,0,0-.46.72.43.43,0,0,1,0,.05.65.65,0,0,0,.27.58,1.07,1.07,0,0,0,.58.16h.17a1.85,1.85,0,0,0,.75-.21c.19-.12.39-.25.6-.41Z" style="fill:#423c25"/><path d="M112.53,50.59a1.63,1.63,0,0,0-.8-.24h-.12a1.35,1.35,0,0,0-.68.25,2.08,2.08,0,0,0-.44.52,3.35,3.35,0,0,0-.22,1.39L110.2,55l-1.1,0L109,49l1.14-.13,0,1.33a1.86,1.86,0,0,1,1-.94,1.43,1.43,0,0,1,.53-.1,3.37,3.37,0,0,1,1.13.25Z" style="fill:#423c25"/><path d="M113.89,48.94h.92V47.28l1.18-.16v1.77l1.52-.06v1l-1.52.05v3.5a1.06,1.06,0,0,0,.1.57.4.4,0,0,0,.34.14,4.69,4.69,0,0,0,.93-.2l.15,1a6.44,6.44,0,0,1-1.39.22,1.86,1.86,0,0,1-1-.36,1.69,1.69,0,0,1-.3-1.06V49.91h-.92Z" style="fill:#423c25"/><path d="M119.82,52.58a2.11,2.11,0,0,0,.41,1.34,1.29,1.29,0,0,0,.9.39h.14a1.34,1.34,0,0,0,.79-.22,1.7,1.7,0,0,0,.58-1l1.17.23a3.61,3.61,0,0,1-.65,1.25,1.92,1.92,0,0,1-1.19.65,4.56,4.56,0,0,1-.72.06,3.29,3.29,0,0,1-.71-.07,2.18,2.18,0,0,1-1.2-.68,2.59,2.59,0,0,1-.66-1.24,4.6,4.6,0,0,1-.11-1c0-.13,0-.25,0-.38a3.59,3.59,0,0,1,.36-1.31,2.19,2.19,0,0,1,.78-.9,2.75,2.75,0,0,1,1-.39,3.64,3.64,0,0,1,.6,0l.59,0a2,2,0,0,1,1.28.8,3.93,3.93,0,0,1,.59,2.45Zm2.71-.91a1.57,1.57,0,0,0-.39-1,1.2,1.2,0,0,0-.94-.42,1.3,1.3,0,0,0-1,.4,1.37,1.37,0,0,0-.4,1Z" style="fill:#423c25"/><path d="M24.18,59.94l5.7-.1V61l-2.13,0v6.57H26.51V61.05l-2.33.05Z" style="fill:#423c25"/><path d="M30.91,65.49a2.14,2.14,0,0,0,.41,1.34,1.34,1.34,0,0,0,.91.39h.14a1.44,1.44,0,0,0,.79-.22,1.64,1.64,0,0,0,.57-1l1.17.23a3.38,3.38,0,0,1-.65,1.25,1.87,1.87,0,0,1-1.18.65,4.56,4.56,0,0,1-.72.06,3.38,3.38,0,0,1-.72-.07,2.22,2.22,0,0,1-1.19-.68,2.62,2.62,0,0,1-.66-1.25,4.55,4.55,0,0,1-.12-1c0-.12,0-.24,0-.37A3.33,3.33,0,0,1,30,63.51a2.08,2.08,0,0,1,.78-.89,2.63,2.63,0,0,1,1-.39,3.64,3.64,0,0,1,.6,0l.6,0a1.93,1.93,0,0,1,1.28.8,4,4,0,0,1,.59,2.45Zm2.71-.92a1.53,1.53,0,0,0-.38-.95,1.2,1.2,0,0,0-.94-.42,1.29,1.29,0,0,0-1,.4,1.41,1.41,0,0,0-.41,1Z" style="fill:#423c25"/><path d="M39.1,63.11a1.58,1.58,0,0,0-.58-.12,1.39,1.39,0,0,0-.3,0,1.36,1.36,0,0,0-.72.47,1.86,1.86,0,0,0-.39,1,4.67,4.67,0,0,0,0,.52,3,3,0,0,0,.06.61,1.75,1.75,0,0,0,.43.87,1.19,1.19,0,0,0,.84.39h.12a1.42,1.42,0,0,0,.78-.22,1.24,1.24,0,0,0,.49-1l1.11.23a2.29,2.29,0,0,1-.57,1.25,1.91,1.91,0,0,1-1.17.65,4,4,0,0,1-.68.06,3.08,3.08,0,0,1-.68-.07,2.22,2.22,0,0,1-1.07-.54,2.4,2.4,0,0,1-.62-1.14A4.3,4.3,0,0,1,36,65c0-.1,0-.2,0-.3a3.68,3.68,0,0,1,.35-1.35,2.07,2.07,0,0,1,.74-.89A2.42,2.42,0,0,1,38,62a3.27,3.27,0,0,1,.57-.05l.52,0a2.08,2.08,0,0,1,1.17.53,2,2,0,0,1,.64,1.35l-1.09.17A1.25,1.25,0,0,0,39.1,63.11Z" style="fill:#423c25"/><path d="M43.16,60.24v2.9a1.71,1.71,0,0,1,1-.91,2,2,0,0,1,.75-.15,2.1,2.1,0,0,1,.43.05,1.63,1.63,0,0,1,1,.62,2.73,2.73,0,0,1,.51,1.12,12.66,12.66,0,0,1,.07,1.8c0,.71,0,1.63,0,2.75l-1.1,0c0-1,0-1.75,0-2.38a14.31,14.31,0,0,0-.06-1.81,1.1,1.1,0,0,0-.36-.7,1.07,1.07,0,0,0-.71-.24h0a.92.92,0,0,0-.66.22,2,2,0,0,0-.44.57,3.59,3.59,0,0,0-.23,1.42L43.16,68l-1.1,0L42,60.36Z" style="fill:#423c25"/><path d="M49,61.92l0,1.33a1.73,1.73,0,0,1,1-.92,2.21,2.21,0,0,1,.75-.14,2.1,2.1,0,0,1,.43.05,1.61,1.61,0,0,1,.95.61A2.77,2.77,0,0,1,52.66,64a14.42,14.42,0,0,1,.07,1.79c0,.72,0,1.64,0,2.75l-1.11,0c0-.95,0-1.75,0-2.38a15.24,15.24,0,0,0-.05-1.8,1.15,1.15,0,0,0-.36-.7,1.07,1.07,0,0,0-.71-.24h0a.92.92,0,0,0-.66.22,2.18,2.18,0,0,0-.45.57,3.76,3.76,0,0,0-.22,1.42l-.06,2.52-1.1,0L47.87,62Z" style="fill:#423c25"/><path d="M55,60.6a.66.66,0,0,1,0,.95.71.71,0,0,1-1,0,.68.68,0,0,1,.49-1.15A.66.66,0,0,1,55,60.6Zm-1.1,1.81,1.18,0-.11,5.84h-1Z" style="fill:#423c25"/><path d="M61.46,61.82v7.82H60.28l0-2.89a1.66,1.66,0,0,1-1.41,1.06,3.14,3.14,0,0,1-.51,0,1.88,1.88,0,0,1-1.12-.32,2.26,2.26,0,0,1-.83-1.25,5.18,5.18,0,0,1-.24-1.48.22.22,0,0,1,0-.08,4.27,4.27,0,0,1,.25-1.41,2,2,0,0,1,.83-1.09,2.14,2.14,0,0,1,1.2-.39,2.38,2.38,0,0,1,1.08.24,1.74,1.74,0,0,1,.73.69l0-1Zm-4,2.95v0a2.27,2.27,0,0,0,.36,1.31,1.23,1.23,0,0,0,1.09.61c.9,0,1.36-.65,1.38-2v-.06a2.18,2.18,0,0,0-.37-1.33,1.29,1.29,0,0,0-1.1-.56,1.17,1.17,0,0,0-1,.61A2.49,2.49,0,0,0,57.43,64.77Z" style="fill:#423c25"/><path d="M66.25,68.52l-.06-1.33a1.75,1.75,0,0,1-.94.92,2.31,2.31,0,0,1-.76.14,1.58,1.58,0,0,1-.43,0,1.61,1.61,0,0,1-1-.61,2.77,2.77,0,0,1-.51-1.13,16,16,0,0,1-.08-2.11q0-1,0-2.43l1.11,0c0,.76,0,1.41,0,2a20.91,20.91,0,0,0,.06,2.22,1.15,1.15,0,0,0,.36.7,1.07,1.07,0,0,0,.71.24h0a.92.92,0,0,0,.66-.22,2,2,0,0,0,.44-.57,3.62,3.62,0,0,0,.22-1.43l0-2.49,1.14-.07.09,6.11Z" style="fill:#423c25"/><path d="M69.7,65.49a2.13,2.13,0,0,0,.42,1.34,1.29,1.29,0,0,0,.9.39h.14A1.41,1.41,0,0,0,72,67a1.64,1.64,0,0,0,.57-1l1.18.23A3.55,3.55,0,0,1,73,67.53a1.87,1.87,0,0,1-1.18.65,4.56,4.56,0,0,1-.72.06,3.45,3.45,0,0,1-.72-.07,2.26,2.26,0,0,1-1.19-.68,2.62,2.62,0,0,1-.66-1.25,4.55,4.55,0,0,1-.12-1c0-.12,0-.24,0-.37a3.5,3.5,0,0,1,.36-1.32,2.08,2.08,0,0,1,.78-.89,2.68,2.68,0,0,1,1-.39,3.42,3.42,0,0,1,.59,0l.6,0a1.91,1.91,0,0,1,1.28.8,3.91,3.91,0,0,1,.59,2.45Zm2.71-.92a1.48,1.48,0,0,0-.38-.95,1.2,1.2,0,0,0-.94-.42,1.3,1.3,0,0,0-1,.4,1.41,1.41,0,0,0-.41,1Z" style="fill:#423c25"/><path d="M74.75,66.11l1.12-.21c0,.57.27.89.65,1a3.05,3.05,0,0,0,.7.09l.29,0a.9.9,0,0,0,.59-.25.81.81,0,0,0,.19-.35v-.06A.48.48,0,0,0,78.2,66a1.2,1.2,0,0,0-.29-.26,6.47,6.47,0,0,0-1-.35c-.55-.16-1-.29-1.2-.39a1.48,1.48,0,0,1-.59-.44,1.11,1.11,0,0,1-.24-.7v-.09a1.66,1.66,0,0,1,.16-.73,1.45,1.45,0,0,1,.66-.63,2.55,2.55,0,0,1,1-.3,2.75,2.75,0,0,1,.4,0,3.08,3.08,0,0,1,.53,0,2.43,2.43,0,0,1,.9.36,2.24,2.24,0,0,1,.72,1.37l-1,.14c-.14-.48-.32-.75-.55-.83A1.82,1.82,0,0,0,77,63.1h-.11a1.08,1.08,0,0,0-.57.19.6.6,0,0,0-.26.42v.05a.43.43,0,0,0,.15.34,2.71,2.71,0,0,0,1,.34,6.45,6.45,0,0,1,1.37.47,1.36,1.36,0,0,1,.71.63,1.82,1.82,0,0,1,.14.75v0a1.46,1.46,0,0,1-.23.79,1.81,1.81,0,0,1-.76.62,3.07,3.07,0,0,1-1.28.26h-.09A3.52,3.52,0,0,1,76,67.86a1.9,1.9,0,0,1-.76-.45A2.27,2.27,0,0,1,74.75,66.11Z" style="fill:#423c25"/><path d="M86.73,68.17l0-1a1.76,1.76,0,0,1-.74.69,2.35,2.35,0,0,1-1.08.24,2.19,2.19,0,0,1-1.2-.39,2.07,2.07,0,0,1-.83-1.09,4.55,4.55,0,0,1-.25-1.41v-.08a5.45,5.45,0,0,1,.23-1.48,2.33,2.33,0,0,1,.84-1.25,1.86,1.86,0,0,1,1.12-.32,3,3,0,0,1,.5,0,1.69,1.69,0,0,1,1.42,1.07l0-2.89h1.19v7.82Zm-2.93-3a2.46,2.46,0,0,0,.36,1.34,1.18,1.18,0,0,0,1,.62,1.3,1.3,0,0,0,1.1-.56,2.25,2.25,0,0,0,.37-1.33v-.07c0-1.31-.48-2-1.38-2a1.27,1.27,0,0,0-1.1.6,2.4,2.4,0,0,0-.35,1.32Z" style="fill:#423c25"/><path d="M90.14,65.49a2.14,2.14,0,0,0,.41,1.34,1.34,1.34,0,0,0,.91.39h.14a1.44,1.44,0,0,0,.79-.22,1.64,1.64,0,0,0,.57-1l1.17.23a3.38,3.38,0,0,1-.65,1.25,1.9,1.9,0,0,1-1.19.65,4.46,4.46,0,0,1-.72.06,3.35,3.35,0,0,1-.71-.07,2.22,2.22,0,0,1-1.19-.68A2.62,2.62,0,0,1,89,66.24a4.55,4.55,0,0,1-.12-1c0-.12,0-.24,0-.37a3.33,3.33,0,0,1,.36-1.32,2.08,2.08,0,0,1,.78-.89,2.63,2.63,0,0,1,1-.39,3.64,3.64,0,0,1,.6,0l.59,0a2,2,0,0,1,1.29.8,4,4,0,0,1,.59,2.45Zm2.71-.92a1.59,1.59,0,0,0-.38-.95,1.2,1.2,0,0,0-.94-.42,1.31,1.31,0,0,0-1,.4,1.4,1.4,0,0,0-.4,1Z" style="fill:#423c25"/><path d="M97.34,60h1.37l3.51,5.66h0V59.84h1.28l-.11,7.83h-1.32L98.6,61.92h0v5.23H97.29Z" style="fill:#423c25"/><path d="M105.75,60.6a.64.64,0,0,1,0,.95.68.68,0,0,1-.49.2.7.7,0,0,1-.49-.2.68.68,0,0,1,.49-1.15A.64.64,0,0,1,105.75,60.6Zm-1.09,1.81,1.17,0-.1,5.84h-1Z" style="fill:#423c25"/><path d="M108.16,61.92l0,1.33a1.73,1.73,0,0,1,1-.92,2.21,2.21,0,0,1,.75-.14,1.93,1.93,0,0,1,.42.05,1.61,1.61,0,0,1,1,.61,2.63,2.63,0,0,1,.5,1.13,12,12,0,0,1,.08,1.79c0,.72,0,1.64,0,2.75l-1.11,0c0-.95,0-1.75,0-2.38a14.22,14.22,0,0,0-.06-1.8,1.11,1.11,0,0,0-.37-.7,1,1,0,0,0-.7-.24h0a.92.92,0,0,0-.65.22,2.18,2.18,0,0,0-.45.57,3.76,3.76,0,0,0-.22,1.42l-.06,2.52-1.1,0L107,62Z" style="fill:#423c25"/><path d="M112.56,69h0a.38.38,0,0,1,.22.07,1.08,1.08,0,0,0,.78-.49,3.82,3.82,0,0,0,.2-1.52l0-4.51,1.06.07c0,.82,0,1.55,0,2.21a27.29,27.29,0,0,1-.13,3.76A1.74,1.74,0,0,1,113.22,70l-.31,0a1.93,1.93,0,0,1-.47,0Zm2.21-8.39a.66.66,0,0,1,0,.95.7.7,0,0,1-.49.2.68.68,0,0,1-.49-.2.62.62,0,0,1-.2-.48.61.61,0,0,1,.2-.47.64.64,0,0,1,.49-.2A.66.66,0,0,1,114.77,60.6Z" style="fill:#423c25"/><path d="M116.72,63.1a2.24,2.24,0,0,1,1.15-.61,3,3,0,0,1,.68-.07,3.79,3.79,0,0,1,.86.1,1.41,1.41,0,0,1,1.08,1.12,8.08,8.08,0,0,1,.15,1.79c0,.4,0,.85,0,1.35v0c0,.29.11.43.34.43a1.27,1.27,0,0,0,.41-.1l.09,1a3.08,3.08,0,0,1-.74.11,1.06,1.06,0,0,1-1-.56,2.71,2.71,0,0,1-1,.59,3.52,3.52,0,0,1-.88.13h0a2,2,0,0,1-.84-.17,1.52,1.52,0,0,1-.65-.48A1.46,1.46,0,0,1,116,67a.81.81,0,0,1,0-.16,2.34,2.34,0,0,1,.15-.79,1.71,1.71,0,0,1,.91-.86,7.88,7.88,0,0,1,2.5-.52,1.52,1.52,0,0,0-.19-.92,1.18,1.18,0,0,0-.74-.24h-.19a1.45,1.45,0,0,0-.7.15,1,1,0,0,0-.4.81l-1.12-.14A1.82,1.82,0,0,1,116.72,63.1Zm2.87,2.48a4.86,4.86,0,0,0-1.9.4.87.87,0,0,0-.46.72s0,0,0,0a.67.67,0,0,0,.27.58,1.08,1.08,0,0,0,.59.15h.16a1.59,1.59,0,0,0,.76-.21,7.17,7.17,0,0,0,.59-.41Z" style="fill:#423c25"/><path d="M122.49,66.11l1.12-.21c0,.57.27.89.65,1A3.07,3.07,0,0,0,125,67l.28,0a.9.9,0,0,0,.59-.25.81.81,0,0,0,.19-.35v-.06a.48.48,0,0,0-.09-.27,1.2,1.2,0,0,0-.29-.26,6.18,6.18,0,0,0-1-.35,12.65,12.65,0,0,1-1.21-.39,1.48,1.48,0,0,1-.59-.44,1.11,1.11,0,0,1-.24-.7v-.09a1.66,1.66,0,0,1,.16-.73,1.45,1.45,0,0,1,.66-.63,2.55,2.55,0,0,1,1-.3,2.75,2.75,0,0,1,.4,0,3.08,3.08,0,0,1,.53,0,2.37,2.37,0,0,1,.9.36,2.24,2.24,0,0,1,.72,1.37l-1,.14c-.14-.48-.32-.75-.54-.83a1.88,1.88,0,0,0-.57-.09h-.11a1.08,1.08,0,0,0-.57.19.6.6,0,0,0-.26.42v.05a.41.41,0,0,0,.16.34,2.63,2.63,0,0,0,1,.34,6.26,6.26,0,0,1,1.37.47,1.35,1.35,0,0,1,.72.63,2,2,0,0,1,.13.75v0a1.46,1.46,0,0,1-.23.79,1.81,1.81,0,0,1-.76.62,3.07,3.07,0,0,1-1.28.26h-.09a3.56,3.56,0,0,1-1.09-.13,1.9,1.9,0,0,1-.76-.45A2.35,2.35,0,0,1,122.49,66.11Z" style="fill:#423c25"/><path d="M52.87,81.07l0-.95a1.71,1.71,0,0,1-.74.69,2.32,2.32,0,0,1-1.08.24,2.19,2.19,0,0,1-1.2-.39A2.05,2.05,0,0,1,49,79.58a4.93,4.93,0,0,1-.25-1.42v-.07A5.12,5.12,0,0,1,49,76.61a2.25,2.25,0,0,1,.83-1.26A1.86,1.86,0,0,1,50.92,75a2.89,2.89,0,0,1,.5,0,1.68,1.68,0,0,1,1.42,1.06l-.05-2.88H54v7.81Zm-2.93-2.95a2.46,2.46,0,0,0,.36,1.34,1.18,1.18,0,0,0,1,.62,1.3,1.3,0,0,0,1.1-.56,2.2,2.2,0,0,0,.37-1.33v-.07c0-1.31-.48-2-1.38-2a1.28,1.28,0,0,0-1.1.61,2.4,2.4,0,0,0-.35,1.32Z" style="fill:#423c25"/><path d="M56.22,73.5a.68.68,0,0,1,0,1,.71.71,0,0,1-1,0,.68.68,0,0,1,0-1,.69.69,0,0,1,.5-.19A.69.69,0,0,1,56.22,73.5Zm-1.09,1.82,1.17-.06-.11,5.85h-1Z" style="fill:#423c25"/><path d="M57.48,79l1.11-.21c.06.56.28.89.66,1a3.05,3.05,0,0,0,.7.09l.29,0a.93.93,0,0,0,.59-.25.78.78,0,0,0,.18-.35.17.17,0,0,0,0-.07.43.43,0,0,0-.09-.26,1.2,1.2,0,0,0-.29-.26,5.51,5.51,0,0,0-1-.35,9.58,9.58,0,0,1-1.2-.4,1.39,1.39,0,0,1-.59-.43,1.14,1.14,0,0,1-.24-.71V76.7a1.66,1.66,0,0,1,.16-.73,1.45,1.45,0,0,1,.66-.63,2.76,2.76,0,0,1,1-.31l.4,0a4.55,4.55,0,0,1,.53,0,2.3,2.3,0,0,1,.9.37,2.24,2.24,0,0,1,.72,1.37l-1,.13c-.14-.47-.32-.75-.55-.82a1.82,1.82,0,0,0-.56-.09h-.11a1,1,0,0,0-.57.19.56.56,0,0,0-.26.41v.06A.43.43,0,0,0,59,77a2.84,2.84,0,0,0,1,.34,5.94,5.94,0,0,1,1.37.47,1.4,1.4,0,0,1,.71.62,2.06,2.06,0,0,1,.14.76v0a1.48,1.48,0,0,1-.23.79,1.78,1.78,0,0,1-.76.61,3.1,3.1,0,0,1-1.28.27H59.8a3.63,3.63,0,0,1-1.1-.13,1.93,1.93,0,0,1-.75-.45A2.3,2.3,0,0,1,57.48,79Z" style="fill:#423c25"/><path d="M64.32,74.78l0,1A1.76,1.76,0,0,1,65.1,75a2.38,2.38,0,0,1,1.08-.24,2.16,2.16,0,0,1,1.2.39,2.07,2.07,0,0,1,.83,1.09,4.55,4.55,0,0,1,.25,1.41v.07a5.52,5.52,0,0,1-.23,1.49,2.33,2.33,0,0,1-.84,1.25,1.86,1.86,0,0,1-1.12.32,3,3,0,0,1-.5,0,1.64,1.64,0,0,1-1.41-1.06l0,2.89H63.21V74.78Zm2.93,3a2.49,2.49,0,0,0-.36-1.34,1.17,1.17,0,0,0-1-.61,1.3,1.3,0,0,0-1.1.56,2.25,2.25,0,0,0-.37,1.33v.06c0,1.32.48,2,1.38,2a1.24,1.24,0,0,0,1.1-.61,2.27,2.27,0,0,0,.35-1.31Z" style="fill:#423c25"/><path d="M70.22,80.44a3.75,3.75,0,0,1,0-4.39,2.71,2.71,0,0,1,4,0,3.75,3.75,0,0,1,0,4.39,2.71,2.71,0,0,1-4,0Zm3.18-.75a2.79,2.79,0,0,0,0-2.81,1.43,1.43,0,0,0-2.4,0,2.79,2.79,0,0,0,0,2.81,1.43,1.43,0,0,0,2.4,0Z" style="fill:#423c25"/><path d="M77.11,74.82l0,1.33a1.75,1.75,0,0,1,1-.91,2,2,0,0,1,.75-.14,2,2,0,0,1,.43,0,1.63,1.63,0,0,1,.95.62,2.61,2.61,0,0,1,.51,1.12,12.66,12.66,0,0,1,.07,1.8c0,.72,0,1.63,0,2.75l-1.1,0c0-1,0-1.75,0-2.38a14.31,14.31,0,0,0-.06-1.81,1.13,1.13,0,0,0-.36-.7,1.19,1.19,0,0,0-.71-.24h0a1,1,0,0,0-.66.22,1.89,1.89,0,0,0-.44.58,3.49,3.49,0,0,0-.23,1.41L77.16,81l-1.1,0L76,75Z" style="fill:#423c25"/><path d="M83.06,73.5a.68.68,0,0,1,0,1,.71.71,0,0,1-1,0,.68.68,0,0,1,0-1,.69.69,0,0,1,.49-.19A.69.69,0,0,1,83.06,73.5ZM82,75.32l1.17-.06L83,81.11H82Z" style="fill:#423c25"/><path d="M84.32,81.23V73.42h1.2l-.05,2.88a1.69,1.69,0,0,1,1.42-1.07l.5,0a1.84,1.84,0,0,1,1.11.31,2.26,2.26,0,0,1,.84,1.26,5.12,5.12,0,0,1,.24,1.48v.07a5,5,0,0,1-.26,1.42,2,2,0,0,1-.83,1.08,2.13,2.13,0,0,1-1.19.39A2.39,2.39,0,0,1,86.2,81a1.76,1.76,0,0,1-.74-.69l0,1Zm4-3v0A2.29,2.29,0,0,0,88,76.92a1.24,1.24,0,0,0-1.1-.61c-.89,0-1.35.66-1.37,2v.07a2.29,2.29,0,0,0,.36,1.33,1.3,1.3,0,0,0,1.11.55,1.18,1.18,0,0,0,1-.61A2.49,2.49,0,0,0,88.36,78.28Z" style="fill:#423c25"/><path d="M90.62,73.16l1.17.06v7.83l-1.12.06Z" style="fill:#423c25"/><path d="M94.09,78.4a2.14,2.14,0,0,0,.41,1.34,1.41,1.41,0,0,0,.91.39h.13a1.39,1.39,0,0,0,.8-.22,1.63,1.63,0,0,0,.57-1l1.17.22a3.76,3.76,0,0,1-.65,1.26,1.84,1.84,0,0,1-1.19.64,3.65,3.65,0,0,1-.72.07,4.17,4.17,0,0,1-.71-.07,2.22,2.22,0,0,1-1.19-.68A2.64,2.64,0,0,1,93,79.15a5.17,5.17,0,0,1-.11-1c0-.12,0-.24,0-.37a3.59,3.59,0,0,1,.36-1.32,2.32,2.32,0,0,1,.78-.9,3.19,3.19,0,0,1,1-.39,3.7,3.7,0,0,1,.6,0l.59,0a2,2,0,0,1,1.29.79A4.1,4.1,0,0,1,98,78.37Zm2.71-.92a1.54,1.54,0,0,0-.39-1,1.19,1.19,0,0,0-.94-.42,1.33,1.33,0,0,0-1,.39,1.43,1.43,0,0,0-.4,1Z" style="fill:#423c25"/><path d="M102.42,79.81a.64.64,0,0,1,0,1,.7.7,0,0,1-1,0,.62.62,0,0,1-.2-.48.61.61,0,0,1,.2-.47.7.7,0,0,1,1,0Zm-.8-1a43.25,43.25,0,0,1-.29-5.48h1.27c0,.29,0,.57,0,.84a22.83,22.83,0,0,1-.43,4.64Z" style="fill:#423c25"/></g></g></svg>