<svg xmlns="http://www.w3.org/2000/svg" width="150" height="150" viewBox="0 0 150 150"><title>techniques</title><g id="a77b69ae-15ca-4319-8181-a939e6224859" data-name="techniques vierge"><rect x="-0.17" y="-0.01" width="149.78" height="150.08" style="fill:#fff"/><path d="M152.46,18.51l-7.4-.36a.1.1,0,0,1-.08-.06.06.06,0,0,1,0-.06l1.3-4.14v0h0Z" style="fill:#423c25"/><path d="M147.82,2,144.9,7.55a.24.24,0,0,1-.2.12.3.3,0,0,1-.15,0L141.38,5a.1.1,0,0,1,0-.14.07.07,0,0,1,.05,0Z" style="fill:#423c25"/><path d="M145.13,19.88a2.78,2.78,0,0,0-.2-1.77l0,0a.1.1,0,0,0,.08.06l7.4.36-6.13-4.64h0v0a2.72,2.72,0,0,0,1.53-1l10.71,7.68Z" style="fill:#fff"/><path d="M146.34,8.42a2.74,2.74,0,0,0-1.64-.63V7.67a.24.24,0,0,0,.2-.12L147.82,2,141.4,4.83a.07.07,0,0,0-.05,0l-.1,0a2.57,2.57,0,0,0-.14-1.8l12-6.23Z" style="fill:#fff"/><path d="M140.24,22.2a.11.11,0,0,1,.07.12l-.23,7.55-4-6.34a.15.15,0,0,1,0-.14.15.15,0,0,1,.11-.11l4-1.09Z" style="fill:#423c25"/><path d="M137.18,11.83a2.32,2.32,0,1,1-3.27.29A2.32,2.32,0,0,1,137.18,11.83Z" style="fill:#fff"/><path d="M140.31,22.32a.11.11,0,0,0-.07-.12l0-.07a2.9,2.9,0,0,0,1.34.51V36.35L134.43,25a2.63,2.63,0,0,0,1.46-1.55.51.51,0,0,0,0-.13l.13,0a.15.15,0,0,0,0,.14l4,6.34Z" style="fill:#fff"/><path d="M135.15,2.83a.16.16,0,0,1,0,.15.16.16,0,0,1-.11.12L131.3,4.27a.17.17,0,0,1-.1,0,.14.14,0,0,1-.1-.16l.73-7.26Z" style="fill:#423c25"/><path d="M131.1,4.36a2.7,2.7,0,0,0-1.85-.81l.94-13.49,6.55,11.71A2.6,2.6,0,0,0,135.27,3l-.11,0a.16.16,0,0,0,0-.15l-3.32-6L131.1,4.1a.14.14,0,0,0,.1.16Z" style="fill:#fff"/><path d="M130,21.21a.09.09,0,0,1,0,.11l0,0-7,3.87,3.65-6.12a.16.16,0,0,1,.13-.08.14.14,0,0,1,.09,0Z" style="fill:#423c25"/><path d="M126.7,19.1l-3.65,6.12,7-3.87,0,0,.07,0a1.69,1.69,0,0,0-.18.45,2.61,2.61,0,0,0,.35,1.87l-12.09,6.12,6.91-11.5a2.72,2.72,0,0,0,1.73.66V19A.16.16,0,0,0,126.7,19.1Z" style="fill:#fff"/><path d="M127.14,12.89a2.86,2.86,0,0,0-1.56-.05l0-.08a.12.12,0,0,0,.09-.1l1.13-3.61a.16.16,0,0,0,0-.15l.06-.08a3.16,3.16,0,0,0,3.4-.25c.1-.07,2-1.34,1.49-3.12a2.56,2.56,0,0,0-.59-1.09l.1-.1a.17.17,0,0,0,.1,0l3.75-1.17a.16.16,0,0,0,.11-.12l.11,0a1.08,1.08,0,0,0-.08.19c-.41,1.29.75,2.61,1.76,3.15.12.07,2.11,1.1,3.46-.16a2.88,2.88,0,0,0,.84-1.37l.1,0a.1.1,0,0,0,0,.14l3.17,2.61a.3.3,0,0,0,.15,0v.12a1.94,1.94,0,0,0-.4,0c-1.31.31-1.86,2-1.81,3.13,0,.13.14,2.37,1.9,2.89a3.5,3.5,0,0,0,1.9,0v.05L145,18a.06.06,0,0,0,0,.06l0,0a2,2,0,0,0-.22-.32c-.87-1-2.6-.75-3.61-.17-.11.06-2,1.21-1.69,3a2.31,2.31,0,0,0,.88,1.49l0,.07h-.08l-4,1.09a.15.15,0,0,0-.11.11l-.13,0c.23-1.25-.95-2.44-2-2.92-.12-.05-2.17-1-3.44.36a2,2,0,0,0-.4.55l-.07,0a.09.09,0,0,0,0-.11l-3.09-2.16a.14.14,0,0,0-.09,0V19a1.65,1.65,0,0,0,.3,0c1.32-.28,1.89-1.94,1.86-3.1C129,15.68,128.89,13.44,127.14,12.89Zm10.34,2.21a2.33,2.33,0,1,0-3.28.29A2.32,2.32,0,0,0,137.48,15.1Z" style="fill:#423c25"/><path d="M125.64,12.66a.12.12,0,0,1-.09.1.17.17,0,0,1-.12,0l-6.5-4,7.7.15a.21.21,0,0,1,.11,0,.16.16,0,0,1,0,.15Z" style="fill:#423c25"/><path d="M126.63,8.86l-7.7-.15,6.5,4a.17.17,0,0,0,.12,0l0,.08a2.61,2.61,0,0,0-1.49,1l-11.47-7L126,6.58a2.57,2.57,0,0,0,.55,2.05,1,1,0,0,0,.22.19l-.06.08A.21.21,0,0,0,126.63,8.86Z" style="fill:#fff"/><path d="M144.7,7.79a2.74,2.74,0,0,1,1.64.63l6.73-11.61L141.11,3a2.57,2.57,0,0,1,.14,1.8,2.88,2.88,0,0,1-.84,1.37c-1.35,1.26-3.34.23-3.46.16-1-.54-2.17-1.86-1.76-3.15a1.08,1.08,0,0,1,.08-.19,2.6,2.6,0,0,1,1.47-1.26L130.19-9.94l-.94,13.49a2.7,2.7,0,0,1,1.85.81,2.56,2.56,0,0,1,.59,1.09c.47,1.78-1.39,3.05-1.49,3.12a3.16,3.16,0,0,1-3.4.25,1,1,0,0,1-.22-.19A2.57,2.57,0,0,1,126,6.58l-13.41.24,11.47,7a2.61,2.61,0,0,1,1.49-1,2.86,2.86,0,0,1,1.56.05c1.75.55,1.85,2.79,1.85,2.92,0,1.16-.54,2.82-1.86,3.1a1.65,1.65,0,0,1-.3,0,2.72,2.72,0,0,1-1.73-.66l-6.91,11.5,12.09-6.12a2.61,2.61,0,0,1-.35-1.87,1.69,1.69,0,0,1,.18-.45,2,2,0,0,1,.4-.55c1.27-1.33,3.32-.41,3.44-.36,1,.48,2.19,1.67,2,2.92a.51.51,0,0,1,0,.13A2.63,2.63,0,0,1,134.43,25l7.2,11.31V22.64a2.9,2.9,0,0,1-1.34-.51,2.31,2.31,0,0,1-.88-1.49c-.35-1.81,1.58-3,1.69-3,1-.58,2.74-.85,3.61.17a2,2,0,0,1,.22.32,2.78,2.78,0,0,1,.2,1.77l13.4.64-10.71-7.68a2.72,2.72,0,0,1-1.53,1,3.5,3.5,0,0,1-1.9,0c-1.76-.52-1.89-2.76-1.9-2.89-.05-1.15.5-2.82,1.81-3.13A1.94,1.94,0,0,1,144.7,7.79Z" style="fill:none;stroke:#423c25;stroke-miterlimit:10;stroke-width:0.6007771492004395px"/><path d="M130,21.32l0,0-7,3.87,3.65-6.12a.16.16,0,0,1,.13-.08.14.14,0,0,1,.09,0L130,21.21A.09.09,0,0,1,130,21.32Z" style="fill:none;stroke:#423c25;stroke-miterlimit:10;stroke-width:0.6007771492004395px"/><path d="M136,23.39a.15.15,0,0,0,0,.14l4,6.34.23-7.55a.11.11,0,0,0-.07-.12h-.08l-4,1.09A.15.15,0,0,0,136,23.39Z" style="fill:none;stroke:#423c25;stroke-miterlimit:10;stroke-width:0.6007771492004395px"/><path d="M146.29,13.87h0l6.13,4.64-7.4-.36a.1.1,0,0,1-.08-.06.06.06,0,0,1,0-.06l1.3-4.14Z" style="fill:none;stroke:#423c25;stroke-miterlimit:10;stroke-width:0.6007771492004395px"/><path d="M141.35,4.87a.07.07,0,0,1,.05,0L147.82,2,144.9,7.55a.24.24,0,0,1-.2.12.3.3,0,0,1-.15,0L141.38,5A.1.1,0,0,1,141.35,4.87Z" style="fill:none;stroke:#423c25;stroke-miterlimit:10;stroke-width:0.6007771492004395px"/><path d="M135.16,3a.16.16,0,0,0,0-.15l-3.32-6L131.1,4.1a.14.14,0,0,0,.1.16.17.17,0,0,0,.1,0l3.75-1.17A.16.16,0,0,0,135.16,3Z" style="fill:none;stroke:#423c25;stroke-miterlimit:10;stroke-width:0.6007771492004395px"/><path d="M125.55,12.76a.17.17,0,0,1-.12,0l-6.5-4,7.7.15a.21.21,0,0,1,.11,0,.16.16,0,0,1,0,.15l-1.13,3.61A.12.12,0,0,1,125.55,12.76Z" style="fill:none;stroke:#423c25;stroke-miterlimit:10;stroke-width:0.6007771492004395px"/><path d="M137.18,11.83a2.32,2.32,0,1,1-3.27.29A2.32,2.32,0,0,1,137.18,11.83Z" style="fill:none;stroke:#423c25;stroke-miterlimit:10;stroke-width:0.6007771492004395px"/><path d="M152.46,18.51l-7.4-.36a.1.1,0,0,1-.08-.06.06.06,0,0,1,0-.06l1.3-4.14v0h0Z" style="fill:#423c25"/><path d="M147.82,2,144.9,7.55a.24.24,0,0,1-.2.12.3.3,0,0,1-.15,0L141.38,5a.1.1,0,0,1,0-.14.07.07,0,0,1,.05,0Z" style="fill:#423c25"/><path d="M146.33,13.87h0v0a2.72,2.72,0,0,0,1.53-1l10.71,7.68-13.4-.64a2.78,2.78,0,0,0-.2-1.77l0,0a.1.1,0,0,0,.08.06l7.4.36Z" style="fill:#fff"/><path d="M146.34,8.42a2.74,2.74,0,0,0-1.64-.63V7.67a.24.24,0,0,0,.2-.12L147.82,2,141.4,4.83a.07.07,0,0,0-.05,0l-.1,0a2.57,2.57,0,0,0-.14-1.8l12-6.23Z" style="fill:#fff"/><path d="M140.24,22.2a.11.11,0,0,1,.07.12l-.23,7.55-4-6.34a.15.15,0,0,1,0-.14.15.15,0,0,1,.11-.11l4-1.09Z" style="fill:#423c25"/><path d="M137.18,11.83a2.32,2.32,0,1,1-3.27.29A2.32,2.32,0,0,1,137.18,11.83Z" style="fill:#fff"/><path d="M134.43,25a2.63,2.63,0,0,0,1.46-1.55.51.51,0,0,0,0-.13l.13,0a.15.15,0,0,0,0,.14l4,6.34.23-7.55a.11.11,0,0,0-.07-.12l0-.07a2.9,2.9,0,0,0,1.34.51V36.35Z" style="fill:#fff"/><path d="M135.15,2.83a.16.16,0,0,1,0,.15.16.16,0,0,1-.11.12L131.3,4.27a.17.17,0,0,1-.1,0,.14.14,0,0,1-.1-.16l.73-7.26Z" style="fill:#423c25"/><path d="M131.83-3.16,131.1,4.1a.14.14,0,0,0,.1.16l-.1.1a2.7,2.7,0,0,0-1.85-.81l.94-13.49,6.55,11.71A2.6,2.6,0,0,0,135.27,3l-.11,0a.16.16,0,0,0,0-.15Z" style="fill:#fff"/><path d="M130,21.21a.09.09,0,0,1,0,.11l0,0-7,3.87,3.65-6.12a.16.16,0,0,1,.13-.08.14.14,0,0,1,.09,0Z" style="fill:#423c25"/><path d="M123.05,25.22l7-3.87,0,0,.07,0a1.69,1.69,0,0,0-.18.45,2.61,2.61,0,0,0,.35,1.87l-12.09,6.12,6.91-11.5a2.72,2.72,0,0,0,1.73.66V19a.16.16,0,0,0-.13.08Z" style="fill:#fff"/><path d="M136.15,23.28a.15.15,0,0,0-.11.11l-.13,0c.23-1.25-.95-2.44-2-2.92-.12-.05-2.17-1-3.44.36a2,2,0,0,0-.4.55l-.07,0a.09.09,0,0,0,0-.11l-3.09-2.16a.14.14,0,0,0-.09,0V19a1.65,1.65,0,0,0,.3,0c1.32-.28,1.89-1.94,1.86-3.1,0-.13-.1-2.37-1.85-2.92a2.86,2.86,0,0,0-1.56-.05l0-.08a.12.12,0,0,0,.09-.1l1.13-3.61a.16.16,0,0,0,0-.15l.06-.08a3.16,3.16,0,0,0,3.4-.25c.1-.07,2-1.34,1.49-3.12a2.56,2.56,0,0,0-.59-1.09l.1-.1a.17.17,0,0,0,.1,0l3.75-1.17a.16.16,0,0,0,.11-.12l.11,0a1.08,1.08,0,0,0-.08.19c-.41,1.29.75,2.61,1.76,3.15.12.07,2.11,1.1,3.46-.16a2.88,2.88,0,0,0,.84-1.37l.1,0a.1.1,0,0,0,0,.14l3.17,2.61a.3.3,0,0,0,.15,0v.12a1.94,1.94,0,0,0-.4,0c-1.31.31-1.86,2-1.81,3.13,0,.13.14,2.37,1.9,2.89a3.5,3.5,0,0,0,1.9,0v.05L145,18a.06.06,0,0,0,0,.06l0,0a2,2,0,0,0-.22-.32c-.87-1-2.6-.75-3.61-.17-.11.06-2,1.21-1.69,3a2.31,2.31,0,0,0,.88,1.49l0,.07h-.08Zm1.33-8.18a2.33,2.33,0,1,0-3.28.29A2.32,2.32,0,0,0,137.48,15.1Z" style="fill:#423c25"/><path d="M125.64,12.66a.12.12,0,0,1-.09.1.17.17,0,0,1-.12,0l-6.5-4,7.7.15a.21.21,0,0,1,.11,0,.16.16,0,0,1,0,.15Z" style="fill:#423c25"/><path d="M126.58,8.63a1,1,0,0,0,.22.19l-.06.08a.21.21,0,0,0-.11,0l-7.7-.15,6.5,4a.17.17,0,0,0,.12,0l0,.08a2.61,2.61,0,0,0-1.49,1l-11.47-7L126,6.58A2.57,2.57,0,0,0,126.58,8.63Z" style="fill:#fff"/><path d="M144.7,7.79a2.74,2.74,0,0,1,1.64.63l6.73-11.61L141.11,3a2.57,2.57,0,0,1,.14,1.8,2.88,2.88,0,0,1-.84,1.37c-1.35,1.26-3.34.23-3.46.16-1-.54-2.17-1.86-1.76-3.15a1.08,1.08,0,0,1,.08-.19,2.6,2.6,0,0,1,1.47-1.26L130.19-9.94l-.94,13.49a2.7,2.7,0,0,1,1.85.81,2.56,2.56,0,0,1,.59,1.09c.47,1.78-1.39,3.05-1.49,3.12a3.16,3.16,0,0,1-3.4.25,1,1,0,0,1-.22-.19A2.57,2.57,0,0,1,126,6.58l-13.41.24,11.47,7a2.61,2.61,0,0,1,1.49-1,2.86,2.86,0,0,1,1.56.05c1.75.55,1.85,2.79,1.85,2.92,0,1.16-.54,2.82-1.86,3.1a1.65,1.65,0,0,1-.3,0,2.72,2.72,0,0,1-1.73-.66l-6.91,11.5,12.09-6.12a2.61,2.61,0,0,1-.35-1.87,1.69,1.69,0,0,1,.18-.45,2,2,0,0,1,.4-.55c1.27-1.33,3.32-.41,3.44-.36,1,.48,2.19,1.67,2,2.92a.51.51,0,0,1,0,.13A2.63,2.63,0,0,1,134.43,25l7.2,11.31V22.64a2.9,2.9,0,0,1-1.34-.51,2.31,2.31,0,0,1-.88-1.49c-.35-1.81,1.58-3,1.69-3,1-.58,2.74-.85,3.61.17a2,2,0,0,1,.22.32,2.78,2.78,0,0,1,.2,1.77l13.4.64-10.71-7.68a2.72,2.72,0,0,1-1.53,1,3.5,3.5,0,0,1-1.9,0c-1.76-.52-1.89-2.76-1.9-2.89-.05-1.15.5-2.82,1.81-3.13A1.94,1.94,0,0,1,144.7,7.79Z" style="fill:none;stroke:#423c25;stroke-miterlimit:10;stroke-width:0.6007771492004395px"/><path d="M130,21.32l0,0-7,3.87,3.65-6.12a.16.16,0,0,1,.13-.08.14.14,0,0,1,.09,0L130,21.21A.09.09,0,0,1,130,21.32Z" style="fill:none;stroke:#423c25;stroke-miterlimit:10;stroke-width:0.6007771492004395px"/><path d="M136,23.39a.15.15,0,0,0,0,.14l4,6.34.23-7.55a.11.11,0,0,0-.07-.12h-.08l-4,1.09A.15.15,0,0,0,136,23.39Z" style="fill:none;stroke:#423c25;stroke-miterlimit:10;stroke-width:0.6007771492004395px"/><path d="M146.29,13.87h0l6.13,4.64-7.4-.36a.1.1,0,0,1-.08-.06.06.06,0,0,1,0-.06l1.3-4.14Z" style="fill:none;stroke:#423c25;stroke-miterlimit:10;stroke-width:0.6007771492004395px"/><path d="M141.35,4.87a.07.07,0,0,1,.05,0L147.82,2,144.9,7.55a.24.24,0,0,1-.2.12.3.3,0,0,1-.15,0L141.38,5A.1.1,0,0,1,141.35,4.87Z" style="fill:none;stroke:#423c25;stroke-miterlimit:10;stroke-width:0.6007771492004395px"/><path d="M135.16,3a.16.16,0,0,0,0-.15l-3.32-6L131.1,4.1a.14.14,0,0,0,.1.16.17.17,0,0,0,.1,0l3.75-1.17A.16.16,0,0,0,135.16,3Z" style="fill:none;stroke:#423c25;stroke-miterlimit:10;stroke-width:0.6007771492004395px"/><path d="M125.55,12.76a.17.17,0,0,1-.12,0l-6.5-4,7.7.15a.21.21,0,0,1,.11,0,.16.16,0,0,1,0,.15l-1.13,3.61A.12.12,0,0,1,125.55,12.76Z" style="fill:none;stroke:#423c25;stroke-miterlimit:10;stroke-width:0.6007771492004395px"/><path d="M137.18,11.83a2.32,2.32,0,1,1-3.27.29A2.32,2.32,0,0,1,137.18,11.83Z" style="fill:none;stroke:#423c25;stroke-miterlimit:10;stroke-width:0.6007771492004395px"/><path d="M152.46,18.51l-7.4-.36a.1.1,0,0,1-.08-.06.06.06,0,0,1,0-.06l1.3-4.14v0h0Z" style="fill:#423c25"/><path d="M147.82,2,144.9,7.55a.24.24,0,0,1-.2.12.3.3,0,0,1-.15,0L141.38,5a.1.1,0,0,1,0-.14.07.07,0,0,1,.05,0Z" style="fill:#423c25"/><path d="M146.29,13.84a2.72,2.72,0,0,0,1.53-1l10.71,7.68-13.4-.64a2.78,2.78,0,0,0-.2-1.77l0,0a.1.1,0,0,0,.08.06l7.4.36-6.13-4.64h0Z" style="fill:#fff"/><path d="M144.7,7.67a.24.24,0,0,0,.2-.12L147.82,2,141.4,4.83a.07.07,0,0,0-.05,0l-.1,0a2.57,2.57,0,0,0-.14-1.8l12-6.23L146.34,8.42a2.74,2.74,0,0,0-1.64-.63Z" style="fill:#fff"/><path d="M140.24,22.2a.11.11,0,0,1,.07.12l-.23,7.55-4-6.34a.15.15,0,0,1,0-.14.15.15,0,0,1,.11-.11l4-1.09Z" style="fill:#423c25"/><path d="M137.18,11.83a2.32,2.32,0,1,1-3.27.29A2.32,2.32,0,0,1,137.18,11.83Z" style="fill:#fff"/><path d="M136.07,23.53l4,6.34.23-7.55a.11.11,0,0,0-.07-.12l0-.07a2.9,2.9,0,0,0,1.34.51V36.35L134.43,25a2.63,2.63,0,0,0,1.46-1.55.51.51,0,0,0,0-.13l.13,0A.15.15,0,0,0,136.07,23.53Z" style="fill:#fff"/><path d="M135.15,2.83a.16.16,0,0,1,0,.15.16.16,0,0,1-.11.12L131.3,4.27a.17.17,0,0,1-.1,0,.14.14,0,0,1-.1-.16l.73-7.26Z" style="fill:#423c25"/><path d="M131.1,4.1a.14.14,0,0,0,.1.16l-.1.1a2.7,2.7,0,0,0-1.85-.81l.94-13.49,6.55,11.71A2.6,2.6,0,0,0,135.27,3l-.11,0a.16.16,0,0,0,0-.15l-3.32-6Z" style="fill:#fff"/><path d="M130,21.21a.09.09,0,0,1,0,.11l0,0-7,3.87,3.65-6.12a.16.16,0,0,1,.13-.08.14.14,0,0,1,.09,0Z" style="fill:#423c25"/><path d="M125.1,18.29a2.72,2.72,0,0,0,1.73.66V19a.16.16,0,0,0-.13.08l-3.65,6.12,7-3.87,0,0,.07,0a1.69,1.69,0,0,0-.18.45,2.61,2.61,0,0,0,.35,1.87l-12.09,6.12Z" style="fill:#fff"/><path d="M130,21.32a.09.09,0,0,0,0-.11l-3.09-2.16a.14.14,0,0,0-.09,0V19a1.65,1.65,0,0,0,.3,0c1.32-.28,1.89-1.94,1.86-3.1,0-.13-.1-2.37-1.85-2.92a2.86,2.86,0,0,0-1.56-.05l0-.08a.12.12,0,0,0,.09-.1l1.13-3.61a.16.16,0,0,0,0-.15l.06-.08a3.16,3.16,0,0,0,3.4-.25c.1-.07,2-1.34,1.49-3.12a2.56,2.56,0,0,0-.59-1.09l.1-.1a.17.17,0,0,0,.1,0l3.75-1.17a.16.16,0,0,0,.11-.12l.11,0a1.08,1.08,0,0,0-.08.19c-.41,1.29.75,2.61,1.76,3.15.12.07,2.11,1.1,3.46-.16a2.88,2.88,0,0,0,.84-1.37l.1,0a.1.1,0,0,0,0,.14l3.17,2.61a.3.3,0,0,0,.15,0v.12a1.94,1.94,0,0,0-.4,0c-1.31.31-1.86,2-1.81,3.13,0,.13.14,2.37,1.9,2.89a3.5,3.5,0,0,0,1.9,0v.05L145,18a.06.06,0,0,0,0,.06l0,0a2,2,0,0,0-.22-.32c-.87-1-2.6-.75-3.61-.17-.11.06-2,1.21-1.69,3a2.31,2.31,0,0,0,.88,1.49l0,.07h-.08l-4,1.09a.15.15,0,0,0-.11.11l-.13,0c.23-1.25-.95-2.44-2-2.92-.12-.05-2.17-1-3.44.36a2,2,0,0,0-.4.55Zm7.44-6.22a2.33,2.33,0,1,0-3.28.29A2.32,2.32,0,0,0,137.48,15.1Z" style="fill:#423c25"/><path d="M125.43,12.75l-6.5-4,7.7.15a.21.21,0,0,1,.11,0,.16.16,0,0,1,0,.15l-1.13,3.61a.12.12,0,0,1-.09.1A.17.17,0,0,1,125.43,12.75Z" style="fill:#423c25"/><path d="M126.58,8.63a1,1,0,0,0,.22.19l-.06.08a.21.21,0,0,0-.11,0l-7.7-.15,6.5,4a.17.17,0,0,0,.12,0l0,.08a2.61,2.61,0,0,0-1.49,1l-11.47-7L126,6.58A2.57,2.57,0,0,0,126.58,8.63Z" style="fill:#fff"/><path d="M144.7,7.79a2.74,2.74,0,0,1,1.64.63l6.73-11.61L141.11,3a2.57,2.57,0,0,1,.14,1.8,2.88,2.88,0,0,1-.84,1.37c-1.35,1.26-3.34.23-3.46.16-1-.54-2.17-1.86-1.76-3.15a1.08,1.08,0,0,1,.08-.19,2.6,2.6,0,0,1,1.47-1.26L130.19-9.94l-.94,13.49a2.7,2.7,0,0,1,1.85.81,2.56,2.56,0,0,1,.59,1.09c.47,1.78-1.39,3.05-1.49,3.12a3.16,3.16,0,0,1-3.4.25,1,1,0,0,1-.22-.19A2.57,2.57,0,0,1,126,6.58l-13.41.24,11.47,7a2.61,2.61,0,0,1,1.49-1,2.86,2.86,0,0,1,1.56.05c1.75.55,1.85,2.79,1.85,2.92,0,1.16-.54,2.82-1.86,3.1a1.65,1.65,0,0,1-.3,0,2.72,2.72,0,0,1-1.73-.66l-6.91,11.5,12.09-6.12a2.61,2.61,0,0,1-.35-1.87,1.69,1.69,0,0,1,.18-.45,2,2,0,0,1,.4-.55c1.27-1.33,3.32-.41,3.44-.36,1,.48,2.19,1.67,2,2.92a.51.51,0,0,1,0,.13A2.63,2.63,0,0,1,134.43,25l7.2,11.31V22.64a2.9,2.9,0,0,1-1.34-.51,2.31,2.31,0,0,1-.88-1.49c-.35-1.81,1.58-3,1.69-3,1-.58,2.74-.85,3.61.17a2,2,0,0,1,.22.32,2.78,2.78,0,0,1,.2,1.77l13.4.64-10.71-7.68a2.72,2.72,0,0,1-1.53,1,3.5,3.5,0,0,1-1.9,0c-1.76-.52-1.89-2.76-1.9-2.89-.05-1.15.5-2.82,1.81-3.13A1.94,1.94,0,0,1,144.7,7.79Z" style="fill:none;stroke:#423c25;stroke-miterlimit:10;stroke-width:0.6007771492004395px"/><path d="M130,21.32l0,0-7,3.87,3.65-6.12a.16.16,0,0,1,.13-.08.14.14,0,0,1,.09,0L130,21.21A.09.09,0,0,1,130,21.32Z" style="fill:none;stroke:#423c25;stroke-miterlimit:10;stroke-width:0.6007771492004395px"/><path d="M136,23.39a.15.15,0,0,0,0,.14l4,6.34.23-7.55a.11.11,0,0,0-.07-.12h-.08l-4,1.09A.15.15,0,0,0,136,23.39Z" style="fill:none;stroke:#423c25;stroke-miterlimit:10;stroke-width:0.6007771492004395px"/><path d="M146.29,13.87h0l6.13,4.64-7.4-.36a.1.1,0,0,1-.08-.06.06.06,0,0,1,0-.06l1.3-4.14Z" style="fill:none;stroke:#423c25;stroke-miterlimit:10;stroke-width:0.6007771492004395px"/><path d="M141.35,4.87a.07.07,0,0,1,.05,0L147.82,2,144.9,7.55a.24.24,0,0,1-.2.12.3.3,0,0,1-.15,0L141.38,5A.1.1,0,0,1,141.35,4.87Z" style="fill:none;stroke:#423c25;stroke-miterlimit:10;stroke-width:0.6007771492004395px"/><path d="M135.16,3a.16.16,0,0,0,0-.15l-3.32-6L131.1,4.1a.14.14,0,0,0,.1.16.17.17,0,0,0,.1,0l3.75-1.17A.16.16,0,0,0,135.16,3Z" style="fill:none;stroke:#423c25;stroke-miterlimit:10;stroke-width:0.6007771492004395px"/><path d="M125.55,12.76a.17.17,0,0,1-.12,0l-6.5-4,7.7.15a.21.21,0,0,1,.11,0,.16.16,0,0,1,0,.15l-1.13,3.61A.12.12,0,0,1,125.55,12.76Z" style="fill:none;stroke:#423c25;stroke-miterlimit:10;stroke-width:0.6007771492004395px"/><path d="M137.18,11.83a2.32,2.32,0,1,1-3.27.29A2.32,2.32,0,0,1,137.18,11.83Z" style="fill:none;stroke:#423c25;stroke-miterlimit:10;stroke-width:0.6007771492004395px"/><path d="M152.46,18.51l-7.4-.36a.1.1,0,0,1-.08-.06.06.06,0,0,1,0-.06l1.3-4.14v0h0Z" style="fill:#423c25"/><path d="M147.82,2,144.9,7.55a.24.24,0,0,1-.2.12.3.3,0,0,1-.15,0L141.38,5a.1.1,0,0,1,0-.14.07.07,0,0,1,.05,0Z" style="fill:#423c25"/><path d="M145.06,18.15l7.4.36-6.13-4.64h0v0a2.72,2.72,0,0,0,1.53-1l10.71,7.68-13.4-.64a2.78,2.78,0,0,0-.2-1.77l0,0A.1.1,0,0,0,145.06,18.15Z" style="fill:#fff"/><path d="M146.34,8.42a2.74,2.74,0,0,0-1.64-.63V7.67a.24.24,0,0,0,.2-.12L147.82,2,141.4,4.83a.07.07,0,0,0-.05,0l-.1,0a2.57,2.57,0,0,0-.14-1.8l12-6.23Z" style="fill:#fff"/><path d="M140.24,22.2a.11.11,0,0,1,.07.12l-.23,7.55-4-6.34a.15.15,0,0,1,0-.14.15.15,0,0,1,.11-.11l4-1.09Z" style="fill:#423c25"/><path d="M137.18,11.83a2.32,2.32,0,1,1-3.27.29A2.32,2.32,0,0,1,137.18,11.83Z" style="fill:#fff"/><path d="M140.29,22.13a2.9,2.9,0,0,0,1.34.51V36.35L134.43,25a2.63,2.63,0,0,0,1.46-1.55.51.51,0,0,0,0-.13l.13,0a.15.15,0,0,0,0,.14l4,6.34.23-7.55a.11.11,0,0,0-.07-.12Z" style="fill:#fff"/><path d="M135.15,2.83a.16.16,0,0,1,0,.15.16.16,0,0,1-.11.12L131.3,4.27a.17.17,0,0,1-.1,0,.14.14,0,0,1-.1-.16l.73-7.26Z" style="fill:#423c25"/><path d="M131.83-3.16,131.1,4.1a.14.14,0,0,0,.1.16l-.1.1a2.7,2.7,0,0,0-1.85-.81l.94-13.49,6.55,11.71A2.6,2.6,0,0,0,135.27,3l-.11,0a.16.16,0,0,0,0-.15Z" style="fill:#fff"/><path d="M130,21.21a.09.09,0,0,1,0,.11l0,0-7,3.87,3.65-6.12a.16.16,0,0,1,.13-.08.14.14,0,0,1,.09,0Z" style="fill:#423c25"/><path d="M126.7,19.1l-3.65,6.12,7-3.87,0,0,.07,0a1.69,1.69,0,0,0-.18.45,2.61,2.61,0,0,0,.35,1.87l-12.09,6.12,6.91-11.5a2.72,2.72,0,0,0,1.73.66V19A.16.16,0,0,0,126.7,19.1Z" style="fill:#fff"/><path d="M125.58,12.84l0-.08a.12.12,0,0,0,.09-.1l1.13-3.61a.16.16,0,0,0,0-.15l.06-.08a3.16,3.16,0,0,0,3.4-.25c.1-.07,2-1.34,1.49-3.12a2.56,2.56,0,0,0-.59-1.09l.1-.1a.17.17,0,0,0,.1,0l3.75-1.17a.16.16,0,0,0,.11-.12l.11,0a1.08,1.08,0,0,0-.08.19c-.41,1.29.75,2.61,1.76,3.15.12.07,2.11,1.1,3.46-.16a2.88,2.88,0,0,0,.84-1.37l.1,0a.1.1,0,0,0,0,.14l3.17,2.61a.3.3,0,0,0,.15,0v.12a1.94,1.94,0,0,0-.4,0c-1.31.31-1.86,2-1.81,3.13,0,.13.14,2.37,1.9,2.89a3.5,3.5,0,0,0,1.9,0v.05L145,18a.06.06,0,0,0,0,.06l0,0a2,2,0,0,0-.22-.32c-.87-1-2.6-.75-3.61-.17-.11.06-2,1.21-1.69,3a2.31,2.31,0,0,0,.88,1.49l0,.07h-.08l-4,1.09a.15.15,0,0,0-.11.11l-.13,0c.23-1.25-.95-2.44-2-2.92-.12-.05-2.17-1-3.44.36a2,2,0,0,0-.4.55l-.07,0a.09.09,0,0,0,0-.11l-3.09-2.16a.14.14,0,0,0-.09,0V19a1.65,1.65,0,0,0,.3,0c1.32-.28,1.89-1.94,1.86-3.1,0-.13-.1-2.37-1.85-2.92A2.86,2.86,0,0,0,125.58,12.84Zm11.9,2.26a2.33,2.33,0,1,0-3.28.29A2.32,2.32,0,0,0,137.48,15.1Z" style="fill:#423c25"/><path d="M125.64,12.66a.12.12,0,0,1-.09.1.17.17,0,0,1-.12,0l-6.5-4,7.7.15a.21.21,0,0,1,.11,0,.16.16,0,0,1,0,.15Z" style="fill:#423c25"/><path d="M126.63,8.86l-7.7-.15,6.5,4a.17.17,0,0,0,.12,0l0,.08a2.61,2.61,0,0,0-1.49,1l-11.47-7L126,6.58a2.57,2.57,0,0,0,.55,2.05,1,1,0,0,0,.22.19l-.06.08A.21.21,0,0,0,126.63,8.86Z" style="fill:#fff"/><path d="M144.7,7.79a2.74,2.74,0,0,1,1.64.63l6.73-11.61L141.11,3a2.57,2.57,0,0,1,.14,1.8,2.88,2.88,0,0,1-.84,1.37c-1.35,1.26-3.34.23-3.46.16-1-.54-2.17-1.86-1.76-3.15a1.08,1.08,0,0,1,.08-.19,2.6,2.6,0,0,1,1.47-1.26L130.19-9.94l-.94,13.49a2.7,2.7,0,0,1,1.85.81,2.56,2.56,0,0,1,.59,1.09c.47,1.78-1.39,3.05-1.49,3.12a3.16,3.16,0,0,1-3.4.25,1,1,0,0,1-.22-.19A2.57,2.57,0,0,1,126,6.58l-13.41.24,11.47,7a2.61,2.61,0,0,1,1.49-1,2.86,2.86,0,0,1,1.56.05c1.75.55,1.85,2.79,1.85,2.92,0,1.16-.54,2.82-1.86,3.1a1.65,1.65,0,0,1-.3,0,2.72,2.72,0,0,1-1.73-.66l-6.91,11.5,12.09-6.12a2.61,2.61,0,0,1-.35-1.87,1.69,1.69,0,0,1,.18-.45,2,2,0,0,1,.4-.55c1.27-1.33,3.32-.41,3.44-.36,1,.48,2.19,1.67,2,2.92a.51.51,0,0,1,0,.13A2.63,2.63,0,0,1,134.43,25l7.2,11.31V22.64a2.9,2.9,0,0,1-1.34-.51,2.31,2.31,0,0,1-.88-1.49c-.35-1.81,1.58-3,1.69-3,1-.58,2.74-.85,3.61.17a2,2,0,0,1,.22.32,2.78,2.78,0,0,1,.2,1.77l13.4.64-10.71-7.68a2.72,2.72,0,0,1-1.53,1,3.5,3.5,0,0,1-1.9,0c-1.76-.52-1.89-2.76-1.9-2.89-.05-1.15.5-2.82,1.81-3.13A1.94,1.94,0,0,1,144.7,7.79Z" style="fill:none;stroke:#423c25;stroke-miterlimit:10;stroke-width:0.6007771492004395px"/><path d="M130,21.32l0,0-7,3.87,3.65-6.12a.16.16,0,0,1,.13-.08.14.14,0,0,1,.09,0L130,21.21A.09.09,0,0,1,130,21.32Z" style="fill:none;stroke:#423c25;stroke-miterlimit:10;stroke-width:0.6007771492004395px"/><path d="M136,23.39a.15.15,0,0,0,0,.14l4,6.34.23-7.55a.11.11,0,0,0-.07-.12h-.08l-4,1.09A.15.15,0,0,0,136,23.39Z" style="fill:none;stroke:#423c25;stroke-miterlimit:10;stroke-width:0.6007771492004395px"/><path d="M146.29,13.87h0l6.13,4.64-7.4-.36a.1.1,0,0,1-.08-.06.06.06,0,0,1,0-.06l1.3-4.14Z" style="fill:none;stroke:#423c25;stroke-miterlimit:10;stroke-width:0.6007771492004395px"/><path d="M141.35,4.87a.07.07,0,0,1,.05,0L147.82,2,144.9,7.55a.24.24,0,0,1-.2.12.3.3,0,0,1-.15,0L141.38,5A.1.1,0,0,1,141.35,4.87Z" style="fill:none;stroke:#423c25;stroke-miterlimit:10;stroke-width:0.6007771492004395px"/><path d="M135.16,3a.16.16,0,0,0,0-.15l-3.32-6L131.1,4.1a.14.14,0,0,0,.1.16.17.17,0,0,0,.1,0l3.75-1.17A.16.16,0,0,0,135.16,3Z" style="fill:none;stroke:#423c25;stroke-miterlimit:10;stroke-width:0.6007771492004395px"/><path d="M125.55,12.76a.17.17,0,0,1-.12,0l-6.5-4,7.7.15a.21.21,0,0,1,.11,0,.16.16,0,0,1,0,.15l-1.13,3.61A.12.12,0,0,1,125.55,12.76Z" style="fill:none;stroke:#423c25;stroke-miterlimit:10;stroke-width:0.6007771492004395px"/><path d="M137.18,11.83a2.32,2.32,0,1,1-3.27.29A2.32,2.32,0,0,1,137.18,11.83Z" style="fill:none;stroke:#423c25;stroke-miterlimit:10;stroke-width:0.6007771492004395px"/><path d="M152.46,18.51l-7.4-.36a.1.1,0,0,1-.08-.06.06.06,0,0,1,0-.06l1.3-4.14v0h0Z" style="fill:#423c25"/><path d="M147.82,2,144.9,7.55a.24.24,0,0,1-.2.12.3.3,0,0,1-.15,0L141.38,5a.1.1,0,0,1,0-.14.07.07,0,0,1,.05,0Z" style="fill:#423c25"/><path d="M146.29,13.84a2.72,2.72,0,0,0,1.53-1l10.71,7.68-13.4-.64a2.78,2.78,0,0,0-.2-1.77l0,0a.1.1,0,0,0,.08.06l7.4.36-6.13-4.64h0Z" style="fill:#fff"/><path d="M144.7,7.67a.24.24,0,0,0,.2-.12L147.82,2,141.4,4.83a.07.07,0,0,0-.05,0l-.1,0a2.57,2.57,0,0,0-.14-1.8l12-6.23L146.34,8.42a2.74,2.74,0,0,0-1.64-.63Z" style="fill:#fff"/><path d="M140.24,22.2a.11.11,0,0,1,.07.12l-.23,7.55-4-6.34a.15.15,0,0,1,0-.14.15.15,0,0,1,.11-.11l4-1.09Z" style="fill:#423c25"/><path d="M137.18,11.83a2.32,2.32,0,1,1-3.27.29A2.32,2.32,0,0,1,137.18,11.83Z" style="fill:#fff"/><path d="M140.29,22.13a2.9,2.9,0,0,0,1.34.51V36.35L134.43,25a2.63,2.63,0,0,0,1.46-1.55.51.51,0,0,0,0-.13l.13,0a.15.15,0,0,0,0,.14l4,6.34.23-7.55a.11.11,0,0,0-.07-.12Z" style="fill:#fff"/><path d="M135.15,2.83a.16.16,0,0,1,0,.15.16.16,0,0,1-.11.12L131.3,4.27a.17.17,0,0,1-.1,0,.14.14,0,0,1-.1-.16l.73-7.26Z" style="fill:#423c25"/><path d="M135.16,3a.16.16,0,0,0,0-.15l-3.32-6L131.1,4.1a.14.14,0,0,0,.1.16l-.1.1a2.7,2.7,0,0,0-1.85-.81l.94-13.49,6.55,11.71A2.6,2.6,0,0,0,135.27,3Z" style="fill:#fff"/><path d="M130,21.21a.09.09,0,0,1,0,.11l0,0-7,3.87,3.65-6.12a.16.16,0,0,1,.13-.08.14.14,0,0,1,.09,0Z" style="fill:#423c25"/><path d="M126.83,19a.16.16,0,0,0-.13.08l-3.65,6.12,7-3.87,0,0,.07,0a1.69,1.69,0,0,0-.18.45,2.61,2.61,0,0,0,.35,1.87l-12.09,6.12,6.91-11.5a2.72,2.72,0,0,0,1.73.66Z" style="fill:#fff"/><path d="M136.15,23.28a.15.15,0,0,0-.11.11l-.13,0c.23-1.25-.95-2.44-2-2.92-.12-.05-2.17-1-3.44.36a2,2,0,0,0-.4.55l-.07,0a.09.09,0,0,0,0-.11l-3.09-2.16a.14.14,0,0,0-.09,0V19a1.65,1.65,0,0,0,.3,0c1.32-.28,1.89-1.94,1.86-3.1,0-.13-.1-2.37-1.85-2.92a2.86,2.86,0,0,0-1.56-.05l0-.08a.12.12,0,0,0,.09-.1l1.13-3.61a.16.16,0,0,0,0-.15l.06-.08a3.16,3.16,0,0,0,3.4-.25c.1-.07,2-1.34,1.49-3.12a2.56,2.56,0,0,0-.59-1.09l.1-.1a.17.17,0,0,0,.1,0l3.75-1.17a.16.16,0,0,0,.11-.12l.11,0a1.08,1.08,0,0,0-.08.19c-.41,1.29.75,2.61,1.76,3.15.12.07,2.11,1.1,3.46-.16a2.88,2.88,0,0,0,.84-1.37l.1,0a.1.1,0,0,0,0,.14l3.17,2.61a.3.3,0,0,0,.15,0v.12a1.94,1.94,0,0,0-.4,0c-1.31.31-1.86,2-1.81,3.13,0,.13.14,2.37,1.9,2.89a3.5,3.5,0,0,0,1.9,0v.05L145,18a.06.06,0,0,0,0,.06l0,0a2,2,0,0,0-.22-.32c-.87-1-2.6-.75-3.61-.17-.11.06-2,1.21-1.69,3a2.31,2.31,0,0,0,.88,1.49l0,.07h-.08Zm1.33-8.18a2.33,2.33,0,1,0-3.28.29A2.32,2.32,0,0,0,137.48,15.1Z" style="fill:#423c25"/><path d="M125.43,12.75l-6.5-4,7.7.15a.21.21,0,0,1,.11,0,.16.16,0,0,1,0,.15l-1.13,3.61a.12.12,0,0,1-.09.1A.17.17,0,0,1,125.43,12.75Z" style="fill:#423c25"/><path d="M126.58,8.63a1,1,0,0,0,.22.19l-.06.08a.21.21,0,0,0-.11,0l-7.7-.15,6.5,4a.17.17,0,0,0,.12,0l0,.08a2.61,2.61,0,0,0-1.49,1l-11.47-7L126,6.58A2.57,2.57,0,0,0,126.58,8.63Z" style="fill:#fff"/><path d="M144.7,7.79a2.74,2.74,0,0,1,1.64.63l6.73-11.61L141.11,3a2.57,2.57,0,0,1,.14,1.8,2.88,2.88,0,0,1-.84,1.37c-1.35,1.26-3.34.23-3.46.16-1-.54-2.17-1.86-1.76-3.15a1.08,1.08,0,0,1,.08-.19,2.6,2.6,0,0,1,1.47-1.26L130.19-9.94l-.94,13.49a2.7,2.7,0,0,1,1.85.81,2.56,2.56,0,0,1,.59,1.09c.47,1.78-1.39,3.05-1.49,3.12a3.16,3.16,0,0,1-3.4.25,1,1,0,0,1-.22-.19A2.57,2.57,0,0,1,126,6.58l-13.41.24,11.47,7a2.61,2.61,0,0,1,1.49-1,2.86,2.86,0,0,1,1.56.05c1.75.55,1.85,2.79,1.85,2.92,0,1.16-.54,2.82-1.86,3.1a1.65,1.65,0,0,1-.3,0,2.72,2.72,0,0,1-1.73-.66l-6.91,11.5,12.09-6.12a2.61,2.61,0,0,1-.35-1.87,1.69,1.69,0,0,1,.18-.45,2,2,0,0,1,.4-.55c1.27-1.33,3.32-.41,3.44-.36,1,.48,2.19,1.67,2,2.92a.51.51,0,0,1,0,.13A2.63,2.63,0,0,1,134.43,25l7.2,11.31V22.64a2.9,2.9,0,0,1-1.34-.51,2.31,2.31,0,0,1-.88-1.49c-.35-1.81,1.58-3,1.69-3,1-.58,2.74-.85,3.61.17a2,2,0,0,1,.22.32,2.78,2.78,0,0,1,.2,1.77l13.4.64-10.71-7.68a2.72,2.72,0,0,1-1.53,1,3.5,3.5,0,0,1-1.9,0c-1.76-.52-1.89-2.76-1.9-2.89-.05-1.15.5-2.82,1.81-3.13A1.94,1.94,0,0,1,144.7,7.79Z" style="fill:none;stroke:#423c25;stroke-miterlimit:10;stroke-width:0.6007771492004395px"/><path d="M130,21.32l0,0-7,3.87,3.65-6.12a.16.16,0,0,1,.13-.08.14.14,0,0,1,.09,0L130,21.21A.09.09,0,0,1,130,21.32Z" style="fill:none;stroke:#423c25;stroke-miterlimit:10;stroke-width:0.6007771492004395px"/><path d="M136,23.39a.15.15,0,0,0,0,.14l4,6.34.23-7.55a.11.11,0,0,0-.07-.12h-.08l-4,1.09A.15.15,0,0,0,136,23.39Z" style="fill:none;stroke:#423c25;stroke-miterlimit:10;stroke-width:0.6007771492004395px"/><path d="M146.29,13.87h0l6.13,4.64-7.4-.36a.1.1,0,0,1-.08-.06.06.06,0,0,1,0-.06l1.3-4.14Z" style="fill:none;stroke:#423c25;stroke-miterlimit:10;stroke-width:0.6007771492004395px"/><path d="M141.35,4.87a.07.07,0,0,1,.05,0L147.82,2,144.9,7.55a.24.24,0,0,1-.2.12.3.3,0,0,1-.15,0L141.38,5A.1.1,0,0,1,141.35,4.87Z" style="fill:none;stroke:#423c25;stroke-miterlimit:10;stroke-width:0.6007771492004395px"/><path d="M135.16,3a.16.16,0,0,0,0-.15l-3.32-6L131.1,4.1a.14.14,0,0,0,.1.16.17.17,0,0,0,.1,0l3.75-1.17A.16.16,0,0,0,135.16,3Z" style="fill:none;stroke:#423c25;stroke-miterlimit:10;stroke-width:0.6007771492004395px"/><path d="M125.55,12.76a.17.17,0,0,1-.12,0l-6.5-4,7.7.15a.21.21,0,0,1,.11,0,.16.16,0,0,1,0,.15l-1.13,3.61A.12.12,0,0,1,125.55,12.76Z" style="fill:none;stroke:#423c25;stroke-miterlimit:10;stroke-width:0.6007771492004395px"/><path d="M137.18,11.83a2.32,2.32,0,1,1-3.27.29A2.32,2.32,0,0,1,137.18,11.83Z" style="fill:none;stroke:#423c25;stroke-miterlimit:10;stroke-width:0.6007771492004395px"/><path d="M152.46,18.51l-7.4-.36a.1.1,0,0,1-.08-.06.06.06,0,0,1,0-.06l1.3-4.14v0h0Z" style="fill:#423c25"/><path d="M147.82,2,144.9,7.55a.24.24,0,0,1-.2.12.3.3,0,0,1-.15,0L141.38,5a.1.1,0,0,1,0-.14.07.07,0,0,1,.05,0Z" style="fill:#423c25"/><path d="M146.33,13.87h0v0a2.72,2.72,0,0,0,1.53-1l10.71,7.68-13.4-.64a2.78,2.78,0,0,0-.2-1.77l0,0a.1.1,0,0,0,.08.06l7.4.36Z" style="fill:#fff"/><path d="M144.7,7.67a.24.24,0,0,0,.2-.12L147.82,2,141.4,4.83a.07.07,0,0,0-.05,0l-.1,0a2.57,2.57,0,0,0-.14-1.8l12-6.23L146.34,8.42a2.74,2.74,0,0,0-1.64-.63Z" style="fill:#fff"/><path d="M140.24,22.2a.11.11,0,0,1,.07.12l-.23,7.55-4-6.34a.15.15,0,0,1,0-.14.15.15,0,0,1,.11-.11l4-1.09Z" style="fill:#423c25"/><path d="M137.18,11.83a2.32,2.32,0,1,1-3.27.29A2.32,2.32,0,0,1,137.18,11.83Z" style="fill:#fff"/><path d="M140.29,22.13a2.9,2.9,0,0,0,1.34.51V36.35L134.43,25a2.63,2.63,0,0,0,1.46-1.55.51.51,0,0,0,0-.13l.13,0a.15.15,0,0,0,0,.14l4,6.34.23-7.55a.11.11,0,0,0-.07-.12Z" style="fill:#fff"/><path d="M135.15,2.83a.16.16,0,0,1,0,.15.16.16,0,0,1-.11.12L131.3,4.27a.17.17,0,0,1-.1,0,.14.14,0,0,1-.1-.16l.73-7.26Z" style="fill:#423c25"/><path d="M131.1,4.36a2.7,2.7,0,0,0-1.85-.81l.94-13.49,6.55,11.71A2.6,2.6,0,0,0,135.27,3l-.11,0a.16.16,0,0,0,0-.15l-3.32-6L131.1,4.1a.14.14,0,0,0,.1.16Z" style="fill:#fff"/><path d="M130,21.21a.09.09,0,0,1,0,.11l0,0-7,3.87,3.65-6.12a.16.16,0,0,1,.13-.08.14.14,0,0,1,.09,0Z" style="fill:#423c25"/><path d="M130.11,21.35a1.69,1.69,0,0,0-.18.45,2.61,2.61,0,0,0,.35,1.87l-12.09,6.12,6.91-11.5a2.72,2.72,0,0,0,1.73.66V19a.16.16,0,0,0-.13.08l-3.65,6.12,7-3.87,0,0Z" style="fill:#fff"/><path d="M125.55,12.76a.12.12,0,0,0,.09-.1l1.13-3.61a.16.16,0,0,0,0-.15l.06-.08a3.16,3.16,0,0,0,3.4-.25c.1-.07,2-1.34,1.49-3.12a2.56,2.56,0,0,0-.59-1.09l.1-.1a.17.17,0,0,0,.1,0l3.75-1.17a.16.16,0,0,0,.11-.12l.11,0a1.08,1.08,0,0,0-.08.19c-.41,1.29.75,2.61,1.76,3.15.12.07,2.11,1.1,3.46-.16a2.88,2.88,0,0,0,.84-1.37l.1,0a.1.1,0,0,0,0,.14l3.17,2.61a.3.3,0,0,0,.15,0v.12a1.94,1.94,0,0,0-.4,0c-1.31.31-1.86,2-1.81,3.13,0,.13.14,2.37,1.9,2.89a3.5,3.5,0,0,0,1.9,0v.05L145,18a.06.06,0,0,0,0,.06l0,0a2,2,0,0,0-.22-.32c-.87-1-2.6-.75-3.61-.17-.11.06-2,1.21-1.69,3a2.31,2.31,0,0,0,.88,1.49l0,.07h-.08l-4,1.09a.15.15,0,0,0-.11.11l-.13,0c.23-1.25-.95-2.44-2-2.92-.12-.05-2.17-1-3.44.36a2,2,0,0,0-.4.55l-.07,0a.09.09,0,0,0,0-.11l-3.09-2.16a.14.14,0,0,0-.09,0V19a1.65,1.65,0,0,0,.3,0c1.32-.28,1.89-1.94,1.86-3.1,0-.13-.1-2.37-1.85-2.92a2.86,2.86,0,0,0-1.56-.05Zm11.93,2.34a2.33,2.33,0,1,0-3.28.29A2.32,2.32,0,0,0,137.48,15.1Z" style="fill:#423c25"/><path d="M125.64,12.66a.12.12,0,0,1-.09.1.17.17,0,0,1-.12,0l-6.5-4,7.7.15a.21.21,0,0,1,.11,0,.16.16,0,0,1,0,.15Z" style="fill:#423c25"/><path d="M126.58,8.63a1,1,0,0,0,.22.19l-.06.08a.21.21,0,0,0-.11,0l-7.7-.15,6.5,4a.17.17,0,0,0,.12,0l0,.08a2.61,2.61,0,0,0-1.49,1l-11.47-7L126,6.58A2.57,2.57,0,0,0,126.58,8.63Z" style="fill:#fff"/><path d="M144.7,7.79a2.74,2.74,0,0,1,1.64.63l6.73-11.61L141.11,3a2.57,2.57,0,0,1,.14,1.8,2.88,2.88,0,0,1-.84,1.37c-1.35,1.26-3.34.23-3.46.16-1-.54-2.17-1.86-1.76-3.15a1.08,1.08,0,0,1,.08-.19,2.6,2.6,0,0,1,1.47-1.26L130.19-9.94l-.94,13.49a2.7,2.7,0,0,1,1.85.81,2.56,2.56,0,0,1,.59,1.09c.47,1.78-1.39,3.05-1.49,3.12a3.16,3.16,0,0,1-3.4.25,1,1,0,0,1-.22-.19A2.57,2.57,0,0,1,126,6.58l-13.41.24,11.47,7a2.61,2.61,0,0,1,1.49-1,2.86,2.86,0,0,1,1.56.05c1.75.55,1.85,2.79,1.85,2.92,0,1.16-.54,2.82-1.86,3.1a1.65,1.65,0,0,1-.3,0,2.72,2.72,0,0,1-1.73-.66l-6.91,11.5,12.09-6.12a2.61,2.61,0,0,1-.35-1.87,1.69,1.69,0,0,1,.18-.45,2,2,0,0,1,.4-.55c1.27-1.33,3.32-.41,3.44-.36,1,.48,2.19,1.67,2,2.92a.51.51,0,0,1,0,.13A2.63,2.63,0,0,1,134.43,25l7.2,11.31V22.64a2.9,2.9,0,0,1-1.34-.51,2.31,2.31,0,0,1-.88-1.49c-.35-1.81,1.58-3,1.69-3,1-.58,2.74-.85,3.61.17a2,2,0,0,1,.22.32,2.78,2.78,0,0,1,.2,1.77l13.4.64-10.71-7.68a2.72,2.72,0,0,1-1.53,1,3.5,3.5,0,0,1-1.9,0c-1.76-.52-1.89-2.76-1.9-2.89-.05-1.15.5-2.82,1.81-3.13A1.94,1.94,0,0,1,144.7,7.79Z" style="fill:none;stroke:#423c25;stroke-miterlimit:10;stroke-width:0.6007771492004395px"/><path d="M130,21.32l0,0-7,3.87,3.65-6.12a.16.16,0,0,1,.13-.08.14.14,0,0,1,.09,0L130,21.21A.09.09,0,0,1,130,21.32Z" style="fill:none;stroke:#423c25;stroke-miterlimit:10;stroke-width:0.6007771492004395px"/><path d="M136,23.39a.15.15,0,0,0,0,.14l4,6.34.23-7.55a.11.11,0,0,0-.07-.12h-.08l-4,1.09A.15.15,0,0,0,136,23.39Z" style="fill:none;stroke:#423c25;stroke-miterlimit:10;stroke-width:0.6007771492004395px"/><path d="M146.29,13.87h0l6.13,4.64-7.4-.36a.1.1,0,0,1-.08-.06.06.06,0,0,1,0-.06l1.3-4.14Z" style="fill:none;stroke:#423c25;stroke-miterlimit:10;stroke-width:0.6007771492004395px"/><path d="M141.35,4.87a.07.07,0,0,1,.05,0L147.82,2,144.9,7.55a.24.24,0,0,1-.2.12.3.3,0,0,1-.15,0L141.38,5A.1.1,0,0,1,141.35,4.87Z" style="fill:none;stroke:#423c25;stroke-miterlimit:10;stroke-width:0.6007771492004395px"/><path d="M135.16,3a.16.16,0,0,0,0-.15l-3.32-6L131.1,4.1a.14.14,0,0,0,.1.16.17.17,0,0,0,.1,0l3.75-1.17A.16.16,0,0,0,135.16,3Z" style="fill:none;stroke:#423c25;stroke-miterlimit:10;stroke-width:0.6007771492004395px"/><path d="M125.55,12.76a.17.17,0,0,1-.12,0l-6.5-4,7.7.15a.21.21,0,0,1,.11,0,.16.16,0,0,1,0,.15l-1.13,3.61A.12.12,0,0,1,125.55,12.76Z" style="fill:none;stroke:#423c25;stroke-miterlimit:10;stroke-width:0.6007771492004395px"/><path d="M137.18,11.83a2.32,2.32,0,1,1-3.27.29A2.32,2.32,0,0,1,137.18,11.83Z" style="fill:none;stroke:#423c25;stroke-miterlimit:10;stroke-width:0.6007771492004395px"/><path d="M152.46,18.51l-7.4-.36a.1.1,0,0,1-.08-.06.06.06,0,0,1,0-.06l1.3-4.14v0h0Z" style="fill:#423c25"/><path d="M147.82,2,144.9,7.55a.24.24,0,0,1-.2.12.3.3,0,0,1-.15,0L141.38,5a.1.1,0,0,1,0-.14.07.07,0,0,1,.05,0Z" style="fill:#423c25"/><path d="M145.06,18.15l7.4.36-6.13-4.64h0v0a2.72,2.72,0,0,0,1.53-1l10.71,7.68-13.4-.64a2.78,2.78,0,0,0-.2-1.77l0,0A.1.1,0,0,0,145.06,18.15Z" style="fill:#fff"/><path d="M141.4,4.83a.07.07,0,0,0-.05,0l-.1,0a2.57,2.57,0,0,0-.14-1.8l12-6.23L146.34,8.42a2.74,2.74,0,0,0-1.64-.63V7.67a.24.24,0,0,0,.2-.12L147.82,2Z" style="fill:#fff"/><path d="M140.24,22.2a.11.11,0,0,1,.07.12l-.23,7.55-4-6.34a.15.15,0,0,1,0-.14.15.15,0,0,1,.11-.11l4-1.09Z" style="fill:#423c25"/><path d="M137.18,11.83a2.32,2.32,0,1,1-3.27.29A2.32,2.32,0,0,1,137.18,11.83Z" style="fill:#fff"/><path d="M136,23.39a.15.15,0,0,0,0,.14l4,6.34.23-7.55a.11.11,0,0,0-.07-.12l0-.07a2.9,2.9,0,0,0,1.34.51V36.35L134.43,25a2.63,2.63,0,0,0,1.46-1.55.51.51,0,0,0,0-.13Z" style="fill:#fff"/><path d="M135.15,2.83a.16.16,0,0,1,0,.15.16.16,0,0,1-.11.12L131.3,4.27a.17.17,0,0,1-.1,0,.14.14,0,0,1-.1-.16l.73-7.26Z" style="fill:#423c25"/><path d="M131.1,4.1a.14.14,0,0,0,.1.16l-.1.1a2.7,2.7,0,0,0-1.85-.81l.94-13.49,6.55,11.71A2.6,2.6,0,0,0,135.27,3l-.11,0a.16.16,0,0,0,0-.15l-3.32-6Z" style="fill:#fff"/><path d="M130,21.21a.09.09,0,0,1,0,.11l0,0-7,3.87,3.65-6.12a.16.16,0,0,1,.13-.08.14.14,0,0,1,.09,0Z" style="fill:#423c25"/><path d="M125.1,18.29a2.72,2.72,0,0,0,1.73.66V19a.16.16,0,0,0-.13.08l-3.65,6.12,7-3.87,0,0,.07,0a1.69,1.69,0,0,0-.18.45,2.61,2.61,0,0,0,.35,1.87l-12.09,6.12Z" style="fill:#fff"/><path d="M140.24,22.2h-.08l-4,1.09a.15.15,0,0,0-.11.11l-.13,0c.23-1.25-.95-2.44-2-2.92-.12-.05-2.17-1-3.44.36a2,2,0,0,0-.4.55l-.07,0a.09.09,0,0,0,0-.11l-3.09-2.16a.14.14,0,0,0-.09,0V19a1.65,1.65,0,0,0,.3,0c1.32-.28,1.89-1.94,1.86-3.1,0-.13-.1-2.37-1.85-2.92a2.86,2.86,0,0,0-1.56-.05l0-.08a.12.12,0,0,0,.09-.1l1.13-3.61a.16.16,0,0,0,0-.15l.06-.08a3.16,3.16,0,0,0,3.4-.25c.1-.07,2-1.34,1.49-3.12a2.56,2.56,0,0,0-.59-1.09l.1-.1a.17.17,0,0,0,.1,0l3.75-1.17a.16.16,0,0,0,.11-.12l.11,0a1.08,1.08,0,0,0-.08.19c-.41,1.29.75,2.61,1.76,3.15.12.07,2.11,1.1,3.46-.16a2.88,2.88,0,0,0,.84-1.37l.1,0a.1.1,0,0,0,0,.14l3.17,2.61a.3.3,0,0,0,.15,0v.12a1.94,1.94,0,0,0-.4,0c-1.31.31-1.86,2-1.81,3.13,0,.13.14,2.37,1.9,2.89a3.5,3.5,0,0,0,1.9,0v.05L145,18a.06.06,0,0,0,0,.06l0,0a2,2,0,0,0-.22-.32c-.87-1-2.6-.75-3.61-.17-.11.06-2,1.21-1.69,3a2.31,2.31,0,0,0,.88,1.49Zm-2.76-7.1a2.33,2.33,0,1,0-3.28.29A2.32,2.32,0,0,0,137.48,15.1Z" style="fill:#423c25"/><path d="M125.43,12.75l-6.5-4,7.7.15a.21.21,0,0,1,.11,0,.16.16,0,0,1,0,.15l-1.13,3.61a.12.12,0,0,1-.09.1A.17.17,0,0,1,125.43,12.75Z" style="fill:#423c25"/><path d="M125.58,12.84a2.61,2.61,0,0,0-1.49,1l-11.47-7L126,6.58a2.57,2.57,0,0,0,.55,2.05,1,1,0,0,0,.22.19l-.06.08a.21.21,0,0,0-.11,0l-7.7-.15,6.5,4a.17.17,0,0,0,.12,0Z" style="fill:#fff"/><path d="M144.7,7.79a2.74,2.74,0,0,1,1.64.63l6.73-11.61L141.11,3a2.57,2.57,0,0,1,.14,1.8,2.88,2.88,0,0,1-.84,1.37c-1.35,1.26-3.34.23-3.46.16-1-.54-2.17-1.86-1.76-3.15a1.08,1.08,0,0,1,.08-.19,2.6,2.6,0,0,1,1.47-1.26L130.19-9.94l-.94,13.49a2.7,2.7,0,0,1,1.85.81,2.56,2.56,0,0,1,.59,1.09c.47,1.78-1.39,3.05-1.49,3.12a3.16,3.16,0,0,1-3.4.25,1,1,0,0,1-.22-.19A2.57,2.57,0,0,1,126,6.58l-13.41.24,11.47,7a2.61,2.61,0,0,1,1.49-1,2.86,2.86,0,0,1,1.56.05c1.75.55,1.85,2.79,1.85,2.92,0,1.16-.54,2.82-1.86,3.1a1.65,1.65,0,0,1-.3,0,2.72,2.72,0,0,1-1.73-.66l-6.91,11.5,12.09-6.12a2.61,2.61,0,0,1-.35-1.87,1.69,1.69,0,0,1,.18-.45,2,2,0,0,1,.4-.55c1.27-1.33,3.32-.41,3.44-.36,1,.48,2.19,1.67,2,2.92a.51.51,0,0,1,0,.13A2.63,2.63,0,0,1,134.43,25l7.2,11.31V22.64a2.9,2.9,0,0,1-1.34-.51,2.31,2.31,0,0,1-.88-1.49c-.35-1.81,1.58-3,1.69-3,1-.58,2.74-.85,3.61.17a2,2,0,0,1,.22.32,2.78,2.78,0,0,1,.2,1.77l13.4.64-10.71-7.68a2.72,2.72,0,0,1-1.53,1,3.5,3.5,0,0,1-1.9,0c-1.76-.52-1.89-2.76-1.9-2.89-.05-1.15.5-2.82,1.81-3.13A1.94,1.94,0,0,1,144.7,7.79Z" style="fill:none;stroke:#423c25;stroke-miterlimit:10;stroke-width:0.6007771492004395px"/><path d="M130,21.32l0,0-7,3.87,3.65-6.12a.16.16,0,0,1,.13-.08.14.14,0,0,1,.09,0L130,21.21A.09.09,0,0,1,130,21.32Z" style="fill:none;stroke:#423c25;stroke-miterlimit:10;stroke-width:0.6007771492004395px"/><path d="M136,23.39a.15.15,0,0,0,0,.14l4,6.34.23-7.55a.11.11,0,0,0-.07-.12h-.08l-4,1.09A.15.15,0,0,0,136,23.39Z" style="fill:none;stroke:#423c25;stroke-miterlimit:10;stroke-width:0.6007771492004395px"/><path d="M146.29,13.87h0l6.13,4.64-7.4-.36a.1.1,0,0,1-.08-.06.06.06,0,0,1,0-.06l1.3-4.14Z" style="fill:none;stroke:#423c25;stroke-miterlimit:10;stroke-width:0.6007771492004395px"/><path d="M141.35,4.87a.07.07,0,0,1,.05,0L147.82,2,144.9,7.55a.24.24,0,0,1-.2.12.3.3,0,0,1-.15,0L141.38,5A.1.1,0,0,1,141.35,4.87Z" style="fill:none;stroke:#423c25;stroke-miterlimit:10;stroke-width:0.6007771492004395px"/><path d="M135.16,3a.16.16,0,0,0,0-.15l-3.32-6L131.1,4.1a.14.14,0,0,0,.1.16.17.17,0,0,0,.1,0l3.75-1.17A.16.16,0,0,0,135.16,3Z" style="fill:none;stroke:#423c25;stroke-miterlimit:10;stroke-width:0.6007771492004395px"/><path d="M125.55,12.76a.17.17,0,0,1-.12,0l-6.5-4,7.7.15a.21.21,0,0,1,.11,0,.16.16,0,0,1,0,.15l-1.13,3.61A.12.12,0,0,1,125.55,12.76Z" style="fill:none;stroke:#423c25;stroke-miterlimit:10;stroke-width:0.6007771492004395px"/><path d="M137.18,11.83a2.32,2.32,0,1,1-3.27.29A2.32,2.32,0,0,1,137.18,11.83Z" style="fill:none;stroke:#423c25;stroke-miterlimit:10;stroke-width:0.6007771492004395px"/><path d="M152.46,18.51l-7.4-.36a.1.1,0,0,1-.08-.06.06.06,0,0,1,0-.06l1.3-4.14v0h0Z" style="fill:#423c25"/><path d="M147.82,2,144.9,7.55a.24.24,0,0,1-.2.12.3.3,0,0,1-.15,0L141.38,5a.1.1,0,0,1,0-.14.07.07,0,0,1,.05,0Z" style="fill:#423c25"/><path d="M146.33,13.87h0v0a2.72,2.72,0,0,0,1.53-1l10.71,7.68-13.4-.64a2.78,2.78,0,0,0-.2-1.77l0,0a.1.1,0,0,0,.08.06l7.4.36Z" style="fill:#fff"/><path d="M141.25,4.84a2.57,2.57,0,0,0-.14-1.8l12-6.23L146.34,8.42a2.74,2.74,0,0,0-1.64-.63V7.67a.24.24,0,0,0,.2-.12L147.82,2,141.4,4.83a.07.07,0,0,0-.05,0Z" style="fill:#fff"/><path d="M140.24,22.2a.11.11,0,0,1,.07.12l-.23,7.55-4-6.34a.15.15,0,0,1,0-.14.15.15,0,0,1,.11-.11l4-1.09Z" style="fill:#423c25"/><path d="M137.18,11.83a2.32,2.32,0,1,1-3.27.29A2.32,2.32,0,0,1,137.18,11.83Z" style="fill:#fff"/><path d="M140.29,22.13a2.9,2.9,0,0,0,1.34.51V36.35L134.43,25a2.63,2.63,0,0,0,1.46-1.55.51.51,0,0,0,0-.13l.13,0a.15.15,0,0,0,0,.14l4,6.34.23-7.55a.11.11,0,0,0-.07-.12Z" style="fill:#fff"/><path d="M135.15,2.83a.16.16,0,0,1,0,.15.16.16,0,0,1-.11.12L131.3,4.27a.17.17,0,0,1-.1,0,.14.14,0,0,1-.1-.16l.73-7.26Z" style="fill:#423c25"/><path d="M136.74,1.77A2.6,2.6,0,0,0,135.27,3l-.11,0a.16.16,0,0,0,0-.15l-3.32-6L131.1,4.1a.14.14,0,0,0,.1.16l-.1.1a2.7,2.7,0,0,0-1.85-.81l.94-13.49Z" style="fill:#fff"/><path d="M130,21.21a.09.09,0,0,1,0,.11l0,0-7,3.87,3.65-6.12a.16.16,0,0,1,.13-.08.14.14,0,0,1,.09,0Z" style="fill:#423c25"/><path d="M125.1,18.29a2.72,2.72,0,0,0,1.73.66V19a.16.16,0,0,0-.13.08l-3.65,6.12,7-3.87,0,0,.07,0a1.69,1.69,0,0,0-.18.45,2.61,2.61,0,0,0,.35,1.87l-12.09,6.12Z" style="fill:#fff"/><path d="M136.15,23.28a.15.15,0,0,0-.11.11l-.13,0c.23-1.25-.95-2.44-2-2.92-.12-.05-2.17-1-3.44.36a2,2,0,0,0-.4.55l-.07,0a.09.09,0,0,0,0-.11l-3.09-2.16a.14.14,0,0,0-.09,0V19a1.65,1.65,0,0,0,.3,0c1.32-.28,1.89-1.94,1.86-3.1,0-.13-.1-2.37-1.85-2.92a2.86,2.86,0,0,0-1.56-.05l0-.08a.12.12,0,0,0,.09-.1l1.13-3.61a.16.16,0,0,0,0-.15l.06-.08a3.16,3.16,0,0,0,3.4-.25c.1-.07,2-1.34,1.49-3.12a2.56,2.56,0,0,0-.59-1.09l.1-.1a.17.17,0,0,0,.1,0l3.75-1.17a.16.16,0,0,0,.11-.12l.11,0a1.08,1.08,0,0,0-.08.19c-.41,1.29.75,2.61,1.76,3.15.12.07,2.11,1.1,3.46-.16a2.88,2.88,0,0,0,.84-1.37l.1,0a.1.1,0,0,0,0,.14l3.17,2.61a.3.3,0,0,0,.15,0v.12a1.94,1.94,0,0,0-.4,0c-1.31.31-1.86,2-1.81,3.13,0,.13.14,2.37,1.9,2.89a3.5,3.5,0,0,0,1.9,0v.05L145,18a.06.06,0,0,0,0,.06l0,0a2,2,0,0,0-.22-.32c-.87-1-2.6-.75-3.61-.17-.11.06-2,1.21-1.69,3a2.31,2.31,0,0,0,.88,1.49l0,.07h-.08Zm1.33-8.18a2.33,2.33,0,1,0-3.28.29A2.32,2.32,0,0,0,137.48,15.1Z" style="fill:#423c25"/><path d="M125.64,12.66a.12.12,0,0,1-.09.1.17.17,0,0,1-.12,0l-6.5-4,7.7.15a.21.21,0,0,1,.11,0,.16.16,0,0,1,0,.15Z" style="fill:#423c25"/><path d="M125.58,12.84a2.61,2.61,0,0,0-1.49,1l-11.47-7L126,6.58a2.57,2.57,0,0,0,.55,2.05,1,1,0,0,0,.22.19l-.06.08a.21.21,0,0,0-.11,0l-7.7-.15,6.5,4a.17.17,0,0,0,.12,0Z" style="fill:#fff"/><path d="M144.7,7.79a2.74,2.74,0,0,1,1.64.63l6.73-11.61L141.11,3a2.57,2.57,0,0,1,.14,1.8,2.88,2.88,0,0,1-.84,1.37c-1.35,1.26-3.34.23-3.46.16-1-.54-2.17-1.86-1.76-3.15a1.08,1.08,0,0,1,.08-.19,2.6,2.6,0,0,1,1.47-1.26L130.19-9.94l-.94,13.49a2.7,2.7,0,0,1,1.85.81,2.56,2.56,0,0,1,.59,1.09c.47,1.78-1.39,3.05-1.49,3.12a3.16,3.16,0,0,1-3.4.25,1,1,0,0,1-.22-.19A2.57,2.57,0,0,1,126,6.58l-13.41.24,11.47,7a2.61,2.61,0,0,1,1.49-1,2.86,2.86,0,0,1,1.56.05c1.75.55,1.85,2.79,1.85,2.92,0,1.16-.54,2.82-1.86,3.1a1.65,1.65,0,0,1-.3,0,2.72,2.72,0,0,1-1.73-.66l-6.91,11.5,12.09-6.12a2.61,2.61,0,0,1-.35-1.87,1.69,1.69,0,0,1,.18-.45,2,2,0,0,1,.4-.55c1.27-1.33,3.32-.41,3.44-.36,1,.48,2.19,1.67,2,2.92a.51.51,0,0,1,0,.13A2.63,2.63,0,0,1,134.43,25l7.2,11.31V22.64a2.9,2.9,0,0,1-1.34-.51,2.31,2.31,0,0,1-.88-1.49c-.35-1.81,1.58-3,1.69-3,1-.58,2.74-.85,3.61.17a2,2,0,0,1,.22.32,2.78,2.78,0,0,1,.2,1.77l13.4.64-10.71-7.68a2.72,2.72,0,0,1-1.53,1,3.5,3.5,0,0,1-1.9,0c-1.76-.52-1.89-2.76-1.9-2.89-.05-1.15.5-2.82,1.81-3.13A1.94,1.94,0,0,1,144.7,7.79Z" style="fill:none;stroke:#423c25;stroke-miterlimit:10;stroke-width:0.6007771492004395px"/><path d="M130,21.32l0,0-7,3.87,3.65-6.12a.16.16,0,0,1,.13-.08.14.14,0,0,1,.09,0L130,21.21A.09.09,0,0,1,130,21.32Z" style="fill:none;stroke:#423c25;stroke-miterlimit:10;stroke-width:0.6007771492004395px"/><path d="M136,23.39a.15.15,0,0,0,0,.14l4,6.34.23-7.55a.11.11,0,0,0-.07-.12h-.08l-4,1.09A.15.15,0,0,0,136,23.39Z" style="fill:none;stroke:#423c25;stroke-miterlimit:10;stroke-width:0.6007771492004395px"/><path d="M146.29,13.87h0l6.13,4.64-7.4-.36a.1.1,0,0,1-.08-.06.06.06,0,0,1,0-.06l1.3-4.14Z" style="fill:none;stroke:#423c25;stroke-miterlimit:10;stroke-width:0.6007771492004395px"/><path d="M141.35,4.87a.07.07,0,0,1,.05,0L147.82,2,144.9,7.55a.24.24,0,0,1-.2.12.3.3,0,0,1-.15,0L141.38,5A.1.1,0,0,1,141.35,4.87Z" style="fill:none;stroke:#423c25;stroke-miterlimit:10;stroke-width:0.6007771492004395px"/><path d="M135.16,3a.16.16,0,0,0,0-.15l-3.32-6L131.1,4.1a.14.14,0,0,0,.1.16.17.17,0,0,0,.1,0l3.75-1.17A.16.16,0,0,0,135.16,3Z" style="fill:none;stroke:#423c25;stroke-miterlimit:10;stroke-width:0.6007771492004395px"/><path d="M125.55,12.76a.17.17,0,0,1-.12,0l-6.5-4,7.7.15a.21.21,0,0,1,.11,0,.16.16,0,0,1,0,.15l-1.13,3.61A.12.12,0,0,1,125.55,12.76Z" style="fill:none;stroke:#423c25;stroke-miterlimit:10;stroke-width:0.6007771492004395px"/><path d="M137.18,11.83a2.32,2.32,0,1,1-3.27.29A2.32,2.32,0,0,1,137.18,11.83Z" style="fill:none;stroke:#423c25;stroke-miterlimit:10;stroke-width:0.6007771492004395px"/><path d="M152.46,18.51l-7.4-.36a.1.1,0,0,1-.08-.06.06.06,0,0,1,0-.06l1.3-4.14v0h0Z" style="fill:#423c25"/><path d="M147.82,2,144.9,7.55a.24.24,0,0,1-.2.12.3.3,0,0,1-.15,0L141.38,5a.1.1,0,0,1,0-.14.07.07,0,0,1,.05,0Z" style="fill:#423c25"/><path d="M146.29,13.84a2.72,2.72,0,0,0,1.53-1l10.71,7.68-13.4-.64a2.78,2.78,0,0,0-.2-1.77l0,0a.1.1,0,0,0,.08.06l7.4.36-6.13-4.64h0Z" style="fill:#fff"/><path d="M146.34,8.42a2.74,2.74,0,0,0-1.64-.63V7.67a.24.24,0,0,0,.2-.12L147.82,2,141.4,4.83a.07.07,0,0,0-.05,0l-.1,0a2.57,2.57,0,0,0-.14-1.8l12-6.23Z" style="fill:#fff"/><path d="M140.24,22.2a.11.11,0,0,1,.07.12l-.23,7.55-4-6.34a.15.15,0,0,1,0-.14.15.15,0,0,1,.11-.11l4-1.09Z" style="fill:#423c25"/><path d="M137.18,11.83a2.32,2.32,0,1,1-3.27.29A2.32,2.32,0,0,1,137.18,11.83Z" style="fill:#fff"/><path d="M136.07,23.53l4,6.34.23-7.55a.11.11,0,0,0-.07-.12l0-.07a2.9,2.9,0,0,0,1.34.51V36.35L134.43,25a2.63,2.63,0,0,0,1.46-1.55.51.51,0,0,0,0-.13l.13,0A.15.15,0,0,0,136.07,23.53Z" style="fill:#fff"/><path d="M135.15,2.83a.16.16,0,0,1,0,.15.16.16,0,0,1-.11.12L131.3,4.27a.17.17,0,0,1-.1,0,.14.14,0,0,1-.1-.16l.73-7.26Z" style="fill:#423c25"/><path d="M131.1,4.36a2.7,2.7,0,0,0-1.85-.81l.94-13.49,6.55,11.71A2.6,2.6,0,0,0,135.27,3l-.11,0a.16.16,0,0,0,0-.15l-3.32-6L131.1,4.1a.14.14,0,0,0,.1.16Z" style="fill:#fff"/><path d="M130,21.21a.09.09,0,0,1,0,.11l0,0-7,3.87,3.65-6.12a.16.16,0,0,1,.13-.08.14.14,0,0,1,.09,0Z" style="fill:#423c25"/><path d="M126.83,19a.16.16,0,0,0-.13.08l-3.65,6.12,7-3.87,0,0,.07,0a1.69,1.69,0,0,0-.18.45,2.61,2.61,0,0,0,.35,1.87l-12.09,6.12,6.91-11.5a2.72,2.72,0,0,0,1.73.66Z" style="fill:#fff"/><path d="M126.77,9.05a.16.16,0,0,0,0-.15l.06-.08a3.16,3.16,0,0,0,3.4-.25c.1-.07,2-1.34,1.49-3.12a2.56,2.56,0,0,0-.59-1.09l.1-.1a.17.17,0,0,0,.1,0l3.75-1.17a.16.16,0,0,0,.11-.12l.11,0a1.08,1.08,0,0,0-.08.19c-.41,1.29.75,2.61,1.76,3.15.12.07,2.11,1.1,3.46-.16a2.88,2.88,0,0,0,.84-1.37l.1,0a.1.1,0,0,0,0,.14l3.17,2.61a.3.3,0,0,0,.15,0v.12a1.94,1.94,0,0,0-.4,0c-1.31.31-1.86,2-1.81,3.13,0,.13.14,2.37,1.9,2.89a3.5,3.5,0,0,0,1.9,0v.05L145,18a.06.06,0,0,0,0,.06l0,0a2,2,0,0,0-.22-.32c-.87-1-2.6-.75-3.61-.17-.11.06-2,1.21-1.69,3a2.31,2.31,0,0,0,.88,1.49l0,.07h-.08l-4,1.09a.15.15,0,0,0-.11.11l-.13,0c.23-1.25-.95-2.44-2-2.92-.12-.05-2.17-1-3.44.36a2,2,0,0,0-.4.55l-.07,0a.09.09,0,0,0,0-.11l-3.09-2.16a.14.14,0,0,0-.09,0V19a1.65,1.65,0,0,0,.3,0c1.32-.28,1.89-1.94,1.86-3.1,0-.13-.1-2.37-1.85-2.92a2.86,2.86,0,0,0-1.56-.05l0-.08a.12.12,0,0,0,.09-.1Zm10.71,6a2.33,2.33,0,1,0-3.28.29A2.32,2.32,0,0,0,137.48,15.1Z" style="fill:#423c25"/><path d="M125.43,12.75l-6.5-4,7.7.15a.21.21,0,0,1,.11,0,.16.16,0,0,1,0,.15l-1.13,3.61a.12.12,0,0,1-.09.1A.17.17,0,0,1,125.43,12.75Z" style="fill:#423c25"/><path d="M125.55,12.76l0,.08a2.61,2.61,0,0,0-1.49,1l-11.47-7L126,6.58a2.57,2.57,0,0,0,.55,2.05,1,1,0,0,0,.22.19l-.06.08a.21.21,0,0,0-.11,0l-7.7-.15,6.5,4A.17.17,0,0,0,125.55,12.76Z" style="fill:#fff"/><path d="M144.7,7.79a2.74,2.74,0,0,1,1.64.63l6.73-11.61L141.11,3a2.57,2.57,0,0,1,.14,1.8,2.88,2.88,0,0,1-.84,1.37c-1.35,1.26-3.34.23-3.46.16-1-.54-2.17-1.86-1.76-3.15a1.08,1.08,0,0,1,.08-.19,2.6,2.6,0,0,1,1.47-1.26L130.19-9.94l-.94,13.49a2.7,2.7,0,0,1,1.85.81,2.56,2.56,0,0,1,.59,1.09c.47,1.78-1.39,3.05-1.49,3.12a3.16,3.16,0,0,1-3.4.25,1,1,0,0,1-.22-.19A2.57,2.57,0,0,1,126,6.58l-13.41.24,11.47,7a2.61,2.61,0,0,1,1.49-1,2.86,2.86,0,0,1,1.56.05c1.75.55,1.85,2.79,1.85,2.92,0,1.16-.54,2.82-1.86,3.1a1.65,1.65,0,0,1-.3,0,2.72,2.72,0,0,1-1.73-.66l-6.91,11.5,12.09-6.12a2.61,2.61,0,0,1-.35-1.87,1.69,1.69,0,0,1,.18-.45,2,2,0,0,1,.4-.55c1.27-1.33,3.32-.41,3.44-.36,1,.48,2.19,1.67,2,2.92a.51.51,0,0,1,0,.13A2.63,2.63,0,0,1,134.43,25l7.2,11.31V22.64a2.9,2.9,0,0,1-1.34-.51,2.31,2.31,0,0,1-.88-1.49c-.35-1.81,1.58-3,1.69-3,1-.58,2.74-.85,3.61.17a2,2,0,0,1,.22.32,2.78,2.78,0,0,1,.2,1.77l13.4.64-10.71-7.68a2.72,2.72,0,0,1-1.53,1,3.5,3.5,0,0,1-1.9,0c-1.76-.52-1.89-2.76-1.9-2.89-.05-1.15.5-2.82,1.81-3.13A1.94,1.94,0,0,1,144.7,7.79Z" style="fill:none;stroke:#423c25;stroke-miterlimit:10;stroke-width:0.6007771492004395px"/><path d="M130,21.32l0,0-7,3.87,3.65-6.12a.16.16,0,0,1,.13-.08.14.14,0,0,1,.09,0L130,21.21A.09.09,0,0,1,130,21.32Z" style="fill:none;stroke:#423c25;stroke-miterlimit:10;stroke-width:0.6007771492004395px"/><path d="M136,23.39a.15.15,0,0,0,0,.14l4,6.34.23-7.55a.11.11,0,0,0-.07-.12h-.08l-4,1.09A.15.15,0,0,0,136,23.39Z" style="fill:none;stroke:#423c25;stroke-miterlimit:10;stroke-width:0.6007771492004395px"/><path d="M146.29,13.87h0l6.13,4.64-7.4-.36a.1.1,0,0,1-.08-.06.06.06,0,0,1,0-.06l1.3-4.14Z" style="fill:none;stroke:#423c25;stroke-miterlimit:10;stroke-width:0.6007771492004395px"/><path d="M141.35,4.87a.07.07,0,0,1,.05,0L147.82,2,144.9,7.55a.24.24,0,0,1-.2.12.3.3,0,0,1-.15,0L141.38,5A.1.1,0,0,1,141.35,4.87Z" style="fill:none;stroke:#423c25;stroke-miterlimit:10;stroke-width:0.6007771492004395px"/><path d="M135.16,3a.16.16,0,0,0,0-.15l-3.32-6L131.1,4.1a.14.14,0,0,0,.1.16.17.17,0,0,0,.1,0l3.75-1.17A.16.16,0,0,0,135.16,3Z" style="fill:none;stroke:#423c25;stroke-miterlimit:10;stroke-width:0.6007771492004395px"/><path d="M125.55,12.76a.17.17,0,0,1-.12,0l-6.5-4,7.7.15a.21.21,0,0,1,.11,0,.16.16,0,0,1,0,.15l-1.13,3.61A.12.12,0,0,1,125.55,12.76Z" style="fill:none;stroke:#423c25;stroke-miterlimit:10;stroke-width:0.6007771492004395px"/><path d="M137.18,11.83a2.32,2.32,0,1,1-3.27.29A2.32,2.32,0,0,1,137.18,11.83Z" style="fill:none;stroke:#423c25;stroke-miterlimit:10;stroke-width:0.6007771492004395px"/><path d="M152.46,18.51l-7.4-.36a.1.1,0,0,1-.08-.06.06.06,0,0,1,0-.06l1.3-4.14v0h0Z" style="fill:#423c25"/><path d="M147.82,2,144.9,7.55a.24.24,0,0,1-.2.12.3.3,0,0,1-.15,0L141.38,5a.1.1,0,0,1,0-.14.07.07,0,0,1,.05,0Z" style="fill:#423c25"/><path d="M146.29,13.84a2.72,2.72,0,0,0,1.53-1l10.71,7.68-13.4-.64a2.78,2.78,0,0,0-.2-1.77l0,0a.1.1,0,0,0,.08.06l7.4.36-6.13-4.64h0Z" style="fill:#fff"/><path d="M141.25,4.84a2.57,2.57,0,0,0-.14-1.8l12-6.23L146.34,8.42a2.74,2.74,0,0,0-1.64-.63V7.67a.24.24,0,0,0,.2-.12L147.82,2,141.4,4.83a.07.07,0,0,0-.05,0Z" style="fill:#fff"/><path d="M140.24,22.2a.11.11,0,0,1,.07.12l-.23,7.55-4-6.34a.15.15,0,0,1,0-.14.15.15,0,0,1,.11-.11l4-1.09Z" style="fill:#423c25"/><path d="M137.18,11.83a2.32,2.32,0,1,1-3.27.29A2.32,2.32,0,0,1,137.18,11.83Z" style="fill:#fff"/><path d="M140.08,29.87l.23-7.55a.11.11,0,0,0-.07-.12l0-.07a2.9,2.9,0,0,0,1.34.51V36.35L134.43,25a2.63,2.63,0,0,0,1.46-1.55.51.51,0,0,0,0-.13l.13,0a.15.15,0,0,0,0,.14Z" style="fill:#fff"/><path d="M135.15,2.83a.16.16,0,0,1,0,.15.16.16,0,0,1-.11.12L131.3,4.27a.17.17,0,0,1-.1,0,.14.14,0,0,1-.1-.16l.73-7.26Z" style="fill:#423c25"/><path d="M131.1,4.1a.14.14,0,0,0,.1.16l-.1.1a2.7,2.7,0,0,0-1.85-.81l.94-13.49,6.55,11.71A2.6,2.6,0,0,0,135.27,3l-.11,0a.16.16,0,0,0,0-.15l-3.32-6Z" style="fill:#fff"/><path d="M130,21.21a.09.09,0,0,1,0,.11l0,0-7,3.87,3.65-6.12a.16.16,0,0,1,.13-.08.14.14,0,0,1,.09,0Z" style="fill:#423c25"/><path d="M125.1,18.29a2.72,2.72,0,0,0,1.73.66V19a.16.16,0,0,0-.13.08l-3.65,6.12,7-3.87,0,0,.07,0a1.69,1.69,0,0,0-.18.45,2.61,2.61,0,0,0,.35,1.87l-12.09,6.12Z" style="fill:#fff"/><path d="M131.3,4.27l3.75-1.17a.16.16,0,0,0,.11-.12l.11,0a1.08,1.08,0,0,0-.08.19c-.41,1.29.75,2.61,1.76,3.15.12.07,2.11,1.1,3.46-.16a2.88,2.88,0,0,0,.84-1.37l.1,0a.1.1,0,0,0,0,.14l3.17,2.61a.3.3,0,0,0,.15,0v.12a1.94,1.94,0,0,0-.4,0c-1.31.31-1.86,2-1.81,3.13,0,.13.14,2.37,1.9,2.89a3.5,3.5,0,0,0,1.9,0v.05L145,18a.06.06,0,0,0,0,.06l0,0a2,2,0,0,0-.22-.32c-.87-1-2.6-.75-3.61-.17-.11.06-2,1.21-1.69,3a2.31,2.31,0,0,0,.88,1.49l0,.07h-.08l-4,1.09a.15.15,0,0,0-.11.11l-.13,0c.23-1.25-.95-2.44-2-2.92-.12-.05-2.17-1-3.44.36a2,2,0,0,0-.4.55l-.07,0a.09.09,0,0,0,0-.11l-3.09-2.16a.14.14,0,0,0-.09,0V19a1.65,1.65,0,0,0,.3,0c1.32-.28,1.89-1.94,1.86-3.1,0-.13-.1-2.37-1.85-2.92a2.86,2.86,0,0,0-1.56-.05l0-.08a.12.12,0,0,0,.09-.1l1.13-3.61a.16.16,0,0,0,0-.15l.06-.08a3.16,3.16,0,0,0,3.4-.25c.1-.07,2-1.34,1.49-3.12a2.56,2.56,0,0,0-.59-1.09l.1-.1A.17.17,0,0,0,131.3,4.27Zm6.18,10.83a2.33,2.33,0,1,0-3.28.29A2.32,2.32,0,0,0,137.48,15.1Z" style="fill:#423c25"/><path d="M125.43,12.75l-6.5-4,7.7.15a.21.21,0,0,1,.11,0,.16.16,0,0,1,0,.15l-1.13,3.61a.12.12,0,0,1-.09.1A.17.17,0,0,1,125.43,12.75Z" style="fill:#423c25"/><path d="M126.74,8.9a.21.21,0,0,0-.11,0l-7.7-.15,6.5,4a.17.17,0,0,0,.12,0l0,.08a2.61,2.61,0,0,0-1.49,1l-11.47-7L126,6.58a2.57,2.57,0,0,0,.55,2.05,1,1,0,0,0,.22.19Z" style="fill:#fff"/><path d="M144.7,7.79a2.74,2.74,0,0,1,1.64.63l6.73-11.61L141.11,3a2.57,2.57,0,0,1,.14,1.8,2.88,2.88,0,0,1-.84,1.37c-1.35,1.26-3.34.23-3.46.16-1-.54-2.17-1.86-1.76-3.15a1.08,1.08,0,0,1,.08-.19,2.6,2.6,0,0,1,1.47-1.26L130.19-9.94l-.94,13.49a2.7,2.7,0,0,1,1.85.81,2.56,2.56,0,0,1,.59,1.09c.47,1.78-1.39,3.05-1.49,3.12a3.16,3.16,0,0,1-3.4.25,1,1,0,0,1-.22-.19A2.57,2.57,0,0,1,126,6.58l-13.41.24,11.47,7a2.61,2.61,0,0,1,1.49-1,2.86,2.86,0,0,1,1.56.05c1.75.55,1.85,2.79,1.85,2.92,0,1.16-.54,2.82-1.86,3.1a1.65,1.65,0,0,1-.3,0,2.72,2.72,0,0,1-1.73-.66l-6.91,11.5,12.09-6.12a2.61,2.61,0,0,1-.35-1.87,1.69,1.69,0,0,1,.18-.45,2,2,0,0,1,.4-.55c1.27-1.33,3.32-.41,3.44-.36,1,.48,2.19,1.67,2,2.92a.51.51,0,0,1,0,.13A2.63,2.63,0,0,1,134.43,25l7.2,11.31V22.64a2.9,2.9,0,0,1-1.34-.51,2.31,2.31,0,0,1-.88-1.49c-.35-1.81,1.58-3,1.69-3,1-.58,2.74-.85,3.61.17a2,2,0,0,1,.22.32,2.78,2.78,0,0,1,.2,1.77l13.4.64-10.71-7.68a2.72,2.72,0,0,1-1.53,1,3.5,3.5,0,0,1-1.9,0c-1.76-.52-1.89-2.76-1.9-2.89-.05-1.15.5-2.82,1.81-3.13A1.94,1.94,0,0,1,144.7,7.79Z" style="fill:none;stroke:#423c25;stroke-miterlimit:10;stroke-width:0.6007771492004395px"/><path d="M130,21.32l0,0-7,3.87,3.65-6.12a.16.16,0,0,1,.13-.08.14.14,0,0,1,.09,0L130,21.21A.09.09,0,0,1,130,21.32Z" style="fill:none;stroke:#423c25;stroke-miterlimit:10;stroke-width:0.6007771492004395px"/><path d="M136,23.39a.15.15,0,0,0,0,.14l4,6.34.23-7.55a.11.11,0,0,0-.07-.12h-.08l-4,1.09A.15.15,0,0,0,136,23.39Z" style="fill:none;stroke:#423c25;stroke-miterlimit:10;stroke-width:0.6007771492004395px"/><path d="M146.29,13.87h0l6.13,4.64-7.4-.36a.1.1,0,0,1-.08-.06.06.06,0,0,1,0-.06l1.3-4.14Z" style="fill:none;stroke:#423c25;stroke-miterlimit:10;stroke-width:0.6007771492004395px"/><path d="M141.35,4.87a.07.07,0,0,1,.05,0L147.82,2,144.9,7.55a.24.24,0,0,1-.2.12.3.3,0,0,1-.15,0L141.38,5A.1.1,0,0,1,141.35,4.87Z" style="fill:none;stroke:#423c25;stroke-miterlimit:10;stroke-width:0.6007771492004395px"/><path d="M135.16,3a.16.16,0,0,0,0-.15l-3.32-6L131.1,4.1a.14.14,0,0,0,.1.16.17.17,0,0,0,.1,0l3.75-1.17A.16.16,0,0,0,135.16,3Z" style="fill:none;stroke:#423c25;stroke-miterlimit:10;stroke-width:0.6007771492004395px"/><path d="M125.55,12.76a.17.17,0,0,1-.12,0l-6.5-4,7.7.15a.21.21,0,0,1,.11,0,.16.16,0,0,1,0,.15l-1.13,3.61A.12.12,0,0,1,125.55,12.76Z" style="fill:none;stroke:#423c25;stroke-miterlimit:10;stroke-width:0.6007771492004395px"/><path d="M137.18,11.83a2.32,2.32,0,1,1-3.27.29A2.32,2.32,0,0,1,137.18,11.83Z" style="fill:none;stroke:#423c25;stroke-miterlimit:10;stroke-width:0.6007771492004395px"/><path d="M152.46,18.51l-7.4-.36a.1.1,0,0,1-.08-.06.06.06,0,0,1,0-.06l1.3-4.14v0h0Z" style="fill:#423c25"/><path d="M147.82,2,144.9,7.55a.24.24,0,0,1-.2.12.3.3,0,0,1-.15,0L141.38,5a.1.1,0,0,1,0-.14.07.07,0,0,1,.05,0Z" style="fill:#423c25"/><path d="M146.33,13.87h0v0a2.72,2.72,0,0,0,1.53-1l10.71,7.68-13.4-.64a2.78,2.78,0,0,0-.2-1.77l0,0a.1.1,0,0,0,.08.06l7.4.36Z" style="fill:#fff"/><path d="M144.7,7.67a.24.24,0,0,0,.2-.12L147.82,2,141.4,4.83a.07.07,0,0,0-.05,0l-.1,0a2.57,2.57,0,0,0-.14-1.8l12-6.23L146.34,8.42a2.74,2.74,0,0,0-1.64-.63Z" style="fill:#fff"/><path d="M140.24,22.2a.11.11,0,0,1,.07.12l-.23,7.55-4-6.34a.15.15,0,0,1,0-.14.15.15,0,0,1,.11-.11l4-1.09Z" style="fill:#423c25"/><path d="M137.18,11.83a2.32,2.32,0,1,1-3.27.29A2.32,2.32,0,0,1,137.18,11.83Z" style="fill:#fff"/><path d="M136,23.39a.15.15,0,0,0,0,.14l4,6.34.23-7.55a.11.11,0,0,0-.07-.12l0-.07a2.9,2.9,0,0,0,1.34.51V36.35L134.43,25a2.63,2.63,0,0,0,1.46-1.55.51.51,0,0,0,0-.13Z" style="fill:#fff"/><path d="M135.15,2.83a.16.16,0,0,1,0,.15.16.16,0,0,1-.11.12L131.3,4.27a.17.17,0,0,1-.1,0,.14.14,0,0,1-.1-.16l.73-7.26Z" style="fill:#423c25"/><path d="M131.1,4.36a2.7,2.7,0,0,0-1.85-.81l.94-13.49,6.55,11.71A2.6,2.6,0,0,0,135.27,3l-.11,0a.16.16,0,0,0,0-.15l-3.32-6L131.1,4.1a.14.14,0,0,0,.1.16Z" style="fill:#fff"/><path d="M130,21.21a.09.09,0,0,1,0,.11l0,0-7,3.87,3.65-6.12a.16.16,0,0,1,.13-.08.14.14,0,0,1,.09,0Z" style="fill:#423c25"/><path d="M130,21.35l0,0,.07,0a1.69,1.69,0,0,0-.18.45,2.61,2.61,0,0,0,.35,1.87l-12.09,6.12,6.91-11.5a2.72,2.72,0,0,0,1.73.66V19a.16.16,0,0,0-.13.08l-3.65,6.12Z" style="fill:#fff"/><path d="M130.51,20.8a2,2,0,0,0-.4.55l-.07,0a.09.09,0,0,0,0-.11l-3.09-2.16a.14.14,0,0,0-.09,0V19a1.65,1.65,0,0,0,.3,0c1.32-.28,1.89-1.94,1.86-3.1,0-.13-.1-2.37-1.85-2.92a2.86,2.86,0,0,0-1.56-.05l0-.08a.12.12,0,0,0,.09-.1l1.13-3.61a.16.16,0,0,0,0-.15l.06-.08a3.16,3.16,0,0,0,3.4-.25c.1-.07,2-1.34,1.49-3.12a2.56,2.56,0,0,0-.59-1.09l.1-.1a.17.17,0,0,0,.1,0l3.75-1.17a.16.16,0,0,0,.11-.12l.11,0a1.08,1.08,0,0,0-.08.19c-.41,1.29.75,2.61,1.76,3.15.12.07,2.11,1.1,3.46-.16a2.88,2.88,0,0,0,.84-1.37l.1,0a.1.1,0,0,0,0,.14l3.17,2.61a.3.3,0,0,0,.15,0v.12a1.94,1.94,0,0,0-.4,0c-1.31.31-1.86,2-1.81,3.13,0,.13.14,2.37,1.9,2.89a3.5,3.5,0,0,0,1.9,0v.05L145,18a.06.06,0,0,0,0,.06l0,0a2,2,0,0,0-.22-.32c-.87-1-2.6-.75-3.61-.17-.11.06-2,1.21-1.69,3a2.31,2.31,0,0,0,.88,1.49l0,.07h-.08l-4,1.09a.15.15,0,0,0-.11.11l-.13,0c.23-1.25-.95-2.44-2-2.92C133.83,20.39,131.78,19.47,130.51,20.8Zm7-5.7a2.33,2.33,0,1,0-3.28.29A2.32,2.32,0,0,0,137.48,15.1Z" style="fill:#423c25"/><path d="M125.43,12.75l-6.5-4,7.7.15a.21.21,0,0,1,.11,0,.16.16,0,0,1,0,.15l-1.13,3.61a.12.12,0,0,1-.09.1A.17.17,0,0,1,125.43,12.75Z" style="fill:#423c25"/><path d="M125.43,12.75a.17.17,0,0,0,.12,0l0,.08a2.61,2.61,0,0,0-1.49,1l-11.47-7L126,6.58a2.57,2.57,0,0,0,.55,2.05,1,1,0,0,0,.22.19l-.06.08a.21.21,0,0,0-.11,0l-7.7-.15Z" style="fill:#fff"/><path d="M144.7,7.79a2.74,2.74,0,0,1,1.64.63l6.73-11.61L141.11,3a2.57,2.57,0,0,1,.14,1.8,2.88,2.88,0,0,1-.84,1.37c-1.35,1.26-3.34.23-3.46.16-1-.54-2.17-1.86-1.76-3.15a1.08,1.08,0,0,1,.08-.19,2.6,2.6,0,0,1,1.47-1.26L130.19-9.94l-.94,13.49a2.7,2.7,0,0,1,1.85.81,2.56,2.56,0,0,1,.59,1.09c.47,1.78-1.39,3.05-1.49,3.12a3.16,3.16,0,0,1-3.4.25,1,1,0,0,1-.22-.19A2.57,2.57,0,0,1,126,6.58l-13.41.24,11.47,7a2.61,2.61,0,0,1,1.49-1,2.86,2.86,0,0,1,1.56.05c1.75.55,1.85,2.79,1.85,2.92,0,1.16-.54,2.82-1.86,3.1a1.65,1.65,0,0,1-.3,0,2.72,2.72,0,0,1-1.73-.66l-6.91,11.5,12.09-6.12a2.61,2.61,0,0,1-.35-1.87,1.69,1.69,0,0,1,.18-.45,2,2,0,0,1,.4-.55c1.27-1.33,3.32-.41,3.44-.36,1,.48,2.19,1.67,2,2.92a.51.51,0,0,1,0,.13A2.63,2.63,0,0,1,134.43,25l7.2,11.31V22.64a2.9,2.9,0,0,1-1.34-.51,2.31,2.31,0,0,1-.88-1.49c-.35-1.81,1.58-3,1.69-3,1-.58,2.74-.85,3.61.17a2,2,0,0,1,.22.32,2.78,2.78,0,0,1,.2,1.77l13.4.64-10.71-7.68a2.72,2.72,0,0,1-1.53,1,3.5,3.5,0,0,1-1.9,0c-1.76-.52-1.89-2.76-1.9-2.89-.05-1.15.5-2.82,1.81-3.13A1.94,1.94,0,0,1,144.7,7.79Z" style="fill:none;stroke:#423c25;stroke-miterlimit:10;stroke-width:0.6007771492004395px"/><path d="M130,21.32l0,0-7,3.87,3.65-6.12a.16.16,0,0,1,.13-.08.14.14,0,0,1,.09,0L130,21.21A.09.09,0,0,1,130,21.32Z" style="fill:none;stroke:#423c25;stroke-miterlimit:10;stroke-width:0.6007771492004395px"/><path d="M136,23.39a.15.15,0,0,0,0,.14l4,6.34.23-7.55a.11.11,0,0,0-.07-.12h-.08l-4,1.09A.15.15,0,0,0,136,23.39Z" style="fill:none;stroke:#423c25;stroke-miterlimit:10;stroke-width:0.6007771492004395px"/><path d="M146.29,13.87h0l6.13,4.64-7.4-.36a.1.1,0,0,1-.08-.06.06.06,0,0,1,0-.06l1.3-4.14Z" style="fill:none;stroke:#423c25;stroke-miterlimit:10;stroke-width:0.6007771492004395px"/><path d="M141.35,4.87a.07.07,0,0,1,.05,0L147.82,2,144.9,7.55a.24.24,0,0,1-.2.12.3.3,0,0,1-.15,0L141.38,5A.1.1,0,0,1,141.35,4.87Z" style="fill:none;stroke:#423c25;stroke-miterlimit:10;stroke-width:0.6007771492004395px"/><path d="M135.16,3a.16.16,0,0,0,0-.15l-3.32-6L131.1,4.1a.14.14,0,0,0,.1.16.17.17,0,0,0,.1,0l3.75-1.17A.16.16,0,0,0,135.16,3Z" style="fill:none;stroke:#423c25;stroke-miterlimit:10;stroke-width:0.6007771492004395px"/><path d="M125.55,12.76a.17.17,0,0,1-.12,0l-6.5-4,7.7.15a.21.21,0,0,1,.11,0,.16.16,0,0,1,0,.15l-1.13,3.61A.12.12,0,0,1,125.55,12.76Z" style="fill:none;stroke:#423c25;stroke-miterlimit:10;stroke-width:0.6007771492004395px"/><path d="M137.18,11.83a2.32,2.32,0,1,1-3.27.29A2.32,2.32,0,0,1,137.18,11.83Z" style="fill:none;stroke:#423c25;stroke-miterlimit:10;stroke-width:0.6007771492004395px"/><text id="ea619818-7897-44ed-be22-af52ac1ca54f" data-name="11"/><text id="aac5f096-f4e7-40c0-a956-8f6967531721" data-name="11 TXT"/></g></svg>