<svg xmlns="http://www.w3.org/2000/svg" width="24" height="24" viewBox="0 0 24 24"><title>logo-toolbar</title><g id="a85edca0-8c70-4e72-a50e-447685569417" data-name="logo-toolbar"><path d="M23.277,15.6317l-6.657-.3179a1.3743,1.3743,0,0,0-.1-.8741l.0257-.0128a.05.05,0,0,0,.041.0282l3.6758.182L17.2173,12.33l-.01-.0026-.0051-.0154a1.3482,1.3482,0,0,0,.7536-.4947Z" style="fill:#423c25"/><path d="M20.5624,3.8557l-3.34,5.7675a1.3907,1.3907,0,0,0-.8151-.3153l-.0026-.0589a.1138.1138,0,0,0,.1-.0616l1.4508-2.753L14.7667,7.8365a.0488.0488,0,0,0-.0256.0206L14.69,7.8442a1.3023,1.3023,0,0,0-.0666-.8971Z" style="fill:#423c25"/><path d="M20.2625,14.6371l-3.6758-.182a.05.05,0,0,1-.041-.0282.0425.0425,0,0,1,0-.0308l.6459-2.0583a.0161.0161,0,0,1,.0154-.01l.01.0026Z" style="fill:#423c25"/><path d="M17.9555,6.4344l-1.4508,2.753a.1138.1138,0,0,1-.1.0616.1212.1212,0,0,1-.0692-.0257L14.7539,7.9288a.0561.0561,0,0,1-.0128-.0717.0488.0488,0,0,1,.0256-.0206Z" style="fill:#423c25"/><path d="M17.2019,12.3121l.0051.0154a.0161.0161,0,0,0-.0154.01l-.6459,2.0583a.0425.0425,0,0,0,0,.0308L16.52,14.44a.8009.8009,0,0,0-.1076-.1615,1.4916,1.4916,0,0,0-1.7918-.0846c-.0564.0308-1.0151.6024-.8408,1.5a1.1722,1.1722,0,0,0,.4537.7536l-.023.0333a.07.07,0,0,0-.059-.0153l-1.9917.5383a.076.076,0,0,0-.0538.0538l-.0641-.0128c.1128-.6255-.4742-1.2125-.9766-1.4458a1.5843,1.5843,0,0,0-1.71.1769,1.2675,1.2675,0,0,0-.2025.2717l-.0308-.0153a.04.04,0,0,0-.01-.0539l-1.5355-1.074a.0691.0691,0,0,0-.0435-.0154L7.53,14.8524a.7633.7633,0,0,0,.1487-.0179c.6536-.141.9382-.9638.9228-1.538,0-.0667-.0487-1.1817-.9228-1.4534A1.3961,1.3961,0,0,0,6.905,11.82l-.0129-.041a.0734.0734,0,0,0,.0462-.0487l.5639-1.7918a.0719.0719,0,0,0-.0179-.0718l.0307-.0436a1.58,1.58,0,0,0,1.6841-.1256c.0539-.0359.9741-.6664.7409-1.5508a1.2886,1.2886,0,0,0-.2923-.5409l.0487-.0487A.0963.0963,0,0,0,9.75,7.56l1.8584-.5819a.0943.0943,0,0,0,.0615-.0589l.0487.0256c-.0128.0308-.0256.0615-.0359.0949-.205.6382.3691,1.2944.8741,1.5662a1.5944,1.5944,0,0,0,1.72-.08,1.4446,1.4446,0,0,0,.4127-.6819l.0513.0129a.0561.0561,0,0,0,.0128.0717l1.5816,1.2945a.1212.1212,0,0,0,.0692.0257l.0026.0589a.92.92,0,0,0-.2.0231c-.6511.1512-.9228.9792-.9,1.5534.0026.0666.0692,1.1791.9459,1.4354A1.7534,1.7534,0,0,0,17.2019,12.3121Zm-4.05.8075a1.6024,1.6024,0,1,0-2.2557.2025A1.6013,1.6013,0,0,0,13.1518,13.12Z" style="fill:#423c25"/><path d="M14.88,16.8159v6.6852l-3.5784-5.6239a1.2869,1.2869,0,0,0,.728-.7665c.0051-.0231.01-.0461.0128-.0666l.0641.0128a.0861.0861,0,0,0,.01.0743l1.9943,3.1452.1179-3.75a.0742.0742,0,0,0-.0179-.0462l.023-.0333a1.4016,1.4016,0,0,0,.646.241Z" style="fill:#423c25"/><path d="M14.2284,16.5263l-.1179,3.75-1.9943-3.1452a.0861.0861,0,0,1-.01-.0743.076.076,0,0,1,.0538-.0538l1.9917-.5383a.07.07,0,0,1,.059.0153A.0742.0742,0,0,1,14.2284,16.5263Z" style="fill:#423c25"/><path d="M9.1966.5,12.452,6.3165a1.321,1.321,0,0,0-.7331.628L11.67,6.9189a.0854.0854,0,0,0-.0077-.0744L10.0092,3.8711l-.3615,3.604a.0827.0827,0,0,0,.0487.082l-.0487.0487a1.3431,1.3431,0,0,0-.92-.4024Z" style="fill:#423c25"/><path d="M11.6625,6.8445a.0854.0854,0,0,1,.0077.0744.0943.0943,0,0,1-.0615.0589L9.75,7.56a.0963.0963,0,0,1-.0539-.0026.0827.0827,0,0,1-.0487-.082l.3615-3.604Z" style="fill:#423c25"/><path d="M9.24,17.2,3.2368,20.238l3.43-5.7137a1.3635,1.3635,0,0,0,.8638.3281l.0026.0359a.0778.0778,0,0,0-.0692.041l-1.8123,3.04,3.4528-1.9225a.1093.1093,0,0,0,.0179-.0153l.0308.0153a.8388.8388,0,0,0-.0871.22A1.3267,1.3267,0,0,0,9.24,17.2Z" style="fill:#423c25"/><path d="M9.112,15.9777a.04.04,0,0,1,.01.0539.1093.1093,0,0,1-.0179.0153L5.6515,17.9694l1.8123-3.04a.0778.0778,0,0,1,.0692-.041.0691.0691,0,0,1,.0435.0154Z" style="fill:#423c25"/><path d="M7.515,9.8231l-.0307.0436a.0716.0716,0,0,0-.0564-.0231L3.6008,9.7667l3.2324,2.0046a.0818.0818,0,0,0,.0589.0077l.0129.041a1.3189,1.3189,0,0,0-.7409.51L.4684,8.826l6.6621-.1179a1.2781,1.2781,0,0,0,.2743,1.02A.7476.7476,0,0,0,7.515,9.8231Z" style="fill:#423c25"/><path d="M7.4843,9.8667a.0719.0719,0,0,1,.0179.0718L6.9383,11.73a.0734.0734,0,0,1-.0462.0487.0818.0818,0,0,1-.0589-.0077L3.6008,9.7667l3.8271.0769A.0716.0716,0,0,1,7.4843,9.8667Z" style="fill:#423c25"/><path d="M16.4073,9.3079a1.3907,1.3907,0,0,1,.8151.3153l3.34-5.7675L14.6232,6.9471a1.3023,1.3023,0,0,1,.0666.8971,1.4446,1.4446,0,0,1-.4127.6819,1.5944,1.5944,0,0,1-1.72.08c-.505-.2718-1.0791-.928-.8741-1.5662.01-.0334.0231-.0641.0359-.0949a1.321,1.321,0,0,1,.7331-.628L9.1966.5,8.7275,7.2034a1.3431,1.3431,0,0,1,.92.4024,1.2886,1.2886,0,0,1,.2923.5409c.2332.8844-.687,1.5149-.7409,1.5508a1.58,1.58,0,0,1-1.6841.1256.7476.7476,0,0,1-.11-.0948,1.2781,1.2781,0,0,1-.2743-1.02L.4684,8.826,6.1641,12.33a1.3189,1.3189,0,0,1,.7409-.51,1.3961,1.3961,0,0,1,.7741.0231c.8741.2717.9228,1.3867.9228,1.4534.0154.5742-.2692,1.397-.9228,1.538a.7633.7633,0,0,1-.1487.0179,1.3635,1.3635,0,0,1-.8638-.3281l-3.43,5.7137L9.24,17.2a1.3267,1.3267,0,0,1-.1743-.933.8388.8388,0,0,1,.0871-.22,1.2675,1.2675,0,0,1,.2025-.2717,1.5843,1.5843,0,0,1,1.71-.1769c.5024.2333,1.0894.82.9766,1.4458-.0026.02-.0077.0435-.0128.0666a1.2869,1.2869,0,0,1-.728.7665L14.88,23.5011V16.6878a1.4016,1.4016,0,0,1-.646-.241,1.1722,1.1722,0,0,1-.4537-.7536c-.1743-.8972.7844-1.4688.8408-1.5a1.4916,1.4916,0,0,1,1.7918.0846.8009.8009,0,0,1,.1076.1615,1.3743,1.3743,0,0,1,.1.8741l6.657.3179-5.3215-3.8143a1.3482,1.3482,0,0,1-.7536.4947,1.7534,1.7534,0,0,1-.9484.0077c-.8767-.2563-.9433-1.3688-.9459-1.4354-.0231-.5742.2486-1.4022.9-1.5534A.92.92,0,0,1,16.4073,9.3079Z" style="fill:none;stroke:#423c25;stroke-miterlimit:10;stroke-width:0.298477592316488px"/><path d="M9.1222,16.0316a.1093.1093,0,0,1-.0179.0153L5.6515,17.9694l1.8123-3.04a.0778.0778,0,0,1,.0692-.041.0691.0691,0,0,1,.0435.0154l1.5355,1.074A.04.04,0,0,1,9.1222,16.0316Z" style="fill:none;stroke:#423c25;stroke-miterlimit:10;stroke-width:0.298477592316488px"/><path d="M12.106,17.0569a.0861.0861,0,0,0,.01.0743l1.9943,3.1452.1179-3.75a.0742.0742,0,0,0-.0179-.0462.07.07,0,0,0-.059-.0153l-1.9917.5383A.076.076,0,0,0,12.106,17.0569Z" style="fill:none;stroke:#423c25;stroke-miterlimit:10;stroke-width:0.298477592316488px"/><path d="M17.207,12.3275l.01.0026,3.0452,2.307-3.6758-.182a.05.05,0,0,1-.041-.0282.0425.0425,0,0,1,0-.0308l.6459-2.0583A.0161.0161,0,0,1,17.207,12.3275Z" style="fill:none;stroke:#423c25;stroke-miterlimit:10;stroke-width:0.298477592316488px"/><path d="M14.7411,7.8571a.0488.0488,0,0,1,.0256-.0206l3.1888-1.4021-1.4508,2.753a.1138.1138,0,0,1-.1.0616.1212.1212,0,0,1-.0692-.0257L14.7539,7.9288A.0561.0561,0,0,1,14.7411,7.8571Z" style="fill:none;stroke:#423c25;stroke-miterlimit:10;stroke-width:0.298477592316488px"/><path d="M11.67,6.9189a.0854.0854,0,0,0-.0077-.0744L10.0092,3.8711l-.3615,3.604a.0827.0827,0,0,0,.0487.082A.0963.0963,0,0,0,9.75,7.56l1.8584-.5819A.0943.0943,0,0,0,11.67,6.9189Z" style="fill:none;stroke:#423c25;stroke-miterlimit:10;stroke-width:0.298477592316488px"/><path d="M6.8921,11.779a.0818.0818,0,0,1-.0589-.0077L3.6008,9.7667l3.8271.0769a.0747.0747,0,0,1,.0743.0949L6.9383,11.73A.0734.0734,0,0,1,6.8921,11.779Z" style="fill:none;stroke:#423c25;stroke-miterlimit:10;stroke-width:0.298477592316488px"/><path d="M12.9493,10.8639a1.6014,1.6014,0,1,1-2.2583.2025A1.6013,1.6013,0,0,1,12.9493,10.8639Z" style="fill:none;stroke:#423c25;stroke-miterlimit:10;stroke-width:0.298477592316488px"/></g></svg>