<svg xmlns="http://www.w3.org/2000/svg" width="150" height="150" viewBox="0 0 150 150"><g id="b929db1f-5392-4a02-b818-bdbe475075fb" data-name="fond"><rect y="-0.13" width="150.09" height="150.37" style="fill:#fff"/></g><g id="e9f520b2-1967-4155-92d3-34269268e85c" data-name="shuri peinture"><path d="M159,20.43l-13.42-.64a2.78,2.78,0,0,0-.21-1.76l.06,0a.1.1,0,0,0,.08.06l7.41.37-6.14-4.66h0v0a2.75,2.75,0,0,0,1.52-1Z" style="fill:#fff"/><path d="M153.53-3.32,146.79,8.32a2.8,2.8,0,0,0-1.64-.64V7.56a.22.22,0,0,0,.2-.12l2.93-5.55-6.43,2.82a.1.1,0,0,0-.05,0l-.1,0a2.71,2.71,0,0,0-.14-1.81Z" style="fill:#fff"/><path d="M152.92,18.43l-7.41-.37a.1.1,0,0,1-.08-.06.06.06,0,0,1,0-.06l1.3-4.15s0,0,0,0h0Z" style="fill:#423c25"/><path d="M148.27,1.89l-2.93,5.55a.22.22,0,0,1-.2.12.2.2,0,0,1-.14,0L141.81,4.9a.12.12,0,0,1,0-.15.1.1,0,0,1,.05,0Z" style="fill:#423c25"/><path d="M146.75,13.74v0s0,0,0,0l-1.3,4.15a.06.06,0,0,0,0,.06l-.06,0a1.52,1.52,0,0,0-.21-.33c-.88-1-2.61-.75-3.62-.17-.11.07-2,1.22-1.69,3a2.36,2.36,0,0,0,.92,1.52l-.05.07a.11.11,0,0,0-.12,0l-4,1.08a.16.16,0,0,0-.12.16l-.13,0c.28-1.28-.93-2.5-2-3-.11-.06-2.17-1-3.45.35a2.48,2.48,0,0,0-.4.55l-.06,0a.09.09,0,0,0,0-.11L127.33,19l-.08,0v-.08a1.13,1.13,0,0,0,.3,0c1.31-.28,1.89-1.94,1.86-3.1,0-.13-.1-2.38-1.86-2.92a2.86,2.86,0,0,0-1.56-.05l0-.09a.11.11,0,0,0,.09-.1L127.18,9a.14.14,0,0,0-.07-.18l.06-.09c1,.77,2.53.39,3.44-.21.11-.08,2-1.35,1.49-3.13a2.47,2.47,0,0,0-.67-1.18l.1-.09a.16.16,0,0,0,.19.08L135.47,3a.18.18,0,0,0,.12-.12l.1.05c0,.07-.05.13-.07.2-.41,1.28.74,2.61,1.76,3.15.12.07,2.12,1.1,3.47-.16a2.88,2.88,0,0,0,.84-1.37l.1,0a.12.12,0,0,0,0,.15L145,7.51a.2.2,0,0,0,.14,0v.12a1.92,1.92,0,0,0-.41.05c-1.31.3-1.86,2-1.81,3.13,0,.13.14,2.38,1.91,2.89A3.54,3.54,0,0,0,146.75,13.74ZM137.9,15a2.32,2.32,0,1,0-3.27.3A2.31,2.31,0,0,0,137.9,15Z" style="fill:#423c25"/><path d="M142.07,22.82V36.3L134.85,25a2.62,2.62,0,0,0,1.47-1.54v-.08l.13,0a.19.19,0,0,0,0,.1l4,6.34.23-7.56a.12.12,0,0,0,0-.09l.05-.07a2.76,2.76,0,0,0,1.3.48Z" style="fill:#fff"/><path d="M140.75,22.24l-.23,7.56-4-6.34a.19.19,0,0,1,0-.1.16.16,0,0,1,.12-.16l4-1.08a.11.11,0,0,1,.12,0A.12.12,0,0,1,140.75,22.24Z" style="fill:#423c25"/><path d="M137.61,11.73a2.33,2.33,0,1,1-3.27.3A2.31,2.31,0,0,1,137.61,11.73Z" style="fill:#fff"/><path d="M130.61-10.08l6.56,11.73a2.64,2.64,0,0,0-1.48,1.26l-.1-.05a.16.16,0,0,0,0-.15l-3.34-6L131.52,4a.25.25,0,0,0,0,.08l-.1.09a2.8,2.8,0,0,0-1.77-.72Z" style="fill:#fff"/><path d="M135.58,2.71a.16.16,0,0,1,0,.15.18.18,0,0,1-.12.12l-3.75,1.17a.16.16,0,0,1-.19-.08.25.25,0,0,1,0-.08l.72-7.27Z" style="fill:#423c25"/><path d="M130.69,23.6l-12.1,6.12L125.5,18.2a2.76,2.76,0,0,0,1.75.66v.08a.16.16,0,0,0-.14.08l-3.65,6.13,7-3.88,0,0,.06,0a1.85,1.85,0,0,0-.18.44A2.7,2.7,0,0,0,130.69,23.6Z" style="fill:#fff"/><path d="M130.44,21.13a.09.09,0,0,1,0,.11l0,0-7,3.88L127.11,19a.16.16,0,0,1,.14-.08l.08,0Z" style="fill:#423c25"/><path d="M127.11,8.77a.14.14,0,0,1,.07.18l-1.13,3.61a.11.11,0,0,1-.09.1.17.17,0,0,1-.12,0l-6.52-4,7.72.15Z" style="fill:#423c25"/><path d="M127.17,8.68l-.06.09H127l-7.72-.15,6.52,4a.17.17,0,0,0,.12,0l0,.09a2.65,2.65,0,0,0-1.5,1L113,6.71l13.44-.24A2.6,2.6,0,0,0,127,8.53C127.05,8.58,127.11,8.64,127.17,8.68Z" style="fill:#fff"/><path d="M145.15,7.68a2.8,2.8,0,0,1,1.64.64l6.74-11.64-12,6.24a2.71,2.71,0,0,1,.14,1.81,2.88,2.88,0,0,1-.84,1.37c-1.35,1.26-3.35.23-3.47.16-1-.54-2.17-1.87-1.76-3.15,0-.07,0-.13.07-.2a2.64,2.64,0,0,1,1.48-1.26l-6.56-11.73-1,13.52a2.8,2.8,0,0,1,1.77.72,2.47,2.47,0,0,1,.67,1.18c.48,1.78-1.38,3.05-1.49,3.13-.91.6-2.48,1-3.44.21-.06,0-.12-.1-.18-.15a2.6,2.6,0,0,1-.55-2.06L113,6.71l11.49,7.06a2.65,2.65,0,0,1,1.5-1,2.86,2.86,0,0,1,1.56.05c1.76.54,1.86,2.79,1.86,2.92,0,1.16-.55,2.82-1.86,3.1a1.13,1.13,0,0,1-.3,0,2.76,2.76,0,0,1-1.75-.66l-6.91,11.52,12.1-6.12a2.7,2.7,0,0,1-.35-1.89,1.85,1.85,0,0,1,.18-.44,2.48,2.48,0,0,1,.4-.55c1.28-1.33,3.34-.41,3.45-.35,1,.47,2.24,1.69,2,3v.08A2.62,2.62,0,0,1,134.85,25l7.22,11.34V22.56a2.76,2.76,0,0,1-1.3-.48,2.36,2.36,0,0,1-.92-1.52c-.35-1.81,1.58-3,1.69-3,1-.58,2.74-.86,3.62.17a1.52,1.52,0,0,1,.21.33,2.78,2.78,0,0,1,.21,1.76l13.42.64-10.73-7.69a2.75,2.75,0,0,1-1.52,1,3.54,3.54,0,0,1-1.91,0c-1.77-.51-1.91-2.76-1.91-2.89-.05-1.16.5-2.83,1.81-3.13A1.92,1.92,0,0,1,145.15,7.68Z" style="fill:none;stroke:#423c25;stroke-miterlimit:10;stroke-width:0.601920407458937px"/><path d="M130.46,21.24l0,0-7,3.88L127.11,19a.16.16,0,0,1,.14-.08l.08,0,3.11,2.17A.09.09,0,0,1,130.46,21.24Z" style="fill:none;stroke:#423c25;stroke-miterlimit:10;stroke-width:0.601920407458937px"/><path d="M136.46,23.36a.19.19,0,0,0,0,.1l4,6.34.23-7.56a.12.12,0,0,0,0-.09.11.11,0,0,0-.12,0l-4,1.08A.16.16,0,0,0,136.46,23.36Z" style="fill:none;stroke:#423c25;stroke-miterlimit:10;stroke-width:0.601920407458937px"/><path d="M146.76,13.77h0l6.14,4.66-7.41-.37a.1.1,0,0,1-.08-.06.06.06,0,0,1,0-.06l1.3-4.15S146.75,13.77,146.76,13.77Z" style="fill:none;stroke:#423c25;stroke-miterlimit:10;stroke-width:0.601920407458937px"/><path d="M141.79,4.75a.1.1,0,0,1,.05,0l6.43-2.82-2.93,5.55a.22.22,0,0,1-.2.12.2.2,0,0,1-.14,0L141.81,4.9A.12.12,0,0,1,141.79,4.75Z" style="fill:none;stroke:#423c25;stroke-miterlimit:10;stroke-width:0.601920407458937px"/><path d="M135.59,2.86a.16.16,0,0,0,0-.15l-3.34-6L131.52,4a.25.25,0,0,0,0,.08.16.16,0,0,0,.19.08L135.47,3A.18.18,0,0,0,135.59,2.86Z" style="fill:none;stroke:#423c25;stroke-miterlimit:10;stroke-width:0.601920407458937px"/><path d="M126,12.66a.17.17,0,0,1-.12,0l-6.52-4,7.72.15h.07a.14.14,0,0,1,.07.18l-1.13,3.61A.11.11,0,0,1,126,12.66Z" style="fill:none;stroke:#423c25;stroke-miterlimit:10;stroke-width:0.601920407458937px"/><path d="M137.61,11.73a2.33,2.33,0,1,1-3.27.3A2.31,2.31,0,0,1,137.61,11.73Z" style="fill:none;stroke:#423c25;stroke-miterlimit:10;stroke-width:0.601920407458937px"/></g><g id="a8ece9e6-666b-454a-bad3-a1bd1e58d786" data-name="Textes Cartes VA vecto"><g id="b68962b2-f69f-4c5f-81e4-104a9d16462b" data-name="Calque 20 - copie 3"><path d="M20.27,19.48a10.17,10.17,0,0,0,.49-1.69s0,0,.07-.11a3,3,0,0,0,.05-.38c0-.14.05-.23.11-.27l.58-2a2.78,2.78,0,0,1,.13-.36.82.82,0,0,1,.14-.26l.12-.09h1.52l.36.4.16.09a.15.15,0,0,1,.05.16c0,.07,0,.16-.05.25a.64.64,0,0,0,0,.22q0,.09.15.09h.1l.09-.09.23-.81s0,0,0,0a.18.18,0,0,0,.09,0h0c.1,0,.16.07.18.2a.7.7,0,0,1,0,.27c0,.13-.08.32-.14.57s-.08.23-.11.34-.06.17-.07.2a.54.54,0,0,0,.07.13l0,.14,0,.13-.27.63-.37,1-.41,1.14c-.14.4-.28.78-.4,1.15s-.24.69-.34,1l-.2.63A8.53,8.53,0,0,1,22,23a4.75,4.75,0,0,0-.52,1,13.32,13.32,0,0,1-1.22,2c-.46.64-1,1.3-1.45,2,0,.05,0,.05,0,0v-.26a2.64,2.64,0,0,0,0-.28c0-.09,0-.13-.09-.13s-.06,0-.12.13a3.31,3.31,0,0,1-.18.29,2,2,0,0,1-.18.26c-.05.08-.1.1-.13.08L16.47,28l-.41.15s-.06,0-.07-.06a.38.38,0,0,1,0-.16c0-.06,0-.12,0-.17s0-.08,0-.08a.85.85,0,0,0-.23,0,1,1,0,0,1-.25,0,.3.3,0,0,1-.18-.07s-.05-.12,0-.23l.22-2a5.19,5.19,0,0,0,.18-1c0-.34.06-.67.07-1a6.45,6.45,0,0,0,.14-.84c.05-.39.09-.8.14-1.24s.08-.85.12-1.25a5.11,5.11,0,0,1,.14-.83l0-.09a13.07,13.07,0,0,1,.23-2,19.56,19.56,0,0,1,.49-2,1.53,1.53,0,0,1,.54.09,1.61,1.61,0,0,0,.54.09.16.16,0,0,0,.14-.11,1.55,1.55,0,0,0,.08-.23,1.23,1.23,0,0,1,.08-.25.16.16,0,0,1,.15-.1.21.21,0,0,1,.16.08,1.18,1.18,0,0,1,.11.19.7.7,0,0,0,.13.19.19.19,0,0,0,.16.08h.09a.08.08,0,0,1,.06,0s.06-.1.14-.24a.6.6,0,0,1,.2-.23s0-.05.12-.09a0,0,0,0,1,0,0,.33.33,0,0,1,.36.34,2.22,2.22,0,0,1-.06.79c-.07.29-.14.58-.23.86a2.41,2.41,0,0,0-.14.59l-.16,1.24a.15.15,0,0,0-.05.07.14.14,0,0,1,0,.07l0,.13-.05.22-.11.37a4.25,4.25,0,0,0-.16.64,1.26,1.26,0,0,1-.06.26.29.29,0,0,0,0,.09.14.14,0,0,1,0,.09c0,.08,0,.2-.05.36s-.05.36-.08.55-.05.38-.08.55l-.06.36c0,.12,0,.18.13.18s.22-.11.36-.33a5.24,5.24,0,0,0,.36-.75c.1-.27.2-.53.28-.78s.13-.4.15-.46S20.12,19.84,20.27,19.48Z" style="fill:#423c25"/><path d="M22.09,27.05H22l-.09.07-.2.7s0,0,0,0,0,0-.07,0h-.05q-.11,0-.15-.18a.42.42,0,0,1,0-.23,1.65,1.65,0,0,0,0-.21,1.82,1.82,0,0,1,.08-.29,2.29,2.29,0,0,1,.08-.28l.06-.19a.18.18,0,0,1-.05-.11l0-.13,0-.1.18-.56c.09-.26.18-.54.3-.85l.36-1q.18-.52.36-1c.11-.31.21-.59.31-.85a5.5,5.5,0,0,0,.18-.56c.16-.27.33-.55.51-.82s.33-.56.47-.83L25.23,18a10.93,10.93,0,0,1,1.06-1.71s.08,0,.14,0,.12.16.19.27.13.19.19.28.1.14.12.14.08-.05.12-.14l.12-.28a1.49,1.49,0,0,1,.11-.28c0-.09.06-.12.09-.11H29l.36-.13s.06,0,.08.05a.59.59,0,0,1,0,.14c0,.06,0,.11,0,.15s0,.08,0,.08H30a.34.34,0,0,1,.16.08s.05.09,0,.18l-.5,1.73a1.11,1.11,0,0,0,0,.4,2.63,2.63,0,0,0,.06.39c0,.13.06.26.08.38a1.4,1.4,0,0,1,0,.41l-.17.75c-.08.35-.16.73-.24,1.12l-.25,1.13c-.07.35-.13.6-.17.75v.07a14.45,14.45,0,0,1-.22,1.72q-.16.86-.42,1.74a1.5,1.5,0,0,1-.47-.08,1.85,1.85,0,0,0-.48-.07.23.23,0,0,0-.14.07l-.12.16-.14.15a.2.2,0,0,1-.16.07c-.06,0-.08,0-.07-.12s0-.18,0-.28,0-.2.05-.28,0-.13-.05-.13,0,0-.09.08l-.12.17-.19.26a1.72,1.72,0,0,1-.13.2.49.49,0,0,1-.18.21s0,.05-.09.07v0h0c-.18,0-.28-.12-.28-.35a3.64,3.64,0,0,1,.06-.78c0-.28.09-.54.13-.77s0-.35-.09-.35h-.51a.45.45,0,0,0-.41.16l-.25.87-.24.86a2.69,2.69,0,0,1-.13.31l-.12.23-.11.07H22.65l-.33-.34-.16-.07a.26.26,0,0,1,0-.16c0-.06,0-.13.06-.2a.44.44,0,0,0,0-.19C22.22,27.07,22.17,27.05,22.09,27.05Zm3.55-3.93-.06.15c0,.07,0,.11.08.12a2.81,2.81,0,0,0,.5-.09.47.47,0,0,0,.36-.3.21.21,0,0,1,.06-.08l.07-.07a2.44,2.44,0,0,1,0-.3c0-.15.05-.3.07-.46s.05-.32.08-.46a1.33,1.33,0,0,1,.09-.31,1,1,0,0,1,0-.14A2.07,2.07,0,0,0,27,21a1.41,1.41,0,0,0,0-.2c0-.06,0-.09-.05-.09s-.23.12-.37.36-.27.51-.41.8-.25.57-.35.83A4.33,4.33,0,0,0,25.64,23.12Z" style="fill:#423c25"/><path d="M30.9,27l-.54.45a.46.46,0,0,0-.33.15.4.4,0,0,1-.32.16c-.1,0-.15-.06-.17-.17a.65.65,0,0,1,0-.26l0-.08.27-.68,0-.07,0-.07.23-1.39,1.68-5.44a3.62,3.62,0,0,1-.3-1,2.15,2.15,0,0,1,.06-1.07.72.72,0,0,1,.15-.16c.11-.09.22-.18.35-.27l.34-.23c.1-.07.16-.09.19-.06l.48.59a.18.18,0,0,0,.18-.14,2.55,2.55,0,0,0,.11-.33,1.07,1.07,0,0,1,.16-.32.27.27,0,0,1,.24-.15h.11l.23,0,.23,0a17.09,17.09,0,0,1,1.3,3l-.12.34.28-.34.08-.18c0-.11.1-.23.16-.37l.18-.42a1.62,1.62,0,0,0,.12-.35s0-.07.08-.19a.37.37,0,0,1,.18-.24l.5-.23-.31-.24c-.06,0-.08-.1-.08-.22a1.63,1.63,0,0,1,0-.34l0-.14a.78.78,0,0,1,.3-.18q.23-.09.24,0l0,.07c0,.1,0,.16,0,.19l.1.08a2.12,2.12,0,0,0,.49,0c.24,0,.48,0,.74,0a4.48,4.48,0,0,1,.65.12c.19.05.26.13.23.24s0,.05,0,.08l0,.09c-.05.1-.13.3-.24.57l-.34.87-.34.88c-.11.27-.19.47-.24.57L38,21.88l-1.63,5.69-.2.13-.25.09-.22.05a.26.26,0,0,1-.2-.12,1.78,1.78,0,0,1-.17-.27l-.14-.29-.1-.17-.4.29-.11.34s0,.05-.1.07l-.15,0a.6.6,0,0,1-.53-.26.67.67,0,0,1-.15-.53l.21-2.54-.12-1.19h-.07c-.14.47-.28.95-.43,1.43s-.29.95-.42,1.42l-.09.31-.15.41a5.1,5.1,0,0,1-.21.5s0,0-.06,0l-.05,0h-.09l-.13-.08a.19.19,0,0,0-.16.1l-.11.23a.78.78,0,0,1-.12.22.21.21,0,0,1-.18.1,0,0,0,0,1,0,0,.73.73,0,0,0-.07-.24.4.4,0,0,0-.14-.17.26.26,0,0,0-.2.14,1,1,0,0,0-.09.24c0,.08-.06.16-.09.22a.25.25,0,0,1-.24.1c-.09,0-.13-.05-.11-.16a1.59,1.59,0,0,1,.1-.37l.18-.4Q30.92,27.07,30.9,27Z" style="fill:#423c25"/><path d="M37.43,27.66l.18-.63c.27-1.09.53-2.16.79-3.22s.56-2.12.87-3.21l0-.13.06-.16s0-.09,0-.12l0-.08.06-.1.11-.2.12-.2a.27.27,0,0,0,.05-.11.67.67,0,0,1,.06-.17l.11-.3.1-.3.08-.2.09-.21c0-.09.06-.19.09-.31l.1-.38.11-.38a1.48,1.48,0,0,0,.07-.31.76.76,0,0,1,.06-.21.6.6,0,0,1,.18-.07l.35-.12.51-.17a.28.28,0,0,1,.25.1.72.72,0,0,1,.08.22,2,2,0,0,1,0,.24c0,.06,0,.09.08.09h0a.91.91,0,0,0,.16-.22.18.18,0,0,0,.08-.09s0-.05.05-.05a.58.58,0,0,1,.23-.06l.18,0,.14.16a.85.85,0,0,0,.12.13h.09l.38-.14h.09l.05.07a.13.13,0,0,0,.09.07l-.09.31a23.19,23.19,0,0,1-.76,2.22c-.29.73-.57,1.47-.86,2.23a1.34,1.34,0,0,1-.25.37.92.92,0,0,0-.24.35,1.3,1.3,0,0,0,0,.52,4.27,4.27,0,0,1,0,.49l-.09.36-.28,1-.09.32c-.12.4-.25.83-.37,1.3a9.09,9.09,0,0,1-.48,1.33.13.13,0,0,1-.11.08H39.9a1.26,1.26,0,0,0-.17-.3.53.53,0,0,0-.33-.08h-.14l-.1,0-.2.2a.92.92,0,0,1-.23,0c-.12,0-.19,0-.2.05l-.12.05a.91.91,0,0,1-.16.11l-.16.11L38,28A.79.79,0,0,1,37.43,27.66Z" style="fill:#423c25"/><path d="M41.29,27.1v0s.06-.07.14-.09l.26-.05.35-.06s0-.05,0-.12l-.1-.2c0-.06-.09-.15-.17-.26l1.1,0s0-.07-.09-.11a.86.86,0,0,0-.21-.07L42.13,26c-.11,0-.2-.08-.29-.24s0-.05.07-.11L42,25.5a.59.59,0,0,1,.1-.17.17.17,0,0,1,.15-.08.86.86,0,0,1,.44.15,1.13,1.13,0,0,0,.59.15,1.08,1.08,0,0,0,.47-.11,1.82,1.82,0,0,0,.38-.29,2,2,0,0,0,.27-.38,1.83,1.83,0,0,0,.18-.41.19.19,0,0,1,.16-.12c.08,0,.12-.07.11-.13A.52.52,0,0,1,44.7,24l-.22-.26c-.08-.09-.14-.17-.2-.25a.44.44,0,0,1-.09-.15,1.19,1.19,0,0,0-.07-.23c0-.12-.08-.26-.12-.4s-.09-.28-.13-.4a1.25,1.25,0,0,1-.06-.21l-.25-.57a2.59,2.59,0,0,1-.14-.45,1.71,1.71,0,0,1,0-.51,6.08,6.08,0,0,1,.18-.76,6.77,6.77,0,0,1,.6-1.44,3.68,3.68,0,0,1,.94-1.06,4,4,0,0,1,1.36-.66,6.85,6.85,0,0,1,1.86-.23h0s0,0,0,.08a1.35,1.35,0,0,0-.17.17l-.16.17c-.05.05-.06.07-.05.07l.13-.05a1.69,1.69,0,0,1,.27-.11l.28-.11a.48.48,0,0,1,.16-.05.93.93,0,0,1,.31,0c.08,0,.11.11.07.24a.24.24,0,0,1-.11.16.54.54,0,0,1-.17.07l-.19.05a.36.36,0,0,0-.14.1s0,.05-.11.12l-.23.21-.31.27,1.21-.49s0,.05,0,.14,0,.19,0,.3,0,.23,0,.34,0,.18-.05.21a.52.52,0,0,1-.3.32,5.27,5.27,0,0,1-.51.19l-.22.05-.32.08-.31.08-.21.06c-.16.08-.24.17-.25.27a.46.46,0,0,0,0,.27l.06.39c0,.13.05.26.07.39a1.25,1.25,0,0,1,0,.26l-.36.5a.81.81,0,0,0,.22-.07l.14,0c.13,0,.24.1.32.3s.11.35.19.61a7.71,7.71,0,0,1,.21.83c.06.3.1.59.13.88a1.91,1.91,0,0,1,0,.69l0,0a3.6,3.6,0,0,0-.51.8,3.4,3.4,0,0,1-.54.78,2,2,0,0,1-.2.24l-.32.36c-.11.13-.21.25-.32.36l-.25.23a1.4,1.4,0,0,1-.6.27,7,7,0,0,1-.89.17l-.93.09-.68,0a1.62,1.62,0,0,1-.38-.06,2.44,2.44,0,0,1-.46-.14,1.71,1.71,0,0,1-.38-.21A.23.23,0,0,1,41.29,27.1Z" style="fill:#423c25"/><path d="M53.59,28a1.13,1.13,0,0,1-.16-.18c-.08-.09-.13-.15-.17-.16s0,0-.16-.05a.92.92,0,0,1-.23,0,.65.65,0,0,1-.1-.2l-.08,0h-.11a.81.81,0,0,0-.39.08,2,2,0,0,0-.33.3h-.28a.06.06,0,0,1,0-.08,7.92,7.92,0,0,1,.28-1.33L52.2,25l.47-1.67a2,2,0,0,1,.21-.35,1,1,0,0,1-.6.25,4,4,0,0,0-.69.1q-.09.48-.21,1c-.08.32-.17.63-.26.94l-.56,1.91-.07.31a.46.46,0,0,0-.14.07.26.26,0,0,1-.1.07h-.09l-.28-.14h-.09s0,.06-.08.13a.27.27,0,0,1-.09.16l-.19,0a.51.51,0,0,1-.2-.05s0,0,0-.06a.11.11,0,0,0,0-.09v-.09c0-.07,0-.11,0-.12h0s-.09,0-.14.09l-.14.23a.73.73,0,0,1-.21.22.44.44,0,0,1-.3.1l-.41-.17-.29-.11c-.09,0-.13-.06-.13-.08a1.62,1.62,0,0,0,.08-.2l.1-.32.22-.75A2.21,2.21,0,0,1,48,26l.05-.21a1.82,1.82,0,0,0,0-.2c0-.09,0-.19,0-.3s0-.21.05-.3a1.19,1.19,0,0,0,0-.17.66.66,0,0,1,0-.11,1.21,1.21,0,0,0,0-.2v-.3l0-.07.09-.14.15-.24.15-.25a.71.71,0,0,0,.09-.15l0-.12c.14-.51.28-1,.4-1.48s.26-1,.38-1.44.26-1,.39-1.47.28-1,.43-1.56l.18-.63a1.62,1.62,0,0,1,.78-.34l.15.18c.08.1.13.15.17.16s.06,0,.18,0a.82.82,0,0,1,.22,0l.09.2.1,0h.11a.81.81,0,0,0,.39-.08,2,2,0,0,0,.33-.3h.26a.06.06,0,0,1,0,.08A8,8,0,0,1,53.09,18c-.14.46-.26.9-.37,1.29L52.23,21a.09.09,0,0,0,0,.07s0,0,0,0l0,0a3.68,3.68,0,0,0,.58-.07A3.68,3.68,0,0,1,53.3,21a13.49,13.49,0,0,1,.46-1.9c.19-.62.39-1.25.58-1.9l.09-.31a.33.33,0,0,0,.13-.07l.09-.07h.09l.3.14h.09l.18-.13.22-.16.14.08s0,0,0,.05a.1.1,0,0,0,0,.09c0,.13,0,.2,0,.22h0a.19.19,0,0,0,.14-.1l.15-.23a1.1,1.1,0,0,1,.21-.22.45.45,0,0,1,.31-.1l.39.17.29.12c.09,0,.13.06.13.07s0,.12-.08.21l-.1.31L57,18c0,.12,0,.22-.07.31a.76.76,0,0,1-.06.21,1.13,1.13,0,0,0,0,.2c0,.09,0,.2-.06.3s0,.21-.05.3a1.19,1.19,0,0,0,0,.17.66.66,0,0,1,0,.11c0,.06,0,.13,0,.2v.38l-.15.18a.65.65,0,0,0-.16.21l0,.13c-.31,1.09-.6,2.14-.86,3.16s-.57,2.07-.92,3.16l-.18.63A1.59,1.59,0,0,1,53.59,28Z" style="fill:#423c25"/><path d="M13.58,47.21l5.72-.11v1.17l-2.14,0v6.6H15.92v-6.6l-2.34.06Z" style="fill:#423c25"/><path d="M21.56,47.5v2.92a1.77,1.77,0,0,1,1-.92,2.27,2.27,0,0,1,.76-.14,2,2,0,0,1,.42,0,1.58,1.58,0,0,1,1,.62,2.49,2.49,0,0,1,.51,1.13,12.66,12.66,0,0,1,.07,1.8c0,.72,0,1.64,0,2.76l-1.11,0c0-1,0-1.75,0-2.39a15.34,15.34,0,0,0-.05-1.81,1.08,1.08,0,0,0-.37-.7,1.11,1.11,0,0,0-.71-.25h0a1,1,0,0,0-.66.23,2.18,2.18,0,0,0-.45.57,3.8,3.8,0,0,0-.22,1.42l-.06,2.54-1.11,0-.1-7.7Z" style="fill:#423c25"/><path d="M27.54,52.79A2.22,2.22,0,0,0,28,54.13a1.32,1.32,0,0,0,.91.39H29a1.44,1.44,0,0,0,.79-.22,1.7,1.7,0,0,0,.58-1l1.17.22a3.43,3.43,0,0,1-.65,1.26,1.88,1.88,0,0,1-1.19.65,4.61,4.61,0,0,1-.72.07,4.18,4.18,0,0,1-.72-.07,2.2,2.2,0,0,1-1.2-.69,2.62,2.62,0,0,1-.66-1.25,4.55,4.55,0,0,1-.12-1,2.42,2.42,0,0,1,0-.38,3.24,3.24,0,0,1,.36-1.32,2.05,2.05,0,0,1,.78-.9,3,3,0,0,1,1-.4,3.7,3.7,0,0,1,.6,0l.6,0a2,2,0,0,1,1.29.8,4,4,0,0,1,.59,2.46Zm2.73-.93a1.6,1.6,0,0,0-.39-1,1.2,1.2,0,0,0-.94-.42,1.31,1.31,0,0,0-1,.4,1.44,1.44,0,0,0-.41,1Z" style="fill:#423c25"/><path d="M45.59,47.26H47l3.52,5.68h0V47.1h1.29L51.69,55H50.36L46.85,49.2h0v5.25H45.53Z" style="fill:#423c25"/><path d="M54,47.87a.62.62,0,0,1,.21.47.67.67,0,0,1-.21.49.69.69,0,0,1-.5.19.69.69,0,0,1-.49-.19.7.7,0,0,1-.2-.49.68.68,0,0,1,.69-.67A.66.66,0,0,1,54,47.87Zm-1.1,1.82,1.18,0L54,55.5H53Z" style="fill:#423c25"/><path d="M56.45,49.19l0,1.34a1.75,1.75,0,0,1,1-.92,2.21,2.21,0,0,1,.75-.14,1.54,1.54,0,0,1,.43.05,1.61,1.61,0,0,1,1,.61,2.84,2.84,0,0,1,.51,1.13,12.84,12.84,0,0,1,.07,1.81c0,.72,0,1.64,0,2.76L59,55.8c0-1,0-1.76,0-2.39,0-1,0-1.63,0-1.82a1.16,1.16,0,0,0-.37-.7,1.07,1.07,0,0,0-.71-.24h0a.92.92,0,0,0-.66.22,2.08,2.08,0,0,0-.45.58,3.56,3.56,0,0,0-.22,1.42l-.07,2.54-1.1,0-.1-6.12Z" style="fill:#423c25"/><path d="M60.87,56.29h0a.41.41,0,0,1,.23.07,1.06,1.06,0,0,0,.78-.5,3.79,3.79,0,0,0,.2-1.52l0-4.53,1.07.07c0,.82,0,1.56,0,2.21A29.72,29.72,0,0,1,63,55.88a1.74,1.74,0,0,1-1.5,1.46,1.63,1.63,0,0,1-.31,0,2.8,2.8,0,0,1-.48,0Zm2.23-8.42a.65.65,0,0,1,.2.47.67.67,0,0,1-.7.68.67.67,0,0,1-.49-.19.66.66,0,0,1-.2-.49.61.61,0,0,1,.2-.47.64.64,0,0,1,.49-.2A.66.66,0,0,1,63.1,47.87Z" style="fill:#423c25"/><path d="M65.06,50.38a2.2,2.2,0,0,1,1.15-.61,3,3,0,0,1,.68-.08,4.56,4.56,0,0,1,.87.1,1.44,1.44,0,0,1,1.08,1.13,8.13,8.13,0,0,1,.16,1.8c0,.4,0,.86,0,1.36v0c0,.29.12.43.34.43a1.27,1.27,0,0,0,.41-.1l.09,1a3,3,0,0,1-.73.1A1.06,1.06,0,0,1,68,55a2.74,2.74,0,0,1-1,.58,2.86,2.86,0,0,1-.89.13h0a2.14,2.14,0,0,1-.84-.17,1.57,1.57,0,0,1-.66-.49,1.46,1.46,0,0,1-.28-.77c0-.05,0-.1,0-.17a2.29,2.29,0,0,1,.15-.78,1.67,1.67,0,0,1,.92-.87,7.88,7.88,0,0,1,2.51-.52,1.5,1.5,0,0,0-.19-.92,1.1,1.1,0,0,0-.75-.24H66.8a1.45,1.45,0,0,0-.7.15,1,1,0,0,0-.4.82l-1.13-.14A1.88,1.88,0,0,1,65.06,50.38Zm2.88,2.49a4.83,4.83,0,0,0-1.91.41.87.87,0,0,0-.46.71.15.15,0,0,0,0,.06.67.67,0,0,0,.27.58,1.08,1.08,0,0,0,.59.16l.17,0a1.58,1.58,0,0,0,.75-.21,5.86,5.86,0,0,0,.6-.41Z" style="fill:#423c25"/><path d="M84,55.67l1.11-.19c.12.55.36.87.73,1a2.55,2.55,0,0,0,.61.08,2.31,2.31,0,0,0,.52-.06,1,1,0,0,0,.77-.49,2.44,2.44,0,0,0,.17-1.08c0-.14,0-.29,0-.44a2.25,2.25,0,0,1-1.09.69,3.61,3.61,0,0,1-.75.07h-.25a2,2,0,0,1-1.06-.39A2,2,0,0,1,84,53.9a4.28,4.28,0,0,1-.25-1.35c0-.07,0-.14,0-.21A4.06,4.06,0,0,1,84,51.11,2.23,2.23,0,0,1,84.69,50a2.67,2.67,0,0,1,1-.54,2.93,2.93,0,0,1,.61-.06,3.2,3.2,0,0,1,.52,0,2.1,2.1,0,0,1,1.17.65v-.64l1,0c0,.89,0,1.69,0,2.4A31.14,31.14,0,0,1,88.88,56a1.77,1.77,0,0,1-.57,1,1.83,1.83,0,0,1-.92.43,6.41,6.41,0,0,1-1.06.09h0a3.46,3.46,0,0,1-.89-.1,1.79,1.79,0,0,1-.78-.45A2.62,2.62,0,0,1,84,55.67ZM87.6,53.6a2.35,2.35,0,0,0,.34-1.33A2.09,2.09,0,0,0,87.59,51a1.3,1.3,0,0,0-1.15-.57A1.27,1.27,0,0,0,85.3,51,2.44,2.44,0,0,0,85,52.36a2.21,2.21,0,0,0,.35,1.27,1.38,1.38,0,0,0,2.28,0Z" style="fill:#423c25"/><path d="M93.6,50.79a1.52,1.52,0,0,0-.79-.25h-.12a1.44,1.44,0,0,0-.69.25,2.28,2.28,0,0,0-.44.52,3.53,3.53,0,0,0-.23,1.4l-.06,2.54-1.11,0-.09-6.12L91.22,49l0,1.34a1.83,1.83,0,0,1,1-.94,1.3,1.3,0,0,1,.54-.1,3,3,0,0,1,1.12.25Z" style="fill:#423c25"/><path d="M95.67,50.38a2.24,2.24,0,0,1,1.15-.61,3.1,3.1,0,0,1,.69-.08,4.46,4.46,0,0,1,.86.1,1.41,1.41,0,0,1,1.08,1.13,7.56,7.56,0,0,1,.16,1.8c0,.4,0,.86,0,1.36v0c0,.29.11.43.34.43a1.27,1.27,0,0,0,.41-.1l.09,1a3,3,0,0,1-.74.1,1.06,1.06,0,0,1-1-.55,2.58,2.58,0,0,1-.95.58,2.8,2.8,0,0,1-.88.13h0a2.14,2.14,0,0,1-.84-.17,1.54,1.54,0,0,1-.65-.49,1.38,1.38,0,0,1-.28-.77.86.86,0,0,1,0-.17,2.29,2.29,0,0,1,.15-.78,1.67,1.67,0,0,1,.92-.87,7.81,7.81,0,0,1,2.5-.52,1.43,1.43,0,0,0-.19-.92,1.05,1.05,0,0,0-.74-.24h-.19a1.43,1.43,0,0,0-.7.15,1,1,0,0,0-.4.82l-1.13-.14A1.82,1.82,0,0,1,95.67,50.38Zm2.89,2.49a4.78,4.78,0,0,0-1.91.41.88.88,0,0,0-.47.71v.06a.67.67,0,0,0,.27.58,1,1,0,0,0,.58.16l.17,0a1.63,1.63,0,0,0,.76-.21,5.86,5.86,0,0,0,.6-.41Z" style="fill:#423c25"/><path d="M101.48,55.63l0-7.85h1.2l0,2.9A1.71,1.71,0,0,1,104,49.6l.5,0a1.86,1.86,0,0,1,1.12.31,2.27,2.27,0,0,1,.84,1.27,5.12,5.12,0,0,1,.24,1.48v.08a4.68,4.68,0,0,1-.26,1.42,2.06,2.06,0,0,1-.83,1.09,2.16,2.16,0,0,1-1.2.39,2.39,2.39,0,0,1-1.09-.24,1.72,1.72,0,0,1-.74-.7l0,1Zm4-3v0a2.33,2.33,0,0,0-.36-1.32,1.25,1.25,0,0,0-1.1-.61c-.9,0-1.37.66-1.39,2v.07a2.31,2.31,0,0,0,.37,1.34,1.3,1.3,0,0,0,1.11.56,1.18,1.18,0,0,0,1-.62A2.42,2.42,0,0,0,105.53,52.66Z" style="fill:#423c25"/><path d="M107.8,53.41l1.12-.21c.06.56.27.89.65,1a3.22,3.22,0,0,0,.72.09l.28,0a.88.88,0,0,0,.59-.25.72.72,0,0,0,.19-.35s0,0,0-.07a.39.39,0,0,0-.1-.26,1,1,0,0,0-.29-.26,4.56,4.56,0,0,0-1-.35c-.56-.17-1-.3-1.21-.4a1.48,1.48,0,0,1-.59-.44,1.14,1.14,0,0,1-.24-.71v-.08a1.7,1.7,0,0,1,.16-.74,1.45,1.45,0,0,1,.66-.63,2.81,2.81,0,0,1,1-.31l.4,0a3.07,3.07,0,0,1,.53,0,1.82,1.82,0,0,1,1.63,1.74l-1.06.13c-.14-.47-.32-.75-.54-.82a1.88,1.88,0,0,0-.57-.09H110a1,1,0,0,0-.57.2.54.54,0,0,0-.26.41v.06a.43.43,0,0,0,.15.34,2.84,2.84,0,0,0,1,.34,6.09,6.09,0,0,1,1.37.47,1.35,1.35,0,0,1,.72.63,1.87,1.87,0,0,1,.14.76h0a1.49,1.49,0,0,1-.23.8,1.8,1.8,0,0,1-.76.62,3,3,0,0,1-1.29.26h-.09a4,4,0,0,1-1.1-.13,1.88,1.88,0,0,1-.76-.46A2.27,2.27,0,0,1,107.8,53.41Z" style="fill:#423c25"/><path d="M127.18,50.38a2.28,2.28,0,0,1,1.15-.61,3.1,3.1,0,0,1,.69-.08,4.65,4.65,0,0,1,.87.1A1.44,1.44,0,0,1,131,50.92a8.24,8.24,0,0,1,.15,1.8c0,.4,0,.86,0,1.36v0c0,.29.12.43.34.43a1.27,1.27,0,0,0,.41-.1l.09,1a3,3,0,0,1-.74.1,1.07,1.07,0,0,1-1-.55,2.63,2.63,0,0,1-.94.58,2.9,2.9,0,0,1-.89.13h0a2.14,2.14,0,0,1-.84-.17,1.51,1.51,0,0,1-.66-.49,1.46,1.46,0,0,1-.28-.77.86.86,0,0,1,0-.17,2.29,2.29,0,0,1,.15-.78,1.67,1.67,0,0,1,.92-.87,7.88,7.88,0,0,1,2.5-.52,1.43,1.43,0,0,0-.19-.92,1.05,1.05,0,0,0-.74-.24h-.19a1.45,1.45,0,0,0-.7.15,1,1,0,0,0-.4.82l-1.13-.14A1.88,1.88,0,0,1,127.18,50.38Zm2.89,2.49a4.78,4.78,0,0,0-1.91.41.87.87,0,0,0-.46.71.15.15,0,0,0,0,.06.67.67,0,0,0,.27.58,1,1,0,0,0,.58.16l.17,0a1.59,1.59,0,0,0,.76-.21,5.86,5.86,0,0,0,.6-.41Z" style="fill:#423c25"/><path d="M134.13,49.19l.05,1.34a1.73,1.73,0,0,1,.95-.92,2.31,2.31,0,0,1,.76-.14,1.58,1.58,0,0,1,.43.05,1.67,1.67,0,0,1,1,.61,2.69,2.69,0,0,1,.5,1.13,12.22,12.22,0,0,1,.08,1.81c0,.72,0,1.64-.05,2.76l-1.1,0c0-1,0-1.76,0-2.39,0-1,0-1.63,0-1.82a1.16,1.16,0,0,0-.37-.7,1.08,1.08,0,0,0-.72-.24h0a1,1,0,0,0-.66.22,2.06,2.06,0,0,0-.44.58,3.51,3.51,0,0,0-.23,1.42l-.06,2.54-1.11,0L133,49.32Z" style="fill:#423c25"/><path d="M14.28,63.35a2.25,2.25,0,0,1,1.15-.62,3.84,3.84,0,0,1,.69-.07,3.79,3.79,0,0,1,.86.1,1.4,1.4,0,0,1,1.08,1.13,7.45,7.45,0,0,1,.16,1.8c0,.4,0,.85,0,1.35v0c0,.28.11.42.34.42a1.05,1.05,0,0,0,.41-.1l.09,1a3,3,0,0,1-.74.1,1.07,1.07,0,0,1-1-.56,2.62,2.62,0,0,1-.95.59,3.12,3.12,0,0,1-.88.13h-.05a2.13,2.13,0,0,1-.84-.16,1.62,1.62,0,0,1-.65-.49,1.5,1.5,0,0,1-.29-.77v-.17a2.34,2.34,0,0,1,.15-.79,1.7,1.7,0,0,1,.92-.86,7.81,7.81,0,0,1,2.5-.52A1.49,1.49,0,0,0,17,64a1.18,1.18,0,0,0-.74-.24H16a1.43,1.43,0,0,0-.7.15,1,1,0,0,0-.4.82l-1.13-.15A1.82,1.82,0,0,1,14.28,63.35Zm2.89,2.49a4.94,4.94,0,0,0-1.92.4.89.89,0,0,0-.46.72V67a.64.64,0,0,0,.27.58,1,1,0,0,0,.58.16h.17a1.91,1.91,0,0,0,.76-.21,5.86,5.86,0,0,0,.6-.41Z" style="fill:#423c25"/><path d="M24.23,68.44l0-1a1.73,1.73,0,0,1-.74.7,2.35,2.35,0,0,1-1.08.24A2.19,2.19,0,0,1,21.16,68a2.11,2.11,0,0,1-.83-1.09,4.67,4.67,0,0,1-.25-1.43s0,0,0-.07A5.19,5.19,0,0,1,20.31,64a2.32,2.32,0,0,1,.84-1.26,1.88,1.88,0,0,1,1.12-.31l.51,0a1.71,1.71,0,0,1,1.42,1.07l-.05-2.89h1.2v7.85Zm-2.94-3a2.5,2.5,0,0,0,.36,1.35,1.18,1.18,0,0,0,1,.61,1.3,1.3,0,0,0,1.11-.55,2.23,2.23,0,0,0,.37-1.34v-.07q0-2-1.38-2a1.24,1.24,0,0,0-1.1.62,2.27,2.27,0,0,0-.36,1.31Z" style="fill:#423c25"/><path d="M26.41,62.62l1.23-.27,1.47,4.77h0l1.41-4.5,1.23.26-2,5.38-1.33-.05Z" style="fill:#423c25"/><path d="M34.08,65.75a2.11,2.11,0,0,0,.41,1.34,1.37,1.37,0,0,0,.91.4h.14a1.34,1.34,0,0,0,.79-.22,1.65,1.65,0,0,0,.58-1l1.18.23a3.6,3.6,0,0,1-.66,1.26,1.9,1.9,0,0,1-1.19.65,4.56,4.56,0,0,1-.72.06,3.38,3.38,0,0,1-.72-.07,2.28,2.28,0,0,1-1.2-.68,2.67,2.67,0,0,1-.66-1.25,4.7,4.7,0,0,1-.12-1.05c0-.12,0-.25,0-.37a3.33,3.33,0,0,1,.36-1.33,2.24,2.24,0,0,1,.78-.9,2.75,2.75,0,0,1,1-.39,3.64,3.64,0,0,1,.6,0l.6,0a2,2,0,0,1,1.29.8A4,4,0,0,1,38,65.72Zm2.72-.92a1.57,1.57,0,0,0-.39-1,1.2,1.2,0,0,0-.94-.42,1.31,1.31,0,0,0-1,.4,1.41,1.41,0,0,0-.4,1Z" style="fill:#423c25"/><path d="M40.29,62.16l.05,1.33a1.73,1.73,0,0,1,1-.91,1.92,1.92,0,0,1,1.18-.1,1.62,1.62,0,0,1,1,.62A2.77,2.77,0,0,1,44,64.23,12.66,12.66,0,0,1,44,66c0,.72,0,1.64,0,2.77l-1.11,0c0-1,0-1.75,0-2.39a15.34,15.34,0,0,0,0-1.81,1.16,1.16,0,0,0-.37-.7,1.07,1.07,0,0,0-.71-.24h0a.92.92,0,0,0-.66.22,2.18,2.18,0,0,0-.45.57,3.62,3.62,0,0,0-.22,1.43l-.07,2.53-1.1,0-.1-6.12Z" style="fill:#423c25"/><path d="M45.08,62.09H46V60.42l1.18-.16V62L48.72,62v1l-1.53,0v3.51a1,1,0,0,0,.1.57.38.38,0,0,0,.34.14,3.84,3.84,0,0,0,.93-.2l.16,1a7.22,7.22,0,0,1-1.4.22,1.8,1.8,0,0,1-1-.37,1.56,1.56,0,0,1-.3-1.06V63.06h-.93Z" style="fill:#423c25"/><path d="M53.52,68.79l-.06-1.33a1.77,1.77,0,0,1-1,.92,2.31,2.31,0,0,1-.76.14,1.58,1.58,0,0,1-.43,0,1.67,1.67,0,0,1-1-.61,2.69,2.69,0,0,1-.5-1.13,14.67,14.67,0,0,1-.08-2.12c0-.67,0-1.49,0-2.45l1.12,0c0,.75,0,1.41,0,2,0,1.28,0,2,.05,2.24a1.16,1.16,0,0,0,.37.7,1.08,1.08,0,0,0,.72.24h0a1,1,0,0,0,.66-.22,2.06,2.06,0,0,0,.44-.58,3.62,3.62,0,0,0,.22-1.43l0-2.5,1.15-.08.09,6.14Z" style="fill:#423c25"/><path d="M59.27,63.75a1.65,1.65,0,0,0-.8-.25h-.12a1.26,1.26,0,0,0-.68.25,1.92,1.92,0,0,0-.45.52,3.55,3.55,0,0,0-.22,1.4l-.06,2.54-1.11,0-.1-6.12L56.88,62l.06,1.34a1.83,1.83,0,0,1,1-1,1.53,1.53,0,0,1,.54-.09,3.33,3.33,0,0,1,1.13.24Z" style="fill:#423c25"/><path d="M61.89,65.75a2,2,0,0,0,.42,1.34,1.35,1.35,0,0,0,.91.4h.13a1.37,1.37,0,0,0,.8-.22,1.64,1.64,0,0,0,.57-1l1.18.23a3.58,3.58,0,0,1-.65,1.26,1.92,1.92,0,0,1-1.2.65,4.56,4.56,0,0,1-.72.06,3.51,3.51,0,0,1-.72-.07,2.22,2.22,0,0,1-1.19-.68,2.69,2.69,0,0,1-.67-1.25,4.68,4.68,0,0,1-.11-1.05c0-.12,0-.25,0-.37A3.7,3.7,0,0,1,61,63.76a2.26,2.26,0,0,1,.79-.9,2.68,2.68,0,0,1,1-.39,3.64,3.64,0,0,1,.6,0l.59,0a1.94,1.94,0,0,1,1.29.8,4.05,4.05,0,0,1,.6,2.47Zm2.72-.92a1.51,1.51,0,0,0-.38-1,1.22,1.22,0,0,0-1-.42,1.3,1.3,0,0,0-1,.4,1.42,1.42,0,0,0-.41,1Z" style="fill:#423c25"/><path d="M88.62,63.36a1.58,1.58,0,0,0-.58-.12,1.39,1.39,0,0,0-.3,0,1.42,1.42,0,0,0-.73.47,1.86,1.86,0,0,0-.38,1,3,3,0,0,0,0,.51,2.51,2.51,0,0,0,.07.62,1.74,1.74,0,0,0,.43.88,1.28,1.28,0,0,0,.84.39h.12a1.39,1.39,0,0,0,.78-.22,1.25,1.25,0,0,0,.5-1l1.11.23a2.36,2.36,0,0,1-.57,1.26,2,2,0,0,1-1.18.65,4,4,0,0,1-.68.06,3.08,3.08,0,0,1-.68-.07,2.14,2.14,0,0,1-1.07-.54,2.41,2.41,0,0,1-.63-1.15,4.3,4.3,0,0,1-.17-1.17c0-.1,0-.21,0-.31a3.74,3.74,0,0,1,.35-1.35,2.17,2.17,0,0,1,.74-.9,2.53,2.53,0,0,1,.92-.39,3.27,3.27,0,0,1,.57,0l.53,0a2.09,2.09,0,0,1,1.16.53,2,2,0,0,1,.65,1.36l-1.1.18A1.24,1.24,0,0,0,88.62,63.36Z" style="fill:#423c25"/><path d="M92.2,63.35a2.25,2.25,0,0,1,1.15-.62,3.84,3.84,0,0,1,.69-.07,3.79,3.79,0,0,1,.86.1A1.4,1.4,0,0,1,96,63.89a7.45,7.45,0,0,1,.16,1.8c0,.4,0,.85,0,1.35v0c0,.28.11.42.34.42a1.05,1.05,0,0,0,.41-.1l.09,1a3,3,0,0,1-.74.1,1.07,1.07,0,0,1-1-.56,2.71,2.71,0,0,1-1,.59,3.13,3.13,0,0,1-.89.13h0a2.13,2.13,0,0,1-.84-.16,1.62,1.62,0,0,1-.65-.49,1.5,1.5,0,0,1-.29-.77v-.17a2.34,2.34,0,0,1,.15-.79,1.71,1.71,0,0,1,.91-.86,8,8,0,0,1,2.51-.52,1.49,1.49,0,0,0-.19-.93,1.18,1.18,0,0,0-.74-.24H94a1.43,1.43,0,0,0-.7.15,1,1,0,0,0-.41.82l-1.13-.15A1.88,1.88,0,0,1,92.2,63.35Zm2.89,2.49a4.94,4.94,0,0,0-1.92.4.89.89,0,0,0-.46.72V67a.64.64,0,0,0,.27.58,1,1,0,0,0,.58.16h.17a1.85,1.85,0,0,0,.75-.21,5.93,5.93,0,0,0,.61-.41Z" style="fill:#423c25"/><path d="M101.53,63.75a1.65,1.65,0,0,0-.8-.25h-.12a1.26,1.26,0,0,0-.68.25,1.92,1.92,0,0,0-.45.52,3.55,3.55,0,0,0-.22,1.4l-.06,2.54-1.11,0L98,62.13,99.14,62l.06,1.34a1.83,1.83,0,0,1,1-1,1.53,1.53,0,0,1,.54-.09,3.33,3.33,0,0,1,1.13.24Z" style="fill:#423c25"/><path d="M107.05,68.44l0-1a1.81,1.81,0,0,1-.75.7,2.35,2.35,0,0,1-1.08.24A2.19,2.19,0,0,1,104,68a2.11,2.11,0,0,1-.83-1.09,4.67,4.67,0,0,1-.25-1.43s0,0,0-.07a5.19,5.19,0,0,1,.24-1.49,2.32,2.32,0,0,1,.84-1.26,1.88,1.88,0,0,1,1.12-.31l.51,0A1.71,1.71,0,0,1,107,63.48l0-2.89h1.2v7.85Zm-2.94-3a2.5,2.5,0,0,0,.36,1.35,1.18,1.18,0,0,0,1,.61,1.3,1.3,0,0,0,1.11-.55,2.23,2.23,0,0,0,.37-1.34v-.07q0-2-1.38-2a1.24,1.24,0,0,0-1.1.62,2.27,2.27,0,0,0-.36,1.31Z" style="fill:#423c25"/><path d="M127.73,62.09h.93V60.42l1.18-.16V62l1.54-.06v1l-1.54,0v3.51a1,1,0,0,0,.11.57.37.37,0,0,0,.34.14,4,4,0,0,0,.93-.2l.16,1a7.45,7.45,0,0,1-1.4.22,1.8,1.8,0,0,1-1-.37,1.67,1.67,0,0,1-.3-1.06V63.06h-.93Z" style="fill:#423c25"/><path d="M133.15,67.8a3.74,3.74,0,0,1,0-4.41,2.72,2.72,0,0,1,4,0,3.74,3.74,0,0,1,0,4.41,2.72,2.72,0,0,1-4,0Zm3.19-.76a2.51,2.51,0,0,0,.38-1.41,2.48,2.48,0,0,0-.38-1.4,1.37,1.37,0,0,0-1.21-.66,1.35,1.35,0,0,0-1.2.66,2.41,2.41,0,0,0-.39,1.4,2.44,2.44,0,0,0,.39,1.41,1.35,1.35,0,0,0,1.2.66A1.37,1.37,0,0,0,136.34,67Z" style="fill:#423c25"/><path d="M14.7,75.08l0,1a1.73,1.73,0,0,1,.74-.7,2.37,2.37,0,0,1,1.09-.24,2.19,2.19,0,0,1,1.2.39,2.11,2.11,0,0,1,.83,1.09A4.69,4.69,0,0,1,18.86,78v.07a5.19,5.19,0,0,1-.24,1.49,2.32,2.32,0,0,1-.84,1.26,1.88,1.88,0,0,1-1.12.32,3.14,3.14,0,0,1-.51-.05A1.68,1.68,0,0,1,14.73,80l0,2.89h-1.2V75.08Zm2.94,3a2.5,2.5,0,0,0-.36-1.35,1.18,1.18,0,0,0-1-.61,1.3,1.3,0,0,0-1.11.55A2.23,2.23,0,0,0,14.8,78v.07q0,2,1.38,2a1.24,1.24,0,0,0,1.1-.62,2.27,2.27,0,0,0,.36-1.31Z" style="fill:#423c25"/><path d="M23.45,76.72a1.58,1.58,0,0,0-.8-.25h-.12a1.31,1.31,0,0,0-.68.24,2,2,0,0,0-.45.53,3.35,3.35,0,0,0-.22,1.39l-.07,2.54-1.1,0-.1-6.12L21.06,75l.05,1.33a1.86,1.86,0,0,1,1-.94,1.33,1.33,0,0,1,.54-.1,3.37,3.37,0,0,1,1.13.25Z" style="fill:#423c25"/><path d="M26.07,78.72a2.14,2.14,0,0,0,.41,1.34,1.34,1.34,0,0,0,.91.39h.14a1.39,1.39,0,0,0,.8-.22,1.64,1.64,0,0,0,.57-1l1.18.22a3.56,3.56,0,0,1-.66,1.27,1.89,1.89,0,0,1-1.19.64,3.65,3.65,0,0,1-.72.07,4.18,4.18,0,0,1-.72-.07,2.18,2.18,0,0,1-1.19-.69,2.51,2.51,0,0,1-.67-1.25,4.55,4.55,0,0,1-.12-1c0-.13,0-.25,0-.38a3.28,3.28,0,0,1,.36-1.32,2.19,2.19,0,0,1,.78-.9,2.75,2.75,0,0,1,1-.39,2.8,2.8,0,0,1,.6,0l.6,0a2,2,0,0,1,1.29.8A4,4,0,0,1,30,78.69Zm2.72-.93a1.65,1.65,0,0,0-.38-1,1.22,1.22,0,0,0-.95-.42,1.35,1.35,0,0,0-1,.4,1.43,1.43,0,0,0-.4,1Z" style="fill:#423c25"/><path d="M31.13,75.58l1.24-.26,1.46,4.76h0l1.42-4.5,1.22.27-2,5.37-1.33,0Z" style="fill:#423c25"/><path d="M38.8,78.72a2.13,2.13,0,0,0,.42,1.34,1.3,1.3,0,0,0,.91.39h.14a1.36,1.36,0,0,0,.79-.22,1.7,1.7,0,0,0,.58-1l1.17.22a3.39,3.39,0,0,1-.65,1.27,1.91,1.91,0,0,1-1.19.64,3.68,3.68,0,0,1-.73.07,4.17,4.17,0,0,1-.71-.07,2.17,2.17,0,0,1-1.2-.69,2.68,2.68,0,0,1-.67-1.25,5.17,5.17,0,0,1-.11-1c0-.13,0-.25,0-.38a3.46,3.46,0,0,1,.37-1.32,2.05,2.05,0,0,1,.78-.9,2.75,2.75,0,0,1,1-.39,2.8,2.8,0,0,1,.6,0l.6,0a2,2,0,0,1,1.29.8,4,4,0,0,1,.59,2.47Zm2.73-.93a1.6,1.6,0,0,0-.39-1,1.2,1.2,0,0,0-.94-.42,1.35,1.35,0,0,0-1,.4,1.44,1.44,0,0,0-.41,1Z" style="fill:#423c25"/><path d="M45,75.13l0,1.33a1.75,1.75,0,0,1,1-.92,2.21,2.21,0,0,1,.75-.14,2.1,2.1,0,0,1,.43,0,1.63,1.63,0,0,1,1,.61,2.69,2.69,0,0,1,.5,1.13A12.32,12.32,0,0,1,48.75,79c0,.72,0,1.64,0,2.76l-1.11,0c0-1,0-1.76,0-2.39,0-1,0-1.62,0-1.81a1.19,1.19,0,0,0-.37-.71,1.13,1.13,0,0,0-.71-.24h0a1,1,0,0,0-.66.22,2.45,2.45,0,0,0-.44.58,3.7,3.7,0,0,0-.23,1.42l-.06,2.54-1.11,0-.09-6.12Z" style="fill:#423c25"/><path d="M49.8,75.06h.93V73.38l1.18-.15V75l1.54,0v1l-1.54,0v3.52a1.06,1.06,0,0,0,.11.57.4.4,0,0,0,.34.14,4.69,4.69,0,0,0,.93-.2l.16,1a6.6,6.6,0,0,1-1.4.22,1.89,1.89,0,0,1-1-.36,1.69,1.69,0,0,1-.3-1.06V76H49.8Z" style="fill:#423c25"/><path d="M62.48,75.06h.93V73.38l1.18-.15V75l1.54,0v1l-1.54,0v3.52a1.06,1.06,0,0,0,.11.57.4.4,0,0,0,.34.14A4.69,4.69,0,0,0,66,80l.16,1a6.69,6.69,0,0,1-1.4.22,1.86,1.86,0,0,1-1-.36,1.69,1.69,0,0,1-.3-1.06V76h-.93Z" style="fill:#423c25"/><path d="M68.39,73.44v2.91a1.71,1.71,0,0,1,1-.91,2.06,2.06,0,0,1,.76-.15,2,2,0,0,1,.42,0,1.62,1.62,0,0,1,1,.62A2.53,2.53,0,0,1,72,77.09a12.66,12.66,0,0,1,.07,1.8c0,.72,0,1.64,0,2.77l-1.11,0c0-1,0-1.75,0-2.38a14.52,14.52,0,0,0-.06-1.82,1.11,1.11,0,0,0-.37-.7,1.05,1.05,0,0,0-.71-.24h0a1,1,0,0,0-.66.22,2.18,2.18,0,0,0-.45.57,3.82,3.82,0,0,0-.22,1.43l-.06,2.53-1.11,0-.1-7.71Z" style="fill:#423c25"/><path d="M74.38,78.72a2.14,2.14,0,0,0,.41,1.34,1.32,1.32,0,0,0,.91.39h.14a1.34,1.34,0,0,0,.79-.22,1.7,1.7,0,0,0,.58-1l1.17.22a3.39,3.39,0,0,1-.65,1.27,1.91,1.91,0,0,1-1.19.64,3.65,3.65,0,0,1-.72.07,4.18,4.18,0,0,1-.72-.07,2.2,2.2,0,0,1-1.2-.69,2.58,2.58,0,0,1-.66-1.25,4.55,4.55,0,0,1-.12-1,2.42,2.42,0,0,1,0-.38,3.28,3.28,0,0,1,.36-1.32,2.05,2.05,0,0,1,.78-.9,2.75,2.75,0,0,1,1-.39,2.8,2.8,0,0,1,.6,0l.6,0a2,2,0,0,1,1.29.8,4,4,0,0,1,.59,2.47Zm2.72-.93a1.6,1.6,0,0,0-.39-1,1.2,1.2,0,0,0-.94-.42,1.35,1.35,0,0,0-1,.4,1.38,1.38,0,0,0-.4,1Z" style="fill:#423c25"/><path d="M87.58,81l-.16-7.77,3.74-.06a3,3,0,0,1,1.71.54,1.74,1.74,0,0,1,.62,1.49v0a1.57,1.57,0,0,1-1.13,1.51,2.14,2.14,0,0,1,.79,3.62,3.19,3.19,0,0,1-2.18.62H87.58Zm1.24-4.58L91,76.32c.76,0,1.14-.36,1.14-1.07s-.38-1-1.14-1h-2.2Zm0,3.44,2.39-.06c.86,0,1.29-.4,1.29-1.22s-.43-1.14-1.29-1.14l-2.34,0Z" style="fill:#423c25"/><path d="M95.61,76.31a2.2,2.2,0,0,1,1.15-.61,3,3,0,0,1,.68-.07,3.87,3.87,0,0,1,.87.1,1.41,1.41,0,0,1,1.08,1.13,8,8,0,0,1,.16,1.79c0,.41,0,.86,0,1.36v0c0,.29.12.43.34.43a1,1,0,0,0,.41-.1l.09,1a3,3,0,0,1-.73.11,1.07,1.07,0,0,1-1-.56,2.87,2.87,0,0,1-.95.59,3.19,3.19,0,0,1-.89.12h0a2.14,2.14,0,0,1-.84-.17,1.55,1.55,0,0,1-.66-.48,1.49,1.49,0,0,1-.28-.77c0-.06,0-.11,0-.17a2.34,2.34,0,0,1,.15-.79,1.66,1.66,0,0,1,.92-.86,7.83,7.83,0,0,1,2.51-.53,1.5,1.5,0,0,0-.19-.92,1.22,1.22,0,0,0-.75-.24h-.19a1.34,1.34,0,0,0-.7.16,1,1,0,0,0-.4.81l-1.13-.14A1.88,1.88,0,0,1,95.61,76.31Zm2.88,2.49a4.83,4.83,0,0,0-1.91.41.87.87,0,0,0-.46.72.09.09,0,0,0,0,0,.65.65,0,0,0,.27.58,1,1,0,0,0,.59.16h.17a1.85,1.85,0,0,0,.75-.21,6.06,6.06,0,0,0,.6-.42Z" style="fill:#423c25"/><path d="M104.93,76.72a1.52,1.52,0,0,0-.79-.25H104a1.28,1.28,0,0,0-.68.24,2,2,0,0,0-.45.53,3.35,3.35,0,0,0-.22,1.39l-.07,2.54-1.11,0-.09-6.12,1.15-.12,0,1.33a1.83,1.83,0,0,1,1-.94,1.33,1.33,0,0,1,.54-.1,3.37,3.37,0,0,1,1.13.25Z" style="fill:#423c25"/><path d="M106.31,81.56V73.71h1.2l0,2.9a1.69,1.69,0,0,1,1.43-1.07,2.89,2.89,0,0,1,.5,0,1.88,1.88,0,0,1,1.12.32,2.32,2.32,0,0,1,.84,1.26,5.12,5.12,0,0,1,.24,1.48v.08a4.68,4.68,0,0,1-.26,1.42,2.07,2.07,0,0,1-.83,1.09,2.19,2.19,0,0,1-1.2.39,2.39,2.39,0,0,1-1.09-.24,1.71,1.71,0,0,1-.74-.69l0,1Zm4-3v0a2.33,2.33,0,0,0-.36-1.32,1.23,1.23,0,0,0-1.1-.61q-1.35,0-1.38,2v.07a2.2,2.2,0,0,0,.37,1.33,1.3,1.3,0,0,0,1.11.56,1.19,1.19,0,0,0,1-.62A2.49,2.49,0,0,0,110.36,78.6Z" style="fill:#423c25"/><path d="M113.33,76.31a2.24,2.24,0,0,1,1.15-.61,3.11,3.11,0,0,1,.69-.07,3.79,3.79,0,0,1,.86.1,1.41,1.41,0,0,1,1.09,1.13,8.08,8.08,0,0,1,.15,1.79c0,.41,0,.86,0,1.36v0c0,.29.11.43.34.43a1.05,1.05,0,0,0,.41-.1l.09,1a3,3,0,0,1-.74.11,1.08,1.08,0,0,1-1-.56,2.84,2.84,0,0,1-.94.59,3.24,3.24,0,0,1-.89.12h0a2.14,2.14,0,0,1-.84-.17,1.4,1.4,0,0,1-.94-1.25,1,1,0,0,1,0-.17,2.34,2.34,0,0,1,.15-.79,1.63,1.63,0,0,1,.92-.86,7.82,7.82,0,0,1,2.5-.53,1.43,1.43,0,0,0-.19-.92,1.16,1.16,0,0,0-.74-.24h-.19a1.32,1.32,0,0,0-.7.16,1,1,0,0,0-.4.81l-1.13-.14A1.82,1.82,0,0,1,113.33,76.31Zm2.89,2.49a4.78,4.78,0,0,0-1.91.41.87.87,0,0,0-.46.72.09.09,0,0,0,0,0,.65.65,0,0,0,.27.58,1,1,0,0,0,.58.16h.17a1.86,1.86,0,0,0,.76-.21,6.06,6.06,0,0,0,.6-.42Z" style="fill:#423c25"/><path d="M122.66,76.72a1.55,1.55,0,0,0-.8-.25h-.12a1.34,1.34,0,0,0-.68.24,1.94,1.94,0,0,0-.44.53,3.3,3.3,0,0,0-.23,1.39l-.06,2.54-1.11,0-.09-6.12,1.15-.12,0,1.33a1.83,1.83,0,0,1,1-.94,1.25,1.25,0,0,1,.53-.1,3.32,3.32,0,0,1,1.13.25Z" style="fill:#423c25"/><path d="M125.22,73.8a.65.65,0,0,1,0,1,.71.71,0,0,1-1,0,.68.68,0,0,1,0-1,.71.71,0,0,1,1,0Zm-1.1,1.82,1.18-.05-.11,5.87h-1Z" style="fill:#423c25"/><path d="M127.18,76.31a2.24,2.24,0,0,1,1.15-.61,3.11,3.11,0,0,1,.69-.07,3.79,3.79,0,0,1,.86.1A1.41,1.41,0,0,1,131,76.86a8.08,8.08,0,0,1,.15,1.79c0,.41,0,.86,0,1.36v0c0,.29.11.43.34.43a1.05,1.05,0,0,0,.41-.1l.09,1a3,3,0,0,1-.74.11,1.08,1.08,0,0,1-1-.56,2.84,2.84,0,0,1-.94.59,3.24,3.24,0,0,1-.89.12h-.05a2.09,2.09,0,0,1-.83-.17,1.49,1.49,0,0,1-.66-.48,1.41,1.41,0,0,1-.28-.77,1,1,0,0,1,0-.17,2.34,2.34,0,0,1,.15-.79,1.63,1.63,0,0,1,.92-.86,7.82,7.82,0,0,1,2.5-.53,1.43,1.43,0,0,0-.19-.92,1.16,1.16,0,0,0-.74-.24h-.19a1.32,1.32,0,0,0-.7.16.94.94,0,0,0-.4.81l-1.13-.14A1.82,1.82,0,0,1,127.18,76.31Zm2.89,2.49a4.78,4.78,0,0,0-1.91.41.88.88,0,0,0-.47.72v0a.65.65,0,0,0,.27.58,1,1,0,0,0,.58.16h.17a1.86,1.86,0,0,0,.76-.21,6.06,6.06,0,0,0,.6-.42Z" style="fill:#423c25"/><path d="M134.13,75.13l.05,1.33a1.77,1.77,0,0,1,.95-.92,2.31,2.31,0,0,1,.76-.14,2,2,0,0,1,.42,0,1.66,1.66,0,0,1,1,.61,2.69,2.69,0,0,1,.5,1.13,12.32,12.32,0,0,1,.08,1.81c0,.72,0,1.64-.05,2.76l-1.1,0c0-1,0-1.76,0-2.39a14.31,14.31,0,0,0-.06-1.81,1.14,1.14,0,0,0-.37-.71,1.11,1.11,0,0,0-.71-.24h0a1,1,0,0,0-.66.22,2,2,0,0,0-.44.58,3.51,3.51,0,0,0-.23,1.42l-.06,2.54-1.11,0L133,75.25Z" style="fill:#423c25"/><path d="M14.56,94.53l0-5.32-1,0,0-.86h1a2.6,2.6,0,0,1,.38-1.62,1.46,1.46,0,0,1,.87-.54,1.9,1.9,0,0,1,.35,0,3.53,3.53,0,0,1,.85.12l-.13,1a1.84,1.84,0,0,0-.48-.08.73.73,0,0,0-.45.13c-.21.14-.31.44-.31.9a.62.62,0,0,0,0,.13h1.13l0,1H15.68v5.29Z" style="fill:#423c25"/><path d="M21.6,89.68a1.59,1.59,0,0,0-.79-.24h-.12a1.28,1.28,0,0,0-.68.25,1.92,1.92,0,0,0-.45.52,3.4,3.4,0,0,0-.22,1.4l-.07,2.54-1.11,0-.09-6.12,1.15-.13.05,1.34a1.85,1.85,0,0,1,1-1,1.53,1.53,0,0,1,.54-.09,3.14,3.14,0,0,1,1.13.25Z" style="fill:#423c25"/><path d="M23.68,93.74A3.34,3.34,0,0,1,23,91.52a3.3,3.3,0,0,1,.71-2.2,2.73,2.73,0,0,1,4,0,3.25,3.25,0,0,1,.71,2.2,3.29,3.29,0,0,1-.71,2.22,2.73,2.73,0,0,1-4,0Zm3.2-.76a2.81,2.81,0,0,0,0-2.82,1.44,1.44,0,0,0-2.42,0,2.81,2.81,0,0,0,0,2.82,1.45,1.45,0,0,0,2.42,0Z" style="fill:#423c25"/><path d="M30.62,87.62l.06,1.27A1.42,1.42,0,0,1,31.5,88a1.84,1.84,0,0,1,.66-.12,2.3,2.3,0,0,1,.45,0,2,2,0,0,1,1.16,1,2.13,2.13,0,0,1,.82-1,2.28,2.28,0,0,1,1-.23h.1a1.49,1.49,0,0,1,1.15.64,2.34,2.34,0,0,1,.54,1.35c0,.21,0,.58,0,1.11,0,.7,0,1.67,0,2.93l-1.07-.1V90.57A2.14,2.14,0,0,0,36,89.3,1.18,1.18,0,0,0,35.4,89h-.06a.84.84,0,0,0-.53.23,1.36,1.36,0,0,0-.45.61,6.43,6.43,0,0,0-.22,1.61l0,1.71-1,0A23.39,23.39,0,0,0,33,90a1.61,1.61,0,0,0-.38-.76.67.67,0,0,0-.49-.23H32a1.39,1.39,0,0,0-.62.27,1.46,1.46,0,0,0-.42.57,4.52,4.52,0,0,0-.19,1.47l-.1,2.57h-1l-.16-6.21Z" style="fill:#423c25"/><path d="M46.59,94.37l0-1a1.67,1.67,0,0,1-.74.7,2.38,2.38,0,0,1-1.08.24A2.19,2.19,0,0,1,43.52,94a2.11,2.11,0,0,1-.83-1.09,4.38,4.38,0,0,1-.25-1.42.22.22,0,0,1,0-.08,5.24,5.24,0,0,1,.24-1.49,2.28,2.28,0,0,1,.84-1.26,1.88,1.88,0,0,1,1.12-.31l.51,0a1.7,1.7,0,0,1,1.42,1.08l-.05-2.9h1.2v7.85Zm-2.94-3A2.5,2.5,0,0,0,44,92.75a1.18,1.18,0,0,0,1,.62,1.3,1.3,0,0,0,1.11-.56,2.23,2.23,0,0,0,.37-1.34V91.4c0-1.31-.48-2-1.38-2A1.26,1.26,0,0,0,44,90a2.4,2.4,0,0,0-.35,1.32Z" style="fill:#423c25"/><path d="M50,91.68A2.17,2.17,0,0,0,50.43,93a1.38,1.38,0,0,0,.91.39h.14a1.39,1.39,0,0,0,.8-.22,1.64,1.64,0,0,0,.57-1l1.18.23a3.6,3.6,0,0,1-.66,1.26,1.83,1.83,0,0,1-1.19.65,4.56,4.56,0,0,1-.72.06,3.38,3.38,0,0,1-.72-.07,2.22,2.22,0,0,1-1.19-.68,2.56,2.56,0,0,1-.67-1.25,4.63,4.63,0,0,1-.12-1c0-.12,0-.24,0-.37a3.5,3.5,0,0,1,.36-1.33,2.32,2.32,0,0,1,.78-.9,3.14,3.14,0,0,1,1-.39,3.45,3.45,0,0,1,.6-.05c.18,0,.38,0,.59,0a2,2,0,0,1,1.29.8,4,4,0,0,1,.6,2.46Zm2.72-.92a1.65,1.65,0,0,0-.38-1,1.22,1.22,0,0,0-1-.42,1.29,1.29,0,0,0-1,.4,1.39,1.39,0,0,0-.41,1Z" style="fill:#423c25"/><path d="M55.08,92.31l1.13-.21c0,.56.27.89.65,1a3.21,3.21,0,0,0,.71.09l.29,0a1,1,0,0,0,.59-.25.7.7,0,0,0,.19-.36s0,0,0-.06a.44.44,0,0,0-.1-.26,1.06,1.06,0,0,0-.29-.27,6.47,6.47,0,0,0-1-.35A9.87,9.87,0,0,1,56,91.2a1.46,1.46,0,0,1-.59-.43,1.14,1.14,0,0,1-.24-.71V90a1.66,1.66,0,0,1,.16-.73,1.45,1.45,0,0,1,.66-.63,2.81,2.81,0,0,1,1-.31l.39,0a3.12,3.12,0,0,1,.54,0,2.28,2.28,0,0,1,.91.37,2.24,2.24,0,0,1,.72,1.37l-1.06.14c-.14-.48-.32-.75-.55-.83a1.82,1.82,0,0,0-.56-.09h-.11a1.08,1.08,0,0,0-.57.19.62.62,0,0,0-.27.42v0a.46.46,0,0,0,.16.35,2.69,2.69,0,0,0,1,.33,6.25,6.25,0,0,1,1.37.48,1.35,1.35,0,0,1,.72.63,2.06,2.06,0,0,1,.14.76h0a1.49,1.49,0,0,1-.23.8,1.87,1.87,0,0,1-.76.62,3,3,0,0,1-1.29.26h-.09a3.59,3.59,0,0,1-1.1-.14,1.69,1.69,0,0,1-.76-.45A2.37,2.37,0,0,1,55.08,92.31Z" style="fill:#423c25"/><path d="M60.84,88h.93V86.35L63,86.19V88l1.53,0v1l-1.53,0v3.51a1,1,0,0,0,.1.57.38.38,0,0,0,.34.15,4.69,4.69,0,0,0,.93-.2l.16,1a6.6,6.6,0,0,1-1.4.22,1.89,1.89,0,0,1-1-.36,1.69,1.69,0,0,1-.3-1.06V89h-.93Z" style="fill:#423c25"/><path d="M69.08,89.68a1.63,1.63,0,0,0-.8-.24h-.12a1.35,1.35,0,0,0-.68.25,1.74,1.74,0,0,0-.44.52,3.36,3.36,0,0,0-.23,1.4l-.06,2.54-1.11,0-.09-6.12,1.15-.13,0,1.34a1.87,1.87,0,0,1,1-1,1.53,1.53,0,0,1,.54-.09,3.1,3.1,0,0,1,1.13.25Z" style="fill:#423c25"/><path d="M71.16,93.74a3.29,3.29,0,0,1-.71-2.22,3.25,3.25,0,0,1,.71-2.2,2.73,2.73,0,0,1,4,0,3.3,3.3,0,0,1,.71,2.2,3.34,3.34,0,0,1-.71,2.22,2.73,2.73,0,0,1-4,0ZM74.35,93a2.74,2.74,0,0,0,0-2.82,1.43,1.43,0,0,0-2.41,0,2.81,2.81,0,0,0,0,2.82,1.44,1.44,0,0,0,2.41,0Z" style="fill:#423c25"/><path d="M76.93,88.17l1.23-.26,1.5,4.31,1.57-4,1.07.34-3.16,7.91-1-.52L79,93.54Z" style="fill:#423c25"/><path d="M84.54,86.76a.66.66,0,0,1,.21.48.63.63,0,0,1-.21.48.64.64,0,0,1-.49.2.66.66,0,0,1-.5-.2.66.66,0,0,1-.2-.48.67.67,0,0,1,.7-.67A.67.67,0,0,1,84.54,86.76Zm-1.09,1.83,1.17-.06-.1,5.87h-1Z" style="fill:#423c25"/><path d="M87,88.09,87,89.43a1.73,1.73,0,0,1,.95-.92,2.08,2.08,0,0,1,.76-.14,2,2,0,0,1,.42,0,1.62,1.62,0,0,1,1,.62,2.53,2.53,0,0,1,.51,1.13,12.66,12.66,0,0,1,.07,1.8c0,.72,0,1.65,0,2.77l-1.11,0c0-1,0-1.76,0-2.39a14.52,14.52,0,0,0-.06-1.82,1.11,1.11,0,0,0-.37-.7,1.05,1.05,0,0,0-.71-.24h0a1,1,0,0,0-.66.22,2.18,2.18,0,0,0-.45.57,3.87,3.87,0,0,0-.22,1.43L87,94.31l-1.11,0-.1-6.12Z" style="fill:#423c25"/><path d="M92,94.56l1.11-.19c.12.56.36.88.73,1a2.48,2.48,0,0,0,.61.07,2.21,2.21,0,0,0,.51,0,1.08,1.08,0,0,0,.78-.49,2.5,2.5,0,0,0,.16-1.09c0-.13,0-.28,0-.43A2.26,2.26,0,0,1,94.8,94a4.54,4.54,0,0,1-.75.07h-.26a2,2,0,0,1-1.05-.39A2,2,0,0,1,92,92.8a4,4,0,0,1-.25-1.35,1.48,1.48,0,0,1,0-.21A4.06,4.06,0,0,1,91.92,90a2.22,2.22,0,0,1,.73-1.07,2.67,2.67,0,0,1,1-.54,3.08,3.08,0,0,1,.61-.06,3.32,3.32,0,0,1,.53,0A2,2,0,0,1,96,89v-.64l1,0c0,.9,0,1.7,0,2.41a31.14,31.14,0,0,1-.13,4.06,1.92,1.92,0,0,1-.57,1,2.09,2.09,0,0,1-.93.43,6.2,6.2,0,0,1-1,.09h0a3.46,3.46,0,0,1-.89-.1,1.84,1.84,0,0,1-.78-.45A2.71,2.71,0,0,1,92,94.56Zm3.58-2.06a2.37,2.37,0,0,0,.34-1.33,2.21,2.21,0,0,0-.35-1.29,1.33,1.33,0,0,0-1.15-.56,1.29,1.29,0,0,0-1.15.62,2.53,2.53,0,0,0-.32,1.32,2.14,2.14,0,0,0,.35,1.27,1.27,1.27,0,0,0,1.12.58A1.3,1.3,0,0,0,95.57,92.5Z" style="fill:#423c25"/><path d="M103.16,86.76a.66.66,0,0,1,.21.48.63.63,0,0,1-.21.48.66.66,0,0,1-.49.2.66.66,0,0,1-.5-.2.66.66,0,0,1-.2-.48.71.71,0,0,1,1.19-.48Zm-1.1,1.83,1.18-.06-.11,5.87h-1Z" style="fill:#423c25"/><path d="M104.42,88h.93V86.35l1.18-.16V88l1.54,0v1l-1.54,0v3.51a1,1,0,0,0,.11.57.37.37,0,0,0,.34.15,4.69,4.69,0,0,0,.93-.2l.16,1a6.67,6.67,0,0,1-1.41.22,1.86,1.86,0,0,1-1-.36,1.69,1.69,0,0,1-.3-1.06V89h-.93Z" style="fill:#423c25"/><path d="M110.31,88a.65.65,0,0,1,0,1,.7.7,0,0,1-1,0,.65.65,0,0,1,0-1,.7.7,0,0,1,1,0Zm-.84,7.1-.34-.23a2.4,2.4,0,0,0,.64-.85.51.51,0,0,1-.52-.27.82.82,0,0,1-.1-.4.34.34,0,0,1,0-.1.62.62,0,0,1,.18-.39.85.85,0,0,1,.37-.18h.1a.63.63,0,0,1,.34.1.66.66,0,0,1,.32.32.63.63,0,0,1,.07.32,1.8,1.8,0,0,1,0,.22,1.49,1.49,0,0,1-.22.6A5.68,5.68,0,0,1,109.47,95.11Z" style="fill:#423c25"/><path d="M115.53,88h.93V86.35l1.18-.16V88l1.53,0v1l-1.53,0v3.51a1,1,0,0,0,.1.57.38.38,0,0,0,.34.15A4.42,4.42,0,0,0,119,93l.16,1a6.51,6.51,0,0,1-1.4.22,1.86,1.86,0,0,1-1-.36,1.58,1.58,0,0,1-.3-1.06V89h-.93Z" style="fill:#423c25"/><path d="M121.43,86.4v2.92a1.75,1.75,0,0,1,1-.92,2.21,2.21,0,0,1,.75-.14,2.1,2.1,0,0,1,.43,0,1.67,1.67,0,0,1,1,.61,2.69,2.69,0,0,1,.5,1.13,12.32,12.32,0,0,1,.08,1.81c0,.72,0,1.64,0,2.76l-1.11,0c0-1,0-1.76,0-2.39,0-1,0-1.62,0-1.81a1,1,0,0,0-1.09-1h0a1,1,0,0,0-.66.22,2.45,2.45,0,0,0-.44.58,3.74,3.74,0,0,0-.23,1.42l-.06,2.54-1.11,0-.09-7.7Z" style="fill:#423c25"/><path d="M127.42,91.68a2.17,2.17,0,0,0,.41,1.35,1.38,1.38,0,0,0,.91.39h.14a1.39,1.39,0,0,0,.8-.22,1.64,1.64,0,0,0,.57-1l1.18.23a3.6,3.6,0,0,1-.66,1.26,1.83,1.83,0,0,1-1.19.65,4.56,4.56,0,0,1-.72.06,3.38,3.38,0,0,1-.72-.07,2.22,2.22,0,0,1-1.19-.68,2.56,2.56,0,0,1-.67-1.25,4.63,4.63,0,0,1-.12-1c0-.12,0-.24,0-.37a3.33,3.33,0,0,1,.36-1.33,2.32,2.32,0,0,1,.78-.9,3.19,3.19,0,0,1,1-.39,3.67,3.67,0,0,1,.61-.05c.18,0,.38,0,.59,0a2,2,0,0,1,1.29.8,4,4,0,0,1,.6,2.46Zm2.72-.92a1.65,1.65,0,0,0-.38-1,1.22,1.22,0,0,0-.95-.42,1.29,1.29,0,0,0-1,.4,1.39,1.39,0,0,0-.41,1Z" style="fill:#423c25"/><path d="M132.48,88.17l1.24-.26,1.5,4.31,1.57-4,1.06.34-3.16,7.91-1-.52.87-2.36Z" style="fill:#423c25"/><path d="M16.74,102.25a1.8,1.8,0,0,0-.59-.11,1.53,1.53,0,0,0-.3,0,1.4,1.4,0,0,0-.72.47,1.86,1.86,0,0,0-.38,1,3.19,3.19,0,0,0,0,1.12,1.74,1.74,0,0,0,.43.88,1.28,1.28,0,0,0,.84.4h.13a1.42,1.42,0,0,0,.78-.22,1.25,1.25,0,0,0,.5-1l1.11.23a2.36,2.36,0,0,1-.57,1.26,2,2,0,0,1-1.18.65,4,4,0,0,1-.68.06,3,3,0,0,1-.68-.07,2.21,2.21,0,0,1-1.08-.54,2.59,2.59,0,0,1-.63-1.15,4.29,4.29,0,0,1-.16-1.17c0-.11,0-.21,0-.31a3.63,3.63,0,0,1,.35-1.35,2.11,2.11,0,0,1,.74-.9,2.46,2.46,0,0,1,.92-.39,3.27,3.27,0,0,1,.57,0l.52,0a2.15,2.15,0,0,1,1.17.53,2.06,2.06,0,0,1,.65,1.35l-1.1.18A1.27,1.27,0,0,0,16.74,102.25Z" style="fill:#423c25"/><path d="M20.32,102.24a2.32,2.32,0,0,1,1.15-.61,3,3,0,0,1,.68-.07,3.81,3.81,0,0,1,.87.1,1.43,1.43,0,0,1,1.08,1.13,7.45,7.45,0,0,1,.16,1.8c0,.4,0,.85,0,1.35v0c0,.29.11.43.33.43a1.1,1.1,0,0,0,.42-.1l.08,1a3,3,0,0,1-.73.11,1.07,1.07,0,0,1-1-.56,2.87,2.87,0,0,1-1,.59,3.61,3.61,0,0,1-.89.13h0a2,2,0,0,1-.84-.17,1.52,1.52,0,0,1-.65-.48,1.42,1.42,0,0,1-.29-.77V106a2.31,2.31,0,0,1,.14-.79,1.7,1.7,0,0,1,.92-.86,7.89,7.89,0,0,1,2.51-.53,1.52,1.52,0,0,0-.19-.92,1.22,1.22,0,0,0-.75-.24h-.19a1.34,1.34,0,0,0-.7.16,1,1,0,0,0-.4.81l-1.13-.14A1.9,1.9,0,0,1,20.32,102.24Zm2.88,2.49a4.88,4.88,0,0,0-1.91.41.87.87,0,0,0-.46.72.43.43,0,0,1,0,0,.65.65,0,0,0,.27.58,1,1,0,0,0,.59.16h.17a1.85,1.85,0,0,0,.75-.21,5.86,5.86,0,0,0,.6-.41Z" style="fill:#423c25"/><path d="M27.26,101.06l0,1.33a1.75,1.75,0,0,1,1-.92,2.21,2.21,0,0,1,.75-.14,2,2,0,0,1,.43,0,1.58,1.58,0,0,1,1,.62,2.73,2.73,0,0,1,.51,1.12,12.93,12.93,0,0,1,.07,1.81c0,.72,0,1.64,0,2.76l-1.11,0c0-1,0-1.75,0-2.39,0-1,0-1.62-.05-1.81a1.06,1.06,0,0,0-1.08-.95h0a1,1,0,0,0-.66.22,2.42,2.42,0,0,0-.45.58,3.6,3.6,0,0,0-.22,1.42l-.07,2.54-1.1,0-.1-6.12Z" style="fill:#423c25"/><path d="M38.13,102.65a1.55,1.55,0,0,0-.8-.25h-.12a1.26,1.26,0,0,0-.68.25,1.62,1.62,0,0,0-.44.52,3.32,3.32,0,0,0-.23,1.4l-.06,2.53-1.11,0L34.6,101l1.15-.13,0,1.33a1.85,1.85,0,0,1,1-.94,1.53,1.53,0,0,1,.54-.1,3.32,3.32,0,0,1,1.13.25Z" style="fill:#423c25"/><path d="M40.75,104.65a2.13,2.13,0,0,0,.42,1.34,1.35,1.35,0,0,0,.91.4h.13a1.37,1.37,0,0,0,.8-.22,1.7,1.7,0,0,0,.58-1l1.17.23a3.58,3.58,0,0,1-.65,1.26,2,2,0,0,1-1.19.65,4.59,4.59,0,0,1-.73.06,3.35,3.35,0,0,1-.71-.07,2.17,2.17,0,0,1-1.2-.69,2.68,2.68,0,0,1-.67-1.25,5.17,5.17,0,0,1-.11-1c0-.12,0-.25,0-.38a3.7,3.7,0,0,1,.36-1.32,2.26,2.26,0,0,1,.79-.9,2.68,2.68,0,0,1,1-.39,3.64,3.64,0,0,1,.6-.05l.6,0a2,2,0,0,1,1.29.8,4.11,4.11,0,0,1,.59,2.47Zm2.73-.92a1.55,1.55,0,0,0-.39-1,1.18,1.18,0,0,0-.94-.43,1.32,1.32,0,0,0-1,.41,1.42,1.42,0,0,0-.41,1Z" style="fill:#423c25"/><path d="M47,99.73a.65.65,0,0,1,0,1,.71.71,0,0,1-1,0,.68.68,0,0,1,0-1,.71.71,0,0,1,1,0Zm-1.1,1.82,1.18,0L47,107.37H46Z" style="fill:#423c25"/><path d="M49.42,101.06l0,1.33a1.79,1.79,0,0,1,1-.92,2.21,2.21,0,0,1,.75-.14,2,2,0,0,1,.43,0,1.58,1.58,0,0,1,1,.62,2.73,2.73,0,0,1,.51,1.12,12.93,12.93,0,0,1,.07,1.81c0,.72,0,1.64,0,2.76l-1.11,0c0-1,0-1.75,0-2.39,0-1,0-1.62-.05-1.81a1.06,1.06,0,0,0-1.08-.95h0a1,1,0,0,0-.66.22,2.42,2.42,0,0,0-.45.58,3.6,3.6,0,0,0-.22,1.42l-.07,2.54-1.1,0-.1-6.12Z" style="fill:#423c25"/><path d="M54.21,101h.92V99.32l1.19-.16v1.78l1.53-.06v1l-1.53.06v3.51a1,1,0,0,0,.1.57.4.4,0,0,0,.34.14,3.93,3.93,0,0,0,.93-.2l.16,1a6.67,6.67,0,0,1-1.4.23,1.88,1.88,0,0,1-1-.37,1.63,1.63,0,0,1-.31-1.06V102h-.92Z" style="fill:#423c25"/><path d="M62.44,102.65a1.52,1.52,0,0,0-.79-.25h-.13a1.26,1.26,0,0,0-.68.25,1.76,1.76,0,0,0-.44.52,3.32,3.32,0,0,0-.23,1.4l-.06,2.53-1.11,0L58.91,101l1.15-.13,0,1.33a1.83,1.83,0,0,1,1-.94,1.43,1.43,0,0,1,.53-.1,3.32,3.32,0,0,1,1.13.25Z" style="fill:#423c25"/><path d="M64.52,106.7a3.78,3.78,0,0,1,0-4.41,2.73,2.73,0,0,1,4,0,3.78,3.78,0,0,1,0,4.41,2.73,2.73,0,0,1-4,0Zm3.19-.76a2.74,2.74,0,0,0,0-2.82,1.44,1.44,0,0,0-2.41,0,2.81,2.81,0,0,0,0,2.82,1.43,1.43,0,0,0,2.41,0Z" style="fill:#423c25"/><path d="M74.44,107.33l0-1a1.82,1.82,0,0,1-.74.69,2.39,2.39,0,0,1-1.09.24,2.14,2.14,0,0,1-1.2-.39,2,2,0,0,1-.84-1.09,4.61,4.61,0,0,1-.25-1.42v-.07a5.52,5.52,0,0,1,.23-1.49,2.32,2.32,0,0,1,.84-1.26,1.91,1.91,0,0,1,1.13-.32,4.57,4.57,0,0,1,.5,0,1.69,1.69,0,0,1,1.42,1.07l0-2.9h1.19v7.85Zm-2.94-3a2.53,2.53,0,0,0,.36,1.35,1.2,1.2,0,0,0,1,.61,1.28,1.28,0,0,0,1.1-.56,2.2,2.2,0,0,0,.37-1.33v-.07q0-2-1.38-2a1.26,1.26,0,0,0-1.1.61,2.33,2.33,0,0,0-.36,1.32Z" style="fill:#423c25"/><path d="M80.36,107.69l-.06-1.34a1.75,1.75,0,0,1-1,.93,2.31,2.31,0,0,1-.76.14,2.1,2.1,0,0,1-.43,0,1.63,1.63,0,0,1-1-.62,2.59,2.59,0,0,1-.5-1.12,14.76,14.76,0,0,1-.08-2.13c0-.66,0-1.48,0-2.44l1.12,0c0,.76,0,1.42,0,2a21.17,21.17,0,0,0,.06,2.23,1.13,1.13,0,0,0,.36.71,1.2,1.2,0,0,0,.72.24h0a1,1,0,0,0,.66-.22,2.21,2.21,0,0,0,.44-.58,3.62,3.62,0,0,0,.22-1.43l0-2.5,1.15-.08.09,6.14Z" style="fill:#423c25"/><path d="M85.73,102.25a1.75,1.75,0,0,0-.58-.11,1.39,1.39,0,0,0-.3,0,1.36,1.36,0,0,0-.72.47,1.78,1.78,0,0,0-.39,1,4.38,4.38,0,0,0,0,.51,2.37,2.37,0,0,0,.07.61,1.66,1.66,0,0,0,.43.88,1.24,1.24,0,0,0,.84.4h.12a1.45,1.45,0,0,0,.79-.22,1.24,1.24,0,0,0,.49-1l1.11.23a2.36,2.36,0,0,1-.57,1.26,2,2,0,0,1-1.18.65,4,4,0,0,1-.68.06,3.08,3.08,0,0,1-.68-.07,2.18,2.18,0,0,1-1.07-.54,2.41,2.41,0,0,1-.63-1.15,4.3,4.3,0,0,1-.17-1.17c0-.11,0-.21,0-.31a3.84,3.84,0,0,1,.35-1.35,2.18,2.18,0,0,1,.74-.9,2.53,2.53,0,0,1,.92-.39,3.3,3.3,0,0,1,.58,0l.52,0a2.15,2.15,0,0,1,1.17.53A2.06,2.06,0,0,1,87.5,103l-1.1.18A1.27,1.27,0,0,0,85.73,102.25Z" style="fill:#423c25"/><path d="M89.87,104.65a2.14,2.14,0,0,0,.41,1.34,1.37,1.37,0,0,0,.91.4h.14a1.34,1.34,0,0,0,.79-.22,1.7,1.7,0,0,0,.58-1l1.18.23a3.6,3.6,0,0,1-.66,1.26,1.94,1.94,0,0,1-1.19.65,4.56,4.56,0,0,1-.72.06,3.38,3.38,0,0,1-.72-.07,2.2,2.2,0,0,1-1.2-.69,2.58,2.58,0,0,1-.66-1.25,4.55,4.55,0,0,1-.12-1c0-.12,0-.25,0-.38a3.33,3.33,0,0,1,.36-1.32,2.17,2.17,0,0,1,.78-.9,2.75,2.75,0,0,1,1-.39,3.64,3.64,0,0,1,.6-.05l.6,0a2,2,0,0,1,1.29.8,4,4,0,0,1,.59,2.47Zm2.72-.92a1.55,1.55,0,0,0-.39-1,1.18,1.18,0,0,0-.94-.43,1.32,1.32,0,0,0-1,.41,1.41,1.41,0,0,0-.4,1Z" style="fill:#423c25"/><path d="M98.67,99.73a.65.65,0,0,1,0,1,.68.68,0,0,1-.49.2.7.7,0,0,1-.5-.2.68.68,0,0,1,0-1,.7.7,0,0,1,.5-.2A.68.68,0,0,1,98.67,99.73Zm-1.09,1.82,1.17,0-.1,5.87h-1Z" style="fill:#423c25"/><path d="M99.93,101h.93V99.32l1.18-.16v1.78l1.54-.06v1l-1.54.06v3.51a1,1,0,0,0,.11.57.4.4,0,0,0,.34.14,4,4,0,0,0,.93-.2l.16,1a6.77,6.77,0,0,1-1.4.23,1.91,1.91,0,0,1-1-.37,1.69,1.69,0,0,1-.3-1.06V102h-.93Z" style="fill:#423c25"/><path d="M108.38,99.73a.68.68,0,0,1,0,1,.72.72,0,0,1-.5.2.68.68,0,0,1-.49-.2.65.65,0,0,1,0-1,.68.68,0,0,1,.49-.2A.72.72,0,0,1,108.38,99.73Zm-1.1,1.82,1.18,0-.11,5.87h-1Z" style="fill:#423c25"/><path d="M110.79,101.06l0,1.33a1.75,1.75,0,0,1,1-.92,2.21,2.21,0,0,1,.75-.14,2.1,2.1,0,0,1,.43,0,1.63,1.63,0,0,1,1,.62,2.59,2.59,0,0,1,.5,1.12,12.32,12.32,0,0,1,.08,1.81c0,.72,0,1.64,0,2.76l-1.11,0c0-1,0-1.75,0-2.39,0-1,0-1.62,0-1.81a1.06,1.06,0,0,0-1.09-.95h0a1,1,0,0,0-.66.22,2.68,2.68,0,0,0-.44.58,3.74,3.74,0,0,0-.23,1.42l-.06,2.54-1.11,0-.09-6.12Z" style="fill:#423c25"/><path d="M119.24,101l0,1a1.76,1.76,0,0,1,.74-.69,2.39,2.39,0,0,1,1.09-.24,2.19,2.19,0,0,1,1.2.39,2,2,0,0,1,.83,1.09,4.62,4.62,0,0,1,.26,1.42V104a5.19,5.19,0,0,1-.24,1.49,2.21,2.21,0,0,1-.84,1.26,1.86,1.86,0,0,1-1.12.32,2.92,2.92,0,0,1-.5,0,1.69,1.69,0,0,1-1.43-1.06l0,2.9h-1.2V101Zm3,3a2.53,2.53,0,0,0-.37-1.35,1.17,1.17,0,0,0-1-.61,1.28,1.28,0,0,0-1.11.56,2.27,2.27,0,0,0-.37,1.33V104q0,2,1.38,2a1.28,1.28,0,0,0,1.11-.61,2.33,2.33,0,0,0,.36-1.32Z" style="fill:#423c25"/><path d="M124.45,99.39l1.18,0v7.87l-1.12.06Z" style="fill:#423c25"/><path d="M127.39,102.24a2.32,2.32,0,0,1,1.15-.61,3,3,0,0,1,.68-.07,3.81,3.81,0,0,1,.87.1,1.4,1.4,0,0,1,1.08,1.13,7.45,7.45,0,0,1,.16,1.8c0,.4,0,.85,0,1.35v0c0,.29.11.43.33.43a1.1,1.1,0,0,0,.42-.1l.09,1a3.16,3.16,0,0,1-.74.11,1.07,1.07,0,0,1-1-.56,2.87,2.87,0,0,1-.95.59,3.61,3.61,0,0,1-.89.13h0a2,2,0,0,1-.84-.17,1.52,1.52,0,0,1-.65-.48,1.42,1.42,0,0,1-.29-.77V106a2.58,2.58,0,0,1,.14-.79,1.7,1.7,0,0,1,.92-.86,7.89,7.89,0,0,1,2.51-.53,1.52,1.52,0,0,0-.19-.92,1.22,1.22,0,0,0-.75-.24h-.19a1.37,1.37,0,0,0-.7.16,1,1,0,0,0-.4.81l-1.13-.14A1.9,1.9,0,0,1,127.39,102.24Zm2.88,2.49a4.88,4.88,0,0,0-1.91.41.87.87,0,0,0-.46.72.43.43,0,0,1,0,0,.65.65,0,0,0,.27.58,1,1,0,0,0,.59.16h.17a1.85,1.85,0,0,0,.75-.21,5.86,5.86,0,0,0,.6-.41Z" style="fill:#423c25"/><path d="M132.48,101.13l1.24-.25,1.5,4.31,1.57-4.06,1.07.34-3.16,7.91-1-.51.87-2.37Z" style="fill:#423c25"/><path d="M13.58,114.48l1.2-.26,1.2,4.43h0l1.05-4.17,1.35,0,.89,4h0L20.45,114l1.15.32L19.9,120l-1.21-.11-1-3.67h0l-1.08,3.83-1.29.16Z" style="fill:#423c25"/><path d="M23.86,112.33v2.92a1.77,1.77,0,0,1,.95-.92,2.27,2.27,0,0,1,.76-.14,2,2,0,0,1,.42,0,1.58,1.58,0,0,1,1,.62,2.49,2.49,0,0,1,.51,1.13,12.66,12.66,0,0,1,.07,1.8c0,.72,0,1.64,0,2.76l-1.11,0c0-1,0-1.75,0-2.39a14.31,14.31,0,0,0-.06-1.81,1.08,1.08,0,0,0-.37-.7,1.11,1.11,0,0,0-.71-.25h0a1,1,0,0,0-.66.22,2.42,2.42,0,0,0-.45.58,3.8,3.8,0,0,0-.22,1.42l-.06,2.54-1.11,0-.1-7.7Z" style="fill:#423c25"/><path d="M29.85,117.62a2.16,2.16,0,0,0,.41,1.34,1.32,1.32,0,0,0,.91.39h.14a1.41,1.41,0,0,0,.79-.22,1.7,1.7,0,0,0,.58-1l1.17.23a3.43,3.43,0,0,1-.65,1.26,1.88,1.88,0,0,1-1.19.65,4.61,4.61,0,0,1-.72.07,4.18,4.18,0,0,1-.72-.07,2.26,2.26,0,0,1-1.2-.69,2.62,2.62,0,0,1-.66-1.25,4.55,4.55,0,0,1-.12-1,2.42,2.42,0,0,1,0-.38,3.24,3.24,0,0,1,.36-1.32,2.14,2.14,0,0,1,.78-.91,3.19,3.19,0,0,1,1-.39,3.7,3.7,0,0,1,.6,0l.6,0a2,2,0,0,1,1.29.8,4,4,0,0,1,.59,2.46Zm2.72-.93a1.6,1.6,0,0,0-.39-1,1.2,1.2,0,0,0-.94-.42,1.31,1.31,0,0,0-1,.4,1.38,1.38,0,0,0-.4,1Z" style="fill:#423c25"/><path d="M36.06,114l0,1.34a1.72,1.72,0,0,1,1-.92,2,2,0,0,1,.75-.14,2,2,0,0,1,.43,0,1.62,1.62,0,0,1,1,.62,2.84,2.84,0,0,1,.51,1.13,12.84,12.84,0,0,1,.07,1.81c0,.72,0,1.64,0,2.76l-1.11,0c0-1,0-1.76,0-2.39,0-1,0-1.63,0-1.82a1.16,1.16,0,0,0-.37-.7,1.07,1.07,0,0,0-.71-.24h0a.92.92,0,0,0-.66.22,2.08,2.08,0,0,0-.45.58,3.56,3.56,0,0,0-.22,1.42l-.07,2.54-1.11,0-.09-6.12Z" style="fill:#423c25"/><path d="M42.1,117.62a2.09,2.09,0,0,0,.42,1.34,1.3,1.3,0,0,0,.91.39h.13a1.45,1.45,0,0,0,.8-.22,1.64,1.64,0,0,0,.57-1l1.18.23a3.58,3.58,0,0,1-.65,1.26,1.88,1.88,0,0,1-1.2.65,4.61,4.61,0,0,1-.72.07,4.39,4.39,0,0,1-.72-.07,2.24,2.24,0,0,1-1.19-.69,2.64,2.64,0,0,1-.67-1.25,4.54,4.54,0,0,1-.11-1c0-.13,0-.25,0-.38a3.59,3.59,0,0,1,.36-1.32,2.23,2.23,0,0,1,.79-.91,3.09,3.09,0,0,1,1-.39,3.7,3.7,0,0,1,.6,0l.59,0a1.91,1.91,0,0,1,1.29.8,4,4,0,0,1,.6,2.46Zm2.72-.93a1.53,1.53,0,0,0-.38-1,1.22,1.22,0,0,0-.95-.42,1.3,1.3,0,0,0-1,.4,1.44,1.44,0,0,0-.41,1Z" style="fill:#423c25"/><path d="M47.17,114.48l1.23-.26L49.87,119h0l1.41-4.5,1.23.27-2,5.37-1.33-.05Z" style="fill:#423c25"/><path d="M54.84,117.62a2.16,2.16,0,0,0,.41,1.34,1.32,1.32,0,0,0,.91.39h.14a1.47,1.47,0,0,0,.8-.22,1.69,1.69,0,0,0,.57-1l1.18.23a3.6,3.6,0,0,1-.66,1.26,1.85,1.85,0,0,1-1.19.65,4.61,4.61,0,0,1-.72.07,4.18,4.18,0,0,1-.72-.07,2.3,2.3,0,0,1-1.2-.69,2.62,2.62,0,0,1-.66-1.25,4.55,4.55,0,0,1-.12-1c0-.13,0-.25,0-.38a3.24,3.24,0,0,1,.36-1.32,2.21,2.21,0,0,1,.78-.91,3.19,3.19,0,0,1,1-.39,3.7,3.7,0,0,1,.6,0l.6,0a2,2,0,0,1,1.29.8,4,4,0,0,1,.59,2.46Zm2.72-.93a1.6,1.6,0,0,0-.39-1,1.2,1.2,0,0,0-.94-.42,1.31,1.31,0,0,0-1,.4,1.43,1.43,0,0,0-.4,1Z" style="fill:#423c25"/><path d="M63.44,115.62a1.58,1.58,0,0,0-.8-.25h-.12a1.31,1.31,0,0,0-.68.25,1.92,1.92,0,0,0-.45.52,3.4,3.4,0,0,0-.22,1.4l-.07,2.54-1.1,0L59.9,114l1.15-.13.05,1.34a1.88,1.88,0,0,1,1-1,1.53,1.53,0,0,1,.54-.09,3.14,3.14,0,0,1,1.13.25Z" style="fill:#423c25"/><path d="M66.92,114h.93v-1.67l1.18-.16v1.78l1.53-.05v1l-1.53.05v3.52a1.09,1.09,0,0,0,.1.57.4.4,0,0,0,.34.14,4.6,4.6,0,0,0,.94-.2l.15,1a6.51,6.51,0,0,1-1.4.22,1.86,1.86,0,0,1-1-.36,1.58,1.58,0,0,1-.3-1.06v-3.78h-.93Z" style="fill:#423c25"/><path d="M72.82,112.33v2.92a1.75,1.75,0,0,1,1-.92,2.21,2.21,0,0,1,.75-.14,2,2,0,0,1,.43,0,1.58,1.58,0,0,1,1,.62,2.72,2.72,0,0,1,.51,1.13,12.66,12.66,0,0,1,.07,1.8c0,.72,0,1.64,0,2.76l-1.11,0c0-1,0-1.75,0-2.39,0-1,0-1.62-.05-1.81a1.06,1.06,0,0,0-1.08-.95h0a1,1,0,0,0-.66.22,2.42,2.42,0,0,0-.45.58,3.6,3.6,0,0,0-.22,1.42l-.07,2.54-1.11,0-.09-7.7Z" style="fill:#423c25"/><path d="M78.81,117.62a2.16,2.16,0,0,0,.41,1.34,1.34,1.34,0,0,0,.91.39h.14a1.47,1.47,0,0,0,.8-.22,1.64,1.64,0,0,0,.57-1l1.18.23a3.76,3.76,0,0,1-.65,1.26,1.88,1.88,0,0,1-1.2.65,4.61,4.61,0,0,1-.72.07,4.28,4.28,0,0,1-.72-.07,2.24,2.24,0,0,1-1.19-.69,2.64,2.64,0,0,1-.67-1.25,4.55,4.55,0,0,1-.12-1c0-.13,0-.25,0-.38a3.59,3.59,0,0,1,.36-1.32,2.23,2.23,0,0,1,.79-.91,3.09,3.09,0,0,1,1-.39,3.7,3.7,0,0,1,.6,0l.59,0a1.91,1.91,0,0,1,1.29.8,4,4,0,0,1,.6,2.46Zm2.72-.93a1.59,1.59,0,0,0-.38-1,1.22,1.22,0,0,0-1-.42,1.3,1.3,0,0,0-1,.4,1.39,1.39,0,0,0-.41,1Z" style="fill:#423c25"/><path d="M83.88,114.1l1.23-.26,1.5,4.31,1.57-4.05,1.07.34-3.16,7.91-1-.52.88-2.36Z" style="fill:#423c25"/><path d="M92.42,114.48l1.2-.26,1.2,4.43h0l1-4.17,1.35,0,.9,4h0L99.29,114l1.15.32L98.74,120l-1.21-.11-1-3.67h0l-1.08,3.83-1.29.16Z" style="fill:#423c25"/><path d="M102.68,112.7a.62.62,0,0,1,.21.47.68.68,0,0,1-.7.68.67.67,0,0,1-.7-.68.65.65,0,0,1,.2-.47.66.66,0,0,1,.5-.2A.64.64,0,0,1,102.68,112.7Zm-1.09,1.82,1.17,0-.1,5.86h-1Z" style="fill:#423c25"/><path d="M103.94,118.24l1.13-.21c.05.56.27.89.65,1a3.21,3.21,0,0,0,.71.09l.29,0a.9.9,0,0,0,.59-.25.72.72,0,0,0,.19-.35s0,0,0-.07a.44.44,0,0,0-.1-.26,1.24,1.24,0,0,0-.29-.27,5.51,5.51,0,0,0-1-.34c-.56-.17-1-.3-1.21-.4a1.48,1.48,0,0,1-.59-.44,1.14,1.14,0,0,1-.24-.71v-.08a1.7,1.7,0,0,1,.16-.74,1.45,1.45,0,0,1,.66-.63,2.81,2.81,0,0,1,1-.31l.39,0a4.56,4.56,0,0,1,.54,0,2.43,2.43,0,0,1,.91.37,2.25,2.25,0,0,1,.72,1.38l-1.06.13c-.14-.48-.32-.75-.55-.83a2.18,2.18,0,0,0-.56-.09h-.11a1,1,0,0,0-.57.2.54.54,0,0,0-.26.41v.06a.43.43,0,0,0,.15.34,2.84,2.84,0,0,0,1,.34,6.26,6.26,0,0,1,1.37.47,1.35,1.35,0,0,1,.72.63,2.06,2.06,0,0,1,.14.76h0a1.49,1.49,0,0,1-.23.8,1.8,1.8,0,0,1-.76.62,3,3,0,0,1-1.29.26h-.09a4,4,0,0,1-1.1-.13,1.81,1.81,0,0,1-.76-.46A2.34,2.34,0,0,1,103.94,118.24Z" style="fill:#423c25"/><path d="M110.91,112.33v2.92a1.77,1.77,0,0,1,1-.92,2.31,2.31,0,0,1,.76-.14,2,2,0,0,1,.42,0,1.63,1.63,0,0,1,1,.62,2.58,2.58,0,0,1,.5,1.13,12.05,12.05,0,0,1,.08,1.8c0,.72,0,1.64,0,2.76l-1.1,0c0-1,0-1.75,0-2.39a14.31,14.31,0,0,0-.06-1.81,1.08,1.08,0,0,0-.37-.7,1.11,1.11,0,0,0-.71-.25h0a1,1,0,0,0-.66.22,2.16,2.16,0,0,0-.44.58,3.55,3.55,0,0,0-.23,1.42l-.06,2.54-1.11,0-.09-7.7Z" style="fill:#423c25"/><path d="M116.83,118.6a.66.66,0,0,1,.21.48.63.63,0,0,1-.21.48.64.64,0,0,1-.49.2.66.66,0,0,1-.5-.2.66.66,0,0,1-.2-.48.67.67,0,0,1,.7-.67A.67.67,0,0,1,116.83,118.6Z" style="fill:#423c25"/></g></g></svg>