<svg xmlns="http://www.w3.org/2000/svg" width="150" height="150" viewBox="0 0 150 150"><g id="a91ab311-8055-441f-b79a-dbd9c56f5c51" data-name="fond"><rect x="0.3" y="-0.1" width="149.39" height="149.69" style="fill:#fff"/></g><g id="b57ea8ca-5b66-436a-a674-719bdc809653" data-name="shuri peinture"><path d="M158.59,20.38l-13.37-.64A2.75,2.75,0,0,0,145,18l0,0a.15.15,0,0,0,.09.06l7.38.36-6.12-4.63h0v0a2.7,2.7,0,0,0,1.5-1Z" style="fill:#fff"/><path d="M153.14-3.26,146.43,8.31a2.87,2.87,0,0,0-1.63-.63V7.56a.23.23,0,0,0,.2-.11l2.91-5.54-6.4,2.82s0,0-.05,0l-.1,0a2.57,2.57,0,0,0-.14-1.8Z" style="fill:#fff"/><path d="M152.54,18.38,145.16,18a.15.15,0,0,1-.09-.06s0,0,0-.06l1.3-4.14,0,0h0Z" style="fill:#423c25"/><path d="M147.9,1.91,145,7.45a.23.23,0,0,1-.2.11.19.19,0,0,1-.14,0l-3.17-2.6a.11.11,0,0,1,0-.14s0,0,.05,0Z" style="fill:#423c25"/><path d="M146.4,13.72v0l0,0-1.3,4.14s0,0,0,.06l0,0a1.6,1.6,0,0,0-.21-.32c-.87-1-2.6-.75-3.6-.17-.11.07-2,1.21-1.69,3a2.31,2.31,0,0,0,.92,1.51l-.05.08a.11.11,0,0,0-.12,0l-4,1.08a.16.16,0,0,0-.12.16l-.13,0c.28-1.27-.92-2.49-2-3-.12-.06-2.16-1-3.44.36a2.29,2.29,0,0,0-.39.54l-.07,0a.08.08,0,0,0,0-.11l-3.09-2.15a.11.11,0,0,0-.08,0v-.08l.29,0c1.32-.29,1.89-1.94,1.86-3.09,0-.13-.1-2.37-1.86-2.91a2.82,2.82,0,0,0-1.55,0l0-.09a.13.13,0,0,0,.09-.1L126.91,9a.14.14,0,0,0-.07-.18l.06-.09c1,.77,2.52.39,3.43-.22.1-.07,1.95-1.33,1.48-3.11a2.49,2.49,0,0,0-.67-1.17l.1-.1a.15.15,0,0,0,.19.09L135.16,3a.21.21,0,0,0,.13-.11l.09,0-.07.19c-.41,1.28.74,2.6,1.76,3.14.12.06,2.11,1.09,3.45-.16a2.86,2.86,0,0,0,.83-1.37l.1,0a.11.11,0,0,0,0,.14l3.17,2.6a.19.19,0,0,0,.14,0v.12a1.92,1.92,0,0,0-.41.05c-1.3.3-1.85,2-1.8,3.12,0,.13.14,2.36,1.9,2.88A3.54,3.54,0,0,0,146.4,13.72ZM137.59,15a2.31,2.31,0,1,0-3.26.3A2.29,2.29,0,0,0,137.59,15Z" style="fill:#423c25"/><path d="M141.73,22.75V36.18l-7.18-11.29A2.64,2.64,0,0,0,136,23.35v-.08l.13,0a.19.19,0,0,0,0,.1l4,6.31.23-7.53a.11.11,0,0,0,0-.08l.05-.08a2.77,2.77,0,0,0,1.29.49Z" style="fill:#fff"/><path d="M140.42,22.17l-.23,7.53-4-6.31a.19.19,0,0,1,0-.1.16.16,0,0,1,.12-.16l4-1.08a.11.11,0,0,1,.12,0A.11.11,0,0,1,140.42,22.17Z" style="fill:#423c25"/><path d="M137.29,11.72A2.31,2.31,0,1,1,134,12,2.29,2.29,0,0,1,137.29,11.72Z" style="fill:#fff"/><path d="M130.32-10l6.54,11.68a2.6,2.6,0,0,0-1.48,1.26l-.09,0a.19.19,0,0,0,0-.15l-3.32-6L131.23,4a.17.17,0,0,0,0,.07l-.1.1a2.77,2.77,0,0,0-1.76-.72Z" style="fill:#fff"/><path d="M135.27,2.74a.19.19,0,0,1,0,.15.21.21,0,0,1-.13.11l-3.73,1.17a.15.15,0,0,1-.19-.09.17.17,0,0,1,0-.07L132-3.23Z" style="fill:#423c25"/><path d="M130.41,23.53l-12,6.09,6.88-11.46a2.79,2.79,0,0,0,1.74.65v.08a.16.16,0,0,0-.14.08l-3.64,6.1,6.94-3.86,0,0,.07,0a1.51,1.51,0,0,0-.18.44A2.68,2.68,0,0,0,130.41,23.53Z" style="fill:#fff"/><path d="M130.15,21.07a.08.08,0,0,1,0,.11l0,0-6.94,3.86,3.64-6.1a.16.16,0,0,1,.14-.08.11.11,0,0,1,.08,0Z" style="fill:#423c25"/><path d="M126.84,8.77a.14.14,0,0,1,.07.18l-1.12,3.59a.13.13,0,0,1-.09.1.17.17,0,0,1-.12,0l-6.49-4,7.68.16Z" style="fill:#423c25"/><path d="M126.9,8.68l-.06.09h-.07l-7.68-.16,6.49,4a.17.17,0,0,0,.12,0l0,.09a2.53,2.53,0,0,0-1.49,1l-11.44-7,13.38-.23a2.58,2.58,0,0,0,.55,2Z" style="fill:#fff"/><path d="M144.8,7.68a2.87,2.87,0,0,1,1.63.63l6.71-11.57-11.93,6.2a2.57,2.57,0,0,1,.14,1.8,2.86,2.86,0,0,1-.83,1.37c-1.34,1.25-3.33.22-3.45.16-1-.54-2.17-1.86-1.76-3.14l.07-.19a2.6,2.6,0,0,1,1.48-1.26L130.32-10l-.94,13.46a2.77,2.77,0,0,1,1.76.72,2.49,2.49,0,0,1,.67,1.17c.47,1.78-1.38,3-1.48,3.11-.91.61-2.47,1-3.43.22l-.18-.15a2.58,2.58,0,0,1-.55-2l-13.38.23,11.44,7a2.53,2.53,0,0,1,1.49-1,2.82,2.82,0,0,1,1.55,0c1.76.54,1.86,2.78,1.86,2.91,0,1.15-.54,2.8-1.86,3.09l-.29,0a2.79,2.79,0,0,1-1.74-.65l-6.88,11.46,12-6.09a2.68,2.68,0,0,1-.35-1.88,1.51,1.51,0,0,1,.18-.44,2.29,2.29,0,0,1,.39-.54c1.28-1.33,3.32-.42,3.44-.36,1,.47,2.23,1.69,2,3v.08a2.64,2.64,0,0,1-1.46,1.54l7.18,11.29V22.5a2.77,2.77,0,0,1-1.29-.49,2.31,2.31,0,0,1-.92-1.51c-.35-1.8,1.58-2.94,1.69-3,1-.58,2.73-.85,3.6.17A1.6,1.6,0,0,1,145,18a2.75,2.75,0,0,1,.2,1.76l13.37.64L147.9,12.72a2.7,2.7,0,0,1-1.5,1,3.54,3.54,0,0,1-1.91,0c-1.76-.52-1.9-2.75-1.9-2.88-.05-1.16.5-2.82,1.8-3.12A1.92,1.92,0,0,1,144.8,7.68Z" style="fill:none;stroke:#423c25;stroke-miterlimit:10;stroke-width:0.599213838577271px"/><path d="M130.17,21.18l0,0-6.94,3.86,3.64-6.1a.16.16,0,0,1,.14-.08.11.11,0,0,1,.08,0l3.09,2.15A.08.08,0,0,1,130.17,21.18Z" style="fill:none;stroke:#423c25;stroke-miterlimit:10;stroke-width:0.599213838577271px"/><path d="M136.15,23.29a.19.19,0,0,0,0,.1l4,6.31.23-7.53a.11.11,0,0,0,0-.08.11.11,0,0,0-.12,0l-4,1.08A.16.16,0,0,0,136.15,23.29Z" style="fill:none;stroke:#423c25;stroke-miterlimit:10;stroke-width:0.599213838577271px"/><path d="M146.4,13.74h0l6.12,4.63L145.16,18a.15.15,0,0,1-.09-.06s0,0,0-.06l1.3-4.14Z" style="fill:none;stroke:#423c25;stroke-miterlimit:10;stroke-width:0.599213838577271px"/><path d="M141.45,4.77s0,0,.05,0l6.4-2.82L145,7.45a.23.23,0,0,1-.2.11.19.19,0,0,1-.14,0l-3.17-2.6A.11.11,0,0,1,141.45,4.77Z" style="fill:none;stroke:#423c25;stroke-miterlimit:10;stroke-width:0.599213838577271px"/><path d="M135.29,2.89a.19.19,0,0,0,0-.15l-3.32-6L131.23,4a.17.17,0,0,0,0,.07.15.15,0,0,0,.19.09L135.16,3A.21.21,0,0,0,135.29,2.89Z" style="fill:none;stroke:#423c25;stroke-miterlimit:10;stroke-width:0.599213838577271px"/><path d="M125.7,12.64a.17.17,0,0,1-.12,0l-6.49-4,7.68.16h.07a.14.14,0,0,1,.07.18l-1.12,3.59A.13.13,0,0,1,125.7,12.64Z" style="fill:none;stroke:#423c25;stroke-miterlimit:10;stroke-width:0.599213838577271px"/><path d="M137.29,11.72A2.31,2.31,0,1,1,134,12,2.29,2.29,0,0,1,137.29,11.72Z" style="fill:none;stroke:#423c25;stroke-miterlimit:10;stroke-width:0.599213838577271px"/><path d="M158.59,20.38l-13.37-.64A2.75,2.75,0,0,0,145,18l0,0a.15.15,0,0,0,.09.06l7.38.36-6.12-4.63h0v0a2.7,2.7,0,0,0,1.5-1Z" style="fill:#fff"/><path d="M153.14-3.26,146.43,8.31a2.87,2.87,0,0,0-1.63-.63V7.56a.23.23,0,0,0,.2-.11l2.91-5.54-6.4,2.82s0,0-.05,0l-.1,0a2.57,2.57,0,0,0-.14-1.8Z" style="fill:#fff"/><path d="M152.54,18.38,145.16,18a.15.15,0,0,1-.09-.06s0,0,0-.06l1.3-4.14,0,0h0Z" style="fill:#423c25"/><path d="M147.9,1.91,145,7.45a.23.23,0,0,1-.2.11.19.19,0,0,1-.14,0l-3.17-2.6a.11.11,0,0,1,0-.14s0,0,.05,0Z" style="fill:#423c25"/><path d="M146.4,13.72v0l0,0-1.3,4.14s0,0,0,.06l0,0a1.6,1.6,0,0,0-.21-.32c-.87-1-2.6-.75-3.6-.17-.11.07-2,1.21-1.69,3a2.31,2.31,0,0,0,.92,1.51l-.05.08a.11.11,0,0,0-.12,0l-4,1.08a.16.16,0,0,0-.12.16l-.13,0c.28-1.27-.92-2.49-2-3-.12-.06-2.16-1-3.44.36a2.29,2.29,0,0,0-.39.54l-.07,0a.08.08,0,0,0,0-.11l-3.09-2.15a.11.11,0,0,0-.08,0v-.08l.29,0c1.32-.29,1.89-1.94,1.86-3.09,0-.13-.1-2.37-1.86-2.91a2.82,2.82,0,0,0-1.55,0l0-.09a.13.13,0,0,0,.09-.1L126.91,9a.14.14,0,0,0-.07-.18l.06-.09c1,.77,2.52.39,3.43-.22.1-.07,1.95-1.33,1.48-3.11a2.49,2.49,0,0,0-.67-1.17l.1-.1a.15.15,0,0,0,.19.09L135.16,3a.21.21,0,0,0,.13-.11l.09,0-.07.19c-.41,1.28.74,2.6,1.76,3.14.12.06,2.11,1.09,3.45-.16a2.86,2.86,0,0,0,.83-1.37l.1,0a.11.11,0,0,0,0,.14l3.17,2.6a.19.19,0,0,0,.14,0v.12a1.92,1.92,0,0,0-.41.05c-1.3.3-1.85,2-1.8,3.12,0,.13.14,2.36,1.9,2.88A3.54,3.54,0,0,0,146.4,13.72ZM137.59,15a2.31,2.31,0,1,0-3.26.3A2.29,2.29,0,0,0,137.59,15Z" style="fill:#423c25"/><path d="M141.73,22.75V36.18l-7.18-11.29A2.64,2.64,0,0,0,136,23.35v-.08l.13,0a.19.19,0,0,0,0,.1l4,6.31.23-7.53a.11.11,0,0,0,0-.08l.05-.08a2.77,2.77,0,0,0,1.29.49Z" style="fill:#fff"/><path d="M140.42,22.17l-.23,7.53-4-6.31a.19.19,0,0,1,0-.1.16.16,0,0,1,.12-.16l4-1.08a.11.11,0,0,1,.12,0A.11.11,0,0,1,140.42,22.17Z" style="fill:#423c25"/><path d="M137.29,11.72A2.31,2.31,0,1,1,134,12,2.29,2.29,0,0,1,137.29,11.72Z" style="fill:#fff"/><path d="M130.32-10l6.54,11.68a2.6,2.6,0,0,0-1.48,1.26l-.09,0a.19.19,0,0,0,0-.15l-3.32-6L131.23,4a.17.17,0,0,0,0,.07l-.1.1a2.77,2.77,0,0,0-1.76-.72Z" style="fill:#fff"/><path d="M135.27,2.74a.19.19,0,0,1,0,.15.21.21,0,0,1-.13.11l-3.73,1.17a.15.15,0,0,1-.19-.09.17.17,0,0,1,0-.07L132-3.23Z" style="fill:#423c25"/><path d="M130.41,23.53l-12,6.09,6.88-11.46a2.79,2.79,0,0,0,1.74.65v.08a.16.16,0,0,0-.14.08l-3.64,6.1,6.94-3.86,0,0,.07,0a1.51,1.51,0,0,0-.18.44A2.68,2.68,0,0,0,130.41,23.53Z" style="fill:#fff"/><path d="M130.15,21.07a.08.08,0,0,1,0,.11l0,0-6.94,3.86,3.64-6.1a.16.16,0,0,1,.14-.08.11.11,0,0,1,.08,0Z" style="fill:#423c25"/><path d="M126.84,8.77a.14.14,0,0,1,.07.18l-1.12,3.59a.13.13,0,0,1-.09.1.17.17,0,0,1-.12,0l-6.49-4,7.68.16Z" style="fill:#423c25"/><path d="M126.9,8.68l-.06.09h-.07l-7.68-.16,6.49,4a.17.17,0,0,0,.12,0l0,.09a2.53,2.53,0,0,0-1.49,1l-11.44-7,13.38-.23a2.58,2.58,0,0,0,.55,2Z" style="fill:#fff"/><path d="M144.8,7.68a2.87,2.87,0,0,1,1.63.63l6.71-11.57-11.93,6.2a2.57,2.57,0,0,1,.14,1.8,2.86,2.86,0,0,1-.83,1.37c-1.34,1.25-3.33.22-3.45.16-1-.54-2.17-1.86-1.76-3.14l.07-.19a2.6,2.6,0,0,1,1.48-1.26L130.32-10l-.94,13.46a2.77,2.77,0,0,1,1.76.72,2.49,2.49,0,0,1,.67,1.17c.47,1.78-1.38,3-1.48,3.11-.91.61-2.47,1-3.43.22l-.18-.15a2.58,2.58,0,0,1-.55-2l-13.38.23,11.44,7a2.53,2.53,0,0,1,1.49-1,2.82,2.82,0,0,1,1.55,0c1.76.54,1.86,2.78,1.86,2.91,0,1.15-.54,2.8-1.86,3.09l-.29,0a2.79,2.79,0,0,1-1.74-.65l-6.88,11.46,12-6.09a2.68,2.68,0,0,1-.35-1.88,1.51,1.51,0,0,1,.18-.44,2.29,2.29,0,0,1,.39-.54c1.28-1.33,3.32-.42,3.44-.36,1,.47,2.23,1.69,2,3v.08a2.64,2.64,0,0,1-1.46,1.54l7.18,11.29V22.5a2.77,2.77,0,0,1-1.29-.49,2.31,2.31,0,0,1-.92-1.51c-.35-1.8,1.58-2.94,1.69-3,1-.58,2.73-.85,3.6.17A1.6,1.6,0,0,1,145,18a2.75,2.75,0,0,1,.2,1.76l13.37.64L147.9,12.72a2.7,2.7,0,0,1-1.5,1,3.54,3.54,0,0,1-1.91,0c-1.76-.52-1.9-2.75-1.9-2.88-.05-1.16.5-2.82,1.8-3.12A1.92,1.92,0,0,1,144.8,7.68Z" style="fill:none;stroke:#423c25;stroke-miterlimit:10;stroke-width:0.599213838577271px"/><path d="M130.17,21.18l0,0-6.94,3.86,3.64-6.1a.16.16,0,0,1,.14-.08.11.11,0,0,1,.08,0l3.09,2.15A.08.08,0,0,1,130.17,21.18Z" style="fill:none;stroke:#423c25;stroke-miterlimit:10;stroke-width:0.599213838577271px"/><path d="M136.15,23.29a.19.19,0,0,0,0,.1l4,6.31.23-7.53a.11.11,0,0,0,0-.08.11.11,0,0,0-.12,0l-4,1.08A.16.16,0,0,0,136.15,23.29Z" style="fill:none;stroke:#423c25;stroke-miterlimit:10;stroke-width:0.599213838577271px"/><path d="M146.4,13.74h0l6.12,4.63L145.16,18a.15.15,0,0,1-.09-.06s0,0,0-.06l1.3-4.14Z" style="fill:none;stroke:#423c25;stroke-miterlimit:10;stroke-width:0.599213838577271px"/><path d="M141.45,4.77s0,0,.05,0l6.4-2.82L145,7.45a.23.23,0,0,1-.2.11.19.19,0,0,1-.14,0l-3.17-2.6A.11.11,0,0,1,141.45,4.77Z" style="fill:none;stroke:#423c25;stroke-miterlimit:10;stroke-width:0.599213838577271px"/><path d="M135.29,2.89a.19.19,0,0,0,0-.15l-3.32-6L131.23,4a.17.17,0,0,0,0,.07.15.15,0,0,0,.19.09L135.16,3A.21.21,0,0,0,135.29,2.89Z" style="fill:none;stroke:#423c25;stroke-miterlimit:10;stroke-width:0.599213838577271px"/><path d="M125.7,12.64a.17.17,0,0,1-.12,0l-6.49-4,7.68.16h.07a.14.14,0,0,1,.07.18l-1.12,3.59A.13.13,0,0,1,125.7,12.64Z" style="fill:none;stroke:#423c25;stroke-miterlimit:10;stroke-width:0.599213838577271px"/><path d="M137.29,11.72A2.31,2.31,0,1,1,134,12,2.29,2.29,0,0,1,137.29,11.72Z" style="fill:none;stroke:#423c25;stroke-miterlimit:10;stroke-width:0.599213838577271px"/><path d="M158.59,20.38l-13.37-.64A2.75,2.75,0,0,0,145,18l0,0a.15.15,0,0,0,.09.06l7.38.36-6.12-4.63h0v0a2.7,2.7,0,0,0,1.5-1Z" style="fill:#fff"/><path d="M153.14-3.26,146.43,8.31a2.87,2.87,0,0,0-1.63-.63V7.56a.23.23,0,0,0,.2-.11l2.91-5.54-6.4,2.82s0,0-.05,0l-.1,0a2.57,2.57,0,0,0-.14-1.8Z" style="fill:#fff"/><path d="M152.54,18.38,145.16,18a.15.15,0,0,1-.09-.06s0,0,0-.06l1.3-4.14,0,0h0Z" style="fill:#423c25"/><path d="M147.9,1.91,145,7.45a.23.23,0,0,1-.2.11.19.19,0,0,1-.14,0l-3.17-2.6a.11.11,0,0,1,0-.14s0,0,.05,0Z" style="fill:#423c25"/><path d="M146.4,13.72v0l0,0-1.3,4.14s0,0,0,.06l0,0a1.6,1.6,0,0,0-.21-.32c-.87-1-2.6-.75-3.6-.17-.11.07-2,1.21-1.69,3a2.31,2.31,0,0,0,.92,1.51l-.05.08a.11.11,0,0,0-.12,0l-4,1.08a.16.16,0,0,0-.12.16l-.13,0c.28-1.27-.92-2.49-2-3-.12-.06-2.16-1-3.44.36a2.29,2.29,0,0,0-.39.54l-.07,0a.08.08,0,0,0,0-.11l-3.09-2.15a.11.11,0,0,0-.08,0v-.08l.29,0c1.32-.29,1.89-1.94,1.86-3.09,0-.13-.1-2.37-1.86-2.91a2.82,2.82,0,0,0-1.55,0l0-.09a.13.13,0,0,0,.09-.1L126.91,9a.14.14,0,0,0-.07-.18l.06-.09c1,.77,2.52.39,3.43-.22.1-.07,1.95-1.33,1.48-3.11a2.49,2.49,0,0,0-.67-1.17l.1-.1a.15.15,0,0,0,.19.09L135.16,3a.21.21,0,0,0,.13-.11l.09,0-.07.19c-.41,1.28.74,2.6,1.76,3.14.12.06,2.11,1.09,3.45-.16a2.86,2.86,0,0,0,.83-1.37l.1,0a.11.11,0,0,0,0,.14l3.17,2.6a.19.19,0,0,0,.14,0v.12a1.92,1.92,0,0,0-.41.05c-1.3.3-1.85,2-1.8,3.12,0,.13.14,2.36,1.9,2.88A3.54,3.54,0,0,0,146.4,13.72ZM137.59,15a2.31,2.31,0,1,0-3.26.3A2.29,2.29,0,0,0,137.59,15Z" style="fill:#423c25"/><path d="M141.73,22.75V36.18l-7.18-11.29A2.64,2.64,0,0,0,136,23.35v-.08l.13,0a.19.19,0,0,0,0,.1l4,6.31.23-7.53a.11.11,0,0,0,0-.08l.05-.08a2.77,2.77,0,0,0,1.29.49Z" style="fill:#fff"/><path d="M140.42,22.17l-.23,7.53-4-6.31a.19.19,0,0,1,0-.1.16.16,0,0,1,.12-.16l4-1.08a.11.11,0,0,1,.12,0A.11.11,0,0,1,140.42,22.17Z" style="fill:#423c25"/><path d="M137.29,11.72A2.31,2.31,0,1,1,134,12,2.29,2.29,0,0,1,137.29,11.72Z" style="fill:#fff"/><path d="M130.32-10l6.54,11.68a2.6,2.6,0,0,0-1.48,1.26l-.09,0a.19.19,0,0,0,0-.15l-3.32-6L131.23,4a.17.17,0,0,0,0,.07l-.1.1a2.77,2.77,0,0,0-1.76-.72Z" style="fill:#fff"/><path d="M135.27,2.74a.19.19,0,0,1,0,.15.21.21,0,0,1-.13.11l-3.73,1.17a.15.15,0,0,1-.19-.09.17.17,0,0,1,0-.07L132-3.23Z" style="fill:#423c25"/><path d="M130.41,23.53l-12,6.09,6.88-11.46a2.79,2.79,0,0,0,1.74.65v.08a.16.16,0,0,0-.14.08l-3.64,6.1,6.94-3.86,0,0,.07,0a1.51,1.51,0,0,0-.18.44A2.68,2.68,0,0,0,130.41,23.53Z" style="fill:#fff"/><path d="M130.15,21.07a.08.08,0,0,1,0,.11l0,0-6.94,3.86,3.64-6.1a.16.16,0,0,1,.14-.08.11.11,0,0,1,.08,0Z" style="fill:#423c25"/><path d="M126.84,8.77a.14.14,0,0,1,.07.18l-1.12,3.59a.13.13,0,0,1-.09.1.17.17,0,0,1-.12,0l-6.49-4,7.68.16Z" style="fill:#423c25"/><path d="M126.9,8.68l-.06.09h-.07l-7.68-.16,6.49,4a.17.17,0,0,0,.12,0l0,.09a2.53,2.53,0,0,0-1.49,1l-11.44-7,13.38-.23a2.58,2.58,0,0,0,.55,2Z" style="fill:#fff"/><path d="M144.8,7.68a2.87,2.87,0,0,1,1.63.63l6.71-11.57-11.93,6.2a2.57,2.57,0,0,1,.14,1.8,2.86,2.86,0,0,1-.83,1.37c-1.34,1.25-3.33.22-3.45.16-1-.54-2.17-1.86-1.76-3.14l.07-.19a2.6,2.6,0,0,1,1.48-1.26L130.32-10l-.94,13.46a2.77,2.77,0,0,1,1.76.72,2.49,2.49,0,0,1,.67,1.17c.47,1.78-1.38,3-1.48,3.11-.91.61-2.47,1-3.43.22l-.18-.15a2.58,2.58,0,0,1-.55-2l-13.38.23,11.44,7a2.53,2.53,0,0,1,1.49-1,2.82,2.82,0,0,1,1.55,0c1.76.54,1.86,2.78,1.86,2.91,0,1.15-.54,2.8-1.86,3.09l-.29,0a2.79,2.79,0,0,1-1.74-.65l-6.88,11.46,12-6.09a2.68,2.68,0,0,1-.35-1.88,1.51,1.51,0,0,1,.18-.44,2.29,2.29,0,0,1,.39-.54c1.28-1.33,3.32-.42,3.44-.36,1,.47,2.23,1.69,2,3v.08a2.64,2.64,0,0,1-1.46,1.54l7.18,11.29V22.5a2.77,2.77,0,0,1-1.29-.49,2.31,2.31,0,0,1-.92-1.51c-.35-1.8,1.58-2.94,1.69-3,1-.58,2.73-.85,3.6.17A1.6,1.6,0,0,1,145,18a2.75,2.75,0,0,1,.2,1.76l13.37.64L147.9,12.72a2.7,2.7,0,0,1-1.5,1,3.54,3.54,0,0,1-1.91,0c-1.76-.52-1.9-2.75-1.9-2.88-.05-1.16.5-2.82,1.8-3.12A1.92,1.92,0,0,1,144.8,7.68Z" style="fill:none;stroke:#423c25;stroke-miterlimit:10;stroke-width:0.599213838577271px"/><path d="M130.17,21.18l0,0-6.94,3.86,3.64-6.1a.16.16,0,0,1,.14-.08.11.11,0,0,1,.08,0l3.09,2.15A.08.08,0,0,1,130.17,21.18Z" style="fill:none;stroke:#423c25;stroke-miterlimit:10;stroke-width:0.599213838577271px"/><path d="M136.15,23.29a.19.19,0,0,0,0,.1l4,6.31.23-7.53a.11.11,0,0,0,0-.08.11.11,0,0,0-.12,0l-4,1.08A.16.16,0,0,0,136.15,23.29Z" style="fill:none;stroke:#423c25;stroke-miterlimit:10;stroke-width:0.599213838577271px"/><path d="M146.4,13.74h0l6.12,4.63L145.16,18a.15.15,0,0,1-.09-.06s0,0,0-.06l1.3-4.14Z" style="fill:none;stroke:#423c25;stroke-miterlimit:10;stroke-width:0.599213838577271px"/><path d="M141.45,4.77s0,0,.05,0l6.4-2.82L145,7.45a.23.23,0,0,1-.2.11.19.19,0,0,1-.14,0l-3.17-2.6A.11.11,0,0,1,141.45,4.77Z" style="fill:none;stroke:#423c25;stroke-miterlimit:10;stroke-width:0.599213838577271px"/><path d="M135.29,2.89a.19.19,0,0,0,0-.15l-3.32-6L131.23,4a.17.17,0,0,0,0,.07.15.15,0,0,0,.19.09L135.16,3A.21.21,0,0,0,135.29,2.89Z" style="fill:none;stroke:#423c25;stroke-miterlimit:10;stroke-width:0.599213838577271px"/><path d="M125.7,12.64a.17.17,0,0,1-.12,0l-6.49-4,7.68.16h.07a.14.14,0,0,1,.07.18l-1.12,3.59A.13.13,0,0,1,125.7,12.64Z" style="fill:none;stroke:#423c25;stroke-miterlimit:10;stroke-width:0.599213838577271px"/><path d="M137.29,11.72A2.31,2.31,0,1,1,134,12,2.29,2.29,0,0,1,137.29,11.72Z" style="fill:none;stroke:#423c25;stroke-miterlimit:10;stroke-width:0.599213838577271px"/><path d="M158.59,20.38l-13.37-.64A2.75,2.75,0,0,0,145,18l0,0a.15.15,0,0,0,.09.06l7.38.36-6.12-4.63h0v0a2.7,2.7,0,0,0,1.5-1Z" style="fill:#fff"/><path d="M153.14-3.26,146.43,8.31a2.87,2.87,0,0,0-1.63-.63V7.56a.23.23,0,0,0,.2-.11l2.91-5.54-6.4,2.82s0,0-.05,0l-.1,0a2.57,2.57,0,0,0-.14-1.8Z" style="fill:#fff"/><path d="M152.54,18.38,145.16,18a.15.15,0,0,1-.09-.06s0,0,0-.06l1.3-4.14,0,0h0Z" style="fill:#423c25"/><path d="M147.9,1.91,145,7.45a.23.23,0,0,1-.2.11.19.19,0,0,1-.14,0l-3.17-2.6a.11.11,0,0,1,0-.14s0,0,.05,0Z" style="fill:#423c25"/><path d="M146.4,13.72v0l0,0-1.3,4.14s0,0,0,.06l0,0a1.6,1.6,0,0,0-.21-.32c-.87-1-2.6-.75-3.6-.17-.11.07-2,1.21-1.69,3a2.31,2.31,0,0,0,.92,1.51l-.05.08a.11.11,0,0,0-.12,0l-4,1.08a.16.16,0,0,0-.12.16l-.13,0c.28-1.27-.92-2.49-2-3-.12-.06-2.16-1-3.44.36a2.29,2.29,0,0,0-.39.54l-.07,0a.08.08,0,0,0,0-.11l-3.09-2.15a.11.11,0,0,0-.08,0v-.08l.29,0c1.32-.29,1.89-1.94,1.86-3.09,0-.13-.1-2.37-1.86-2.91a2.82,2.82,0,0,0-1.55,0l0-.09a.13.13,0,0,0,.09-.1L126.91,9a.14.14,0,0,0-.07-.18l.06-.09c1,.77,2.52.39,3.43-.22.1-.07,1.95-1.33,1.48-3.11a2.49,2.49,0,0,0-.67-1.17l.1-.1a.15.15,0,0,0,.19.09L135.16,3a.21.21,0,0,0,.13-.11l.09,0-.07.19c-.41,1.28.74,2.6,1.76,3.14.12.06,2.11,1.09,3.45-.16a2.86,2.86,0,0,0,.83-1.37l.1,0a.11.11,0,0,0,0,.14l3.17,2.6a.19.19,0,0,0,.14,0v.12a1.92,1.92,0,0,0-.41.05c-1.3.3-1.85,2-1.8,3.12,0,.13.14,2.36,1.9,2.88A3.54,3.54,0,0,0,146.4,13.72ZM137.59,15a2.31,2.31,0,1,0-3.26.3A2.29,2.29,0,0,0,137.59,15Z" style="fill:#423c25"/><path d="M141.73,22.75V36.18l-7.18-11.29A2.64,2.64,0,0,0,136,23.35v-.08l.13,0a.19.19,0,0,0,0,.1l4,6.31.23-7.53a.11.11,0,0,0,0-.08l.05-.08a2.77,2.77,0,0,0,1.29.49Z" style="fill:#fff"/><path d="M140.42,22.17l-.23,7.53-4-6.31a.19.19,0,0,1,0-.1.16.16,0,0,1,.12-.16l4-1.08a.11.11,0,0,1,.12,0A.11.11,0,0,1,140.42,22.17Z" style="fill:#423c25"/><path d="M137.29,11.72A2.31,2.31,0,1,1,134,12,2.29,2.29,0,0,1,137.29,11.72Z" style="fill:#fff"/><path d="M130.32-10l6.54,11.68a2.6,2.6,0,0,0-1.48,1.26l-.09,0a.19.19,0,0,0,0-.15l-3.32-6L131.23,4a.17.17,0,0,0,0,.07l-.1.1a2.77,2.77,0,0,0-1.76-.72Z" style="fill:#fff"/><path d="M135.27,2.74a.19.19,0,0,1,0,.15.21.21,0,0,1-.13.11l-3.73,1.17a.15.15,0,0,1-.19-.09.17.17,0,0,1,0-.07L132-3.23Z" style="fill:#423c25"/><path d="M130.41,23.53l-12,6.09,6.88-11.46a2.79,2.79,0,0,0,1.74.65v.08a.16.16,0,0,0-.14.08l-3.64,6.1,6.94-3.86,0,0,.07,0a1.51,1.51,0,0,0-.18.44A2.68,2.68,0,0,0,130.41,23.53Z" style="fill:#fff"/><path d="M130.15,21.07a.08.08,0,0,1,0,.11l0,0-6.94,3.86,3.64-6.1a.16.16,0,0,1,.14-.08.11.11,0,0,1,.08,0Z" style="fill:#423c25"/><path d="M126.84,8.77a.14.14,0,0,1,.07.18l-1.12,3.59a.13.13,0,0,1-.09.1.17.17,0,0,1-.12,0l-6.49-4,7.68.16Z" style="fill:#423c25"/><path d="M126.9,8.68l-.06.09h-.07l-7.68-.16,6.49,4a.17.17,0,0,0,.12,0l0,.09a2.53,2.53,0,0,0-1.49,1l-11.44-7,13.38-.23a2.58,2.58,0,0,0,.55,2Z" style="fill:#fff"/><path d="M144.8,7.68a2.87,2.87,0,0,1,1.63.63l6.71-11.57-11.93,6.2a2.57,2.57,0,0,1,.14,1.8,2.86,2.86,0,0,1-.83,1.37c-1.34,1.25-3.33.22-3.45.16-1-.54-2.17-1.86-1.76-3.14l.07-.19a2.6,2.6,0,0,1,1.48-1.26L130.32-10l-.94,13.46a2.77,2.77,0,0,1,1.76.72,2.49,2.49,0,0,1,.67,1.17c.47,1.78-1.38,3-1.48,3.11-.91.61-2.47,1-3.43.22l-.18-.15a2.58,2.58,0,0,1-.55-2l-13.38.23,11.44,7a2.53,2.53,0,0,1,1.49-1,2.82,2.82,0,0,1,1.55,0c1.76.54,1.86,2.78,1.86,2.91,0,1.15-.54,2.8-1.86,3.09l-.29,0a2.79,2.79,0,0,1-1.74-.65l-6.88,11.46,12-6.09a2.68,2.68,0,0,1-.35-1.88,1.51,1.51,0,0,1,.18-.44,2.29,2.29,0,0,1,.39-.54c1.28-1.33,3.32-.42,3.44-.36,1,.47,2.23,1.69,2,3v.08a2.64,2.64,0,0,1-1.46,1.54l7.18,11.29V22.5a2.77,2.77,0,0,1-1.29-.49,2.31,2.31,0,0,1-.92-1.51c-.35-1.8,1.58-2.94,1.69-3,1-.58,2.73-.85,3.6.17A1.6,1.6,0,0,1,145,18a2.75,2.75,0,0,1,.2,1.76l13.37.64L147.9,12.72a2.7,2.7,0,0,1-1.5,1,3.54,3.54,0,0,1-1.91,0c-1.76-.52-1.9-2.75-1.9-2.88-.05-1.16.5-2.82,1.8-3.12A1.92,1.92,0,0,1,144.8,7.68Z" style="fill:none;stroke:#423c25;stroke-miterlimit:10;stroke-width:0.599213838577271px"/><path d="M130.17,21.18l0,0-6.94,3.86,3.64-6.1a.16.16,0,0,1,.14-.08.11.11,0,0,1,.08,0l3.09,2.15A.08.08,0,0,1,130.17,21.18Z" style="fill:none;stroke:#423c25;stroke-miterlimit:10;stroke-width:0.599213838577271px"/><path d="M136.15,23.29a.19.19,0,0,0,0,.1l4,6.31.23-7.53a.11.11,0,0,0,0-.08.11.11,0,0,0-.12,0l-4,1.08A.16.16,0,0,0,136.15,23.29Z" style="fill:none;stroke:#423c25;stroke-miterlimit:10;stroke-width:0.599213838577271px"/><path d="M146.4,13.74h0l6.12,4.63L145.16,18a.15.15,0,0,1-.09-.06s0,0,0-.06l1.3-4.14Z" style="fill:none;stroke:#423c25;stroke-miterlimit:10;stroke-width:0.599213838577271px"/><path d="M141.45,4.77s0,0,.05,0l6.4-2.82L145,7.45a.23.23,0,0,1-.2.11.19.19,0,0,1-.14,0l-3.17-2.6A.11.11,0,0,1,141.45,4.77Z" style="fill:none;stroke:#423c25;stroke-miterlimit:10;stroke-width:0.599213838577271px"/><path d="M135.29,2.89a.19.19,0,0,0,0-.15l-3.32-6L131.23,4a.17.17,0,0,0,0,.07.15.15,0,0,0,.19.09L135.16,3A.21.21,0,0,0,135.29,2.89Z" style="fill:none;stroke:#423c25;stroke-miterlimit:10;stroke-width:0.599213838577271px"/><path d="M125.7,12.64a.17.17,0,0,1-.12,0l-6.49-4,7.68.16h.07a.14.14,0,0,1,.07.18l-1.12,3.59A.13.13,0,0,1,125.7,12.64Z" style="fill:none;stroke:#423c25;stroke-miterlimit:10;stroke-width:0.599213838577271px"/><path d="M137.29,11.72A2.31,2.31,0,1,1,134,12,2.29,2.29,0,0,1,137.29,11.72Z" style="fill:none;stroke:#423c25;stroke-miterlimit:10;stroke-width:0.599213838577271px"/><path d="M158.59,20.38l-13.37-.64A2.75,2.75,0,0,0,145,18l0,0a.15.15,0,0,0,.09.06l7.38.36-6.12-4.63h0v0a2.7,2.7,0,0,0,1.5-1Z" style="fill:#fff"/><path d="M153.14-3.26,146.43,8.31a2.87,2.87,0,0,0-1.63-.63V7.56a.23.23,0,0,0,.2-.11l2.91-5.54-6.4,2.82s0,0-.05,0l-.1,0a2.57,2.57,0,0,0-.14-1.8Z" style="fill:#fff"/><path d="M152.54,18.38,145.16,18a.15.15,0,0,1-.09-.06s0,0,0-.06l1.3-4.14,0,0h0Z" style="fill:#423c25"/><path d="M147.9,1.91,145,7.45a.23.23,0,0,1-.2.11.19.19,0,0,1-.14,0l-3.17-2.6a.11.11,0,0,1,0-.14s0,0,.05,0Z" style="fill:#423c25"/><path d="M146.4,13.72v0l0,0-1.3,4.14s0,0,0,.06l0,0a1.6,1.6,0,0,0-.21-.32c-.87-1-2.6-.75-3.6-.17-.11.07-2,1.21-1.69,3a2.31,2.31,0,0,0,.92,1.51l-.05.08a.11.11,0,0,0-.12,0l-4,1.08a.16.16,0,0,0-.12.16l-.13,0c.28-1.27-.92-2.49-2-3-.12-.06-2.16-1-3.44.36a2.29,2.29,0,0,0-.39.54l-.07,0a.08.08,0,0,0,0-.11l-3.09-2.15a.11.11,0,0,0-.08,0v-.08l.29,0c1.32-.29,1.89-1.94,1.86-3.09,0-.13-.1-2.37-1.86-2.91a2.82,2.82,0,0,0-1.55,0l0-.09a.13.13,0,0,0,.09-.1L126.91,9a.14.14,0,0,0-.07-.18l.06-.09c1,.77,2.52.39,3.43-.22.1-.07,1.95-1.33,1.48-3.11a2.49,2.49,0,0,0-.67-1.17l.1-.1a.15.15,0,0,0,.19.09L135.16,3a.21.21,0,0,0,.13-.11l.09,0-.07.19c-.41,1.28.74,2.6,1.76,3.14.12.06,2.11,1.09,3.45-.16a2.86,2.86,0,0,0,.83-1.37l.1,0a.11.11,0,0,0,0,.14l3.17,2.6a.19.19,0,0,0,.14,0v.12a1.92,1.92,0,0,0-.41.05c-1.3.3-1.85,2-1.8,3.12,0,.13.14,2.36,1.9,2.88A3.54,3.54,0,0,0,146.4,13.72ZM137.59,15a2.31,2.31,0,1,0-3.26.3A2.29,2.29,0,0,0,137.59,15Z" style="fill:#423c25"/><path d="M141.73,22.75V36.18l-7.18-11.29A2.64,2.64,0,0,0,136,23.35v-.08l.13,0a.19.19,0,0,0,0,.1l4,6.31.23-7.53a.11.11,0,0,0,0-.08l.05-.08a2.77,2.77,0,0,0,1.29.49Z" style="fill:#fff"/><path d="M140.42,22.17l-.23,7.53-4-6.31a.19.19,0,0,1,0-.1.16.16,0,0,1,.12-.16l4-1.08a.11.11,0,0,1,.12,0A.11.11,0,0,1,140.42,22.17Z" style="fill:#423c25"/><path d="M137.29,11.72A2.31,2.31,0,1,1,134,12,2.29,2.29,0,0,1,137.29,11.72Z" style="fill:#fff"/><path d="M130.32-10l6.54,11.68a2.6,2.6,0,0,0-1.48,1.26l-.09,0a.19.19,0,0,0,0-.15l-3.32-6L131.23,4a.17.17,0,0,0,0,.07l-.1.1a2.77,2.77,0,0,0-1.76-.72Z" style="fill:#fff"/><path d="M135.27,2.74a.19.19,0,0,1,0,.15.21.21,0,0,1-.13.11l-3.73,1.17a.15.15,0,0,1-.19-.09.17.17,0,0,1,0-.07L132-3.23Z" style="fill:#423c25"/><path d="M130.41,23.53l-12,6.09,6.88-11.46a2.79,2.79,0,0,0,1.74.65v.08a.16.16,0,0,0-.14.08l-3.64,6.1,6.94-3.86,0,0,.07,0a1.51,1.51,0,0,0-.18.44A2.68,2.68,0,0,0,130.41,23.53Z" style="fill:#fff"/><path d="M130.15,21.07a.08.08,0,0,1,0,.11l0,0-6.94,3.86,3.64-6.1a.16.16,0,0,1,.14-.08.11.11,0,0,1,.08,0Z" style="fill:#423c25"/><path d="M126.84,8.77a.14.14,0,0,1,.07.18l-1.12,3.59a.13.13,0,0,1-.09.1.17.17,0,0,1-.12,0l-6.49-4,7.68.16Z" style="fill:#423c25"/><path d="M126.9,8.68l-.06.09h-.07l-7.68-.16,6.49,4a.17.17,0,0,0,.12,0l0,.09a2.53,2.53,0,0,0-1.49,1l-11.44-7,13.38-.23a2.58,2.58,0,0,0,.55,2Z" style="fill:#fff"/><path d="M144.8,7.68a2.87,2.87,0,0,1,1.63.63l6.71-11.57-11.93,6.2a2.57,2.57,0,0,1,.14,1.8,2.86,2.86,0,0,1-.83,1.37c-1.34,1.25-3.33.22-3.45.16-1-.54-2.17-1.86-1.76-3.14l.07-.19a2.6,2.6,0,0,1,1.48-1.26L130.32-10l-.94,13.46a2.77,2.77,0,0,1,1.76.72,2.49,2.49,0,0,1,.67,1.17c.47,1.78-1.38,3-1.48,3.11-.91.61-2.47,1-3.43.22l-.18-.15a2.58,2.58,0,0,1-.55-2l-13.38.23,11.44,7a2.53,2.53,0,0,1,1.49-1,2.82,2.82,0,0,1,1.55,0c1.76.54,1.86,2.78,1.86,2.91,0,1.15-.54,2.8-1.86,3.09l-.29,0a2.79,2.79,0,0,1-1.74-.65l-6.88,11.46,12-6.09a2.68,2.68,0,0,1-.35-1.88,1.51,1.51,0,0,1,.18-.44,2.29,2.29,0,0,1,.39-.54c1.28-1.33,3.32-.42,3.44-.36,1,.47,2.23,1.69,2,3v.08a2.64,2.64,0,0,1-1.46,1.54l7.18,11.29V22.5a2.77,2.77,0,0,1-1.29-.49,2.31,2.31,0,0,1-.92-1.51c-.35-1.8,1.58-2.94,1.69-3,1-.58,2.73-.85,3.6.17A1.6,1.6,0,0,1,145,18a2.75,2.75,0,0,1,.2,1.76l13.37.64L147.9,12.72a2.7,2.7,0,0,1-1.5,1,3.54,3.54,0,0,1-1.91,0c-1.76-.52-1.9-2.75-1.9-2.88-.05-1.16.5-2.82,1.8-3.12A1.92,1.92,0,0,1,144.8,7.68Z" style="fill:none;stroke:#423c25;stroke-miterlimit:10;stroke-width:0.599213838577271px"/><path d="M130.17,21.18l0,0-6.94,3.86,3.64-6.1a.16.16,0,0,1,.14-.08.11.11,0,0,1,.08,0l3.09,2.15A.08.08,0,0,1,130.17,21.18Z" style="fill:none;stroke:#423c25;stroke-miterlimit:10;stroke-width:0.599213838577271px"/><path d="M136.15,23.29a.19.19,0,0,0,0,.1l4,6.31.23-7.53a.11.11,0,0,0,0-.08.11.11,0,0,0-.12,0l-4,1.08A.16.16,0,0,0,136.15,23.29Z" style="fill:none;stroke:#423c25;stroke-miterlimit:10;stroke-width:0.599213838577271px"/><path d="M146.4,13.74h0l6.12,4.63L145.16,18a.15.15,0,0,1-.09-.06s0,0,0-.06l1.3-4.14Z" style="fill:none;stroke:#423c25;stroke-miterlimit:10;stroke-width:0.599213838577271px"/><path d="M141.45,4.77s0,0,.05,0l6.4-2.82L145,7.45a.23.23,0,0,1-.2.11.19.19,0,0,1-.14,0l-3.17-2.6A.11.11,0,0,1,141.45,4.77Z" style="fill:none;stroke:#423c25;stroke-miterlimit:10;stroke-width:0.599213838577271px"/><path d="M135.29,2.89a.19.19,0,0,0,0-.15l-3.32-6L131.23,4a.17.17,0,0,0,0,.07.15.15,0,0,0,.19.09L135.16,3A.21.21,0,0,0,135.29,2.89Z" style="fill:none;stroke:#423c25;stroke-miterlimit:10;stroke-width:0.599213838577271px"/><path d="M125.7,12.64a.17.17,0,0,1-.12,0l-6.49-4,7.68.16h.07a.14.14,0,0,1,.07.18l-1.12,3.59A.13.13,0,0,1,125.7,12.64Z" style="fill:none;stroke:#423c25;stroke-miterlimit:10;stroke-width:0.599213838577271px"/><path d="M137.29,11.72A2.31,2.31,0,1,1,134,12,2.29,2.29,0,0,1,137.29,11.72Z" style="fill:none;stroke:#423c25;stroke-miterlimit:10;stroke-width:0.599213838577271px"/><path d="M158.59,20.38l-13.37-.64A2.75,2.75,0,0,0,145,18l0,0a.15.15,0,0,0,.09.06l7.38.36-6.12-4.63h0v0a2.7,2.7,0,0,0,1.5-1Z" style="fill:#fff"/><path d="M153.14-3.26,146.43,8.31a2.87,2.87,0,0,0-1.63-.63V7.56a.23.23,0,0,0,.2-.11l2.91-5.54-6.4,2.82s0,0-.05,0l-.1,0a2.57,2.57,0,0,0-.14-1.8Z" style="fill:#fff"/><path d="M152.54,18.38,145.16,18a.15.15,0,0,1-.09-.06s0,0,0-.06l1.3-4.14,0,0h0Z" style="fill:#423c25"/><path d="M147.9,1.91,145,7.45a.23.23,0,0,1-.2.11.19.19,0,0,1-.14,0l-3.17-2.6a.11.11,0,0,1,0-.14s0,0,.05,0Z" style="fill:#423c25"/><path d="M146.4,13.72v0l0,0-1.3,4.14s0,0,0,.06l0,0a1.6,1.6,0,0,0-.21-.32c-.87-1-2.6-.75-3.6-.17-.11.07-2,1.21-1.69,3a2.31,2.31,0,0,0,.92,1.51l-.05.08a.11.11,0,0,0-.12,0l-4,1.08a.16.16,0,0,0-.12.16l-.13,0c.28-1.27-.92-2.49-2-3-.12-.06-2.16-1-3.44.36a2.29,2.29,0,0,0-.39.54l-.07,0a.08.08,0,0,0,0-.11l-3.09-2.15a.11.11,0,0,0-.08,0v-.08l.29,0c1.32-.29,1.89-1.94,1.86-3.09,0-.13-.1-2.37-1.86-2.91a2.82,2.82,0,0,0-1.55,0l0-.09a.13.13,0,0,0,.09-.1L126.91,9a.14.14,0,0,0-.07-.18l.06-.09c1,.77,2.52.39,3.43-.22.1-.07,1.95-1.33,1.48-3.11a2.49,2.49,0,0,0-.67-1.17l.1-.1a.15.15,0,0,0,.19.09L135.16,3a.21.21,0,0,0,.13-.11l.09,0-.07.19c-.41,1.28.74,2.6,1.76,3.14.12.06,2.11,1.09,3.45-.16a2.86,2.86,0,0,0,.83-1.37l.1,0a.11.11,0,0,0,0,.14l3.17,2.6a.19.19,0,0,0,.14,0v.12a1.92,1.92,0,0,0-.41.05c-1.3.3-1.85,2-1.8,3.12,0,.13.14,2.36,1.9,2.88A3.54,3.54,0,0,0,146.4,13.72ZM137.59,15a2.31,2.31,0,1,0-3.26.3A2.29,2.29,0,0,0,137.59,15Z" style="fill:#423c25"/><path d="M141.73,22.75V36.18l-7.18-11.29A2.64,2.64,0,0,0,136,23.35v-.08l.13,0a.19.19,0,0,0,0,.1l4,6.31.23-7.53a.11.11,0,0,0,0-.08l.05-.08a2.77,2.77,0,0,0,1.29.49Z" style="fill:#fff"/><path d="M140.42,22.17l-.23,7.53-4-6.31a.19.19,0,0,1,0-.1.16.16,0,0,1,.12-.16l4-1.08a.11.11,0,0,1,.12,0A.11.11,0,0,1,140.42,22.17Z" style="fill:#423c25"/><path d="M137.29,11.72A2.31,2.31,0,1,1,134,12,2.29,2.29,0,0,1,137.29,11.72Z" style="fill:#fff"/><path d="M130.32-10l6.54,11.68a2.6,2.6,0,0,0-1.48,1.26l-.09,0a.19.19,0,0,0,0-.15l-3.32-6L131.23,4a.17.17,0,0,0,0,.07l-.1.1a2.77,2.77,0,0,0-1.76-.72Z" style="fill:#fff"/><path d="M135.27,2.74a.19.19,0,0,1,0,.15.21.21,0,0,1-.13.11l-3.73,1.17a.15.15,0,0,1-.19-.09.17.17,0,0,1,0-.07L132-3.23Z" style="fill:#423c25"/><path d="M130.41,23.53l-12,6.09,6.88-11.46a2.79,2.79,0,0,0,1.74.65v.08a.16.16,0,0,0-.14.08l-3.64,6.1,6.94-3.86,0,0,.07,0a1.51,1.51,0,0,0-.18.44A2.68,2.68,0,0,0,130.41,23.53Z" style="fill:#fff"/><path d="M130.15,21.07a.08.08,0,0,1,0,.11l0,0-6.94,3.86,3.64-6.1a.16.16,0,0,1,.14-.08.11.11,0,0,1,.08,0Z" style="fill:#423c25"/><path d="M126.84,8.77a.14.14,0,0,1,.07.18l-1.12,3.59a.13.13,0,0,1-.09.1.17.17,0,0,1-.12,0l-6.49-4,7.68.16Z" style="fill:#423c25"/><path d="M126.9,8.68l-.06.09h-.07l-7.68-.16,6.49,4a.17.17,0,0,0,.12,0l0,.09a2.53,2.53,0,0,0-1.49,1l-11.44-7,13.38-.23a2.58,2.58,0,0,0,.55,2Z" style="fill:#fff"/><path d="M144.8,7.68a2.87,2.87,0,0,1,1.63.63l6.71-11.57-11.93,6.2a2.57,2.57,0,0,1,.14,1.8,2.86,2.86,0,0,1-.83,1.37c-1.34,1.25-3.33.22-3.45.16-1-.54-2.17-1.86-1.76-3.14l.07-.19a2.6,2.6,0,0,1,1.48-1.26L130.32-10l-.94,13.46a2.77,2.77,0,0,1,1.76.72,2.49,2.49,0,0,1,.67,1.17c.47,1.78-1.38,3-1.48,3.11-.91.61-2.47,1-3.43.22l-.18-.15a2.58,2.58,0,0,1-.55-2l-13.38.23,11.44,7a2.53,2.53,0,0,1,1.49-1,2.82,2.82,0,0,1,1.55,0c1.76.54,1.86,2.78,1.86,2.91,0,1.15-.54,2.8-1.86,3.09l-.29,0a2.79,2.79,0,0,1-1.74-.65l-6.88,11.46,12-6.09a2.68,2.68,0,0,1-.35-1.88,1.51,1.51,0,0,1,.18-.44,2.29,2.29,0,0,1,.39-.54c1.28-1.33,3.32-.42,3.44-.36,1,.47,2.23,1.69,2,3v.08a2.64,2.64,0,0,1-1.46,1.54l7.18,11.29V22.5a2.77,2.77,0,0,1-1.29-.49,2.31,2.31,0,0,1-.92-1.51c-.35-1.8,1.58-2.94,1.69-3,1-.58,2.73-.85,3.6.17A1.6,1.6,0,0,1,145,18a2.75,2.75,0,0,1,.2,1.76l13.37.64L147.9,12.72a2.7,2.7,0,0,1-1.5,1,3.54,3.54,0,0,1-1.91,0c-1.76-.52-1.9-2.75-1.9-2.88-.05-1.16.5-2.82,1.8-3.12A1.92,1.92,0,0,1,144.8,7.68Z" style="fill:none;stroke:#423c25;stroke-miterlimit:10;stroke-width:0.599213838577271px"/><path d="M130.17,21.18l0,0-6.94,3.86,3.64-6.1a.16.16,0,0,1,.14-.08.11.11,0,0,1,.08,0l3.09,2.15A.08.08,0,0,1,130.17,21.18Z" style="fill:none;stroke:#423c25;stroke-miterlimit:10;stroke-width:0.599213838577271px"/><path d="M136.15,23.29a.19.19,0,0,0,0,.1l4,6.31.23-7.53a.11.11,0,0,0,0-.08.11.11,0,0,0-.12,0l-4,1.08A.16.16,0,0,0,136.15,23.29Z" style="fill:none;stroke:#423c25;stroke-miterlimit:10;stroke-width:0.599213838577271px"/><path d="M146.4,13.74h0l6.12,4.63L145.16,18a.15.15,0,0,1-.09-.06s0,0,0-.06l1.3-4.14Z" style="fill:none;stroke:#423c25;stroke-miterlimit:10;stroke-width:0.599213838577271px"/><path d="M141.45,4.77s0,0,.05,0l6.4-2.82L145,7.45a.23.23,0,0,1-.2.11.19.19,0,0,1-.14,0l-3.17-2.6A.11.11,0,0,1,141.45,4.77Z" style="fill:none;stroke:#423c25;stroke-miterlimit:10;stroke-width:0.599213838577271px"/><path d="M135.29,2.89a.19.19,0,0,0,0-.15l-3.32-6L131.23,4a.17.17,0,0,0,0,.07.15.15,0,0,0,.19.09L135.16,3A.21.21,0,0,0,135.29,2.89Z" style="fill:none;stroke:#423c25;stroke-miterlimit:10;stroke-width:0.599213838577271px"/><path d="M125.7,12.64a.17.17,0,0,1-.12,0l-6.49-4,7.68.16h.07a.14.14,0,0,1,.07.18l-1.12,3.59A.13.13,0,0,1,125.7,12.64Z" style="fill:none;stroke:#423c25;stroke-miterlimit:10;stroke-width:0.599213838577271px"/><path d="M137.29,11.72A2.31,2.31,0,1,1,134,12,2.29,2.29,0,0,1,137.29,11.72Z" style="fill:none;stroke:#423c25;stroke-miterlimit:10;stroke-width:0.599213838577271px"/><path d="M158.59,20.38l-13.37-.64A2.75,2.75,0,0,0,145,18l0,0a.15.15,0,0,0,.09.06l7.38.36-6.12-4.63h0v0a2.7,2.7,0,0,0,1.5-1Z" style="fill:#fff"/><path d="M153.14-3.26,146.43,8.31a2.87,2.87,0,0,0-1.63-.63V7.56a.23.23,0,0,0,.2-.11l2.91-5.54-6.4,2.82s0,0-.05,0l-.1,0a2.57,2.57,0,0,0-.14-1.8Z" style="fill:#fff"/><path d="M152.54,18.38,145.16,18a.15.15,0,0,1-.09-.06s0,0,0-.06l1.3-4.14,0,0h0Z" style="fill:#423c25"/><path d="M147.9,1.91,145,7.45a.23.23,0,0,1-.2.11.19.19,0,0,1-.14,0l-3.17-2.6a.11.11,0,0,1,0-.14s0,0,.05,0Z" style="fill:#423c25"/><path d="M146.4,13.72v0l0,0-1.3,4.14s0,0,0,.06l0,0a1.6,1.6,0,0,0-.21-.32c-.87-1-2.6-.75-3.6-.17-.11.07-2,1.21-1.69,3a2.31,2.31,0,0,0,.92,1.51l-.05.08a.11.11,0,0,0-.12,0l-4,1.08a.16.16,0,0,0-.12.16l-.13,0c.28-1.27-.92-2.49-2-3-.12-.06-2.16-1-3.44.36a2.29,2.29,0,0,0-.39.54l-.07,0a.08.08,0,0,0,0-.11l-3.09-2.15a.11.11,0,0,0-.08,0v-.08l.29,0c1.32-.29,1.89-1.94,1.86-3.09,0-.13-.1-2.37-1.86-2.91a2.82,2.82,0,0,0-1.55,0l0-.09a.13.13,0,0,0,.09-.1L126.91,9a.14.14,0,0,0-.07-.18l.06-.09c1,.77,2.52.39,3.43-.22.1-.07,1.95-1.33,1.48-3.11a2.49,2.49,0,0,0-.67-1.17l.1-.1a.15.15,0,0,0,.19.09L135.16,3a.21.21,0,0,0,.13-.11l.09,0-.07.19c-.41,1.28.74,2.6,1.76,3.14.12.06,2.11,1.09,3.45-.16a2.86,2.86,0,0,0,.83-1.37l.1,0a.11.11,0,0,0,0,.14l3.17,2.6a.19.19,0,0,0,.14,0v.12a1.92,1.92,0,0,0-.41.05c-1.3.3-1.85,2-1.8,3.12,0,.13.14,2.36,1.9,2.88A3.54,3.54,0,0,0,146.4,13.72ZM137.59,15a2.31,2.31,0,1,0-3.26.3A2.29,2.29,0,0,0,137.59,15Z" style="fill:#423c25"/><path d="M141.73,22.75V36.18l-7.18-11.29A2.64,2.64,0,0,0,136,23.35v-.08l.13,0a.19.19,0,0,0,0,.1l4,6.31.23-7.53a.11.11,0,0,0,0-.08l.05-.08a2.77,2.77,0,0,0,1.29.49Z" style="fill:#fff"/><path d="M140.42,22.17l-.23,7.53-4-6.31a.19.19,0,0,1,0-.1.16.16,0,0,1,.12-.16l4-1.08a.11.11,0,0,1,.12,0A.11.11,0,0,1,140.42,22.17Z" style="fill:#423c25"/><path d="M137.29,11.72A2.31,2.31,0,1,1,134,12,2.29,2.29,0,0,1,137.29,11.72Z" style="fill:#fff"/><path d="M130.32-10l6.54,11.68a2.6,2.6,0,0,0-1.48,1.26l-.09,0a.19.19,0,0,0,0-.15l-3.32-6L131.23,4a.17.17,0,0,0,0,.07l-.1.1a2.77,2.77,0,0,0-1.76-.72Z" style="fill:#fff"/><path d="M135.27,2.74a.19.19,0,0,1,0,.15.21.21,0,0,1-.13.11l-3.73,1.17a.15.15,0,0,1-.19-.09.17.17,0,0,1,0-.07L132-3.23Z" style="fill:#423c25"/><path d="M130.41,23.53l-12,6.09,6.88-11.46a2.79,2.79,0,0,0,1.74.65v.08a.16.16,0,0,0-.14.08l-3.64,6.1,6.94-3.86,0,0,.07,0a1.51,1.51,0,0,0-.18.44A2.68,2.68,0,0,0,130.41,23.53Z" style="fill:#fff"/><path d="M130.15,21.07a.08.08,0,0,1,0,.11l0,0-6.94,3.86,3.64-6.1a.16.16,0,0,1,.14-.08.11.11,0,0,1,.08,0Z" style="fill:#423c25"/><path d="M126.84,8.77a.14.14,0,0,1,.07.18l-1.12,3.59a.13.13,0,0,1-.09.1.17.17,0,0,1-.12,0l-6.49-4,7.68.16Z" style="fill:#423c25"/><path d="M126.9,8.68l-.06.09h-.07l-7.68-.16,6.49,4a.17.17,0,0,0,.12,0l0,.09a2.53,2.53,0,0,0-1.49,1l-11.44-7,13.38-.23a2.58,2.58,0,0,0,.55,2Z" style="fill:#fff"/><path d="M144.8,7.68a2.87,2.87,0,0,1,1.63.63l6.71-11.57-11.93,6.2a2.57,2.57,0,0,1,.14,1.8,2.86,2.86,0,0,1-.83,1.37c-1.34,1.25-3.33.22-3.45.16-1-.54-2.17-1.86-1.76-3.14l.07-.19a2.6,2.6,0,0,1,1.48-1.26L130.32-10l-.94,13.46a2.77,2.77,0,0,1,1.76.72,2.49,2.49,0,0,1,.67,1.17c.47,1.78-1.38,3-1.48,3.11-.91.61-2.47,1-3.43.22l-.18-.15a2.58,2.58,0,0,1-.55-2l-13.38.23,11.44,7a2.53,2.53,0,0,1,1.49-1,2.82,2.82,0,0,1,1.55,0c1.76.54,1.86,2.78,1.86,2.91,0,1.15-.54,2.8-1.86,3.09l-.29,0a2.79,2.79,0,0,1-1.74-.65l-6.88,11.46,12-6.09a2.68,2.68,0,0,1-.35-1.88,1.51,1.51,0,0,1,.18-.44,2.29,2.29,0,0,1,.39-.54c1.28-1.33,3.32-.42,3.44-.36,1,.47,2.23,1.69,2,3v.08a2.64,2.64,0,0,1-1.46,1.54l7.18,11.29V22.5a2.77,2.77,0,0,1-1.29-.49,2.31,2.31,0,0,1-.92-1.51c-.35-1.8,1.58-2.94,1.69-3,1-.58,2.73-.85,3.6.17A1.6,1.6,0,0,1,145,18a2.75,2.75,0,0,1,.2,1.76l13.37.64L147.9,12.72a2.7,2.7,0,0,1-1.5,1,3.54,3.54,0,0,1-1.91,0c-1.76-.52-1.9-2.75-1.9-2.88-.05-1.16.5-2.82,1.8-3.12A1.92,1.92,0,0,1,144.8,7.68Z" style="fill:none;stroke:#423c25;stroke-miterlimit:10;stroke-width:0.599213838577271px"/><path d="M130.17,21.18l0,0-6.94,3.86,3.64-6.1a.16.16,0,0,1,.14-.08.11.11,0,0,1,.08,0l3.09,2.15A.08.08,0,0,1,130.17,21.18Z" style="fill:none;stroke:#423c25;stroke-miterlimit:10;stroke-width:0.599213838577271px"/><path d="M136.15,23.29a.19.19,0,0,0,0,.1l4,6.31.23-7.53a.11.11,0,0,0,0-.08.11.11,0,0,0-.12,0l-4,1.08A.16.16,0,0,0,136.15,23.29Z" style="fill:none;stroke:#423c25;stroke-miterlimit:10;stroke-width:0.599213838577271px"/><path d="M146.4,13.74h0l6.12,4.63L145.16,18a.15.15,0,0,1-.09-.06s0,0,0-.06l1.3-4.14Z" style="fill:none;stroke:#423c25;stroke-miterlimit:10;stroke-width:0.599213838577271px"/><path d="M141.45,4.77s0,0,.05,0l6.4-2.82L145,7.45a.23.23,0,0,1-.2.11.19.19,0,0,1-.14,0l-3.17-2.6A.11.11,0,0,1,141.45,4.77Z" style="fill:none;stroke:#423c25;stroke-miterlimit:10;stroke-width:0.599213838577271px"/><path d="M135.29,2.89a.19.19,0,0,0,0-.15l-3.32-6L131.23,4a.17.17,0,0,0,0,.07.15.15,0,0,0,.19.09L135.16,3A.21.21,0,0,0,135.29,2.89Z" style="fill:none;stroke:#423c25;stroke-miterlimit:10;stroke-width:0.599213838577271px"/><path d="M125.7,12.64a.17.17,0,0,1-.12,0l-6.49-4,7.68.16h.07a.14.14,0,0,1,.07.18l-1.12,3.59A.13.13,0,0,1,125.7,12.64Z" style="fill:none;stroke:#423c25;stroke-miterlimit:10;stroke-width:0.599213838577271px"/><path d="M137.29,11.72A2.31,2.31,0,1,1,134,12,2.29,2.29,0,0,1,137.29,11.72Z" style="fill:none;stroke:#423c25;stroke-miterlimit:10;stroke-width:0.599213838577271px"/><path d="M158.59,20.38l-13.37-.64A2.75,2.75,0,0,0,145,18l0,0a.15.15,0,0,0,.09.06l7.38.36-6.12-4.63h0v0a2.7,2.7,0,0,0,1.5-1Z" style="fill:#fff"/><path d="M153.14-3.26,146.43,8.31a2.87,2.87,0,0,0-1.63-.63V7.56a.23.23,0,0,0,.2-.11l2.91-5.54-6.4,2.82s0,0-.05,0l-.1,0a2.57,2.57,0,0,0-.14-1.8Z" style="fill:#fff"/><path d="M152.54,18.38,145.16,18a.15.15,0,0,1-.09-.06s0,0,0-.06l1.3-4.14,0,0h0Z" style="fill:#423c25"/><path d="M147.9,1.91,145,7.45a.23.23,0,0,1-.2.11.19.19,0,0,1-.14,0l-3.17-2.6a.11.11,0,0,1,0-.14s0,0,.05,0Z" style="fill:#423c25"/><path d="M146.4,13.72v0l0,0-1.3,4.14s0,0,0,.06l0,0a1.6,1.6,0,0,0-.21-.32c-.87-1-2.6-.75-3.6-.17-.11.07-2,1.21-1.69,3a2.31,2.31,0,0,0,.92,1.51l-.05.08a.11.11,0,0,0-.12,0l-4,1.08a.16.16,0,0,0-.12.16l-.13,0c.28-1.27-.92-2.49-2-3-.12-.06-2.16-1-3.44.36a2.29,2.29,0,0,0-.39.54l-.07,0a.08.08,0,0,0,0-.11l-3.09-2.15a.11.11,0,0,0-.08,0v-.08l.29,0c1.32-.29,1.89-1.94,1.86-3.09,0-.13-.1-2.37-1.86-2.91a2.82,2.82,0,0,0-1.55,0l0-.09a.13.13,0,0,0,.09-.1L126.91,9a.14.14,0,0,0-.07-.18l.06-.09c1,.77,2.52.39,3.43-.22.1-.07,1.95-1.33,1.48-3.11a2.49,2.49,0,0,0-.67-1.17l.1-.1a.15.15,0,0,0,.19.09L135.16,3a.21.21,0,0,0,.13-.11l.09,0-.07.19c-.41,1.28.74,2.6,1.76,3.14.12.06,2.11,1.09,3.45-.16a2.86,2.86,0,0,0,.83-1.37l.1,0a.11.11,0,0,0,0,.14l3.17,2.6a.19.19,0,0,0,.14,0v.12a1.92,1.92,0,0,0-.41.05c-1.3.3-1.85,2-1.8,3.12,0,.13.14,2.36,1.9,2.88A3.54,3.54,0,0,0,146.4,13.72ZM137.59,15a2.31,2.31,0,1,0-3.26.3A2.29,2.29,0,0,0,137.59,15Z" style="fill:#423c25"/><path d="M141.73,22.75V36.18l-7.18-11.29A2.64,2.64,0,0,0,136,23.35v-.08l.13,0a.19.19,0,0,0,0,.1l4,6.31.23-7.53a.11.11,0,0,0,0-.08l.05-.08a2.77,2.77,0,0,0,1.29.49Z" style="fill:#fff"/><path d="M140.42,22.17l-.23,7.53-4-6.31a.19.19,0,0,1,0-.1.16.16,0,0,1,.12-.16l4-1.08a.11.11,0,0,1,.12,0A.11.11,0,0,1,140.42,22.17Z" style="fill:#423c25"/><path d="M137.29,11.72A2.31,2.31,0,1,1,134,12,2.29,2.29,0,0,1,137.29,11.72Z" style="fill:#fff"/><path d="M130.32-10l6.54,11.68a2.6,2.6,0,0,0-1.48,1.26l-.09,0a.19.19,0,0,0,0-.15l-3.32-6L131.23,4a.17.17,0,0,0,0,.07l-.1.1a2.77,2.77,0,0,0-1.76-.72Z" style="fill:#fff"/><path d="M135.27,2.74a.19.19,0,0,1,0,.15.21.21,0,0,1-.13.11l-3.73,1.17a.15.15,0,0,1-.19-.09.17.17,0,0,1,0-.07L132-3.23Z" style="fill:#423c25"/><path d="M130.41,23.53l-12,6.09,6.88-11.46a2.79,2.79,0,0,0,1.74.65v.08a.16.16,0,0,0-.14.08l-3.64,6.1,6.94-3.86,0,0,.07,0a1.51,1.51,0,0,0-.18.44A2.68,2.68,0,0,0,130.41,23.53Z" style="fill:#fff"/><path d="M130.15,21.07a.08.08,0,0,1,0,.11l0,0-6.94,3.86,3.64-6.1a.16.16,0,0,1,.14-.08.11.11,0,0,1,.08,0Z" style="fill:#423c25"/><path d="M126.84,8.77a.14.14,0,0,1,.07.18l-1.12,3.59a.13.13,0,0,1-.09.1.17.17,0,0,1-.12,0l-6.49-4,7.68.16Z" style="fill:#423c25"/><path d="M126.9,8.68l-.06.09h-.07l-7.68-.16,6.49,4a.17.17,0,0,0,.12,0l0,.09a2.53,2.53,0,0,0-1.49,1l-11.44-7,13.38-.23a2.58,2.58,0,0,0,.55,2Z" style="fill:#fff"/><path d="M144.8,7.68a2.87,2.87,0,0,1,1.63.63l6.71-11.57-11.93,6.2a2.57,2.57,0,0,1,.14,1.8,2.86,2.86,0,0,1-.83,1.37c-1.34,1.25-3.33.22-3.45.16-1-.54-2.17-1.86-1.76-3.14l.07-.19a2.6,2.6,0,0,1,1.48-1.26L130.32-10l-.94,13.46a2.77,2.77,0,0,1,1.76.72,2.49,2.49,0,0,1,.67,1.17c.47,1.78-1.38,3-1.48,3.11-.91.61-2.47,1-3.43.22l-.18-.15a2.58,2.58,0,0,1-.55-2l-13.38.23,11.44,7a2.53,2.53,0,0,1,1.49-1,2.82,2.82,0,0,1,1.55,0c1.76.54,1.86,2.78,1.86,2.91,0,1.15-.54,2.8-1.86,3.09l-.29,0a2.79,2.79,0,0,1-1.74-.65l-6.88,11.46,12-6.09a2.68,2.68,0,0,1-.35-1.88,1.51,1.51,0,0,1,.18-.44,2.29,2.29,0,0,1,.39-.54c1.28-1.33,3.32-.42,3.44-.36,1,.47,2.23,1.69,2,3v.08a2.64,2.64,0,0,1-1.46,1.54l7.18,11.29V22.5a2.77,2.77,0,0,1-1.29-.49,2.31,2.31,0,0,1-.92-1.51c-.35-1.8,1.58-2.94,1.69-3,1-.58,2.73-.85,3.6.17A1.6,1.6,0,0,1,145,18a2.75,2.75,0,0,1,.2,1.76l13.37.64L147.9,12.72a2.7,2.7,0,0,1-1.5,1,3.54,3.54,0,0,1-1.91,0c-1.76-.52-1.9-2.75-1.9-2.88-.05-1.16.5-2.82,1.8-3.12A1.92,1.92,0,0,1,144.8,7.68Z" style="fill:none;stroke:#423c25;stroke-miterlimit:10;stroke-width:0.599213838577271px"/><path d="M130.17,21.18l0,0-6.94,3.86,3.64-6.1a.16.16,0,0,1,.14-.08.11.11,0,0,1,.08,0l3.09,2.15A.08.08,0,0,1,130.17,21.18Z" style="fill:none;stroke:#423c25;stroke-miterlimit:10;stroke-width:0.599213838577271px"/><path d="M136.15,23.29a.19.19,0,0,0,0,.1l4,6.31.23-7.53a.11.11,0,0,0,0-.08.11.11,0,0,0-.12,0l-4,1.08A.16.16,0,0,0,136.15,23.29Z" style="fill:none;stroke:#423c25;stroke-miterlimit:10;stroke-width:0.599213838577271px"/><path d="M146.4,13.74h0l6.12,4.63L145.16,18a.15.15,0,0,1-.09-.06s0,0,0-.06l1.3-4.14Z" style="fill:none;stroke:#423c25;stroke-miterlimit:10;stroke-width:0.599213838577271px"/><path d="M141.45,4.77s0,0,.05,0l6.4-2.82L145,7.45a.23.23,0,0,1-.2.11.19.19,0,0,1-.14,0l-3.17-2.6A.11.11,0,0,1,141.45,4.77Z" style="fill:none;stroke:#423c25;stroke-miterlimit:10;stroke-width:0.599213838577271px"/><path d="M135.29,2.89a.19.19,0,0,0,0-.15l-3.32-6L131.23,4a.17.17,0,0,0,0,.07.15.15,0,0,0,.19.09L135.16,3A.21.21,0,0,0,135.29,2.89Z" style="fill:none;stroke:#423c25;stroke-miterlimit:10;stroke-width:0.599213838577271px"/><path d="M125.7,12.64a.17.17,0,0,1-.12,0l-6.49-4,7.68.16h.07a.14.14,0,0,1,.07.18l-1.12,3.59A.13.13,0,0,1,125.7,12.64Z" style="fill:none;stroke:#423c25;stroke-miterlimit:10;stroke-width:0.599213838577271px"/><path d="M137.29,11.72A2.31,2.31,0,1,1,134,12,2.29,2.29,0,0,1,137.29,11.72Z" style="fill:none;stroke:#423c25;stroke-miterlimit:10;stroke-width:0.599213838577271px"/><path d="M158.59,20.38l-13.37-.64A2.75,2.75,0,0,0,145,18l0,0a.15.15,0,0,0,.09.06l7.38.36-6.12-4.63h0v0a2.7,2.7,0,0,0,1.5-1Z" style="fill:#fff"/><path d="M153.14-3.26,146.43,8.31a2.87,2.87,0,0,0-1.63-.63V7.56a.23.23,0,0,0,.2-.11l2.91-5.54-6.4,2.82s0,0-.05,0l-.1,0a2.57,2.57,0,0,0-.14-1.8Z" style="fill:#fff"/><path d="M152.54,18.38,145.16,18a.15.15,0,0,1-.09-.06s0,0,0-.06l1.3-4.14,0,0h0Z" style="fill:#423c25"/><path d="M147.9,1.91,145,7.45a.23.23,0,0,1-.2.11.19.19,0,0,1-.14,0l-3.17-2.6a.11.11,0,0,1,0-.14s0,0,.05,0Z" style="fill:#423c25"/><path d="M146.4,13.72v0l0,0-1.3,4.14s0,0,0,.06l0,0a1.6,1.6,0,0,0-.21-.32c-.87-1-2.6-.75-3.6-.17-.11.07-2,1.21-1.69,3a2.31,2.31,0,0,0,.92,1.51l-.05.08a.11.11,0,0,0-.12,0l-4,1.08a.16.16,0,0,0-.12.16l-.13,0c.28-1.27-.92-2.49-2-3-.12-.06-2.16-1-3.44.36a2.29,2.29,0,0,0-.39.54l-.07,0a.08.08,0,0,0,0-.11l-3.09-2.15a.11.11,0,0,0-.08,0v-.08l.29,0c1.32-.29,1.89-1.94,1.86-3.09,0-.13-.1-2.37-1.86-2.91a2.82,2.82,0,0,0-1.55,0l0-.09a.13.13,0,0,0,.09-.1L126.91,9a.14.14,0,0,0-.07-.18l.06-.09c1,.77,2.52.39,3.43-.22.1-.07,1.95-1.33,1.48-3.11a2.49,2.49,0,0,0-.67-1.17l.1-.1a.15.15,0,0,0,.19.09L135.16,3a.21.21,0,0,0,.13-.11l.09,0-.07.19c-.41,1.28.74,2.6,1.76,3.14.12.06,2.11,1.09,3.45-.16a2.86,2.86,0,0,0,.83-1.37l.1,0a.11.11,0,0,0,0,.14l3.17,2.6a.19.19,0,0,0,.14,0v.12a1.92,1.92,0,0,0-.41.05c-1.3.3-1.85,2-1.8,3.12,0,.13.14,2.36,1.9,2.88A3.54,3.54,0,0,0,146.4,13.72ZM137.59,15a2.31,2.31,0,1,0-3.26.3A2.29,2.29,0,0,0,137.59,15Z" style="fill:#423c25"/><path d="M141.73,22.75V36.18l-7.18-11.29A2.64,2.64,0,0,0,136,23.35v-.08l.13,0a.19.19,0,0,0,0,.1l4,6.31.23-7.53a.11.11,0,0,0,0-.08l.05-.08a2.77,2.77,0,0,0,1.29.49Z" style="fill:#fff"/><path d="M140.42,22.17l-.23,7.53-4-6.31a.19.19,0,0,1,0-.1.16.16,0,0,1,.12-.16l4-1.08a.11.11,0,0,1,.12,0A.11.11,0,0,1,140.42,22.17Z" style="fill:#423c25"/><path d="M137.29,11.72A2.31,2.31,0,1,1,134,12,2.29,2.29,0,0,1,137.29,11.72Z" style="fill:#fff"/><path d="M130.32-10l6.54,11.68a2.6,2.6,0,0,0-1.48,1.26l-.09,0a.19.19,0,0,0,0-.15l-3.32-6L131.23,4a.17.17,0,0,0,0,.07l-.1.1a2.77,2.77,0,0,0-1.76-.72Z" style="fill:#fff"/><path d="M135.27,2.74a.19.19,0,0,1,0,.15.21.21,0,0,1-.13.11l-3.73,1.17a.15.15,0,0,1-.19-.09.17.17,0,0,1,0-.07L132-3.23Z" style="fill:#423c25"/><path d="M130.41,23.53l-12,6.09,6.88-11.46a2.79,2.79,0,0,0,1.74.65v.08a.16.16,0,0,0-.14.08l-3.64,6.1,6.94-3.86,0,0,.07,0a1.51,1.51,0,0,0-.18.44A2.68,2.68,0,0,0,130.41,23.53Z" style="fill:#fff"/><path d="M130.15,21.07a.08.08,0,0,1,0,.11l0,0-6.94,3.86,3.64-6.1a.16.16,0,0,1,.14-.08.11.11,0,0,1,.08,0Z" style="fill:#423c25"/><path d="M126.84,8.77a.14.14,0,0,1,.07.18l-1.12,3.59a.13.13,0,0,1-.09.1.17.17,0,0,1-.12,0l-6.49-4,7.68.16Z" style="fill:#423c25"/><path d="M126.9,8.68l-.06.09h-.07l-7.68-.16,6.49,4a.17.17,0,0,0,.12,0l0,.09a2.53,2.53,0,0,0-1.49,1l-11.44-7,13.38-.23a2.58,2.58,0,0,0,.55,2Z" style="fill:#fff"/><path d="M144.8,7.68a2.87,2.87,0,0,1,1.63.63l6.71-11.57-11.93,6.2a2.57,2.57,0,0,1,.14,1.8,2.86,2.86,0,0,1-.83,1.37c-1.34,1.25-3.33.22-3.45.16-1-.54-2.17-1.86-1.76-3.14l.07-.19a2.6,2.6,0,0,1,1.48-1.26L130.32-10l-.94,13.46a2.77,2.77,0,0,1,1.76.72,2.49,2.49,0,0,1,.67,1.17c.47,1.78-1.38,3-1.48,3.11-.91.61-2.47,1-3.43.22l-.18-.15a2.58,2.58,0,0,1-.55-2l-13.38.23,11.44,7a2.53,2.53,0,0,1,1.49-1,2.82,2.82,0,0,1,1.55,0c1.76.54,1.86,2.78,1.86,2.91,0,1.15-.54,2.8-1.86,3.09l-.29,0a2.79,2.79,0,0,1-1.74-.65l-6.88,11.46,12-6.09a2.68,2.68,0,0,1-.35-1.88,1.51,1.51,0,0,1,.18-.44,2.29,2.29,0,0,1,.39-.54c1.28-1.33,3.32-.42,3.44-.36,1,.47,2.23,1.69,2,3v.08a2.64,2.64,0,0,1-1.46,1.54l7.18,11.29V22.5a2.77,2.77,0,0,1-1.29-.49,2.31,2.31,0,0,1-.92-1.51c-.35-1.8,1.58-2.94,1.69-3,1-.58,2.73-.85,3.6.17A1.6,1.6,0,0,1,145,18a2.75,2.75,0,0,1,.2,1.76l13.37.64L147.9,12.72a2.7,2.7,0,0,1-1.5,1,3.54,3.54,0,0,1-1.91,0c-1.76-.52-1.9-2.75-1.9-2.88-.05-1.16.5-2.82,1.8-3.12A1.92,1.92,0,0,1,144.8,7.68Z" style="fill:none;stroke:#423c25;stroke-miterlimit:10;stroke-width:0.599213838577271px"/><path d="M130.17,21.18l0,0-6.94,3.86,3.64-6.1a.16.16,0,0,1,.14-.08.11.11,0,0,1,.08,0l3.09,2.15A.08.08,0,0,1,130.17,21.18Z" style="fill:none;stroke:#423c25;stroke-miterlimit:10;stroke-width:0.599213838577271px"/><path d="M136.15,23.29a.19.19,0,0,0,0,.1l4,6.31.23-7.53a.11.11,0,0,0,0-.08.11.11,0,0,0-.12,0l-4,1.08A.16.16,0,0,0,136.15,23.29Z" style="fill:none;stroke:#423c25;stroke-miterlimit:10;stroke-width:0.599213838577271px"/><path d="M146.4,13.74h0l6.12,4.63L145.16,18a.15.15,0,0,1-.09-.06s0,0,0-.06l1.3-4.14Z" style="fill:none;stroke:#423c25;stroke-miterlimit:10;stroke-width:0.599213838577271px"/><path d="M141.45,4.77s0,0,.05,0l6.4-2.82L145,7.45a.23.23,0,0,1-.2.11.19.19,0,0,1-.14,0l-3.17-2.6A.11.11,0,0,1,141.45,4.77Z" style="fill:none;stroke:#423c25;stroke-miterlimit:10;stroke-width:0.599213838577271px"/><path d="M135.29,2.89a.19.19,0,0,0,0-.15l-3.32-6L131.23,4a.17.17,0,0,0,0,.07.15.15,0,0,0,.19.09L135.16,3A.21.21,0,0,0,135.29,2.89Z" style="fill:none;stroke:#423c25;stroke-miterlimit:10;stroke-width:0.599213838577271px"/><path d="M125.7,12.64a.17.17,0,0,1-.12,0l-6.49-4,7.68.16h.07a.14.14,0,0,1,.07.18l-1.12,3.59A.13.13,0,0,1,125.7,12.64Z" style="fill:none;stroke:#423c25;stroke-miterlimit:10;stroke-width:0.599213838577271px"/><path d="M137.29,11.72A2.31,2.31,0,1,1,134,12,2.29,2.29,0,0,1,137.29,11.72Z" style="fill:none;stroke:#423c25;stroke-miterlimit:10;stroke-width:0.599213838577271px"/><path d="M158.59,20.38l-13.37-.64A2.75,2.75,0,0,0,145,18l0,0a.15.15,0,0,0,.09.06l7.38.36-6.12-4.63h0v0a2.7,2.7,0,0,0,1.5-1Z" style="fill:#fff"/><path d="M153.14-3.26,146.43,8.31a2.87,2.87,0,0,0-1.63-.63V7.56a.23.23,0,0,0,.2-.11l2.91-5.54-6.4,2.82s0,0-.05,0l-.1,0a2.57,2.57,0,0,0-.14-1.8Z" style="fill:#fff"/><path d="M152.54,18.38,145.16,18a.15.15,0,0,1-.09-.06s0,0,0-.06l1.3-4.14,0,0h0Z" style="fill:#423c25"/><path d="M147.9,1.91,145,7.45a.23.23,0,0,1-.2.11.19.19,0,0,1-.14,0l-3.17-2.6a.11.11,0,0,1,0-.14s0,0,.05,0Z" style="fill:#423c25"/><path d="M146.4,13.72v0l0,0-1.3,4.14s0,0,0,.06l0,0a1.6,1.6,0,0,0-.21-.32c-.87-1-2.6-.75-3.6-.17-.11.07-2,1.21-1.69,3a2.31,2.31,0,0,0,.92,1.51l-.05.08a.11.11,0,0,0-.12,0l-4,1.08a.16.16,0,0,0-.12.16l-.13,0c.28-1.27-.92-2.49-2-3-.12-.06-2.16-1-3.44.36a2.29,2.29,0,0,0-.39.54l-.07,0a.08.08,0,0,0,0-.11l-3.09-2.15a.11.11,0,0,0-.08,0v-.08l.29,0c1.32-.29,1.89-1.94,1.86-3.09,0-.13-.1-2.37-1.86-2.91a2.82,2.82,0,0,0-1.55,0l0-.09a.13.13,0,0,0,.09-.1L126.91,9a.14.14,0,0,0-.07-.18l.06-.09c1,.77,2.52.39,3.43-.22.1-.07,1.95-1.33,1.48-3.11a2.49,2.49,0,0,0-.67-1.17l.1-.1a.15.15,0,0,0,.19.09L135.16,3a.21.21,0,0,0,.13-.11l.09,0-.07.19c-.41,1.28.74,2.6,1.76,3.14.12.06,2.11,1.09,3.45-.16a2.86,2.86,0,0,0,.83-1.37l.1,0a.11.11,0,0,0,0,.14l3.17,2.6a.19.19,0,0,0,.14,0v.12a1.92,1.92,0,0,0-.41.05c-1.3.3-1.85,2-1.8,3.12,0,.13.14,2.36,1.9,2.88A3.54,3.54,0,0,0,146.4,13.72ZM137.59,15a2.31,2.31,0,1,0-3.26.3A2.29,2.29,0,0,0,137.59,15Z" style="fill:#423c25"/><path d="M141.73,22.75V36.18l-7.18-11.29A2.64,2.64,0,0,0,136,23.35v-.08l.13,0a.19.19,0,0,0,0,.1l4,6.31.23-7.53a.11.11,0,0,0,0-.08l.05-.08a2.77,2.77,0,0,0,1.29.49Z" style="fill:#fff"/><path d="M140.42,22.17l-.23,7.53-4-6.31a.19.19,0,0,1,0-.1.16.16,0,0,1,.12-.16l4-1.08a.11.11,0,0,1,.12,0A.11.11,0,0,1,140.42,22.17Z" style="fill:#423c25"/><path d="M137.29,11.72A2.31,2.31,0,1,1,134,12,2.29,2.29,0,0,1,137.29,11.72Z" style="fill:#fff"/><path d="M130.32-10l6.54,11.68a2.6,2.6,0,0,0-1.48,1.26l-.09,0a.19.19,0,0,0,0-.15l-3.32-6L131.23,4a.17.17,0,0,0,0,.07l-.1.1a2.77,2.77,0,0,0-1.76-.72Z" style="fill:#fff"/><path d="M135.27,2.74a.19.19,0,0,1,0,.15.21.21,0,0,1-.13.11l-3.73,1.17a.15.15,0,0,1-.19-.09.17.17,0,0,1,0-.07L132-3.23Z" style="fill:#423c25"/><path d="M130.41,23.53l-12,6.09,6.88-11.46a2.79,2.79,0,0,0,1.74.65v.08a.16.16,0,0,0-.14.08l-3.64,6.1,6.94-3.86,0,0,.07,0a1.51,1.51,0,0,0-.18.44A2.68,2.68,0,0,0,130.41,23.53Z" style="fill:#fff"/><path d="M130.15,21.07a.08.08,0,0,1,0,.11l0,0-6.94,3.86,3.64-6.1a.16.16,0,0,1,.14-.08.11.11,0,0,1,.08,0Z" style="fill:#423c25"/><path d="M126.84,8.77a.14.14,0,0,1,.07.18l-1.12,3.59a.13.13,0,0,1-.09.1.17.17,0,0,1-.12,0l-6.49-4,7.68.16Z" style="fill:#423c25"/><path d="M126.9,8.68l-.06.09h-.07l-7.68-.16,6.49,4a.17.17,0,0,0,.12,0l0,.09a2.53,2.53,0,0,0-1.49,1l-11.44-7,13.38-.23a2.58,2.58,0,0,0,.55,2Z" style="fill:#fff"/><path d="M144.8,7.68a2.87,2.87,0,0,1,1.63.63l6.71-11.57-11.93,6.2a2.57,2.57,0,0,1,.14,1.8,2.86,2.86,0,0,1-.83,1.37c-1.34,1.25-3.33.22-3.45.16-1-.54-2.17-1.86-1.76-3.14l.07-.19a2.6,2.6,0,0,1,1.48-1.26L130.32-10l-.94,13.46a2.77,2.77,0,0,1,1.76.72,2.49,2.49,0,0,1,.67,1.17c.47,1.78-1.38,3-1.48,3.11-.91.61-2.47,1-3.43.22l-.18-.15a2.58,2.58,0,0,1-.55-2l-13.38.23,11.44,7a2.53,2.53,0,0,1,1.49-1,2.82,2.82,0,0,1,1.55,0c1.76.54,1.86,2.78,1.86,2.91,0,1.15-.54,2.8-1.86,3.09l-.29,0a2.79,2.79,0,0,1-1.74-.65l-6.88,11.46,12-6.09a2.68,2.68,0,0,1-.35-1.88,1.51,1.51,0,0,1,.18-.44,2.29,2.29,0,0,1,.39-.54c1.28-1.33,3.32-.42,3.44-.36,1,.47,2.23,1.69,2,3v.08a2.64,2.64,0,0,1-1.46,1.54l7.18,11.29V22.5a2.77,2.77,0,0,1-1.29-.49,2.31,2.31,0,0,1-.92-1.51c-.35-1.8,1.58-2.94,1.69-3,1-.58,2.73-.85,3.6.17A1.6,1.6,0,0,1,145,18a2.75,2.75,0,0,1,.2,1.76l13.37.64L147.9,12.72a2.7,2.7,0,0,1-1.5,1,3.54,3.54,0,0,1-1.91,0c-1.76-.52-1.9-2.75-1.9-2.88-.05-1.16.5-2.82,1.8-3.12A1.92,1.92,0,0,1,144.8,7.68Z" style="fill:none;stroke:#423c25;stroke-miterlimit:10;stroke-width:0.599213838577271px"/><path d="M130.17,21.18l0,0-6.94,3.86,3.64-6.1a.16.16,0,0,1,.14-.08.11.11,0,0,1,.08,0l3.09,2.15A.08.08,0,0,1,130.17,21.18Z" style="fill:none;stroke:#423c25;stroke-miterlimit:10;stroke-width:0.599213838577271px"/><path d="M136.15,23.29a.19.19,0,0,0,0,.1l4,6.31.23-7.53a.11.11,0,0,0,0-.08.11.11,0,0,0-.12,0l-4,1.08A.16.16,0,0,0,136.15,23.29Z" style="fill:none;stroke:#423c25;stroke-miterlimit:10;stroke-width:0.599213838577271px"/><path d="M146.4,13.74h0l6.12,4.63L145.16,18a.15.15,0,0,1-.09-.06s0,0,0-.06l1.3-4.14Z" style="fill:none;stroke:#423c25;stroke-miterlimit:10;stroke-width:0.599213838577271px"/><path d="M141.45,4.77s0,0,.05,0l6.4-2.82L145,7.45a.23.23,0,0,1-.2.11.19.19,0,0,1-.14,0l-3.17-2.6A.11.11,0,0,1,141.45,4.77Z" style="fill:none;stroke:#423c25;stroke-miterlimit:10;stroke-width:0.599213838577271px"/><path d="M135.29,2.89a.19.19,0,0,0,0-.15l-3.32-6L131.23,4a.17.17,0,0,0,0,.07.15.15,0,0,0,.19.09L135.16,3A.21.21,0,0,0,135.29,2.89Z" style="fill:none;stroke:#423c25;stroke-miterlimit:10;stroke-width:0.599213838577271px"/><path d="M125.7,12.64a.17.17,0,0,1-.12,0l-6.49-4,7.68.16h.07a.14.14,0,0,1,.07.18l-1.12,3.59A.13.13,0,0,1,125.7,12.64Z" style="fill:none;stroke:#423c25;stroke-miterlimit:10;stroke-width:0.599213838577271px"/><path d="M137.29,11.72A2.31,2.31,0,1,1,134,12,2.29,2.29,0,0,1,137.29,11.72Z" style="fill:none;stroke:#423c25;stroke-miterlimit:10;stroke-width:0.599213838577271px"/></g><g id="b566f6b0-04af-432d-9484-69ac703f3e3b" data-name="Textes Cartes VA vecto"><g id="f8cddf1d-cd66-4509-a8cc-8ff8035146a0" data-name="Calque 20 - copie 3"><path d="M18.92,23.4h-.09l-.16.34c0,.11-.1.3-.19.56s-.18.54-.28.82l-.29.83c-.09.26-.15.45-.19.55a1.78,1.78,0,0,1-.09.31.75.75,0,0,1-.11.25.13.13,0,0,1-.14.09l-.09,0-.08,0s-.06,0-.06,0l-.16.66H16.9c-.09,0-.13,0-.13,0A.55.55,0,0,1,16.4,27s-.07-.06-.09-.06h0a.26.26,0,0,0-.19.09l-.15.2a2.39,2.39,0,0,0-.13.21.48.48,0,0,1-.1.15h0l-.05,0h-.42l-.21,0-.21,0h-.11a.28.28,0,0,1-.34-.16,1.5,1.5,0,0,1-.09-.45,3,3,0,0,1,0-.52,2.38,2.38,0,0,1,.08-.35l0-.13a1.07,1.07,0,0,1,.06-.17.31.31,0,0,0,0-.13v-.08l1.67-4.73a1.4,1.4,0,0,0,.07-.19,2,2,0,0,1,.08-.2,1.31,1.31,0,0,0,.11-.2,1.84,1.84,0,0,0,.15-.35c.05-.13.1-.24.14-.35l.08-.21a1.39,1.39,0,0,1,.1-.23c.05-.11.11-.23.19-.37s.14-.25.21-.36a1.92,1.92,0,0,1,.16-.23l.14-.18.13-.16,0-.07,0-.09h-.2c-.11,0-.21,0-.32,0a1.71,1.71,0,0,1-.29-.08c-.08,0-.12-.09-.11-.15l.13-.15.12-.17.29-.08.19-.06q.08,0,.06-.06l-.43-.21.09-.27s0-.05,0-.11a.2.2,0,0,0,0-.09.33.33,0,0,1,.17-.07l.19,0a.76.76,0,0,0,.16,0,.13.13,0,0,0,.09-.1l-.34-.49c-.09-.1,0-.21.1-.31a2.52,2.52,0,0,1,.65-.29,9,9,0,0,1,1-.24l1.08-.19,1-.12.59-.05a1.91,1.91,0,0,1,.6.06,2.67,2.67,0,0,0,.55.07.32.32,0,0,0,.19-.06.32.32,0,0,1,.17,0h.11a3.6,3.6,0,0,1,.82.32,4.92,4.92,0,0,1,.68.47,2,2,0,0,1,.49.45,1.05,1.05,0,0,1,.05.62l-.43.38.29.16,0,.34-.05.18a2.92,2.92,0,0,0-.05.88,2.24,2.24,0,0,1-.1.91.88.88,0,0,1-.52.67l-2,2.33-.07.3c.1.75.18,1.52.25,2.31a8.27,8.27,0,0,1-.14,2.37l-.36,0-.22,0L22,27h-.24a.29.29,0,0,0,0,.09v.07a.27.27,0,0,1,0,.08l-.13.17a2.68,2.68,0,0,1-.37.41.73.73,0,0,1-.38.22c-.08,0-.13,0-.14-.09a.63.63,0,0,1,0-.19.59.59,0,0,0-.05-.19c0-.06-.07-.09-.16-.09a.21.21,0,0,0-.13.07l-.17.15-.17.16a.58.58,0,0,1-.12.1.19.19,0,0,1-.12.09c-.15,0-.26-.07-.35-.26A2.56,2.56,0,0,1,19.2,27a9.07,9.07,0,0,1-.11-1c0-.36,0-.71,0-1.05a9,9,0,0,1,0-.91c0-.27,0-.46,0-.57S19,23.4,18.92,23.4Zm.7-2.32-.05.16c0,.05,0,.09.11.11a1.86,1.86,0,0,0,.56-.15.73.73,0,0,0,.4-.37L21.83,19l.05-.18a.56.56,0,0,0,0-.36,1.51,1.51,0,0,0-.14-.35,2.21,2.21,0,0,1-.16-.35.69.69,0,0,1,0-.38c0-.09-.06-.14-.18-.14h-.05a1.54,1.54,0,0,1-.31.06l-.38.06-.33.05a.5.5,0,0,0-.18.05l-.17,0s-.06.06-.09.13l0,.05c.28,0,.45.12.53.26a.81.81,0,0,1,0,.57A6.06,6.06,0,0,1,20,19.78,7.87,7.87,0,0,0,19.62,21.08Z" style="fill:#423c25"/><path d="M24.41,25.74a5.24,5.24,0,0,1,.4-1,5.69,5.69,0,0,0,.41-1,17.86,17.86,0,0,0,.44-1.95c.11-.62.25-1.26.43-1.92a8.38,8.38,0,0,1,.45-1.14A8.73,8.73,0,0,0,27,17.64l0-.07,0-.23,0-.06q0-.11-.18-.15a.49.49,0,0,0-.32,0l-.36-.4v-.08l.38-.44.26-.29a.58.58,0,0,0,.11-.17s0,0,.08,0l.18,0,.28,0a.75.75,0,0,0-.18-.14.59.59,0,0,0-.36-.13.09.09,0,0,1,0-.07.53.53,0,0,1,.32-.34,2.73,2.73,0,0,1,.61-.2,5.45,5.45,0,0,1,.72-.09H29.7c.45,0,.91,0,1.37,0s.92,0,1.37,0a1.66,1.66,0,0,0,.42,0,1.66,1.66,0,0,1,.42,0l0,.16c0,.09-.06.15-.08.16a.83.83,0,0,1-.14.19,1.06,1.06,0,0,0-.14.2l-.06.16-.44.27.3.27,0,.16a.89.89,0,0,1-.36.42,4.68,4.68,0,0,1-.59.31,4.2,4.2,0,0,1-.66.21,2.79,2.79,0,0,1-.53.1l-.1.07a.83.83,0,0,0-.08.18l-.09.34c0,.14-.07.26-.11.39s-.08.23-.1.31l0,.09a.45.45,0,0,0,0,.13.13.13,0,0,1-.08.14l-.39.2.34,0c.06,0,.07,0,0,.1a.73.73,0,0,0-.09.18l0,.09c0,.06,0,.09.05.09h.09a3.61,3.61,0,0,0,.79-.09,3.75,3.75,0,0,1,.79-.09c.17,0,.27.05.32.15a.49.49,0,0,1,0,.34.52.52,0,0,1-.23.25,3.45,3.45,0,0,1-.43.23l-.42.21a.44.44,0,0,0-.21.15s0,0,.13.07l.29.09a1,1,0,0,1,.27.15.23.23,0,0,1,0,.28.94.94,0,0,1-.38.49,2.45,2.45,0,0,1-.54.18l-.6.08a1.87,1.87,0,0,0-.58.18,1.41,1.41,0,0,0-.13.26c-.07.15-.13.32-.2.5s-.13.35-.19.51a2.37,2.37,0,0,0-.1.31v0a1.78,1.78,0,0,1,0,.28c0,.11,0,.22,0,.33s0,.24-.07.39h1.54q.24,0,.18.18a1.18,1.18,0,0,0-.05.31c0,.05,0,.08.09.11l.18.11a.39.39,0,0,1,.14.17.41.41,0,0,1,0,.31.43.43,0,0,1-.26.25,3.9,3.9,0,0,1-.45.16l-.44.15a.38.38,0,0,0-.25.23c.1.14.14.22.13.23l0,.07q-.08.24-.24.27a3.78,3.78,0,0,1-.46.05l-.82.1a4.51,4.51,0,0,1-.7.06,1.51,1.51,0,0,1-.4-.05l-.62-.16-.31.16a.49.49,0,0,1-.3,0,1.35,1.35,0,0,0-.33,0h-.21a1,1,0,0,1-.49-.8A3.29,3.29,0,0,1,24.41,25.74Z" style="fill:#423c25"/><path d="M30.68,26.82v0a.48.48,0,0,1,.27-.12l.41-.08.22,0a1.31,1.31,0,0,0-.08-.21l-.16-.3-.1-.15,1.27,0s0-.09-.11-.13a1,1,0,0,0-.25-.08l-.31-.07a.54.54,0,0,0-.19,0q-.15,0-.3-.27s0,0,.07-.12A1.43,1.43,0,0,1,31.5,25a.78.78,0,0,1,.11-.2.18.18,0,0,1,.15-.09,1,1,0,0,1,.53.18,1.23,1.23,0,0,0,.65.16,1.25,1.25,0,0,0,.54-.12,1.45,1.45,0,0,0,.45-.33,2.36,2.36,0,0,0,.33-.45,2,2,0,0,0,.19-.46.21.21,0,0,1,.17-.14c.09,0,.13-.07.13-.14l-.15-.16L34.35,23l-.24-.29A.41.41,0,0,1,34,22.5a1.35,1.35,0,0,0-.06-.27c0-.14-.09-.3-.15-.46s-.1-.31-.14-.45a2.17,2.17,0,0,1-.06-.25c-.1-.27-.19-.48-.26-.65a2,2,0,0,1-.17-.51,1.63,1.63,0,0,1,0-.59,4.64,4.64,0,0,1,.2-.87A7.31,7.31,0,0,1,34,16.8a4.11,4.11,0,0,1,1.06-1.21,4.77,4.77,0,0,1,1.55-.76,8,8,0,0,1,2.15-.25h.07s0,0-.07.09l-.18.19-.2.19c-.06,0-.08.08-.07.08l.16-.06.31-.13.33-.12.18-.07a.86.86,0,0,1,.34.06c.1,0,.12.13.08.29a.29.29,0,0,1-.13.17l-.2.07-.2.06a.31.31,0,0,0-.17.13s0,.07-.13.14l-.26.22-.24.22c-.07.06-.1.1-.09.1l1.34-.56s0,0,0,.15,0,.22,0,.35,0,.26,0,.39,0,.2,0,.24a.57.57,0,0,1-.36.37,3.34,3.34,0,0,1-.58.2.65.65,0,0,1-.25.08l-.37.1-.38.09-.23.06a.53.53,0,0,0-.29.3.72.72,0,0,0,0,.31q0,.21.06.45c0,.16.06.31.08.45s.06.24.07.3l-.41.57.24-.08a.43.43,0,0,1,.19,0c.14,0,.25.12.32.35s.13.39.22.69.18.61.25.95a7.66,7.66,0,0,1,.16,1,2.31,2.31,0,0,1,0,.81v0a4.11,4.11,0,0,0-.59.92,4,4,0,0,1-.59.89l-.25.29-.36.41-.38.41a2,2,0,0,1-.29.26,1.44,1.44,0,0,1-.67.31c-.32.08-.66.14-1,.2a10.4,10.4,0,0,1-1.07.1l-.79,0a2.15,2.15,0,0,1-.44-.06,3,3,0,0,1-.53-.17,1.94,1.94,0,0,1-.43-.24A.27.27,0,0,1,30.68,26.82Z" style="fill:#423c25"/><path d="M40.31,17.94c.06-.15.11-.28.16-.39l0-.14.77-1.9a.84.84,0,0,0,.23-.23c.05-.07.1-.15.16-.22a1.79,1.79,0,0,1,.24-.22,1.88,1.88,0,0,1,.46-.19c0,.15-.06.27-.08.36a1.11,1.11,0,0,0,0,.23q0,.09.06,0l.52-.57.09.4.18-.49a1.78,1.78,0,0,1,.23.19.62.62,0,0,1,.11.28v.28l.54-.57h.11a1.35,1.35,0,0,0,.14.22.85.85,0,0,1,.13.25c-.06.37-.13.7-.2,1s-.15.6-.25.93c-.23.79-.48,1.56-.76,2.3s-.58,1.51-.89,2.29a.38.38,0,0,1,0,.26,1.92,1.92,0,0,1-.09.32c0,.11-.09.21-.14.32A2.52,2.52,0,0,0,42,23l-.06.14.18,1.4a1.21,1.21,0,0,0,.08.28.21.21,0,0,0,.21.15l0,0v-.05l-.09-.09s0,0,0,0,.07-.1.19-.14a3,3,0,0,0,.37-.14,2.82,2.82,0,0,0,.41-.23.61.61,0,0,0,.26-.38l0-.06a.7.7,0,0,0,0-.16l0-.05a.34.34,0,0,1,.08-.12l.18-.22L44,23a.41.41,0,0,0,.07-.12,2.19,2.19,0,0,0,.08-.54,1.35,1.35,0,0,1,.19-.61c0-.2.1-.39.16-.56a3.22,3.22,0,0,1,.23-.5l.45-2.18.27.14,0-.45a.9.9,0,0,1,.08-.19l.18-.42a3.48,3.48,0,0,0,.21-.48c.07-.17.12-.31.15-.41a1.13,1.13,0,0,0,.11-.34l.29-1a1.74,1.74,0,0,0,.09-.39,1,1,0,0,1,.33-.18l.37-.13a.13.13,0,0,1,.11.07.64.64,0,0,1,.08.14,1.11,1.11,0,0,1,.07.16.16.16,0,0,0,.06.1,1.39,1.39,0,0,0,.47,0,5.19,5.19,0,0,1,.7-.07,2,2,0,0,1,.67.09.54.54,0,0,1,.35.46s0,.05,0,.09a.47.47,0,0,0-.06.09c-.06.13-.15.35-.28.66s-.27.64-.41,1-.26.69-.38,1l-.25.65-.23,1.19-.4-.16.27.8c-.18.42-.36.84-.55,1.25s-.38.81-.58,1.19a2.83,2.83,0,0,0-.08.4c0,.14-.05.28-.08.41a4,4,0,0,1-.14.39.92.92,0,0,1-.17.24l-.24.21-.33.27c-.38.62-.7,1.1-1,1.43s-.41.47-.47.4h-.18l-.1.37a.2.2,0,0,1-.15.08l-.16,0s-.06,0-.07-.11,0-.15,0-.24a2,2,0,0,0,0-.25c0-.08,0-.12-.07-.13a1,1,0,0,1,0,.12l-.1.24-.09.25a.9.9,0,0,0,0,.12.11.11,0,0,1-.12.08.88.88,0,0,1-.23,0l-.27,0-.23,0c-.1,0-.16,0-.18.11s-.2.28-.48.28a3.53,3.53,0,0,1-1.76-.46l0,.19,0-.21a1.71,1.71,0,0,1-.46-.38.54.54,0,0,1-.08-.25,1.7,1.7,0,0,1,0-.25l-.22-.37a3.31,3.31,0,0,1-.18-.29,1.55,1.55,0,0,1-.14-.32,4.32,4.32,0,0,1-.1-.44,2.33,2.33,0,0,1-.06-.25c0-.13,0-.27-.07-.41s0-.28,0-.4a1.69,1.69,0,0,1,0-.28,3,3,0,0,0,.45-.22c.06-.05.06-.08,0-.09l-.2-.06a.28.28,0,0,1-.2-.11.15.15,0,0,1,0-.16.4.4,0,0,0,.06-.11c.07-.28.13-.49.18-.65s.08-.31.11-.45l0-.21a4,4,0,0,0,.35-.93c.06-.3.15-.61.24-.92l.43-1.7A1.49,1.49,0,0,0,40.31,17.94Z" style="fill:#423c25"/><path d="M52.05,23.4H52l-.16.34-.19.56c-.09.26-.18.54-.28.82s-.2.57-.29.83-.15.45-.19.55a1.78,1.78,0,0,1-.09.31.75.75,0,0,1-.11.25.13.13,0,0,1-.14.09l-.09,0-.08,0s-.06,0-.06,0l-.16.66H50c-.09,0-.13,0-.13,0a.59.59,0,0,1-.51-.35.63.63,0,0,1,.13-.6.12.12,0,0,0-.09-.06h0a.25.25,0,0,0-.19.09,1.49,1.49,0,0,0-.15.2,2.39,2.39,0,0,0-.13.21.37.37,0,0,1-.11.15h0l-.06,0h-.41l-.21,0-.21,0h-.12a.27.27,0,0,1-.33-.16,1.5,1.5,0,0,1-.09-.45,3,3,0,0,1,0-.52,2.38,2.38,0,0,1,.08-.35l0-.13a1.07,1.07,0,0,1,.06-.17.31.31,0,0,0,0-.13v-.08l1.67-4.73a1.4,1.4,0,0,0,.07-.19c0-.1.06-.17.07-.2a.71.71,0,0,0,.12-.2c.05-.11.1-.22.15-.35l.14-.35.08-.21a1.39,1.39,0,0,1,.1-.23l.18-.37.22-.36a1.92,1.92,0,0,1,.16-.23l.14-.18.13-.16,0-.07,0-.09h-.2a3.16,3.16,0,0,1-.32,0,1.71,1.71,0,0,1-.29-.08c-.08,0-.12-.09-.11-.15l.13-.15.12-.17.29-.08L50.7,17s.07,0,.06-.06l-.43-.21.09-.27s0-.05,0-.11a.2.2,0,0,0,0-.09.33.33,0,0,1,.17-.07l.19,0a.76.76,0,0,0,.16,0,.13.13,0,0,0,.09-.1l-.34-.49c-.09-.1-.05-.21.1-.31a2.37,2.37,0,0,1,.65-.29,9,9,0,0,1,1-.24l1.08-.19,1-.12.59-.05a1.91,1.91,0,0,1,.6.06,2.67,2.67,0,0,0,.55.07.35.35,0,0,0,.19-.06.32.32,0,0,1,.17,0h.1a3.69,3.69,0,0,1,.83.32,5.61,5.61,0,0,1,.68.47,1.76,1.76,0,0,1,.48.45,1,1,0,0,1,.06.62l-.43.38.28.16,0,.34-.05.18a2.92,2.92,0,0,0,0,.88,2.24,2.24,0,0,1-.1.91.88.88,0,0,1-.52.67l-2,2.33-.07.3c.09.75.18,1.52.25,2.31a8.27,8.27,0,0,1-.14,2.37l-.36,0-.22,0L55.16,27h-.24a.29.29,0,0,0,0,.09v.07a.27.27,0,0,1,0,.08l-.13.17a2.79,2.79,0,0,1-.38.41A.68.68,0,0,1,54,28c-.09,0-.13,0-.15-.09a1.23,1.23,0,0,1,0-.19.59.59,0,0,0,0-.19.15.15,0,0,0-.16-.09.21.21,0,0,0-.13.07l-.17.15-.17.16-.12.1a.22.22,0,0,1-.13.09c-.14,0-.26-.07-.35-.26a2.59,2.59,0,0,1-.21-.72,9.07,9.07,0,0,1-.11-1q0-.54,0-1.05c0-.34,0-.64,0-.91s0-.46,0-.57S52.16,23.4,52.05,23.4Zm.7-2.32,0,.16c0,.05,0,.09.1.11a1.92,1.92,0,0,0,.57-.15.76.76,0,0,0,.4-.37L55,19l0-.18a.55.55,0,0,0,0-.36,2.13,2.13,0,0,0-.14-.35,3.78,3.78,0,0,1-.17-.35.69.69,0,0,1,0-.38c0-.09-.06-.14-.18-.14h-.05a1.7,1.7,0,0,1-.31.06l-.38.06-.34.05a.69.69,0,0,0-.18.05l-.17,0s-.05.06-.08.13l0,.05a.69.69,0,0,1,.53.26.81.81,0,0,1,0,.57,6.06,6.06,0,0,1-.42,1.31A7.87,7.87,0,0,0,52.75,21.08Z" style="fill:#423c25"/><path d="M61.77,23.4h-.09l-.16.34-.19.56-.29.82-.29.83c-.08.26-.15.45-.18.55l-.09.31a1.06,1.06,0,0,1-.11.25.13.13,0,0,1-.14.09l-.09,0-.08,0c-.05,0-.07,0-.07,0l-.16.66h-.09c-.08,0-.12,0-.12,0a.59.59,0,0,1-.51-.35.61.61,0,0,1,.13-.6s-.07-.06-.09-.06h0a.23.23,0,0,0-.18.09,1.56,1.56,0,0,0-.16.2,2.25,2.25,0,0,0-.12.21.48.48,0,0,1-.11.15h0l0,0H58l-.22,0-.2,0H57.5a.26.26,0,0,1-.33-.16,1.5,1.5,0,0,1-.09-.45,2.24,2.24,0,0,1,0-.52,1.52,1.52,0,0,1,.08-.35l0-.13a1.2,1.2,0,0,0,.06-.17.31.31,0,0,0,0-.13l0-.08L59,20.92l.07-.19c0-.1.06-.17.07-.2s.06-.09.12-.2.1-.22.15-.35l.13-.35a1.73,1.73,0,0,0,.08-.21l.1-.23.19-.37a3.13,3.13,0,0,1,.22-.36,1.19,1.19,0,0,1,.16-.23,1.45,1.45,0,0,1,.13-.18,1.76,1.76,0,0,1,.14-.16v-.07l0-.09h-.19l-.33,0-.28-.08c-.09,0-.12-.09-.11-.15l.12-.15a1,1,0,0,0,.13-.17l.29-.08.18-.06c.06,0,.08,0,.07-.06l-.43-.21.09-.27s0-.05,0-.11a.22.22,0,0,0,0-.09.36.36,0,0,1,.17-.07l.19,0a.65.65,0,0,0,.16,0,.13.13,0,0,0,.09-.1l-.34-.49c-.08-.1-.05-.21.1-.31a2.61,2.61,0,0,1,.66-.29,8.29,8.29,0,0,1,1-.24l1.09-.19,1-.12.59-.05a2,2,0,0,1,.6.06,2.58,2.58,0,0,0,.54.07.32.32,0,0,0,.19-.06.34.34,0,0,1,.17,0h.11a3.69,3.69,0,0,1,.83.32,5.61,5.61,0,0,1,.68.47,1.76,1.76,0,0,1,.48.45,1.05,1.05,0,0,1,0,.62l-.43.38.29.16,0,.34-.06.18a2.91,2.91,0,0,0,0,.88,2.43,2.43,0,0,1-.1.91.9.9,0,0,1-.52.67l-2,2.33-.08.3c.1.75.18,1.52.26,2.31a7.93,7.93,0,0,1-.15,2.37l-.36,0-.21,0L64.88,27h-.24a.15.15,0,0,0,0,.09v.07a.18.18,0,0,1,0,.08.91.91,0,0,1-.12.17,2.79,2.79,0,0,1-.38.41.69.69,0,0,1-.38.22c-.08,0-.13,0-.14-.09l0-.19a.58.58,0,0,0,0-.19.16.16,0,0,0-.16-.09.23.23,0,0,0-.14.07l-.17.15-.17.16a.41.41,0,0,1-.11.1.25.25,0,0,1-.13.09c-.14,0-.26-.07-.35-.26a2.59,2.59,0,0,1-.21-.72,7.13,7.13,0,0,1-.11-1c0-.36,0-.71,0-1.05s0-.64,0-.91,0-.46,0-.57S61.88,23.4,61.77,23.4Zm.7-2.32-.06.16c0,.05,0,.09.11.11a2,2,0,0,0,.57-.15.8.8,0,0,0,.4-.37L64.67,19l.06-.18a.73.73,0,0,0,0-.36,2.17,2.17,0,0,0-.15-.35,3.73,3.73,0,0,1-.16-.35.69.69,0,0,1,0-.38c0-.09,0-.14-.17-.14h-.06a1.42,1.42,0,0,1-.3.06l-.39.06-.33.05a.5.5,0,0,0-.18.05l-.17,0s-.06.06-.08.13l0,.05c.27,0,.45.12.52.26a.81.81,0,0,1,.05.57,7.41,7.41,0,0,1-.42,1.31A6.35,6.35,0,0,0,62.47,21.08Z" style="fill:#423c25"/><path d="M67.25,25.74a5.31,5.31,0,0,1,.41-1,5.64,5.64,0,0,0,.4-1q.28-1,.45-1.95c.11-.62.25-1.26.43-1.92a8.38,8.38,0,0,1,.45-1.14,7.36,7.36,0,0,0,.44-1.12l0-.07.06-.23v-.06c0-.07-.06-.12-.17-.15a.53.53,0,0,0-.33,0l-.36-.4v-.08l.38-.44c.1-.1.18-.2.26-.29a.5.5,0,0,0,.12-.17s0,0,.08,0l.18,0a1.3,1.3,0,0,1,.27,0,.82.82,0,0,0-.17-.14.59.59,0,0,0-.36-.13,0,0,0,0,1,0-.07.51.51,0,0,1,.31-.34,2.91,2.91,0,0,1,.61-.2,5.39,5.39,0,0,1,.73-.09h1.07c.46,0,.91,0,1.37,0s.92,0,1.37,0a1.8,1.8,0,0,0,.43,0,1.66,1.66,0,0,1,.42,0l0,.16A.65.65,0,0,1,76,15a.83.83,0,0,1-.14.19.86.86,0,0,0-.15.2l0,.16-.45.27.31.27-.06.16a.89.89,0,0,1-.36.42,4.08,4.08,0,0,1-.59.31,3.79,3.79,0,0,1-.65.21,2.94,2.94,0,0,1-.53.1l-.11.07-.07.18-.09.34c0,.14-.08.26-.12.39s-.07.23-.1.31l0,.09a.25.25,0,0,0,0,.13.13.13,0,0,1-.08.14l-.4.2.35,0s.06,0,0,.1a1.46,1.46,0,0,0-.09.18v.09c0,.06,0,.09.05.09h.09a3.75,3.75,0,0,0,.79-.09,3.68,3.68,0,0,1,.79-.09c.16,0,.27.05.31.15a.55.55,0,0,1,0,.34.52.52,0,0,1-.23.25c-.14.08-.28.16-.43.23l-.43.21c-.12.06-.19.11-.2.15s0,0,.12.07l.3.09a.93.93,0,0,1,.26.15.25.25,0,0,1,0,.28,1,1,0,0,1-.39.49,2.14,2.14,0,0,1-.54.18l-.6.08a1.9,1.9,0,0,0-.57.18,1.21,1.21,0,0,0-.14.26c-.06.15-.13.32-.19.5l-.19.51a3.23,3.23,0,0,0-.11.31v0a1.78,1.78,0,0,1,0,.28c0,.11,0,.22,0,.33s0,.24-.06.39h1.54q.23,0,.18.18a.89.89,0,0,0-.06.31c0,.05,0,.08.09.11l.18.11a.5.5,0,0,1,.15.17.53.53,0,0,1,0,.31.49.49,0,0,1-.26.25,4.72,4.72,0,0,1-.45.16l-.45.15c-.14.06-.22.13-.24.23s.14.22.12.23v.07c0,.16-.13.25-.25.27a3.58,3.58,0,0,1-.45.05l-.83.1a4.41,4.41,0,0,1-.7.06,1.39,1.39,0,0,1-.39-.05l-.63-.16-.3.16a.53.53,0,0,1-.31,0,1.33,1.33,0,0,0-.32,0h-.22a1,1,0,0,1-.49-.8A3.61,3.61,0,0,1,67.25,25.74Z" style="fill:#423c25"/><path d="M78.37,24.65l-.15.18c-.06.05-.08.08-.07.09a.48.48,0,0,0,.35.18.81.81,0,0,0,.32,0,2.49,2.49,0,0,0,.42-.26c.06-.07.1-.12.1-.15a.3.3,0,0,0,0-.1s0-.06.05-.1l.63-.83a.82.82,0,0,0,.38-.28,1,1,0,0,0,.12-.27.48.48,0,0,1,.16-.23,1.37,1.37,0,0,1,.52-.22l1.67,0c.12,0,.18,0,.19.14a1.54,1.54,0,0,0,0,.3c0,.05,0,.17,0,.35s0,.3-.07.37a2.11,2.11,0,0,1-.51.81c-.28.31-.6.62-1,.94s-.69.61-1,.89l-.8.62,0,.06a2.54,2.54,0,0,0-1-.34c-.15,0-.24,0-.27.1a.34.34,0,0,0,0,.2,1.62,1.62,0,0,1,0,.22c0,.06,0,.09-.16.09H76.79a1.47,1.47,0,0,1-.5-.11,1.89,1.89,0,0,1-.73-.51,1.52,1.52,0,0,1-.31-.64,2.6,2.6,0,0,1,0-.68c0-.23,0-.44.08-.64l-.09-.17a1.84,1.84,0,0,1-.09-.19c0-.1-.07-.2-.11-.31s-.08-.2-.11-.29a.69.69,0,0,1,0-.17,3,3,0,0,1,.06-.84,7.72,7.72,0,0,1,.2-.83c.09-.29.18-.57.28-.85a4.4,4.4,0,0,0,.21-.85s0,0,.09-.08l.18-.13.27-.19L76,19.9l-.28-.13-.15-.1a1.07,1.07,0,0,1,.19-.34L76,19l.27-.35a.65.65,0,0,0,.11-.32l.18-.25.28-.37.29-.36.19-.22a2.63,2.63,0,0,1,.27-.39c.09-.11.19-.21.29-.31l.32-.28.41-.29a1.18,1.18,0,0,0,.2-.22,1.27,1.27,0,0,1,.21-.23c.2-.11.39-.19.55-.26a2.48,2.48,0,0,1,.49-.15,2.53,2.53,0,0,1,.48-.07,5.15,5.15,0,0,1,.58,0,1.34,1.34,0,0,0,.35-.06,1.6,1.6,0,0,1,.31-.05c.06,0,.08,0,.07.05s0,.12.13.17a1.75,1.75,0,0,0,.34.15l.29.11c.08,0,.08.07,0,.09a.5.5,0,0,0-.3.27,1.25,1.25,0,0,1-.15.27s0,.06.11,0l.32-.11a1.09,1.09,0,0,1,.41,0,.59.59,0,0,1,.4.21l.22.27a.76.76,0,0,1,.1.22,1.24,1.24,0,0,1,0,.16s0,.1,0,.16A.88.88,0,0,0,84,17a2.83,2.83,0,0,1,.31.59.37.37,0,0,1-.06.43,2.13,2.13,0,0,0-.29.42,3.19,3.19,0,0,0-.09.31,2.44,2.44,0,0,0,0,.27.6.6,0,0,1,0,.29v0s-.12.1-.31.21a2.62,2.62,0,0,1-.73.22,2.34,2.34,0,0,1-.91,0,1.55,1.55,0,0,1-.88-.53l0-.71,0,0a.31.31,0,0,0,0-.08l0-.06,0-.06c.08-.29.14-.51.16-.64s0-.25.07-.34,0,0,0,0l-.3.17-1.49.63-.63,1a.35.35,0,0,1-.09.11.77.77,0,0,0-.09.13.17.17,0,0,0,0,.14.3.3,0,0,0,.07.1.21.21,0,0,1,.06.1.42.42,0,0,1,0,.16q-.09.29-.21.63c-.07.24-.15.47-.24.71l-.24.7c-.08.23-.15.44-.22.63s.09.15.12.2.07,0,.11-.06l-.11,1Z" style="fill:#423c25"/><path d="M85.13,27a.29.29,0,0,0-.16.09l-.19.2-.18.2c-.06.06-.1.09-.14.09s-.23-.13-.22-.39a3.62,3.62,0,0,1,.12-.87c.07-.32.15-.63.25-.94l.18-.62A38.57,38.57,0,0,1,86.05,21c.48-1.22.9-2.45,1.26-3.71a.11.11,0,0,1,0-.11s0-.05,0-.05H85.72a.36.36,0,0,1,.12-.22.38.38,0,0,0,.13-.19l0-.09q-.17-.18-.15-.24c0-.06.07-.1.17-.14a2.79,2.79,0,0,1,.34-.09,2,2,0,0,1,.34,0h.25l-.29-.18a1.17,1.17,0,0,1-.32,0,.83.83,0,0,1-.29-.1.39.39,0,0,1-.19-.17.35.35,0,0,1,0-.27A1.41,1.41,0,0,1,86,15.1a.67.67,0,0,1,.27-.2l.92-.16h.4l.89,0,1,0h3.91a.4.4,0,0,1-.17.27A.73.73,0,0,1,93,15l-.28.05a.38.38,0,0,0-.25.17,1,1,0,0,0,0,.32l0,.27,0,.26a.86.86,0,0,1,0,.3,2.35,2.35,0,0,1-.16.37,1.91,1.91,0,0,1-.34.38.59.59,0,0,1-.43.1l-.52,0a.56.56,0,0,0-.3.07s0,.11-.08.21-.07.21-.11.32l-.13.33a2.16,2.16,0,0,0-.08.24l-.09.3a4.34,4.34,0,0,1-.15.49c-.08.24-.16.48-.24.74l-.25.72-.18.45-1.58,5.45a2.1,2.1,0,0,1-.14.39,1.57,1.57,0,0,1-.29.42.87.87,0,0,0-.53,0,.84.84,0,0,0-.28.2l-.2.24a.42.42,0,0,1-.32.1.34.34,0,0,1-.31-.15,1.37,1.37,0,0,1-.16-.32,2.37,2.37,0,0,0-.15-.32A.3.3,0,0,0,85.13,27Z" style="fill:#423c25"/><path d="M90.54,27.46l.21-.71c.33-1.27.64-2.5,1-3.69s.63-2.41,1-3.68l0-.14c0-.07,0-.14.06-.19l0-.14,0-.09a1,1,0,0,1,0-.12l.13-.23a2.53,2.53,0,0,0,.13-.22.58.58,0,0,0,0-.13,1.72,1.72,0,0,0,.08-.19c0-.11.09-.22.13-.34s.1-.24.14-.35.07-.19.08-.23l.09-.25.11-.36L94,16l.13-.43c0-.13.06-.24.08-.35a2.08,2.08,0,0,1,.06-.24l.2-.08.39-.13.58-.2a.32.32,0,0,1,.29.12.46.46,0,0,1,.1.25,2.28,2.28,0,0,1,0,.26c0,.07,0,.1.07.1h0s.08-.09.17-.25a.18.18,0,0,0,.11-.1s0-.06,0-.06a1.19,1.19,0,0,1,.27,0l.21,0,.15.17.14.15h.1l.43-.16h.11l0,.08a.14.14,0,0,0,.1.08l-.11.36A25.23,25.23,0,0,1,96.88,18l-1,2.55a1,1,0,0,1-.26.42.88.88,0,0,0-.24.41,1.47,1.47,0,0,0-.06.59,2.58,2.58,0,0,1,0,.56l-.11.41-.32,1.13-.11.37c-.13.46-.26.95-.4,1.47a9.42,9.42,0,0,1-.55,1.54.14.14,0,0,1-.12.1h-.11s-.08,0-.1,0h-.1a.71.71,0,0,0-.17-.34.61.61,0,0,0-.4-.09h-.13a.17.17,0,0,0-.12,0l-.22.22-.28,0a.44.44,0,0,0-.24.06.31.31,0,0,0-.12.06l-.19.12-.18.14-.1.08A1,1,0,0,1,90.54,27.46Z" style="fill:#423c25"/><path d="M96.85,19.81a2.3,2.3,0,0,1,.16-.37l.23-.38a4,4,0,0,0,.23-.39.81.81,0,0,0,.1-.35,2,2,0,0,1,.17-.26l.29-.4.31-.41a2.39,2.39,0,0,1,.19-.25l.37-.45a3.34,3.34,0,0,1,.32-.33l.34-.28c.12-.1.27-.22.44-.38a1.12,1.12,0,0,0,.18-.24.65.65,0,0,1,.24-.24,3.31,3.31,0,0,1,.88-.4,9.09,9.09,0,0,1,1.17-.29c.4-.08.79-.14,1.17-.19a6.86,6.86,0,0,1,.88-.07c.23,0,.32.09.27.28a.29.29,0,0,1-.12.18l-.17.14-.18.12a.26.26,0,0,0-.1.16c0,.07,0,.12.07.16a1.35,1.35,0,0,0,.24.08l.27.05c.09,0,.14,0,.15.1l.31.64a1.68,1.68,0,0,1,.09.27l0,.17c0,.06,0,.12.05.18a1.52,1.52,0,0,0,.13.25,2.72,2.72,0,0,0,.19.3,1.67,1.67,0,0,1,.13.2.5.5,0,0,1,0,.23,1.66,1.66,0,0,1-.07.4,4.31,4.31,0,0,1-.25.71,5.05,5.05,0,0,0-.27.74v0a2.29,2.29,0,0,0-.07.44c0,.24-.05.49-.08.76s-.06.52-.09.75a2.76,2.76,0,0,1-.07.42V22a.29.29,0,0,0,0,.1s0,.09,0,.15l0,.07,0,.09-.05.11a.43.43,0,0,1,0,.11l0,.09a.53.53,0,0,1-.29.14c-.12,0-.19.08-.21.16a.16.16,0,0,0,0,.15.94.94,0,0,0,.1.1l.1.11a.2.2,0,0,1,.06.15,1,1,0,0,0-.06.36,2.24,2.24,0,0,1-.07.42,2.15,2.15,0,0,1-.55.86,10.19,10.19,0,0,1-1,1c-.36.32-.73.62-1.1.9s-.66.51-.88.69a.26.26,0,0,0,0,.07c0,.07,0,.13,0,.16a.15.15,0,0,1,0,.16c0,.11-.19.18-.46.21a7.45,7.45,0,0,1-.79,0h-.36a4.69,4.69,0,0,1-.59-.07,6.61,6.61,0,0,1-.81-.18,4.57,4.57,0,0,1-.74-.26q-.33-.13-.39-.3a1,1,0,0,0-.16-.29L96.37,27c-.06-.1-.12-.2-.17-.3a.48.48,0,0,1,0-.31l0-.13.08-.25,0-.22,0-.12a.36.36,0,0,0-.11-.2.2.2,0,0,1-.07-.21.45.45,0,0,1-.06-.22l0-.34a1.89,1.89,0,0,1,0-.32c0-.11,0-.18,0-.2a5.76,5.76,0,0,1,.1-.94,6.7,6.7,0,0,1,.22-.94c.1-.32.19-.63.28-.93a5.59,5.59,0,0,0,.2-.94s0-.07,0-.16-.06-.13,0-.14V20A.42.42,0,0,1,96.85,19.81Zm2.08,4.05a.82.82,0,0,0,0,.31c0,.14.1.29.17.44a2.75,2.75,0,0,0,.2.42q.1.18.18.18a.46.46,0,0,0,.31-.17.88.88,0,0,1,.26-.21l.17-.16.26-.27.29-.28L101,24l0-.12c.09-.29.16-.57.22-.84s.12-.53.17-.8.12-.52.19-.79.15-.55.25-.84a2.6,2.6,0,0,1,0-.35c0-.13,0-.27.06-.41s.05-.27.07-.39a2.28,2.28,0,0,1,.07-.3s.06-.12.14-.27a2.57,2.57,0,0,0,.13-.27v0a.39.39,0,0,1,0-.09l0-.07,0-.08a.41.41,0,0,0,0-.4,1,1,0,0,0-.3-.21l-.3-.15c-.09,0-.11-.1,0-.17h-.2a.09.09,0,0,0-.09.05,1,1,0,0,0-.07.2l-1,1.4-.06.16a1.06,1.06,0,0,0,0,.5,1.15,1.15,0,0,1-.06.51A12.63,12.63,0,0,1,99.61,22,14.61,14.61,0,0,0,98.93,23.86Z" style="fill:#423c25"/><path d="M106.46,26.71l-.63.52a.36.36,0,0,0-.2.06.94.94,0,0,0-.18.12l-.17.13a.46.46,0,0,1-.2.05c-.12,0-.19-.06-.2-.2a.68.68,0,0,1,0-.3l0-.07.33-.79,0-.09,0-.07.25-1.6,1.9-6.22a5.7,5.7,0,0,1-.3-1.12,2.84,2.84,0,0,1,0-1.23,1.85,1.85,0,0,1,.19-.18l.37-.3a2.7,2.7,0,0,1,.38-.27c.13-.07.2-.1.23-.07l.55.68a.24.24,0,0,0,.22-.17,2.29,2.29,0,0,0,.12-.37c0-.13.1-.25.16-.37a.31.31,0,0,1,.29-.17h.11l.27,0,.28,0a16.45,16.45,0,0,1,.84,1.68c.24.58.46,1.16.65,1.74l-.14.4.32-.4s0-.08.08-.2l.19-.43.21-.47a3,3,0,0,0,.13-.4s.07-.09.11-.22a.38.38,0,0,1,.2-.27l.64-.25-.39-.29c-.1,0-.14-.12-.14-.26a1.59,1.59,0,0,1,.07-.38l0-.16a.53.53,0,0,1,.13-.1l.21-.11a.51.51,0,0,1,.2,0,.1.1,0,0,1,.09.12c0,.12,0,.2,0,.22A.59.59,0,0,1,114,15a3.83,3.83,0,0,0,.56.05l.84,0a3.59,3.59,0,0,1,.75.14c.22.06.31.16.27.28a.16.16,0,0,1,0,.09.14.14,0,0,0,0,.09c0,.13-.13.35-.26.66l-.39,1-.4,1L115,19l-.35,1.83-1.87,6.51a.66.66,0,0,1-.21.14,1.26,1.26,0,0,1-.29.11l-.27.05a.29.29,0,0,1-.23-.13,1.35,1.35,0,0,1-.19-.31,2.41,2.41,0,0,1-.15-.33,1.31,1.31,0,0,0-.11-.2l-.47.35-.1.39a.31.31,0,0,1-.13.06l-.18,0a.68.68,0,0,1-.59-.3.92.92,0,0,1-.2-.6l.25-2.9-.16-1.36h0c-.16.53-.32,1.07-.5,1.62l-.51,1.62-.09.36c-.06.17-.11.33-.17.47s-.13.35-.22.59l-.08,0-.06,0H108a.57.57,0,0,1-.13-.07.22.22,0,0,0-.18.11,2,2,0,0,0-.13.25,1.35,1.35,0,0,1-.15.26.24.24,0,0,1-.2.11s0,0-.06,0a1.43,1.43,0,0,0-.09-.27.37.37,0,0,0-.18-.21.38.38,0,0,0-.2.17,1,1,0,0,0-.1.26,1,1,0,0,1-.1.26.27.27,0,0,1-.26.12c-.11,0-.15-.07-.14-.19a1.45,1.45,0,0,1,.11-.42q.1-.24.21-.45A.9.9,0,0,0,106.46,26.71Z" style="fill:#423c25"/><path d="M13.82,47l5.69-.1v1.16l-2.12,0v6.57H16.15V48.14l-2.33,0Z" style="fill:#423c25"/><path d="M21.76,47.33v2.9a1.75,1.75,0,0,1,.95-.91,2,2,0,0,1,.75-.14,2,2,0,0,1,.43,0,1.63,1.63,0,0,1,.95.62A2.61,2.61,0,0,1,25.35,51a12.66,12.66,0,0,1,.07,1.8c0,.72,0,1.63,0,2.75l-1.1,0c0-1,0-1.75,0-2.38,0-1,0-1.62-.05-1.81a1,1,0,0,0-1.08-.94h0a1,1,0,0,0-.66.22,2.21,2.21,0,0,0-.44.58,3.68,3.68,0,0,0-.23,1.41l-.06,2.53-1.1,0-.1-7.67Z" style="fill:#423c25"/><path d="M27.72,52.58a2.11,2.11,0,0,0,.41,1.34,1.34,1.34,0,0,0,.91.39h.14A1.36,1.36,0,0,0,30,54.1a1.64,1.64,0,0,0,.57-1l1.17.23a3.31,3.31,0,0,1-.65,1.25,1.87,1.87,0,0,1-1.18.65,4.56,4.56,0,0,1-.72.06,3.38,3.38,0,0,1-.72-.07,2.16,2.16,0,0,1-1.19-.68,2.59,2.59,0,0,1-.66-1.24,4.61,4.61,0,0,1-.12-1c0-.13,0-.25,0-.38a3.24,3.24,0,0,1,.36-1.31,2.05,2.05,0,0,1,.78-.9,2.7,2.7,0,0,1,1-.39,3.64,3.64,0,0,1,.6,0l.6,0a2,2,0,0,1,1.28.8,4,4,0,0,1,.59,2.45Zm2.71-.91a1.56,1.56,0,0,0-.38-1,1.2,1.2,0,0,0-.94-.42,1.29,1.29,0,0,0-1,.4,1.42,1.42,0,0,0-.41,1Z" style="fill:#423c25"/><path d="M35.73,47.09H37.1l3.51,5.65h0V46.93h1.28l-.1,7.83H40.49L37,49h0v5.23H35.68Z" style="fill:#423c25"/><path d="M44.15,47.69a.61.61,0,0,1,.2.47.62.62,0,0,1-.2.48.71.71,0,0,1-1,0,.66.66,0,0,1,0-1,.71.71,0,0,1,1,0ZM43.06,49.5l1.17,0-.11,5.84h-1Z" style="fill:#423c25"/><path d="M46.55,49l.05,1.33a1.77,1.77,0,0,1,.95-.92,2.21,2.21,0,0,1,.75-.14,2,2,0,0,1,.43,0,1.61,1.61,0,0,1,1,.61,2.65,2.65,0,0,1,.51,1.13,12.58,12.58,0,0,1,.07,1.79c0,.72,0,1.64,0,2.76l-1.1,0c0-.95,0-1.75,0-2.37,0-1,0-1.62,0-1.81a1.16,1.16,0,0,0-.37-.7,1.07,1.07,0,0,0-.71-.24h0a.94.94,0,0,0-.66.22,2.16,2.16,0,0,0-.44.57,3.74,3.74,0,0,0-.23,1.42L46.6,55.2l-1.1,0-.1-6.1Z" style="fill:#423c25"/><path d="M51,56.08h0a.51.51,0,0,1,.23.07,1.06,1.06,0,0,0,.77-.49,3.64,3.64,0,0,0,.2-1.52l0-4.51,1.06.08c0,.81,0,1.55,0,2.2a27.29,27.29,0,0,1-.13,3.76,1.85,1.85,0,0,1-.56,1,1.93,1.93,0,0,1-.93.42l-.31,0a2.71,2.71,0,0,1-.47,0Zm2.21-8.39a.64.64,0,0,1,0,1,.66.66,0,0,1-.49.2.7.7,0,0,1-.49-.2.66.66,0,0,1,0-1,.7.7,0,0,1,.49-.2A.66.66,0,0,1,53.16,47.69Z" style="fill:#423c25"/><path d="M55.12,50.19a2.17,2.17,0,0,1,1.14-.61,3.08,3.08,0,0,1,.68-.07,3.73,3.73,0,0,1,.86.1,1.39,1.39,0,0,1,1.08,1.12A7.41,7.41,0,0,1,59,52.52c0,.4,0,.85,0,1.35v0c0,.29.11.43.33.43a1.05,1.05,0,0,0,.41-.1l.09,1a3,3,0,0,1-.73.1,1.05,1.05,0,0,1-1-.56,2.68,2.68,0,0,1-.94.59,3.19,3.19,0,0,1-.89.13h0a2.08,2.08,0,0,1-.83-.16,1.56,1.56,0,0,1-.65-.49,1.38,1.38,0,0,1-.29-.76V53.9a2.47,2.47,0,0,1,.14-.78,1.71,1.71,0,0,1,.92-.87A8.09,8.09,0,0,1,58,51.73a1.4,1.4,0,0,0-.19-.91,1.1,1.1,0,0,0-.74-.25h-.19a1.41,1.41,0,0,0-.69.15,1,1,0,0,0-.4.82l-1.13-.15A1.88,1.88,0,0,1,55.12,50.19ZM58,52.67a4.88,4.88,0,0,0-1.91.4.92.92,0,0,0-.46.72v.05a.65.65,0,0,0,.27.58,1,1,0,0,0,.58.16h.17a1.85,1.85,0,0,0,.75-.21c.19-.12.39-.25.6-.41Z" style="fill:#423c25"/><path d="M67,50.2a1.63,1.63,0,0,0-.59-.12,1.54,1.54,0,0,0-.3,0,1.42,1.42,0,0,0-.72.46,1.89,1.89,0,0,0-.38,1,4.38,4.38,0,0,0,0,.51,3,3,0,0,0,.07.61,1.63,1.63,0,0,0,.43.87,1.24,1.24,0,0,0,.83.4h.12a1.45,1.45,0,0,0,.79-.22,1.24,1.24,0,0,0,.49-1l1.11.23a2.37,2.37,0,0,1-.57,1.25A1.93,1.93,0,0,1,67,54.9a3.88,3.88,0,0,1-.67.06,3.74,3.74,0,0,1-.68-.06,2.28,2.28,0,0,1-1.07-.55A2.5,2.5,0,0,1,64,53.21,4.18,4.18,0,0,1,63.8,52c0-.1,0-.2,0-.3a3.94,3.94,0,0,1,.34-1.35,2.15,2.15,0,0,1,.74-.89,2.46,2.46,0,0,1,.92-.39,3.27,3.27,0,0,1,.57,0l.52,0a2.09,2.09,0,0,1,1.16.53A2,2,0,0,1,68.71,51l-1.1.18A1.27,1.27,0,0,0,67,50.2Z" style="fill:#423c25"/><path d="M70.51,50.19a2.21,2.21,0,0,1,1.14-.61,3.08,3.08,0,0,1,.68-.07,3.81,3.81,0,0,1,.87.1,1.39,1.39,0,0,1,1.07,1.12,7.41,7.41,0,0,1,.16,1.79c0,.4,0,.85,0,1.35v0c0,.29.11.43.33.43a1,1,0,0,0,.41-.1l.09,1a2.89,2.89,0,0,1-.73.1,1.06,1.06,0,0,1-1-.56,2.6,2.6,0,0,1-.94.59,3.12,3.12,0,0,1-.88.13h0a2.12,2.12,0,0,1-.83-.16,1.62,1.62,0,0,1-.65-.49,1.46,1.46,0,0,1-.29-.76V53.9a2.24,2.24,0,0,1,.15-.78,1.65,1.65,0,0,1,.91-.87,8.16,8.16,0,0,1,2.49-.52,1.4,1.4,0,0,0-.19-.91,1.1,1.1,0,0,0-.74-.25h-.18a1.43,1.43,0,0,0-.7.15,1,1,0,0,0-.4.82L70,51.39A1.88,1.88,0,0,1,70.51,50.19Zm2.87,2.48a4.81,4.81,0,0,0-1.9.4.87.87,0,0,0-.46.72.11.11,0,0,0,0,.05.65.65,0,0,0,.27.58,1,1,0,0,0,.58.16H72a1.85,1.85,0,0,0,.75-.21c.19-.12.39-.25.6-.41Z" style="fill:#423c25"/><path d="M77.42,49l0,1.33a1.77,1.77,0,0,1,1-.92,2.21,2.21,0,0,1,.75-.14,2,2,0,0,1,.43,0,1.61,1.61,0,0,1,1,.61,2.65,2.65,0,0,1,.51,1.13,12.58,12.58,0,0,1,.07,1.79c0,.72,0,1.64,0,2.76l-1.1,0c0-.95,0-1.75,0-2.37,0-1,0-1.62-.05-1.81a1.16,1.16,0,0,0-.37-.7,1.07,1.07,0,0,0-.71-.24h0a.94.94,0,0,0-.66.22,2.16,2.16,0,0,0-.44.57,3.74,3.74,0,0,0-.23,1.42l-.06,2.53-1.1,0-.1-6.1Z" style="fill:#423c25"/><path d="M85.11,55.42V47.6h1.19l0,2.88a1.67,1.67,0,0,1,1.41-1.06,3,3,0,0,1,.5,0,1.86,1.86,0,0,1,1.12.32A2.29,2.29,0,0,1,90.12,51a5.45,5.45,0,0,1,.23,1.48v.08a4.55,4.55,0,0,1-.25,1.41A2.07,2.07,0,0,1,89.27,55a2.15,2.15,0,0,1-1.2.38A2.38,2.38,0,0,1,87,55.16a1.76,1.76,0,0,1-.74-.69l0,1Zm4-3v0a2.32,2.32,0,0,0-.35-1.32,1.25,1.25,0,0,0-1.1-.6c-.9,0-1.36.65-1.38,2v.07a2.25,2.25,0,0,0,.37,1.33,1.3,1.3,0,0,0,1.1.56,1.18,1.18,0,0,0,1-.62A2.46,2.46,0,0,0,89.14,52.46Z" style="fill:#423c25"/><path d="M94.92,50.59a1.59,1.59,0,0,0-.79-.24H94a1.31,1.31,0,0,0-.68.25,1.74,1.74,0,0,0-.44.52,3.3,3.3,0,0,0-.23,1.39L92.6,55l-1.1,0L91.4,49l1.15-.13,0,1.33a1.85,1.85,0,0,1,1-.94,1.53,1.53,0,0,1,.54-.1,3.32,3.32,0,0,1,1.12.25Z" style="fill:#423c25"/><path d="M97.47,47.69a.61.61,0,0,1,.2.47.62.62,0,0,1-.2.48.71.71,0,0,1-1,0,.66.66,0,0,1,0-1,.71.71,0,0,1,1,0ZM96.38,49.5l1.17,0-.11,5.84h-1Z" style="fill:#423c25"/><path d="M99.87,49l0,1.33a1.77,1.77,0,0,1,1-.92,2.25,2.25,0,0,1,.75-.14,2,2,0,0,1,.43,0,1.67,1.67,0,0,1,1,.61,2.63,2.63,0,0,1,.5,1.13,12.58,12.58,0,0,1,.07,1.79c0,.72,0,1.64,0,2.76l-1.1,0c0-.95,0-1.75,0-2.37,0-1,0-1.62,0-1.81a1.16,1.16,0,0,0-.37-.7,1.07,1.07,0,0,0-.71-.24h0a1,1,0,0,0-.66.22,2.16,2.16,0,0,0-.44.57,3.6,3.6,0,0,0-.22,1.42l-.07,2.53-1.1,0-.09-6.1Z" style="fill:#423c25"/><path d="M104.88,55.45l1.1-.19c.12.55.37.87.73,1a2.49,2.49,0,0,0,.61.08,2.94,2.94,0,0,0,.51,0,1.05,1.05,0,0,0,.77-.5,2.36,2.36,0,0,0,.17-1.07c0-.14,0-.29,0-.44a2.19,2.19,0,0,1-1.08.69,4.54,4.54,0,0,1-.75.07h-.25a2,2,0,0,1-1.05-.39,1.93,1.93,0,0,1-.74-.91,3.9,3.9,0,0,1-.25-1.34c0-.07,0-.14,0-.21a4,4,0,0,1,.18-1.22,2.22,2.22,0,0,1,.73-1.07,2.64,2.64,0,0,1,1-.53,2.92,2.92,0,0,1,.61-.07,5.13,5.13,0,0,1,.52,0,2.08,2.08,0,0,1,1.16.65v-.63l1,0c0,.89,0,1.69,0,2.39a31,31,0,0,1-.13,4.05,2,2,0,0,1-.57,1,2.1,2.1,0,0,1-.92.42,6.2,6.2,0,0,1-1,.09h-.05a3.38,3.38,0,0,1-.88-.1,1.84,1.84,0,0,1-.78-.45A2.71,2.71,0,0,1,104.88,55.45Zm3.57-2.05a2.45,2.45,0,0,0,.33-1.33,2.18,2.18,0,0,0-.34-1.28,1.34,1.34,0,0,0-1.15-.56,1.27,1.27,0,0,0-1.14.62,2.44,2.44,0,0,0-.32,1.32,2.2,2.2,0,0,0,.34,1.26,1.39,1.39,0,0,0,2.28,0Z" style="fill:#423c25"/><path d="M113.83,55.42V47.6H115L115,50.48a1.7,1.7,0,0,1,1.42-1.06,3,3,0,0,1,.5,0,1.88,1.88,0,0,1,1.12.32,2.23,2.23,0,0,1,.83,1.25,5.12,5.12,0,0,1,.24,1.48v.08a4.56,4.56,0,0,1-.26,1.41A2,2,0,0,1,118,55a2.12,2.12,0,0,1-1.19.38,2.32,2.32,0,0,1-1.08-.23,1.71,1.71,0,0,1-.74-.69l0,1Zm4-3v0a2.33,2.33,0,0,0-.36-1.32,1.24,1.24,0,0,0-1.09-.6c-.9,0-1.36.65-1.38,2v.07a2.18,2.18,0,0,0,.37,1.33,1.3,1.3,0,0,0,1.1.56,1.18,1.18,0,0,0,1-.62A2.46,2.46,0,0,0,117.86,52.46Z" style="fill:#423c25"/><path d="M120.82,50.19a2.25,2.25,0,0,1,1.14-.61,3.11,3.11,0,0,1,.69-.07,3.79,3.79,0,0,1,.86.1,1.39,1.39,0,0,1,1.07,1.12,7.41,7.41,0,0,1,.16,1.79c0,.4,0,.85,0,1.35v0c0,.29.11.43.34.43a1.09,1.09,0,0,0,.41-.1l.08,1a2.89,2.89,0,0,1-.73.1,1,1,0,0,1-1-.56,2.71,2.71,0,0,1-1,.59,3.12,3.12,0,0,1-.88.13h0a2.13,2.13,0,0,1-.84-.16,1.62,1.62,0,0,1-.65-.49,1.46,1.46,0,0,1-.29-.76V53.9a2.24,2.24,0,0,1,.15-.78,1.65,1.65,0,0,1,.91-.87,8.17,8.17,0,0,1,2.5-.52,1.46,1.46,0,0,0-.19-.91,1.14,1.14,0,0,0-.74-.25h-.19a1.43,1.43,0,0,0-.7.15,1,1,0,0,0-.4.82l-1.12-.15A1.82,1.82,0,0,1,120.82,50.19Zm2.87,2.48a4.81,4.81,0,0,0-1.9.4.87.87,0,0,0-.46.72.11.11,0,0,0,0,.05.65.65,0,0,0,.27.58,1,1,0,0,0,.58.16h.17a1.85,1.85,0,0,0,.75-.21c.19-.12.39-.25.6-.41Z" style="fill:#423c25"/><path d="M129.73,50.2a1.58,1.58,0,0,0-.58-.12,1.36,1.36,0,0,0-.3,0,1.34,1.34,0,0,0-.72.46,1.89,1.89,0,0,0-.38,1,2.92,2.92,0,0,0,0,.51,3,3,0,0,0,.06.61,1.71,1.71,0,0,0,.43.87,1.24,1.24,0,0,0,.84.4h.12a1.39,1.39,0,0,0,.78-.22,1.25,1.25,0,0,0,.5-1l1.1.23a2.36,2.36,0,0,1-.56,1.25,2,2,0,0,1-1.18.65,4,4,0,0,1-.68.06,3.82,3.82,0,0,1-.68-.06,2.25,2.25,0,0,1-1.06-.55,2.33,2.33,0,0,1-.63-1.14,4.18,4.18,0,0,1-.16-1.17c0-.1,0-.2,0-.3a3.73,3.73,0,0,1,.34-1.35,2.07,2.07,0,0,1,.74-.89,2.49,2.49,0,0,1,.91-.39,3.27,3.27,0,0,1,.57,0l.52,0a2.15,2.15,0,0,1,1.17.53,2,2,0,0,1,.64,1.35l-1.09.18A1.26,1.26,0,0,0,129.73,50.2Z" style="fill:#423c25"/><path d="M132.59,47.56l1.17-.11.06,4.47,2.27-2.35,1.19.26L135.1,52l2.44,3.36-1.29.16-2-2.8-.47.5v2l-1.17.1Z" style="fill:#423c25"/><path d="M15,60.6a.66.66,0,0,1,0,.95.71.71,0,0,1-1,0,.68.68,0,0,1,.49-1.15A.66.66,0,0,1,15,60.6Zm-1.1,1.81,1.18,0L15,68.2H14Z" style="fill:#423c25"/><path d="M17.41,61.92l.05,1.33a1.73,1.73,0,0,1,.95-.92,2.21,2.21,0,0,1,.75-.14,2,2,0,0,1,.43.05,1.61,1.61,0,0,1,.95.61A2.77,2.77,0,0,1,21.05,64a12.58,12.58,0,0,1,.07,1.79c0,.72,0,1.64,0,2.75l-1.1,0c0-.95,0-1.75,0-2.38a14.22,14.22,0,0,0-.06-1.8,1.1,1.1,0,0,0-.36-.7,1.07,1.07,0,0,0-.71-.24h0a.92.92,0,0,0-.66.22,2,2,0,0,0-.44.57,3.51,3.51,0,0,0-.23,1.42l-.06,2.52-1.1,0L16.26,62Z" style="fill:#423c25"/><path d="M22.17,61.85h.93V60.18L24.27,60V61.8l1.53-.06v1l-1.53,0v3.5a1.2,1.2,0,0,0,.1.57.42.42,0,0,0,.34.14,4.42,4.42,0,0,0,.93-.2l.16,1a7.22,7.22,0,0,1-1.4.22,1.83,1.83,0,0,1-1-.36,1.58,1.58,0,0,1-.3-1.06V62.81h-.93Z" style="fill:#423c25"/><path d="M27.56,67.54a3.33,3.33,0,0,1-.71-2.21,3.29,3.29,0,0,1,.71-2.19,2.71,2.71,0,0,1,4,0,3.29,3.29,0,0,1,.71,2.19,3.33,3.33,0,0,1-.71,2.21,2.73,2.73,0,0,1-4,0Zm3.18-.76a2.51,2.51,0,0,0,.38-1.41A2.45,2.45,0,0,0,30.74,64a1.42,1.42,0,0,0-2.4,0A2.37,2.37,0,0,0,28,65.37a2.44,2.44,0,0,0,.39,1.41,1.43,1.43,0,0,0,2.4,0Z" style="fill:#423c25"/><path d="M42.68,61.88l0,.95a1.7,1.7,0,0,1,.73-.7,2.53,2.53,0,0,1,1.09-.23,2.2,2.2,0,0,1,1.19.38,2.06,2.06,0,0,1,.83,1.09,4.56,4.56,0,0,1,.26,1.41v.08a5.12,5.12,0,0,1-.24,1.48,2.23,2.23,0,0,1-.83,1.25,1.88,1.88,0,0,1-1.12.32,2.89,2.89,0,0,1-.5,0,1.7,1.7,0,0,1-1.42-1.06l0,2.88H41.57V61.88Zm2.93,2.95a2.46,2.46,0,0,0-.36-1.34,1.18,1.18,0,0,0-1-.62,1.29,1.29,0,0,0-1.1.56,2.18,2.18,0,0,0-.37,1.33v.07c0,1.31.48,2,1.38,2a1.25,1.25,0,0,0,1.09-.61,2.33,2.33,0,0,0,.36-1.32Z" style="fill:#423c25"/><path d="M47.87,60.26l1.17.05v7.84l-1.12,0Z" style="fill:#423c25"/><path d="M50.79,63.1a2.25,2.25,0,0,1,1.14-.61,3.11,3.11,0,0,1,.69-.07,3.79,3.79,0,0,1,.86.1,1.39,1.39,0,0,1,1.07,1.12,7.41,7.41,0,0,1,.16,1.79c0,.4,0,.85,0,1.35v0c0,.29.11.43.34.43a1.33,1.33,0,0,0,.41-.1l.08,1a2.94,2.94,0,0,1-.73.11,1.05,1.05,0,0,1-1-.56,2.71,2.71,0,0,1-1,.59,3.52,3.52,0,0,1-.88.13h0a2,2,0,0,1-.84-.17,1.52,1.52,0,0,1-.65-.48A1.38,1.38,0,0,1,50.1,67a.81.81,0,0,1,0-.16,2.34,2.34,0,0,1,.15-.79,1.67,1.67,0,0,1,.91-.86,7.88,7.88,0,0,1,2.5-.52,1.52,1.52,0,0,0-.19-.92,1.21,1.21,0,0,0-.74-.24h-.19a1.43,1.43,0,0,0-.7.15,1,1,0,0,0-.4.81l-1.12-.14A1.82,1.82,0,0,1,50.79,63.1Zm2.87,2.48a4.81,4.81,0,0,0-1.9.4.87.87,0,0,0-.46.72.09.09,0,0,0,0,0,.67.67,0,0,0,.27.58,1,1,0,0,0,.58.15h.17a1.58,1.58,0,0,0,.75-.21,5.86,5.86,0,0,0,.6-.41Z" style="fill:#423c25"/><path d="M55.86,62l1.23-.25L58.59,66l1.56-4,1.06.34L58.06,70.2l-1-.51L58,67.34Z" style="fill:#423c25"/><path d="M71.22,63.1a2.24,2.24,0,0,1,1.15-.61,3,3,0,0,1,.68-.07,3.79,3.79,0,0,1,.86.1A1.4,1.4,0,0,1,75,63.64a8,8,0,0,1,.16,1.79c0,.4,0,.85-.05,1.35v0c0,.29.12.43.34.43a1.27,1.27,0,0,0,.41-.1l.09,1a3,3,0,0,1-.74.11,1.06,1.06,0,0,1-1-.56,2.68,2.68,0,0,1-.94.59,3.61,3.61,0,0,1-.89.13h0a2,2,0,0,1-.84-.17,1.52,1.52,0,0,1-.65-.48,1.46,1.46,0,0,1-.28-.77s0-.1,0-.16a2.34,2.34,0,0,1,.15-.79,1.7,1.7,0,0,1,.92-.86,7.73,7.73,0,0,1,2.49-.52,1.45,1.45,0,0,0-.19-.92,1.16,1.16,0,0,0-.74-.24H73a1.48,1.48,0,0,0-.7.15,1,1,0,0,0-.4.81l-1.12-.14A1.87,1.87,0,0,1,71.22,63.1Zm2.88,2.48a4.88,4.88,0,0,0-1.91.4.89.89,0,0,0-.46.72v0a.67.67,0,0,0,.27.58,1,1,0,0,0,.58.15h.17a1.58,1.58,0,0,0,.75-.21,5.86,5.86,0,0,0,.6-.41Z" style="fill:#423c25"/><path d="M89.39,68.17l0-1a1.76,1.76,0,0,1-.74.69,2.38,2.38,0,0,1-1.08.24,2.14,2.14,0,0,1-1.2-.39,2.07,2.07,0,0,1-.83-1.09,4.55,4.55,0,0,1-.25-1.41v-.08a5.09,5.09,0,0,1,.23-1.48,2.27,2.27,0,0,1,.84-1.25,1.86,1.86,0,0,1,1.12-.32,3,3,0,0,1,.5,0,1.66,1.66,0,0,1,1.41,1.07l0-2.89h1.2v7.82Zm-2.93-3a2.38,2.38,0,0,0,.37,1.34,1.18,1.18,0,0,0,1,.62,1.3,1.3,0,0,0,1.11-.56,2.25,2.25,0,0,0,.36-1.33v-.07c0-1.31-.48-2-1.37-2a1.25,1.25,0,0,0-1.1.6,2.33,2.33,0,0,0-.36,1.32Z" style="fill:#423c25"/><path d="M92.81,65.49a2.14,2.14,0,0,0,.41,1.34,1.3,1.3,0,0,0,.91.39h.13a1.47,1.47,0,0,0,.8-.22,1.69,1.69,0,0,0,.57-1l1.17.23a3.54,3.54,0,0,1-.65,1.25,1.9,1.9,0,0,1-1.19.65,4.56,4.56,0,0,1-.72.06,3.35,3.35,0,0,1-.71-.07,2.22,2.22,0,0,1-1.19-.68,2.64,2.64,0,0,1-.67-1.25,5.17,5.17,0,0,1-.11-1c0-.12,0-.24,0-.37a3.7,3.7,0,0,1,.36-1.32,2.22,2.22,0,0,1,.78-.89,2.75,2.75,0,0,1,1-.39,3.64,3.64,0,0,1,.6,0l.59,0a2,2,0,0,1,1.29.8,4,4,0,0,1,.59,2.45Zm2.71-.92a1.54,1.54,0,0,0-.39-.95,1.19,1.19,0,0,0-.94-.42,1.3,1.3,0,0,0-1,.4,1.4,1.4,0,0,0-.4,1Z" style="fill:#423c25"/><path d="M97.85,66.11,99,65.9c0,.57.27.89.65,1a3.14,3.14,0,0,0,.71.09l.28,0a.88.88,0,0,0,.59-.25.72.72,0,0,0,.19-.35s0,0,0-.06a.5.5,0,0,0-.1-.27,1.2,1.2,0,0,0-.29-.26,6.18,6.18,0,0,0-1-.35c-.56-.16-1-.29-1.21-.39a1.55,1.55,0,0,1-.59-.44,1.18,1.18,0,0,1-.24-.7v-.09a1.66,1.66,0,0,1,.16-.73,1.45,1.45,0,0,1,.66-.63,2.84,2.84,0,0,1,1.36-.32,3.27,3.27,0,0,1,.54,0,2.43,2.43,0,0,1,.9.36,2.24,2.24,0,0,1,.71,1.37l-1,.14c-.14-.48-.32-.75-.54-.83a1.87,1.87,0,0,0-.56-.09H100a1.08,1.08,0,0,0-.57.19.59.59,0,0,0-.25.42v.05a.43.43,0,0,0,.15.34,2.63,2.63,0,0,0,1,.34,6.26,6.26,0,0,1,1.37.47,1.35,1.35,0,0,1,.72.63,2,2,0,0,1,.13.75v0a1.46,1.46,0,0,1-.23.79,1.81,1.81,0,0,1-.76.62,3.07,3.07,0,0,1-1.28.26h-.08a3.59,3.59,0,0,1-1.1-.13,1.86,1.86,0,0,1-.75-.45A2.34,2.34,0,0,1,97.85,66.11Z" style="fill:#423c25"/><path d="M103.59,61.85h.92V60.18l1.18-.15V61.8l1.52-.06v1l-1.52,0v3.5a1.09,1.09,0,0,0,.1.57.4.4,0,0,0,.34.14,4.69,4.69,0,0,0,.93-.2l.15,1a7.14,7.14,0,0,1-1.39.22,1.86,1.86,0,0,1-1-.36,1.69,1.69,0,0,1-.3-1.06V62.81h-.92Z" style="fill:#423c25"/><path d="M111.78,63.5a1.59,1.59,0,0,0-.79-.24h-.12a1.35,1.35,0,0,0-.68.25,1.76,1.76,0,0,0-.44.52,3.35,3.35,0,0,0-.22,1.39L109.46,68l-1.1,0-.09-6.1,1.14-.12,0,1.33a1.85,1.85,0,0,1,1-.94,1.33,1.33,0,0,1,.54-.1,3.27,3.27,0,0,1,1.12.25Z" style="fill:#423c25"/><path d="M113.85,67.54a3.33,3.33,0,0,1-.71-2.21,3.29,3.29,0,0,1,.71-2.19,2.71,2.71,0,0,1,4,0,3.24,3.24,0,0,1,.71,2.19,3.28,3.28,0,0,1-.71,2.21,2.73,2.73,0,0,1-4,0Zm3.18-.76a2.44,2.44,0,0,0,.38-1.41A2.37,2.37,0,0,0,117,64a1.42,1.42,0,0,0-2.4,0,2.45,2.45,0,0,0-.38,1.39,2.51,2.51,0,0,0,.38,1.41,1.43,1.43,0,0,0,2.4,0Z" style="fill:#423c25"/><path d="M119.59,62l1.23-.25,1.5,4.29,1.56-4,1.06.34-3.15,7.87-1-.51.87-2.35Z" style="fill:#423c25"/><path d="M127.24,65.49a2.14,2.14,0,0,0,.41,1.34,1.34,1.34,0,0,0,.91.39h.14a1.44,1.44,0,0,0,.79-.22,1.64,1.64,0,0,0,.57-1l1.17.23a3.38,3.38,0,0,1-.65,1.25,1.9,1.9,0,0,1-1.19.65,4.37,4.37,0,0,1-.72.06,3.35,3.35,0,0,1-.71-.07,2.22,2.22,0,0,1-1.19-.68,2.62,2.62,0,0,1-.66-1.25,4.55,4.55,0,0,1-.12-1c0-.12,0-.24,0-.37a3.33,3.33,0,0,1,.36-1.32,2.08,2.08,0,0,1,.78-.89,2.63,2.63,0,0,1,1-.39,3.64,3.64,0,0,1,.6,0l.6,0a2,2,0,0,1,1.28.8,4,4,0,0,1,.59,2.45Zm2.71-.92a1.53,1.53,0,0,0-.38-.95,1.2,1.2,0,0,0-.94-.42,1.27,1.27,0,0,0-1,.4,1.37,1.37,0,0,0-.41,1Z" style="fill:#423c25"/><path d="M136.42,68.17l0-1a1.74,1.74,0,0,1-.73.69,2.38,2.38,0,0,1-1.08.24,2.14,2.14,0,0,1-1.2-.39,2,2,0,0,1-.83-1.09,4.55,4.55,0,0,1-.25-1.41.22.22,0,0,1,0-.08,5.12,5.12,0,0,1,.24-1.48,2.26,2.26,0,0,1,.83-1.25,1.9,1.9,0,0,1,1.12-.32,3.08,3.08,0,0,1,.51,0,1.69,1.69,0,0,1,1.41,1.07l0-2.89h1.2l0,7.82Zm-2.93-3a2.46,2.46,0,0,0,.36,1.34,1.19,1.19,0,0,0,1,.62,1.29,1.29,0,0,0,1.1-.56,2.18,2.18,0,0,0,.37-1.33v-.07c0-1.31-.48-2-1.37-2a1.24,1.24,0,0,0-1.1.6,2.33,2.33,0,0,0-.36,1.32Z" style="fill:#423c25"/><path d="M14.52,76a2.18,2.18,0,0,1,1.14-.61,3.1,3.1,0,0,1,.69-.08,4.46,4.46,0,0,1,.86.1,1.4,1.4,0,0,1,1.07,1.13,7.41,7.41,0,0,1,.16,1.79c0,.4,0,.85,0,1.35v0c0,.28.11.42.34.42a1.09,1.09,0,0,0,.41-.1l.08,1a2.94,2.94,0,0,1-.73.11,1.05,1.05,0,0,1-1-.56,2.87,2.87,0,0,1-.95.59,3.12,3.12,0,0,1-.88.12h0a2.14,2.14,0,0,1-.84-.17,1.52,1.52,0,0,1-.65-.48,1.41,1.41,0,0,1-.28-.77.91.91,0,0,1,0-.17,2.24,2.24,0,0,1,.15-.78,1.64,1.64,0,0,1,.91-.86,7.88,7.88,0,0,1,2.5-.52,1.5,1.5,0,0,0-.19-.92,1.21,1.21,0,0,0-.74-.24h-.19a1.32,1.32,0,0,0-.7.16,1,1,0,0,0-.4.81L14,77.21A1.78,1.78,0,0,1,14.52,76Zm2.87,2.47a5,5,0,0,0-1.9.41.87.87,0,0,0-.46.71.13.13,0,0,0,0,.06.64.64,0,0,0,.27.57,1,1,0,0,0,.58.16H16a1.85,1.85,0,0,0,.75-.21,5.86,5.86,0,0,0,.6-.41Z" style="fill:#423c25"/><path d="M24.42,81.07l0-.95a1.76,1.76,0,0,1-.74.69,2.38,2.38,0,0,1-1.08.24,2.14,2.14,0,0,1-1.2-.39,2.05,2.05,0,0,1-.83-1.08,4.61,4.61,0,0,1-.25-1.42v-.07a5.09,5.09,0,0,1,.23-1.48,2.26,2.26,0,0,1,.84-1.26A1.86,1.86,0,0,1,22.48,75a3,3,0,0,1,.5,0,1.65,1.65,0,0,1,1.41,1.06l0-2.88h1.19v7.81Zm-2.93-2.95a2.38,2.38,0,0,0,.37,1.34,1.18,1.18,0,0,0,1,.62A1.3,1.3,0,0,0,24,79.52a2.27,2.27,0,0,0,.36-1.33v-.07c0-1.31-.48-2-1.37-2a1.26,1.26,0,0,0-1.1.61,2.33,2.33,0,0,0-.36,1.32Z" style="fill:#423c25"/><path d="M26.59,75.28,27.82,75l1.46,4.74h0l1.41-4.48,1.21.26-2,5.36-1.32-.06Z" style="fill:#423c25"/><path d="M34.23,78.4a2.08,2.08,0,0,0,.41,1.34,1.38,1.38,0,0,0,.9.39h.14a1.34,1.34,0,0,0,.79-.22,1.64,1.64,0,0,0,.58-1l1.17.22a3.76,3.76,0,0,1-.65,1.26,1.87,1.87,0,0,1-1.19.64,3.65,3.65,0,0,1-.72.07,4.28,4.28,0,0,1-.72-.07,2.26,2.26,0,0,1-1.19-.68,2.62,2.62,0,0,1-.66-1.25,4.54,4.54,0,0,1-.11-1c0-.12,0-.24,0-.37a3.59,3.59,0,0,1,.36-1.32,2.32,2.32,0,0,1,.78-.9,3.19,3.19,0,0,1,1-.39,3.7,3.7,0,0,1,.6,0l.59,0a1.93,1.93,0,0,1,1.28.79,4,4,0,0,1,.59,2.46Zm2.71-.92a1.54,1.54,0,0,0-.39-1,1.2,1.2,0,0,0-.94-.42,1.33,1.33,0,0,0-1,.39,1.38,1.38,0,0,0-.4,1Z" style="fill:#423c25"/><path d="M40.41,74.82l.05,1.33a1.77,1.77,0,0,1,1-.91,2.13,2.13,0,0,1,1.17-.1,1.62,1.62,0,0,1,1,.62,2.59,2.59,0,0,1,.5,1.12,12.66,12.66,0,0,1,.07,1.8c0,.72,0,1.63,0,2.75l-1.1,0c0-1,0-1.75,0-2.38,0-1,0-1.62,0-1.81a1.19,1.19,0,0,0-.37-.7,1.17,1.17,0,0,0-.71-.24h0a1,1,0,0,0-.66.22,2.26,2.26,0,0,0-.44.58,3.54,3.54,0,0,0-.22,1.41L40.46,81l-1.1,0L39.27,75Z" style="fill:#423c25"/><path d="M45.18,74.76h.92V73.09l1.18-.16V74.7l1.52,0v1l-1.52,0v3.5a1,1,0,0,0,.1.56.38.38,0,0,0,.34.15,4.69,4.69,0,0,0,.93-.2l.15,1a6.6,6.6,0,0,1-1.39.23,1.88,1.88,0,0,1-1-.37,1.64,1.64,0,0,1-.3-1V75.72h-.92Z" style="fill:#423c25"/><path d="M53.58,81.43l-.06-1.33a1.75,1.75,0,0,1-.94.92,2.31,2.31,0,0,1-.76.14,2.1,2.1,0,0,1-.43,0,1.61,1.61,0,0,1-1-.61,2.77,2.77,0,0,1-.51-1.13,17,17,0,0,1-.07-2.11c0-.66,0-1.48,0-2.44l1.11,0c0,.75,0,1.41,0,2A20.91,20.91,0,0,0,51,79a1.15,1.15,0,0,0,.36.7,1.07,1.07,0,0,0,.71.24h0a.92.92,0,0,0,.66-.22,2,2,0,0,0,.44-.57,3.62,3.62,0,0,0,.22-1.43l.06-2.49,1.14-.07.08,6.1Z" style="fill:#423c25"/><path d="M59.3,76.41a1.61,1.61,0,0,0-.79-.25h-.12a1.26,1.26,0,0,0-.68.25,1.76,1.76,0,0,0-.44.52,3.31,3.31,0,0,0-.22,1.39L57,80.85l-1.1,0-.09-6.09,1.14-.12L57,76a1.87,1.87,0,0,1,1-1,1.53,1.53,0,0,1,.54-.09,3,3,0,0,1,1.12.25Z" style="fill:#423c25"/><path d="M61.91,78.4a2.13,2.13,0,0,0,.42,1.34,1.38,1.38,0,0,0,.9.39h.14a1.34,1.34,0,0,0,.79-.22,1.58,1.58,0,0,0,.57-1l1.18.22a3.6,3.6,0,0,1-.66,1.26,1.82,1.82,0,0,1-1.18.64,3.65,3.65,0,0,1-.72.07,4.28,4.28,0,0,1-.72-.07,2.26,2.26,0,0,1-1.19-.68,2.62,2.62,0,0,1-.66-1.25,4.55,4.55,0,0,1-.12-1c0-.12,0-.24,0-.37A3.41,3.41,0,0,1,61,76.42a2.17,2.17,0,0,1,.78-.9,3.09,3.09,0,0,1,1-.39,3.49,3.49,0,0,1,.59,0l.6,0a1.93,1.93,0,0,1,1.28.79,4,4,0,0,1,.59,2.46Zm2.71-.92a1.48,1.48,0,0,0-.38-1,1.2,1.2,0,0,0-.94-.42,1.33,1.33,0,0,0-1,.39,1.44,1.44,0,0,0-.41,1Z" style="fill:#423c25"/><path d="M72.21,76a1.58,1.58,0,0,0-.58-.12,1.39,1.39,0,0,0-.3,0,1.36,1.36,0,0,0-.72.47,1.83,1.83,0,0,0-.39,1,4.67,4.67,0,0,0,0,.52,3.08,3.08,0,0,0,.06.61,1.79,1.79,0,0,0,.43.87,1.19,1.19,0,0,0,.84.39h.12a1.53,1.53,0,0,0,.78-.22,1.24,1.24,0,0,0,.49-1l1.11.23a2.33,2.33,0,0,1-.57,1.25,2,2,0,0,1-1.17.65,4,4,0,0,1-.68.06,3,3,0,0,1-.68-.07,2.18,2.18,0,0,1-1.07-.54A2.4,2.4,0,0,1,69.23,79a4.3,4.3,0,0,1-.17-1.17c0-.1,0-.2,0-.31a3.63,3.63,0,0,1,.35-1.34,2.23,2.23,0,0,1,.73-.9,2.93,2.93,0,0,1,.92-.39,3.32,3.32,0,0,1,.57,0,4.61,4.61,0,0,1,.52,0,2.16,2.16,0,0,1,1.16.53A2.06,2.06,0,0,1,74,76.78L72.88,77A1.26,1.26,0,0,0,72.21,76Z" style="fill:#423c25"/><path d="M75.77,76a2.18,2.18,0,0,1,1.14-.61,3.1,3.1,0,0,1,.69-.08,4.46,4.46,0,0,1,.86.1,1.43,1.43,0,0,1,1.08,1.13,8.08,8.08,0,0,1,.15,1.79c0,.4,0,.85,0,1.35v0c0,.28.11.42.34.42a1.05,1.05,0,0,0,.41-.1l.09,1a3.08,3.08,0,0,1-.74.11,1.05,1.05,0,0,1-1-.56,2.87,2.87,0,0,1-1,.59,3.12,3.12,0,0,1-.88.12h0a2.14,2.14,0,0,1-.84-.17,1.52,1.52,0,0,1-.65-.48,1.41,1.41,0,0,1-.28-.77.91.91,0,0,1,0-.17,2.24,2.24,0,0,1,.15-.78,1.67,1.67,0,0,1,.91-.86,7.88,7.88,0,0,1,2.5-.52,1.5,1.5,0,0,0-.19-.92,1.21,1.21,0,0,0-.74-.24h-.19a1.32,1.32,0,0,0-.7.16,1,1,0,0,0-.4.81l-1.12-.14A1.78,1.78,0,0,1,75.77,76Zm2.87,2.47a5,5,0,0,0-1.9.41.87.87,0,0,0-.46.71.13.13,0,0,0,0,.06.64.64,0,0,0,.27.57,1,1,0,0,0,.58.16h.17a1.85,1.85,0,0,0,.75-.21,5.86,5.86,0,0,0,.6-.41Z" style="fill:#423c25"/><path d="M85.05,76.41a1.61,1.61,0,0,0-.79-.25h-.12a1.26,1.26,0,0,0-.68.25,1.92,1.92,0,0,0-.44.52,3.31,3.31,0,0,0-.22,1.39l-.07,2.52-1.1,0-.09-6.09,1.14-.12,0,1.33a1.85,1.85,0,0,1,1-1,1.44,1.44,0,0,1,.53-.09,3,3,0,0,1,1.12.25Z" style="fill:#423c25"/><path d="M90.55,81.07l0-.95a1.76,1.76,0,0,1-.74.69,2.38,2.38,0,0,1-1.08.24,2.14,2.14,0,0,1-1.2-.39,2.05,2.05,0,0,1-.83-1.08,4.61,4.61,0,0,1-.25-1.42v-.07a5.09,5.09,0,0,1,.23-1.48,2.26,2.26,0,0,1,.84-1.26A1.86,1.86,0,0,1,88.61,75a3,3,0,0,1,.5,0,1.65,1.65,0,0,1,1.41,1.06l0-2.88h1.19v7.81Zm-2.93-2.95A2.38,2.38,0,0,0,88,79.46a1.18,1.18,0,0,0,1,.62,1.3,1.3,0,0,0,1.11-.56,2.27,2.27,0,0,0,.36-1.33v-.07c0-1.31-.48-2-1.37-2a1.26,1.26,0,0,0-1.1.61,2.33,2.33,0,0,0-.36,1.32Z" style="fill:#423c25"/><path d="M93.91,79.39a.63.63,0,0,1,.2.47.66.66,0,0,1-.2.48.72.72,0,0,1-.5.2.7.7,0,0,1-.49-.2.66.66,0,0,1-.2-.48.63.63,0,0,1,.2-.47.66.66,0,0,1,.49-.2A.68.68,0,0,1,93.91,79.39Z" style="fill:#423c25"/></g></g></svg>