<svg xmlns="http://www.w3.org/2000/svg" width="150" height="150" viewBox="0 0 150 150"><g id="a6798cb5-c0fc-43ae-9be6-b2a03535410a" data-name="fond"><rect x="0.3" y="-0.1" width="149.39" height="149.69" style="fill:#fff"/></g><g id="e281d536-331b-4d4a-9f9c-f24a7c7ef9f3" data-name="shuri peinture"><path d="M158.59,20.38l-13.37-.64A2.75,2.75,0,0,0,145,18l0,0a.15.15,0,0,0,.09.06l7.38.36-6.12-4.63h0v0a2.7,2.7,0,0,0,1.5-1Z" style="fill:#fff"/><path d="M153.14-3.26,146.43,8.31a2.87,2.87,0,0,0-1.63-.63V7.56a.23.23,0,0,0,.2-.11l2.91-5.54-6.4,2.82s0,0-.05,0l-.1,0a2.57,2.57,0,0,0-.14-1.8Z" style="fill:#fff"/><path d="M152.54,18.38,145.16,18a.15.15,0,0,1-.09-.06s0,0,0-.06l1.3-4.14,0,0h0Z" style="fill:#423c25"/><path d="M147.9,1.91,145,7.45a.23.23,0,0,1-.2.11.19.19,0,0,1-.14,0l-3.17-2.6a.11.11,0,0,1,0-.14s0,0,.05,0Z" style="fill:#423c25"/><path d="M146.4,13.72v0l0,0-1.3,4.14s0,0,0,.06l0,0a1.6,1.6,0,0,0-.21-.32c-.87-1-2.6-.75-3.6-.17-.11.07-2,1.21-1.69,3a2.31,2.31,0,0,0,.92,1.51l-.05.08a.11.11,0,0,0-.12,0l-4,1.08a.16.16,0,0,0-.12.16l-.13,0c.28-1.27-.92-2.49-2-3-.12-.06-2.16-1-3.44.36a2.29,2.29,0,0,0-.39.54l-.07,0a.08.08,0,0,0,0-.11l-3.09-2.15a.11.11,0,0,0-.08,0v-.08l.29,0c1.32-.29,1.89-1.94,1.86-3.09,0-.13-.1-2.37-1.86-2.91a2.82,2.82,0,0,0-1.55,0l0-.09a.13.13,0,0,0,.09-.1L126.91,9a.14.14,0,0,0-.07-.18l.06-.09c1,.77,2.52.39,3.43-.22.1-.07,1.95-1.33,1.48-3.11a2.49,2.49,0,0,0-.67-1.17l.1-.1a.15.15,0,0,0,.19.09L135.16,3a.21.21,0,0,0,.13-.11l.09,0-.07.19c-.41,1.28.74,2.6,1.76,3.14.12.06,2.11,1.09,3.45-.16a2.86,2.86,0,0,0,.83-1.37l.1,0a.11.11,0,0,0,0,.14l3.17,2.6a.19.19,0,0,0,.14,0v.12a1.92,1.92,0,0,0-.41.05c-1.3.3-1.85,2-1.8,3.12,0,.13.14,2.36,1.9,2.88A3.54,3.54,0,0,0,146.4,13.72ZM137.59,15a2.31,2.31,0,1,0-3.26.3A2.29,2.29,0,0,0,137.59,15Z" style="fill:#423c25"/><path d="M141.73,22.75V36.18l-7.18-11.29A2.64,2.64,0,0,0,136,23.35v-.08l.13,0a.19.19,0,0,0,0,.1l4,6.31.23-7.53a.11.11,0,0,0,0-.08l.05-.08a2.77,2.77,0,0,0,1.29.49Z" style="fill:#fff"/><path d="M140.42,22.17l-.23,7.53-4-6.31a.19.19,0,0,1,0-.1.16.16,0,0,1,.12-.16l4-1.08a.11.11,0,0,1,.12,0A.11.11,0,0,1,140.42,22.17Z" style="fill:#423c25"/><path d="M137.29,11.72A2.31,2.31,0,1,1,134,12,2.29,2.29,0,0,1,137.29,11.72Z" style="fill:#fff"/><path d="M130.32-10l6.54,11.68a2.6,2.6,0,0,0-1.48,1.26l-.09,0a.19.19,0,0,0,0-.15l-3.32-6L131.23,4a.17.17,0,0,0,0,.07l-.1.1a2.77,2.77,0,0,0-1.76-.72Z" style="fill:#fff"/><path d="M135.27,2.74a.19.19,0,0,1,0,.15.21.21,0,0,1-.13.11l-3.73,1.17a.15.15,0,0,1-.19-.09.17.17,0,0,1,0-.07L132-3.23Z" style="fill:#423c25"/><path d="M130.41,23.53l-12,6.09,6.88-11.46a2.79,2.79,0,0,0,1.74.65v.08a.16.16,0,0,0-.14.08l-3.64,6.1,6.94-3.86,0,0,.07,0a1.51,1.51,0,0,0-.18.44A2.68,2.68,0,0,0,130.41,23.53Z" style="fill:#fff"/><path d="M130.15,21.07a.08.08,0,0,1,0,.11l0,0-6.94,3.86,3.64-6.1a.16.16,0,0,1,.14-.08.11.11,0,0,1,.08,0Z" style="fill:#423c25"/><path d="M126.84,8.77a.14.14,0,0,1,.07.18l-1.12,3.59a.13.13,0,0,1-.09.1.17.17,0,0,1-.12,0l-6.49-4,7.68.16Z" style="fill:#423c25"/><path d="M126.9,8.68l-.06.09h-.07l-7.68-.16,6.49,4a.17.17,0,0,0,.12,0l0,.09a2.53,2.53,0,0,0-1.49,1l-11.44-7,13.38-.23a2.58,2.58,0,0,0,.55,2Z" style="fill:#fff"/><path d="M144.8,7.68a2.87,2.87,0,0,1,1.63.63l6.71-11.57-11.93,6.2a2.57,2.57,0,0,1,.14,1.8,2.86,2.86,0,0,1-.83,1.37c-1.34,1.25-3.33.22-3.45.16-1-.54-2.17-1.86-1.76-3.14l.07-.19a2.6,2.6,0,0,1,1.48-1.26L130.32-10l-.94,13.46a2.77,2.77,0,0,1,1.76.72,2.49,2.49,0,0,1,.67,1.17c.47,1.78-1.38,3-1.48,3.11-.91.61-2.47,1-3.43.22l-.18-.15a2.58,2.58,0,0,1-.55-2l-13.38.23,11.44,7a2.53,2.53,0,0,1,1.49-1,2.82,2.82,0,0,1,1.55,0c1.76.54,1.86,2.78,1.86,2.91,0,1.15-.54,2.8-1.86,3.09l-.29,0a2.79,2.79,0,0,1-1.74-.65l-6.88,11.46,12-6.09a2.68,2.68,0,0,1-.35-1.88,1.51,1.51,0,0,1,.18-.44,2.29,2.29,0,0,1,.39-.54c1.28-1.33,3.32-.42,3.44-.36,1,.47,2.23,1.69,2,3v.08a2.64,2.64,0,0,1-1.46,1.54l7.18,11.29V22.5a2.77,2.77,0,0,1-1.29-.49,2.31,2.31,0,0,1-.92-1.51c-.35-1.8,1.58-2.94,1.69-3,1-.58,2.73-.85,3.6.17A1.6,1.6,0,0,1,145,18a2.75,2.75,0,0,1,.2,1.76l13.37.64L147.9,12.72a2.7,2.7,0,0,1-1.5,1,3.54,3.54,0,0,1-1.91,0c-1.76-.52-1.9-2.75-1.9-2.88-.05-1.16.5-2.82,1.8-3.12A1.92,1.92,0,0,1,144.8,7.68Z" style="fill:none;stroke:#423c25;stroke-miterlimit:10;stroke-width:0.599213838577271px"/><path d="M130.17,21.18l0,0-6.94,3.86,3.64-6.1a.16.16,0,0,1,.14-.08.11.11,0,0,1,.08,0l3.09,2.15A.08.08,0,0,1,130.17,21.18Z" style="fill:none;stroke:#423c25;stroke-miterlimit:10;stroke-width:0.599213838577271px"/><path d="M136.15,23.29a.19.19,0,0,0,0,.1l4,6.31.23-7.53a.11.11,0,0,0,0-.08.11.11,0,0,0-.12,0l-4,1.08A.16.16,0,0,0,136.15,23.29Z" style="fill:none;stroke:#423c25;stroke-miterlimit:10;stroke-width:0.599213838577271px"/><path d="M146.4,13.74h0l6.12,4.63L145.16,18a.15.15,0,0,1-.09-.06s0,0,0-.06l1.3-4.14Z" style="fill:none;stroke:#423c25;stroke-miterlimit:10;stroke-width:0.599213838577271px"/><path d="M141.45,4.77s0,0,.05,0l6.4-2.82L145,7.45a.23.23,0,0,1-.2.11.19.19,0,0,1-.14,0l-3.17-2.6A.11.11,0,0,1,141.45,4.77Z" style="fill:none;stroke:#423c25;stroke-miterlimit:10;stroke-width:0.599213838577271px"/><path d="M135.29,2.89a.19.19,0,0,0,0-.15l-3.32-6L131.23,4a.17.17,0,0,0,0,.07.15.15,0,0,0,.19.09L135.16,3A.21.21,0,0,0,135.29,2.89Z" style="fill:none;stroke:#423c25;stroke-miterlimit:10;stroke-width:0.599213838577271px"/><path d="M125.7,12.64a.17.17,0,0,1-.12,0l-6.49-4,7.68.16h.07a.14.14,0,0,1,.07.18l-1.12,3.59A.13.13,0,0,1,125.7,12.64Z" style="fill:none;stroke:#423c25;stroke-miterlimit:10;stroke-width:0.599213838577271px"/><path d="M137.29,11.72A2.31,2.31,0,1,1,134,12,2.29,2.29,0,0,1,137.29,11.72Z" style="fill:none;stroke:#423c25;stroke-miterlimit:10;stroke-width:0.599213838577271px"/><path d="M158.59,20.38l-13.37-.64A2.75,2.75,0,0,0,145,18l0,0a.15.15,0,0,0,.09.06l7.38.36-6.12-4.63h0v0a2.7,2.7,0,0,0,1.5-1Z" style="fill:#fff"/><path d="M153.14-3.26,146.43,8.31a2.87,2.87,0,0,0-1.63-.63V7.56a.23.23,0,0,0,.2-.11l2.91-5.54-6.4,2.82s0,0-.05,0l-.1,0a2.57,2.57,0,0,0-.14-1.8Z" style="fill:#fff"/><path d="M152.54,18.38,145.16,18a.15.15,0,0,1-.09-.06s0,0,0-.06l1.3-4.14,0,0h0Z" style="fill:#423c25"/><path d="M147.9,1.91,145,7.45a.23.23,0,0,1-.2.11.19.19,0,0,1-.14,0l-3.17-2.6a.11.11,0,0,1,0-.14s0,0,.05,0Z" style="fill:#423c25"/><path d="M146.4,13.72v0l0,0-1.3,4.14s0,0,0,.06l0,0a1.6,1.6,0,0,0-.21-.32c-.87-1-2.6-.75-3.6-.17-.11.07-2,1.21-1.69,3a2.31,2.31,0,0,0,.92,1.51l-.05.08a.11.11,0,0,0-.12,0l-4,1.08a.16.16,0,0,0-.12.16l-.13,0c.28-1.27-.92-2.49-2-3-.12-.06-2.16-1-3.44.36a2.29,2.29,0,0,0-.39.54l-.07,0a.08.08,0,0,0,0-.11l-3.09-2.15a.11.11,0,0,0-.08,0v-.08l.29,0c1.32-.29,1.89-1.94,1.86-3.09,0-.13-.1-2.37-1.86-2.91a2.82,2.82,0,0,0-1.55,0l0-.09a.13.13,0,0,0,.09-.1L126.91,9a.14.14,0,0,0-.07-.18l.06-.09c1,.77,2.52.39,3.43-.22.1-.07,1.95-1.33,1.48-3.11a2.49,2.49,0,0,0-.67-1.17l.1-.1a.15.15,0,0,0,.19.09L135.16,3a.21.21,0,0,0,.13-.11l.09,0-.07.19c-.41,1.28.74,2.6,1.76,3.14.12.06,2.11,1.09,3.45-.16a2.86,2.86,0,0,0,.83-1.37l.1,0a.11.11,0,0,0,0,.14l3.17,2.6a.19.19,0,0,0,.14,0v.12a1.92,1.92,0,0,0-.41.05c-1.3.3-1.85,2-1.8,3.12,0,.13.14,2.36,1.9,2.88A3.54,3.54,0,0,0,146.4,13.72ZM137.59,15a2.31,2.31,0,1,0-3.26.3A2.29,2.29,0,0,0,137.59,15Z" style="fill:#423c25"/><path d="M141.73,22.75V36.18l-7.18-11.29A2.64,2.64,0,0,0,136,23.35v-.08l.13,0a.19.19,0,0,0,0,.1l4,6.31.23-7.53a.11.11,0,0,0,0-.08l.05-.08a2.77,2.77,0,0,0,1.29.49Z" style="fill:#fff"/><path d="M140.42,22.17l-.23,7.53-4-6.31a.19.19,0,0,1,0-.1.16.16,0,0,1,.12-.16l4-1.08a.11.11,0,0,1,.12,0A.11.11,0,0,1,140.42,22.17Z" style="fill:#423c25"/><path d="M137.29,11.72A2.31,2.31,0,1,1,134,12,2.29,2.29,0,0,1,137.29,11.72Z" style="fill:#fff"/><path d="M130.32-10l6.54,11.68a2.6,2.6,0,0,0-1.48,1.26l-.09,0a.19.19,0,0,0,0-.15l-3.32-6L131.23,4a.17.17,0,0,0,0,.07l-.1.1a2.77,2.77,0,0,0-1.76-.72Z" style="fill:#fff"/><path d="M135.27,2.74a.19.19,0,0,1,0,.15.21.21,0,0,1-.13.11l-3.73,1.17a.15.15,0,0,1-.19-.09.17.17,0,0,1,0-.07L132-3.23Z" style="fill:#423c25"/><path d="M130.41,23.53l-12,6.09,6.88-11.46a2.79,2.79,0,0,0,1.74.65v.08a.16.16,0,0,0-.14.08l-3.64,6.1,6.94-3.86,0,0,.07,0a1.51,1.51,0,0,0-.18.44A2.68,2.68,0,0,0,130.41,23.53Z" style="fill:#fff"/><path d="M130.15,21.07a.08.08,0,0,1,0,.11l0,0-6.94,3.86,3.64-6.1a.16.16,0,0,1,.14-.08.11.11,0,0,1,.08,0Z" style="fill:#423c25"/><path d="M126.84,8.77a.14.14,0,0,1,.07.18l-1.12,3.59a.13.13,0,0,1-.09.1.17.17,0,0,1-.12,0l-6.49-4,7.68.16Z" style="fill:#423c25"/><path d="M126.9,8.68l-.06.09h-.07l-7.68-.16,6.49,4a.17.17,0,0,0,.12,0l0,.09a2.53,2.53,0,0,0-1.49,1l-11.44-7,13.38-.23a2.58,2.58,0,0,0,.55,2Z" style="fill:#fff"/><path d="M144.8,7.68a2.87,2.87,0,0,1,1.63.63l6.71-11.57-11.93,6.2a2.57,2.57,0,0,1,.14,1.8,2.86,2.86,0,0,1-.83,1.37c-1.34,1.25-3.33.22-3.45.16-1-.54-2.17-1.86-1.76-3.14l.07-.19a2.6,2.6,0,0,1,1.48-1.26L130.32-10l-.94,13.46a2.77,2.77,0,0,1,1.76.72,2.49,2.49,0,0,1,.67,1.17c.47,1.78-1.38,3-1.48,3.11-.91.61-2.47,1-3.43.22l-.18-.15a2.58,2.58,0,0,1-.55-2l-13.38.23,11.44,7a2.53,2.53,0,0,1,1.49-1,2.82,2.82,0,0,1,1.55,0c1.76.54,1.86,2.78,1.86,2.91,0,1.15-.54,2.8-1.86,3.09l-.29,0a2.79,2.79,0,0,1-1.74-.65l-6.88,11.46,12-6.09a2.68,2.68,0,0,1-.35-1.88,1.51,1.51,0,0,1,.18-.44,2.29,2.29,0,0,1,.39-.54c1.28-1.33,3.32-.42,3.44-.36,1,.47,2.23,1.69,2,3v.08a2.64,2.64,0,0,1-1.46,1.54l7.18,11.29V22.5a2.77,2.77,0,0,1-1.29-.49,2.31,2.31,0,0,1-.92-1.51c-.35-1.8,1.58-2.94,1.69-3,1-.58,2.73-.85,3.6.17A1.6,1.6,0,0,1,145,18a2.75,2.75,0,0,1,.2,1.76l13.37.64L147.9,12.72a2.7,2.7,0,0,1-1.5,1,3.54,3.54,0,0,1-1.91,0c-1.76-.52-1.9-2.75-1.9-2.88-.05-1.16.5-2.82,1.8-3.12A1.92,1.92,0,0,1,144.8,7.68Z" style="fill:none;stroke:#423c25;stroke-miterlimit:10;stroke-width:0.599213838577271px"/><path d="M130.17,21.18l0,0-6.94,3.86,3.64-6.1a.16.16,0,0,1,.14-.08.11.11,0,0,1,.08,0l3.09,2.15A.08.08,0,0,1,130.17,21.18Z" style="fill:none;stroke:#423c25;stroke-miterlimit:10;stroke-width:0.599213838577271px"/><path d="M136.15,23.29a.19.19,0,0,0,0,.1l4,6.31.23-7.53a.11.11,0,0,0,0-.08.11.11,0,0,0-.12,0l-4,1.08A.16.16,0,0,0,136.15,23.29Z" style="fill:none;stroke:#423c25;stroke-miterlimit:10;stroke-width:0.599213838577271px"/><path d="M146.4,13.74h0l6.12,4.63L145.16,18a.15.15,0,0,1-.09-.06s0,0,0-.06l1.3-4.14Z" style="fill:none;stroke:#423c25;stroke-miterlimit:10;stroke-width:0.599213838577271px"/><path d="M141.45,4.77s0,0,.05,0l6.4-2.82L145,7.45a.23.23,0,0,1-.2.11.19.19,0,0,1-.14,0l-3.17-2.6A.11.11,0,0,1,141.45,4.77Z" style="fill:none;stroke:#423c25;stroke-miterlimit:10;stroke-width:0.599213838577271px"/><path d="M135.29,2.89a.19.19,0,0,0,0-.15l-3.32-6L131.23,4a.17.17,0,0,0,0,.07.15.15,0,0,0,.19.09L135.16,3A.21.21,0,0,0,135.29,2.89Z" style="fill:none;stroke:#423c25;stroke-miterlimit:10;stroke-width:0.599213838577271px"/><path d="M125.7,12.64a.17.17,0,0,1-.12,0l-6.49-4,7.68.16h.07a.14.14,0,0,1,.07.18l-1.12,3.59A.13.13,0,0,1,125.7,12.64Z" style="fill:none;stroke:#423c25;stroke-miterlimit:10;stroke-width:0.599213838577271px"/><path d="M137.29,11.72A2.31,2.31,0,1,1,134,12,2.29,2.29,0,0,1,137.29,11.72Z" style="fill:none;stroke:#423c25;stroke-miterlimit:10;stroke-width:0.599213838577271px"/></g><g id="beffe7d6-d86d-4e11-9215-e1856ff08af2" data-name="Textes Cartes VA vecto"><g id="bfd6668d-287e-493d-b68e-d7f94b18f027" data-name="Calque 20 - copie 3"><path d="M16.5,27.91a.16.16,0,0,1-.16,0,3.15,3.15,0,0,0-.53,0c-.17,0-.26,0-.28-.13L15,27.72l-.45-.11c-.1,0-.15,0-.17,0a.2.2,0,0,1,0-.07c-.11,0-.14-.06-.1-.08s0,0,0-.1,0-.18.21-.38a3.56,3.56,0,0,1-.06-.44.69.69,0,0,1,0-.31l.16-.52.19-.34s0-.06.09-.06a5.71,5.71,0,0,1,.6.06.52.52,0,0,0-.09-.12L15.22,25l-.2-.18c0-.06-.07-.08,0-.08l1-3.84s0,0,.09-.09l.2-.16.19-.17.09-.1s0-.07,0-.16,0-.2,0-.31v-.48a2.33,2.33,0,0,1,.09-.23l.16-.39a3.54,3.54,0,0,1,.19-.39.75.75,0,0,1,.15-.21.67.67,0,0,1,.13-.15l.14-.15.05-.18h-.46c-.22,0-.31-.05-.27-.16s0-.07.06-.19.07-.18.08-.22l.88-.05s0,0-.12-.08L17.42,17l-.27-.13c-.09,0-.13-.07-.13-.08l.11-.28,0-.11.06-.27a1.5,1.5,0,0,0,0-.18,3,3,0,0,0,.13-.45.57.57,0,0,1,.22-.36,2.08,2.08,0,0,1,.87-.39,11.27,11.27,0,0,1,1.21-.23c.42-.05.82-.08,1.19-.09s.62,0,.77,0l.62,0H23a4.15,4.15,0,0,1,.78.33,3.83,3.83,0,0,1,.67.48,1.69,1.69,0,0,1,.49.44.92.92,0,0,1,.05.6c0,.35,0,.65,0,.91s-.05.5-.08.7-.06.39-.1.56-.07.33-.11.48a1.2,1.2,0,0,1-.35.64,3.42,3.42,0,0,1-.52.4l-.54.38a1.29,1.29,0,0,0-.43.54,2,2,0,0,1,.33.45,2.91,2.91,0,0,1,.25.59,2.57,2.57,0,0,1,.1.7,3.26,3.26,0,0,1-.11.79l-.18.5c-.06.16-.13.35-.22.56s-.2.44-.33.7-.3.55-.49.87a3,3,0,0,1-.18.36,1.71,1.71,0,0,1-.21.26,1.61,1.61,0,0,1-.3.21c-.11.07-.26.14-.44.23a9.33,9.33,0,0,1-.93.48,7.29,7.29,0,0,1-1,.33h-.68l-.66.05a1.27,1.27,0,0,0-.28.06A1.33,1.33,0,0,1,17,28l0-.18c0-.14,0-.22,0-.23ZM18,25l.35.11a4.64,4.64,0,0,0,.51.11.31.31,0,0,0,.23-.15c.14-.24.28-.49.45-.76a4.82,4.82,0,0,0,.4-.78l0-.18-.25-.63a.52.52,0,0,0-.08-.25.9.9,0,0,0-.21-.23,2.48,2.48,0,0,0-.26-.19,1.12,1.12,0,0,0-.24-.1l-.16.61c0,.12-.1.36-.21.7s-.23.74-.38,1.17a.23.23,0,0,1,0,.17.86.86,0,0,1-.07.1Zm1.73-5.06a.23.23,0,0,0,.19.15.85.85,0,0,0,.7-.49l.61-.62.05-.18c.06-.25.11-.51.16-.76a5.1,5.1,0,0,0,.09-.75s-.05,0-.15-.08l-.21-.08-.31.05-.32.08-.26.06-.13,0-.15,0s0,.06-.06.13l0,.07c.24,0,.35.1.35.23a3.53,3.53,0,0,1-.1.56,2.65,2.65,0,0,1-.13.45c0,.09-.07.17-.1.24a1.61,1.61,0,0,0-.12.23,2.17,2.17,0,0,0-.13.48S19.68,19.84,19.72,19.93Z" style="fill:#423c25"/><path d="M23.53,26.08a4.71,4.71,0,0,1,.35-.86,4.2,4.2,0,0,0,.35-.86,13.44,13.44,0,0,0,.38-1.68A14.09,14.09,0,0,1,25,21a8.3,8.3,0,0,1,.39-1,5.51,5.51,0,0,0,.38-1l0-.07.07-.2v-.05c0-.06-.07-.11-.17-.13a.66.66,0,0,0-.28,0l-.3-.34a.08.08,0,0,1,0-.07l.31-.38c.08-.09.15-.18.23-.26l.12-.15.34-.07.13,0-.17-.13a.54.54,0,0,0-.3-.1s0-.05,0-.06a.49.49,0,0,1,.28-.29,1.83,1.83,0,0,1,.53-.18,4.17,4.17,0,0,1,.63-.08l.59,0h.34c.4,0,.8,0,1.19,0s.78.05,1.19.05a1.5,1.5,0,0,0,.37-.05,1.4,1.4,0,0,1,.37,0l0,.14c0,.1-.06.15-.07.15L31,16.9a1.34,1.34,0,0,0-.11.17l-.06.14-.41.23.29.24,0,.14a1,1,0,0,1-.32.36,2.33,2.33,0,0,1-.52.27q-.28.11-.57.18l-.45.09-.09.07a.2.2,0,0,0-.06.14l-.09.31a1.73,1.73,0,0,1-.1.33,2.9,2.9,0,0,0-.09.28l0,.07a.29.29,0,0,0,0,.12.11.11,0,0,1-.07.11l-.34.18.28,0s.05,0,0,.09-.05.11-.07.16l0,.07s0,.07,0,.07h.09a3.46,3.46,0,0,0,.7-.07,3.27,3.27,0,0,1,.68-.07.27.27,0,0,1,.26.12A.47.47,0,0,1,30,21a.6.6,0,0,1-.21.22,2.69,2.69,0,0,1-.38.2l-.36.18c-.11.06-.17.1-.18.14s0,0,.11.06a1.44,1.44,0,0,1,.25.08.92.92,0,0,1,.24.13.2.2,0,0,1,0,.25.77.77,0,0,1-.34.42,1.74,1.74,0,0,1-.47.16l-.52.07a1.45,1.45,0,0,0-.5.15,1.88,1.88,0,0,0-.12.23,3,3,0,0,0-.17.43c-.05.16-.11.31-.15.44s-.08.23-.09.27h0a1.64,1.64,0,0,0,0,.25c0,.1,0,.2,0,.29a2.75,2.75,0,0,0-.05.34H28.3a.14.14,0,0,1,.13.05.12.12,0,0,1,0,.1.7.7,0,0,1,0,.14.24.24,0,0,0,0,.12s0,.07.08.1l.14.1a.44.44,0,0,1,.12.15.39.39,0,0,1,0,.26.38.38,0,0,1-.22.23l-.38.14-.39.13a.32.32,0,0,0-.21.2,1.23,1.23,0,0,1,.12.2l0,.05a.28.28,0,0,1-.2.24,3.27,3.27,0,0,1-.41.05,7,7,0,0,0-.93.11,1.72,1.72,0,0,1-.75,0l-.54-.14-.25.14a.36.36,0,0,1-.26,0,1.13,1.13,0,0,0-.3,0h-.19a.83.83,0,0,1-.42-.7A2.61,2.61,0,0,1,23.53,26.08Z" style="fill:#423c25"/><path d="M31.15,27.14s-.08,0-.14.08l-.16.17a1.29,1.29,0,0,1-.16.17c-.05.06-.09.08-.12.08s-.19-.11-.18-.33a3.88,3.88,0,0,1,.1-.76,6.55,6.55,0,0,1,.21-.82c.08-.27.14-.45.16-.54C31.17,24.1,31.54,23,32,22s.78-2.14,1.09-3.23c0,0,0-.05,0-.09s0-.05,0-.05H31.65a.36.36,0,0,1,.12-.18.42.42,0,0,0,.11-.18v-.07c-.08-.11-.12-.17-.12-.2a.21.21,0,0,1,.15-.12,1,1,0,0,1,.3-.08l.3,0h.22l-.25-.16a1.24,1.24,0,0,1-.27,0,.5.5,0,0,1-.25-.09.42.42,0,0,1-.17-.15.3.3,0,0,1,0-.23.88.88,0,0,1,.14-.23.52.52,0,0,1,.21-.17l.81-.14h.35l.77,0c.29,0,.6,0,.91,0h3.4a.36.36,0,0,1-.15.25.57.57,0,0,1-.22.07l-.25,0a.39.39,0,0,0-.22.14.82.82,0,0,0,0,.51.85.85,0,0,1,0,.5,1.43,1.43,0,0,1-.14.32,2.31,2.31,0,0,1-.32.32.57.57,0,0,1-.38.09l-.43,0a.49.49,0,0,0-.25.06l-.06.18c0,.09-.07.19-.11.28l-.12.29c0,.09-.06.16-.07.2l-.07.27c0,.08-.07.22-.14.43s-.13.41-.21.63-.15.43-.23.63a2.87,2.87,0,0,1-.16.4l-1.34,4.74a2.24,2.24,0,0,1-.14.34,1.39,1.39,0,0,1-.26.35.9.9,0,0,0-.45,0,.76.76,0,0,0-.24.18l-.18.21a.37.37,0,0,1-.27.1.32.32,0,0,1-.27-.13,1.13,1.13,0,0,1-.15-.29c-.05-.1-.09-.2-.14-.28A.24.24,0,0,0,31.15,27.14Z" style="fill:#423c25"/><path d="M40,24a.1.1,0,0,0-.07,0l-.15.29a3.66,3.66,0,0,1-.16.48l-.26.72-.25.71a4.34,4.34,0,0,0-.15.49.56.56,0,0,1-.06.26,1.47,1.47,0,0,1-.12.22c0,.05,0,.07-.11.07l-.09,0-.08,0s0,0,0,0l-.13.58h-.09c-.07,0-.1,0-.1,0-.24,0-.39-.14-.44-.3a.58.58,0,0,1,.11-.53c-.06,0-.08-.05-.07-.05h-.05a.21.21,0,0,0-.16.08.83.83,0,0,0-.13.18l-.1.19a.25.25,0,0,1-.1.12h0l0,0H36.8l-.19,0-.19,0h-.11a.24.24,0,0,1-.27-.15A.92.92,0,0,1,36,27.2a2.15,2.15,0,0,1,0-.45,1.1,1.1,0,0,1,.07-.31l0-.11s0-.11.07-.15a.22.22,0,0,0,0-.11V26l1.46-4.1.06-.17.06-.17a.67.67,0,0,0,.1-.18c0-.1.09-.2.13-.31a1.88,1.88,0,0,0,.12-.3,1.7,1.7,0,0,1,.06-.18s.05-.1.09-.2l.16-.32a3,3,0,0,1,.18-.32,1,1,0,0,1,.15-.2l.12-.14c.07-.09.11-.13.11-.15l0-.07,0-.07h-.18a1.43,1.43,0,0,1-.29,0,.83.83,0,0,1-.25-.06c-.07,0-.1-.07-.07-.13a.5.5,0,0,1,.1-.14.3.3,0,0,0,.11-.15l.1,0,.16,0,.15-.06s.05,0,0,0l-.34-.2.07-.23s0,0,0-.09,0-.06,0-.07a.36.36,0,0,1,.17-.07.86.86,0,0,1,.17,0l.15,0a.11.11,0,0,0,.09-.09l-.32-.41c-.08-.1-.05-.19.08-.28a2.5,2.5,0,0,1,.58-.25,7.34,7.34,0,0,1,.86-.2l.94-.17.82-.1a4.69,4.69,0,0,1,.52,0,1.48,1.48,0,0,1,.51,0,2,2,0,0,0,.49.06.26.26,0,0,0,.14-.06.42.42,0,0,1,.18,0h.07a3.51,3.51,0,0,1,1.35.7,1.47,1.47,0,0,1,.4.39.87.87,0,0,1,0,.54l-.36.32.25.15,0,.28-.06.16a2.51,2.51,0,0,0,0,.77,2.15,2.15,0,0,1-.08.79.71.71,0,0,1-.14.32,1.28,1.28,0,0,1-.32.26l-1.71,2-.07.27c.09.65.16,1.31.22,2a6.58,6.58,0,0,1-.15,2.07,1.11,1.11,0,0,1-.29,0l-.17,0-.15,0-.23,0a.1.1,0,0,0,0,.09s0,.07,0,.09a1.1,1.1,0,0,1-.13.17l-.23.25a2.25,2.25,0,0,1-.24.21.35.35,0,0,1-.19.09c-.07,0-.11,0-.12-.07l0-.17a.71.71,0,0,0,0-.17.16.16,0,0,0-.15-.07.24.24,0,0,0-.11.06,1,1,0,0,1-.15.13l-.15.15-.11.09s-.05,0-.11.07-.23-.06-.31-.23a2.18,2.18,0,0,1-.18-.62,7.2,7.2,0,0,1-.08-.86c0-.32,0-.62,0-.92v-.79c0-.23,0-.39,0-.49S40.14,24,40,24Zm.61-2,0,.13c0,.05,0,.08.09.11a2.21,2.21,0,0,0,.5-.15.73.73,0,0,0,.35-.32l1-1.61,0-.17a.42.42,0,0,0,0-.31c0-.1-.08-.2-.12-.3s-.1-.21-.14-.31a.55.55,0,0,1,0-.31c0-.09,0-.13-.15-.13h-.05l-.26.05-.33.05-.3,0-.15,0a.48.48,0,0,0-.15,0s0,.05-.07.1V19a.57.57,0,0,1,.47.22.79.79,0,0,1,.07.5A5.93,5.93,0,0,1,41,20.89,7.32,7.32,0,0,0,40.65,22Z" style="fill:#423c25"/><path d="M44.77,27H44.7l-.09.07-.2.7s0,0,0,0a.12.12,0,0,0-.07,0h-.06c-.07,0-.12-.06-.14-.18a.46.46,0,0,1,0-.24,1.37,1.37,0,0,0,0-.2c0-.09.05-.19.08-.3l.09-.28.06-.19a.14.14,0,0,1-.06-.1l0-.13,0-.11c0-.12.09-.3.18-.55s.18-.53.29-.84l.36-1c.13-.35.24-.68.36-1l.3-.84c.09-.25.16-.43.19-.55.16-.28.32-.55.5-.83a6.87,6.87,0,0,0,.47-.82l.85-1.74A11.63,11.63,0,0,1,49,16.22s.08,0,.14.06a2,2,0,0,1,.19.26l.19.28c.06.09.1.14.13.14s.07-.05.11-.14l.12-.28a1.82,1.82,0,0,1,.11-.28c0-.08.06-.12.09-.11h1.64L52,16s.06,0,.07,0a.33.33,0,0,1,0,.15c0,.05,0,.1,0,.15s0,.07,0,.07h.19a.79.79,0,0,1,.22,0,.29.29,0,0,1,.16.07s.05.09,0,.18l-.51,1.72a1.4,1.4,0,0,0,0,.4,2.63,2.63,0,0,0,.06.39c0,.13.06.26.08.38a1.38,1.38,0,0,1,0,.41c0,.14-.09.39-.17.74s-.16.73-.24,1.12-.17.77-.24,1.12-.14.6-.18.75v.07a14.28,14.28,0,0,1-.22,1.71c-.11.57-.24,1.14-.41,1.73a1.51,1.51,0,0,1-.48-.07,1.45,1.45,0,0,0-.47-.07.19.19,0,0,0-.14.07l-.12.15-.13.15a.23.23,0,0,1-.17.07c-.06,0-.08,0-.07-.12s0-.18,0-.28,0-.19,0-.28,0-.12-.05-.12,0,0-.08.08l-.13.17-.19.25-.12.21a.51.51,0,0,1-.18.2s0,.05-.09.07v0h0c-.18,0-.27-.12-.27-.35a3.56,3.56,0,0,1,.06-.77c0-.28.09-.54.12-.77s0-.35-.09-.35h-.5a.45.45,0,0,0-.41.16l-.25.86-.23.86c0,.07-.07.18-.14.32a.81.81,0,0,1-.12.22l-.1.07H45.33L45,27.66l-.17-.07a.19.19,0,0,1,0-.15,1.6,1.6,0,0,1,.05-.21.68.68,0,0,0,0-.19C44.9,27,44.86,27,44.77,27Zm3.53-3.91,0,.15c0,.07,0,.11.07.12a2.66,2.66,0,0,0,.5-.09.44.44,0,0,0,.36-.3.23.23,0,0,1,.07-.07l.06-.07a2.55,2.55,0,0,1,0-.31c0-.14,0-.29.08-.46s0-.31.08-.45a1.46,1.46,0,0,1,.08-.31.49.49,0,0,1,0-.14l0-.22a.62.62,0,0,0,0-.19c0-.06,0-.09,0-.09s-.24.12-.37.36a7.23,7.23,0,0,0-.41.79,8.85,8.85,0,0,0-.35.83C48.37,22.85,48.32,23,48.3,23.05Z" style="fill:#423c25"/><path d="M57.17,22l-.28.5a.1.1,0,0,1,0,.11c-.15.75-.28,1.49-.41,2.21S56.21,26.28,56,27l-.09.31-.11.07-.09.07h-.09l-.31-.14h-.09l-.18.13-.21.16-.16,0-.32-.07a.67.67,0,0,1-.2-.07s0,0,0-.05a.09.09,0,0,0,0-.09v-.09c0-.07,0-.11,0-.12H54s-.07,0-.12.09l-.14.23a.83.83,0,0,1-.2.22.48.48,0,0,1-.31.1L53,27.62l-.2-.08q-.09,0-.09-.06a.55.55,0,0,0,.08-.2c0-.09.07-.2.1-.32l.22-.75c0-.12,0-.22.06-.31a1.42,1.42,0,0,1,.06-.21.93.93,0,0,0,.05-.2c0-.09,0-.19,0-.3s0-.21.06-.3,0-.14,0-.17l.08-.1.17-.17.14-.16c0-.05.06-.07,0-.07L53.47,24s0-.11,0-.25a.47.47,0,0,1,.16-.29l.75-.52-.93-.71v0a.48.48,0,0,0,0-.24c0-.08,0-.17-.07-.26s-.07-.17-.1-.26a.61.61,0,0,1-.06-.25.81.81,0,0,0,0-.34l-.12-.36c0-.13-.08-.26-.11-.38a1.5,1.5,0,0,1,0-.35l0-.23c0-.11.05-.23.08-.35s.06-.25.08-.36l.06-.24a2.56,2.56,0,0,0,0-.67,2.35,2.35,0,0,1,.07-.68,1.17,1.17,0,0,0,0-.11.14.14,0,0,1,.12-.05h.07l0,0s0,0,0,0l.31-.21h0a1.74,1.74,0,0,1,.39.05,1.18,1.18,0,0,0,.37,0c.18,0,.28,0,.32-.11l.09-.24a.57.57,0,0,1,.12-.26q.08-.12.36-.12a.23.23,0,0,1,.2.11.64.64,0,0,1,.1.24,1.27,1.27,0,0,1,0,.28,1.79,1.79,0,0,1,0,.21c0,.15,0,.34,0,.58s0,.49,0,.73,0,.45,0,.64a1.64,1.64,0,0,1,0,.33.2.2,0,0,1,0,.11.23.23,0,0,0,0,.16l1.78-2.83a.4.4,0,0,1,.37-.22.57.57,0,0,1,.34.17,1.33,1.33,0,0,1,.29.31.42.42,0,0,0,.08-.21l.06-.28a.84.84,0,0,1,.07-.24.16.16,0,0,1,.15-.11,1,1,0,0,1,.52.11l.39.25h.08a.44.44,0,0,0,.25-.08,1,1,0,0,1,.23-.13.15.15,0,0,1,.07.12.53.53,0,0,1,0,.13l0,.05,0,0s0,.11-.08.22l-.13.33-.14.31-.08.15a9.44,9.44,0,0,1-.58.93c-.22.31-.46.62-.7.93s-.49.61-.75.91l-.71.83v0Z" style="fill:#423c25"/><path d="M57.77,27H57.7l-.09.07-.2.7s0,0,0,0a.18.18,0,0,0-.08,0h0c-.07,0-.12-.06-.14-.18s0-.2,0-.24l0-.2c0-.09.05-.19.08-.3s.05-.19.08-.28a1.67,1.67,0,0,1,.07-.19.14.14,0,0,1-.06-.1l0-.13,0-.11.18-.55c.09-.25.18-.53.3-.84l.36-1q.18-.52.36-1l.3-.84c.09-.25.15-.43.19-.55.15-.28.32-.55.5-.83a6.87,6.87,0,0,0,.47-.82l.85-1.74A11.63,11.63,0,0,1,62,16.22s.08,0,.14.06.12.16.19.26.13.19.19.28.1.14.12.14.08-.05.12-.14l.12-.28c0-.1.07-.2.1-.28s.07-.12.09-.11h1.65L65,16s.06,0,.07,0,0,.09,0,.15a.77.77,0,0,0,0,.15c0,.05,0,.07,0,.07h.19a.7.7,0,0,1,.21,0,.33.33,0,0,1,.17.07s0,.09,0,.18l-.5,1.72a1.12,1.12,0,0,0,0,.4,2.63,2.63,0,0,0,.06.39c0,.13,0,.26.08.38a1.82,1.82,0,0,1,0,.41c0,.14-.1.39-.17.74s-.16.73-.25,1.12-.16.77-.24,1.12-.13.6-.17.75l0,.07a12.48,12.48,0,0,1-.21,1.71c-.11.57-.25,1.14-.41,1.73a1.51,1.51,0,0,1-.48-.07,1.49,1.49,0,0,0-.47-.07.17.17,0,0,0-.14.07l-.12.15c0,.05-.09.11-.14.15a.21.21,0,0,1-.16.07c-.06,0-.08,0-.07-.12s0-.18,0-.28,0-.19.05-.28,0-.12-.05-.12,0,0-.09.08l-.12.17-.19.25-.12.21a.74.74,0,0,1-.18.2s0,.05-.09.07v0h0c-.18,0-.27-.12-.28-.35a5.52,5.52,0,0,1,.06-.77c0-.28.09-.54.13-.77s0-.35-.09-.35h-.5a.45.45,0,0,0-.41.16l-.25.86-.24.86c0,.07-.07.18-.13.32l-.12.22-.11.07h-1.3L58,27.66l-.16-.07a.24.24,0,0,1,0-.15,1.66,1.66,0,0,1,.06-.21.43.43,0,0,0,0-.19C57.9,27,57.85,27,57.77,27Zm3.53-3.91,0,.15c0,.07,0,.11.07.12a2.81,2.81,0,0,0,.5-.09.45.45,0,0,0,.36-.3.19.19,0,0,1,.06-.07l.07-.07a2.55,2.55,0,0,1,0-.31c0-.14,0-.29.07-.46s.05-.31.08-.45a2.55,2.55,0,0,1,.08-.31s0-.07,0-.14,0-.14,0-.22a1.28,1.28,0,0,0,0-.19c0-.06,0-.09,0-.09s-.23.12-.37.36-.27.5-.41.79-.25.57-.35.83S61.31,23,61.3,23.05Z" style="fill:#423c25"/><path d="M67.84,17a2.7,2.7,0,0,1,.52-.44,2.35,2.35,0,0,1,.67-.27,3.87,3.87,0,0,1,.89-.09H70s0,0,0,.11a.8.8,0,0,1,0,.21l0,.11.41-.27-.22,2.26c-.06,0-.09.05-.1.07l0,.09-.09.27c-.11.36-.2.69-.27,1s-.16.63-.26,1-.23.85-.38,1.4-.35,1.27-.6,2.15c-.07.27-.11.47-.13.6a.28.28,0,0,0,.13.31,1.43,1.43,0,0,0,.56.13l1.13.09a.37.37,0,0,1,.08.21,1.56,1.56,0,0,1,0,.22.33.33,0,0,1-.07.13.79.79,0,0,1-.12.15l-.1.14a.14.14,0,0,0,0,.12l0,.08,0,.13.08.18v.08a.69.69,0,0,1-.17.15l-.32.2a2.37,2.37,0,0,1-.34.19.53.53,0,0,1-.2.08l-.23-.09s-.06,0-.09,0a.11.11,0,0,1-.12.07h-.11a13.64,13.64,0,0,1-1.81-.12,8,8,0,0,0-1.83-.06.67.67,0,0,1-.18-.2.49.49,0,0,1,0-.3.62.62,0,0,1,.08-.12.36.36,0,0,0,.07-.1v-.05l-.07-.27,0,0,1,.05-.9-.29,0-.05a.54.54,0,0,0,0-.25.78.78,0,0,1,0-.29l0-.05a.22.22,0,0,1,0-.1l0-.1,0-.07a1.13,1.13,0,0,1,.32-.13,1.77,1.77,0,0,0,.29-.07v0l0,0s0-.12,0-.24,0-.26,0-.41v-.66l.21-.64.32-1c.12-.35.22-.68.32-1s.16-.52.19-.63A7.45,7.45,0,0,0,67,19.33a5.91,5.91,0,0,1,.25-1.28V18a1.36,1.36,0,0,0,.09-.23l0-.09Q67.62,17.3,67.84,17Z" style="fill:#423c25"/><path d="M13.82,47l5.69-.1v1.16l-2.12,0v6.57H16.15V48.14l-2.33,0Z" style="fill:#423c25"/><path d="M21.76,47.33v2.9a1.75,1.75,0,0,1,.95-.91,2,2,0,0,1,.75-.14,2,2,0,0,1,.43,0,1.63,1.63,0,0,1,.95.62A2.5,2.5,0,0,1,25.35,51a12.66,12.66,0,0,1,.07,1.8c0,.72,0,1.63,0,2.75l-1.1,0c0-1,0-1.75,0-2.38,0-1,0-1.62-.05-1.81a1.16,1.16,0,0,0-.37-.7,1.19,1.19,0,0,0-.71-.24h0a1,1,0,0,0-.66.22,2.21,2.21,0,0,0-.44.58,3.68,3.68,0,0,0-.23,1.41l-.06,2.53-1.1,0-.1-7.67Z" style="fill:#423c25"/><path d="M27.72,52.58a2.11,2.11,0,0,0,.42,1.34,1.29,1.29,0,0,0,.9.39h.14A1.44,1.44,0,0,0,30,54.1a1.64,1.64,0,0,0,.57-1l1.17.23a3.31,3.31,0,0,1-.65,1.25,1.83,1.83,0,0,1-1.18.65,4.56,4.56,0,0,1-.72.06,3.38,3.38,0,0,1-.72-.07,2.16,2.16,0,0,1-1.19-.68,2.59,2.59,0,0,1-.66-1.24,4.61,4.61,0,0,1-.12-1c0-.13,0-.25,0-.38a3.33,3.33,0,0,1,.36-1.32,2.08,2.08,0,0,1,.78-.89,2.7,2.7,0,0,1,1-.39,3.64,3.64,0,0,1,.6,0l.6,0a1.93,1.93,0,0,1,1.28.8,4,4,0,0,1,.59,2.45Zm2.71-.91a1.56,1.56,0,0,0-.38-1,1.2,1.2,0,0,0-.94-.42,1.29,1.29,0,0,0-1,.4,1.42,1.42,0,0,0-.41,1Z" style="fill:#423c25"/><path d="M37.48,47.09h1.37l3.5,5.65h0V46.93h1.28l-.11,7.83H42.23L38.74,49h0v5.23H37.43Z" style="fill:#423c25"/><path d="M45.89,47.69a.64.64,0,0,1,0,1,.7.7,0,0,1-1,0,.62.62,0,0,1-.2-.48.61.61,0,0,1,.2-.47.7.7,0,0,1,1,0ZM44.8,49.5l1.17,0-.1,5.84h-1Z" style="fill:#423c25"/><path d="M48.29,49l.06,1.33a1.74,1.74,0,0,1,.95-.92,2.21,2.21,0,0,1,.75-.14,2,2,0,0,1,.42,0,1.61,1.61,0,0,1,1,.61,2.63,2.63,0,0,1,.5,1.13A12,12,0,0,1,52,52.86c0,.72,0,1.64,0,2.76l-1.11,0c0-.95,0-1.75,0-2.37a15.34,15.34,0,0,0-.05-1.81,1.16,1.16,0,0,0-.37-.7,1.05,1.05,0,0,0-.71-.24h0a.92.92,0,0,0-.65.22,2.18,2.18,0,0,0-.45.57,3.6,3.6,0,0,0-.22,1.42l-.06,2.53-1.11,0-.09-6.1Z" style="fill:#423c25"/><path d="M52.7,56.08h0a.47.47,0,0,1,.22.07,1.08,1.08,0,0,0,.78-.49,3.82,3.82,0,0,0,.2-1.52l0-4.51L55,49.7c0,.81,0,1.55,0,2.2a27.29,27.29,0,0,1-.13,3.76,1.92,1.92,0,0,1-.57,1,1.9,1.9,0,0,1-.92.42,1.56,1.56,0,0,1-.31,0,2.74,2.74,0,0,1-.48,0Zm2.21-8.39a.66.66,0,0,1,0,1,.7.7,0,0,1-.49.2.68.68,0,0,1-.49-.2.64.64,0,0,1,0-1,.68.68,0,0,1,.49-.2A.7.7,0,0,1,54.91,47.69Z" style="fill:#423c25"/><path d="M56.86,50.19A2.24,2.24,0,0,1,58,49.58a3,3,0,0,1,.68-.07,3.79,3.79,0,0,1,.86.1,1.41,1.41,0,0,1,1.08,1.12,8.08,8.08,0,0,1,.15,1.79c0,.4,0,.85,0,1.35v0c0,.29.11.43.34.43a1.05,1.05,0,0,0,.41-.1l.09,1a3,3,0,0,1-.74.1,1,1,0,0,1-1-.56,2.71,2.71,0,0,1-1,.59,3.12,3.12,0,0,1-.88.13h0a2.13,2.13,0,0,1-.84-.16,1.62,1.62,0,0,1-.65-.49,1.46,1.46,0,0,1-.28-.76,1,1,0,0,1,0-.17,2.24,2.24,0,0,1,.15-.78,1.69,1.69,0,0,1,.91-.87,8.17,8.17,0,0,1,2.5-.52,1.52,1.52,0,0,0-.19-.92,1.18,1.18,0,0,0-.74-.24H58.6a1.45,1.45,0,0,0-.7.15,1,1,0,0,0-.4.81l-1.12-.14A1.82,1.82,0,0,1,56.86,50.19Zm2.87,2.48a4.86,4.86,0,0,0-1.9.4.87.87,0,0,0-.46.72.43.43,0,0,1,0,.05.65.65,0,0,0,.27.58,1.08,1.08,0,0,0,.59.16l.16,0a1.52,1.52,0,0,0,.75-.21,5.68,5.68,0,0,0,.6-.4Z" style="fill:#423c25"/><path d="M68.46,48.54l.06,1.26a1.46,1.46,0,0,1,.81-.91,2.08,2.08,0,0,1,.66-.11,2.3,2.3,0,0,1,.45,0,2,2,0,0,1,1.15,1,2.09,2.09,0,0,1,.82-.94,2.21,2.21,0,0,1,1-.23h.11a1.49,1.49,0,0,1,1.14.63,2.41,2.41,0,0,1,.54,1.35c0,.21,0,.58,0,1.1,0,.7,0,1.67,0,2.92l-1.06-.09V51.47a2.13,2.13,0,0,0-.39-1.26,1,1,0,0,0-.55-.28h-.06a.87.87,0,0,0-.52.23,1.52,1.52,0,0,0-.46.61,7,7,0,0,0-.21,1.6l0,1.7-1,0a25,25,0,0,0-.11-3.22,1.66,1.66,0,0,0-.38-.75.65.65,0,0,0-.49-.23h-.11a1.45,1.45,0,0,0-.61.26,1.48,1.48,0,0,0-.43.57,4.83,4.83,0,0,0-.19,1.47l-.09,2.55h-1l-.16-6.18Z" style="fill:#423c25"/><path d="M77,50.19a2.21,2.21,0,0,1,1.14-.61,3.08,3.08,0,0,1,.68-.07,3.87,3.87,0,0,1,.87.1,1.39,1.39,0,0,1,1.07,1.12,7.41,7.41,0,0,1,.16,1.79c0,.4,0,.85,0,1.35v0c0,.29.11.43.33.43a1,1,0,0,0,.41-.1l.09,1a3,3,0,0,1-.73.1,1.05,1.05,0,0,1-1-.56,2.68,2.68,0,0,1-.94.59,3.17,3.17,0,0,1-.88.13h-.05a2.12,2.12,0,0,1-.83-.16,1.56,1.56,0,0,1-.65-.49,1.46,1.46,0,0,1-.29-.76V53.9a2.24,2.24,0,0,1,.15-.78,1.65,1.65,0,0,1,.91-.87,8.16,8.16,0,0,1,2.49-.52,1.45,1.45,0,0,0-.19-.92,1.16,1.16,0,0,0-.74-.24h-.19a1.41,1.41,0,0,0-.69.15,1,1,0,0,0-.4.81l-1.13-.14A1.88,1.88,0,0,1,77,50.19Zm2.87,2.48a4.93,4.93,0,0,0-1.91.4.88.88,0,0,0-.45.72.11.11,0,0,0,0,.05.65.65,0,0,0,.27.58,1,1,0,0,0,.58.16l.17,0a1.58,1.58,0,0,0,.75-.21,5.68,5.68,0,0,0,.6-.4Z" style="fill:#423c25"/><path d="M82.07,49.08l1.23-.25,1.49,4.29,1.56-4,1.07.34L84.27,57.3l-1-.52.87-2.35Z" style="fill:#423c25"/><path d="M93.38,55.45l1.1-.19c.12.55.36.87.73,1a2.47,2.47,0,0,0,.6.08,3,3,0,0,0,.52,0,1.07,1.07,0,0,0,.77-.5,2.39,2.39,0,0,0,.16-1.07c0-.14,0-.29,0-.44a2.17,2.17,0,0,1-1.07.69,4.54,4.54,0,0,1-.75.07h-.26a2.06,2.06,0,0,1-1-.39,2,2,0,0,1-.73-.91,3.9,3.9,0,0,1-.25-1.34,1.48,1.48,0,0,1,0-.21,4,4,0,0,1,.18-1.22A2.22,2.22,0,0,1,94,49.85a2.6,2.6,0,0,1,1-.53,3.08,3.08,0,0,1,.61-.06l.52,0a2.1,2.1,0,0,1,1.17.65v-.63l1,0c0,.89,0,1.69,0,2.39a30.1,30.1,0,0,1-.14,4.05,1.89,1.89,0,0,1-.56,1,2.15,2.15,0,0,1-.92.42,6.38,6.38,0,0,1-1,.09h-.05a3.38,3.38,0,0,1-.88-.1,1.84,1.84,0,0,1-.78-.45A2.71,2.71,0,0,1,93.38,55.45Zm3.56-2.05a2.37,2.37,0,0,0,.34-1.33,2.2,2.2,0,0,0-.35-1.28,1.31,1.31,0,0,0-1.14-.56,1.27,1.27,0,0,0-1.14.62,2.44,2.44,0,0,0-.33,1.32,2.2,2.2,0,0,0,.35,1.26,1.3,1.3,0,0,0,1.12.58A1.28,1.28,0,0,0,96.94,53.4Z" style="fill:#423c25"/><path d="M102.92,50.59a1.66,1.66,0,0,0-.8-.24H102a1.35,1.35,0,0,0-.68.25,2.08,2.08,0,0,0-.44.52,3.35,3.35,0,0,0-.22,1.39L100.59,55l-1.1,0L99.4,49l1.14-.13,0,1.33a1.86,1.86,0,0,1,1-.94,1.44,1.44,0,0,1,.53-.09,3.33,3.33,0,0,1,1.13.24Z" style="fill:#423c25"/><path d="M105,50.19a2.24,2.24,0,0,1,1.15-.61,3,3,0,0,1,.68-.07,3.79,3.79,0,0,1,.86.1,1.39,1.39,0,0,1,1.08,1.12,8,8,0,0,1,.16,1.79c0,.4,0,.85,0,1.35v0c0,.29.11.43.33.43a1.05,1.05,0,0,0,.41-.1l.09,1a3,3,0,0,1-.73.1,1.05,1.05,0,0,1-1-.56,2.68,2.68,0,0,1-.94.59,3.19,3.19,0,0,1-.89.13h0a2,2,0,0,1-.83-.16,1.59,1.59,0,0,1-.66-.49,1.46,1.46,0,0,1-.28-.76V53.9a2.22,2.22,0,0,1,.14-.78,1.67,1.67,0,0,1,.92-.87,8,8,0,0,1,2.49-.52,1.45,1.45,0,0,0-.19-.92,1.16,1.16,0,0,0-.74-.24h-.19a1.48,1.48,0,0,0-.7.15,1,1,0,0,0-.4.81l-1.12-.14A1.92,1.92,0,0,1,105,50.19Zm2.88,2.48a4.88,4.88,0,0,0-1.91.4.89.89,0,0,0-.46.72v.05a.65.65,0,0,0,.27.58,1,1,0,0,0,.58.16l.17,0a1.58,1.58,0,0,0,.75-.21,5.68,5.68,0,0,0,.6-.4Z" style="fill:#423c25"/><path d="M110.75,55.42V47.6h1.19l0,2.88a1.67,1.67,0,0,1,1.41-1.06,3,3,0,0,1,.5,0,1.86,1.86,0,0,1,1.12.32,2.33,2.33,0,0,1,.84,1.25,5.45,5.45,0,0,1,.23,1.48v.08a4.55,4.55,0,0,1-.25,1.41,2.07,2.07,0,0,1-.83,1.09,2.16,2.16,0,0,1-1.2.39,2.38,2.38,0,0,1-1.08-.24,1.76,1.76,0,0,1-.74-.69l0,1Zm4-3v0a2.33,2.33,0,0,0-.36-1.32,1.26,1.26,0,0,0-1.1-.61c-.9,0-1.35.66-1.38,2v.07a2.25,2.25,0,0,0,.37,1.33,1.3,1.3,0,0,0,1.1.56,1.18,1.18,0,0,0,1-.62A2.55,2.55,0,0,0,114.79,52.46Z" style="fill:#423c25"/><path d="M121.71,48.94h.92V47.28l1.18-.16v1.77l1.53-.06v1l-1.53.05v3.5a1.06,1.06,0,0,0,.1.57.4.4,0,0,0,.34.14,4.69,4.69,0,0,0,.93-.2l.16,1a6.6,6.6,0,0,1-1.4.22,1.86,1.86,0,0,1-1-.36,1.69,1.69,0,0,1-.3-1.06V49.91h-.92Z" style="fill:#423c25"/><path d="M127.58,47.33v2.9a1.77,1.77,0,0,1,1-.91,2.13,2.13,0,0,1,1.17-.1,1.62,1.62,0,0,1,1,.62,2.59,2.59,0,0,1,.5,1.12,12.05,12.05,0,0,1,.08,1.8c0,.72,0,1.63-.05,2.75l-1.1,0c0-1,0-1.75,0-2.38,0-1,0-1.62-.05-1.81a1,1,0,0,0-1.08-.94h0a1,1,0,0,0-.65.22,2.24,2.24,0,0,0-.45.58,3.54,3.54,0,0,0-.22,1.41l-.07,2.53-1.1,0-.09-7.67Z" style="fill:#423c25"/><path d="M133.55,52.58a2.11,2.11,0,0,0,.41,1.34,1.29,1.29,0,0,0,.9.39H135a1.41,1.41,0,0,0,.79-.22,1.7,1.7,0,0,0,.58-1l1.17.23a3.61,3.61,0,0,1-.65,1.25,1.88,1.88,0,0,1-1.19.65,4.56,4.56,0,0,1-.72.06,3.29,3.29,0,0,1-.71-.07,2.13,2.13,0,0,1-1.19-.68,2.53,2.53,0,0,1-.67-1.24,4.6,4.6,0,0,1-.11-1c0-.13,0-.25,0-.38a3.7,3.7,0,0,1,.36-1.32,2.22,2.22,0,0,1,.78-.89,2.75,2.75,0,0,1,1-.39,3.64,3.64,0,0,1,.6,0l.59,0a1.91,1.91,0,0,1,1.28.8,3.93,3.93,0,0,1,.59,2.45Zm2.71-.91a1.57,1.57,0,0,0-.39-1,1.2,1.2,0,0,0-.94-.42,1.3,1.3,0,0,0-1,.4,1.37,1.37,0,0,0-.4,1Z" style="fill:#423c25"/><path d="M14.88,60.39l.34.23a2.35,2.35,0,0,0-.63.86.5.5,0,0,1,.51.25.88.88,0,0,1,.1.41v.1a.66.66,0,0,1-.19.38.62.62,0,0,1-.36.18h-.1a.69.69,0,0,1-.34-.09.71.71,0,0,1-.32-.32.67.67,0,0,1-.07-.33,1.83,1.83,0,0,1,0-.21,1.36,1.36,0,0,1,.22-.6A5.92,5.92,0,0,1,14.88,60.39Zm1.84,0,.34.23a2.23,2.23,0,0,0-.63.86.51.51,0,0,1,.51.25.88.88,0,0,1,.1.41v.1a.66.66,0,0,1-.19.38.68.68,0,0,1-.37.18h-.1a.68.68,0,0,1-.33-.09.71.71,0,0,1-.32-.32.67.67,0,0,1-.07-.33,1.83,1.83,0,0,1,0-.21,1.36,1.36,0,0,1,.22-.6A5.92,5.92,0,0,1,16.72,60.39Z" style="fill:#423c25"/><path d="M19.23,61.87l0,1a1.76,1.76,0,0,1,.74-.69,2.38,2.38,0,0,1,1.08-.23,2.13,2.13,0,0,1,1.2.38,2.07,2.07,0,0,1,.83,1.09,4.55,4.55,0,0,1,.25,1.41v.08a5.09,5.09,0,0,1-.23,1.48,2.29,2.29,0,0,1-.84,1.25,1.86,1.86,0,0,1-1.12.32,3,3,0,0,1-.5,0,1.67,1.67,0,0,1-1.41-1.06l0,2.88H18.11V61.87Zm2.93,3a2.47,2.47,0,0,0-.37-1.34,1.18,1.18,0,0,0-1-.62,1.3,1.3,0,0,0-1.11.56,2.25,2.25,0,0,0-.37,1.33v.07c0,1.31.48,2,1.38,2a1.26,1.26,0,0,0,1.1-.61,2.33,2.33,0,0,0,.36-1.32Z" style="fill:#423c25"/><path d="M24.41,60.26l1.18.05v7.84l-1.12,0Z" style="fill:#423c25"/><path d="M27.35,67.54a3.28,3.28,0,0,1-.71-2.21,3.24,3.24,0,0,1,.71-2.19,2.71,2.71,0,0,1,4,0A3.29,3.29,0,0,1,32,65.33a3.33,3.33,0,0,1-.71,2.21,2.73,2.73,0,0,1-4,0Zm3.17-.76a2.44,2.44,0,0,0,.39-1.41A2.37,2.37,0,0,0,30.52,64a1.34,1.34,0,0,0-1.19-.66,1.37,1.37,0,0,0-1.21.66,2.45,2.45,0,0,0-.38,1.39,2.51,2.51,0,0,0,.38,1.41,1.38,1.38,0,0,0,1.21.65A1.35,1.35,0,0,0,30.52,66.78Z" style="fill:#423c25"/><path d="M33.09,61.85H34V60.18L35.19,60V61.8l1.52-.06v1l-1.52,0v3.5a1.09,1.09,0,0,0,.1.57.4.4,0,0,0,.34.14,4.69,4.69,0,0,0,.93-.2l.15,1a7.14,7.14,0,0,1-1.39.22,1.8,1.8,0,0,1-1-.37,1.64,1.64,0,0,1-.3-1.05V62.81h-.92Z" style="fill:#423c25"/><path d="M38.11,62.81l-.34-.23a2.38,2.38,0,0,0,.63-.85.49.49,0,0,1-.51-.26.85.85,0,0,1-.1-.4.34.34,0,0,1,0-.1.62.62,0,0,1,.18-.39.76.76,0,0,1,.37-.18h.09a.61.61,0,0,1,.34.1.66.66,0,0,1,.32.32.63.63,0,0,1,.07.32,1.49,1.49,0,0,1,0,.21,1.44,1.44,0,0,1-.22.6A5.5,5.5,0,0,1,38.11,62.81Zm1.84,0-.35-.23a2.32,2.32,0,0,0,.64-.85.52.52,0,0,1-.52-.26,1,1,0,0,1-.1-.4.36.36,0,0,1,0-.1.62.62,0,0,1,.18-.39.76.76,0,0,1,.37-.18h.09a.63.63,0,0,1,.34.1.66.66,0,0,1,.32.32.76.76,0,0,1,.07.32,1.49,1.49,0,0,1,0,.21,1.44,1.44,0,0,1-.22.6A5.5,5.5,0,0,1,40,62.81Z" style="fill:#423c25"/><path d="M51.88,63.11A1.58,1.58,0,0,0,51.3,63a1.39,1.39,0,0,0-.3,0,1.36,1.36,0,0,0-.72.47,1.86,1.86,0,0,0-.38,1,3.12,3.12,0,0,0,0,.52,3,3,0,0,0,.06.61,1.75,1.75,0,0,0,.43.87,1.19,1.19,0,0,0,.84.39h.12a1.48,1.48,0,0,0,.78-.22,1.25,1.25,0,0,0,.5-1l1.1.23a2.36,2.36,0,0,1-.56,1.25,2,2,0,0,1-1.18.65,4,4,0,0,1-.68.06,3.08,3.08,0,0,1-.68-.07,2.15,2.15,0,0,1-1.06-.54,2.33,2.33,0,0,1-.63-1.14A4.29,4.29,0,0,1,48.74,65c0-.1,0-.2,0-.3a3.68,3.68,0,0,1,.34-1.35,2.17,2.17,0,0,1,.74-.9,2.64,2.64,0,0,1,.91-.38,2.52,2.52,0,0,1,.57-.05l.52,0a2.08,2.08,0,0,1,1.17.53,2,2,0,0,1,.64,1.35l-1.09.17A1.24,1.24,0,0,0,51.88,63.11Z" style="fill:#423c25"/><path d="M55.44,63.1a2.24,2.24,0,0,1,1.15-.61,3,3,0,0,1,.68-.07,4.41,4.41,0,0,1,.86.09,1.44,1.44,0,0,1,1.08,1.13,8,8,0,0,1,.16,1.79c0,.4,0,.85,0,1.35v0c0,.28.12.43.34.43a1.27,1.27,0,0,0,.41-.1l.09,1a3,3,0,0,1-.74.11,1.06,1.06,0,0,1-1-.56,2.68,2.68,0,0,1-.94.59,3.61,3.61,0,0,1-.89.13h0a2,2,0,0,1-.84-.17,1.52,1.52,0,0,1-.65-.48,1.49,1.49,0,0,1-.28-.77s0-.1,0-.16a2.34,2.34,0,0,1,.15-.79,1.71,1.71,0,0,1,.91-.86,7.88,7.88,0,0,1,2.5-.52,1.45,1.45,0,0,0-.19-.92,1.18,1.18,0,0,0-.74-.24h-.19a1.45,1.45,0,0,0-.7.15,1,1,0,0,0-.4.81L55,64.3A1.87,1.87,0,0,1,55.44,63.1Zm2.88,2.48a4.88,4.88,0,0,0-1.91.4.89.89,0,0,0-.46.72v0a.68.68,0,0,0,.26.58,1.08,1.08,0,0,0,.59.15H57a1.71,1.71,0,0,0,.75-.21,5.86,5.86,0,0,0,.6-.41Z" style="fill:#423c25"/><path d="M64.73,63.5a1.62,1.62,0,0,0-.79-.24h-.13a1.2,1.2,0,0,0-.67.25,1.78,1.78,0,0,0-.45.52,3.35,3.35,0,0,0-.22,1.39L62.41,68,61.3,68l-.09-6.1,1.14-.12.06,1.33a1.78,1.78,0,0,1,1-.94,1.29,1.29,0,0,1,.53-.1A3.1,3.1,0,0,1,65,62.3Z" style="fill:#423c25"/><path d="M70.23,68.17l0-1a1.71,1.71,0,0,1-.74.69,2.32,2.32,0,0,1-1.08.24,2.19,2.19,0,0,1-1.2-.39,2.07,2.07,0,0,1-.83-1.09,4.55,4.55,0,0,1-.25-1.41v-.08a5.12,5.12,0,0,1,.24-1.48,2.26,2.26,0,0,1,.83-1.25,1.86,1.86,0,0,1,1.12-.32,3,3,0,0,1,.5,0,1.7,1.7,0,0,1,1.42,1.06l0-2.88h1.19v7.82Zm-2.93-3a2.46,2.46,0,0,0,.36,1.34,1.18,1.18,0,0,0,1,.62,1.3,1.3,0,0,0,1.1-.56,2.25,2.25,0,0,0,.37-1.33v-.07c0-1.31-.48-2-1.38-2a1.27,1.27,0,0,0-1.1.6,2.4,2.4,0,0,0-.35,1.32Z" style="fill:#423c25"/><path d="M72.73,68.91l-.34-.23a2.41,2.41,0,0,0,.64-.86.52.52,0,0,1-.52-.26,1,1,0,0,1-.1-.4s0-.07,0-.1a.66.66,0,0,1,.19-.39A.67.67,0,0,1,73,66.5h.1a.77.77,0,0,1,.66.41.81.81,0,0,1,.06.33,1.62,1.62,0,0,1,0,.21,1.73,1.73,0,0,1-.22.6A6.19,6.19,0,0,1,72.73,68.91Z" style="fill:#423c25"/><path d="M81.52,62.37l1.2-.26,1.19,4.42h0l1-4.16,1.35.06.89,3.94h0l1.14-4.52,1.14.31-1.69,5.72-1.21-.1-1-3.66h0l-1.08,3.82-1.28.15Z" style="fill:#423c25"/><path d="M94.08,63.5a1.66,1.66,0,0,0-.8-.24h-.12a1.26,1.26,0,0,0-.68.25A1.92,1.92,0,0,0,92,64a3.35,3.35,0,0,0-.22,1.39L91.75,68l-1.1,0-.09-6.1,1.14-.12,0,1.33a1.83,1.83,0,0,1,1-.94,1.25,1.25,0,0,1,.53-.1,3.14,3.14,0,0,1,1.13.25Z" style="fill:#423c25"/><path d="M96.62,60.6a.61.61,0,0,1,.21.47.63.63,0,0,1-.21.48.7.7,0,0,1-1,0,.62.62,0,0,1-.2-.48.6.6,0,0,1,.2-.47.7.7,0,0,1,1,0Zm-1.09,1.81,1.17,0-.1,5.84h-1Z" style="fill:#423c25"/><path d="M97.88,61.85h.92V60.18L100,60V61.8l1.53-.06v1l-1.53,0v3.5a1.09,1.09,0,0,0,.1.57.4.4,0,0,0,.34.14,4.69,4.69,0,0,0,.93-.2l.16,1a7.33,7.33,0,0,1-1.4.22,1.8,1.8,0,0,1-1-.37,1.64,1.64,0,0,1-.3-1.05V62.81h-.92Z" style="fill:#423c25"/><path d="M103.81,65.49a2.14,2.14,0,0,0,.41,1.34,1.3,1.3,0,0,0,.91.39h.13a1.47,1.47,0,0,0,.8-.22,1.69,1.69,0,0,0,.57-1l1.17.23a3.71,3.71,0,0,1-.65,1.25,1.92,1.92,0,0,1-1.19.65,4.56,4.56,0,0,1-.72.06,3.35,3.35,0,0,1-.71-.07,2.22,2.22,0,0,1-1.19-.68,2.64,2.64,0,0,1-.67-1.25,5.17,5.17,0,0,1-.11-1c0-.12,0-.24,0-.37a3.64,3.64,0,0,1,.36-1.32,2.32,2.32,0,0,1,.78-.9,2.92,2.92,0,0,1,1-.38,2.8,2.8,0,0,1,.6,0l.59,0a2,2,0,0,1,1.29.8,4,4,0,0,1,.59,2.45Zm2.71-.92a1.54,1.54,0,0,0-.39-.95,1.19,1.19,0,0,0-.94-.42,1.3,1.3,0,0,0-1,.4,1.4,1.4,0,0,0-.4,1Z" style="fill:#423c25"/><path d="M116.23,63.1a2.25,2.25,0,0,1,1.14-.61,3.11,3.11,0,0,1,.69-.07,4.41,4.41,0,0,1,.86.09A1.42,1.42,0,0,1,120,63.64a7.41,7.41,0,0,1,.16,1.79c0,.4,0,.85,0,1.35v0c0,.28.11.43.34.43a1.33,1.33,0,0,0,.41-.1l.09,1a3.08,3.08,0,0,1-.74.11,1.08,1.08,0,0,1-1-.56,2.6,2.6,0,0,1-.94.59,3.52,3.52,0,0,1-.88.13h0a2,2,0,0,1-.84-.17,1.52,1.52,0,0,1-.65-.48,1.41,1.41,0,0,1-.28-.77.81.81,0,0,1,0-.16,2.34,2.34,0,0,1,.15-.79,1.67,1.67,0,0,1,.91-.86,7.88,7.88,0,0,1,2.5-.52,1.52,1.52,0,0,0-.19-.92,1.21,1.21,0,0,0-.74-.24H118a1.43,1.43,0,0,0-.7.15,1,1,0,0,0-.4.81l-1.12-.14A1.82,1.82,0,0,1,116.23,63.1Zm2.87,2.48a4.81,4.81,0,0,0-1.9.4.87.87,0,0,0-.46.72.09.09,0,0,0,0,0,.67.67,0,0,0,.27.58,1,1,0,0,0,.58.15h.17a1.71,1.71,0,0,0,.75-.21,5.86,5.86,0,0,0,.6-.41Z" style="fill:#423c25"/><path d="M123.14,61.92l0,1.33a1.73,1.73,0,0,1,1-.92,2.31,2.31,0,0,1,.76-.14,2,2,0,0,1,.42.05,1.63,1.63,0,0,1,1,.61,2.63,2.63,0,0,1,.5,1.13,12.58,12.58,0,0,1,.07,1.79c0,.72,0,1.64,0,2.75l-1.1,0c0-.95,0-1.75,0-2.38,0-1,0-1.61,0-1.8a1.13,1.13,0,0,0-.37-.7,1.07,1.07,0,0,0-.71-.24h0a1,1,0,0,0-.66.22,2.39,2.39,0,0,0-.44.57,3.56,3.56,0,0,0-.22,1.42l-.07,2.52-1.1,0L122,62Z" style="fill:#423c25"/><path d="M128.61,67.54a3.33,3.33,0,0,1-.71-2.21,3.29,3.29,0,0,1,.71-2.19,2.71,2.71,0,0,1,4,0,3.24,3.24,0,0,1,.71,2.19,3.28,3.28,0,0,1-.71,2.21,2.73,2.73,0,0,1-4,0Zm3.18-.76a2.44,2.44,0,0,0,.38-1.41,2.37,2.37,0,0,0-.38-1.39,1.42,1.42,0,0,0-2.4,0,2.37,2.37,0,0,0-.38,1.39,2.44,2.44,0,0,0,.38,1.41,1.43,1.43,0,0,0,2.4,0Z" style="fill:#423c25"/><path d="M134.35,64.48l3.19,0-.06,1.11-3.07,0Z" style="fill:#423c25"/><path d="M13.82,74.76h.93V73.09l1.17-.16V74.7l1.53,0v1l-1.53,0v3.5a1.12,1.12,0,0,0,.1.56.39.39,0,0,0,.34.15,4.42,4.42,0,0,0,.93-.2l.16,1a6.67,6.67,0,0,1-1.4.23,1.88,1.88,0,0,1-1-.37,1.61,1.61,0,0,1-.29-1V75.72h-.93Z" style="fill:#423c25"/><path d="M19.7,73.14v2.91a1.77,1.77,0,0,1,.95-.92A2.21,2.21,0,0,1,21.4,75a1.93,1.93,0,0,1,.42.05,1.61,1.61,0,0,1,1,.61,2.77,2.77,0,0,1,.51,1.13,14.42,14.42,0,0,1,.07,1.79c0,.72,0,1.64,0,2.76l-1.11,0c0-1,0-1.74,0-2.37a15.34,15.34,0,0,0-.05-1.81,1.11,1.11,0,0,0-.37-.7,1,1,0,0,0-.7-.24h0a.92.92,0,0,0-.65.22A2.18,2.18,0,0,0,20,77a3.8,3.8,0,0,0-.22,1.42l-.06,2.53-1.11,0-.09-7.67Z" style="fill:#423c25"/><path d="M25.66,78.4a2.14,2.14,0,0,0,.41,1.34,1.41,1.41,0,0,0,.91.39h.13a1.37,1.37,0,0,0,.8-.22,1.58,1.58,0,0,0,.57-1l1.17.22A3.58,3.58,0,0,1,29,80.44a1.84,1.84,0,0,1-1.19.64,3.65,3.65,0,0,1-.72.07,4.17,4.17,0,0,1-.71-.07,2.22,2.22,0,0,1-1.19-.68,2.73,2.73,0,0,1-.67-1.25,5.17,5.17,0,0,1-.11-1c0-.12,0-.25,0-.37a3.59,3.59,0,0,1,.36-1.32,2.32,2.32,0,0,1,.78-.9,3.19,3.19,0,0,1,1-.39,3.7,3.7,0,0,1,.6,0l.59,0a2,2,0,0,1,1.29.79,4.1,4.1,0,0,1,.59,2.46Zm2.71-.92a1.59,1.59,0,0,0-.38-1,1.22,1.22,0,0,0-.94-.42,1.34,1.34,0,0,0-1,.39,1.43,1.43,0,0,0-.4,1Z" style="fill:#423c25"/><path d="M34.22,76.41a1.61,1.61,0,0,0-.79-.25h-.12a1.23,1.23,0,0,0-.68.25,1.78,1.78,0,0,0-.45.52A3.49,3.49,0,0,0,32,78.33l-.06,2.52-1.1,0-.1-6.09,1.15-.12,0,1.33a1.83,1.83,0,0,1,1-1,1.53,1.53,0,0,1,.54-.09,3.09,3.09,0,0,1,1.12.25Z" style="fill:#423c25"/><path d="M44.18,74.78l0,1A1.76,1.76,0,0,1,45,75,2.38,2.38,0,0,1,46,74.8a2.14,2.14,0,0,1,1.2.39,2.07,2.07,0,0,1,.83,1.09,4.55,4.55,0,0,1,.25,1.41v.08a5.14,5.14,0,0,1-.23,1.48,2.33,2.33,0,0,1-.84,1.25,1.86,1.86,0,0,1-1.12.32,3.13,3.13,0,0,1-.5,0,1.65,1.65,0,0,1-1.41-1.06l0,2.89H43.06V74.78Zm2.93,3a2.49,2.49,0,0,0-.37-1.34,1.17,1.17,0,0,0-1-.61,1.3,1.3,0,0,0-1.11.56,2.25,2.25,0,0,0-.37,1.33v.06c0,1.32.48,2,1.38,2a1.24,1.24,0,0,0,1.1-.61,2.27,2.27,0,0,0,.36-1.31Z" style="fill:#423c25"/><path d="M49.36,73.16l1.18.06v7.83l-1.12.06Z" style="fill:#423c25"/><path d="M52.3,80.44a3.75,3.75,0,0,1,0-4.39,2.71,2.71,0,0,1,4,0,3.75,3.75,0,0,1,0,4.39,2.71,2.71,0,0,1-4,0Zm3.17-.75a2.73,2.73,0,0,0,0-2.81,1.35,1.35,0,0,0-1.19-.65,1.38,1.38,0,0,0-1.21.65,2.79,2.79,0,0,0,0,2.81,1.38,1.38,0,0,0,1.21.65A1.35,1.35,0,0,0,55.47,79.69Z" style="fill:#423c25"/><path d="M58,74.76H59V73.09l1.18-.16V74.7l1.53,0v1l-1.53,0v3.5a1,1,0,0,0,.1.56.38.38,0,0,0,.34.15,4.69,4.69,0,0,0,.93-.2l.16,1a6.77,6.77,0,0,1-1.4.23,1.88,1.88,0,0,1-1-.37,1.66,1.66,0,0,1-.3-1V75.72H58Z" style="fill:#423c25"/><path d="M70.91,80.44a3.75,3.75,0,0,1,0-4.39,2.71,2.71,0,0,1,4,0,3.75,3.75,0,0,1,0,4.39,2.71,2.71,0,0,1-4,0Zm3.17-.75a2.73,2.73,0,0,0,0-2.81,1.35,1.35,0,0,0-1.19-.65,1.38,1.38,0,0,0-1.21.65,2.79,2.79,0,0,0,0,2.81,1.38,1.38,0,0,0,1.21.65A1.35,1.35,0,0,0,74.08,79.69Z" style="fill:#423c25"/><path d="M77.79,74.82l0,1.33a1.78,1.78,0,0,1,1-.91,2.08,2.08,0,0,1,.76-.14,2,2,0,0,1,.42,0,1.62,1.62,0,0,1,1,.62,2.59,2.59,0,0,1,.5,1.12,12.05,12.05,0,0,1,.08,1.8c0,.72,0,1.63-.05,2.75l-1.1,0c0-1,0-1.75,0-2.38,0-1,0-1.62,0-1.81a1.13,1.13,0,0,0-.37-.69,1.11,1.11,0,0,0-.71-.25h0a1,1,0,0,0-.65.22,2.24,2.24,0,0,0-.45.58,3.54,3.54,0,0,0-.22,1.41L77.84,81l-1.1,0L76.65,75Z" style="fill:#423c25"/><path d="M91.22,73.5a.65.65,0,0,1,0,1,.68.68,0,0,1-.49.2.7.7,0,0,1-.49-.2.68.68,0,0,1,0-1,.69.69,0,0,1,.49-.19A.67.67,0,0,1,91.22,73.5Zm-1.09,1.82,1.17,0-.1,5.84h-1Z" style="fill:#423c25"/><path d="M92.48,74.76h.92V73.09l1.18-.16V74.7l1.53,0v1l-1.53,0v3.5a1.12,1.12,0,0,0,.1.56.39.39,0,0,0,.34.15,4.42,4.42,0,0,0,.93-.2l.16,1a6.67,6.67,0,0,1-1.4.23,1.88,1.88,0,0,1-1-.37,1.66,1.66,0,0,1-.3-1V75.72h-.92Z" style="fill:#423c25"/><path d="M97.16,79l1.12-.21c0,.56.27.89.65,1a3.07,3.07,0,0,0,.71.09l.28,0a.88.88,0,0,0,.59-.25.72.72,0,0,0,.19-.35v-.07a.45.45,0,0,0-.09-.26,1.2,1.2,0,0,0-.29-.26,5.28,5.28,0,0,0-1-.35,9.87,9.87,0,0,1-1.21-.4,1.46,1.46,0,0,1-.59-.43,1.14,1.14,0,0,1-.24-.71V76.7a1.66,1.66,0,0,1,.16-.73,1.45,1.45,0,0,1,.66-.63,2.75,2.75,0,0,1,1-.31l.39,0a4.9,4.9,0,0,1,.54,0,2.3,2.3,0,0,1,.9.37,2.24,2.24,0,0,1,.71,1.37l-1,.13c-.14-.47-.32-.75-.54-.82a1.88,1.88,0,0,0-.57-.09h-.11a1,1,0,0,0-.57.19.59.59,0,0,0-.26.42v.05a.41.41,0,0,0,.16.34,2.84,2.84,0,0,0,1,.34,5.78,5.78,0,0,1,1.37.47,1.38,1.38,0,0,1,.72.62,2.06,2.06,0,0,1,.13.76v0a1.48,1.48,0,0,1-.23.79,1.72,1.72,0,0,1-.76.61,3.06,3.06,0,0,1-1.28.27h-.08a3.59,3.59,0,0,1-1.1-.13,1.9,1.9,0,0,1-.76-.45A2.43,2.43,0,0,1,97.16,79Z" style="fill:#423c25"/><path d="M111.09,80.44a3.75,3.75,0,0,1,0-4.39,2.71,2.71,0,0,1,4,0,3.75,3.75,0,0,1,0,4.39,2.71,2.71,0,0,1-4,0Zm3.17-.75a2.73,2.73,0,0,0,0-2.81,1.35,1.35,0,0,0-1.19-.65,1.38,1.38,0,0,0-1.21.65,2.79,2.79,0,0,0,0,2.81,1.38,1.38,0,0,0,1.21.65A1.35,1.35,0,0,0,114.26,79.69Z" style="fill:#423c25"/><path d="M116.83,74.76h.92V73.09l1.18-.16V74.7l1.53,0v1l-1.53,0v3.5a1,1,0,0,0,.1.56.38.38,0,0,0,.34.15,4.69,4.69,0,0,0,.93-.2l.16,1a6.77,6.77,0,0,1-1.4.23,1.88,1.88,0,0,1-1-.37,1.66,1.66,0,0,1-.3-1V75.72h-.92Z" style="fill:#423c25"/><path d="M122.7,73.14v2.91a1.8,1.8,0,0,1,1-.92,2.31,2.31,0,0,1,.76-.14,2,2,0,0,1,.42.05,1.61,1.61,0,0,1,1,.61,2.63,2.63,0,0,1,.5,1.13,12,12,0,0,1,.08,1.79c0,.72,0,1.64-.05,2.76l-1.1,0c0-1,0-1.74,0-2.37,0-1,0-1.62,0-1.81a1.16,1.16,0,0,0-.37-.7,1.05,1.05,0,0,0-.71-.24h0a1,1,0,0,0-.66.22A2.39,2.39,0,0,0,123,77a3.6,3.6,0,0,0-.22,1.42l-.07,2.53-1.1,0-.09-7.67Z" style="fill:#423c25"/><path d="M128.67,78.4a2.08,2.08,0,0,0,.41,1.34,1.38,1.38,0,0,0,.9.39h.14a1.34,1.34,0,0,0,.79-.22,1.64,1.64,0,0,0,.58-1l1.17.22a3.6,3.6,0,0,1-.66,1.26,1.82,1.82,0,0,1-1.18.64,3.65,3.65,0,0,1-.72.07,4.28,4.28,0,0,1-.72-.07,2.26,2.26,0,0,1-1.19-.68,2.62,2.62,0,0,1-.66-1.25,4.54,4.54,0,0,1-.11-1c0-.12,0-.25,0-.37a3.59,3.59,0,0,1,.36-1.32,2.24,2.24,0,0,1,.78-.9,3.19,3.19,0,0,1,1-.39,3.62,3.62,0,0,1,.6,0l.59,0a1.93,1.93,0,0,1,1.28.79,4,4,0,0,1,.59,2.46Zm2.71-.92a1.54,1.54,0,0,0-.39-1,1.2,1.2,0,0,0-.94-.42,1.33,1.33,0,0,0-1,.39,1.38,1.38,0,0,0-.4,1Z" style="fill:#423c25"/><path d="M137.23,76.41a1.65,1.65,0,0,0-.8-.25h-.12a1.26,1.26,0,0,0-.68.25,1.92,1.92,0,0,0-.44.52,3.31,3.31,0,0,0-.22,1.39l-.07,2.52-1.1,0-.09-6.09,1.14-.12L134.9,76a1.88,1.88,0,0,1,1-1,1.44,1.44,0,0,1,.53-.09,3.14,3.14,0,0,1,1.13.25Z" style="fill:#423c25"/><path d="M13.82,91.93l1.12-.21c.06.56.27.89.65,1a3.14,3.14,0,0,0,.71.09,1.27,1.27,0,0,0,.28,0,.93.93,0,0,0,.59-.24.74.74,0,0,0,.19-.36s0,0,0-.06a.44.44,0,0,0-.1-.26.91.91,0,0,0-.29-.26,5.28,5.28,0,0,0-1-.35,10.51,10.51,0,0,1-1.21-.4,1.53,1.53,0,0,1-.59-.43,1.28,1.28,0,0,1-.24-.71v-.08a1.77,1.77,0,0,1,.16-.73,1.35,1.35,0,0,1,.66-.63,2.75,2.75,0,0,1,1-.31l.39,0a3.27,3.27,0,0,1,.54,0,2.3,2.3,0,0,1,.9.37,2.16,2.16,0,0,1,.71,1.37l-1.05.13c-.14-.47-.32-.75-.54-.82a1.87,1.87,0,0,0-.56-.09H16a1.06,1.06,0,0,0-.57.2.54.54,0,0,0-.26.41v.06a.43.43,0,0,0,.15.34,2.69,2.69,0,0,0,1,.33,6.63,6.63,0,0,1,1.37.47,1.35,1.35,0,0,1,.72.63,2.06,2.06,0,0,1,.14.76h0a1.56,1.56,0,0,1-.24.79,1.76,1.76,0,0,1-.75.62,3,3,0,0,1-1.29.26h-.08a4,4,0,0,1-1.1-.13,1.86,1.86,0,0,1-.75-.45A2.37,2.37,0,0,1,13.82,91.93Z" style="fill:#423c25"/><path d="M20.74,86.41a.65.65,0,0,1,0,1,.73.73,0,0,1-1,0,.68.68,0,0,1,0-1,.7.7,0,0,1,1,0Zm-1.09,1.82,1.17-.06L20.72,94h-1Z" style="fill:#423c25"/><path d="M26.14,94l0-1a1.71,1.71,0,0,1-.74.69,2.32,2.32,0,0,1-1.08.24,2.19,2.19,0,0,1-1.2-.39,2.09,2.09,0,0,1-.83-1.08A4.66,4.66,0,0,1,22,91.07V91a5.45,5.45,0,0,1,.23-1.48,2.32,2.32,0,0,1,.84-1.26A1.86,1.86,0,0,1,24.19,88l.5,0a1.71,1.71,0,0,1,1.42,1.07l-.05-2.88h1.19V94Zm-2.93-3a2.49,2.49,0,0,0,.36,1.34,1.17,1.17,0,0,0,1,.61,1.29,1.29,0,0,0,1.1-.55A2.3,2.3,0,0,0,26,91.1V91c0-1.31-.48-2-1.38-2a1.25,1.25,0,0,0-1.1.61A2.37,2.37,0,0,0,23.21,91Z" style="fill:#423c25"/><path d="M29.55,91.31A2.16,2.16,0,0,0,30,92.65a1.43,1.43,0,0,0,.91.39H31a1.36,1.36,0,0,0,.79-.22,1.64,1.64,0,0,0,.57-1l1.17.23a3.43,3.43,0,0,1-.65,1.26A1.89,1.89,0,0,1,31.7,94a4.39,4.39,0,0,1-.72.07,4.17,4.17,0,0,1-.71-.07,2.18,2.18,0,0,1-1.19-.69,2.59,2.59,0,0,1-.66-1.24,4.55,4.55,0,0,1-.12-1c0-.12,0-.25,0-.37a3.24,3.24,0,0,1,.36-1.32,2.17,2.17,0,0,1,.78-.9,2.63,2.63,0,0,1,1-.39A3.64,3.64,0,0,1,31,88a4.41,4.41,0,0,1,.6,0,1.94,1.94,0,0,1,1.28.79,4,4,0,0,1,.59,2.46Zm2.71-.92a1.59,1.59,0,0,0-.38-1,1.2,1.2,0,0,0-.94-.42,1.31,1.31,0,0,0-1,.4,1.39,1.39,0,0,0-.41,1Z" style="fill:#423c25"/><path d="M34.93,94.72l-.34-.23a2.4,2.4,0,0,0,.64-.85.53.53,0,0,1-.52-.26,1,1,0,0,1-.1-.4s0-.07,0-.11a.66.66,0,0,1,.19-.38.76.76,0,0,1,.37-.18h.09a.63.63,0,0,1,.34.1.66.66,0,0,1,.32.32A.72.72,0,0,1,36,93a1.49,1.49,0,0,1,0,.21,1.59,1.59,0,0,1-.22.6A5.24,5.24,0,0,1,34.93,94.72Z" style="fill:#423c25"/><path d="M48.4,88.91a2.32,2.32,0,0,1,1.15-.61,3,3,0,0,1,.68-.07,3.79,3.79,0,0,1,.86.1,1.43,1.43,0,0,1,1.08,1.12,8.18,8.18,0,0,1,.15,1.8c0,.39,0,.84,0,1.35v0c0,.28.11.42.34.42A1.05,1.05,0,0,0,53,93l.09,1a3,3,0,0,1-.74.1,1,1,0,0,1-1-.55,2.66,2.66,0,0,1-1,.58,2.8,2.8,0,0,1-.88.13h0a2.14,2.14,0,0,1-.84-.17,1.52,1.52,0,0,1-.65-.48,1.49,1.49,0,0,1-.28-.77.91.91,0,0,1,0-.17,2.24,2.24,0,0,1,.15-.78,1.67,1.67,0,0,1,.91-.86,7.88,7.88,0,0,1,2.5-.52,1.43,1.43,0,0,0-.19-.92,1.13,1.13,0,0,0-.74-.24h-.19a1.45,1.45,0,0,0-.7.15,1,1,0,0,0-.4.82l-1.12-.14A1.82,1.82,0,0,1,48.4,88.91Zm2.87,2.48a4.81,4.81,0,0,0-1.9.41.85.85,0,0,0-.46.71v0a.64.64,0,0,0,.26.58,1,1,0,0,0,.59.16h.16a1.86,1.86,0,0,0,.76-.21,7.17,7.17,0,0,0,.59-.41Z" style="fill:#423c25"/><path d="M55.31,87.73l.06,1.33a1.68,1.68,0,0,1,1-.91,1.89,1.89,0,0,1,1.17-.1,1.62,1.62,0,0,1,1,.62,2.59,2.59,0,0,1,.5,1.12,12.05,12.05,0,0,1,.08,1.8c0,.71,0,1.63-.05,2.75l-1.1,0c0-1,0-1.75,0-2.38,0-1,0-1.62,0-1.81a1.16,1.16,0,0,0-.37-.7,1.11,1.11,0,0,0-.71-.24h0a.92.92,0,0,0-.65.22,2.18,2.18,0,0,0-.45.57,3.64,3.64,0,0,0-.22,1.42l-.06,2.53-1.11,0-.09-6.09Z" style="fill:#423c25"/><path d="M64.22,94l0-1a1.76,1.76,0,0,1-.74.69,2.38,2.38,0,0,1-1.08.24,2.19,2.19,0,0,1-1.2-.39,2.09,2.09,0,0,1-.83-1.08,4.66,4.66,0,0,1-.25-1.42V91a5.45,5.45,0,0,1,.23-1.48,2.32,2.32,0,0,1,.84-1.26A1.86,1.86,0,0,1,62.27,88l.5,0a1.68,1.68,0,0,1,1.41,1.07l0-2.88h1.19V94Zm-2.94-3a2.49,2.49,0,0,0,.37,1.34,1.17,1.17,0,0,0,1,.61,1.3,1.3,0,0,0,1.11-.55,2.3,2.3,0,0,0,.37-1.33V91c0-1.31-.48-2-1.38-2a1.24,1.24,0,0,0-1.1.61A2.29,2.29,0,0,0,61.28,91Z" style="fill:#423c25"/><path d="M78.22,86.41a.65.65,0,0,1,0,1,.73.73,0,0,1-1,0,.68.68,0,0,1,0-1,.7.7,0,0,1,1,0Zm-1.09,1.82,1.17-.06L78.2,94h-1Z" style="fill:#423c25"/><path d="M80.64,87.26l.07,1.26a1.41,1.41,0,0,1,.81-.9,1.83,1.83,0,0,1,.66-.11,2.28,2.28,0,0,1,.45,0,2,2,0,0,1,1.15,1,2.07,2.07,0,0,1,.82-1,2.21,2.21,0,0,1,1-.23h.1a1.53,1.53,0,0,1,1.15.64,2.4,2.4,0,0,1,.53,1.35c0,.21,0,.57,0,1.09,0,.7,0,1.67,0,2.92l-1.06-.09V90.19A2.13,2.13,0,0,0,86,88.93a1.11,1.11,0,0,0-.55-.28h-.06a.83.83,0,0,0-.52.22,1.49,1.49,0,0,0-.46.62,6.92,6.92,0,0,0-.21,1.59l0,1.7-1,0A24.77,24.77,0,0,0,83,89.6a1.65,1.65,0,0,0-.38-.76.68.68,0,0,0-.49-.23H82a1.4,1.4,0,0,0-.61.27,1.36,1.36,0,0,0-.42.56,4.57,4.57,0,0,0-.19,1.47l-.09,2.56h-1l-.16-6.18Z" style="fill:#423c25"/><path d="M89.65,87.26l.06,1.26a1.43,1.43,0,0,1,.82-.9,1.83,1.83,0,0,1,.66-.11,2.42,2.42,0,0,1,.45,0,2,2,0,0,1,1.15,1,2.07,2.07,0,0,1,.82-1,2.21,2.21,0,0,1,1-.23h.1a1.53,1.53,0,0,1,1.15.64,2.4,2.4,0,0,1,.53,1.35c0,.21,0,.57,0,1.09,0,.7,0,1.67,0,2.92l-1.06-.09V90.19a2.11,2.11,0,0,0-.4-1.26,1.08,1.08,0,0,0-.54-.28h-.06a.83.83,0,0,0-.52.22,1.41,1.41,0,0,0-.46.62,6.38,6.38,0,0,0-.21,1.59l0,1.7-1,0A22.9,22.9,0,0,0,92,89.6a1.64,1.64,0,0,0-.37-.76.68.68,0,0,0-.49-.23H91a1.35,1.35,0,0,0-.61.27,1.28,1.28,0,0,0-.42.56,4.57,4.57,0,0,0-.19,1.47l-.1,2.56h-1l-.15-6.18Z" style="fill:#423c25"/><path d="M98.74,91.31a2.15,2.15,0,0,0,.42,1.34,1.38,1.38,0,0,0,.9.39h.14a1.36,1.36,0,0,0,.79-.22,1.64,1.64,0,0,0,.57-1l1.17.23a3.43,3.43,0,0,1-.65,1.26,1.86,1.86,0,0,1-1.18.64,4.61,4.61,0,0,1-.72.07,4.18,4.18,0,0,1-.72-.07,2.18,2.18,0,0,1-1.19-.69,2.59,2.59,0,0,1-.66-1.24,4.55,4.55,0,0,1-.12-1c0-.12,0-.25,0-.37a3.24,3.24,0,0,1,.36-1.32,2.17,2.17,0,0,1,.78-.9,2.68,2.68,0,0,1,1-.39,3.42,3.42,0,0,1,.59-.05,4.31,4.31,0,0,1,.6,0,1.91,1.91,0,0,1,1.28.79,4,4,0,0,1,.59,2.46Zm2.71-.92a1.59,1.59,0,0,0-.38-1,1.2,1.2,0,0,0-.94-.42,1.33,1.33,0,0,0-1,.4,1.44,1.44,0,0,0-.41,1Z" style="fill:#423c25"/><path d="M107.92,94l0-1a1.76,1.76,0,0,1-.74.69,2.38,2.38,0,0,1-1.08.24,2.14,2.14,0,0,1-1.2-.39,2.09,2.09,0,0,1-.83-1.08,4.66,4.66,0,0,1-.25-1.42V91a5.09,5.09,0,0,1,.23-1.48,2.26,2.26,0,0,1,.84-1.26A1.86,1.86,0,0,1,106,88l.5,0a1.68,1.68,0,0,1,1.41,1.07l0-2.88H109V94ZM105,91a2.41,2.41,0,0,0,.37,1.34,1.15,1.15,0,0,0,1,.61,1.3,1.3,0,0,0,1.11-.55,2.29,2.29,0,0,0,.36-1.33V91c0-1.31-.48-2-1.37-2a1.24,1.24,0,0,0-1.1.61A2.29,2.29,0,0,0,105,91Z" style="fill:#423c25"/><path d="M111.27,86.41a.65.65,0,0,1,0,1,.73.73,0,0,1-1,0,.68.68,0,0,1,0-1,.7.7,0,0,1,1,0Zm-1.09,1.82,1.17-.06-.1,5.84h-1Z" style="fill:#423c25"/><path d="M113.23,88.91a2.33,2.33,0,0,1,1.14-.61,3.11,3.11,0,0,1,.69-.07,3.79,3.79,0,0,1,.86.1A1.4,1.4,0,0,1,117,89.45a7.51,7.51,0,0,1,.16,1.8c0,.39,0,.84,0,1.35v0c0,.28.11.42.34.42a1.09,1.09,0,0,0,.41-.1l.09,1a3,3,0,0,1-.74.1,1.07,1.07,0,0,1-1-.55,2.55,2.55,0,0,1-.94.58,2.8,2.8,0,0,1-.88.13h0a2.14,2.14,0,0,1-.84-.17,1.52,1.52,0,0,1-.65-.48,1.41,1.41,0,0,1-.28-.77.91.91,0,0,1,0-.17,2.24,2.24,0,0,1,.15-.78,1.64,1.64,0,0,1,.91-.86,7.88,7.88,0,0,1,2.5-.52,1.5,1.5,0,0,0-.19-.92,1.15,1.15,0,0,0-.74-.24H115a1.43,1.43,0,0,0-.7.15,1,1,0,0,0-.4.82l-1.12-.14A1.82,1.82,0,0,1,113.23,88.91Zm2.87,2.48a4.76,4.76,0,0,0-1.9.41.85.85,0,0,0-.46.71.11.11,0,0,0,0,0,.64.64,0,0,0,.27.58,1,1,0,0,0,.58.16h.17a1.85,1.85,0,0,0,.75-.21,5.86,5.86,0,0,0,.6-.41Z" style="fill:#423c25"/><path d="M119,87.66h.92V86l1.18-.16v1.77l1.52,0v1l-1.52.06v3.5a1,1,0,0,0,.1.56.38.38,0,0,0,.34.14,4,4,0,0,0,.93-.2l.15,1a6.44,6.44,0,0,1-1.39.22,1.86,1.86,0,0,1-1-.36,1.69,1.69,0,0,1-.3-1.06V88.63H119Z" style="fill:#423c25"/><path d="M124.93,91.31a2.16,2.16,0,0,0,.41,1.34,1.38,1.38,0,0,0,.9.39h.14a1.34,1.34,0,0,0,.79-.22,1.7,1.7,0,0,0,.58-1l1.17.23a3.76,3.76,0,0,1-.65,1.26,1.91,1.91,0,0,1-1.19.64,4.61,4.61,0,0,1-.72.07,4.07,4.07,0,0,1-.71-.07,2.14,2.14,0,0,1-1.19-.69,2.53,2.53,0,0,1-.67-1.24,4.54,4.54,0,0,1-.11-1c0-.12,0-.25,0-.37a3.59,3.59,0,0,1,.36-1.32,2.32,2.32,0,0,1,.78-.9,2.75,2.75,0,0,1,1-.39,3.64,3.64,0,0,1,.6-.05,4.18,4.18,0,0,1,.59,0,1.89,1.89,0,0,1,1.28.79,4,4,0,0,1,.59,2.46Zm2.71-.92a1.6,1.6,0,0,0-.39-1,1.2,1.2,0,0,0-.94-.42,1.34,1.34,0,0,0-1,.4,1.38,1.38,0,0,0-.4,1Z" style="fill:#423c25"/><path d="M130,86.07l1.17.05V94L130,94Z" style="fill:#423c25"/><path d="M132.19,87.81l1.23-.26,1.5,4.29,1.55-4,1.07.34L134.39,96l-1-.52.87-2.35Z" style="fill:#423c25"/><path d="M17.34,102.23a1.54,1.54,0,0,0-.79-.25h-.12a1.4,1.4,0,0,0-.68.25,1.92,1.92,0,0,0-.45.52,3.53,3.53,0,0,0-.22,1.39L15,106.67l-1.1,0-.1-6.09,1.15-.13,0,1.33a1.85,1.85,0,0,1,1-.94,1.53,1.53,0,0,1,.54-.09,3.28,3.28,0,0,1,1.12.24Z" style="fill:#423c25"/><path d="M20,104.22a2.1,2.1,0,0,0,.41,1.33,1.34,1.34,0,0,0,.91.39h.13a1.37,1.37,0,0,0,.8-.22,1.64,1.64,0,0,0,.57-1l1.17.23a3.45,3.45,0,0,1-.65,1.25,1.85,1.85,0,0,1-1.19.65,4.56,4.56,0,0,1-.72.06,3.35,3.35,0,0,1-.71-.07,2.16,2.16,0,0,1-1.19-.68,2.59,2.59,0,0,1-.66-1.24,4.61,4.61,0,0,1-.12-1c0-.13,0-.25,0-.38a3.24,3.24,0,0,1,.36-1.31,2.05,2.05,0,0,1,.78-.9,2.63,2.63,0,0,1,1-.39,3.64,3.64,0,0,1,.6,0l.59,0a2,2,0,0,1,1.29.8,4,4,0,0,1,.59,2.45Zm2.71-.92a1.65,1.65,0,0,0-.38-1,1.22,1.22,0,0,0-.94-.42,1.31,1.31,0,0,0-1,.4,1.41,1.41,0,0,0-.4,1Z" style="fill:#423c25"/><path d="M26.18,99.32a.61.61,0,0,1,.2.47.62.62,0,0,1-.2.48.66.66,0,0,1-.49.2.66.66,0,0,1-.5-.2.66.66,0,0,1,0-1,.71.71,0,0,1,1,0Zm-1.09,1.81,1.17,0-.11,5.84h-1Z" style="fill:#423c25"/><path d="M28.58,100.64l.05,1.33a1.77,1.77,0,0,1,.95-.92,2.21,2.21,0,0,1,.75-.14,2,2,0,0,1,.43,0,1.61,1.61,0,0,1,.95.61,2.53,2.53,0,0,1,.51,1.13,12.58,12.58,0,0,1,.07,1.79c0,.72,0,1.64,0,2.76l-1.1,0c0-.95,0-1.74,0-2.37,0-1,0-1.62-.05-1.81a1.16,1.16,0,0,0-.37-.7,1.07,1.07,0,0,0-.71-.24h0a1,1,0,0,0-.66.22,2.16,2.16,0,0,0-.44.57,3.74,3.74,0,0,0-.23,1.42l-.06,2.53-1.1,0-.1-6.09Z" style="fill:#423c25"/><path d="M33.34,100.57h.93V98.91l1.17-.16v1.77l1.53,0v1l-1.53,0V105a1,1,0,0,0,.11.57.39.39,0,0,0,.34.14,3.89,3.89,0,0,0,.92-.2l.16,1a6.53,6.53,0,0,1-1.39.22,1.83,1.83,0,0,1-1-.36,1.63,1.63,0,0,1-.3-1.06v-3.75h-.93Z" style="fill:#423c25"/><path d="M41.54,102.23a1.52,1.52,0,0,0-.79-.25h-.12a1.4,1.4,0,0,0-.68.25,1.74,1.74,0,0,0-.44.52,3.3,3.3,0,0,0-.23,1.39l-.06,2.53-1.1,0-.1-6.09,1.15-.13,0,1.33a1.88,1.88,0,0,1,1-.94,1.53,1.53,0,0,1,.54-.09,3.28,3.28,0,0,1,1.12.24Z" style="fill:#423c25"/><path d="M43.61,106.26a3.76,3.76,0,0,1,0-4.4,2.73,2.73,0,0,1,4,0,3.76,3.76,0,0,1,0,4.4,2.71,2.71,0,0,1-4,0Zm3.18-.76a2.77,2.77,0,0,0,0-2.8,1.43,1.43,0,0,0-2.4,0,2.71,2.71,0,0,0,0,2.8,1.43,1.43,0,0,0,2.4,0Z" style="fill:#423c25"/><path d="M53.49,106.89l0-1a1.74,1.74,0,0,1-.73.69,2.38,2.38,0,0,1-1.08.24,2.14,2.14,0,0,1-1.2-.39,2,2,0,0,1-.83-1.08,4.38,4.38,0,0,1-.25-1.42.17.17,0,0,1,0-.07,5.19,5.19,0,0,1,.24-1.49,2.26,2.26,0,0,1,.83-1.25,1.88,1.88,0,0,1,1.12-.32,4.75,4.75,0,0,1,.51,0A1.69,1.69,0,0,1,53.46,102l-.05-2.89H54.6v7.82Zm-2.93-3a2.49,2.49,0,0,0,.36,1.34,1.17,1.17,0,0,0,1,.61,1.26,1.26,0,0,0,1.1-.56,2.17,2.17,0,0,0,.37-1.32v-.07c0-1.32-.48-2-1.38-2a1.23,1.23,0,0,0-1.09.61,2.27,2.27,0,0,0-.36,1.31Z" style="fill:#423c25"/><path d="M59.38,107.24l-.06-1.33a1.75,1.75,0,0,1-.94.92,2.2,2.2,0,0,1-1.19.1,1.63,1.63,0,0,1-.95-.62,2.73,2.73,0,0,1-.51-1.12,16.24,16.24,0,0,1-.08-2.11c0-.67,0-1.48,0-2.44l1.11,0c0,.75,0,1.4,0,2a21.19,21.19,0,0,0,.06,2.22,1.15,1.15,0,0,0,.36.7,1.19,1.19,0,0,0,.71.24h0a1,1,0,0,0,.66-.22A2,2,0,0,0,59,105a3.56,3.56,0,0,0,.22-1.42l0-2.49,1.14-.08.09,6.11Z" style="fill:#423c25"/><path d="M64.73,101.83a1.56,1.56,0,0,0-.58-.11,1.39,1.39,0,0,0-.3,0,1.34,1.34,0,0,0-.72.46,1.89,1.89,0,0,0-.38,1,3.19,3.19,0,0,0,0,1.12,1.78,1.78,0,0,0,.43.88,1.28,1.28,0,0,0,.84.39h.12a1.42,1.42,0,0,0,.78-.22,1.24,1.24,0,0,0,.49-1l1.11.22a2.42,2.42,0,0,1-.56,1.26,2,2,0,0,1-1.18.64,4,4,0,0,1-.68.07,3.82,3.82,0,0,1-.68-.07,2.24,2.24,0,0,1-1.07-.55,2.4,2.4,0,0,1-.62-1.14,4.19,4.19,0,0,1-.17-1.17c0-.1,0-.2,0-.3a3.63,3.63,0,0,1,.35-1.34,2,2,0,0,1,.74-.9,2.42,2.42,0,0,1,.91-.39,3.27,3.27,0,0,1,.57,0l.52,0a2.15,2.15,0,0,1,1.17.53,2,2,0,0,1,.64,1.35l-1.09.18A1.26,1.26,0,0,0,64.73,101.83Z" style="fill:#423c25"/><path d="M68.84,104.22a2.1,2.1,0,0,0,.41,1.33,1.34,1.34,0,0,0,.91.39h.14a1.36,1.36,0,0,0,.79-.22,1.64,1.64,0,0,0,.57-1l1.17.23a3.31,3.31,0,0,1-.65,1.25,1.83,1.83,0,0,1-1.18.65,4.56,4.56,0,0,1-.72.06,3.38,3.38,0,0,1-.72-.07,2.16,2.16,0,0,1-1.19-.68,2.59,2.59,0,0,1-.66-1.24,4.61,4.61,0,0,1-.12-1c0-.13,0-.25,0-.38a3.24,3.24,0,0,1,.36-1.31,2.05,2.05,0,0,1,.78-.9,2.7,2.7,0,0,1,1-.39,3.64,3.64,0,0,1,.6,0l.6,0a2,2,0,0,1,1.28.8,4,4,0,0,1,.59,2.45Zm2.71-.92a1.59,1.59,0,0,0-.38-1,1.2,1.2,0,0,0-.94-.42,1.29,1.29,0,0,0-1,.4,1.42,1.42,0,0,0-.41,1Z" style="fill:#423c25"/><path d="M76.86,99.32a.61.61,0,0,1,.2.47.62.62,0,0,1-.2.48.66.66,0,0,1-.49.2.66.66,0,0,1-.5-.2.66.66,0,0,1,0-1,.71.71,0,0,1,1,0Zm-1.09,1.81,1.17,0-.11,5.84h-1Z" style="fill:#423c25"/><path d="M78.11,100.57H79V98.91l1.17-.16v1.77l1.53,0v1l-1.53,0V105a1,1,0,0,0,.11.57.4.4,0,0,0,.34.14,4,4,0,0,0,.93-.2l.15,1a6.53,6.53,0,0,1-1.39.22,1.83,1.83,0,0,1-1-.36,1.69,1.69,0,0,1-.3-1.06v-3.75h-.93Z" style="fill:#423c25"/><path d="M85.77,99.32a.61.61,0,0,1,.2.47.62.62,0,0,1-.2.48.66.66,0,0,1-.49.2.66.66,0,0,1-.5-.2.66.66,0,0,1,0-1,.71.71,0,0,1,1,0Zm-1.09,1.81,1.17,0-.11,5.84h-1Z" style="fill:#423c25"/><path d="M88.17,100.64l0,1.33a1.77,1.77,0,0,1,1-.92,2.21,2.21,0,0,1,.75-.14,2,2,0,0,1,.43,0,1.61,1.61,0,0,1,1,.61,2.65,2.65,0,0,1,.51,1.13,12.58,12.58,0,0,1,.07,1.79c0,.72,0,1.64,0,2.76l-1.1,0c0-.95,0-1.74,0-2.37,0-1,0-1.62-.05-1.81a1.16,1.16,0,0,0-.37-.7,1.07,1.07,0,0,0-.71-.24h0a.94.94,0,0,0-.66.22,2.16,2.16,0,0,0-.44.57,3.6,3.6,0,0,0-.22,1.42l-.07,2.53-1.1,0-.1-6.09Z" style="fill:#423c25"/><path d="M95.83,100.6l0,1a1.71,1.71,0,0,1,.74-.69,2.35,2.35,0,0,1,1.08-.24,2.19,2.19,0,0,1,1.2.39,2.09,2.09,0,0,1,.83,1.08,4.66,4.66,0,0,1,.25,1.42v.07a5.45,5.45,0,0,1-.23,1.48,2.32,2.32,0,0,1-.84,1.26,1.86,1.86,0,0,1-1.12.31,3,3,0,0,1-.5,0,1.68,1.68,0,0,1-1.42-1.06l0,2.88H94.72V100.6Zm2.93,3a2.49,2.49,0,0,0-.36-1.34,1.17,1.17,0,0,0-1-.61,1.29,1.29,0,0,0-1.1.55,2.3,2.3,0,0,0-.37,1.33v.07c0,1.31.48,2,1.38,2a1.25,1.25,0,0,0,1.1-.61,2.39,2.39,0,0,0,.35-1.31Z" style="fill:#423c25"/><path d="M101,99l1.17,0v7.84l-1.11,0Z" style="fill:#423c25"/><path d="M103.94,101.82a2.24,2.24,0,0,1,1.15-.61,3,3,0,0,1,.68-.07,3.79,3.79,0,0,1,.86.1,1.41,1.41,0,0,1,1.08,1.12,8,8,0,0,1,.16,1.79c0,.4,0,.85-.05,1.35v0c0,.29.12.43.34.43a1.05,1.05,0,0,0,.41-.1l.09,1a3,3,0,0,1-.74.1,1.06,1.06,0,0,1-1-.55,2.78,2.78,0,0,1-.94.58,3.19,3.19,0,0,1-.89.13h0a2.14,2.14,0,0,1-.84-.17,1.62,1.62,0,0,1-.65-.49,1.46,1.46,0,0,1-.28-.76c0-.06,0-.11,0-.17a2.24,2.24,0,0,1,.15-.78,1.64,1.64,0,0,1,.91-.86,7.6,7.6,0,0,1,2.5-.52,1.43,1.43,0,0,0-.19-.92,1.12,1.12,0,0,0-.74-.25h-.19a1.45,1.45,0,0,0-.7.15,1,1,0,0,0-.4.82l-1.12-.15A1.87,1.87,0,0,1,103.94,101.82Zm2.88,2.48a5.07,5.07,0,0,0-1.91.4.89.89,0,0,0-.46.72v0a.67.67,0,0,0,.26.58,1.08,1.08,0,0,0,.59.16h.17a1.85,1.85,0,0,0,.75-.21c.19-.12.39-.25.6-.41Z" style="fill:#423c25"/><path d="M109,100.71l1.23-.25,1.49,4.29,1.56-4,1.06.34-3.14,7.88-1-.52.87-2.35Z" style="fill:#423c25"/><path d="M116.6,105.2a.65.65,0,0,1,0,1,.69.69,0,0,1-.49.19.67.67,0,0,1-.49-.19.65.65,0,0,1,0-1,.68.68,0,0,1,.49-.2A.7.7,0,0,1,116.6,105.2Z" style="fill:#423c25"/><path d="M119.64,98.66l5.7-.1v1.16l-2.13,0v6.57H122V99.77l-2.33.06Z" style="fill:#423c25"/><path d="M127.59,99v2.9a1.72,1.72,0,0,1,.95-.91,2.13,2.13,0,0,1,1.17-.1,1.62,1.62,0,0,1,1,.62,2.59,2.59,0,0,1,.5,1.12,12.05,12.05,0,0,1,.08,1.8c0,.72,0,1.63,0,2.75l-1.11,0c0-1,0-1.75,0-2.38a15.46,15.46,0,0,0-.05-1.81,1.13,1.13,0,0,0-.37-.69A1.11,1.11,0,0,0,129,102h0a1,1,0,0,0-.65.22,2.24,2.24,0,0,0-.45.58,3.54,3.54,0,0,0-.22,1.41l-.06,2.53-1.11,0-.09-7.67Z" style="fill:#423c25"/><path d="M133.55,104.22a2.1,2.1,0,0,0,.41,1.33,1.3,1.3,0,0,0,.91.39H135a1.34,1.34,0,0,0,.79-.22,1.7,1.7,0,0,0,.58-1l1.17.23a3.61,3.61,0,0,1-.65,1.25,1.88,1.88,0,0,1-1.19.65,4.56,4.56,0,0,1-.72.06,3.35,3.35,0,0,1-.71-.07,2.13,2.13,0,0,1-1.19-.68,2.61,2.61,0,0,1-.67-1.24,4.6,4.6,0,0,1-.11-1c0-.13,0-.25,0-.38a3.59,3.59,0,0,1,.36-1.31,2.19,2.19,0,0,1,.78-.9,2.75,2.75,0,0,1,1-.39,3.64,3.64,0,0,1,.6,0l.59,0a2,2,0,0,1,1.28.8,4,4,0,0,1,.6,2.45Zm2.71-.92a1.6,1.6,0,0,0-.39-1,1.2,1.2,0,0,0-.94-.42,1.3,1.3,0,0,0-1,.4,1.41,1.41,0,0,0-.4,1Z" style="fill:#423c25"/><path d="M15,113.55l0,1.33a1.73,1.73,0,0,1,1-.92,2.21,2.21,0,0,1,.75-.14,2.1,2.1,0,0,1,.43.05,1.61,1.61,0,0,1,1,.61,2.77,2.77,0,0,1,.51,1.13,14.42,14.42,0,0,1,.07,1.79c0,.72,0,1.64,0,2.75l-1.11,0c0-1,0-1.75,0-2.38a15.24,15.24,0,0,0-.05-1.8,1.11,1.11,0,0,0-.37-.7,1,1,0,0,0-.7-.24h0a.92.92,0,0,0-.65.22,2.18,2.18,0,0,0-.45.57,3.76,3.76,0,0,0-.22,1.42L15,119.73l-1.1,0-.1-6.1Z" style="fill:#423c25"/><path d="M21,117.12a2.14,2.14,0,0,0,.41,1.34,1.32,1.32,0,0,0,.91.39h.13a1.45,1.45,0,0,0,.8-.22,1.64,1.64,0,0,0,.57-1l1.17.23a3.54,3.54,0,0,1-.65,1.25,1.9,1.9,0,0,1-1.19.65,4.56,4.56,0,0,1-.72.06,3.35,3.35,0,0,1-.71-.07,2.22,2.22,0,0,1-1.19-.68,2.73,2.73,0,0,1-.67-1.25,5.17,5.17,0,0,1-.11-1,2.36,2.36,0,0,1,0-.37,3.49,3.49,0,0,1,.35-1.32,2.22,2.22,0,0,1,.78-.89,2.75,2.75,0,0,1,1-.39,2.8,2.8,0,0,1,.6,0l.59,0a2,2,0,0,1,1.29.8,4,4,0,0,1,.59,2.45Zm2.71-.92a1.59,1.59,0,0,0-.38-1,1.22,1.22,0,0,0-.94-.42,1.31,1.31,0,0,0-1,.4,1.4,1.4,0,0,0-.4,1Z" style="fill:#423c25"/><path d="M26,114l1.2-.26,1.19,4.42h0l1-4.16,1.35.06.89,3.94h0l1.13-4.52,1.14.31-1.69,5.72-1.2-.1-1-3.66h0L29,119.57l-1.29.15Z" style="fill:#423c25"/><path d="M43.77,113.5l0,1a1.7,1.7,0,0,1,.73-.7,2.39,2.39,0,0,1,1.09-.23,2.2,2.2,0,0,1,1.19.38,2,2,0,0,1,.83,1.09,4.56,4.56,0,0,1,.26,1.41v.08a5.12,5.12,0,0,1-.24,1.48,2.23,2.23,0,0,1-.83,1.25,1.9,1.9,0,0,1-1.12.32,2.89,2.89,0,0,1-.5,0,1.7,1.7,0,0,1-1.42-1.06l.05,2.88H42.66V113.5Zm2.93,3a2.46,2.46,0,0,0-.36-1.34,1.19,1.19,0,0,0-1-.62,1.29,1.29,0,0,0-1.1.56,2.2,2.2,0,0,0-.37,1.33v.07c0,1.31.48,2,1.37,2a1.25,1.25,0,0,0,1.1-.61,2.33,2.33,0,0,0,.36-1.32Z" style="fill:#423c25"/><path d="M49,111.89l1.17,0v7.84l-1.12,0Z" style="fill:#423c25"/><path d="M51.89,119.17a3.33,3.33,0,0,1-.71-2.21,3.29,3.29,0,0,1,.71-2.19,2.71,2.71,0,0,1,4,0,3.29,3.29,0,0,1,.71,2.19,3.33,3.33,0,0,1-.71,2.21,2.73,2.73,0,0,1-4,0Zm3.18-.76a2.51,2.51,0,0,0,.38-1.41,2.45,2.45,0,0,0-.38-1.39,1.36,1.36,0,0,0-1.2-.66,1.34,1.34,0,0,0-1.2.66,2.37,2.37,0,0,0-.39,1.39,2.44,2.44,0,0,0,.39,1.41,1.35,1.35,0,0,0,1.2.65A1.38,1.38,0,0,0,55.07,118.41Z" style="fill:#423c25"/><path d="M57.63,113.48h.92v-1.67l1.18-.15v1.77l1.53-.06v1l-1.53,0v3.5a1.09,1.09,0,0,0,.1.57.4.4,0,0,0,.34.14,4.42,4.42,0,0,0,.93-.2l.16,1a7.22,7.22,0,0,1-1.4.22,1.86,1.86,0,0,1-1-.36,1.69,1.69,0,0,1-.3-1.06v-3.76h-.92Z" style="fill:#423c25"/><path d="M73.43,115.13a1.63,1.63,0,0,0-.8-.24h-.12a1.2,1.2,0,0,0-.67.25,1.78,1.78,0,0,0-.45.52,3.35,3.35,0,0,0-.22,1.39l-.06,2.53-1.11,0-.09-6.09,1.14-.13.06,1.33a1.81,1.81,0,0,1,1-.94,1.29,1.29,0,0,1,.53-.1,3.32,3.32,0,0,1,1.13.25Z" style="fill:#423c25"/><path d="M76,117.12a2.14,2.14,0,0,0,.41,1.34,1.32,1.32,0,0,0,.91.39h.13a1.47,1.47,0,0,0,.8-.22,1.64,1.64,0,0,0,.57-1l1.17.23a3.54,3.54,0,0,1-.65,1.25,1.9,1.9,0,0,1-1.19.65,4.56,4.56,0,0,1-.72.06,3.35,3.35,0,0,1-.71-.07,2.22,2.22,0,0,1-1.19-.68,2.73,2.73,0,0,1-.67-1.25,5.17,5.17,0,0,1-.11-1c0-.12,0-.24,0-.37a3.7,3.7,0,0,1,.36-1.32,2.22,2.22,0,0,1,.78-.89,2.75,2.75,0,0,1,1-.39,2.8,2.8,0,0,1,.6,0l.59,0a2,2,0,0,1,1.29.8,4,4,0,0,1,.59,2.45Zm2.71-.92a1.59,1.59,0,0,0-.38-1,1.22,1.22,0,0,0-.94-.42,1.31,1.31,0,0,0-1,.4,1.4,1.4,0,0,0-.4,1Z" style="fill:#423c25"/><path d="M82.19,113.5l0,1a1.72,1.72,0,0,1,.74-.7,2.38,2.38,0,0,1,1.08-.23,2.23,2.23,0,0,1,1.2.38,2.07,2.07,0,0,1,.83,1.09,4.55,4.55,0,0,1,.25,1.41v.08A5.45,5.45,0,0,1,86.1,118a2.29,2.29,0,0,1-.84,1.25,1.86,1.86,0,0,1-1.12.32,3,3,0,0,1-.5,0,1.7,1.7,0,0,1-1.42-1.06l0,2.88H81.08V113.5Zm2.93,3a2.46,2.46,0,0,0-.36-1.34,1.18,1.18,0,0,0-1-.62,1.3,1.3,0,0,0-1.1.56,2.27,2.27,0,0,0-.37,1.33v.07c0,1.31.48,2,1.38,2a1.28,1.28,0,0,0,1.1-.61,2.4,2.4,0,0,0,.35-1.32Z" style="fill:#423c25"/><path d="M87.38,111.89l1.17,0v7.84l-1.11,0Z" style="fill:#423c25"/><path d="M90.3,114.73a2.24,2.24,0,0,1,1.15-.61,3,3,0,0,1,.68-.07,3.79,3.79,0,0,1,.86.1,1.41,1.41,0,0,1,1.08,1.12,8,8,0,0,1,.16,1.79c0,.4,0,.85,0,1.35v0c0,.29.12.43.34.43a1.27,1.27,0,0,0,.41-.1l.09,1a3,3,0,0,1-.74.11,1.06,1.06,0,0,1-1-.56,2.68,2.68,0,0,1-.94.59,3.61,3.61,0,0,1-.89.13h0a2,2,0,0,1-.84-.17,1.52,1.52,0,0,1-.65-.48,1.46,1.46,0,0,1-.28-.77s0-.1,0-.16a2.34,2.34,0,0,1,.15-.79,1.7,1.7,0,0,1,.92-.86,7.73,7.73,0,0,1,2.49-.52,1.45,1.45,0,0,0-.19-.92,1.18,1.18,0,0,0-.74-.24H92a1.45,1.45,0,0,0-.7.15,1,1,0,0,0-.4.81l-1.12-.14A1.87,1.87,0,0,1,90.3,114.73Zm2.88,2.48a4.88,4.88,0,0,0-1.91.4.89.89,0,0,0-.46.72v0a.67.67,0,0,0,.27.58,1,1,0,0,0,.58.15h.17a1.58,1.58,0,0,0,.75-.21,5.86,5.86,0,0,0,.6-.41Z" style="fill:#423c25"/><path d="M99.22,114.74a1.63,1.63,0,0,0-.59-.12,1.53,1.53,0,0,0-.3,0,1.44,1.44,0,0,0-.72.47,1.86,1.86,0,0,0-.38,1,4.73,4.73,0,0,0,0,.52,2.43,2.43,0,0,0,.07.61,1.67,1.67,0,0,0,.43.87,1.19,1.19,0,0,0,.83.39h.12a1.45,1.45,0,0,0,.79-.22,1.24,1.24,0,0,0,.49-1l1.11.23a2.29,2.29,0,0,1-.57,1.25,1.93,1.93,0,0,1-1.18.65,3.88,3.88,0,0,1-.67.06,3,3,0,0,1-.68-.07,2.18,2.18,0,0,1-1.07-.54,2.5,2.5,0,0,1-.63-1.14,4.29,4.29,0,0,1-.16-1.17c0-.1,0-.2,0-.3a3.89,3.89,0,0,1,.34-1.35,2.22,2.22,0,0,1,.74-.89,2.46,2.46,0,0,1,.92-.39,2.52,2.52,0,0,1,.57-.05l.52,0a2,2,0,0,1,1.81,1.88l-1.1.17A1.25,1.25,0,0,0,99.22,114.74Z" style="fill:#423c25"/><path d="M103.33,117.12a2.14,2.14,0,0,0,.41,1.34,1.32,1.32,0,0,0,.91.39h.13a1.45,1.45,0,0,0,.8-.22,1.64,1.64,0,0,0,.57-1l1.17.23a3.54,3.54,0,0,1-.65,1.25,1.9,1.9,0,0,1-1.19.65,4.56,4.56,0,0,1-.72.06,3.35,3.35,0,0,1-.71-.07,2.22,2.22,0,0,1-1.19-.68,2.73,2.73,0,0,1-.67-1.25,5.17,5.17,0,0,1-.11-1c0-.12,0-.24,0-.37a3.7,3.7,0,0,1,.36-1.32,2.22,2.22,0,0,1,.78-.89,2.75,2.75,0,0,1,1-.39,2.8,2.8,0,0,1,.6,0l.59,0a2,2,0,0,1,1.29.8,4,4,0,0,1,.59,2.45Zm2.71-.92a1.59,1.59,0,0,0-.38-1,1.22,1.22,0,0,0-.94-.42,1.31,1.31,0,0,0-1,.4,1.4,1.4,0,0,0-.4,1Z" style="fill:#423c25"/><path d="M108.37,117.74l1.12-.21c.06.57.27.89.65,1a3.14,3.14,0,0,0,.71.09l.28,0a.88.88,0,0,0,.59-.25.72.72,0,0,0,.19-.35s0,0,0-.06a.5.5,0,0,0-.1-.27,1.16,1.16,0,0,0-.28-.26,6.93,6.93,0,0,0-1-.35c-.56-.16-1-.29-1.21-.39a1.55,1.55,0,0,1-.59-.44,1.25,1.25,0,0,1-.24-.7v-.09a1.81,1.81,0,0,1,.16-.73,1.45,1.45,0,0,1,.66-.63,2.59,2.59,0,0,1,1-.3,2.55,2.55,0,0,1,.39,0,3.27,3.27,0,0,1,.54,0,2.43,2.43,0,0,1,.9.36,2.24,2.24,0,0,1,.72,1.37l-1.06.14c-.14-.48-.32-.75-.54-.83a1.87,1.87,0,0,0-.56-.09h-.11a1,1,0,0,0-.57.19.57.57,0,0,0-.26.42v.05a.43.43,0,0,0,.15.34,2.63,2.63,0,0,0,1,.34,6.09,6.09,0,0,1,1.37.47,1.35,1.35,0,0,1,.72.63,2,2,0,0,1,.14.75v0a1.58,1.58,0,0,1-.23.79,1.94,1.94,0,0,1-.76.62,3.15,3.15,0,0,1-1.29.26h-.08a3.63,3.63,0,0,1-1.1-.13,1.93,1.93,0,0,1-.75-.45A2.34,2.34,0,0,1,108.37,117.74Z" style="fill:#423c25"/><path d="M121.71,113.48h.92v-1.67l1.18-.15v1.77l1.53-.06v1l-1.53,0v3.5a1.09,1.09,0,0,0,.1.57.4.4,0,0,0,.34.14,4.69,4.69,0,0,0,.93-.2l.16,1a7.33,7.33,0,0,1-1.4.22,1.86,1.86,0,0,1-1-.36,1.69,1.69,0,0,1-.3-1.06v-3.76h-.92Z" style="fill:#423c25"/><path d="M127.58,111.87v2.9a1.73,1.73,0,0,1,1-.91,1.89,1.89,0,0,1,1.17-.1,1.62,1.62,0,0,1,1,.62,2.59,2.59,0,0,1,.5,1.12,12.05,12.05,0,0,1,.08,1.8c0,.71,0,1.63-.05,2.75l-1.1,0c0-1,0-1.75,0-2.38,0-1,0-1.62-.05-1.81a1.16,1.16,0,0,0-.37-.7,1.11,1.11,0,0,0-.71-.24h0a.92.92,0,0,0-.65.22,2.18,2.18,0,0,0-.45.57,3.64,3.64,0,0,0-.22,1.42l-.07,2.53-1.1,0-.09-7.67Z" style="fill:#423c25"/><path d="M133.55,117.12a2.14,2.14,0,0,0,.41,1.34,1.29,1.29,0,0,0,.9.39H135a1.41,1.41,0,0,0,.79-.22,1.7,1.7,0,0,0,.58-1l1.17.23a3.71,3.71,0,0,1-.65,1.25,1.92,1.92,0,0,1-1.19.65,4.56,4.56,0,0,1-.72.06,3.29,3.29,0,0,1-.71-.07,2.18,2.18,0,0,1-1.19-.68,2.56,2.56,0,0,1-.67-1.25,4.54,4.54,0,0,1-.11-1c0-.12,0-.24,0-.37a3.7,3.7,0,0,1,.36-1.32,2.22,2.22,0,0,1,.78-.89,2.75,2.75,0,0,1,1-.39,2.8,2.8,0,0,1,.6,0l.59,0a1.91,1.91,0,0,1,1.28.8,3.91,3.91,0,0,1,.59,2.45Zm2.71-.92a1.54,1.54,0,0,0-.39-1,1.2,1.2,0,0,0-.94-.42,1.3,1.3,0,0,0-1,.4,1.36,1.36,0,0,0-.4,1Z" style="fill:#423c25"/><path d="M14.53,132.07a3.75,3.75,0,0,1,0-4.39,2.47,2.47,0,0,1,2-.87,2.47,2.47,0,0,1,2,.87,3.75,3.75,0,0,1,0,4.39,2.47,2.47,0,0,1-2,.87A2.47,2.47,0,0,1,14.53,132.07Zm3.18-.75a2.79,2.79,0,0,0,0-2.81,1.43,1.43,0,0,0-2.4,0,2.73,2.73,0,0,0,0,2.81,1.43,1.43,0,0,0,2.4,0Z" style="fill:#423c25"/><path d="M23.79,128a1.65,1.65,0,0,0-.79-.25h-.12a1.23,1.23,0,0,0-.68.25,1.78,1.78,0,0,0-.45.52,3.49,3.49,0,0,0-.22,1.39l-.06,2.52-1.11,0-.09-6.1,1.15-.12,0,1.33a1.78,1.78,0,0,1,1-.94,1.33,1.33,0,0,1,.54-.1,3.09,3.09,0,0,1,1.12.25Z" style="fill:#423c25"/><path d="M26.34,125.13a.68.68,0,0,1,0,1,.71.71,0,0,1-1,0,.68.68,0,0,1,0-1,.69.69,0,0,1,.49-.19A.69.69,0,0,1,26.34,125.13ZM25.24,127l1.18,0-.11,5.84h-1Z" style="fill:#423c25"/><path d="M27.84,132.9l1.1-.19c.12.55.36.87.73,1a2.48,2.48,0,0,0,.61.07,2.21,2.21,0,0,0,.51-.05,1,1,0,0,0,.77-.49,2.44,2.44,0,0,0,.17-1.08c0-.14,0-.28,0-.43a2.27,2.27,0,0,1-1.07.69,4.56,4.56,0,0,1-.75.06h-.25a2.06,2.06,0,0,1-1.06-.39,2,2,0,0,1-.73-.91,4,4,0,0,1-.25-1.34,1.62,1.62,0,0,1,0-.22,3.93,3.93,0,0,1,.18-1.21,2.22,2.22,0,0,1,.73-1.07,2.67,2.67,0,0,1,1-.54,2.91,2.91,0,0,1,.6-.06,3.12,3.12,0,0,1,.52,0,2,2,0,0,1,1.17.65v-.64l1,0c0,.89,0,1.69,0,2.4a33,33,0,0,1-.13,4,1.92,1.92,0,0,1-.57,1,1.9,1.9,0,0,1-.92.42,7.46,7.46,0,0,1-1.05.1h-.05a3.36,3.36,0,0,1-.88-.11,1.84,1.84,0,0,1-.78-.45A2.67,2.67,0,0,1,27.84,132.9Zm3.57-2.05a2.45,2.45,0,0,0,.33-1.33,2.11,2.11,0,0,0-.35-1.28,1.31,1.31,0,0,0-1.14-.56,1.25,1.25,0,0,0-1.14.62,2.38,2.38,0,0,0-.33,1.31,2.2,2.2,0,0,0,.35,1.26,1.28,1.28,0,0,0,1.12.58A1.32,1.32,0,0,0,31.41,130.85Z" style="fill:#423c25"/><path d="M35,125.13a.65.65,0,0,1,0,1,.7.7,0,0,1-1,0,.68.68,0,0,1,0-1,.73.73,0,0,1,1,0ZM34,127l1.17,0-.1,5.84H34Z" style="fill:#423c25"/><path d="M37.45,126.45l0,1.33a1.75,1.75,0,0,1,1-.91,2.13,2.13,0,0,1,1.17-.1,1.62,1.62,0,0,1,1,.62,2.59,2.59,0,0,1,.5,1.12,12.05,12.05,0,0,1,.08,1.8c0,.72,0,1.63,0,2.75L40,133c0-1,0-1.75,0-2.38a15.46,15.46,0,0,0-.05-1.81,1.06,1.06,0,0,0-1.07-.94h0a1,1,0,0,0-.65.22,2.24,2.24,0,0,0-.45.58,3.74,3.74,0,0,0-.22,1.41l-.06,2.53-1.11,0-.09-6.09Z" style="fill:#423c25"/><path d="M42.91,127.64a2.21,2.21,0,0,1,1.14-.61,3.08,3.08,0,0,1,.68-.08,4.47,4.47,0,0,1,.87.1,1.4,1.4,0,0,1,1.07,1.13,7.41,7.41,0,0,1,.16,1.79c0,.4,0,.85,0,1.35v0c0,.28.11.43.33.43a1.21,1.21,0,0,0,.41-.1l.09,1a2.94,2.94,0,0,1-.73.11,1.08,1.08,0,0,1-1-.56,2.74,2.74,0,0,1-.94.59,3.12,3.12,0,0,1-.88.12H44a2.12,2.12,0,0,1-.83-.17,1.52,1.52,0,0,1-.65-.48,1.5,1.5,0,0,1-.29-.77v-.17a2.29,2.29,0,0,1,.15-.78,1.67,1.67,0,0,1,.91-.86,7.87,7.87,0,0,1,2.49-.52,1.52,1.52,0,0,0-.18-.92,1.22,1.22,0,0,0-.75-.24h-.18a1.32,1.32,0,0,0-.7.16,1,1,0,0,0-.4.81l-1.13-.14A1.83,1.83,0,0,1,42.91,127.64Zm2.87,2.47a5,5,0,0,0-1.9.41.87.87,0,0,0-.46.71.13.13,0,0,0,0,.06.64.64,0,0,0,.27.57,1,1,0,0,0,.58.16h.17a1.85,1.85,0,0,0,.75-.21,5.86,5.86,0,0,0,.6-.41Z" style="fill:#423c25"/><path d="M48.67,124.79l1.18.06v7.83l-1.12.06Z" style="fill:#423c25"/><path d="M52.08,131a.64.64,0,0,1,0,.95.7.7,0,0,1-1,0,.62.62,0,0,1-.2-.48.61.61,0,0,1,.2-.47.7.7,0,0,1,1,0Z" style="fill:#423c25"/></g></g></svg>