<svg xmlns="http://www.w3.org/2000/svg" width="150" height="150" viewBox="0 0 150 150"><g id="b0cb1db8-8645-4e6f-8a25-f41bcf443e17" data-name="fond"><rect x="0.3" y="-0.1" width="149.39" height="149.69" style="fill:#fff"/></g><g id="f6ebc207-0f69-48a5-9c69-0733c3c60447" data-name="shuri peinture"><path d="M158.59,20.38l-13.37-.64A2.75,2.75,0,0,0,145,18l0,0a.15.15,0,0,0,.09.06l7.38.36-6.12-4.63h0v0a2.7,2.7,0,0,0,1.5-1Z" style="fill:#fff"/><path d="M153.14-3.26,146.43,8.31a2.87,2.87,0,0,0-1.63-.63V7.56a.23.23,0,0,0,.2-.11l2.91-5.54-6.4,2.82s0,0-.05,0l-.1,0a2.57,2.57,0,0,0-.14-1.8Z" style="fill:#fff"/><path d="M152.54,18.38,145.16,18a.15.15,0,0,1-.09-.06s0,0,0-.06l1.3-4.14,0,0h0Z" style="fill:#423c25"/><path d="M147.9,1.91,145,7.45a.23.23,0,0,1-.2.11.19.19,0,0,1-.14,0l-3.17-2.6a.11.11,0,0,1,0-.14s0,0,.05,0Z" style="fill:#423c25"/><path d="M146.4,13.72v0l0,0-1.3,4.14s0,0,0,.06l0,0a1.6,1.6,0,0,0-.21-.32c-.87-1-2.6-.75-3.6-.17-.11.07-2,1.21-1.69,3a2.31,2.31,0,0,0,.92,1.51l-.05.08a.11.11,0,0,0-.12,0l-4,1.08a.16.16,0,0,0-.12.16l-.13,0c.28-1.27-.92-2.49-2-3-.12-.06-2.16-1-3.44.36a2.29,2.29,0,0,0-.39.54l-.07,0a.08.08,0,0,0,0-.11l-3.09-2.15a.11.11,0,0,0-.08,0v-.08l.29,0c1.32-.29,1.89-1.94,1.86-3.09,0-.13-.1-2.37-1.86-2.91a2.82,2.82,0,0,0-1.55,0l0-.09a.13.13,0,0,0,.09-.1L126.91,9a.14.14,0,0,0-.07-.18l.06-.09c1,.77,2.52.39,3.43-.22.1-.07,1.95-1.33,1.48-3.11a2.49,2.49,0,0,0-.67-1.17l.1-.1a.15.15,0,0,0,.19.09L135.16,3a.21.21,0,0,0,.13-.11l.09,0-.07.19c-.41,1.28.74,2.6,1.76,3.14.12.06,2.11,1.09,3.45-.16a2.86,2.86,0,0,0,.83-1.37l.1,0a.11.11,0,0,0,0,.14l3.17,2.6a.19.19,0,0,0,.14,0v.12a1.92,1.92,0,0,0-.41.05c-1.3.3-1.85,2-1.8,3.12,0,.13.14,2.36,1.9,2.88A3.54,3.54,0,0,0,146.4,13.72ZM137.59,15a2.31,2.31,0,1,0-3.26.3A2.29,2.29,0,0,0,137.59,15Z" style="fill:#423c25"/><path d="M141.73,22.75V36.18l-7.18-11.29A2.64,2.64,0,0,0,136,23.35v-.08l.13,0a.19.19,0,0,0,0,.1l4,6.31.23-7.53a.11.11,0,0,0,0-.08l.05-.08a2.77,2.77,0,0,0,1.29.49Z" style="fill:#fff"/><path d="M140.42,22.17l-.23,7.53-4-6.31a.19.19,0,0,1,0-.1.16.16,0,0,1,.12-.16l4-1.08a.11.11,0,0,1,.12,0A.11.11,0,0,1,140.42,22.17Z" style="fill:#423c25"/><path d="M137.29,11.72A2.31,2.31,0,1,1,134,12,2.29,2.29,0,0,1,137.29,11.72Z" style="fill:#fff"/><path d="M130.32-10l6.54,11.68a2.6,2.6,0,0,0-1.48,1.26l-.09,0a.19.19,0,0,0,0-.15l-3.32-6L131.23,4a.17.17,0,0,0,0,.07l-.1.1a2.77,2.77,0,0,0-1.76-.72Z" style="fill:#fff"/><path d="M135.27,2.74a.19.19,0,0,1,0,.15.21.21,0,0,1-.13.11l-3.73,1.17a.15.15,0,0,1-.19-.09.17.17,0,0,1,0-.07L132-3.23Z" style="fill:#423c25"/><path d="M130.41,23.53l-12,6.09,6.88-11.46a2.79,2.79,0,0,0,1.74.65v.08a.16.16,0,0,0-.14.08l-3.64,6.1,6.94-3.86,0,0,.07,0a1.51,1.51,0,0,0-.18.44A2.68,2.68,0,0,0,130.41,23.53Z" style="fill:#fff"/><path d="M130.15,21.07a.08.08,0,0,1,0,.11l0,0-6.94,3.86,3.64-6.1a.16.16,0,0,1,.14-.08.11.11,0,0,1,.08,0Z" style="fill:#423c25"/><path d="M126.84,8.77a.14.14,0,0,1,.07.18l-1.12,3.59a.13.13,0,0,1-.09.1.17.17,0,0,1-.12,0l-6.49-4,7.68.16Z" style="fill:#423c25"/><path d="M126.9,8.68l-.06.09h-.07l-7.68-.16,6.49,4a.17.17,0,0,0,.12,0l0,.09a2.53,2.53,0,0,0-1.49,1l-11.44-7,13.38-.23a2.58,2.58,0,0,0,.55,2Z" style="fill:#fff"/><path d="M144.8,7.68a2.87,2.87,0,0,1,1.63.63l6.71-11.57-11.93,6.2a2.57,2.57,0,0,1,.14,1.8,2.86,2.86,0,0,1-.83,1.37c-1.34,1.25-3.33.22-3.45.16-1-.54-2.17-1.86-1.76-3.14l.07-.19a2.6,2.6,0,0,1,1.48-1.26L130.32-10l-.94,13.46a2.77,2.77,0,0,1,1.76.72,2.49,2.49,0,0,1,.67,1.17c.47,1.78-1.38,3-1.48,3.11-.91.61-2.47,1-3.43.22l-.18-.15a2.58,2.58,0,0,1-.55-2l-13.38.23,11.44,7a2.53,2.53,0,0,1,1.49-1,2.82,2.82,0,0,1,1.55,0c1.76.54,1.86,2.78,1.86,2.91,0,1.15-.54,2.8-1.86,3.09l-.29,0a2.79,2.79,0,0,1-1.74-.65l-6.88,11.46,12-6.09a2.68,2.68,0,0,1-.35-1.88,1.51,1.51,0,0,1,.18-.44,2.29,2.29,0,0,1,.39-.54c1.28-1.33,3.32-.42,3.44-.36,1,.47,2.23,1.69,2,3v.08a2.64,2.64,0,0,1-1.46,1.54l7.18,11.29V22.5a2.77,2.77,0,0,1-1.29-.49,2.31,2.31,0,0,1-.92-1.51c-.35-1.8,1.58-2.94,1.69-3,1-.58,2.73-.85,3.6.17A1.6,1.6,0,0,1,145,18a2.75,2.75,0,0,1,.2,1.76l13.37.64L147.9,12.72a2.7,2.7,0,0,1-1.5,1,3.54,3.54,0,0,1-1.91,0c-1.76-.52-1.9-2.75-1.9-2.88-.05-1.16.5-2.82,1.8-3.12A1.92,1.92,0,0,1,144.8,7.68Z" style="fill:none;stroke:#423c25;stroke-miterlimit:10;stroke-width:0.599213838577271px"/><path d="M130.17,21.18l0,0-6.94,3.86,3.64-6.1a.16.16,0,0,1,.14-.08.11.11,0,0,1,.08,0l3.09,2.15A.08.08,0,0,1,130.17,21.18Z" style="fill:none;stroke:#423c25;stroke-miterlimit:10;stroke-width:0.599213838577271px"/><path d="M136.15,23.29a.19.19,0,0,0,0,.1l4,6.31.23-7.53a.11.11,0,0,0,0-.08.11.11,0,0,0-.12,0l-4,1.08A.16.16,0,0,0,136.15,23.29Z" style="fill:none;stroke:#423c25;stroke-miterlimit:10;stroke-width:0.599213838577271px"/><path d="M146.4,13.74h0l6.12,4.63L145.16,18a.15.15,0,0,1-.09-.06s0,0,0-.06l1.3-4.14Z" style="fill:none;stroke:#423c25;stroke-miterlimit:10;stroke-width:0.599213838577271px"/><path d="M141.45,4.77s0,0,.05,0l6.4-2.82L145,7.45a.23.23,0,0,1-.2.11.19.19,0,0,1-.14,0l-3.17-2.6A.11.11,0,0,1,141.45,4.77Z" style="fill:none;stroke:#423c25;stroke-miterlimit:10;stroke-width:0.599213838577271px"/><path d="M135.29,2.89a.19.19,0,0,0,0-.15l-3.32-6L131.23,4a.17.17,0,0,0,0,.07.15.15,0,0,0,.19.09L135.16,3A.21.21,0,0,0,135.29,2.89Z" style="fill:none;stroke:#423c25;stroke-miterlimit:10;stroke-width:0.599213838577271px"/><path d="M125.7,12.64a.17.17,0,0,1-.12,0l-6.49-4,7.68.16h.07a.14.14,0,0,1,.07.18l-1.12,3.59A.13.13,0,0,1,125.7,12.64Z" style="fill:none;stroke:#423c25;stroke-miterlimit:10;stroke-width:0.599213838577271px"/><path d="M137.29,11.72A2.31,2.31,0,1,1,134,12,2.29,2.29,0,0,1,137.29,11.72Z" style="fill:none;stroke:#423c25;stroke-miterlimit:10;stroke-width:0.599213838577271px"/><path d="M158.59,20.38l-13.37-.64A2.75,2.75,0,0,0,145,18l0,0a.15.15,0,0,0,.09.06l7.38.36-6.12-4.63h0v0a2.7,2.7,0,0,0,1.5-1Z" style="fill:#fff"/><path d="M153.14-3.26,146.43,8.31a2.87,2.87,0,0,0-1.63-.63V7.56a.23.23,0,0,0,.2-.11l2.91-5.54-6.4,2.82s0,0-.05,0l-.1,0a2.57,2.57,0,0,0-.14-1.8Z" style="fill:#fff"/><path d="M152.54,18.38,145.16,18a.15.15,0,0,1-.09-.06s0,0,0-.06l1.3-4.14,0,0h0Z" style="fill:#423c25"/><path d="M147.9,1.91,145,7.45a.23.23,0,0,1-.2.11.19.19,0,0,1-.14,0l-3.17-2.6a.11.11,0,0,1,0-.14s0,0,.05,0Z" style="fill:#423c25"/><path d="M146.4,13.72v0l0,0-1.3,4.14s0,0,0,.06l0,0a1.6,1.6,0,0,0-.21-.32c-.87-1-2.6-.75-3.6-.17-.11.07-2,1.21-1.69,3a2.31,2.31,0,0,0,.92,1.51l-.05.08a.11.11,0,0,0-.12,0l-4,1.08a.16.16,0,0,0-.12.16l-.13,0c.28-1.27-.92-2.49-2-3-.12-.06-2.16-1-3.44.36a2.29,2.29,0,0,0-.39.54l-.07,0a.08.08,0,0,0,0-.11l-3.09-2.15a.11.11,0,0,0-.08,0v-.08l.29,0c1.32-.29,1.89-1.94,1.86-3.09,0-.13-.1-2.37-1.86-2.91a2.82,2.82,0,0,0-1.55,0l0-.09a.13.13,0,0,0,.09-.1L126.91,9a.14.14,0,0,0-.07-.18l.06-.09c1,.77,2.52.39,3.43-.22.1-.07,1.95-1.33,1.48-3.11a2.49,2.49,0,0,0-.67-1.17l.1-.1a.15.15,0,0,0,.19.09L135.16,3a.21.21,0,0,0,.13-.11l.09,0-.07.19c-.41,1.28.74,2.6,1.76,3.14.12.06,2.11,1.09,3.45-.16a2.86,2.86,0,0,0,.83-1.37l.1,0a.11.11,0,0,0,0,.14l3.17,2.6a.19.19,0,0,0,.14,0v.12a1.92,1.92,0,0,0-.41.05c-1.3.3-1.85,2-1.8,3.12,0,.13.14,2.36,1.9,2.88A3.54,3.54,0,0,0,146.4,13.72ZM137.59,15a2.31,2.31,0,1,0-3.26.3A2.29,2.29,0,0,0,137.59,15Z" style="fill:#423c25"/><path d="M141.73,22.75V36.18l-7.18-11.29A2.64,2.64,0,0,0,136,23.35v-.08l.13,0a.19.19,0,0,0,0,.1l4,6.31.23-7.53a.11.11,0,0,0,0-.08l.05-.08a2.77,2.77,0,0,0,1.29.49Z" style="fill:#fff"/><path d="M140.42,22.17l-.23,7.53-4-6.31a.19.19,0,0,1,0-.1.16.16,0,0,1,.12-.16l4-1.08a.11.11,0,0,1,.12,0A.11.11,0,0,1,140.42,22.17Z" style="fill:#423c25"/><path d="M137.29,11.72A2.31,2.31,0,1,1,134,12,2.29,2.29,0,0,1,137.29,11.72Z" style="fill:#fff"/><path d="M130.32-10l6.54,11.68a2.6,2.6,0,0,0-1.48,1.26l-.09,0a.19.19,0,0,0,0-.15l-3.32-6L131.23,4a.17.17,0,0,0,0,.07l-.1.1a2.77,2.77,0,0,0-1.76-.72Z" style="fill:#fff"/><path d="M135.27,2.74a.19.19,0,0,1,0,.15.21.21,0,0,1-.13.11l-3.73,1.17a.15.15,0,0,1-.19-.09.17.17,0,0,1,0-.07L132-3.23Z" style="fill:#423c25"/><path d="M130.41,23.53l-12,6.09,6.88-11.46a2.79,2.79,0,0,0,1.74.65v.08a.16.16,0,0,0-.14.08l-3.64,6.1,6.94-3.86,0,0,.07,0a1.51,1.51,0,0,0-.18.44A2.68,2.68,0,0,0,130.41,23.53Z" style="fill:#fff"/><path d="M130.15,21.07a.08.08,0,0,1,0,.11l0,0-6.94,3.86,3.64-6.1a.16.16,0,0,1,.14-.08.11.11,0,0,1,.08,0Z" style="fill:#423c25"/><path d="M126.84,8.77a.14.14,0,0,1,.07.18l-1.12,3.59a.13.13,0,0,1-.09.1.17.17,0,0,1-.12,0l-6.49-4,7.68.16Z" style="fill:#423c25"/><path d="M126.9,8.68l-.06.09h-.07l-7.68-.16,6.49,4a.17.17,0,0,0,.12,0l0,.09a2.53,2.53,0,0,0-1.49,1l-11.44-7,13.38-.23a2.58,2.58,0,0,0,.55,2Z" style="fill:#fff"/><path d="M144.8,7.68a2.87,2.87,0,0,1,1.63.63l6.71-11.57-11.93,6.2a2.57,2.57,0,0,1,.14,1.8,2.86,2.86,0,0,1-.83,1.37c-1.34,1.25-3.33.22-3.45.16-1-.54-2.17-1.86-1.76-3.14l.07-.19a2.6,2.6,0,0,1,1.48-1.26L130.32-10l-.94,13.46a2.77,2.77,0,0,1,1.76.72,2.49,2.49,0,0,1,.67,1.17c.47,1.78-1.38,3-1.48,3.11-.91.61-2.47,1-3.43.22l-.18-.15a2.58,2.58,0,0,1-.55-2l-13.38.23,11.44,7a2.53,2.53,0,0,1,1.49-1,2.82,2.82,0,0,1,1.55,0c1.76.54,1.86,2.78,1.86,2.91,0,1.15-.54,2.8-1.86,3.09l-.29,0a2.79,2.79,0,0,1-1.74-.65l-6.88,11.46,12-6.09a2.68,2.68,0,0,1-.35-1.88,1.51,1.51,0,0,1,.18-.44,2.29,2.29,0,0,1,.39-.54c1.28-1.33,3.32-.42,3.44-.36,1,.47,2.23,1.69,2,3v.08a2.64,2.64,0,0,1-1.46,1.54l7.18,11.29V22.5a2.77,2.77,0,0,1-1.29-.49,2.31,2.31,0,0,1-.92-1.51c-.35-1.8,1.58-2.94,1.69-3,1-.58,2.73-.85,3.6.17A1.6,1.6,0,0,1,145,18a2.75,2.75,0,0,1,.2,1.76l13.37.64L147.9,12.72a2.7,2.7,0,0,1-1.5,1,3.54,3.54,0,0,1-1.91,0c-1.76-.52-1.9-2.75-1.9-2.88-.05-1.16.5-2.82,1.8-3.12A1.92,1.92,0,0,1,144.8,7.68Z" style="fill:none;stroke:#423c25;stroke-miterlimit:10;stroke-width:0.599213838577271px"/><path d="M130.17,21.18l0,0-6.94,3.86,3.64-6.1a.16.16,0,0,1,.14-.08.11.11,0,0,1,.08,0l3.09,2.15A.08.08,0,0,1,130.17,21.18Z" style="fill:none;stroke:#423c25;stroke-miterlimit:10;stroke-width:0.599213838577271px"/><path d="M136.15,23.29a.19.19,0,0,0,0,.1l4,6.31.23-7.53a.11.11,0,0,0,0-.08.11.11,0,0,0-.12,0l-4,1.08A.16.16,0,0,0,136.15,23.29Z" style="fill:none;stroke:#423c25;stroke-miterlimit:10;stroke-width:0.599213838577271px"/><path d="M146.4,13.74h0l6.12,4.63L145.16,18a.15.15,0,0,1-.09-.06s0,0,0-.06l1.3-4.14Z" style="fill:none;stroke:#423c25;stroke-miterlimit:10;stroke-width:0.599213838577271px"/><path d="M141.45,4.77s0,0,.05,0l6.4-2.82L145,7.45a.23.23,0,0,1-.2.11.19.19,0,0,1-.14,0l-3.17-2.6A.11.11,0,0,1,141.45,4.77Z" style="fill:none;stroke:#423c25;stroke-miterlimit:10;stroke-width:0.599213838577271px"/><path d="M135.29,2.89a.19.19,0,0,0,0-.15l-3.32-6L131.23,4a.17.17,0,0,0,0,.07.15.15,0,0,0,.19.09L135.16,3A.21.21,0,0,0,135.29,2.89Z" style="fill:none;stroke:#423c25;stroke-miterlimit:10;stroke-width:0.599213838577271px"/><path d="M125.7,12.64a.17.17,0,0,1-.12,0l-6.49-4,7.68.16h.07a.14.14,0,0,1,.07.18l-1.12,3.59A.13.13,0,0,1,125.7,12.64Z" style="fill:none;stroke:#423c25;stroke-miterlimit:10;stroke-width:0.599213838577271px"/><path d="M137.29,11.72A2.31,2.31,0,1,1,134,12,2.29,2.29,0,0,1,137.29,11.72Z" style="fill:none;stroke:#423c25;stroke-miterlimit:10;stroke-width:0.599213838577271px"/><path d="M158.59,20.38l-13.37-.64A2.75,2.75,0,0,0,145,18l0,0a.15.15,0,0,0,.09.06l7.38.36-6.12-4.63h0v0a2.7,2.7,0,0,0,1.5-1Z" style="fill:#fff"/><path d="M153.14-3.26,146.43,8.31a2.87,2.87,0,0,0-1.63-.63V7.56a.23.23,0,0,0,.2-.11l2.91-5.54-6.4,2.82s0,0-.05,0l-.1,0a2.57,2.57,0,0,0-.14-1.8Z" style="fill:#fff"/><path d="M152.54,18.38,145.16,18a.15.15,0,0,1-.09-.06s0,0,0-.06l1.3-4.14,0,0h0Z" style="fill:#423c25"/><path d="M147.9,1.91,145,7.45a.23.23,0,0,1-.2.11.19.19,0,0,1-.14,0l-3.17-2.6a.11.11,0,0,1,0-.14s0,0,.05,0Z" style="fill:#423c25"/><path d="M146.4,13.72v0l0,0-1.3,4.14s0,0,0,.06l0,0a1.6,1.6,0,0,0-.21-.32c-.87-1-2.6-.75-3.6-.17-.11.07-2,1.21-1.69,3a2.31,2.31,0,0,0,.92,1.51l-.05.08a.11.11,0,0,0-.12,0l-4,1.08a.16.16,0,0,0-.12.16l-.13,0c.28-1.27-.92-2.49-2-3-.12-.06-2.16-1-3.44.36a2.29,2.29,0,0,0-.39.54l-.07,0a.08.08,0,0,0,0-.11l-3.09-2.15a.11.11,0,0,0-.08,0v-.08l.29,0c1.32-.29,1.89-1.94,1.86-3.09,0-.13-.1-2.37-1.86-2.91a2.82,2.82,0,0,0-1.55,0l0-.09a.13.13,0,0,0,.09-.1L126.91,9a.14.14,0,0,0-.07-.18l.06-.09c1,.77,2.52.39,3.43-.22.1-.07,1.95-1.33,1.48-3.11a2.49,2.49,0,0,0-.67-1.17l.1-.1a.15.15,0,0,0,.19.09L135.16,3a.21.21,0,0,0,.13-.11l.09,0-.07.19c-.41,1.28.74,2.6,1.76,3.14.12.06,2.11,1.09,3.45-.16a2.86,2.86,0,0,0,.83-1.37l.1,0a.11.11,0,0,0,0,.14l3.17,2.6a.19.19,0,0,0,.14,0v.12a1.92,1.92,0,0,0-.41.05c-1.3.3-1.85,2-1.8,3.12,0,.13.14,2.36,1.9,2.88A3.54,3.54,0,0,0,146.4,13.72ZM137.59,15a2.31,2.31,0,1,0-3.26.3A2.29,2.29,0,0,0,137.59,15Z" style="fill:#423c25"/><path d="M141.73,22.75V36.18l-7.18-11.29A2.64,2.64,0,0,0,136,23.35v-.08l.13,0a.19.19,0,0,0,0,.1l4,6.31.23-7.53a.11.11,0,0,0,0-.08l.05-.08a2.77,2.77,0,0,0,1.29.49Z" style="fill:#fff"/><path d="M140.42,22.17l-.23,7.53-4-6.31a.19.19,0,0,1,0-.1.16.16,0,0,1,.12-.16l4-1.08a.11.11,0,0,1,.12,0A.11.11,0,0,1,140.42,22.17Z" style="fill:#423c25"/><path d="M137.29,11.72A2.31,2.31,0,1,1,134,12,2.29,2.29,0,0,1,137.29,11.72Z" style="fill:#fff"/><path d="M130.32-10l6.54,11.68a2.6,2.6,0,0,0-1.48,1.26l-.09,0a.19.19,0,0,0,0-.15l-3.32-6L131.23,4a.17.17,0,0,0,0,.07l-.1.1a2.77,2.77,0,0,0-1.76-.72Z" style="fill:#fff"/><path d="M135.27,2.74a.19.19,0,0,1,0,.15.21.21,0,0,1-.13.11l-3.73,1.17a.15.15,0,0,1-.19-.09.17.17,0,0,1,0-.07L132-3.23Z" style="fill:#423c25"/><path d="M130.41,23.53l-12,6.09,6.88-11.46a2.79,2.79,0,0,0,1.74.65v.08a.16.16,0,0,0-.14.08l-3.64,6.1,6.94-3.86,0,0,.07,0a1.51,1.51,0,0,0-.18.44A2.68,2.68,0,0,0,130.41,23.53Z" style="fill:#fff"/><path d="M130.15,21.07a.08.08,0,0,1,0,.11l0,0-6.94,3.86,3.64-6.1a.16.16,0,0,1,.14-.08.11.11,0,0,1,.08,0Z" style="fill:#423c25"/><path d="M126.84,8.77a.14.14,0,0,1,.07.18l-1.12,3.59a.13.13,0,0,1-.09.1.17.17,0,0,1-.12,0l-6.49-4,7.68.16Z" style="fill:#423c25"/><path d="M126.9,8.68l-.06.09h-.07l-7.68-.16,6.49,4a.17.17,0,0,0,.12,0l0,.09a2.53,2.53,0,0,0-1.49,1l-11.44-7,13.38-.23a2.58,2.58,0,0,0,.55,2Z" style="fill:#fff"/><path d="M144.8,7.68a2.87,2.87,0,0,1,1.63.63l6.71-11.57-11.93,6.2a2.57,2.57,0,0,1,.14,1.8,2.86,2.86,0,0,1-.83,1.37c-1.34,1.25-3.33.22-3.45.16-1-.54-2.17-1.86-1.76-3.14l.07-.19a2.6,2.6,0,0,1,1.48-1.26L130.32-10l-.94,13.46a2.77,2.77,0,0,1,1.76.72,2.49,2.49,0,0,1,.67,1.17c.47,1.78-1.38,3-1.48,3.11-.91.61-2.47,1-3.43.22l-.18-.15a2.58,2.58,0,0,1-.55-2l-13.38.23,11.44,7a2.53,2.53,0,0,1,1.49-1,2.82,2.82,0,0,1,1.55,0c1.76.54,1.86,2.78,1.86,2.91,0,1.15-.54,2.8-1.86,3.09l-.29,0a2.79,2.79,0,0,1-1.74-.65l-6.88,11.46,12-6.09a2.68,2.68,0,0,1-.35-1.88,1.51,1.51,0,0,1,.18-.44,2.29,2.29,0,0,1,.39-.54c1.28-1.33,3.32-.42,3.44-.36,1,.47,2.23,1.69,2,3v.08a2.64,2.64,0,0,1-1.46,1.54l7.18,11.29V22.5a2.77,2.77,0,0,1-1.29-.49,2.31,2.31,0,0,1-.92-1.51c-.35-1.8,1.58-2.94,1.69-3,1-.58,2.73-.85,3.6.17A1.6,1.6,0,0,1,145,18a2.75,2.75,0,0,1,.2,1.76l13.37.64L147.9,12.72a2.7,2.7,0,0,1-1.5,1,3.54,3.54,0,0,1-1.91,0c-1.76-.52-1.9-2.75-1.9-2.88-.05-1.16.5-2.82,1.8-3.12A1.92,1.92,0,0,1,144.8,7.68Z" style="fill:none;stroke:#423c25;stroke-miterlimit:10;stroke-width:0.599213838577271px"/><path d="M130.17,21.18l0,0-6.94,3.86,3.64-6.1a.16.16,0,0,1,.14-.08.11.11,0,0,1,.08,0l3.09,2.15A.08.08,0,0,1,130.17,21.18Z" style="fill:none;stroke:#423c25;stroke-miterlimit:10;stroke-width:0.599213838577271px"/><path d="M136.15,23.29a.19.19,0,0,0,0,.1l4,6.31.23-7.53a.11.11,0,0,0,0-.08.11.11,0,0,0-.12,0l-4,1.08A.16.16,0,0,0,136.15,23.29Z" style="fill:none;stroke:#423c25;stroke-miterlimit:10;stroke-width:0.599213838577271px"/><path d="M146.4,13.74h0l6.12,4.63L145.16,18a.15.15,0,0,1-.09-.06s0,0,0-.06l1.3-4.14Z" style="fill:none;stroke:#423c25;stroke-miterlimit:10;stroke-width:0.599213838577271px"/><path d="M141.45,4.77s0,0,.05,0l6.4-2.82L145,7.45a.23.23,0,0,1-.2.11.19.19,0,0,1-.14,0l-3.17-2.6A.11.11,0,0,1,141.45,4.77Z" style="fill:none;stroke:#423c25;stroke-miterlimit:10;stroke-width:0.599213838577271px"/><path d="M135.29,2.89a.19.19,0,0,0,0-.15l-3.32-6L131.23,4a.17.17,0,0,0,0,.07.15.15,0,0,0,.19.09L135.16,3A.21.21,0,0,0,135.29,2.89Z" style="fill:none;stroke:#423c25;stroke-miterlimit:10;stroke-width:0.599213838577271px"/><path d="M125.7,12.64a.17.17,0,0,1-.12,0l-6.49-4,7.68.16h.07a.14.14,0,0,1,.07.18l-1.12,3.59A.13.13,0,0,1,125.7,12.64Z" style="fill:none;stroke:#423c25;stroke-miterlimit:10;stroke-width:0.599213838577271px"/><path d="M137.29,11.72A2.31,2.31,0,1,1,134,12,2.29,2.29,0,0,1,137.29,11.72Z" style="fill:none;stroke:#423c25;stroke-miterlimit:10;stroke-width:0.599213838577271px"/></g><g id="ed5bb47f-cbde-42a5-a954-ad9c2ba8ff6d" data-name="Textes Cartes VA vecto"><g id="ad2fff7e-68c9-451a-9b2c-ace3e5d96720" data-name="Calque 20 - copie 3"><path d="M14.62,26.77h-.09l-.07.07-.24.8a0,0,0,0,1-.05,0l-.09.06H14c-.09,0-.14-.06-.17-.2s0-.23,0-.28.07-.29.14-.57l.18-.54c-.05-.07-.06-.12-.05-.13l0-.14,0-.13a4.53,4.53,0,0,1,.21-.64c.1-.29.21-.61.35-1s.26-.73.41-1.13l.41-1.13c.13-.36.25-.68.35-1s.18-.5.22-.64a9.56,9.56,0,0,1,.58-.94,5.91,5.91,0,0,0,.52-.94c.18-.36.34-.71.5-1s.32-.65.48-1,.35-.64.55-1,.42-.65.67-1c0,0,.09,0,.15.07a2,2,0,0,1,.22.29l.21.33c.07.11.12.16.16.16s.09,0,.13-.16l.13-.33c0-.12.08-.23.12-.32s.08-.14.12-.13H22.6l.39-.14s.06,0,.07.05a.86.86,0,0,1,0,.17c0,.07,0,.13,0,.18s0,.08,0,.08a.57.57,0,0,0,.23,0h.25a.42.42,0,0,1,.18.07s0,.11,0,.22l-.56,2a1.16,1.16,0,0,0-.05.48,2.13,2.13,0,0,0,.07.44c0,.15.07.3.1.45a1.41,1.41,0,0,1,0,.46c0,.17-.11.45-.2.85s-.18.83-.27,1.28-.18.89-.27,1.29-.16.7-.21.86v.08a15.76,15.76,0,0,1-.24,2,20.25,20.25,0,0,1-.48,2,2,2,0,0,1-.56-.08,1.53,1.53,0,0,0-.54-.08.21.21,0,0,0-.16.08l-.14.18-.15.18a.27.27,0,0,1-.17.08q-.11,0-.09-.15c0-.09,0-.2.05-.32a2.49,2.49,0,0,0,.06-.32q0-.15-.06-.15a.94.94,0,0,0-.14.16l-.23.27-.11.15a2.28,2.28,0,0,1-.14.24.79.79,0,0,1-.18.24s-.06.06-.13.07l0,0h0a.26.26,0,0,1-.28-.19,1.26,1.26,0,0,1-.07-.47,3.64,3.64,0,0,1,.08-.62c0-.22.07-.43.1-.62a3.17,3.17,0,0,0,.05-.46c0-.14,0-.2-.11-.2h-.55a.63.63,0,0,0-.49.18l-.27,1-.28,1-.07.18-.09.2-.11.25-.13.07H15.26l-.35-.38-.18-.09a.21.21,0,0,1,0-.18,1.12,1.12,0,0,1,.06-.23.57.57,0,0,0,0-.22C14.77,26.8,14.71,26.77,14.62,26.77Zm4.09-4.5a.73.73,0,0,0-.08.16c-.05.08,0,.13.08.14a2,2,0,0,0,.58-.1.57.57,0,0,0,.42-.35l.07-.08a.23.23,0,0,0,.07-.08c0-.07,0-.19,0-.35s.05-.34.09-.53.07-.37.1-.53a2.35,2.35,0,0,1,.08-.35s0-.07,0-.16l0-.25a.85.85,0,0,0,0-.22c0-.07,0-.1-.06-.1s-.17.06-.27.2a4.49,4.49,0,0,0-.31.48c-.1.19-.21.4-.31.64s-.19.45-.27.66-.14.39-.19.54A2.65,2.65,0,0,0,18.71,22.27Z" style="fill:#423c25"/><path d="M22.26,27v0s.06-.06.14-.08l.26,0,.35-.07s0-.05,0-.11a1.86,1.86,0,0,0-.1-.2,2.33,2.33,0,0,0-.16-.26l1.1,0s0-.07-.09-.11a.7.7,0,0,0-.22-.07L23.1,26c-.11,0-.2-.08-.29-.23a.22.22,0,0,0,.07-.12.6.6,0,0,1,.06-.19.42.42,0,0,1,.1-.17.19.19,0,0,1,.15-.08.86.86,0,0,1,.44.15,1.06,1.06,0,0,0,.58.15,1,1,0,0,0,.47-.11,1.32,1.32,0,0,0,.37-.29,1.78,1.78,0,0,0,.28-.38,1.72,1.72,0,0,0,.17-.4.23.23,0,0,1,.16-.12c.09,0,.12-.07.11-.13l-.12-.13-.21-.26a2.32,2.32,0,0,1-.21-.25.31.31,0,0,1-.09-.15,1.07,1.07,0,0,0-.06-.23l-.13-.4q-.06-.21-.12-.39a1,1,0,0,1-.06-.22l-.25-.56a2.59,2.59,0,0,1-.14-.45,1.71,1.71,0,0,1,0-.51,6.44,6.44,0,0,1,.18-.75,6.77,6.77,0,0,1,.6-1.44,3.76,3.76,0,0,1,.93-1.05,4,4,0,0,1,1.36-.66,6.72,6.72,0,0,1,1.84-.22h.06s0,0-.06.07l-.16.17-.16.17c-.05,0-.06.07-.05.07L29,16.8l.27-.11.28-.11.16,0a.87.87,0,0,1,.3,0c.09,0,.11.11.08.25A.3.3,0,0,1,30,17l-.17.07-.19.05a.24.24,0,0,0-.14.1l-.11.12-.23.21-.31.26,1.2-.48s0,0,0,.13,0,.2,0,.31l-.06.33c0,.11,0,.18,0,.22a.52.52,0,0,1-.31.31,3.41,3.41,0,0,1-.5.19l-.22.05-.32.08-.3.08-.22.06c-.15.08-.24.17-.25.27a.57.57,0,0,0,0,.27c0,.13,0,.26.07.39s0,.26.07.38a2.23,2.23,0,0,1,0,.26l-.36.51.23-.08L28,21q.2,0,.33.3c0,.15.11.35.18.6a8.58,8.58,0,0,1,.21.84c.06.3.1.59.13.87a1.91,1.91,0,0,1,0,.69l0,0a4.51,4.51,0,0,0-.51.8,3.7,3.7,0,0,1-.53.78,2.46,2.46,0,0,1-.21.24l-.31.36c-.11.13-.21.24-.32.35a2.11,2.11,0,0,1-.25.23,1.41,1.41,0,0,1-.59.27,7.8,7.8,0,0,1-.89.17l-.93.09-.68,0a2.11,2.11,0,0,1-.37-.05,3.53,3.53,0,0,1-.46-.15,1.91,1.91,0,0,1-.38-.2A.24.24,0,0,1,22.26,27Z" style="fill:#423c25"/><path d="M28.3,27v0s.06-.06.14-.08l.26,0,.35-.07s0-.05,0-.11a1.86,1.86,0,0,0-.1-.2,2.33,2.33,0,0,0-.16-.26l1.1,0s0-.07-.09-.11a.63.63,0,0,0-.22-.07L29.14,26c-.11,0-.2-.08-.29-.23a.22.22,0,0,0,.07-.12.6.6,0,0,1,.06-.19.59.59,0,0,1,.1-.17.19.19,0,0,1,.15-.08.86.86,0,0,1,.44.15,1.06,1.06,0,0,0,.58.15,1,1,0,0,0,.47-.11,1.32,1.32,0,0,0,.37-.29,1.78,1.78,0,0,0,.28-.38,1.38,1.38,0,0,0,.17-.4.23.23,0,0,1,.16-.12c.09,0,.12-.07.11-.13l-.12-.13-.21-.26a2.32,2.32,0,0,1-.21-.25.31.31,0,0,1-.09-.15,1.07,1.07,0,0,0-.06-.23c0-.12-.08-.25-.12-.4s-.09-.27-.13-.39a1,1,0,0,1-.06-.22c-.1-.22-.18-.41-.24-.56a2,2,0,0,1-.15-.45,1.71,1.71,0,0,1,0-.51,6.44,6.44,0,0,1,.18-.75,6.77,6.77,0,0,1,.6-1.44,3.76,3.76,0,0,1,.93-1.05,4,4,0,0,1,1.36-.66,6.75,6.75,0,0,1,1.85-.22h.05s0,0-.05.07l-.17.17-.16.17s-.06.07,0,.07l.13-.05.27-.11.28-.11.16,0a1,1,0,0,1,.31,0c.08,0,.1.11.07.25a.3.3,0,0,1-.11.15l-.17.07-.19.05a.24.24,0,0,0-.14.1l-.11.12-.23.21-.31.26,1.2-.48s0,0,0,.13,0,.2,0,.31l-.06.33c0,.11,0,.18,0,.22a.52.52,0,0,1-.31.31,3,3,0,0,1-.5.19l-.22.05-.32.08-.3.08-.22.06c-.15.08-.24.17-.25.27a.74.74,0,0,0,0,.27c0,.13,0,.26.07.39s0,.26.07.38a2.23,2.23,0,0,1,0,.26l-.35.51a1.32,1.32,0,0,0,.22-.08L34,21c.14,0,.24.1.33.3s.11.35.18.6a8.58,8.58,0,0,1,.21.84c.06.3.11.59.14.87a1.88,1.88,0,0,1,0,.69l0,0a4.51,4.51,0,0,0-.51.8,3.36,3.36,0,0,1-.53.78,2.46,2.46,0,0,1-.21.24l-.31.36c-.11.13-.21.24-.32.35a2.11,2.11,0,0,1-.25.23,1.41,1.41,0,0,1-.59.27,7.8,7.8,0,0,1-.89.17l-.93.09-.68,0a2.11,2.11,0,0,1-.37-.05,3.53,3.53,0,0,1-.46-.15,2.24,2.24,0,0,1-.38-.2A.24.24,0,0,1,28.3,27Z" style="fill:#423c25"/><path d="M35,27h-.07l-.09.07-.2.7s0,0,0,0a.12.12,0,0,0-.07,0h-.06c-.07,0-.12-.06-.14-.18s0-.2,0-.24a1.37,1.37,0,0,0,0-.2c0-.09,0-.19.08-.3s0-.19.08-.28a1.67,1.67,0,0,1,.07-.19.14.14,0,0,1-.06-.1l0-.13,0-.11.18-.55.3-.84.36-1q.18-.52.36-1l.3-.84c.09-.25.15-.43.19-.55.16-.28.32-.55.5-.83a6.87,6.87,0,0,0,.47-.82l.85-1.74a11.63,11.63,0,0,1,1-1.71s.08,0,.14.06.12.16.19.26l.19.28c.06.09.1.14.12.14s.08-.05.12-.14l.12-.28a1.82,1.82,0,0,1,.11-.28c0-.08.06-.12.08-.11H41.9l.36-.12s.06,0,.07,0a.57.57,0,0,1,0,.15c0,.05,0,.1,0,.15s0,.07,0,.07h.19a.79.79,0,0,1,.22,0,.29.29,0,0,1,.16.07s0,.09,0,.18l-.5,1.72a1.12,1.12,0,0,0,0,.4,2.63,2.63,0,0,0,.06.39c0,.13.06.26.08.38a1.82,1.82,0,0,1,0,.41c0,.14-.09.39-.17.74s-.16.73-.24,1.12L42,23c-.07.35-.13.6-.17.75v.07a14.28,14.28,0,0,1-.22,1.71c-.11.57-.24,1.14-.41,1.73a1.51,1.51,0,0,1-.48-.07,1.45,1.45,0,0,0-.47-.07.19.19,0,0,0-.14.07l-.12.15a1,1,0,0,1-.14.15.2.2,0,0,1-.16.07c-.06,0-.08,0-.07-.12s0-.18,0-.28,0-.19,0-.28,0-.12,0-.12,0,0-.08.08a1.09,1.09,0,0,0-.13.17l-.19.25-.12.21a.51.51,0,0,1-.18.2s0,.05-.09.07v0h0c-.18,0-.27-.12-.28-.35a4.4,4.4,0,0,1,.07-.77c0-.28.09-.54.12-.77s0-.35-.09-.35h-.5a.45.45,0,0,0-.41.16l-.25.86-.24.86a1.93,1.93,0,0,1-.13.32,1.32,1.32,0,0,1-.12.22l-.1.07H35.56l-.33-.34-.16-.07a.19.19,0,0,1,0-.15.8.8,0,0,1,0-.21.68.68,0,0,0,0-.19C35.13,27,35.08,27,35,27Zm3.53-3.91-.05.15c0,.07,0,.11.07.12a2.81,2.81,0,0,0,.5-.09.45.45,0,0,0,.36-.3.19.19,0,0,1,.06-.07.45.45,0,0,0,.07-.07,2.55,2.55,0,0,1,0-.31c0-.14,0-.29.07-.46l.09-.45a1,1,0,0,1,.08-.31,1,1,0,0,1,0-.14,1.43,1.43,0,0,0,0-.22.62.62,0,0,0,0-.19c0-.06,0-.09,0-.09s-.23.12-.36.36-.28.5-.42.79-.25.57-.35.83S38.54,23,38.53,23.05Z" style="fill:#423c25"/><path d="M41.67,27v0s.06-.06.14-.08l.26,0,.35-.07s0-.05,0-.11l-.1-.2-.16-.26,1.09,0s0-.07-.09-.11a.57.57,0,0,0-.22-.07L42.51,26c-.1,0-.2-.08-.28-.23a.33.33,0,0,0,.06-.12l.06-.19a1,1,0,0,1,.1-.17.19.19,0,0,1,.15-.08.86.86,0,0,1,.44.15,1.09,1.09,0,0,0,.58.15.93.93,0,0,0,.47-.11,1.53,1.53,0,0,0,.38-.29,2.2,2.2,0,0,0,.28-.38,2.28,2.28,0,0,0,.17-.4.19.19,0,0,1,.16-.12c.08,0,.12-.07.1-.13l-.11-.13-.22-.26a2.19,2.19,0,0,1-.2-.25.31.31,0,0,1-.09-.15.81.81,0,0,0-.07-.23c0-.12-.08-.25-.12-.4s-.09-.27-.13-.39a1,1,0,0,1-.06-.22c-.1-.22-.18-.41-.24-.56a2,2,0,0,1-.15-.45,1.45,1.45,0,0,1,0-.51,4.65,4.65,0,0,1,.17-.75,6.3,6.3,0,0,1,.61-1.44,3.47,3.47,0,0,1,.93-1.05,4,4,0,0,1,1.35-.66,6.8,6.8,0,0,1,1.85-.22h0s0,0,0,.07l-.16.17-.16.17c-.05,0-.07.07-.06.07l.14-.05a2.26,2.26,0,0,1,.26-.11l.28-.11.16,0a1,1,0,0,1,.31,0c.08,0,.11.11.07.25a.25.25,0,0,1-.11.15l-.17.07-.19.05a.28.28,0,0,0-.14.1s0,0-.11.12l-.23.21-.3.26,1.2-.48s0,0,0,.13,0,.2,0,.31,0,.22-.05.33,0,.18,0,.22a.5.5,0,0,1-.3.31,3.52,3.52,0,0,1-.51.19l-.22.05-.31.08-.31.08-.21.06c-.16.08-.24.17-.25.27a.46.46,0,0,0,0,.27c0,.13,0,.26.06.39s.05.26.07.38a1.35,1.35,0,0,1,0,.26l-.36.51a1.32,1.32,0,0,0,.22-.08l.14,0c.13,0,.24.1.32.3l.19.6c.08.26.14.54.2.84s.11.59.14.87a1.88,1.88,0,0,1,0,.69l0,0a4.51,4.51,0,0,0-.51.8,3.08,3.08,0,0,1-.53.78,2,2,0,0,1-.2.24l-.32.36a3.59,3.59,0,0,1-.32.35,2.11,2.11,0,0,1-.25.23,1.41,1.41,0,0,1-.59.27,7.4,7.4,0,0,1-.89.17l-.92.09-.68,0a2.2,2.2,0,0,1-.38-.05,3.53,3.53,0,0,1-.46-.15,1.81,1.81,0,0,1-.37-.2A.26.26,0,0,1,41.67,27Z" style="fill:#423c25"/><path d="M47.71,27v0s.06-.06.14-.08l.26,0,.35-.07s0-.05,0-.11a1.86,1.86,0,0,0-.1-.2l-.16-.26,1.09,0s0-.07-.09-.11a.58.58,0,0,0-.21-.07L48.55,26c-.1,0-.2-.08-.28-.23a.33.33,0,0,0,.06-.12l.06-.19a1,1,0,0,1,.1-.17.19.19,0,0,1,.15-.08.83.83,0,0,1,.44.15,1.1,1.1,0,0,0,.59.15.92.92,0,0,0,.46-.11,1.37,1.37,0,0,0,.38-.29,1.78,1.78,0,0,0,.28-.38,2.28,2.28,0,0,0,.17-.4.19.19,0,0,1,.16-.12c.08,0,.12-.07.11-.13a.84.84,0,0,1-.12-.13l-.22-.26-.2-.25a.31.31,0,0,1-.09-.15,1.07,1.07,0,0,0-.06-.23,3.14,3.14,0,0,1-.13-.4,3.56,3.56,0,0,0-.13-.39,1,1,0,0,1-.06-.22c-.1-.22-.18-.41-.24-.56a1.94,1.94,0,0,1-.14-.45,1.43,1.43,0,0,1,0-.51,3.92,3.92,0,0,1,.18-.75,5.88,5.88,0,0,1,.6-1.44,3.47,3.47,0,0,1,.93-1.05,4.05,4.05,0,0,1,1.35-.66,6.8,6.8,0,0,1,1.85-.22h0s0,0,0,.07l-.16.17-.16.17c-.05,0-.07.07-.06.07l.14-.05a1.86,1.86,0,0,1,.27-.11l.27-.11.17,0a.91.91,0,0,1,.3,0c.08,0,.11.11.07.25a.25.25,0,0,1-.11.15.54.54,0,0,1-.17.07l-.18.05a.31.31,0,0,0-.15.1s0,0-.11.12l-.23.21-.3.26,1.2-.48s0,0,0,.13,0,.2,0,.31,0,.22,0,.33,0,.18-.05.22a.5.5,0,0,1-.3.31,3.9,3.9,0,0,1-.5.19l-.23.05-.31.08-.31.08-.21.06c-.16.08-.24.17-.25.27a.46.46,0,0,0,0,.27l.06.39c0,.13,0,.26.07.38a1.35,1.35,0,0,1,0,.26l-.36.51a1,1,0,0,0,.22-.08l.14,0c.13,0,.24.1.32.3l.19.6a8.58,8.58,0,0,1,.21.84c0,.3.1.59.13.87a1.88,1.88,0,0,1,0,.69l0,0a4.51,4.51,0,0,0-.51.8,3.08,3.08,0,0,1-.53.78,2,2,0,0,1-.2.24l-.31.36c-.11.13-.22.24-.33.35a2.11,2.11,0,0,1-.25.23,1.41,1.41,0,0,1-.59.27,7.4,7.4,0,0,1-.89.17l-.92.09-.68,0a2.2,2.2,0,0,1-.38-.05,4.11,4.11,0,0,1-.46-.15,1.81,1.81,0,0,1-.37-.2A.26.26,0,0,1,47.71,27Z" style="fill:#423c25"/><path d="M54,27.57l.18-.63c.27-1.08.53-2.15.79-3.2s.55-2.11.86-3.2l0-.12.06-.16c0-.05,0-.09,0-.13v-.07a.4.4,0,0,1,.06-.11l.11-.19.12-.2a.27.27,0,0,0,0-.11.67.67,0,0,1,.06-.17l.11-.3.1-.3a1.67,1.67,0,0,0,.07-.2.77.77,0,0,0,.09-.2,1.35,1.35,0,0,0,.09-.32l.11-.37.11-.38a2.6,2.6,0,0,0,.07-.31.81.81,0,0,1,0-.21l.18-.07.35-.12.51-.17a.28.28,0,0,1,.25.1.83.83,0,0,1,.08.22,2.32,2.32,0,0,1,0,.24c0,.06,0,.09.07.09h0s.08-.09.16-.22a.18.18,0,0,0,.08-.09s0-.05,0-.05a.74.74,0,0,1,.23-.06h.18a1.12,1.12,0,0,1,.14.15l.11.13h.09l.38-.14h.09l.05.07a.18.18,0,0,0,.09.07l-.09.31a21.28,21.28,0,0,1-.75,2.21c-.29.73-.57,1.46-.86,2.22a1,1,0,0,1-.25.36,1,1,0,0,0-.24.35,1.51,1.51,0,0,0,0,.52,4.42,4.42,0,0,1,0,.49l-.09.36-.29,1-.09.32c-.12.4-.24.83-.37,1.3a8.26,8.26,0,0,1-.47,1.32c0,.05-.06.08-.11.08h-.25a1,1,0,0,0-.17-.29c0-.06-.17-.08-.33-.08h-.14l-.1,0-.19.2-.24,0c-.12,0-.18,0-.19,0a.22.22,0,0,0-.12.06l-.16.1-.16.11-.1.07A.79.79,0,0,1,54,27.57Z" style="fill:#423c25"/><path d="M59.94,26.93l-.54.45a.42.42,0,0,0-.32.15.46.46,0,0,1-.33.15c-.09,0-.15-.06-.16-.17a.67.67,0,0,1,0-.26l0-.07.27-.68,0-.08v-.07L59.17,25l1.66-5.41a3.89,3.89,0,0,1-.29-1,2.11,2.11,0,0,1,.06-1.06s0-.07.15-.16.22-.18.34-.27l.34-.23c.11-.07.17-.09.19-.06l.49.59a.2.2,0,0,0,.18-.14c0-.1.07-.21.1-.33a1.57,1.57,0,0,1,.15-.32.29.29,0,0,1,.25-.14h.1l.24,0,.23,0a17.29,17.29,0,0,1,1.29,3l-.12.34.28-.34.07-.18.17-.37.18-.41a2.08,2.08,0,0,0,.12-.35.73.73,0,0,0,.07-.2.43.43,0,0,1,.18-.23l.5-.23-.3-.24c-.06,0-.09-.1-.08-.22a1.49,1.49,0,0,1,0-.33l.06-.15a.65.65,0,0,1,.29-.18q.23-.09.24,0v.08c0,.09,0,.15,0,.18l.1.08a2.19,2.19,0,0,0,.49.05c.24,0,.48,0,.73,0a4.92,4.92,0,0,1,.66.12c.18.05.26.13.22.24a.3.3,0,0,1,0,.08l0,.08c0,.11-.13.3-.24.58s-.22.56-.34.87l-.34.87c-.1.27-.18.46-.23.57l-.29,1.58-1.63,5.66a1,1,0,0,1-.19.13L65,27.7l-.21.05a.26.26,0,0,1-.2-.12,2,2,0,0,1-.17-.26l-.14-.29a.66.66,0,0,0-.1-.17l-.4.29-.1.34s0,0-.11.06l-.14,0a.61.61,0,0,1-.53-.26.68.68,0,0,1-.15-.53l.21-2.53-.13-1.18h-.07q-.19.69-.42,1.41c-.15.48-.29.95-.42,1.42l-.09.3c0,.15-.09.28-.14.42s-.12.29-.22.5l0,0a.09.09,0,0,1-.06,0h-.08a.32.32,0,0,1-.13-.07.16.16,0,0,0-.16.1,2.25,2.25,0,0,0-.11.22,1.14,1.14,0,0,1-.12.22.21.21,0,0,1-.18.1h0a1,1,0,0,0-.07-.25.41.41,0,0,0-.15-.17.27.27,0,0,0-.19.15.92.92,0,0,0-.09.23,1.12,1.12,0,0,1-.09.22.24.24,0,0,1-.23.1c-.1,0-.14-.05-.12-.16a1.66,1.66,0,0,1,.11-.37,2.76,2.76,0,0,1,.18-.39A.55.55,0,0,0,59.94,26.93Z" style="fill:#423c25"/><path d="M66.86,27h-.08l-.09.07-.19.7s0,0,0,0a.15.15,0,0,0-.07,0h0c-.08,0-.12-.06-.15-.18a.46.46,0,0,1,0-.24s0-.11,0-.2a2.26,2.26,0,0,1,.08-.3c0-.09.05-.19.08-.28l.06-.19a.16.16,0,0,1,0-.1l0-.13,0-.11.18-.55q.12-.37.3-.84c.11-.31.23-.64.35-1l.36-1c.12-.31.22-.59.31-.84s.15-.43.19-.55c.15-.28.32-.55.5-.83a6.76,6.76,0,0,0,.46-.82c.3-.61.59-1.19.85-1.74a11.63,11.63,0,0,1,1-1.71s.09,0,.15.06.12.16.19.26l.18.28c.06.09.1.14.13.14s.07-.05.11-.14a1.39,1.39,0,0,0,.12-.28c0-.1.07-.2.11-.28s.06-.12.09-.11h1.65l.36-.12a.05.05,0,0,1,.07,0,.61.61,0,0,1,0,.15.77.77,0,0,1,0,.15c0,.05,0,.07,0,.07h.19a.72.72,0,0,1,.21,0,.26.26,0,0,1,.16.07s0,.09,0,.18l-.5,1.72a1.13,1.13,0,0,0,0,.4,2.63,2.63,0,0,0,.06.39l.09.38a1.84,1.84,0,0,1,0,.41l-.17.74c-.07.35-.16.73-.24,1.12s-.16.77-.24,1.12-.14.6-.17.75l0,.07a16.62,16.62,0,0,1-.21,1.71c-.11.57-.25,1.14-.42,1.73a1.49,1.49,0,0,1-.47-.07,1.51,1.51,0,0,0-.48-.07.17.17,0,0,0-.13.07l-.13.15a.93.93,0,0,1-.13.15.21.21,0,0,1-.16.07c-.06,0-.09,0-.07-.12s0-.18,0-.28,0-.19.05-.28,0-.12-.06-.12,0,0-.08.08l-.12.17-.19.25-.13.21a.51.51,0,0,1-.18.2s0,.05-.09.07v0h0c-.18,0-.28-.12-.28-.35a3.56,3.56,0,0,1,.06-.77c0-.28.09-.54.13-.77s0-.35-.09-.35H70a.46.46,0,0,0-.42.16l-.25.86-.23.86c0,.07-.07.18-.14.32a1.9,1.9,0,0,1-.11.22l-.11.07H67.41l-.32-.34-.16-.07a.19.19,0,0,1,0-.15,1.6,1.6,0,0,1,0-.21A.33.33,0,0,0,67,27C67,27,66.94,27,66.86,27Zm3.53-3.91-.06.15c0,.07,0,.11.08.12a2.81,2.81,0,0,0,.5-.09.45.45,0,0,0,.36-.3.19.19,0,0,1,.06-.07l.06-.07a1.61,1.61,0,0,1,0-.31c0-.14,0-.29.07-.46s0-.31.08-.45a2.55,2.55,0,0,1,.08-.31s0-.07,0-.14l0-.22a.41.41,0,0,0,0-.19c0-.06,0-.09,0-.09s-.23.12-.37.36-.27.5-.41.79a8.85,8.85,0,0,0-.35.83A4.59,4.59,0,0,0,70.39,23.05Z" style="fill:#423c25"/><path d="M74.6,27.14s-.08,0-.13.08l-.17.17a1.29,1.29,0,0,1-.16.17c0,.06-.09.08-.11.08s-.2-.11-.19-.33a3.88,3.88,0,0,1,.1-.76c.06-.29.13-.56.21-.82s.14-.45.16-.54C74.62,24.1,75,23,75.41,22a34.06,34.06,0,0,0,1.09-3.23.12.12,0,0,1,0-.09s0-.05,0-.05H75.1a.57.57,0,0,1,.12-.18.57.57,0,0,0,.12-.18v-.07c-.09-.11-.13-.17-.13-.2a.21.21,0,0,1,.15-.12,1,1,0,0,1,.3-.08l.3,0h.22l-.25-.16a1.24,1.24,0,0,1-.27,0,.5.5,0,0,1-.25-.09.39.39,0,0,1-.16-.15.26.26,0,0,1,0-.23.88.88,0,0,1,.14-.23.49.49,0,0,1,.22-.17l.8-.14h.35l.77,0c.3,0,.6,0,.91,0h3.41a.4.4,0,0,1-.16.25.52.52,0,0,1-.22.07l-.24,0a.38.38,0,0,0-.23.14.9.9,0,0,0,0,.51.85.85,0,0,1,0,.5,1.08,1.08,0,0,1-.14.32,1.84,1.84,0,0,1-.32.32.57.57,0,0,1-.38.09l-.43,0a.51.51,0,0,0-.25.06l-.06.18c0,.09-.07.19-.11.28l-.12.29c0,.09-.06.16-.07.2l-.07.27c0,.08-.07.22-.13.43l-.22.63-.22.63c-.07.2-.13.33-.16.4l-1.35,4.74a2.24,2.24,0,0,1-.14.34,1.37,1.37,0,0,1-.25.35.93.93,0,0,0-.46,0,.76.76,0,0,0-.24.18l-.18.21a.37.37,0,0,1-.27.1.32.32,0,0,1-.27-.13,1.13,1.13,0,0,1-.15-.29,1.83,1.83,0,0,0-.14-.28A.23.23,0,0,0,74.6,27.14Z" style="fill:#423c25"/><path d="M79.35,27.57l.18-.63c.26-1.08.53-2.15.79-3.2s.55-2.11.86-3.2l0-.12.06-.16a.93.93,0,0,0,0-.13l0-.07,0-.11.12-.19a1.76,1.76,0,0,1,.12-.2.64.64,0,0,0,.05-.11.67.67,0,0,1,.06-.17c0-.09.07-.19.1-.3s.08-.2.11-.3a1.67,1.67,0,0,0,.07-.2.77.77,0,0,0,.09-.2A1.35,1.35,0,0,0,82.2,18l.11-.37.11-.38a2.6,2.6,0,0,0,.07-.31.81.81,0,0,1,.05-.21.6.6,0,0,1,.18-.07l.35-.12.51-.17a.25.25,0,0,1,.24.1.45.45,0,0,1,.08.22,1.06,1.06,0,0,1,0,.24c0,.06,0,.09.07.09h0a1,1,0,0,0,.16-.22.13.13,0,0,0,.07-.09.06.06,0,0,1,.06-.05.67.67,0,0,1,.23-.06h.18a1.34,1.34,0,0,1,.13.15l.12.13h.09l.38-.14h.09l0,.07a.13.13,0,0,0,.09.07l-.09.31c-.21.75-.47,1.49-.75,2.21s-.58,1.46-.86,2.22a1.16,1.16,0,0,1-.25.36,1,1,0,0,0-.24.35,1.3,1.3,0,0,0,0,.52c0,.18,0,.34,0,.49l-.09.36-.28,1L83,25c-.12.4-.24.83-.37,1.3a8.26,8.26,0,0,1-.47,1.32c0,.05-.06.08-.11.08h-.25a1,1,0,0,0-.17-.29.48.48,0,0,0-.34-.08h-.13l-.1,0-.19.2-.24,0a.32.32,0,0,0-.2,0,.24.24,0,0,0-.11.06l-.16.1-.17.11-.09.07A.79.79,0,0,1,79.35,27.57Z" style="fill:#423c25"/><path d="M84.8,20.92A2.3,2.3,0,0,1,85,20.6l.21-.33.19-.33a.75.75,0,0,0,.08-.31l.17-.23.25-.35.25-.35a1.34,1.34,0,0,0,.15-.24,3.35,3.35,0,0,1,.31-.38l.27-.28.31-.25c.11-.08.24-.19.39-.32L87.7,17a1.18,1.18,0,0,1,.18-.21,3.55,3.55,0,0,1,.77-.33,8.46,8.46,0,0,1,1-.26,10.14,10.14,0,0,1,1-.17,5.16,5.16,0,0,1,.77-.07c.23,0,.31.09.25.25a.29.29,0,0,1-.09.16.91.91,0,0,1-.16.11l-.16.12a.26.26,0,0,0-.09.13.11.11,0,0,0,.06.14l.22.07.23.05a.26.26,0,0,1,.15.08l.25.56a1.2,1.2,0,0,1,.1.22.57.57,0,0,1,0,.14.5.5,0,0,0,0,.16.61.61,0,0,0,.1.23,2.86,2.86,0,0,0,.16.25.58.58,0,0,1,.11.18.4.4,0,0,1,0,.22c0,.08,0,.2-.06.34a5.92,5.92,0,0,1-.23.62,5.25,5.25,0,0,0-.22.63l0,0c0,.06,0,.19-.05.39s0,.41-.08.64-.06.45-.08.66,0,.32-.06.37l0,.06a.22.22,0,0,0,0,.09.24.24,0,0,1,0,.12l0,.07,0,.07,0,.1-.06.1,0,.07a.52.52,0,0,1-.23.13.24.24,0,0,0-.18.14.19.19,0,0,0,.09.22.22.22,0,0,1,.13.21c0,.05,0,.16,0,.33a2.67,2.67,0,0,1-.06.35,2,2,0,0,1-.48.77,9.79,9.79,0,0,1-.86.83c-.31.27-.63.53-1,.78s-.57.44-.76.6c0,0,0,0,0,.05a.13.13,0,0,0,0,.15.13.13,0,0,1,0,.14c0,.1-.16.16-.4.18s-.46,0-.68,0H86.9a3.09,3.09,0,0,1-.5-.06,6.28,6.28,0,0,1-.7-.15,6.15,6.15,0,0,1-.65-.22.66.66,0,0,1-.34-.27,1.28,1.28,0,0,0-.15-.25,2,2,0,0,1-.18-.26,2.15,2.15,0,0,1-.14-.26.44.44,0,0,1,0-.27l0-.11.07-.22,0-.18,0-.1a.15.15,0,0,0,0-.18.27.27,0,0,1-.1-.18,1.46,1.46,0,0,1,0-.2c0-.09,0-.19,0-.3a1.32,1.32,0,0,1,0-.27c0-.1,0-.16,0-.18a4.47,4.47,0,0,1,.07-.82,5.93,5.93,0,0,1,.19-.81c.09-.28.17-.55.25-.81a5.27,5.27,0,0,0,.15-.81.22.22,0,0,0,0-.14.4.4,0,0,1,0-.13.14.14,0,0,0,0-.09C84.78,21,84.79,21,84.8,20.92Zm1.81,3.52a.55.55,0,0,0,0,.25,3.7,3.7,0,0,0,.13.4,1.82,1.82,0,0,0,.18.37c.07.1.12.16.15.16a.45.45,0,0,0,.29-.15l.2-.19.15-.15L88,24.9l.25-.23.17-.15,0-.1c.14-.5.25-1,.33-1.42a8.44,8.44,0,0,1,.4-1.43c0-.09,0-.19,0-.31s0-.24,0-.36,0-.23.05-.34a2.33,2.33,0,0,1,.06-.25,1.68,1.68,0,0,0,.11-.23l.11-.23,0,0a.19.19,0,0,0,0-.07l0-.07,0-.06a.33.33,0,0,0,0-.34.86.86,0,0,0-.26-.2L89.1,19c-.07,0-.08-.08,0-.14h-.18s-.06,0-.07,0a1.2,1.2,0,0,0-.06.18l-.86,1.22,0,.13a.9.9,0,0,0-.05.43,1.12,1.12,0,0,1,0,.44,12.36,12.36,0,0,1-.59,1.6A14,14,0,0,0,86.61,24.44Z" style="fill:#423c25"/><path d="M93.14,26.93l-.54.45a.42.42,0,0,0-.32.15.46.46,0,0,1-.33.15c-.09,0-.15-.06-.16-.17a.67.67,0,0,1,0-.26l0-.07.27-.68v-.08l0-.07L92.37,25,94,19.56a3.89,3.89,0,0,1-.29-1,2.11,2.11,0,0,1,.06-1.06s0-.07.15-.16.22-.18.34-.27l.34-.23c.1-.07.17-.09.19-.06l.49.59a.18.18,0,0,0,.17-.14,2.55,2.55,0,0,0,.11-.33,1.57,1.57,0,0,1,.15-.32.29.29,0,0,1,.25-.14h.1l.24,0,.23,0a18.11,18.11,0,0,1,1.29,3l-.12.34.28-.34.07-.18.17-.37c0-.14.11-.27.17-.41a2.28,2.28,0,0,0,.13-.35.73.73,0,0,0,.07-.2.43.43,0,0,1,.18-.23l.5-.23-.3-.24c-.06,0-.09-.1-.08-.22a1.49,1.49,0,0,1,0-.33l.06-.15a.65.65,0,0,1,.29-.18q.22-.09.24,0v.08c0,.09,0,.15,0,.18l.1.08a2.19,2.19,0,0,0,.49.05c.23,0,.48,0,.73,0a4.92,4.92,0,0,1,.66.12c.18.05.25.13.22.24l0,.08,0,.08c0,.11-.13.3-.24.58s-.22.56-.34.87l-.34.87c-.1.27-.18.46-.23.57l-.29,1.58-1.63,5.66a.78.78,0,0,1-.2.13l-.25.09-.21.05a.26.26,0,0,1-.2-.12,1.3,1.3,0,0,1-.17-.26l-.14-.29a.66.66,0,0,0-.1-.17l-.4.29-.1.34a.27.27,0,0,1-.11.06l-.14,0a.61.61,0,0,1-.53-.26.68.68,0,0,1-.15-.53l.21-2.53L96,23.13h-.07q-.2.69-.42,1.41c-.15.48-.29.95-.42,1.42l-.09.3c0,.15-.1.28-.14.42s-.12.29-.22.5l0,0-.06,0h-.09l-.12-.07a.16.16,0,0,0-.16.1,2.25,2.25,0,0,0-.11.22,1.16,1.16,0,0,1-.13.22.19.19,0,0,1-.17.1h0a1,1,0,0,0-.07-.25.5.5,0,0,0-.15-.17.27.27,0,0,0-.19.15.92.92,0,0,0-.09.23c0,.08-.06.16-.09.22a.25.25,0,0,1-.24.1c-.09,0-.13-.05-.11-.16a1.66,1.66,0,0,1,.11-.37,2.76,2.76,0,0,1,.18-.39A.55.55,0,0,0,93.14,26.93Z" style="fill:#423c25"/><path d="M13.22,34.48l5.7-.1v1.16l-2.13.05v6.57H15.55V35.59l-2.33.06Z" style="fill:#423c25"/><path d="M21.17,34.78v2.9a1.72,1.72,0,0,1,.95-.91,2.13,2.13,0,0,1,1.17-.1,1.62,1.62,0,0,1,1,.62,2.65,2.65,0,0,1,.5,1.12,12.05,12.05,0,0,1,.08,1.8c0,.72,0,1.63,0,2.75l-1.1,0c0-1,0-1.75,0-2.38,0-1,0-1.62-.05-1.81a1.13,1.13,0,0,0-.37-.69,1.11,1.11,0,0,0-.71-.25h0a1,1,0,0,0-.65.22,2.42,2.42,0,0,0-.45.58A3.56,3.56,0,0,0,21.23,40l-.06,2.52-1.11,0L20,34.9Z" style="fill:#423c25"/><path d="M27.13,40a2.1,2.1,0,0,0,.41,1.33,1.29,1.29,0,0,0,.9.39h.14a1.34,1.34,0,0,0,.79-.22,1.7,1.7,0,0,0,.58-1l1.17.23a3.61,3.61,0,0,1-.65,1.25,1.88,1.88,0,0,1-1.19.65,4.56,4.56,0,0,1-.72.06,3.29,3.29,0,0,1-.71-.07A2.13,2.13,0,0,1,26.66,42,2.53,2.53,0,0,1,26,40.79a4.6,4.6,0,0,1-.11-1c0-.13,0-.25,0-.38a3.59,3.59,0,0,1,.36-1.31,2.19,2.19,0,0,1,.78-.9,2.75,2.75,0,0,1,1-.39,3.64,3.64,0,0,1,.6-.05l.59,0a2,2,0,0,1,1.28.8A4,4,0,0,1,31.06,40Zm2.71-.92a1.6,1.6,0,0,0-.39-1,1.2,1.2,0,0,0-.94-.42,1.3,1.3,0,0,0-1,.4,1.38,1.38,0,0,0-.4,1Z" style="fill:#423c25"/><path d="M35.28,34.54h1.37l3.51,5.65h0V34.38h1.28l-.11,7.84H40l-3.5-5.76h0v5.23H35.23Z" style="fill:#423c25"/><path d="M43.7,35.14a.66.66,0,0,1,0,1,.68.68,0,0,1-.5.2.67.67,0,0,1-.49-1.15.7.7,0,0,1,.49-.2A.72.72,0,0,1,43.7,35.14ZM42.6,37l1.17-.05-.1,5.84h-1Z" style="fill:#423c25"/><path d="M46.1,36.46l0,1.33a1.77,1.77,0,0,1,1-.92,2.21,2.21,0,0,1,.75-.14,2.1,2.1,0,0,1,.43.05,1.61,1.61,0,0,1,.95.61,2.77,2.77,0,0,1,.51,1.13,12.58,12.58,0,0,1,.07,1.79c0,.72,0,1.64,0,2.76l-1.11,0c0-1,0-1.75,0-2.38a14.31,14.31,0,0,0-.06-1.81,1.11,1.11,0,0,0-.37-.7,1,1,0,0,0-.7-.24h0a.92.92,0,0,0-.66.22,2.18,2.18,0,0,0-.45.57,3.8,3.8,0,0,0-.22,1.42l-.06,2.53-1.1,0L45,36.59Z" style="fill:#423c25"/><path d="M50.5,43.53h0a.47.47,0,0,1,.22.07,1.06,1.06,0,0,0,.78-.49,3.76,3.76,0,0,0,.2-1.51l0-4.52,1.06.08c0,.81,0,1.55,0,2.2a27.29,27.29,0,0,1-.13,3.76,1.86,1.86,0,0,1-.57,1,1.9,1.9,0,0,1-.92.42,1.55,1.55,0,0,1-.31,0,2.59,2.59,0,0,1-.47-.05Zm2.21-8.39a.66.66,0,0,1,0,1,.7.7,0,0,1-1,0,.62.62,0,0,1-.2-.48.61.61,0,0,1,.2-.47.7.7,0,0,1,1,0Z" style="fill:#423c25"/><path d="M54.66,37.64A2.24,2.24,0,0,1,55.81,37a3,3,0,0,1,.68-.07,3.79,3.79,0,0,1,.86.1,1.41,1.41,0,0,1,1.08,1.12A8.14,8.14,0,0,1,58.58,40c0,.4,0,.85,0,1.35v0c0,.28.11.42.34.42a1.05,1.05,0,0,0,.41-.1l.09,1a3,3,0,0,1-.74.1,1.06,1.06,0,0,1-1-.55,2.88,2.88,0,0,1-.94.58,3.24,3.24,0,0,1-.89.13h0a2.14,2.14,0,0,1-.84-.17,1.54,1.54,0,0,1-.65-.49,1.46,1.46,0,0,1-.28-.76,1,1,0,0,1,0-.17,2.24,2.24,0,0,1,.15-.78,1.64,1.64,0,0,1,.91-.86,7.6,7.6,0,0,1,2.5-.52,1.43,1.43,0,0,0-.19-.92,1.12,1.12,0,0,0-.74-.25H56.4a1.45,1.45,0,0,0-.7.15,1,1,0,0,0-.4.82l-1.12-.15A1.82,1.82,0,0,1,54.66,37.64Zm2.87,2.48a5.06,5.06,0,0,0-1.9.4.87.87,0,0,0-.46.72v0a.65.65,0,0,0,.26.58A1.08,1.08,0,0,0,56,42h.16a1.86,1.86,0,0,0,.76-.21c.18-.12.38-.25.59-.41Z" style="fill:#423c25"/><path d="M64.66,36l.06,1.26a1.46,1.46,0,0,1,.81-.91,2.08,2.08,0,0,1,.66-.11,2.3,2.3,0,0,1,.45.05,2,2,0,0,1,1.15,1,2.07,2.07,0,0,1,.82-1,2.21,2.21,0,0,1,1-.23h.11a1.52,1.52,0,0,1,1.14.63,2.41,2.41,0,0,1,.54,1.35c0,.21,0,.58,0,1.1,0,.7,0,1.67,0,2.92l-1.06-.09V38.92A2.13,2.13,0,0,0,70,37.66a1,1,0,0,0-.55-.28h-.06a.87.87,0,0,0-.52.23,1.41,1.41,0,0,0-.45.61,6.41,6.41,0,0,0-.22,1.6l0,1.7-1,0A25,25,0,0,0,67,38.32a1.66,1.66,0,0,0-.38-.75.65.65,0,0,0-.49-.23H66a1.35,1.35,0,0,0-.61.27,1.38,1.38,0,0,0-.43.56,4.83,4.83,0,0,0-.19,1.47l-.09,2.56h-1L63.49,36Z" style="fill:#423c25"/><path d="M73.2,37.64A2.21,2.21,0,0,1,74.34,37,3.08,3.08,0,0,1,75,37a3.87,3.87,0,0,1,.87.1A1.39,1.39,0,0,1,77,38.18,7.47,7.47,0,0,1,77.12,40c0,.4,0,.85,0,1.35v0q0,.42.33.42a1,1,0,0,0,.41-.1l.09,1a3,3,0,0,1-.73.1,1.06,1.06,0,0,1-1-.55,2.78,2.78,0,0,1-.94.58,3.17,3.17,0,0,1-.88.13h0a2.12,2.12,0,0,1-.83-.17,1.54,1.54,0,0,1-.65-.49,1.46,1.46,0,0,1-.29-.76v-.17a2.47,2.47,0,0,1,.14-.78,1.66,1.66,0,0,1,.92-.86,7.59,7.59,0,0,1,2.49-.52,1.43,1.43,0,0,0-.19-.92,1.1,1.1,0,0,0-.74-.25h-.19a1.41,1.41,0,0,0-.69.15,1,1,0,0,0-.4.82l-1.13-.15A1.88,1.88,0,0,1,73.2,37.64Zm2.87,2.48a5,5,0,0,0-1.9.4.87.87,0,0,0-.46.72.11.11,0,0,0,0,0,.65.65,0,0,0,.27.58,1,1,0,0,0,.58.16h.17a1.85,1.85,0,0,0,.75-.21c.19-.12.39-.25.6-.41Z" style="fill:#423c25"/><path d="M78.27,36.53l1.23-.25L81,40.57l1.56-4,1.06.34-3.15,7.88-1-.52.87-2.35Z" style="fill:#423c25"/><path d="M91.87,42.71l0-1a1.71,1.71,0,0,1-.74.69,2.32,2.32,0,0,1-1.08.24,2.19,2.19,0,0,1-1.2-.39A2.09,2.09,0,0,1,88,41.22a4.66,4.66,0,0,1-.25-1.42v-.07A5.07,5.07,0,0,1,88,38.25,2.25,2.25,0,0,1,88.8,37a1.86,1.86,0,0,1,1.12-.32,4.38,4.38,0,0,1,.5,0,1.71,1.71,0,0,1,1.42,1.07l0-2.89H93v7.82Zm-2.93-3a2.49,2.49,0,0,0,.36,1.34,1.17,1.17,0,0,0,1,.61,1.28,1.28,0,0,0,1.1-.56,2.17,2.17,0,0,0,.37-1.32v-.07c0-1.32-.48-2-1.38-2a1.25,1.25,0,0,0-1.1.61,2.35,2.35,0,0,0-.35,1.31Z" style="fill:#423c25"/><path d="M95.28,40a2.1,2.1,0,0,0,.41,1.33,1.34,1.34,0,0,0,.91.39h.14a1.36,1.36,0,0,0,.79-.22,1.64,1.64,0,0,0,.57-1l1.17.23a3.31,3.31,0,0,1-.65,1.25,1.85,1.85,0,0,1-1.18.65,4.56,4.56,0,0,1-.72.06,3.38,3.38,0,0,1-.72-.07A2.16,2.16,0,0,1,94.81,42a2.59,2.59,0,0,1-.66-1.24,4.61,4.61,0,0,1-.12-1c0-.13,0-.25,0-.38a3.24,3.24,0,0,1,.36-1.31,2.05,2.05,0,0,1,.78-.9,2.7,2.7,0,0,1,1-.39,3.64,3.64,0,0,1,.6-.05l.6,0a2,2,0,0,1,1.28.8A4,4,0,0,1,99.22,40ZM98,39.12a1.59,1.59,0,0,0-.38-1,1.2,1.2,0,0,0-.94-.42,1.29,1.29,0,0,0-1,.4,1.44,1.44,0,0,0-.41,1Z" style="fill:#423c25"/><path d="M100.32,40.66l1.12-.21c.06.56.28.89.65,1a3.21,3.21,0,0,0,.71.09,1.37,1.37,0,0,0,.29,0,.92.92,0,0,0,.58-.24.79.79,0,0,0,.19-.36.13.13,0,0,0,0-.06.39.39,0,0,0-.1-.26,1,1,0,0,0-.28-.27,5.84,5.84,0,0,0-1-.34c-.56-.16-1-.3-1.21-.4a1.52,1.52,0,0,1-.58-.43,1.14,1.14,0,0,1-.24-.71v-.09a1.69,1.69,0,0,1,.16-.73,1.45,1.45,0,0,1,.66-.63,2.74,2.74,0,0,1,1-.3l.39,0a3.12,3.12,0,0,1,.54,0,2.43,2.43,0,0,1,.9.36,2.28,2.28,0,0,1,.72,1.37l-1,.14c-.14-.48-.32-.75-.55-.82a1.87,1.87,0,0,0-.56-.09h-.11a1.09,1.09,0,0,0-.57.2.54.54,0,0,0-.26.41v.05a.42.42,0,0,0,.15.34,2.44,2.44,0,0,0,1,.34,6.45,6.45,0,0,1,1.37.47,1.36,1.36,0,0,1,.71.63,2.06,2.06,0,0,1,.14.76h0a1.46,1.46,0,0,1-.23.79,1.8,1.8,0,0,1-.76.62,3,3,0,0,1-1.29.26h-.08a3.59,3.59,0,0,1-1.1-.14,1.8,1.8,0,0,1-.75-.44A2.41,2.41,0,0,1,100.32,40.66Z" style="fill:#423c25"/><path d="M106.06,36.39H107V34.73l1.18-.16v1.77l1.53-.05v1l-1.53.06V40.8a1,1,0,0,0,.1.57.4.4,0,0,0,.34.14,3.84,3.84,0,0,0,.93-.2l.16,1a6.51,6.51,0,0,1-1.4.22,1.86,1.86,0,0,1-1-.36,1.69,1.69,0,0,1-.3-1.06V37.36h-.92Z" style="fill:#423c25"/><path d="M114.26,38.05a1.55,1.55,0,0,0-.8-.25h-.12a1.36,1.36,0,0,0-.67.25,1.92,1.92,0,0,0-.45.52A3.35,3.35,0,0,0,112,40l-.06,2.53-1.11,0-.09-6.09,1.14-.13.06,1.33a1.85,1.85,0,0,1,1-.94,1.47,1.47,0,0,1,.53-.09,3.28,3.28,0,0,1,1.13.24Z" style="fill:#423c25"/><path d="M116.33,42.08a3.76,3.76,0,0,1,0-4.4,2.73,2.73,0,0,1,4,0,3.76,3.76,0,0,1,0,4.4,2.71,2.71,0,0,1-4,0Zm3.17-.76a2.71,2.71,0,0,0,0-2.8,1.33,1.33,0,0,0-1.19-.65,1.36,1.36,0,0,0-1.21.65,2.77,2.77,0,0,0,0,2.8,1.36,1.36,0,0,0,1.21.65A1.33,1.33,0,0,0,119.5,41.32Z" style="fill:#423c25"/><path d="M122.07,36.53l1.23-.25,1.49,4.29,1.56-4,1.06.34-3.14,7.88-1-.52.87-2.35Z" style="fill:#423c25"/><path d="M132.22,37.64a2.24,2.24,0,0,1,1.15-.61,3,3,0,0,1,.68-.07,3.73,3.73,0,0,1,.86.1A1.39,1.39,0,0,1,136,38.18a7.47,7.47,0,0,1,.16,1.79c0,.4,0,.85,0,1.35v0q0,.42.33.42a1.05,1.05,0,0,0,.41-.1l.09,1a3,3,0,0,1-.73.1,1.06,1.06,0,0,1-1-.55,2.78,2.78,0,0,1-.94.58,3.19,3.19,0,0,1-.89.13h0a2.09,2.09,0,0,1-.83-.17,1.48,1.48,0,0,1-.65-.49,1.38,1.38,0,0,1-.29-.76v-.17a2.47,2.47,0,0,1,.14-.78,1.66,1.66,0,0,1,.92-.86,7.53,7.53,0,0,1,2.49-.52,1.43,1.43,0,0,0-.19-.92,1.1,1.1,0,0,0-.74-.25H134a1.48,1.48,0,0,0-.7.15,1,1,0,0,0-.39.82l-1.13-.15A1.92,1.92,0,0,1,132.22,37.64Zm2.88,2.48a5.07,5.07,0,0,0-1.91.4.92.92,0,0,0-.46.72v0a.65.65,0,0,0,.27.58,1,1,0,0,0,.58.16h.17a1.85,1.85,0,0,0,.75-.21c.19-.12.39-.25.6-.41Z" style="fill:#423c25"/><path d="M14.28,47.84l.35.24a2.32,2.32,0,0,0-.64.85.5.5,0,0,1,.51.25.91.91,0,0,1,.1.41v.1a.66.66,0,0,1-.19.39.67.67,0,0,1-.36.17l-.1,0a.74.74,0,0,1-.34-.1.71.71,0,0,1-.32-.32.81.81,0,0,1-.07-.33,1.83,1.83,0,0,1,0-.21,1.73,1.73,0,0,1,.22-.6A6.57,6.57,0,0,1,14.28,47.84Zm1.84,0,.34.24a2.26,2.26,0,0,0-.63.85.5.5,0,0,1,.51.25.91.91,0,0,1,.1.41v.1a.72.72,0,0,1-.19.39.67.67,0,0,1-.36.17l-.1,0a.82.82,0,0,1-.66-.42.67.67,0,0,1-.07-.33,1.83,1.83,0,0,1,0-.21,1.55,1.55,0,0,1,.22-.6A5.92,5.92,0,0,1,16.12,47.84Z" style="fill:#423c25"/><path d="M20.66,50.56a1.58,1.58,0,0,0-.58-.12,1,1,0,0,0-.3,0,1.34,1.34,0,0,0-.72.46,2,2,0,0,0-.39,1,4.67,4.67,0,0,0,0,.52,3,3,0,0,0,.06.61,1.71,1.71,0,0,0,.43.87,1.19,1.19,0,0,0,.84.39h.12a1.39,1.39,0,0,0,.78-.22,1.24,1.24,0,0,0,.49-1l1.11.23a2.36,2.36,0,0,1-.56,1.25,2,2,0,0,1-1.18.65,4,4,0,0,1-.68.06,3.08,3.08,0,0,1-.68-.07,2.22,2.22,0,0,1-1.07-.54,2.4,2.4,0,0,1-.62-1.14,4.25,4.25,0,0,1-.17-1.17c0-.1,0-.2,0-.3a3.49,3.49,0,0,1,.34-1.35,2.07,2.07,0,0,1,.74-.89,2.42,2.42,0,0,1,.91-.39,3.27,3.27,0,0,1,.57,0l.52,0a2.15,2.15,0,0,1,1.17.53,2,2,0,0,1,.64,1.35l-1.09.17A1.25,1.25,0,0,0,20.66,50.56Z" style="fill:#423c25"/><path d="M24.72,47.69v2.9a1.71,1.71,0,0,1,1-.91,2,2,0,0,1,.75-.14,2,2,0,0,1,.43,0,1.63,1.63,0,0,1,.95.62,2.61,2.61,0,0,1,.51,1.12,12.66,12.66,0,0,1,.07,1.8c0,.71,0,1.63,0,2.75l-1.1,0c0-1,0-1.75,0-2.38,0-1,0-1.62-.05-1.81a1.16,1.16,0,0,0-.37-.7,1.19,1.19,0,0,0-.71-.24h0a1,1,0,0,0-.66.22,2,2,0,0,0-.44.57,3.59,3.59,0,0,0-.23,1.42l-.06,2.53-1.1,0-.1-7.67Z" style="fill:#423c25"/><path d="M30.13,50.55a2.24,2.24,0,0,1,1.15-.61,3,3,0,0,1,.68-.07,3.79,3.79,0,0,1,.86.1,1.41,1.41,0,0,1,1.08,1.12,8.08,8.08,0,0,1,.15,1.79c0,.4,0,.85,0,1.35v0c0,.29.11.43.34.43a1.05,1.05,0,0,0,.41-.1l.09,1a3,3,0,0,1-.74.1,1.05,1.05,0,0,1-1-.56,2.71,2.71,0,0,1-.95.59,3.52,3.52,0,0,1-.88.13h0a2.13,2.13,0,0,1-.84-.16,1.62,1.62,0,0,1-.65-.49,1.37,1.37,0,0,1-.28-.76,1,1,0,0,1,0-.17,2.34,2.34,0,0,1,.15-.79,1.71,1.71,0,0,1,.91-.86,8.17,8.17,0,0,1,2.5-.52,1.52,1.52,0,0,0-.19-.92,1.21,1.21,0,0,0-.74-.24h-.19a1.43,1.43,0,0,0-.7.15,1,1,0,0,0-.4.81l-1.12-.14A1.82,1.82,0,0,1,30.13,50.55ZM33,53a4.81,4.81,0,0,0-1.9.4.87.87,0,0,0-.46.72.43.43,0,0,1,0,.05.67.67,0,0,0,.27.58,1.08,1.08,0,0,0,.59.15h.16a1.58,1.58,0,0,0,.75-.21,4.6,4.6,0,0,0,.6-.41Z" style="fill:#423c25"/><path d="M39.42,51a1.63,1.63,0,0,0-.8-.24H38.5a1.27,1.27,0,0,0-.67.25,1.92,1.92,0,0,0-.45.52,3.35,3.35,0,0,0-.22,1.39l-.07,2.53-1.1,0-.09-6.09L37,49.21l.05,1.33a1.86,1.86,0,0,1,1-.94,1.43,1.43,0,0,1,.53-.1,3.37,3.37,0,0,1,1.13.25Z" style="fill:#423c25"/><path d="M41.47,50.55a2.24,2.24,0,0,1,1.15-.61,3,3,0,0,1,.68-.07,3.73,3.73,0,0,1,.86.1,1.39,1.39,0,0,1,1.08,1.12,7.41,7.41,0,0,1,.16,1.79c0,.4,0,.85,0,1.35v0c0,.29.11.43.33.43a1.05,1.05,0,0,0,.41-.1l.09,1a3,3,0,0,1-.73.1,1.07,1.07,0,0,1-1-.56,2.68,2.68,0,0,1-.94.59,3.61,3.61,0,0,1-.89.13h0a2.08,2.08,0,0,1-.83-.16,1.56,1.56,0,0,1-.65-.49,1.38,1.38,0,0,1-.29-.76v-.17a2.58,2.58,0,0,1,.14-.79,1.73,1.73,0,0,1,.92-.86,8.09,8.09,0,0,1,2.49-.52,1.45,1.45,0,0,0-.19-.92,1.16,1.16,0,0,0-.74-.24h-.19a1.48,1.48,0,0,0-.7.15,1,1,0,0,0-.39.81L41,51.75A1.92,1.92,0,0,1,41.47,50.55ZM44.35,53a4.88,4.88,0,0,0-1.91.4.92.92,0,0,0-.46.72v.05a.67.67,0,0,0,.27.58,1,1,0,0,0,.58.15H43a1.58,1.58,0,0,0,.75-.21,4.6,4.6,0,0,0,.6-.41Z" style="fill:#423c25"/><path d="M50.39,50.56a1.63,1.63,0,0,0-.59-.12.92.92,0,0,0-.29,0,1.34,1.34,0,0,0-.72.46,1.86,1.86,0,0,0-.39,1,4.67,4.67,0,0,0,0,.52,3,3,0,0,0,.06.61,1.71,1.71,0,0,0,.43.87,1.19,1.19,0,0,0,.83.39h.13a1.44,1.44,0,0,0,.78-.22,1.24,1.24,0,0,0,.49-1l1.11.23a2.29,2.29,0,0,1-.57,1.25,1.91,1.91,0,0,1-1.17.65,4,4,0,0,1-.68.06,3,3,0,0,1-.68-.07A2.18,2.18,0,0,1,48,54.71a2.4,2.4,0,0,1-.62-1.14,4.25,4.25,0,0,1-.17-1.17c0-.1,0-.2,0-.3a3.68,3.68,0,0,1,.35-1.35,2.13,2.13,0,0,1,.73-.89,2.53,2.53,0,0,1,.92-.39,3.27,3.27,0,0,1,.57,0l.52,0A2.09,2.09,0,0,1,51.5,50a2,2,0,0,1,.65,1.35l-1.1.17A1.25,1.25,0,0,0,50.39,50.56Z" style="fill:#423c25"/><path d="M53.25,49.3h.92V47.63l1.18-.15v1.77l1.53-.06v1l-1.53.05v3.5a1.2,1.2,0,0,0,.1.57.42.42,0,0,0,.34.14,4.42,4.42,0,0,0,.93-.2l.16,1a6.51,6.51,0,0,1-1.4.22,1.86,1.86,0,0,1-1-.36,1.69,1.69,0,0,1-.3-1.06V50.27h-.92Z" style="fill:#423c25"/><path d="M59.18,52.94a2.14,2.14,0,0,0,.41,1.34,1.34,1.34,0,0,0,.91.39h.14a1.44,1.44,0,0,0,.79-.22,1.64,1.64,0,0,0,.57-1l1.17.23A3.31,3.31,0,0,1,62.52,55a1.9,1.9,0,0,1-1.19.65,4.46,4.46,0,0,1-.72.06,3.35,3.35,0,0,1-.71-.07,2.22,2.22,0,0,1-1.19-.68,2.58,2.58,0,0,1-.66-1.25,4.46,4.46,0,0,1-.12-1c0-.13,0-.25,0-.38A3.33,3.33,0,0,1,58.31,51a2.08,2.08,0,0,1,.78-.89,2.63,2.63,0,0,1,1-.39,3.64,3.64,0,0,1,.6,0l.59,0a2,2,0,0,1,1.29.8,4,4,0,0,1,.59,2.45ZM61.89,52a1.59,1.59,0,0,0-.38-1,1.2,1.2,0,0,0-.94-.42,1.31,1.31,0,0,0-1,.4,1.4,1.4,0,0,0-.4,1Z" style="fill:#423c25"/><path d="M67.74,51a1.59,1.59,0,0,0-.79-.24h-.12a1.31,1.31,0,0,0-.68.25,1.74,1.74,0,0,0-.44.52,3.3,3.3,0,0,0-.23,1.39l-.06,2.53-1.1,0-.1-6.09,1.15-.13,0,1.33a1.81,1.81,0,0,1,1-.94,1.53,1.53,0,0,1,.54-.1,3.32,3.32,0,0,1,1.12.25Z" style="fill:#423c25"/><path d="M69.44,50.27,69.1,50a2.32,2.32,0,0,0,.64-.85.52.52,0,0,1-.52-.26,1,1,0,0,1-.1-.4s0-.07,0-.1a.61.61,0,0,1,.19-.39.77.77,0,0,1,.36-.18h.1a.77.77,0,0,1,.34.1.76.76,0,0,1,.32.32.79.79,0,0,1,.06.32,1.48,1.48,0,0,1,0,.21,1.71,1.71,0,0,1-.22.61A6.19,6.19,0,0,1,69.44,50.27Zm1.84,0L70.94,50a2.32,2.32,0,0,0,.64-.85.51.51,0,0,1-.52-.26.85.85,0,0,1-.1-.4.34.34,0,0,1,0-.1.61.61,0,0,1,.19-.39.77.77,0,0,1,.36-.18h.1a.77.77,0,0,1,.34.1.76.76,0,0,1,.32.32.79.79,0,0,1,.06.32,1.48,1.48,0,0,1,0,.21,1.71,1.71,0,0,1-.22.61A6.89,6.89,0,0,1,71.28,50.27Z" style="fill:#423c25"/><path d="M77.14,50.55a2.24,2.24,0,0,1,1.15-.61,3,3,0,0,1,.68-.07,3.79,3.79,0,0,1,.86.1,1.41,1.41,0,0,1,1.08,1.12,8,8,0,0,1,.16,1.79c0,.4,0,.85,0,1.35v0c0,.29.11.43.34.43a1.05,1.05,0,0,0,.41-.1l.09,1a3,3,0,0,1-.74.1,1.06,1.06,0,0,1-1-.56,2.77,2.77,0,0,1-.94.59,3.61,3.61,0,0,1-.89.13h0a2.13,2.13,0,0,1-.84-.16,1.62,1.62,0,0,1-.65-.49,1.46,1.46,0,0,1-.28-.76c0-.06,0-.11,0-.17a2.34,2.34,0,0,1,.15-.79,1.71,1.71,0,0,1,.91-.86,8.17,8.17,0,0,1,2.5-.52,1.45,1.45,0,0,0-.19-.92,1.18,1.18,0,0,0-.74-.24h-.19a1.45,1.45,0,0,0-.7.15,1,1,0,0,0-.4.81l-1.12-.14A1.82,1.82,0,0,1,77.14,50.55ZM80,53a4.86,4.86,0,0,0-1.9.4.87.87,0,0,0-.46.72v.05a.68.68,0,0,0,.26.58,1.08,1.08,0,0,0,.59.15h.17a1.58,1.58,0,0,0,.75-.21A5.34,5.34,0,0,0,80,54.3Z" style="fill:#423c25"/><path d="M84.05,49.37l.06,1.33a1.7,1.7,0,0,1,1-.92,2.21,2.21,0,0,1,.75-.14,2,2,0,0,1,.42,0,1.61,1.61,0,0,1,1,.61,2.63,2.63,0,0,1,.5,1.13,12,12,0,0,1,.08,1.79c0,.72,0,1.64,0,2.75l-1.11,0c0-.95,0-1.75,0-2.38a15.24,15.24,0,0,0,0-1.8,1.11,1.11,0,0,0-.37-.7,1.05,1.05,0,0,0-.71-.24h0a.92.92,0,0,0-.65.22,2.18,2.18,0,0,0-.45.57A3.56,3.56,0,0,0,84.17,53l-.06,2.52-1.11,0-.09-6.1Z" style="fill:#423c25"/><path d="M93,55.62l0-.95a1.76,1.76,0,0,1-.74.69,2.38,2.38,0,0,1-1.08.24,2.19,2.19,0,0,1-1.2-.39,2.07,2.07,0,0,1-.83-1.09,4.55,4.55,0,0,1-.25-1.41v-.08a5.51,5.51,0,0,1,.23-1.48,2.33,2.33,0,0,1,.84-1.25A1.86,1.86,0,0,1,91,49.58a3,3,0,0,1,.5,0,1.66,1.66,0,0,1,1.41,1.07l0-2.89h1.19v7.82ZM90,52.67A2.45,2.45,0,0,0,90.39,54a1.18,1.18,0,0,0,1,.62,1.3,1.3,0,0,0,1.1-.56,2.25,2.25,0,0,0,.37-1.33v-.06c0-1.32-.48-2-1.38-2a1.24,1.24,0,0,0-1.1.61A2.27,2.27,0,0,0,90,52.62Z" style="fill:#423c25"/><path d="M98.42,55.81l1.1-.19c.12.55.36.87.73,1a2.47,2.47,0,0,0,.6.08,2.24,2.24,0,0,0,.52-.06,1,1,0,0,0,.77-.49A2.42,2.42,0,0,0,102.3,55c0-.13,0-.28,0-.43a2.24,2.24,0,0,1-1.07.69,4.56,4.56,0,0,1-.75.06h-.26a2.06,2.06,0,0,1-1-.39,2,2,0,0,1-.73-.91,4,4,0,0,1-.25-1.34,1.48,1.48,0,0,1,0-.21,4,4,0,0,1,.18-1.22,2.22,2.22,0,0,1,.73-1.07,2.48,2.48,0,0,1,1-.53,3.08,3.08,0,0,1,.61-.07,4.73,4.73,0,0,1,.52,0,2.1,2.1,0,0,1,1.17.65v-.63l1,0c0,.89,0,1.69,0,2.39a30.21,30.21,0,0,1-.14,4.05,1.82,1.82,0,0,1-.56,1,1.94,1.94,0,0,1-.92.42,5.48,5.48,0,0,1-1,.1h0a3.38,3.38,0,0,1-.88-.1,1.84,1.84,0,0,1-.78-.45A2.71,2.71,0,0,1,98.42,55.81ZM102,53.76a2.37,2.37,0,0,0,.34-1.33,2.18,2.18,0,0,0-.35-1.28,1.31,1.31,0,0,0-1.14-.56,1.27,1.27,0,0,0-1.14.62,2.43,2.43,0,0,0-.33,1.31,2.2,2.2,0,0,0,.35,1.26,1.37,1.37,0,0,0,2.27,0Z" style="fill:#423c25"/><path d="M108,51a1.66,1.66,0,0,0-.8-.24H107a1.35,1.35,0,0,0-.68.25,2.08,2.08,0,0,0-.44.52,3.35,3.35,0,0,0-.22,1.39l-.07,2.53-1.1,0-.09-6.09,1.14-.13,0,1.33a1.86,1.86,0,0,1,1-.94,1.43,1.43,0,0,1,.53-.1,3.37,3.37,0,0,1,1.13.25Z" style="fill:#423c25"/><path d="M110,50.55a2.24,2.24,0,0,1,1.15-.61,3,3,0,0,1,.68-.07,3.79,3.79,0,0,1,.86.1,1.39,1.39,0,0,1,1.08,1.12,8,8,0,0,1,.16,1.79c0,.4,0,.85,0,1.35v0c0,.29.11.43.33.43a1.05,1.05,0,0,0,.41-.1l.09,1a3,3,0,0,1-.73.1,1.07,1.07,0,0,1-1-.56,2.68,2.68,0,0,1-.94.59,3.61,3.61,0,0,1-.89.13h0a2,2,0,0,1-.83-.16,1.59,1.59,0,0,1-.66-.49,1.46,1.46,0,0,1-.28-.76v-.17a2.31,2.31,0,0,1,.14-.79,1.7,1.7,0,0,1,.92-.86,8,8,0,0,1,2.49-.52,1.45,1.45,0,0,0-.19-.92,1.16,1.16,0,0,0-.74-.24h-.19a1.48,1.48,0,0,0-.7.15,1,1,0,0,0-.4.81l-1.12-.14A1.92,1.92,0,0,1,110,50.55ZM112.89,53a4.88,4.88,0,0,0-1.91.4.89.89,0,0,0-.46.72v.05a.67.67,0,0,0,.27.58,1,1,0,0,0,.58.15h.17a1.58,1.58,0,0,0,.75-.21,4.6,4.6,0,0,0,.6-.41Z" style="fill:#423c25"/><path d="M115.79,55.77V48H117l0,2.88a1.67,1.67,0,0,1,1.41-1.06,3,3,0,0,1,.5,0,1.86,1.86,0,0,1,1.12.32,2.29,2.29,0,0,1,.84,1.25,5.45,5.45,0,0,1,.23,1.48v.08a4.6,4.6,0,0,1-.25,1.41,2.11,2.11,0,0,1-.83,1.09,2.23,2.23,0,0,1-1.2.38,2.52,2.52,0,0,1-1.08-.23,1.72,1.72,0,0,1-.74-.7l0,1Zm4-3v0a2.33,2.33,0,0,0-.36-1.32,1.26,1.26,0,0,0-1.1-.61c-.9,0-1.35.66-1.38,2v.07a2.27,2.27,0,0,0,.37,1.33,1.3,1.3,0,0,0,1.1.56,1.18,1.18,0,0,0,1-.62A2.55,2.55,0,0,0,119.83,52.82Z" style="fill:#423c25"/><path d="M126.32,48.05a.64.64,0,0,1,0,1,.7.7,0,0,1-.49.2.68.68,0,0,1-.49-.2.64.64,0,0,1,0-1,.68.68,0,0,1,.49-.2A.7.7,0,0,1,126.32,48.05Zm-1.09,1.81,1.17,0-.11,5.84h-1Z" style="fill:#423c25"/><path d="M127.58,49.3h.92V47.63l1.18-.15v1.77l1.53-.06v1l-1.53.05v3.5a1.09,1.09,0,0,0,.1.57.4.4,0,0,0,.34.14,4.69,4.69,0,0,0,.93-.2l.16,1a6.6,6.6,0,0,1-1.4.22,1.86,1.86,0,0,1-1-.36,1.69,1.69,0,0,1-.3-1.06V50.27h-.92Z" style="fill:#423c25"/><path d="M132.26,53.56l1.12-.21c.05.57.27.89.65,1a3.07,3.07,0,0,0,.71.09l.28,0a.9.9,0,0,0,.59-.25.81.81,0,0,0,.19-.35v-.06a.48.48,0,0,0-.09-.27,1.2,1.2,0,0,0-.29-.26,5.6,5.6,0,0,0-1-.34c-.56-.17-1-.3-1.21-.4a1.56,1.56,0,0,1-.59-.43,1.17,1.17,0,0,1-.24-.71v-.09a1.66,1.66,0,0,1,.16-.73,1.45,1.45,0,0,1,.66-.63,2.55,2.55,0,0,1,1-.3,2.75,2.75,0,0,1,.4,0,3.08,3.08,0,0,1,.53,0,2.43,2.43,0,0,1,.9.36,2.24,2.24,0,0,1,.72,1.37l-1.05.14c-.14-.48-.32-.75-.55-.83a1.82,1.82,0,0,0-.56-.09h-.11a1.08,1.08,0,0,0-.57.19.6.6,0,0,0-.26.42v0a.42.42,0,0,0,.15.34,2.71,2.71,0,0,0,1,.34,6.26,6.26,0,0,1,1.37.47,1.36,1.36,0,0,1,.71.63,1.82,1.82,0,0,1,.14.75v0a1.46,1.46,0,0,1-.23.79,1.81,1.81,0,0,1-.76.62,2.92,2.92,0,0,1-1.28.26h-.09a3.52,3.52,0,0,1-1.09-.13,1.69,1.69,0,0,1-.76-.45A2.27,2.27,0,0,1,132.26,53.56Z" style="fill:#423c25"/><path d="M16.37,63.47a1.58,1.58,0,0,0-.58-.12,1.39,1.39,0,0,0-.3,0,1.36,1.36,0,0,0-.72.47,1.86,1.86,0,0,0-.39,1,4.67,4.67,0,0,0,0,.52,3.08,3.08,0,0,0,.06.61,1.79,1.79,0,0,0,.43.87,1.19,1.19,0,0,0,.84.39h.12a1.53,1.53,0,0,0,.78-.22,1.24,1.24,0,0,0,.49-1l1.11.23a2.29,2.29,0,0,1-.57,1.25,2,2,0,0,1-1.17.65,4,4,0,0,1-.68.06,3.08,3.08,0,0,1-.68-.07A2.22,2.22,0,0,1,14,67.62a2.4,2.4,0,0,1-.62-1.14,4.3,4.3,0,0,1-.17-1.17c0-.1,0-.2,0-.3a3.63,3.63,0,0,1,.35-1.35,2.17,2.17,0,0,1,.74-.9,2.56,2.56,0,0,1,.91-.38,2.52,2.52,0,0,1,.57-.05l.52,0a2.22,2.22,0,0,1,1.17.53,2.06,2.06,0,0,1,.64,1.35L17,64.41A1.26,1.26,0,0,0,16.37,63.47Z" style="fill:#423c25"/><path d="M19.93,63.46a2.24,2.24,0,0,1,1.15-.61,3,3,0,0,1,.68-.08,4.46,4.46,0,0,1,.86.1A1.43,1.43,0,0,1,23.7,64a8.08,8.08,0,0,1,.15,1.79c0,.4,0,.85,0,1.35v0c0,.28.11.43.34.43a1.27,1.27,0,0,0,.41-.1l.09,1a3.08,3.08,0,0,1-.74.11,1.06,1.06,0,0,1-1-.56,2.87,2.87,0,0,1-.95.59,3.52,3.52,0,0,1-.88.13h0a2.14,2.14,0,0,1-.84-.17,1.52,1.52,0,0,1-.65-.48,1.49,1.49,0,0,1-.28-.77.91.91,0,0,1,0-.17,2.33,2.33,0,0,1,.15-.78,1.71,1.71,0,0,1,.91-.86,7.88,7.88,0,0,1,2.5-.52,1.5,1.5,0,0,0-.19-.92,1.18,1.18,0,0,0-.74-.24h-.19A1.45,1.45,0,0,0,21,64a1,1,0,0,0-.4.81l-1.12-.14A1.8,1.8,0,0,1,19.93,63.46Zm2.87,2.48a4.86,4.86,0,0,0-1.9.4.87.87,0,0,0-.46.71s0,0,0,.06a.64.64,0,0,0,.27.57,1,1,0,0,0,.59.16h.16a1.86,1.86,0,0,0,.76-.21,7.17,7.17,0,0,0,.59-.41Z" style="fill:#423c25"/><path d="M29.22,63.86a1.65,1.65,0,0,0-.8-.25H28.3a1.2,1.2,0,0,0-.67.25,1.78,1.78,0,0,0-.45.52A3.31,3.31,0,0,0,27,65.78L26.9,68.3l-1.11,0-.09-6.1,1.14-.12.06,1.33a1.78,1.78,0,0,1,1-.94,1.25,1.25,0,0,1,.53-.1,3.14,3.14,0,0,1,1.13.25Z" style="fill:#423c25"/><path d="M34.72,68.52l0-1a1.72,1.72,0,0,1-.74.7,2.52,2.52,0,0,1-1.08.23,2.26,2.26,0,0,1-1.2-.38A2.11,2.11,0,0,1,30.83,67a4.55,4.55,0,0,1-.25-1.41v-.08a5.45,5.45,0,0,1,.23-1.48,2.29,2.29,0,0,1,.84-1.25,1.86,1.86,0,0,1,1.12-.32,3,3,0,0,1,.5,0,1.65,1.65,0,0,1,1.41,1.06l0-2.88h1.19v7.81Zm-2.93-3a2.46,2.46,0,0,0,.36,1.34,1.18,1.18,0,0,0,1,.62,1.3,1.3,0,0,0,1.1-.56,2.27,2.27,0,0,0,.37-1.33v-.07c0-1.31-.48-2-1.38-2a1.26,1.26,0,0,0-1.1.61,2.32,2.32,0,0,0-.35,1.32Z" style="fill:#423c25"/><path d="M38.07,62.19a.68.68,0,0,1,0,1,.71.71,0,0,1-1,0,.68.68,0,0,1,0-1,.69.69,0,0,1,.49-.19A.69.69,0,0,1,38.07,62.19Zm-.84,7.08L36.88,69a2.32,2.32,0,0,0,.64-.85.49.49,0,0,1-.51-.26.85.85,0,0,1-.1-.4.34.34,0,0,1,0-.1A.65.65,0,0,1,37.1,67a.76.76,0,0,1,.37-.18h.09a.74.74,0,0,1,.34.1.71.71,0,0,1,.32.32.66.66,0,0,1,.07.32,1.49,1.49,0,0,1,0,.21,1.54,1.54,0,0,1-.22.61A6.57,6.57,0,0,1,37.23,69.27Z" style="fill:#423c25"/><path d="M44.18,62.21h.92V60.54l1.18-.16v1.77l1.53,0v1l-1.53,0v3.5a1.09,1.09,0,0,0,.1.57.4.4,0,0,0,.34.14,4.55,4.55,0,0,0,.93-.2l.16,1a7.33,7.33,0,0,1-1.4.22,1.8,1.8,0,0,1-1-.37,1.64,1.64,0,0,1-.3-1V63.17h-.92Z" style="fill:#423c25"/><path d="M50.06,60.59V63.5a1.74,1.74,0,0,1,.95-.92,2.21,2.21,0,0,1,.75-.14,2,2,0,0,1,.42.05,1.61,1.61,0,0,1,1,.61,2.69,2.69,0,0,1,.5,1.13A12,12,0,0,1,53.72,66c0,.72,0,1.64,0,2.76l-1.1,0c0-1,0-1.75,0-2.38a15.34,15.34,0,0,0-.05-1.81,1.16,1.16,0,0,0-.37-.7,1.05,1.05,0,0,0-.71-.24h0a.92.92,0,0,0-.65.22,2.18,2.18,0,0,0-.45.57,3.6,3.6,0,0,0-.22,1.42l-.06,2.53-1.11,0-.09-7.67Z" style="fill:#423c25"/><path d="M56,65.85a2.14,2.14,0,0,0,.41,1.34,1.34,1.34,0,0,0,.9.39h.14a1.34,1.34,0,0,0,.79-.22,1.64,1.64,0,0,0,.58-1l1.17.22a3.76,3.76,0,0,1-.65,1.26,1.92,1.92,0,0,1-1.19.65,4.56,4.56,0,0,1-.72.06,3.35,3.35,0,0,1-.71-.07,2.18,2.18,0,0,1-1.19-.68,2.64,2.64,0,0,1-.67-1.25,4.54,4.54,0,0,1-.11-1c0-.12,0-.24,0-.37a3.59,3.59,0,0,1,.36-1.32,2.32,2.32,0,0,1,.78-.9,3.19,3.19,0,0,1,1-.39,3.7,3.7,0,0,1,.6,0l.59,0a1.93,1.93,0,0,1,1.28.79,4,4,0,0,1,.6,2.46Zm2.71-.92a1.54,1.54,0,0,0-.39-1,1.2,1.2,0,0,0-.94-.42,1.3,1.3,0,0,0-1,.4,1.38,1.38,0,0,0-.4,1Z" style="fill:#423c25"/><path d="M61.06,62.35l1.23-.25,1.49,4.29,1.56-4,1.07.34-3.15,7.87-1-.51.87-2.35Z" style="fill:#423c25"/><path d="M73.46,61.81l.07,1.26a1.38,1.38,0,0,1,.81-.91,2.08,2.08,0,0,1,.66-.11,1.82,1.82,0,0,1,.45.05,2,2,0,0,1,1.15,1,2,2,0,0,1,.82-.94,2.09,2.09,0,0,1,1-.24h.1a1.53,1.53,0,0,1,1.15.64,2.4,2.4,0,0,1,.53,1.35c0,.21,0,.58,0,1.1,0,.69,0,1.67,0,2.92l-1.06-.1V64.74a2,2,0,0,0-.4-1.26,1.11,1.11,0,0,0-.54-.29h-.06a.83.83,0,0,0-.52.22,1.55,1.55,0,0,0-.46.62,6.4,6.4,0,0,0-.21,1.6l0,1.7-1,0a22.22,22.22,0,0,0-.12-3.22,1.64,1.64,0,0,0-.37-.76.68.68,0,0,0-.49-.23h-.12a1.35,1.35,0,0,0-.61.27,1.37,1.37,0,0,0-.42.57,4.49,4.49,0,0,0-.19,1.46L73.49,68h-1l-.15-6.18Z" style="fill:#423c25"/><path d="M82,63.46a2.24,2.24,0,0,1,1.15-.61,3,3,0,0,1,.68-.08,4.46,4.46,0,0,1,.86.1A1.41,1.41,0,0,1,85.77,64a8,8,0,0,1,.16,1.79c0,.4,0,.85-.05,1.35v0c0,.28.12.43.34.43a1.27,1.27,0,0,0,.41-.1l.09,1a3,3,0,0,1-.74.11A1.06,1.06,0,0,1,85,68a2.84,2.84,0,0,1-.94.59,3.61,3.61,0,0,1-.89.13h0a2.05,2.05,0,0,1-.83-.17,1.4,1.4,0,0,1-.94-1.25s0-.11,0-.17a2.33,2.33,0,0,1,.15-.78,1.7,1.7,0,0,1,.92-.86A7.73,7.73,0,0,1,84.86,65a1.43,1.43,0,0,0-.19-.92,1.18,1.18,0,0,0-.74-.24h-.19A1.45,1.45,0,0,0,83,64a1,1,0,0,0-.4.81l-1.12-.14A1.85,1.85,0,0,1,82,63.46Zm2.88,2.48a4.88,4.88,0,0,0-1.91.4.89.89,0,0,0-.46.71v.06a.64.64,0,0,0,.27.57,1,1,0,0,0,.58.16h.17a1.85,1.85,0,0,0,.75-.21,5.86,5.86,0,0,0,.6-.41Z" style="fill:#423c25"/><path d="M87.08,62.35l1.23-.25,1.49,4.29,1.56-4,1.06.34-3.14,7.87-1-.51.87-2.35Z" style="fill:#423c25"/><path d="M102,68.88,102,67.55a1.75,1.75,0,0,1-.94.92,2.31,2.31,0,0,1-.76.14,2,2,0,0,1-.42,0,1.61,1.61,0,0,1-1-.61,2.77,2.77,0,0,1-.51-1.13,17,17,0,0,1-.07-2.11c0-.66,0-1.48,0-2.44l1.11,0c0,.75,0,1.41,0,2a20.91,20.91,0,0,0,.06,2.22,1.11,1.11,0,0,0,.37.7,1,1,0,0,0,.7.24h0a.92.92,0,0,0,.65-.22,2.18,2.18,0,0,0,.45-.57,3.89,3.89,0,0,0,.21-1.43l.06-2.49,1.14-.07.09,6.11Z" style="fill:#423c25"/><path d="M104.25,66.47l1.11-.21c.06.57.28.89.66,1a3.05,3.05,0,0,0,.7.09l.29,0a.9.9,0,0,0,.59-.25.94.94,0,0,0,.19-.35v-.06a.46.46,0,0,0-.09-.27,1.2,1.2,0,0,0-.29-.26,5.51,5.51,0,0,0-1-.35,9.58,9.58,0,0,1-1.2-.4,1.46,1.46,0,0,1-.59-.43,1.14,1.14,0,0,1-.24-.71v-.08a1.66,1.66,0,0,1,.16-.73,1.45,1.45,0,0,1,.66-.63,2.76,2.76,0,0,1,1-.31l.4,0a3.07,3.07,0,0,1,.53,0,2.43,2.43,0,0,1,.9.36,2.24,2.24,0,0,1,.72,1.37l-1,.14c-.14-.48-.32-.76-.55-.83a1.82,1.82,0,0,0-.56-.09h-.11a1.08,1.08,0,0,0-.57.19.6.6,0,0,0-.26.42v0a.43.43,0,0,0,.15.34,2.94,2.94,0,0,0,1,.34,6.45,6.45,0,0,1,1.37.47,1.4,1.4,0,0,1,.71.62,1.87,1.87,0,0,1,.14.76v0a1.48,1.48,0,0,1-.23.79,1.72,1.72,0,0,1-.76.61,3,3,0,0,1-1.28.27h-.09a3.63,3.63,0,0,1-1.1-.13,1.93,1.93,0,0,1-.75-.45A2.27,2.27,0,0,1,104.25,66.47Z" style="fill:#423c25"/><path d="M111.23,65.85a2.14,2.14,0,0,0,.41,1.34,1.38,1.38,0,0,0,.91.39h.14a1.36,1.36,0,0,0,.79-.22,1.58,1.58,0,0,0,.57-1l1.17.22a3.43,3.43,0,0,1-.65,1.26,1.9,1.9,0,0,1-1.19.65,4.34,4.34,0,0,1-.71.06,3.38,3.38,0,0,1-.72-.07,2.22,2.22,0,0,1-1.19-.68,2.62,2.62,0,0,1-.66-1.25,4.55,4.55,0,0,1-.12-1c0-.12,0-.24,0-.37a3.24,3.24,0,0,1,.36-1.32,2.17,2.17,0,0,1,.78-.9,3,3,0,0,1,1-.39,3.7,3.7,0,0,1,.6,0l.59,0a2,2,0,0,1,1.29.79,4,4,0,0,1,.59,2.46Zm2.71-.92a1.53,1.53,0,0,0-.38-1,1.2,1.2,0,0,0-.94-.42,1.27,1.27,0,0,0-1,.4,1.39,1.39,0,0,0-.41,1Z" style="fill:#423c25"/><path d="M121.11,62.21H122V60.54l1.17-.16v1.77l1.53,0v1l-1.53,0v3.5a1.06,1.06,0,0,0,.11.57.4.4,0,0,0,.34.14,4.69,4.69,0,0,0,.93-.2l.15,1a7.26,7.26,0,0,1-1.39.22,1.77,1.77,0,0,1-1-.37,1.64,1.64,0,0,1-.3-1V63.17h-.93Z" style="fill:#423c25"/><path d="M127,60.59V63.5a1.77,1.77,0,0,1,1-.92,2.21,2.21,0,0,1,.75-.14,2,2,0,0,1,.43.05,1.61,1.61,0,0,1,.95.61,2.7,2.7,0,0,1,.51,1.13,12.58,12.58,0,0,1,.07,1.79c0,.72,0,1.64,0,2.76l-1.1,0c0-1,0-1.75,0-2.38,0-1,0-1.62-.05-1.81a1.16,1.16,0,0,0-.37-.7,1.07,1.07,0,0,0-.71-.24h0a.94.94,0,0,0-.66.22,2.16,2.16,0,0,0-.44.57,3.74,3.74,0,0,0-.23,1.42L127,68.36l-1.1,0-.1-7.67Z" style="fill:#423c25"/><path d="M133,65.85a2.14,2.14,0,0,0,.41,1.34,1.38,1.38,0,0,0,.91.39h.14a1.36,1.36,0,0,0,.79-.22,1.58,1.58,0,0,0,.57-1l1.17.22a3.43,3.43,0,0,1-.65,1.26,1.9,1.9,0,0,1-1.18.65,4.56,4.56,0,0,1-.72.06,3.38,3.38,0,0,1-.72-.07,2.22,2.22,0,0,1-1.19-.68,2.62,2.62,0,0,1-.66-1.25,4.55,4.55,0,0,1-.12-1c0-.12,0-.24,0-.37a3.24,3.24,0,0,1,.36-1.32,2.17,2.17,0,0,1,.78-.9,3.13,3.13,0,0,1,1-.39,3.7,3.7,0,0,1,.6,0l.6,0a2,2,0,0,1,1.28.79,4,4,0,0,1,.59,2.46Zm2.71-.92a1.53,1.53,0,0,0-.38-1,1.2,1.2,0,0,0-.94-.42,1.29,1.29,0,0,0-1,.4,1.39,1.39,0,0,0-.41,1Z" style="fill:#423c25"/><path d="M13.93,80.8a3.75,3.75,0,0,1,0-4.39,2.48,2.48,0,0,1,2-.87,2.47,2.47,0,0,1,2,.87,3.75,3.75,0,0,1,0,4.39,2.47,2.47,0,0,1-2,.87A2.48,2.48,0,0,1,13.93,80.8Zm3.18-.75a2.79,2.79,0,0,0,0-2.81,1.43,1.43,0,0,0-2.4,0,2.79,2.79,0,0,0,0,2.81,1.43,1.43,0,0,0,2.4,0Z" style="fill:#423c25"/><path d="M19.67,75.11h.93V73.45l1.17-.16v1.77l1.53,0v1l-1.53,0v3.5a1,1,0,0,0,.11.56.36.36,0,0,0,.33.15,4.42,4.42,0,0,0,.93-.2l.16,1a6.53,6.53,0,0,1-1.39.22,1.83,1.83,0,0,1-1-.36,1.55,1.55,0,0,1-.3-1V76.08h-.93Z" style="fill:#423c25"/><path d="M25.55,73.5v2.91a1.73,1.73,0,0,1,.95-.92,2.21,2.21,0,0,1,.75-.14,2,2,0,0,1,.43.05,1.61,1.61,0,0,1,.95.61,2.77,2.77,0,0,1,.51,1.13,12.58,12.58,0,0,1,.07,1.79c0,.72,0,1.64,0,2.76l-1.1,0c0-1,0-1.75,0-2.38a14.22,14.22,0,0,0-.06-1.8,1.1,1.1,0,0,0-.36-.7,1.07,1.07,0,0,0-.71-.24h0a.92.92,0,0,0-.66.22,2,2,0,0,0-.44.57,3.51,3.51,0,0,0-.23,1.42l-.06,2.52-1.1,0-.1-7.67Z" style="fill:#423c25"/><path d="M31.51,78.76a2.16,2.16,0,0,0,.41,1.34,1.43,1.43,0,0,0,.91.39H33a1.36,1.36,0,0,0,.79-.22,1.61,1.61,0,0,0,.57-1l1.17.22a3.43,3.43,0,0,1-.65,1.26,1.89,1.89,0,0,1-1.19.64,3.51,3.51,0,0,1-.72.07,4.17,4.17,0,0,1-.71-.07A2.22,2.22,0,0,1,31,80.76a2.62,2.62,0,0,1-.66-1.25,4.55,4.55,0,0,1-.12-1c0-.12,0-.25,0-.37a3.24,3.24,0,0,1,.36-1.32,2.17,2.17,0,0,1,.78-.9,3,3,0,0,1,1-.39,3.7,3.7,0,0,1,.6,0l.59,0a1.93,1.93,0,0,1,1.29.79,4,4,0,0,1,.59,2.46Zm2.71-.92a1.65,1.65,0,0,0-.38-1,1.2,1.2,0,0,0-.94-.42,1.31,1.31,0,0,0-1,.4,1.39,1.39,0,0,0-.41,1Z" style="fill:#423c25"/><path d="M40.07,76.77a1.52,1.52,0,0,0-.79-.25h-.12a1.31,1.31,0,0,0-.68.24,1.87,1.87,0,0,0-.44.52,3.36,3.36,0,0,0-.23,1.4l-.06,2.52-1.1,0-.1-6.09L37.7,75l0,1.32a1.85,1.85,0,0,1,1-.94,1.53,1.53,0,0,1,.54-.09,3.09,3.09,0,0,1,1.12.25Z" style="fill:#423c25"/><path d="M43.23,79.38l1.12-.21c.06.56.27.89.65,1a3.14,3.14,0,0,0,.71.09,1.27,1.27,0,0,0,.28,0,.88.88,0,0,0,.59-.24.72.72,0,0,0,.19-.35s0-.05,0-.07a.44.44,0,0,0-.1-.26,1.2,1.2,0,0,0-.29-.26,5.28,5.28,0,0,0-1-.35,10.51,10.51,0,0,1-1.21-.4,1.53,1.53,0,0,1-.59-.43,1.28,1.28,0,0,1-.24-.71v-.08a1.81,1.81,0,0,1,.16-.73,1.45,1.45,0,0,1,.66-.63,2.75,2.75,0,0,1,1-.31l.39,0a4.9,4.9,0,0,1,.54,0,2.3,2.3,0,0,1,.9.37,2.19,2.19,0,0,1,.71,1.37l-1,.13c-.14-.47-.32-.75-.54-.82a1.87,1.87,0,0,0-.56-.09h-.11a1,1,0,0,0-.57.19.6.6,0,0,0-.27.41V77a.44.44,0,0,0,.16.34,2.69,2.69,0,0,0,.95.33,6.84,6.84,0,0,1,1.37.47,1.39,1.39,0,0,1,.72.63,2.06,2.06,0,0,1,.14.76h0a1.56,1.56,0,0,1-.24.79,1.74,1.74,0,0,1-.76.62,2.92,2.92,0,0,1-1.28.26h-.08a3.59,3.59,0,0,1-1.1-.13,1.86,1.86,0,0,1-.75-.45A2.37,2.37,0,0,1,43.23,79.38Z" style="fill:#423c25"/><path d="M50.15,73.86a.65.65,0,0,1,0,1,.73.73,0,0,1-1,0,.68.68,0,0,1,0-1,.73.73,0,0,1,1,0Zm-1.09,1.82,1.17-.06-.1,5.84h-1Z" style="fill:#423c25"/><path d="M55.55,81.43l0-1a1.76,1.76,0,0,1-.74.69,2.32,2.32,0,0,1-1.08.24,2.19,2.19,0,0,1-1.2-.39,2.09,2.09,0,0,1-.83-1.08,4.66,4.66,0,0,1-.25-1.42v-.07A5.45,5.45,0,0,1,51.64,77a2.32,2.32,0,0,1,.84-1.26,1.86,1.86,0,0,1,1.12-.31,3,3,0,0,1,.5,0,1.68,1.68,0,0,1,1.42,1.06l-.05-2.88h1.19v7.81Zm-2.93-3A2.49,2.49,0,0,0,53,79.82a1.18,1.18,0,0,0,1,.62,1.3,1.3,0,0,0,1.1-.56,2.27,2.27,0,0,0,.37-1.33v-.07c0-1.31-.48-2-1.38-2a1.25,1.25,0,0,0-1.1.61,2.39,2.39,0,0,0-.35,1.31Z" style="fill:#423c25"/><path d="M59,78.76a2.16,2.16,0,0,0,.41,1.34,1.43,1.43,0,0,0,.91.39h.14a1.36,1.36,0,0,0,.79-.22,1.61,1.61,0,0,0,.57-1l1.17.22a3.43,3.43,0,0,1-.65,1.26,1.89,1.89,0,0,1-1.19.64,3.51,3.51,0,0,1-.72.07,4.17,4.17,0,0,1-.71-.07,2.22,2.22,0,0,1-1.19-.68,2.62,2.62,0,0,1-.66-1.25,4.55,4.55,0,0,1-.12-1c0-.12,0-.25,0-.37a3.24,3.24,0,0,1,.36-1.32,2.17,2.17,0,0,1,.78-.9,3,3,0,0,1,1-.39,3.7,3.7,0,0,1,.6,0l.59,0a1.93,1.93,0,0,1,1.29.79,4,4,0,0,1,.59,2.46Zm2.71-.92a1.65,1.65,0,0,0-.38-1,1.2,1.2,0,0,0-.94-.42,1.31,1.31,0,0,0-1,.4,1.39,1.39,0,0,0-.41,1Z" style="fill:#423c25"/><path d="M66.5,76.36a2.23,2.23,0,0,1,1.15-.6,3,3,0,0,1,.68-.08,3.79,3.79,0,0,1,.86.1,1.43,1.43,0,0,1,1.08,1.13,8.08,8.08,0,0,1,.15,1.79c0,.4,0,.85,0,1.35v0c0,.28.11.42.34.42a1.05,1.05,0,0,0,.41-.1l.09,1a3.08,3.08,0,0,1-.74.11,1.05,1.05,0,0,1-1-.56,2.66,2.66,0,0,1-1,.58,2.8,2.8,0,0,1-.88.13h0a2.14,2.14,0,0,1-.84-.17,1.52,1.52,0,0,1-.65-.48,1.41,1.41,0,0,1-.28-.77.91.91,0,0,1,0-.17,2.24,2.24,0,0,1,.15-.78,1.67,1.67,0,0,1,.91-.86,7.88,7.88,0,0,1,2.5-.52,1.5,1.5,0,0,0-.19-.92,1.21,1.21,0,0,0-.74-.24h-.19a1.34,1.34,0,0,0-.7.16,1,1,0,0,0-.4.81L66,77.57A1.82,1.82,0,0,1,66.5,76.36Zm2.87,2.48a4.76,4.76,0,0,0-1.9.41A.87.87,0,0,0,67,80,.43.43,0,0,1,67,80a.64.64,0,0,0,.27.58,1,1,0,0,0,.59.16H68a1.85,1.85,0,0,0,.75-.21,5.86,5.86,0,0,0,.6-.41Z" style="fill:#423c25"/><path d="M72.27,79.38l1.12-.21c0,.56.27.89.65,1a3.07,3.07,0,0,0,.71.09,1.33,1.33,0,0,0,.28,0,.9.9,0,0,0,.59-.24.81.81,0,0,0,.19-.35v-.07a.43.43,0,0,0-.09-.26,1.2,1.2,0,0,0-.29-.26,5.28,5.28,0,0,0-1-.35,9.87,9.87,0,0,1-1.21-.4,1.46,1.46,0,0,1-.59-.43,1.14,1.14,0,0,1-.24-.71v-.08a1.66,1.66,0,0,1,.16-.73,1.45,1.45,0,0,1,.66-.63,2.76,2.76,0,0,1,1-.31l.4,0a4.55,4.55,0,0,1,.53,0,1.85,1.85,0,0,1,1.62,1.74l-1,.13c-.14-.47-.32-.75-.55-.82a1.77,1.77,0,0,0-.56-.09h-.11a1,1,0,0,0-.57.19.59.59,0,0,0-.26.41V77a.43.43,0,0,0,.15.34,2.87,2.87,0,0,0,1,.33,6.84,6.84,0,0,1,1.37.47,1.44,1.44,0,0,1,.72.63,2.06,2.06,0,0,1,.13.76h0a1.46,1.46,0,0,1-.23.79A1.74,1.74,0,0,1,76,81a2.92,2.92,0,0,1-1.28.26h-.09a3.56,3.56,0,0,1-1.09-.13,1.9,1.9,0,0,1-.76-.45A2.38,2.38,0,0,1,72.27,79.38Z" style="fill:#423c25"/><path d="M80.5,76.36a2.23,2.23,0,0,1,1.15-.6,3,3,0,0,1,.68-.08,3.79,3.79,0,0,1,.86.1,1.43,1.43,0,0,1,1.08,1.13,8.08,8.08,0,0,1,.15,1.79c0,.4,0,.85,0,1.35v0c0,.28.11.42.34.42a1.05,1.05,0,0,0,.41-.1l.09,1a3.08,3.08,0,0,1-.74.11,1.05,1.05,0,0,1-1-.56,2.66,2.66,0,0,1-1,.58,2.8,2.8,0,0,1-.88.13h0a2.14,2.14,0,0,1-.84-.17,1.52,1.52,0,0,1-.65-.48,1.41,1.41,0,0,1-.28-.77.91.91,0,0,1,0-.17,2.24,2.24,0,0,1,.15-.78,1.67,1.67,0,0,1,.91-.86,7.88,7.88,0,0,1,2.5-.52,1.5,1.5,0,0,0-.19-.92,1.21,1.21,0,0,0-.74-.24h-.19a1.34,1.34,0,0,0-.7.16,1,1,0,0,0-.4.81L80,77.57A1.82,1.82,0,0,1,80.5,76.36Zm2.87,2.48a4.76,4.76,0,0,0-1.9.41A.87.87,0,0,0,81,80,.43.43,0,0,1,81,80a.64.64,0,0,0,.27.58,1,1,0,0,0,.59.16H82a1.85,1.85,0,0,0,.75-.21,5.86,5.86,0,0,0,.6-.41Z" style="fill:#423c25"/><path d="M89.21,75.18l.05,1.33a1.75,1.75,0,0,1,.95-.91,2.08,2.08,0,0,1,.76-.14,2,2,0,0,1,.42,0,1.65,1.65,0,0,1,1,.62,2.59,2.59,0,0,1,.5,1.12,12.66,12.66,0,0,1,.07,1.8c0,.72,0,1.63,0,2.75l-1.1,0c0-1,0-1.75,0-2.38,0-1,0-1.62,0-1.81a1,1,0,0,0-1.08-.94h0a1,1,0,0,0-.66.22,2.26,2.26,0,0,0-.44.58,3.54,3.54,0,0,0-.22,1.41l-.07,2.53-1.1,0-.09-6.09Z" style="fill:#423c25"/><path d="M95.22,78.76a2.15,2.15,0,0,0,.42,1.34,1.38,1.38,0,0,0,.9.39h.14a1.36,1.36,0,0,0,.79-.22,1.61,1.61,0,0,0,.57-1l1.18.22a3.6,3.6,0,0,1-.66,1.26,1.86,1.86,0,0,1-1.18.64,3.65,3.65,0,0,1-.72.07,4.18,4.18,0,0,1-.72-.07,2.26,2.26,0,0,1-1.19-.68,2.62,2.62,0,0,1-.66-1.25,4.55,4.55,0,0,1-.12-1c0-.12,0-.25,0-.37a3.59,3.59,0,0,1,.36-1.32,2.17,2.17,0,0,1,.78-.9,3.19,3.19,0,0,1,1-.39,3.54,3.54,0,0,1,.6,0l.59,0a1.89,1.89,0,0,1,1.28.79,4,4,0,0,1,.59,2.46Zm2.71-.92a1.53,1.53,0,0,0-.38-1,1.2,1.2,0,0,0-.94-.42,1.33,1.33,0,0,0-1,.4,1.44,1.44,0,0,0-.41,1Z" style="fill:#423c25"/><path d="M100.27,75.64l1.19-.26,1.2,4.41h0l1-4.15,1.34,0,.89,4h0l1.13-4.53,1.14.32-1.69,5.72-1.2-.11-1-3.65h0l-1.07,3.81-1.29.16Z" style="fill:#423c25"/><path d="M111.11,81.59V73.78h1.19l-.05,2.88a1.71,1.71,0,0,1,1.42-1.07l.5,0a1.86,1.86,0,0,1,1.12.31,2.25,2.25,0,0,1,.83,1.26,5.07,5.07,0,0,1,.24,1.48v.07a5,5,0,0,1-.25,1.42,2.09,2.09,0,0,1-.83,1.08,2.19,2.19,0,0,1-1.2.39,2.35,2.35,0,0,1-1.08-.24,1.71,1.71,0,0,1-.74-.69l0,1Zm4-3v0a2.37,2.37,0,0,0-.35-1.31,1.25,1.25,0,0,0-1.1-.61c-.9,0-1.36.66-1.38,2v.07a2.22,2.22,0,0,0,.37,1.33,1.29,1.29,0,0,0,1.1.55,1.17,1.17,0,0,0,1-.61A2.49,2.49,0,0,0,115.14,78.64Z" style="fill:#423c25"/><path d="M117.4,73.52l1.17.06v7.83l-1.12,0Z" style="fill:#423c25"/><path d="M120.32,76.36a2.23,2.23,0,0,1,1.15-.6,3,3,0,0,1,.68-.08,3.79,3.79,0,0,1,.86.1,1.43,1.43,0,0,1,1.08,1.13,8,8,0,0,1,.16,1.79c0,.4,0,.85,0,1.35v0c0,.28.11.42.34.42a1.05,1.05,0,0,0,.41-.1l.09,1a3.08,3.08,0,0,1-.74.11,1.06,1.06,0,0,1-1-.56,2.72,2.72,0,0,1-.94.58,2.9,2.9,0,0,1-.89.13h0a2.14,2.14,0,0,1-.84-.17,1.52,1.52,0,0,1-.65-.48,1.49,1.49,0,0,1-.28-.77.91.91,0,0,1,0-.17,2.24,2.24,0,0,1,.15-.78,1.67,1.67,0,0,1,.91-.86,7.88,7.88,0,0,1,2.5-.52A1.43,1.43,0,0,0,123,77a1.18,1.18,0,0,0-.74-.24h-.19a1.34,1.34,0,0,0-.7.16,1,1,0,0,0-.4.81l-1.12-.14A1.82,1.82,0,0,1,120.32,76.36Zm2.87,2.48a4.81,4.81,0,0,0-1.9.41.87.87,0,0,0-.46.71V80a.66.66,0,0,0,.26.58,1,1,0,0,0,.59.16h.16a1.86,1.86,0,0,0,.76-.21,7.17,7.17,0,0,0,.59-.41Z" style="fill:#423c25"/><path d="M127.23,75.18l.06,1.33a1.68,1.68,0,0,1,1-.91,2.13,2.13,0,0,1,1.17-.1,1.62,1.62,0,0,1,1,.62,2.59,2.59,0,0,1,.5,1.12A12.05,12.05,0,0,1,131,79c0,.72,0,1.63,0,2.75l-1.11,0c0-1,0-1.75,0-2.38a15.34,15.34,0,0,0,0-1.81,1,1,0,0,0-1.08-.94h0a1,1,0,0,0-.65.22,2.08,2.08,0,0,0-.45.58,3.54,3.54,0,0,0-.22,1.41l-.06,2.53-1.11,0-.09-6.09Z" style="fill:#423c25"/><path d="M132,73.73l1.17-.1.05,4.47,2.27-2.36,1.19.27-2.18,2.2,2.44,3.36-1.29.16-2-2.81-.47.5v2l-1.17.11Z" style="fill:#423c25"/><path d="M16.37,89.28a1.8,1.8,0,0,0-.58-.11,1.39,1.39,0,0,0-.3,0,1.3,1.3,0,0,0-.72.47,1.83,1.83,0,0,0-.39,1,4.36,4.36,0,0,0,0,.51,2.93,2.93,0,0,0,.06.61,1.78,1.78,0,0,0,.43.88,1.28,1.28,0,0,0,.84.39h.12a1.44,1.44,0,0,0,.78-.22,1.22,1.22,0,0,0,.49-1l1.11.22a2.36,2.36,0,0,1-.57,1.26,1.94,1.94,0,0,1-1.17.64,3.21,3.21,0,0,1-.68.07,3.82,3.82,0,0,1-.68-.07A2.15,2.15,0,0,1,14,93.43a2.4,2.4,0,0,1-.62-1.14,4.17,4.17,0,0,1-.17-1.16c0-.11,0-.21,0-.31a3.63,3.63,0,0,1,.35-1.34,2,2,0,0,1,.74-.9,2.42,2.42,0,0,1,.91-.39,3.27,3.27,0,0,1,.57,0l.52,0a2.22,2.22,0,0,1,1.17.53,2,2,0,0,1,.64,1.35L17,90.23A1.28,1.28,0,0,0,16.37,89.28Z" style="fill:#423c25"/><path d="M19.93,89.27a2.24,2.24,0,0,1,1.15-.61,3,3,0,0,1,.68-.07,3.79,3.79,0,0,1,.86.1,1.43,1.43,0,0,1,1.08,1.12,8.14,8.14,0,0,1,.15,1.79c0,.4,0,.85,0,1.35v0c0,.28.11.42.34.42a1.05,1.05,0,0,0,.41-.1l.09,1a3,3,0,0,1-.74.1,1.06,1.06,0,0,1-1-.55,2.81,2.81,0,0,1-.95.58,3.12,3.12,0,0,1-.88.13h0a2.14,2.14,0,0,1-.84-.17,1.6,1.6,0,0,1-.65-.48,1.49,1.49,0,0,1-.28-.77.91.91,0,0,1,0-.17,2.24,2.24,0,0,1,.15-.78,1.64,1.64,0,0,1,.91-.86,7.6,7.6,0,0,1,2.5-.52,1.5,1.5,0,0,0-.19-.92,1.07,1.07,0,0,0-.74-.24h-.19a1.45,1.45,0,0,0-.7.15,1,1,0,0,0-.4.82l-1.12-.14A1.82,1.82,0,0,1,19.93,89.27Zm2.87,2.48a4.81,4.81,0,0,0-1.9.41.84.84,0,0,0-.46.71.43.43,0,0,1,0,0,.64.64,0,0,0,.27.58,1.08,1.08,0,0,0,.59.16h.16a1.86,1.86,0,0,0,.76-.21A7.17,7.17,0,0,0,22.8,93Z" style="fill:#423c25"/><path d="M29.22,89.68a1.55,1.55,0,0,0-.8-.25H28.3a1.27,1.27,0,0,0-.67.24,1.92,1.92,0,0,0-.45.52A3.38,3.38,0,0,0,27,91.59l-.06,2.53-1.11,0-.09-6.09,1.14-.13.06,1.33a1.85,1.85,0,0,1,1-.94,1.44,1.44,0,0,1,.53-.09,3.33,3.33,0,0,1,1.13.24Z" style="fill:#423c25"/><path d="M34.72,94.34l0-1a1.76,1.76,0,0,1-.74.69,2.38,2.38,0,0,1-1.08.24,2.19,2.19,0,0,1-1.2-.39,2.09,2.09,0,0,1-.83-1.08,4.66,4.66,0,0,1-.25-1.42v-.07a5.4,5.4,0,0,1,.23-1.48,2.32,2.32,0,0,1,.84-1.26,1.86,1.86,0,0,1,1.12-.31l.5,0a1.68,1.68,0,0,1,1.41,1.07l0-2.88h1.19v7.81Zm-2.93-3a2.49,2.49,0,0,0,.36,1.34,1.17,1.17,0,0,0,1,.61,1.29,1.29,0,0,0,1.1-.55,2.3,2.3,0,0,0,.37-1.33v-.07c0-1.31-.48-2-1.38-2a1.24,1.24,0,0,0-1.1.61,2.29,2.29,0,0,0-.35,1.31Z" style="fill:#423c25"/><path d="M38.07,92.65a.68.68,0,0,1,0,1,.69.69,0,0,1-.5.19.69.69,0,0,1-.49-.19.68.68,0,0,1,0-1,.69.69,0,0,1,.49-.19A.69.69,0,0,1,38.07,92.65Z" style="fill:#423c25"/><path d="M44.42,86.12,50.11,86v1.16l-2.12,0v6.57H46.75V87.22l-2.33.06Z" style="fill:#423c25"/><path d="M52.36,86.41v2.9a1.75,1.75,0,0,1,1-.91,2.3,2.3,0,0,1,.75-.14,1.54,1.54,0,0,1,.43,0,1.59,1.59,0,0,1,1,.61A2.65,2.65,0,0,1,56,90a12.75,12.75,0,0,1,.07,1.8c0,.72,0,1.64,0,2.75l-1.1,0c0-1,0-1.75,0-2.38a18,18,0,0,0,0-1.8,1.13,1.13,0,0,0-.37-.7,1.07,1.07,0,0,0-.71-.24h0a1,1,0,0,0-.66.22,2.16,2.16,0,0,0-.44.57,3.56,3.56,0,0,0-.22,1.42l-.07,2.52-1.1,0-.09-7.66Z" style="fill:#423c25"/><path d="M58.32,91.67A2.1,2.1,0,0,0,58.74,93a1.35,1.35,0,0,0,.9.4h.14a1.36,1.36,0,0,0,.79-.22,1.64,1.64,0,0,0,.57-1l1.17.23a3.43,3.43,0,0,1-.65,1.26,1.86,1.86,0,0,1-1.18.64,4.56,4.56,0,0,1-.72.06,4.2,4.2,0,0,1-.72-.06,2.24,2.24,0,0,1-1.19-.69,2.59,2.59,0,0,1-.66-1.24,4.55,4.55,0,0,1-.12-1c0-.12,0-.25,0-.37a3.24,3.24,0,0,1,.36-1.32,2.05,2.05,0,0,1,.78-.9,2.68,2.68,0,0,1,1-.39,3.42,3.42,0,0,1,.59-.05l.6,0a2,2,0,0,1,1.28.8,4,4,0,0,1,.59,2.46ZM61,90.75a1.59,1.59,0,0,0-.38-1,1.2,1.2,0,0,0-.94-.42,1.29,1.29,0,0,0-1,.4,1.44,1.44,0,0,0-.41,1Z" style="fill:#423c25"/><path d="M72.6,94.34l0-1a1.82,1.82,0,0,1-.74.69,2.38,2.38,0,0,1-1.08.24,2.14,2.14,0,0,1-1.2-.39,2,2,0,0,1-.83-1.08,4.66,4.66,0,0,1-.25-1.42s0-.05,0-.07a5.07,5.07,0,0,1,.24-1.48,2.21,2.21,0,0,1,.84-1.26,1.84,1.84,0,0,1,1.11-.31l.51,0a1.69,1.69,0,0,1,1.41,1.07l0-2.88h1.2v7.81Zm-2.93-3A2.49,2.49,0,0,0,70,92.73a1.18,1.18,0,0,0,1,.61,1.27,1.27,0,0,0,1.1-.55,2.22,2.22,0,0,0,.37-1.33v-.07c0-1.31-.48-2-1.37-2A1.23,1.23,0,0,0,70,90a2.29,2.29,0,0,0-.36,1.31Z" style="fill:#423c25"/><path d="M76,91.67A2.1,2.1,0,0,0,76.43,93a1.35,1.35,0,0,0,.9.4h.14a1.34,1.34,0,0,0,.79-.22,1.7,1.7,0,0,0,.58-1l1.17.23a3.76,3.76,0,0,1-.65,1.26,1.91,1.91,0,0,1-1.19.64,4.56,4.56,0,0,1-.72.06,4.17,4.17,0,0,1-.71-.06,2.2,2.2,0,0,1-1.19-.69,2.61,2.61,0,0,1-.67-1.24,4.54,4.54,0,0,1-.11-1c0-.12,0-.25,0-.37a3.59,3.59,0,0,1,.36-1.32,2.19,2.19,0,0,1,.78-.9,2.75,2.75,0,0,1,1-.39,3.64,3.64,0,0,1,.6-.05l.59,0a2,2,0,0,1,1.28.8,4,4,0,0,1,.6,2.46Zm2.71-.92a1.6,1.6,0,0,0-.39-1,1.2,1.2,0,0,0-.94-.42,1.3,1.3,0,0,0-1,.4,1.43,1.43,0,0,0-.4,1Z" style="fill:#423c25"/><path d="M81.76,89.27a2.21,2.21,0,0,1,1.14-.61,3.08,3.08,0,0,1,.68-.07,3.87,3.87,0,0,1,.87.1,1.4,1.4,0,0,1,1.07,1.12,7.47,7.47,0,0,1,.16,1.79c0,.4,0,.85,0,1.35v0q0,.42.33.42a1,1,0,0,0,.41-.1l.09,1a2.89,2.89,0,0,1-.73.1,1.07,1.07,0,0,1-1-.55,2.69,2.69,0,0,1-.94.58,3.12,3.12,0,0,1-.88.13h0A2.12,2.12,0,0,1,82,94.4a1.6,1.6,0,0,1-.65-.48,1.5,1.5,0,0,1-.29-.77V93a2.24,2.24,0,0,1,.15-.78,1.61,1.61,0,0,1,.91-.86,7.59,7.59,0,0,1,2.49-.52,1.43,1.43,0,0,0-.19-.92,1.05,1.05,0,0,0-.74-.24H83.5a1.43,1.43,0,0,0-.7.15,1,1,0,0,0-.4.82l-1.13-.14A1.88,1.88,0,0,1,81.76,89.27Zm2.87,2.48a4.76,4.76,0,0,0-1.9.41.84.84,0,0,0-.46.71.11.11,0,0,0,0,0,.64.64,0,0,0,.27.58,1,1,0,0,0,.58.16h.17a1.85,1.85,0,0,0,.75-.21,5.86,5.86,0,0,0,.6-.41Z" style="fill:#423c25"/><path d="M87.52,88h.93V86.36l1.17-.16V88l1.53,0v1l-1.53.06v3.49a1,1,0,0,0,.11.57.38.38,0,0,0,.34.14,4,4,0,0,0,.93-.2l.15,1a6.53,6.53,0,0,1-1.39.22,1.83,1.83,0,0,1-1-.36,1.69,1.69,0,0,1-.3-1.06V89h-.93Z" style="fill:#423c25"/><path d="M93.4,86.41v2.9a1.75,1.75,0,0,1,.95-.91,2.21,2.21,0,0,1,.75-.14,1.54,1.54,0,0,1,.43,0,1.57,1.57,0,0,1,1,.61A2.67,2.67,0,0,1,97,90a12.75,12.75,0,0,1,.07,1.8c0,.72,0,1.64,0,2.75l-1.1,0c0-1,0-1.75,0-2.38a18,18,0,0,0,0-1.8,1.13,1.13,0,0,0-.37-.7,1.07,1.07,0,0,0-.71-.24h0a.94.94,0,0,0-.66.22,2.16,2.16,0,0,0-.44.57,3.7,3.7,0,0,0-.23,1.42l-.06,2.52-1.1,0-.1-7.66Z" style="fill:#423c25"/><path d="M103.92,93.71a3.76,3.76,0,0,1,0-4.4,2.73,2.73,0,0,1,4,0,3.76,3.76,0,0,1,0,4.4,2.71,2.71,0,0,1-4,0ZM107.1,93a2.77,2.77,0,0,0,0-2.8,1.38,1.38,0,0,0-1.2-.65,1.35,1.35,0,0,0-1.2.65,2.71,2.71,0,0,0,0,2.8,1.33,1.33,0,0,0,1.2.65A1.35,1.35,0,0,0,107.1,93Z" style="fill:#423c25"/><path d="M110.64,94.5l0-5.29-1,0,0-.86h1a2.57,2.57,0,0,1,.37-1.61,1.49,1.49,0,0,1,.87-.54,1.9,1.9,0,0,1,.35,0,3.53,3.53,0,0,1,.85.12l-.14,1a1.67,1.67,0,0,0-.47-.07.79.79,0,0,0-.45.12c-.21.14-.31.44-.31.89a.66.66,0,0,0,0,.14h1.13l0,.94h-1.13V94.5Z" style="fill:#423c25"/><path d="M119.23,88h.92V86.36l1.18-.16V88l1.53,0v1l-1.53.06v3.49a1,1,0,0,0,.1.57.38.38,0,0,0,.34.14,4,4,0,0,0,.93-.2l.16,1a6.6,6.6,0,0,1-1.4.22,1.86,1.86,0,0,1-1-.36,1.69,1.69,0,0,1-.3-1.06V89h-.92Z" style="fill:#423c25"/><path d="M125.1,86.41v2.9a1.78,1.78,0,0,1,1-.91,2.31,2.31,0,0,1,.76-.14,1.51,1.51,0,0,1,.42,0,1.56,1.56,0,0,1,1,.61,2.65,2.65,0,0,1,.5,1.12,12.15,12.15,0,0,1,.08,1.8c0,.72,0,1.64-.05,2.75l-1.1,0c0-1,0-1.75,0-2.38a18,18,0,0,0,0-1.8,1.13,1.13,0,0,0-.37-.7,1.05,1.05,0,0,0-.71-.24h0a1,1,0,0,0-.66.22,2.39,2.39,0,0,0-.44.57,3.56,3.56,0,0,0-.22,1.42l-.07,2.52-1.1,0-.09-7.66Z" style="fill:#423c25"/><path d="M131,86.77a.62.62,0,0,1,.21.47.71.71,0,0,1-1.19.49.66.66,0,0,1-.2-.49.61.61,0,0,1,.2-.47.7.7,0,0,1,1,0Zm-1.09,1.81,1.17,0-.1,5.84h-1Z" style="fill:#423c25"/><path d="M132.26,92.29l1.12-.21c.05.56.27.89.65,1a3.07,3.07,0,0,0,.71.09,1.32,1.32,0,0,0,.28,0,1,1,0,0,0,.59-.24.84.84,0,0,0,.19-.36v-.06a.43.43,0,0,0-.09-.26.89.89,0,0,0-.29-.26,5.28,5.28,0,0,0-1-.35,12,12,0,0,1-1.21-.4,1.56,1.56,0,0,1-.59-.43,1.14,1.14,0,0,1-.24-.71V90a1.63,1.63,0,0,1,.16-.73,1.41,1.41,0,0,1,.66-.64,3,3,0,0,1,1-.3l.4,0a3.08,3.08,0,0,1,.53,0,2.37,2.37,0,0,1,.9.36,2.28,2.28,0,0,1,.72,1.37l-1.05.14c-.14-.47-.32-.75-.54-.82a1.88,1.88,0,0,0-.57-.09h-.11a1.09,1.09,0,0,0-.57.2.57.57,0,0,0-.26.41v0a.45.45,0,0,0,.15.35,2.87,2.87,0,0,0,1,.33,6.26,6.26,0,0,1,1.37.47,1.39,1.39,0,0,1,.72.63,2.06,2.06,0,0,1,.13.76h0a1.46,1.46,0,0,1-.23.79,1.74,1.74,0,0,1-.76.62,2.92,2.92,0,0,1-1.28.26h-.09a3.9,3.9,0,0,1-1.09-.13,1.9,1.9,0,0,1-.76-.45A2.38,2.38,0,0,1,132.26,92.29Z" style="fill:#423c25"/><path d="M16.37,102.19a1.58,1.58,0,0,0-.58-.12,1,1,0,0,0-.3,0,1.34,1.34,0,0,0-.72.46,1.86,1.86,0,0,0-.39,1,4.67,4.67,0,0,0,0,.52,3,3,0,0,0,.06.61,1.71,1.71,0,0,0,.43.87,1.19,1.19,0,0,0,.84.39h.12a1.44,1.44,0,0,0,.78-.22,1.24,1.24,0,0,0,.49-1l1.11.23a2.29,2.29,0,0,1-.57,1.25,1.91,1.91,0,0,1-1.17.65,4,4,0,0,1-.68.06,3.82,3.82,0,0,1-.68-.06,2.33,2.33,0,0,1-1.07-.55,2.4,2.4,0,0,1-.62-1.14,4.25,4.25,0,0,1-.17-1.17c0-.1,0-.2,0-.3a3.68,3.68,0,0,1,.35-1.35,2.07,2.07,0,0,1,.74-.89,2.42,2.42,0,0,1,.91-.39,3.27,3.27,0,0,1,.57,0l.52,0a2.15,2.15,0,0,1,1.17.53,2,2,0,0,1,.64,1.35l-1.09.18A1.28,1.28,0,0,0,16.37,102.19Z" style="fill:#423c25"/><path d="M20.43,99.32v2.9a1.71,1.71,0,0,1,.95-.91,2,2,0,0,1,.75-.14,2,2,0,0,1,.43,0,1.63,1.63,0,0,1,1,.62A2.73,2.73,0,0,1,24,103a12.66,12.66,0,0,1,.07,1.8c0,.72,0,1.63,0,2.75l-1.1,0c0-1,0-1.75,0-2.38a14.31,14.31,0,0,0-.06-1.81,1.1,1.1,0,0,0-.36-.7,1.19,1.19,0,0,0-.71-.24h0a1,1,0,0,0-.66.22,1.89,1.89,0,0,0-.44.58,3.49,3.49,0,0,0-.23,1.41l-.06,2.53-1.1,0-.1-7.67Z" style="fill:#423c25"/><path d="M25.84,102.18a2.25,2.25,0,0,1,1.14-.61,3.11,3.11,0,0,1,.69-.07,3.79,3.79,0,0,1,.86.1,1.39,1.39,0,0,1,1.07,1.12,7.41,7.41,0,0,1,.16,1.79c0,.4,0,.85,0,1.35v0c0,.29.11.43.34.43a1.09,1.09,0,0,0,.41-.1l.09,1a3,3,0,0,1-.74.1,1.05,1.05,0,0,1-1-.56,2.71,2.71,0,0,1-.95.59,3.52,3.52,0,0,1-.88.13h0a2.13,2.13,0,0,1-.84-.16,1.62,1.62,0,0,1-.65-.49,1.37,1.37,0,0,1-.28-.76,1,1,0,0,1,0-.17,2.34,2.34,0,0,1,.15-.79,1.67,1.67,0,0,1,.91-.86,8.17,8.17,0,0,1,2.5-.52,1.52,1.52,0,0,0-.19-.92,1.21,1.21,0,0,0-.74-.24h-.19a1.43,1.43,0,0,0-.7.15,1,1,0,0,0-.4.81l-1.12-.14A1.82,1.82,0,0,1,25.84,102.18Zm2.87,2.48a4.81,4.81,0,0,0-1.9.4.87.87,0,0,0-.46.72.11.11,0,0,0,0,0,.67.67,0,0,0,.27.58,1,1,0,0,0,.58.15h.17a1.58,1.58,0,0,0,.75-.21,4.6,4.6,0,0,0,.6-.41Z" style="fill:#423c25"/><path d="M35.12,102.58a1.59,1.59,0,0,0-.79-.24h-.12a1.35,1.35,0,0,0-.68.25,2.08,2.08,0,0,0-.44.52,3.35,3.35,0,0,0-.22,1.39L32.8,107l-1.1,0L31.61,101l1.14-.13,0,1.33a1.86,1.86,0,0,1,1-.94,1.43,1.43,0,0,1,.53-.1,3.37,3.37,0,0,1,1.13.25Z" style="fill:#423c25"/><path d="M37.18,102.18a2.24,2.24,0,0,1,1.15-.61,3,3,0,0,1,.68-.07,3.79,3.79,0,0,1,.86.1A1.39,1.39,0,0,1,41,102.72a8,8,0,0,1,.16,1.79c0,.4,0,.85,0,1.35v0c0,.29.11.43.33.43a1.05,1.05,0,0,0,.41-.1l.09,1a3,3,0,0,1-.73.1,1.07,1.07,0,0,1-1-.56,2.68,2.68,0,0,1-.94.59,3.61,3.61,0,0,1-.89.13h0a2,2,0,0,1-.83-.16,1.59,1.59,0,0,1-.66-.49,1.46,1.46,0,0,1-.28-.76v-.17a2.31,2.31,0,0,1,.14-.79,1.7,1.7,0,0,1,.92-.86,8,8,0,0,1,2.49-.52,1.45,1.45,0,0,0-.19-.92,1.16,1.16,0,0,0-.74-.24h-.19a1.48,1.48,0,0,0-.7.15,1,1,0,0,0-.4.81l-1.12-.14A1.92,1.92,0,0,1,37.18,102.18Zm2.88,2.48a4.88,4.88,0,0,0-1.91.4.89.89,0,0,0-.46.72v0a.67.67,0,0,0,.27.58,1,1,0,0,0,.58.15h.17a1.58,1.58,0,0,0,.75-.21,4.6,4.6,0,0,0,.6-.41Z" style="fill:#423c25"/><path d="M46.1,102.19a1.63,1.63,0,0,0-.59-.12,1,1,0,0,0-.3,0,1.35,1.35,0,0,0-.71.46,1.78,1.78,0,0,0-.39,1,4.67,4.67,0,0,0,0,.52,3,3,0,0,0,.06.61,1.63,1.63,0,0,0,.43.87,1.19,1.19,0,0,0,.83.39h.12a1.45,1.45,0,0,0,.79-.22,1.24,1.24,0,0,0,.49-1l1.11.23a2.29,2.29,0,0,1-.57,1.25,1.93,1.93,0,0,1-1.17.65,4.08,4.08,0,0,1-.68.06,3.74,3.74,0,0,1-.68-.06,2.28,2.28,0,0,1-1.07-.55,2.5,2.5,0,0,1-.63-1.14A4.23,4.23,0,0,1,43,104c0-.1,0-.2,0-.3a3.68,3.68,0,0,1,.35-1.35,2.13,2.13,0,0,1,.73-.89,2.53,2.53,0,0,1,.92-.39,3.27,3.27,0,0,1,.57,0l.52,0a2.09,2.09,0,0,1,1.16.53,2,2,0,0,1,.65,1.35l-1.1.18A1.27,1.27,0,0,0,46.1,102.19Z" style="fill:#423c25"/><path d="M49,100.93h.92V99.26l1.18-.15v1.77l1.53-.06v1l-1.53,0v3.5a1.09,1.09,0,0,0,.1.57.4.4,0,0,0,.34.14,4.42,4.42,0,0,0,.93-.2l.16,1a6.51,6.51,0,0,1-1.4.22,1.86,1.86,0,0,1-1-.36,1.69,1.69,0,0,1-.3-1.06V101.9H49Z" style="fill:#423c25"/><path d="M54.89,104.57a2.14,2.14,0,0,0,.41,1.34,1.32,1.32,0,0,0,.91.39h.13a1.45,1.45,0,0,0,.8-.22,1.64,1.64,0,0,0,.57-1l1.17.23a3.45,3.45,0,0,1-.65,1.25,1.9,1.9,0,0,1-1.19.65,4.56,4.56,0,0,1-.72.06,3.35,3.35,0,0,1-.71-.07,2.22,2.22,0,0,1-1.19-.68,2.7,2.7,0,0,1-.67-1.24,5.25,5.25,0,0,1-.11-1,2.42,2.42,0,0,1,0-.38,3.49,3.49,0,0,1,.35-1.32,2.22,2.22,0,0,1,.78-.89,2.75,2.75,0,0,1,1-.39,3.64,3.64,0,0,1,.6,0l.59,0a2,2,0,0,1,1.29.8,4.06,4.06,0,0,1,.59,2.45Zm2.71-.91a1.62,1.62,0,0,0-.38-1,1.22,1.22,0,0,0-.94-.42,1.31,1.31,0,0,0-1,.4,1.41,1.41,0,0,0-.4,1Z" style="fill:#423c25"/><path d="M63.45,102.58a1.59,1.59,0,0,0-.79-.24h-.12a1.31,1.31,0,0,0-.68.25,1.74,1.74,0,0,0-.44.52,3.3,3.3,0,0,0-.23,1.39L61.13,107l-1.1,0-.1-6.09,1.15-.13.05,1.33a1.81,1.81,0,0,1,1-.94,1.53,1.53,0,0,1,.54-.1,3.32,3.32,0,0,1,1.12.25Z" style="fill:#423c25"/><path d="M69.5,100.53l.06,1.26a1.42,1.42,0,0,1,.82-.91,2,2,0,0,1,.65-.11,2.3,2.3,0,0,1,.45,0,2,2,0,0,1,1.15,1,2.15,2.15,0,0,1,.82-.94,2.12,2.12,0,0,1,1-.23h.11a1.46,1.46,0,0,1,1.14.63,2.34,2.34,0,0,1,.54,1.35c0,.21,0,.58,0,1.1,0,.7,0,1.67,0,2.92l-1.06-.09v-3.13a2.13,2.13,0,0,0-.39-1.26,1,1,0,0,0-.55-.28h-.06a.87.87,0,0,0-.52.23,1.41,1.41,0,0,0-.45.61,6.32,6.32,0,0,0-.22,1.6l0,1.7-1,0a25,25,0,0,0-.11-3.22,1.53,1.53,0,0,0-.38-.75.63.63,0,0,0-.49-.23h-.11a1.45,1.45,0,0,0-.61.26,1.48,1.48,0,0,0-.43.57,5.18,5.18,0,0,0-.19,1.47l-.09,2.55h-1l-.16-6.18Z" style="fill:#423c25"/><path d="M81.07,107.6,81,106.27a1.72,1.72,0,0,1-.94.92,2.27,2.27,0,0,1-.76.14,1.51,1.51,0,0,1-.42,0,1.59,1.59,0,0,1-1-.61,2.65,2.65,0,0,1-.5-1.12,16.33,16.33,0,0,1-.08-2.12q0-1,0-2.43l1.11,0c0,.76,0,1.41,0,2a21.31,21.31,0,0,0,.06,2.23,1.06,1.06,0,0,0,1.08.94h0a1,1,0,0,0,.66-.23,2.39,2.39,0,0,0,.44-.57,3.49,3.49,0,0,0,.21-1.43l.06-2.49,1.14-.07.09,6.11Z" style="fill:#423c25"/><path d="M83.27,105.19l1.12-.21c.06.57.27.89.65,1a3.14,3.14,0,0,0,.71.09l.28,0a.93.93,0,0,0,.59-.24.79.79,0,0,0,.19-.36s0,0,0-.06a.5.5,0,0,0-.1-.27,1.2,1.2,0,0,0-.29-.26,5.6,5.6,0,0,0-1-.34c-.56-.17-1-.3-1.21-.4a1.64,1.64,0,0,1-.59-.43,1.31,1.31,0,0,1-.24-.71v-.09a1.81,1.81,0,0,1,.16-.73,1.45,1.45,0,0,1,.66-.63,2.84,2.84,0,0,1,1.36-.32,3.27,3.27,0,0,1,.54,0,2.43,2.43,0,0,1,.9.36,2.19,2.19,0,0,1,.71,1.37l-1,.14c-.14-.48-.32-.75-.54-.83a1.87,1.87,0,0,0-.56-.09h-.11a1,1,0,0,0-.57.19.62.62,0,0,0-.27.42v0a.43.43,0,0,0,.16.34,2.63,2.63,0,0,0,1,.34,6.26,6.26,0,0,1,1.37.47,1.35,1.35,0,0,1,.72.63,2,2,0,0,1,.14.75v0a1.47,1.47,0,0,1-.24.79,1.81,1.81,0,0,1-.76.62,2.92,2.92,0,0,1-1.28.26H85.6a3.59,3.59,0,0,1-1.1-.13,1.66,1.66,0,0,1-.75-.45A2.34,2.34,0,0,1,83.27,105.19Z" style="fill:#423c25"/><path d="M89,100.93h.92V99.26l1.18-.15v1.77l1.52-.06v1l-1.52,0v3.5a1.09,1.09,0,0,0,.1.57.4.4,0,0,0,.34.14,4.69,4.69,0,0,0,.93-.2l.15,1a6.44,6.44,0,0,1-1.39.22,1.86,1.86,0,0,1-1-.36,1.69,1.69,0,0,1-.3-1.06V101.9H89Z" style="fill:#423c25"/><path d="M98.35,101l.06,1.33a1.7,1.7,0,0,1,1-.92,2.21,2.21,0,0,1,.75-.14,2,2,0,0,1,.42,0,1.61,1.61,0,0,1,1,.61,2.63,2.63,0,0,1,.5,1.13,12,12,0,0,1,.08,1.79c0,.72,0,1.64,0,2.75l-1.11,0c0-.95,0-1.75,0-2.38a15.24,15.24,0,0,0,0-1.8,1.16,1.16,0,0,0-.37-.7,1.05,1.05,0,0,0-.71-.24h0a.92.92,0,0,0-.65.22,2.18,2.18,0,0,0-.45.57,3.56,3.56,0,0,0-.22,1.42l-.06,2.52-1.11,0-.09-6.1Z" style="fill:#423c25"/><path d="M103.82,102.18a2.17,2.17,0,0,1,1.14-.61,3.08,3.08,0,0,1,.68-.07,3.73,3.73,0,0,1,.86.1,1.39,1.39,0,0,1,1.08,1.12,7.41,7.41,0,0,1,.16,1.79c0,.4,0,.85,0,1.35v0c0,.29.11.43.33.43a1,1,0,0,0,.41-.1l.09,1a3,3,0,0,1-.73.1,1.07,1.07,0,0,1-1-.56,2.68,2.68,0,0,1-.94.59,3.61,3.61,0,0,1-.89.13h0a2.08,2.08,0,0,1-.83-.16,1.56,1.56,0,0,1-.65-.49,1.46,1.46,0,0,1-.29-.76v-.17a2.58,2.58,0,0,1,.14-.79,1.73,1.73,0,0,1,.92-.86,8.16,8.16,0,0,1,2.49-.52,1.45,1.45,0,0,0-.19-.92,1.16,1.16,0,0,0-.74-.24h-.19a1.41,1.41,0,0,0-.69.15,1,1,0,0,0-.4.81l-1.13-.14A1.88,1.88,0,0,1,103.82,102.18Zm2.87,2.48a4.88,4.88,0,0,0-1.91.4.88.88,0,0,0-.45.72.11.11,0,0,0,0,0,.67.67,0,0,0,.27.58,1,1,0,0,0,.58.15h.17a1.58,1.58,0,0,0,.75-.21,4.6,4.6,0,0,0,.6-.41Z" style="fill:#423c25"/><path d="M109.58,100.93h.93V99.26l1.17-.15v1.77l1.53-.06v1l-1.53,0v3.5a1.06,1.06,0,0,0,.11.57.38.38,0,0,0,.33.14,4.42,4.42,0,0,0,.93-.2l.16,1a6.53,6.53,0,0,1-1.39.22,1.83,1.83,0,0,1-1-.36,1.58,1.58,0,0,1-.3-1.06V101.9h-.93Z" style="fill:#423c25"/><path d="M118,107.6l-.07-1.33a1.69,1.69,0,0,1-.94.92,2.21,2.21,0,0,1-.75.14,1.54,1.54,0,0,1-.43,0,1.57,1.57,0,0,1-1-.61,2.67,2.67,0,0,1-.51-1.12,16.33,16.33,0,0,1-.08-2.12q0-1,0-2.43l1.11,0c0,.76,0,1.41,0,2,0,1.27,0,2,0,2.23a1.06,1.06,0,0,0,1.08.94h0a1,1,0,0,0,.66-.23,2.16,2.16,0,0,0,.44-.57,3.49,3.49,0,0,0,.21-1.43l.06-2.49,1.14-.07.09,6.11Z" style="fill:#423c25"/><path d="M123.71,102.58a1.59,1.59,0,0,0-.79-.24h-.12a1.31,1.31,0,0,0-.68.25,1.74,1.74,0,0,0-.44.52,3.3,3.3,0,0,0-.23,1.39l-.06,2.53-1.1,0-.1-6.09,1.15-.13,0,1.33a1.81,1.81,0,0,1,1-.94,1.53,1.53,0,0,1,.54-.1,3.32,3.32,0,0,1,1.12.25Z" style="fill:#423c25"/><path d="M125.77,102.18a2.24,2.24,0,0,1,1.15-.61,3,3,0,0,1,.68-.07,3.79,3.79,0,0,1,.86.1,1.41,1.41,0,0,1,1.08,1.12,8.08,8.08,0,0,1,.15,1.79c0,.4,0,.85,0,1.35v0c0,.29.11.43.34.43a1.05,1.05,0,0,0,.41-.1l.09,1a3,3,0,0,1-.74.1,1.05,1.05,0,0,1-1-.56,2.71,2.71,0,0,1-1,.59,3.52,3.52,0,0,1-.88.13h0a2.13,2.13,0,0,1-.84-.16,1.62,1.62,0,0,1-.65-.49,1.37,1.37,0,0,1-.28-.76,1,1,0,0,1,0-.17,2.34,2.34,0,0,1,.15-.79,1.71,1.71,0,0,1,.91-.86,8.17,8.17,0,0,1,2.5-.52,1.52,1.52,0,0,0-.19-.92,1.21,1.21,0,0,0-.74-.24h-.19a1.43,1.43,0,0,0-.7.15,1,1,0,0,0-.4.81l-1.12-.14A1.82,1.82,0,0,1,125.77,102.18Zm2.87,2.48a4.81,4.81,0,0,0-1.9.4.87.87,0,0,0-.46.72.43.43,0,0,1,0,0,.67.67,0,0,0,.27.58,1.06,1.06,0,0,0,.58.15h.17a1.58,1.58,0,0,0,.75-.21,4.6,4.6,0,0,0,.6-.41Z" style="fill:#423c25"/><path d="M131.54,99.34l1.17,0v7.84l-1.12,0Z" style="fill:#423c25"/><path d="M133.76,103.56l3.18,0-.05,1.11-3.08,0Z" style="fill:#423c25"/><path d="M13.22,112.25l1.17,0v7.83l-1.11.06Z" style="fill:#423c25"/><path d="M15.45,114l1.22-.25,1.5,4.29,1.56-4,1.06.34-3.14,7.87-1-.51.88-2.35Z" style="fill:#423c25"/><path d="M31.08,120.31V112.5h1.19l0,2.88a1.69,1.69,0,0,1,1.41-1.07l.5,0a1.86,1.86,0,0,1,1.12.31,2.32,2.32,0,0,1,.84,1.26,5.09,5.09,0,0,1,.23,1.48v.07a4.66,4.66,0,0,1-.25,1.42,2.09,2.09,0,0,1-.83,1.08,2.14,2.14,0,0,1-1.2.39,2.38,2.38,0,0,1-1.08-.24,1.76,1.76,0,0,1-.74-.69l0,1Zm4-3v0a2.32,2.32,0,0,0-.36-1.31,1.24,1.24,0,0,0-1.1-.61c-.9,0-1.35.66-1.37,2v.07a2.27,2.27,0,0,0,.36,1.33,1.3,1.3,0,0,0,1.11.55,1.17,1.17,0,0,0,1-.61A2.41,2.41,0,0,0,35.12,117.36Z" style="fill:#423c25"/><path d="M38.62,117.48a2.13,2.13,0,0,0,.42,1.34,1.29,1.29,0,0,0,.9.39h.14a1.34,1.34,0,0,0,.79-.23,1.64,1.64,0,0,0,.58-.95l1.17.22a3.6,3.6,0,0,1-.66,1.26,1.87,1.87,0,0,1-1.18.65,4.56,4.56,0,0,1-.72.06,3.45,3.45,0,0,1-.72-.07,2.26,2.26,0,0,1-1.19-.68,2.62,2.62,0,0,1-.66-1.25,4.54,4.54,0,0,1-.11-1c0-.12,0-.24,0-.37a3.59,3.59,0,0,1,.36-1.32,2.24,2.24,0,0,1,.78-.9,2.92,2.92,0,0,1,1-.38,2.74,2.74,0,0,1,.6,0l.59,0A1.91,1.91,0,0,1,42,115a3.91,3.91,0,0,1,.59,2.45Zm2.71-.92a1.48,1.48,0,0,0-.38-1,1.2,1.2,0,0,0-.94-.42,1.3,1.3,0,0,0-1,.4,1.41,1.41,0,0,0-.41,1Z" style="fill:#423c25"/><path d="M54.08,112.58a.64.64,0,0,1,.21.48.63.63,0,0,1-.21.48.7.7,0,0,1-1,0,.62.62,0,0,1-.2-.48.63.63,0,0,1,.2-.48.73.73,0,0,1,1,0ZM53,114.4l1.17-.05-.1,5.84H53Z" style="fill:#423c25"/><path d="M56.48,113.91l.06,1.32a1.72,1.72,0,0,1,1-.91,2.21,2.21,0,0,1,.75-.14,1.51,1.51,0,0,1,.42,0,1.56,1.56,0,0,1,1,.61,2.65,2.65,0,0,1,.5,1.12,12.15,12.15,0,0,1,.08,1.8c0,.72,0,1.64,0,2.75l-1.11,0c0-1,0-1.75,0-2.38a15.46,15.46,0,0,0,0-1.81,1.08,1.08,0,0,0-.37-.69,1.11,1.11,0,0,0-.71-.25h0a.92.92,0,0,0-.65.23,2.18,2.18,0,0,0-.45.57,3.76,3.76,0,0,0-.22,1.42l-.06,2.52-1.11,0L55.34,114Z" style="fill:#423c25"/><path d="M64.39,115.1a1.54,1.54,0,0,0-.58-.12,1.53,1.53,0,0,0-.3,0,1.44,1.44,0,0,0-.72.47,1.86,1.86,0,0,0-.38,1,3.12,3.12,0,0,0,0,.52,3.08,3.08,0,0,0,.06.61,1.72,1.72,0,0,0,.44.87,1.17,1.17,0,0,0,.83.39h.12a1.48,1.48,0,0,0,.78-.22,1.25,1.25,0,0,0,.5-1l1.11.23a2.45,2.45,0,0,1-.57,1.25,2,2,0,0,1-1.18.65,4,4,0,0,1-.68.06,2.93,2.93,0,0,1-.67-.07,2.14,2.14,0,0,1-1.07-.54,2.33,2.33,0,0,1-.63-1.14,4.29,4.29,0,0,1-.16-1.17c0-.1,0-.2,0-.3a3.63,3.63,0,0,1,.34-1.35,2.25,2.25,0,0,1,.74-.9,2.64,2.64,0,0,1,.91-.38,2.67,2.67,0,0,1,.58-.05l.52,0a2.19,2.19,0,0,1,1.16.53,2,2,0,0,1,.64,1.35l-1.09.18A1.24,1.24,0,0,0,64.39,115.1Z" style="fill:#423c25"/><path d="M67.26,112.25l1.17,0v7.83l-1.12.06Z" style="fill:#423c25"/><path d="M73.21,120.51l-.07-1.33a1.75,1.75,0,0,1-.94.92,2.31,2.31,0,0,1-.76.14,2,2,0,0,1-.42,0,1.61,1.61,0,0,1-1-.61,2.63,2.63,0,0,1-.5-1.13,14.4,14.4,0,0,1-.08-2.11c0-.66,0-1.48,0-2.43l1.11,0c0,.75,0,1.41,0,2a20.91,20.91,0,0,0,.06,2.22,1.16,1.16,0,0,0,.37.7,1.05,1.05,0,0,0,.71.24h0a.92.92,0,0,0,.65-.22,2.18,2.18,0,0,0,.45-.57,3.49,3.49,0,0,0,.21-1.43l.06-2.49,1.14-.07.09,6.11Z" style="fill:#423c25"/><path d="M79.55,120.16l0-1a1.72,1.72,0,0,1-.74.7,2.45,2.45,0,0,1-1.08.23,2.26,2.26,0,0,1-1.2-.38,2.11,2.11,0,0,1-.83-1.09,4.55,4.55,0,0,1-.25-1.41v-.08a5.45,5.45,0,0,1,.23-1.48,2.29,2.29,0,0,1,.84-1.25,1.86,1.86,0,0,1,1.12-.32,3,3,0,0,1,.5,0,1.7,1.7,0,0,1,1.42,1.06l0-2.88h1.19v7.82Zm-2.93-3a2.46,2.46,0,0,0,.36,1.34,1.18,1.18,0,0,0,1,.62,1.3,1.3,0,0,0,1.1-.56,2.27,2.27,0,0,0,.37-1.33v-.07c0-1.31-.48-2-1.38-2a1.28,1.28,0,0,0-1.1.61,2.4,2.4,0,0,0-.35,1.32Z" style="fill:#423c25"/><path d="M83,117.48a2.14,2.14,0,0,0,.41,1.34,1.34,1.34,0,0,0,.91.39h.14a1.36,1.36,0,0,0,.79-.23,1.58,1.58,0,0,0,.57-.95l1.17.22a3.43,3.43,0,0,1-.65,1.26,1.9,1.9,0,0,1-1.19.65,4.37,4.37,0,0,1-.72.06,3.35,3.35,0,0,1-.71-.07,2.22,2.22,0,0,1-1.19-.68,2.62,2.62,0,0,1-.66-1.25,4.55,4.55,0,0,1-.12-1c0-.12,0-.24,0-.37a3.24,3.24,0,0,1,.36-1.32,2.17,2.17,0,0,1,.78-.9,2.79,2.79,0,0,1,1.56-.43l.59,0a2,2,0,0,1,1.29.8,4,4,0,0,1,.59,2.45Zm2.71-.92a1.59,1.59,0,0,0-.38-1,1.2,1.2,0,0,0-.94-.42,1.27,1.27,0,0,0-1,.4,1.37,1.37,0,0,0-.41,1Z" style="fill:#423c25"/><path d="M92.14,120.16l0-1a1.7,1.7,0,0,1-.73.7,2.52,2.52,0,0,1-1.08.23,2.2,2.2,0,0,1-1.2-.38,2.06,2.06,0,0,1-.83-1.09,4.27,4.27,0,0,1-.25-1.41.22.22,0,0,1,0-.08,5.12,5.12,0,0,1,.24-1.48,2.23,2.23,0,0,1,.83-1.25,1.9,1.9,0,0,1,1.12-.32,3.08,3.08,0,0,1,.51,0,1.7,1.7,0,0,1,1.41,1.06l0-2.88h1.19v7.82Zm-2.93-3a2.46,2.46,0,0,0,.36,1.34,1.19,1.19,0,0,0,1,.62,1.29,1.29,0,0,0,1.1-.56,2.2,2.2,0,0,0,.37-1.33v-.07c0-1.31-.48-2-1.37-2a1.25,1.25,0,0,0-1.1.61,2.33,2.33,0,0,0-.36,1.32Z" style="fill:#423c25"/><path d="M104.72,112.58a.64.64,0,0,1,.21.48.63.63,0,0,1-.21.48.7.7,0,0,1-.49.2.68.68,0,0,1-.49-.2.62.62,0,0,1-.2-.48.63.63,0,0,1,.2-.48.67.67,0,0,1,.49-.19A.69.69,0,0,1,104.72,112.58Zm-1.09,1.82,1.17-.05-.1,5.84h-1Z" style="fill:#423c25"/><path d="M107.12,113.91l0,1.32a1.78,1.78,0,0,1,1-.91,2.31,2.31,0,0,1,.76-.14,1.51,1.51,0,0,1,.42,0,1.56,1.56,0,0,1,1,.61,2.65,2.65,0,0,1,.5,1.12,12.15,12.15,0,0,1,.08,1.8c0,.72,0,1.64,0,2.75l-1.1,0c0-1,0-1.75,0-2.38,0-1,0-1.62,0-1.81a1.13,1.13,0,0,0-.37-.69,1.11,1.11,0,0,0-.71-.25h0a.92.92,0,0,0-.65.23,2.18,2.18,0,0,0-.45.57,3.56,3.56,0,0,0-.22,1.42l-.07,2.52-1.1,0L106,114Z" style="fill:#423c25"/><path d="M121.12,113.84H122v-1.67l1.18-.16v1.77l1.53,0v1l-1.53,0v3.5a1.09,1.09,0,0,0,.1.57.4.4,0,0,0,.34.14,4.69,4.69,0,0,0,.93-.2l.16,1a7.33,7.33,0,0,1-1.4.22,1.8,1.8,0,0,1-1-.37,1.64,1.64,0,0,1-.3-1V114.8h-.92Z" style="fill:#423c25"/><path d="M127,112.22v2.91a1.71,1.71,0,0,1,1-.91,2.1,2.1,0,0,1,.76-.15,2,2,0,0,1,.42.05,1.6,1.6,0,0,1,1,.62,2.59,2.59,0,0,1,.5,1.12,12.66,12.66,0,0,1,.07,1.8c0,.71,0,1.63,0,2.75l-1.1,0c0-1,0-1.75,0-2.38,0-1,0-1.62-.05-1.81a1.16,1.16,0,0,0-.37-.7,1.07,1.07,0,0,0-.71-.24h0a1,1,0,0,0-.66.22,2.39,2.39,0,0,0-.44.57,3.6,3.6,0,0,0-.22,1.42L127,120l-1.1,0-.09-7.67Z" style="fill:#423c25"/><path d="M133,117.48a2.13,2.13,0,0,0,.42,1.34,1.29,1.29,0,0,0,.9.39h.14a1.36,1.36,0,0,0,.79-.23,1.58,1.58,0,0,0,.57-.95l1.18.22a3.6,3.6,0,0,1-.66,1.26,1.87,1.87,0,0,1-1.18.65,4.56,4.56,0,0,1-.72.06,3.38,3.38,0,0,1-.72-.07,2.26,2.26,0,0,1-1.19-.68,2.62,2.62,0,0,1-.66-1.25,4.55,4.55,0,0,1-.12-1c0-.12,0-.24,0-.37a3.41,3.41,0,0,1,.36-1.32,2.17,2.17,0,0,1,.78-.9,2.84,2.84,0,0,1,1-.38,2.65,2.65,0,0,1,.59,0l.6,0a1.91,1.91,0,0,1,1.28.8,3.91,3.91,0,0,1,.59,2.45Zm2.71-.92a1.48,1.48,0,0,0-.38-1,1.2,1.2,0,0,0-.94-.42,1.29,1.29,0,0,0-1,.4,1.41,1.41,0,0,0-.41,1Z" style="fill:#423c25"/><path d="M13.22,131l1.12-.21c.06.56.28.89.65,1a3.21,3.21,0,0,0,.71.09,1.43,1.43,0,0,0,.29,0,.87.87,0,0,0,.58-.24.72.72,0,0,0,.19-.35.17.17,0,0,0,0-.07.39.39,0,0,0-.1-.26,1.16,1.16,0,0,0-.28-.26,5.51,5.51,0,0,0-1-.35,10.51,10.51,0,0,1-1.21-.4,1.43,1.43,0,0,1-.58-.43,1.21,1.21,0,0,1-.25-.71v-.08a1.66,1.66,0,0,1,.17-.73,1.45,1.45,0,0,1,.66-.63,2.76,2.76,0,0,1,1-.31l.39,0a4.73,4.73,0,0,1,.54,0,2.3,2.3,0,0,1,.9.37,2.24,2.24,0,0,1,.72,1.37l-1.05.13c-.14-.47-.33-.75-.55-.82a1.87,1.87,0,0,0-.56-.09h-.11a1,1,0,0,0-.57.19.56.56,0,0,0-.26.41v.06a.43.43,0,0,0,.15.34,2.69,2.69,0,0,0,1,.33,6.73,6.73,0,0,1,1.36.47,1.39,1.39,0,0,1,.72.63,2.06,2.06,0,0,1,.14.76h0a1.43,1.43,0,0,1-.23.79,1.8,1.8,0,0,1-.76.62,3,3,0,0,1-1.29.26h-.08a3.63,3.63,0,0,1-1.1-.13,1.93,1.93,0,0,1-.75-.45A2.37,2.37,0,0,1,13.22,131Z" style="fill:#423c25"/><path d="M19,126.74h.92v-1.66l1.18-.16v1.77l1.53,0v1l-1.53,0v3.5a1,1,0,0,0,.1.56.38.38,0,0,0,.34.15,4.55,4.55,0,0,0,.93-.2l.16,1a6.6,6.6,0,0,1-1.4.22,1.86,1.86,0,0,1-1-.36,1.66,1.66,0,0,1-.3-1.05v-3.76H19Z" style="fill:#423c25"/><path d="M24.35,132.43a3.75,3.75,0,0,1,0-4.39,2.71,2.71,0,0,1,4,0,3.75,3.75,0,0,1,0,4.39,2.71,2.71,0,0,1-4,0Zm3.18-.75a2.79,2.79,0,0,0,0-2.81,1.44,1.44,0,0,0-2.41,0,2.79,2.79,0,0,0,0,2.81,1.44,1.44,0,0,0,2.41,0Z" style="fill:#423c25"/><path d="M33.61,128.4a1.55,1.55,0,0,0-.8-.25h-.12a1.27,1.27,0,0,0-.67.24,2.09,2.09,0,0,0-.45.52,3.4,3.4,0,0,0-.22,1.4l-.06,2.52-1.11,0-.09-6.09,1.14-.12.06,1.32a1.85,1.85,0,0,1,1-.94,1.44,1.44,0,0,1,.53-.09,3.14,3.14,0,0,1,1.13.25Z" style="fill:#423c25"/><path d="M35,126.89l1.23-.26,1.49,4.3,1.56-4,1.06.34-3.14,7.87-1-.51.87-2.36Z" style="fill:#423c25"/><path d="M42.55,131.37a.64.64,0,0,1,.21.48.63.63,0,0,1-.21.48.7.7,0,0,1-.49.2.68.68,0,0,1-.49-.2.63.63,0,0,1-.21-.48.64.64,0,0,1,.21-.48.67.67,0,0,1,.49-.19A.69.69,0,0,1,42.55,131.37Z" style="fill:#423c25"/></g></g></svg>