<svg xmlns="http://www.w3.org/2000/svg" width="150" height="150" viewBox="0 0 150 150"><g id="bf502573-7fb6-4e80-a172-b82193a08e97" data-name="fond"><rect x="0.3" y="-0.1" width="149.39" height="149.69" style="fill:#fff"/></g><g id="a570dbf2-49e6-4298-a67d-724114082e30" data-name="shuri peinture"><path d="M158.59,20.38l-13.37-.64A2.75,2.75,0,0,0,145,18l0,0a.15.15,0,0,0,.09.06l7.38.36-6.12-4.63h0v0a2.7,2.7,0,0,0,1.5-1Z" style="fill:#fff"/><path d="M153.14-3.26,146.43,8.31a2.87,2.87,0,0,0-1.63-.63V7.56a.23.23,0,0,0,.2-.11l2.91-5.54-6.4,2.82s0,0-.05,0l-.1,0a2.57,2.57,0,0,0-.14-1.8Z" style="fill:#fff"/><path d="M152.54,18.38,145.16,18a.15.15,0,0,1-.09-.06s0,0,0-.06l1.3-4.14,0,0h0Z" style="fill:#423c25"/><path d="M147.9,1.91,145,7.45a.23.23,0,0,1-.2.11.19.19,0,0,1-.14,0l-3.17-2.6a.11.11,0,0,1,0-.14s0,0,.05,0Z" style="fill:#423c25"/><path d="M146.4,13.72v0l0,0-1.3,4.14s0,0,0,.06l0,0a1.6,1.6,0,0,0-.21-.32c-.87-1-2.6-.75-3.6-.17-.11.07-2,1.21-1.69,3a2.31,2.31,0,0,0,.92,1.51l-.05.08a.11.11,0,0,0-.12,0l-4,1.08a.16.16,0,0,0-.12.16l-.13,0c.28-1.27-.92-2.49-2-3-.12-.06-2.16-1-3.44.36a2.29,2.29,0,0,0-.39.54l-.07,0a.08.08,0,0,0,0-.11l-3.09-2.15a.11.11,0,0,0-.08,0v-.08l.29,0c1.32-.29,1.89-1.94,1.86-3.09,0-.13-.1-2.37-1.86-2.91a2.82,2.82,0,0,0-1.55,0l0-.09a.13.13,0,0,0,.09-.1L126.91,9a.14.14,0,0,0-.07-.18l.06-.09c1,.77,2.52.39,3.43-.22.1-.07,1.95-1.33,1.48-3.11a2.49,2.49,0,0,0-.67-1.17l.1-.1a.15.15,0,0,0,.19.09L135.16,3a.21.21,0,0,0,.13-.11l.09,0-.07.19c-.41,1.28.74,2.6,1.76,3.14.12.06,2.11,1.09,3.45-.16a2.86,2.86,0,0,0,.83-1.37l.1,0a.11.11,0,0,0,0,.14l3.17,2.6a.19.19,0,0,0,.14,0v.12a1.92,1.92,0,0,0-.41.05c-1.3.3-1.85,2-1.8,3.12,0,.13.14,2.36,1.9,2.88A3.54,3.54,0,0,0,146.4,13.72ZM137.59,15a2.31,2.31,0,1,0-3.26.3A2.29,2.29,0,0,0,137.59,15Z" style="fill:#423c25"/><path d="M141.73,22.75V36.18l-7.18-11.29A2.64,2.64,0,0,0,136,23.35v-.08l.13,0a.19.19,0,0,0,0,.1l4,6.31.23-7.53a.11.11,0,0,0,0-.08l.05-.08a2.77,2.77,0,0,0,1.29.49Z" style="fill:#fff"/><path d="M140.42,22.17l-.23,7.53-4-6.31a.19.19,0,0,1,0-.1.16.16,0,0,1,.12-.16l4-1.08a.11.11,0,0,1,.12,0A.11.11,0,0,1,140.42,22.17Z" style="fill:#423c25"/><path d="M137.29,11.72A2.31,2.31,0,1,1,134,12,2.29,2.29,0,0,1,137.29,11.72Z" style="fill:#fff"/><path d="M130.32-10l6.54,11.68a2.6,2.6,0,0,0-1.48,1.26l-.09,0a.19.19,0,0,0,0-.15l-3.32-6L131.23,4a.17.17,0,0,0,0,.07l-.1.1a2.77,2.77,0,0,0-1.76-.72Z" style="fill:#fff"/><path d="M135.27,2.74a.19.19,0,0,1,0,.15.21.21,0,0,1-.13.11l-3.73,1.17a.15.15,0,0,1-.19-.09.17.17,0,0,1,0-.07L132-3.23Z" style="fill:#423c25"/><path d="M130.41,23.53l-12,6.09,6.88-11.46a2.79,2.79,0,0,0,1.74.65v.08a.16.16,0,0,0-.14.08l-3.64,6.1,6.94-3.86,0,0,.07,0a1.51,1.51,0,0,0-.18.44A2.68,2.68,0,0,0,130.41,23.53Z" style="fill:#fff"/><path d="M130.15,21.07a.08.08,0,0,1,0,.11l0,0-6.94,3.86,3.64-6.1a.16.16,0,0,1,.14-.08.11.11,0,0,1,.08,0Z" style="fill:#423c25"/><path d="M126.84,8.77a.14.14,0,0,1,.07.18l-1.12,3.59a.13.13,0,0,1-.09.1.17.17,0,0,1-.12,0l-6.49-4,7.68.16Z" style="fill:#423c25"/><path d="M126.9,8.68l-.06.09h-.07l-7.68-.16,6.49,4a.17.17,0,0,0,.12,0l0,.09a2.53,2.53,0,0,0-1.49,1l-11.44-7,13.38-.23a2.58,2.58,0,0,0,.55,2Z" style="fill:#fff"/><path d="M144.8,7.68a2.87,2.87,0,0,1,1.63.63l6.71-11.57-11.93,6.2a2.57,2.57,0,0,1,.14,1.8,2.86,2.86,0,0,1-.83,1.37c-1.34,1.25-3.33.22-3.45.16-1-.54-2.17-1.86-1.76-3.14l.07-.19a2.6,2.6,0,0,1,1.48-1.26L130.32-10l-.94,13.46a2.77,2.77,0,0,1,1.76.72,2.49,2.49,0,0,1,.67,1.17c.47,1.78-1.38,3-1.48,3.11-.91.61-2.47,1-3.43.22l-.18-.15a2.58,2.58,0,0,1-.55-2l-13.38.23,11.44,7a2.53,2.53,0,0,1,1.49-1,2.82,2.82,0,0,1,1.55,0c1.76.54,1.86,2.78,1.86,2.91,0,1.15-.54,2.8-1.86,3.09l-.29,0a2.79,2.79,0,0,1-1.74-.65l-6.88,11.46,12-6.09a2.68,2.68,0,0,1-.35-1.88,1.51,1.51,0,0,1,.18-.44,2.29,2.29,0,0,1,.39-.54c1.28-1.33,3.32-.42,3.44-.36,1,.47,2.23,1.69,2,3v.08a2.64,2.64,0,0,1-1.46,1.54l7.18,11.29V22.5a2.77,2.77,0,0,1-1.29-.49,2.31,2.31,0,0,1-.92-1.51c-.35-1.8,1.58-2.94,1.69-3,1-.58,2.73-.85,3.6.17A1.6,1.6,0,0,1,145,18a2.75,2.75,0,0,1,.2,1.76l13.37.64L147.9,12.72a2.7,2.7,0,0,1-1.5,1,3.54,3.54,0,0,1-1.91,0c-1.76-.52-1.9-2.75-1.9-2.88-.05-1.16.5-2.82,1.8-3.12A1.92,1.92,0,0,1,144.8,7.68Z" style="fill:none;stroke:#423c25;stroke-miterlimit:10;stroke-width:0.599213838577271px"/><path d="M130.17,21.18l0,0-6.94,3.86,3.64-6.1a.16.16,0,0,1,.14-.08.11.11,0,0,1,.08,0l3.09,2.15A.08.08,0,0,1,130.17,21.18Z" style="fill:none;stroke:#423c25;stroke-miterlimit:10;stroke-width:0.599213838577271px"/><path d="M136.15,23.29a.19.19,0,0,0,0,.1l4,6.31.23-7.53a.11.11,0,0,0,0-.08.11.11,0,0,0-.12,0l-4,1.08A.16.16,0,0,0,136.15,23.29Z" style="fill:none;stroke:#423c25;stroke-miterlimit:10;stroke-width:0.599213838577271px"/><path d="M146.4,13.74h0l6.12,4.63L145.16,18a.15.15,0,0,1-.09-.06s0,0,0-.06l1.3-4.14Z" style="fill:none;stroke:#423c25;stroke-miterlimit:10;stroke-width:0.599213838577271px"/><path d="M141.45,4.77s0,0,.05,0l6.4-2.82L145,7.45a.23.23,0,0,1-.2.11.19.19,0,0,1-.14,0l-3.17-2.6A.11.11,0,0,1,141.45,4.77Z" style="fill:none;stroke:#423c25;stroke-miterlimit:10;stroke-width:0.599213838577271px"/><path d="M135.29,2.89a.19.19,0,0,0,0-.15l-3.32-6L131.23,4a.17.17,0,0,0,0,.07.15.15,0,0,0,.19.09L135.16,3A.21.21,0,0,0,135.29,2.89Z" style="fill:none;stroke:#423c25;stroke-miterlimit:10;stroke-width:0.599213838577271px"/><path d="M125.7,12.64a.17.17,0,0,1-.12,0l-6.49-4,7.68.16h.07a.14.14,0,0,1,.07.18l-1.12,3.59A.13.13,0,0,1,125.7,12.64Z" style="fill:none;stroke:#423c25;stroke-miterlimit:10;stroke-width:0.599213838577271px"/><path d="M137.29,11.72A2.31,2.31,0,1,1,134,12,2.29,2.29,0,0,1,137.29,11.72Z" style="fill:none;stroke:#423c25;stroke-miterlimit:10;stroke-width:0.599213838577271px"/><path d="M158.59,20.38l-13.37-.64A2.75,2.75,0,0,0,145,18l0,0a.15.15,0,0,0,.09.06l7.38.36-6.12-4.63h0v0a2.7,2.7,0,0,0,1.5-1Z" style="fill:#fff"/><path d="M153.14-3.26,146.43,8.31a2.87,2.87,0,0,0-1.63-.63V7.56a.23.23,0,0,0,.2-.11l2.91-5.54-6.4,2.82s0,0-.05,0l-.1,0a2.57,2.57,0,0,0-.14-1.8Z" style="fill:#fff"/><path d="M152.54,18.38,145.16,18a.15.15,0,0,1-.09-.06s0,0,0-.06l1.3-4.14,0,0h0Z" style="fill:#423c25"/><path d="M147.9,1.91,145,7.45a.23.23,0,0,1-.2.11.19.19,0,0,1-.14,0l-3.17-2.6a.11.11,0,0,1,0-.14s0,0,.05,0Z" style="fill:#423c25"/><path d="M146.4,13.72v0l0,0-1.3,4.14s0,0,0,.06l0,0a1.6,1.6,0,0,0-.21-.32c-.87-1-2.6-.75-3.6-.17-.11.07-2,1.21-1.69,3a2.31,2.31,0,0,0,.92,1.51l-.05.08a.11.11,0,0,0-.12,0l-4,1.08a.16.16,0,0,0-.12.16l-.13,0c.28-1.27-.92-2.49-2-3-.12-.06-2.16-1-3.44.36a2.29,2.29,0,0,0-.39.54l-.07,0a.08.08,0,0,0,0-.11l-3.09-2.15a.11.11,0,0,0-.08,0v-.08l.29,0c1.32-.29,1.89-1.94,1.86-3.09,0-.13-.1-2.37-1.86-2.91a2.82,2.82,0,0,0-1.55,0l0-.09a.13.13,0,0,0,.09-.1L126.91,9a.14.14,0,0,0-.07-.18l.06-.09c1,.77,2.52.39,3.43-.22.1-.07,1.95-1.33,1.48-3.11a2.49,2.49,0,0,0-.67-1.17l.1-.1a.15.15,0,0,0,.19.09L135.16,3a.21.21,0,0,0,.13-.11l.09,0-.07.19c-.41,1.28.74,2.6,1.76,3.14.12.06,2.11,1.09,3.45-.16a2.86,2.86,0,0,0,.83-1.37l.1,0a.11.11,0,0,0,0,.14l3.17,2.6a.19.19,0,0,0,.14,0v.12a1.92,1.92,0,0,0-.41.05c-1.3.3-1.85,2-1.8,3.12,0,.13.14,2.36,1.9,2.88A3.54,3.54,0,0,0,146.4,13.72ZM137.59,15a2.31,2.31,0,1,0-3.26.3A2.29,2.29,0,0,0,137.59,15Z" style="fill:#423c25"/><path d="M141.73,22.75V36.18l-7.18-11.29A2.64,2.64,0,0,0,136,23.35v-.08l.13,0a.19.19,0,0,0,0,.1l4,6.31.23-7.53a.11.11,0,0,0,0-.08l.05-.08a2.77,2.77,0,0,0,1.29.49Z" style="fill:#fff"/><path d="M140.42,22.17l-.23,7.53-4-6.31a.19.19,0,0,1,0-.1.16.16,0,0,1,.12-.16l4-1.08a.11.11,0,0,1,.12,0A.11.11,0,0,1,140.42,22.17Z" style="fill:#423c25"/><path d="M137.29,11.72A2.31,2.31,0,1,1,134,12,2.29,2.29,0,0,1,137.29,11.72Z" style="fill:#fff"/><path d="M130.32-10l6.54,11.68a2.6,2.6,0,0,0-1.48,1.26l-.09,0a.19.19,0,0,0,0-.15l-3.32-6L131.23,4a.17.17,0,0,0,0,.07l-.1.1a2.77,2.77,0,0,0-1.76-.72Z" style="fill:#fff"/><path d="M135.27,2.74a.19.19,0,0,1,0,.15.21.21,0,0,1-.13.11l-3.73,1.17a.15.15,0,0,1-.19-.09.17.17,0,0,1,0-.07L132-3.23Z" style="fill:#423c25"/><path d="M130.41,23.53l-12,6.09,6.88-11.46a2.79,2.79,0,0,0,1.74.65v.08a.16.16,0,0,0-.14.08l-3.64,6.1,6.94-3.86,0,0,.07,0a1.51,1.51,0,0,0-.18.44A2.68,2.68,0,0,0,130.41,23.53Z" style="fill:#fff"/><path d="M130.15,21.07a.08.08,0,0,1,0,.11l0,0-6.94,3.86,3.64-6.1a.16.16,0,0,1,.14-.08.11.11,0,0,1,.08,0Z" style="fill:#423c25"/><path d="M126.84,8.77a.14.14,0,0,1,.07.18l-1.12,3.59a.13.13,0,0,1-.09.1.17.17,0,0,1-.12,0l-6.49-4,7.68.16Z" style="fill:#423c25"/><path d="M126.9,8.68l-.06.09h-.07l-7.68-.16,6.49,4a.17.17,0,0,0,.12,0l0,.09a2.53,2.53,0,0,0-1.49,1l-11.44-7,13.38-.23a2.58,2.58,0,0,0,.55,2Z" style="fill:#fff"/><path d="M144.8,7.68a2.87,2.87,0,0,1,1.63.63l6.71-11.57-11.93,6.2a2.57,2.57,0,0,1,.14,1.8,2.86,2.86,0,0,1-.83,1.37c-1.34,1.25-3.33.22-3.45.16-1-.54-2.17-1.86-1.76-3.14l.07-.19a2.6,2.6,0,0,1,1.48-1.26L130.32-10l-.94,13.46a2.77,2.77,0,0,1,1.76.72,2.49,2.49,0,0,1,.67,1.17c.47,1.78-1.38,3-1.48,3.11-.91.61-2.47,1-3.43.22l-.18-.15a2.58,2.58,0,0,1-.55-2l-13.38.23,11.44,7a2.53,2.53,0,0,1,1.49-1,2.82,2.82,0,0,1,1.55,0c1.76.54,1.86,2.78,1.86,2.91,0,1.15-.54,2.8-1.86,3.09l-.29,0a2.79,2.79,0,0,1-1.74-.65l-6.88,11.46,12-6.09a2.68,2.68,0,0,1-.35-1.88,1.51,1.51,0,0,1,.18-.44,2.29,2.29,0,0,1,.39-.54c1.28-1.33,3.32-.42,3.44-.36,1,.47,2.23,1.69,2,3v.08a2.64,2.64,0,0,1-1.46,1.54l7.18,11.29V22.5a2.77,2.77,0,0,1-1.29-.49,2.31,2.31,0,0,1-.92-1.51c-.35-1.8,1.58-2.94,1.69-3,1-.58,2.73-.85,3.6.17A1.6,1.6,0,0,1,145,18a2.75,2.75,0,0,1,.2,1.76l13.37.64L147.9,12.72a2.7,2.7,0,0,1-1.5,1,3.54,3.54,0,0,1-1.91,0c-1.76-.52-1.9-2.75-1.9-2.88-.05-1.16.5-2.82,1.8-3.12A1.92,1.92,0,0,1,144.8,7.68Z" style="fill:none;stroke:#423c25;stroke-miterlimit:10;stroke-width:0.599213838577271px"/><path d="M130.17,21.18l0,0-6.94,3.86,3.64-6.1a.16.16,0,0,1,.14-.08.11.11,0,0,1,.08,0l3.09,2.15A.08.08,0,0,1,130.17,21.18Z" style="fill:none;stroke:#423c25;stroke-miterlimit:10;stroke-width:0.599213838577271px"/><path d="M136.15,23.29a.19.19,0,0,0,0,.1l4,6.31.23-7.53a.11.11,0,0,0,0-.08.11.11,0,0,0-.12,0l-4,1.08A.16.16,0,0,0,136.15,23.29Z" style="fill:none;stroke:#423c25;stroke-miterlimit:10;stroke-width:0.599213838577271px"/><path d="M146.4,13.74h0l6.12,4.63L145.16,18a.15.15,0,0,1-.09-.06s0,0,0-.06l1.3-4.14Z" style="fill:none;stroke:#423c25;stroke-miterlimit:10;stroke-width:0.599213838577271px"/><path d="M141.45,4.77s0,0,.05,0l6.4-2.82L145,7.45a.23.23,0,0,1-.2.11.19.19,0,0,1-.14,0l-3.17-2.6A.11.11,0,0,1,141.45,4.77Z" style="fill:none;stroke:#423c25;stroke-miterlimit:10;stroke-width:0.599213838577271px"/><path d="M135.29,2.89a.19.19,0,0,0,0-.15l-3.32-6L131.23,4a.17.17,0,0,0,0,.07.15.15,0,0,0,.19.09L135.16,3A.21.21,0,0,0,135.29,2.89Z" style="fill:none;stroke:#423c25;stroke-miterlimit:10;stroke-width:0.599213838577271px"/><path d="M125.7,12.64a.17.17,0,0,1-.12,0l-6.49-4,7.68.16h.07a.14.14,0,0,1,.07.18l-1.12,3.59A.13.13,0,0,1,125.7,12.64Z" style="fill:none;stroke:#423c25;stroke-miterlimit:10;stroke-width:0.599213838577271px"/><path d="M137.29,11.72A2.31,2.31,0,1,1,134,12,2.29,2.29,0,0,1,137.29,11.72Z" style="fill:none;stroke:#423c25;stroke-miterlimit:10;stroke-width:0.599213838577271px"/><path d="M158.59,20.38l-13.37-.64A2.75,2.75,0,0,0,145,18l0,0a.15.15,0,0,0,.09.06l7.38.36-6.12-4.63h0v0a2.7,2.7,0,0,0,1.5-1Z" style="fill:#fff"/><path d="M153.14-3.26,146.43,8.31a2.87,2.87,0,0,0-1.63-.63V7.56a.23.23,0,0,0,.2-.11l2.91-5.54-6.4,2.82s0,0-.05,0l-.1,0a2.57,2.57,0,0,0-.14-1.8Z" style="fill:#fff"/><path d="M152.54,18.38,145.16,18a.15.15,0,0,1-.09-.06s0,0,0-.06l1.3-4.14,0,0h0Z" style="fill:#423c25"/><path d="M147.9,1.91,145,7.45a.23.23,0,0,1-.2.11.19.19,0,0,1-.14,0l-3.17-2.6a.11.11,0,0,1,0-.14s0,0,.05,0Z" style="fill:#423c25"/><path d="M146.4,13.72v0l0,0-1.3,4.14s0,0,0,.06l0,0a1.6,1.6,0,0,0-.21-.32c-.87-1-2.6-.75-3.6-.17-.11.07-2,1.21-1.69,3a2.31,2.31,0,0,0,.92,1.51l-.05.08a.11.11,0,0,0-.12,0l-4,1.08a.16.16,0,0,0-.12.16l-.13,0c.28-1.27-.92-2.49-2-3-.12-.06-2.16-1-3.44.36a2.29,2.29,0,0,0-.39.54l-.07,0a.08.08,0,0,0,0-.11l-3.09-2.15a.11.11,0,0,0-.08,0v-.08l.29,0c1.32-.29,1.89-1.94,1.86-3.09,0-.13-.1-2.37-1.86-2.91a2.82,2.82,0,0,0-1.55,0l0-.09a.13.13,0,0,0,.09-.1L126.91,9a.14.14,0,0,0-.07-.18l.06-.09c1,.77,2.52.39,3.43-.22.1-.07,1.95-1.33,1.48-3.11a2.49,2.49,0,0,0-.67-1.17l.1-.1a.15.15,0,0,0,.19.09L135.16,3a.21.21,0,0,0,.13-.11l.09,0-.07.19c-.41,1.28.74,2.6,1.76,3.14.12.06,2.11,1.09,3.45-.16a2.86,2.86,0,0,0,.83-1.37l.1,0a.11.11,0,0,0,0,.14l3.17,2.6a.19.19,0,0,0,.14,0v.12a1.92,1.92,0,0,0-.41.05c-1.3.3-1.85,2-1.8,3.12,0,.13.14,2.36,1.9,2.88A3.54,3.54,0,0,0,146.4,13.72ZM137.59,15a2.31,2.31,0,1,0-3.26.3A2.29,2.29,0,0,0,137.59,15Z" style="fill:#423c25"/><path d="M141.73,22.75V36.18l-7.18-11.29A2.64,2.64,0,0,0,136,23.35v-.08l.13,0a.19.19,0,0,0,0,.1l4,6.31.23-7.53a.11.11,0,0,0,0-.08l.05-.08a2.77,2.77,0,0,0,1.29.49Z" style="fill:#fff"/><path d="M140.42,22.17l-.23,7.53-4-6.31a.19.19,0,0,1,0-.1.16.16,0,0,1,.12-.16l4-1.08a.11.11,0,0,1,.12,0A.11.11,0,0,1,140.42,22.17Z" style="fill:#423c25"/><path d="M137.29,11.72A2.31,2.31,0,1,1,134,12,2.29,2.29,0,0,1,137.29,11.72Z" style="fill:#fff"/><path d="M130.32-10l6.54,11.68a2.6,2.6,0,0,0-1.48,1.26l-.09,0a.19.19,0,0,0,0-.15l-3.32-6L131.23,4a.17.17,0,0,0,0,.07l-.1.1a2.77,2.77,0,0,0-1.76-.72Z" style="fill:#fff"/><path d="M135.27,2.74a.19.19,0,0,1,0,.15.21.21,0,0,1-.13.11l-3.73,1.17a.15.15,0,0,1-.19-.09.17.17,0,0,1,0-.07L132-3.23Z" style="fill:#423c25"/><path d="M130.41,23.53l-12,6.09,6.88-11.46a2.79,2.79,0,0,0,1.74.65v.08a.16.16,0,0,0-.14.08l-3.64,6.1,6.94-3.86,0,0,.07,0a1.51,1.51,0,0,0-.18.44A2.68,2.68,0,0,0,130.41,23.53Z" style="fill:#fff"/><path d="M130.15,21.07a.08.08,0,0,1,0,.11l0,0-6.94,3.86,3.64-6.1a.16.16,0,0,1,.14-.08.11.11,0,0,1,.08,0Z" style="fill:#423c25"/><path d="M126.84,8.77a.14.14,0,0,1,.07.18l-1.12,3.59a.13.13,0,0,1-.09.1.17.17,0,0,1-.12,0l-6.49-4,7.68.16Z" style="fill:#423c25"/><path d="M126.9,8.68l-.06.09h-.07l-7.68-.16,6.49,4a.17.17,0,0,0,.12,0l0,.09a2.53,2.53,0,0,0-1.49,1l-11.44-7,13.38-.23a2.58,2.58,0,0,0,.55,2Z" style="fill:#fff"/><path d="M144.8,7.68a2.87,2.87,0,0,1,1.63.63l6.71-11.57-11.93,6.2a2.57,2.57,0,0,1,.14,1.8,2.86,2.86,0,0,1-.83,1.37c-1.34,1.25-3.33.22-3.45.16-1-.54-2.17-1.86-1.76-3.14l.07-.19a2.6,2.6,0,0,1,1.48-1.26L130.32-10l-.94,13.46a2.77,2.77,0,0,1,1.76.72,2.49,2.49,0,0,1,.67,1.17c.47,1.78-1.38,3-1.48,3.11-.91.61-2.47,1-3.43.22l-.18-.15a2.58,2.58,0,0,1-.55-2l-13.38.23,11.44,7a2.53,2.53,0,0,1,1.49-1,2.82,2.82,0,0,1,1.55,0c1.76.54,1.86,2.78,1.86,2.91,0,1.15-.54,2.8-1.86,3.09l-.29,0a2.79,2.79,0,0,1-1.74-.65l-6.88,11.46,12-6.09a2.68,2.68,0,0,1-.35-1.88,1.51,1.51,0,0,1,.18-.44,2.29,2.29,0,0,1,.39-.54c1.28-1.33,3.32-.42,3.44-.36,1,.47,2.23,1.69,2,3v.08a2.64,2.64,0,0,1-1.46,1.54l7.18,11.29V22.5a2.77,2.77,0,0,1-1.29-.49,2.31,2.31,0,0,1-.92-1.51c-.35-1.8,1.58-2.94,1.69-3,1-.58,2.73-.85,3.6.17A1.6,1.6,0,0,1,145,18a2.75,2.75,0,0,1,.2,1.76l13.37.64L147.9,12.72a2.7,2.7,0,0,1-1.5,1,3.54,3.54,0,0,1-1.91,0c-1.76-.52-1.9-2.75-1.9-2.88-.05-1.16.5-2.82,1.8-3.12A1.92,1.92,0,0,1,144.8,7.68Z" style="fill:none;stroke:#423c25;stroke-miterlimit:10;stroke-width:0.599213838577271px"/><path d="M130.17,21.18l0,0-6.94,3.86,3.64-6.1a.16.16,0,0,1,.14-.08.11.11,0,0,1,.08,0l3.09,2.15A.08.08,0,0,1,130.17,21.18Z" style="fill:none;stroke:#423c25;stroke-miterlimit:10;stroke-width:0.599213838577271px"/><path d="M136.15,23.29a.19.19,0,0,0,0,.1l4,6.31.23-7.53a.11.11,0,0,0,0-.08.11.11,0,0,0-.12,0l-4,1.08A.16.16,0,0,0,136.15,23.29Z" style="fill:none;stroke:#423c25;stroke-miterlimit:10;stroke-width:0.599213838577271px"/><path d="M146.4,13.74h0l6.12,4.63L145.16,18a.15.15,0,0,1-.09-.06s0,0,0-.06l1.3-4.14Z" style="fill:none;stroke:#423c25;stroke-miterlimit:10;stroke-width:0.599213838577271px"/><path d="M141.45,4.77s0,0,.05,0l6.4-2.82L145,7.45a.23.23,0,0,1-.2.11.19.19,0,0,1-.14,0l-3.17-2.6A.11.11,0,0,1,141.45,4.77Z" style="fill:none;stroke:#423c25;stroke-miterlimit:10;stroke-width:0.599213838577271px"/><path d="M135.29,2.89a.19.19,0,0,0,0-.15l-3.32-6L131.23,4a.17.17,0,0,0,0,.07.15.15,0,0,0,.19.09L135.16,3A.21.21,0,0,0,135.29,2.89Z" style="fill:none;stroke:#423c25;stroke-miterlimit:10;stroke-width:0.599213838577271px"/><path d="M125.7,12.64a.17.17,0,0,1-.12,0l-6.49-4,7.68.16h.07a.14.14,0,0,1,.07.18l-1.12,3.59A.13.13,0,0,1,125.7,12.64Z" style="fill:none;stroke:#423c25;stroke-miterlimit:10;stroke-width:0.599213838577271px"/><path d="M137.29,11.72A2.31,2.31,0,1,1,134,12,2.29,2.29,0,0,1,137.29,11.72Z" style="fill:none;stroke:#423c25;stroke-miterlimit:10;stroke-width:0.599213838577271px"/><path d="M158.59,20.38l-13.37-.64A2.75,2.75,0,0,0,145,18l0,0a.15.15,0,0,0,.09.06l7.38.36-6.12-4.63h0v0a2.7,2.7,0,0,0,1.5-1Z" style="fill:#fff"/><path d="M153.14-3.26,146.43,8.31a2.87,2.87,0,0,0-1.63-.63V7.56a.23.23,0,0,0,.2-.11l2.91-5.54-6.4,2.82s0,0-.05,0l-.1,0a2.57,2.57,0,0,0-.14-1.8Z" style="fill:#fff"/><path d="M152.54,18.38,145.16,18a.15.15,0,0,1-.09-.06s0,0,0-.06l1.3-4.14,0,0h0Z" style="fill:#423c25"/><path d="M147.9,1.91,145,7.45a.23.23,0,0,1-.2.11.19.19,0,0,1-.14,0l-3.17-2.6a.11.11,0,0,1,0-.14s0,0,.05,0Z" style="fill:#423c25"/><path d="M146.4,13.72v0l0,0-1.3,4.14s0,0,0,.06l0,0a1.6,1.6,0,0,0-.21-.32c-.87-1-2.6-.75-3.6-.17-.11.07-2,1.21-1.69,3a2.31,2.31,0,0,0,.92,1.51l-.05.08a.11.11,0,0,0-.12,0l-4,1.08a.16.16,0,0,0-.12.16l-.13,0c.28-1.27-.92-2.49-2-3-.12-.06-2.16-1-3.44.36a2.29,2.29,0,0,0-.39.54l-.07,0a.08.08,0,0,0,0-.11l-3.09-2.15a.11.11,0,0,0-.08,0v-.08l.29,0c1.32-.29,1.89-1.94,1.86-3.09,0-.13-.1-2.37-1.86-2.91a2.82,2.82,0,0,0-1.55,0l0-.09a.13.13,0,0,0,.09-.1L126.91,9a.14.14,0,0,0-.07-.18l.06-.09c1,.77,2.52.39,3.43-.22.1-.07,1.95-1.33,1.48-3.11a2.49,2.49,0,0,0-.67-1.17l.1-.1a.15.15,0,0,0,.19.09L135.16,3a.21.21,0,0,0,.13-.11l.09,0-.07.19c-.41,1.28.74,2.6,1.76,3.14.12.06,2.11,1.09,3.45-.16a2.86,2.86,0,0,0,.83-1.37l.1,0a.11.11,0,0,0,0,.14l3.17,2.6a.19.19,0,0,0,.14,0v.12a1.92,1.92,0,0,0-.41.05c-1.3.3-1.85,2-1.8,3.12,0,.13.14,2.36,1.9,2.88A3.54,3.54,0,0,0,146.4,13.72ZM137.59,15a2.31,2.31,0,1,0-3.26.3A2.29,2.29,0,0,0,137.59,15Z" style="fill:#423c25"/><path d="M141.73,22.75V36.18l-7.18-11.29A2.64,2.64,0,0,0,136,23.35v-.08l.13,0a.19.19,0,0,0,0,.1l4,6.31.23-7.53a.11.11,0,0,0,0-.08l.05-.08a2.77,2.77,0,0,0,1.29.49Z" style="fill:#fff"/><path d="M140.42,22.17l-.23,7.53-4-6.31a.19.19,0,0,1,0-.1.16.16,0,0,1,.12-.16l4-1.08a.11.11,0,0,1,.12,0A.11.11,0,0,1,140.42,22.17Z" style="fill:#423c25"/><path d="M137.29,11.72A2.31,2.31,0,1,1,134,12,2.29,2.29,0,0,1,137.29,11.72Z" style="fill:#fff"/><path d="M130.32-10l6.54,11.68a2.6,2.6,0,0,0-1.48,1.26l-.09,0a.19.19,0,0,0,0-.15l-3.32-6L131.23,4a.17.17,0,0,0,0,.07l-.1.1a2.77,2.77,0,0,0-1.76-.72Z" style="fill:#fff"/><path d="M135.27,2.74a.19.19,0,0,1,0,.15.21.21,0,0,1-.13.11l-3.73,1.17a.15.15,0,0,1-.19-.09.17.17,0,0,1,0-.07L132-3.23Z" style="fill:#423c25"/><path d="M130.41,23.53l-12,6.09,6.88-11.46a2.79,2.79,0,0,0,1.74.65v.08a.16.16,0,0,0-.14.08l-3.64,6.1,6.94-3.86,0,0,.07,0a1.51,1.51,0,0,0-.18.44A2.68,2.68,0,0,0,130.41,23.53Z" style="fill:#fff"/><path d="M130.15,21.07a.08.08,0,0,1,0,.11l0,0-6.94,3.86,3.64-6.1a.16.16,0,0,1,.14-.08.11.11,0,0,1,.08,0Z" style="fill:#423c25"/><path d="M126.84,8.77a.14.14,0,0,1,.07.18l-1.12,3.59a.13.13,0,0,1-.09.1.17.17,0,0,1-.12,0l-6.49-4,7.68.16Z" style="fill:#423c25"/><path d="M126.9,8.68l-.06.09h-.07l-7.68-.16,6.49,4a.17.17,0,0,0,.12,0l0,.09a2.53,2.53,0,0,0-1.49,1l-11.44-7,13.38-.23a2.58,2.58,0,0,0,.55,2Z" style="fill:#fff"/><path d="M144.8,7.68a2.87,2.87,0,0,1,1.63.63l6.71-11.57-11.93,6.2a2.57,2.57,0,0,1,.14,1.8,2.86,2.86,0,0,1-.83,1.37c-1.34,1.25-3.33.22-3.45.16-1-.54-2.17-1.86-1.76-3.14l.07-.19a2.6,2.6,0,0,1,1.48-1.26L130.32-10l-.94,13.46a2.77,2.77,0,0,1,1.76.72,2.49,2.49,0,0,1,.67,1.17c.47,1.78-1.38,3-1.48,3.11-.91.61-2.47,1-3.43.22l-.18-.15a2.58,2.58,0,0,1-.55-2l-13.38.23,11.44,7a2.53,2.53,0,0,1,1.49-1,2.82,2.82,0,0,1,1.55,0c1.76.54,1.86,2.78,1.86,2.91,0,1.15-.54,2.8-1.86,3.09l-.29,0a2.79,2.79,0,0,1-1.74-.65l-6.88,11.46,12-6.09a2.68,2.68,0,0,1-.35-1.88,1.51,1.51,0,0,1,.18-.44,2.29,2.29,0,0,1,.39-.54c1.28-1.33,3.32-.42,3.44-.36,1,.47,2.23,1.69,2,3v.08a2.64,2.64,0,0,1-1.46,1.54l7.18,11.29V22.5a2.77,2.77,0,0,1-1.29-.49,2.31,2.31,0,0,1-.92-1.51c-.35-1.8,1.58-2.94,1.69-3,1-.58,2.73-.85,3.6.17A1.6,1.6,0,0,1,145,18a2.75,2.75,0,0,1,.2,1.76l13.37.64L147.9,12.72a2.7,2.7,0,0,1-1.5,1,3.54,3.54,0,0,1-1.91,0c-1.76-.52-1.9-2.75-1.9-2.88-.05-1.16.5-2.82,1.8-3.12A1.92,1.92,0,0,1,144.8,7.68Z" style="fill:none;stroke:#423c25;stroke-miterlimit:10;stroke-width:0.599213838577271px"/><path d="M130.17,21.18l0,0-6.94,3.86,3.64-6.1a.16.16,0,0,1,.14-.08.11.11,0,0,1,.08,0l3.09,2.15A.08.08,0,0,1,130.17,21.18Z" style="fill:none;stroke:#423c25;stroke-miterlimit:10;stroke-width:0.599213838577271px"/><path d="M136.15,23.29a.19.19,0,0,0,0,.1l4,6.31.23-7.53a.11.11,0,0,0,0-.08.11.11,0,0,0-.12,0l-4,1.08A.16.16,0,0,0,136.15,23.29Z" style="fill:none;stroke:#423c25;stroke-miterlimit:10;stroke-width:0.599213838577271px"/><path d="M146.4,13.74h0l6.12,4.63L145.16,18a.15.15,0,0,1-.09-.06s0,0,0-.06l1.3-4.14Z" style="fill:none;stroke:#423c25;stroke-miterlimit:10;stroke-width:0.599213838577271px"/><path d="M141.45,4.77s0,0,.05,0l6.4-2.82L145,7.45a.23.23,0,0,1-.2.11.19.19,0,0,1-.14,0l-3.17-2.6A.11.11,0,0,1,141.45,4.77Z" style="fill:none;stroke:#423c25;stroke-miterlimit:10;stroke-width:0.599213838577271px"/><path d="M135.29,2.89a.19.19,0,0,0,0-.15l-3.32-6L131.23,4a.17.17,0,0,0,0,.07.15.15,0,0,0,.19.09L135.16,3A.21.21,0,0,0,135.29,2.89Z" style="fill:none;stroke:#423c25;stroke-miterlimit:10;stroke-width:0.599213838577271px"/><path d="M125.7,12.64a.17.17,0,0,1-.12,0l-6.49-4,7.68.16h.07a.14.14,0,0,1,.07.18l-1.12,3.59A.13.13,0,0,1,125.7,12.64Z" style="fill:none;stroke:#423c25;stroke-miterlimit:10;stroke-width:0.599213838577271px"/><path d="M137.29,11.72A2.31,2.31,0,1,1,134,12,2.29,2.29,0,0,1,137.29,11.72Z" style="fill:none;stroke:#423c25;stroke-miterlimit:10;stroke-width:0.599213838577271px"/></g><g id="acc63017-4fb1-4b5d-b96c-0b6a36b5160c" data-name="Textes Cartes VA vecto"><g id="e06052e2-aa86-49f4-a9da-d10327f07be9" data-name="Calque 20 - copie 3"><path d="M16.32,27a.31.31,0,0,0-.15.09l-.2.2-.18.2c0,.06-.09.09-.13.09s-.23-.13-.22-.39a4.14,4.14,0,0,1,.11-.87c.07-.32.16-.63.25-.94a5.5,5.5,0,0,0,.18-.62A38.65,38.65,0,0,1,17.25,21c.48-1.22.9-2.46,1.26-3.71a.15.15,0,0,1,0-.11s0-.05,0-.05H16.92a.36.36,0,0,1,.12-.22.38.38,0,0,0,.13-.19v-.09c-.1-.12-.15-.2-.14-.24s.07-.1.17-.14a1.59,1.59,0,0,1,.33-.09,2.21,2.21,0,0,1,.35,0h.24l-.28-.18a1.24,1.24,0,0,1-.33,0,1.16,1.16,0,0,1-.28-.1.4.4,0,0,1-.19-.17.31.31,0,0,1,0-.27,1,1,0,0,1,.16-.26.67.67,0,0,1,.27-.2l.92-.16h.4l.89,0,1,0h3.91a.43.43,0,0,1-.17.28.79.79,0,0,1-.26.08l-.27.05a.38.38,0,0,0-.25.17.78.78,0,0,0-.05.32q0,.15,0,.27a2.11,2.11,0,0,1,0,.26.66.66,0,0,1,0,.3,2.35,2.35,0,0,1-.16.37,1.91,1.91,0,0,1-.34.38.64.64,0,0,1-.43.1l-.52,0a.62.62,0,0,0-.31.07,1.64,1.64,0,0,1-.07.21,2.56,2.56,0,0,1-.12.32l-.12.33a2.16,2.16,0,0,0-.08.24l-.09.3-.15.49-.25.74c-.08.26-.16.49-.25.72s-.14.37-.18.45L19,26.53a3.63,3.63,0,0,1-.15.39,1.34,1.34,0,0,1-.28.42.87.87,0,0,0-.53,0,.75.75,0,0,0-.28.2c-.07.09-.14.16-.21.24a.4.4,0,0,1-.31.1.34.34,0,0,1-.31-.15,2,2,0,0,1-.17-.32,2,2,0,0,0-.15-.33A.29.29,0,0,0,16.32,27Z" style="fill:#423c25"/><path d="M25.79,24a.1.1,0,0,0-.07,0l-.15.29a3.66,3.66,0,0,1-.16.48l-.26.72-.25.71a4.34,4.34,0,0,0-.15.49.56.56,0,0,1-.06.26,1.47,1.47,0,0,1-.12.22c0,.05-.05.07-.11.07l-.09,0-.08,0s0,0,0,0l-.13.58H24c-.07,0-.11,0-.11,0a.52.52,0,0,1-.44-.3.62.62,0,0,1,.12-.53c-.06,0-.08-.05-.07-.05h-.05a.25.25,0,0,0-.17.08l-.12.18-.1.19a.25.25,0,0,1-.1.12h0l0,0h-.38l-.18,0-.19,0h-.11a.24.24,0,0,1-.27-.15.92.92,0,0,1-.07-.38,3.19,3.19,0,0,1,0-.45,1.46,1.46,0,0,1,.08-.31l0-.11s.05-.11.07-.15a.14.14,0,0,0,0-.11L22,26l1.45-4.1a.6.6,0,0,0,.07-.17l.06-.17a1.15,1.15,0,0,0,.1-.18l.13-.31a1.88,1.88,0,0,0,.12-.3,1.7,1.7,0,0,1,.06-.18,1.27,1.27,0,0,1,.09-.2l.16-.32a3,3,0,0,1,.18-.32,1,1,0,0,1,.15-.2l.12-.14c.07-.09.11-.13.11-.15l0-.07v-.07h-.17a1.36,1.36,0,0,1-.29,0,.83.83,0,0,1-.25-.06c-.07,0-.1-.07-.07-.13a.5.5,0,0,1,.1-.14.3.3,0,0,0,.11-.15l.1,0,.16,0,.14-.06c.05,0,.06,0,.05,0l-.34-.2.07-.23s0,0,0-.09,0-.06,0-.07a.33.33,0,0,1,.16-.07l.17,0,.16,0a.13.13,0,0,0,.09-.09l-.33-.41c-.07-.1,0-.19.09-.28a2.32,2.32,0,0,1,.58-.25,6.89,6.89,0,0,1,.86-.2l.94-.17.82-.1a4.74,4.74,0,0,1,.51,0,1.51,1.51,0,0,1,.52,0,2,2,0,0,0,.49.06.26.26,0,0,0,.14-.06.42.42,0,0,1,.18,0h.07a3.68,3.68,0,0,1,.74.29,3.43,3.43,0,0,1,.61.41,1.64,1.64,0,0,1,.4.39.81.81,0,0,1,0,.54l-.35.32.25.15-.06.28-.05.16a2.89,2.89,0,0,0,0,.77,2.14,2.14,0,0,1-.07.79.71.71,0,0,1-.14.32,1.28,1.28,0,0,1-.32.26l-1.71,2-.07.27c.08.65.16,1.31.22,2a6.58,6.58,0,0,1-.15,2.07,1.11,1.11,0,0,1-.29,0l-.17,0-.16,0-.22,0a.1.1,0,0,0,0,.09.07.07,0,0,1,0,.09,1.1,1.1,0,0,1-.13.17l-.23.25a2.25,2.25,0,0,1-.24.21.35.35,0,0,1-.19.09c-.07,0-.11,0-.12-.07a.86.86,0,0,1,0-.17.42.42,0,0,0-.05-.17c0-.05-.07-.07-.14-.07a.24.24,0,0,0-.11.06l-.15.13-.15.15-.11.09s-.05,0-.11.07-.23-.06-.31-.23a2.18,2.18,0,0,1-.18-.62,7.2,7.2,0,0,1-.08-.86c0-.32,0-.62,0-.92v-.79c0-.23,0-.39,0-.49S25.88,24,25.79,24Zm.61-2,0,.13c0,.05,0,.08.09.11a2.13,2.13,0,0,0,.49-.15.65.65,0,0,0,.35-.32l1-1.61,0-.17a.42.42,0,0,0,0-.31c0-.1-.08-.2-.13-.3s-.09-.21-.13-.31a.55.55,0,0,1,0-.31c0-.09,0-.13-.15-.13h-.05l-.26.05-.33.05-.3,0-.15,0a.34.34,0,0,0-.15,0s0,.05-.07.1V19a.57.57,0,0,1,.47.22.86.86,0,0,1,.07.5,6,6,0,0,1-.37,1.13A7.26,7.26,0,0,0,26.4,22Z" style="fill:#423c25"/><path d="M30.11,27.57l.18-.63c.26-1.08.52-2.15.79-3.2s.55-2.11.86-3.2l0-.12.07-.16c0-.05,0-.09,0-.13l0-.07,0-.11.12-.19a1.76,1.76,0,0,1,.12-.2.64.64,0,0,0,0-.11,1,1,0,0,1,.05-.17c0-.09.07-.19.11-.3l.11-.3c0-.1.06-.16.07-.2l.09-.2A1.35,1.35,0,0,0,33,18l.11-.37.1-.38a2.86,2.86,0,0,0,.08-.31.81.81,0,0,1,0-.21.6.6,0,0,1,.18-.07l.35-.12.51-.17a.25.25,0,0,1,.24.1.58.58,0,0,1,.08.22,2.32,2.32,0,0,1,0,.24c0,.06,0,.09.07.09h0a1,1,0,0,0,.16-.22.16.16,0,0,0,.07-.09s0-.05,0-.05a.82.82,0,0,1,.24-.06h.18a1.34,1.34,0,0,1,.13.15l.12.13h.09l.37-.14h.09s0,0,.06.07a.13.13,0,0,0,.09.07l-.09.31c-.22.75-.47,1.49-.76,2.21s-.57,1.46-.86,2.22a1,1,0,0,1-.25.36,1.12,1.12,0,0,0-.23.35,1.3,1.3,0,0,0,0,.52c0,.18,0,.34,0,.49l-.09.36-.28,1-.09.32c-.12.4-.25.83-.37,1.3a9.4,9.4,0,0,1-.48,1.32.11.11,0,0,1-.1.08h-.26a.81.81,0,0,0-.17-.29c0-.06-.16-.08-.33-.08h-.13a.16.16,0,0,0-.1,0l-.2.2-.23,0c-.12,0-.19,0-.2,0a.24.24,0,0,0-.11.06l-.17.1a.91.91,0,0,1-.16.11l-.1.07A.77.77,0,0,1,30.11,27.57Z" style="fill:#423c25"/><path d="M38.16,25.13l-.15.16s-.06.07,0,.08a.47.47,0,0,0,.31.14.62.62,0,0,0,.28,0,1.21,1.21,0,0,0,.34-.22.26.26,0,0,0,.07-.12.22.22,0,0,0,0-.09S39,25,39,25l.55-.72a.69.69,0,0,0,.34-.25,1.36,1.36,0,0,0,.09-.23.64.64,0,0,1,.14-.21,1.17,1.17,0,0,1,.46-.18l1.41,0a.16.16,0,0,1,.18.13.77.77,0,0,1,0,.27,1.1,1.1,0,0,1,0,.28,1.75,1.75,0,0,1-.07.33,2,2,0,0,1-.45.7,10.56,10.56,0,0,1-.82.82c-.3.27-.6.53-.9.77l-.72.56,0,0a3.84,3.84,0,0,0-.53-.21,1.36,1.36,0,0,0-.38-.08c-.13,0-.21,0-.23.08a.28.28,0,0,0,0,.18,1.37,1.37,0,0,1,0,.19c0,.05-.05.07-.13.07h-.72a3.7,3.7,0,0,1-.46,0A1.57,1.57,0,0,1,35.69,27a1.61,1.61,0,0,1-.27-.56,2,2,0,0,1,0-.6c0-.2,0-.39.06-.56a.8.8,0,0,0-.09-.14.62.62,0,0,0,0-.18c0-.08-.07-.17-.11-.26s-.07-.17-.1-.25,0-.13,0-.15a3.64,3.64,0,0,1,0-.73,5.8,5.8,0,0,1,.17-.72c.07-.24.15-.49.24-.73a2.83,2.83,0,0,0,.17-.74s0,0,.08-.08l.17-.1a2.83,2.83,0,0,0,.25-.17L35.94,21l-.19-.09c-.06,0-.08-.05-.08-.06a.63.63,0,0,1,.16-.3l.26-.31a3.07,3.07,0,0,0,.24-.29.5.5,0,0,0,.11-.27l.16-.22a3.33,3.33,0,0,1,.24-.32l.24-.31.16-.21a4.4,4.4,0,0,1,.27-.35l.25-.25.28-.22.35-.27a1.16,1.16,0,0,0,.16-.2.9.9,0,0,1,.2-.2l.47-.24a3.31,3.31,0,0,1,.42-.12,2.83,2.83,0,0,1,.42-.06h.5a.72.72,0,0,0,.19,0l.22-.06.18,0c.05,0,.07,0,.06.05s0,.11.11.15l.29.12.25.1c.07,0,.07.05,0,.08a.48.48,0,0,0-.27.24,1,1,0,0,0-.11.23s0,0,.09,0l.27-.08a1.35,1.35,0,0,1,.35,0,.5.5,0,0,1,.35.18l.18.24a.75.75,0,0,1,.09.19l0,.14s0,.09,0,.13a.73.73,0,0,0,.13.2,2.51,2.51,0,0,1,.26.52.36.36,0,0,1,0,.38,1.31,1.31,0,0,0-.26.36,1,1,0,0,0-.08.26,2.32,2.32,0,0,0,0,.24.85.85,0,0,1,0,.25v0s-.1.1-.27.19a1.81,1.81,0,0,1-.62.19,2.13,2.13,0,0,1-.79,0,1.35,1.35,0,0,1-.76-.45v-.67l0-.06a.13.13,0,0,0,0-.06l0,0c.07-.26.11-.45.13-.56a2.08,2.08,0,0,1,0-.3s0,0,0,0l-.23.16-1.29.53-.56.86-.09.1-.07.1a.21.21,0,0,0,0,.14.35.35,0,0,1,.05.08.19.19,0,0,1,0,.09.32.32,0,0,1,0,.14c-.1.33-.22.72-.38,1.16s-.29.83-.41,1.15a.83.83,0,0,0,.11.17s.06,0,.09,0l-.07.89Z" style="fill:#423c25"/><path d="M46.1,23.56a18.32,18.32,0,0,0-.7,1.79c-.19.59-.36,1.18-.5,1.79l-.16.2s0,0-.05,0l-.14-.12-.14-.16s-.06-.09,0-.12l-.11.52c0,.09,0,.12-.08.11A.62.62,0,0,1,44,27.5l-.24-.15a.44.44,0,0,0-.26-.08.63.63,0,0,0-.28.05l-.15.13a1,1,0,0,1-.16.12.52.52,0,0,1-.29.06.34.34,0,0,1-.27-.11.4.4,0,0,1-.12-.23,1.61,1.61,0,0,1,0-.31c0-.14,0-.3.07-.46s0-.31.08-.45a1.46,1.46,0,0,1,.08-.31l.18-.66.26-1c.09-.36.17-.7.26-1s.14-.54.18-.67l.12-1v-.28l1.1-3.84.25-.56a.16.16,0,0,1,.1-.12l.15,0a.32.32,0,0,1,.21,0,.25.25,0,0,1,.08.14l.06.16a.23.23,0,0,0,.11.13l.2-.07a.92.92,0,0,1,.2-.05H46l.11,0,.12,0s0-.06.06-.14V16.8s.08,0,.22,0V17c0,.13,0,.26,0,.4s0,.25,0,.32,0,.05.08-.08l.3-.88a.39.39,0,0,0,.11-.08l.09-.06h.09c.12,0,.18,0,.19.14s0,.25-.07.37a2.74,2.74,0,0,1-.09.39c-.1.38-.21.78-.3,1.19a4.83,4.83,0,0,0-.15,1.14s0,0,0,.11l.06.22a.39.39,0,0,1,0,.12.67.67,0,0,1,0-.23.66.66,0,0,1,.3-.4l1.58-2.76a.7.7,0,0,1,.2-.22.43.43,0,0,1,.26-.09h0a.52.52,0,0,1,.23.05.73.73,0,0,1,.22.31.81.81,0,0,1,.1-.18c0-.09.06-.19.1-.29a.21.21,0,0,1,.21-.16.38.38,0,0,1,.28.11,1,1,0,0,1,.16.24l.12.28a.37.37,0,0,0,.16.22l.19-.31a.43.43,0,0,0,.3-.17.72.72,0,0,1,.3-.22.35.35,0,0,1,0,.25l0,.05s0,0,0,.06l-.07.16-.11.21c0,.07-.07.14-.11.2a.52.52,0,0,1-.07.11c-.41.61-.78,1.14-1.14,1.61s-.73,1-1.14,1.49v0a.49.49,0,0,0,0,.24,1.34,1.34,0,0,0,.07.27,2.77,2.77,0,0,0,.1.26.68.68,0,0,1,0,.23,4.17,4.17,0,0,0,0,.56c0,.26,0,.54,0,.83s0,.57,0,.83v.54c0,.05,0,.13-.06.23s0,.23-.07.35-.05.25-.07.36,0,.2-.05.24a1.94,1.94,0,0,0-.07.67,2.09,2.09,0,0,1-.09.68l-.07.13c0,.06-.05.07-.08,0a.71.71,0,0,0-.15-.22l-.13-.12s-.05.05,0,.14a.65.65,0,0,1,0,.25.11.11,0,0,1-.09.09h0c-.07,0-.11,0-.12-.05A.28.28,0,0,1,48,27a.24.24,0,0,0,0-.12s0-.06-.12-.06a.55.55,0,0,0-.41.16,1.84,1.84,0,0,0-.27.34,1.87,1.87,0,0,1-.29.34.59.59,0,0,1-.43.15.2.2,0,0,1-.19-.11.64.64,0,0,1-.1-.24,1.27,1.27,0,0,1,0-.28V27c0-.15,0-.34,0-.58s0-.49,0-.73,0-.45,0-.64a2.3,2.3,0,0,1,0-.33.54.54,0,0,1,0-.17q0-.15,0-.33a3,3,0,0,1,0-.33,1.88,1.88,0,0,0,0-.19l0-.08A.39.39,0,0,1,46.1,23.56Z" style="fill:#423c25"/><path d="M16.77,47.35H18.2L21,54.76,19.66,55l-.72-2H15.87L15,55.4,13.82,55ZM16.24,52h2.35l-1.1-3.46h0Z" style="fill:#423c25"/><path d="M23,55.42l0-5.29-1-.06,0-.86H23a2.53,2.53,0,0,1,.38-1.6,1.46,1.46,0,0,1,.87-.54,1.83,1.83,0,0,1,.35,0,3.6,3.6,0,0,1,.85.12l-.14,1a1.71,1.71,0,0,0-.47-.08.73.73,0,0,0-.45.13c-.21.14-.31.44-.31.89a.57.57,0,0,0,0,.13h1.13l0,.95H24.09v5.27Z" style="fill:#423c25"/><path d="M26.47,48.94h.92V47.28l1.18-.16v1.77l1.53-.06v1l-1.53.05v3.5a1.06,1.06,0,0,0,.1.57.4.4,0,0,0,.34.14,4.69,4.69,0,0,0,.93-.2l.16,1a6.6,6.6,0,0,1-1.4.22,1.86,1.86,0,0,1-1-.36,1.69,1.69,0,0,1-.3-1.06V49.91h-.92Z" style="fill:#423c25"/><path d="M32.4,52.58a2.11,2.11,0,0,0,.41,1.34,1.3,1.3,0,0,0,.91.39h.13a1.47,1.47,0,0,0,.8-.22,1.75,1.75,0,0,0,.57-1l1.17.23a3.61,3.61,0,0,1-.65,1.25,1.88,1.88,0,0,1-1.19.65,4.56,4.56,0,0,1-.72.06,3.35,3.35,0,0,1-.71-.07,2.16,2.16,0,0,1-1.19-.68,2.61,2.61,0,0,1-.67-1.24,5.25,5.25,0,0,1-.11-1c0-.13,0-.25,0-.38a3.7,3.7,0,0,1,.36-1.32,2.22,2.22,0,0,1,.78-.89,2.75,2.75,0,0,1,1-.39,3.64,3.64,0,0,1,.6,0l.59,0a2,2,0,0,1,1.29.8,4.06,4.06,0,0,1,.59,2.45Zm2.71-.91a1.57,1.57,0,0,0-.39-1,1.19,1.19,0,0,0-.94-.42,1.3,1.3,0,0,0-1,.4,1.41,1.41,0,0,0-.4,1Z" style="fill:#423c25"/><path d="M41,50.59a1.62,1.62,0,0,0-.79-.24H40a1.27,1.27,0,0,0-.67.25,1.92,1.92,0,0,0-.45.52,3.35,3.35,0,0,0-.22,1.39L38.64,55l-1.11,0L37.44,49l1.14-.13.06,1.33a1.81,1.81,0,0,1,1-.94,1.47,1.47,0,0,1,.53-.09,3.28,3.28,0,0,1,1.13.24Z" style="fill:#423c25"/><path d="M45.67,50.19a2.25,2.25,0,0,1,1.14-.61,3.11,3.11,0,0,1,.69-.07,3.79,3.79,0,0,1,.86.1,1.39,1.39,0,0,1,1.07,1.12,7.41,7.41,0,0,1,.16,1.79c0,.4,0,.85,0,1.35v0c0,.29.11.43.34.43a1.09,1.09,0,0,0,.41-.1l.08,1a2.89,2.89,0,0,1-.73.1,1,1,0,0,1-1-.56,2.71,2.71,0,0,1-.95.59,3.12,3.12,0,0,1-.88.13h0a2.13,2.13,0,0,1-.84-.16,1.62,1.62,0,0,1-.65-.49,1.37,1.37,0,0,1-.28-.76,1,1,0,0,1,0-.17,2.24,2.24,0,0,1,.15-.78,1.65,1.65,0,0,1,.91-.87,8.17,8.17,0,0,1,2.5-.52,1.52,1.52,0,0,0-.19-.92,1.21,1.21,0,0,0-.74-.24h-.19a1.43,1.43,0,0,0-.7.15,1,1,0,0,0-.4.81l-1.12-.14A1.82,1.82,0,0,1,45.67,50.19Zm2.87,2.48a4.81,4.81,0,0,0-1.9.4.87.87,0,0,0-.46.72.11.11,0,0,0,0,.05.65.65,0,0,0,.27.58,1,1,0,0,0,.58.16l.17,0a1.58,1.58,0,0,0,.75-.21,5.68,5.68,0,0,0,.6-.4Z" style="fill:#423c25"/><path d="M54.24,54.81l-.15-7.73L57.81,47a3,3,0,0,1,1.7.54A1.73,1.73,0,0,1,60.13,49v0A1.58,1.58,0,0,1,59,50.58a2,2,0,0,1,1.48,2.05,2,2,0,0,1-.69,1.55,3.21,3.21,0,0,1-2.18.62H54.24Zm1.24-4.56,2.15,0c.75,0,1.13-.36,1.13-1.07s-.38-1-1.13-1h-2.2Zm0,3.42,2.38-.06c.86,0,1.29-.4,1.29-1.21s-.43-1.13-1.29-1.13l-2.33-.06Z" style="fill:#423c25"/><path d="M62.24,50.19a2.21,2.21,0,0,1,1.14-.61,3.08,3.08,0,0,1,.68-.07,3.81,3.81,0,0,1,.87.1A1.39,1.39,0,0,1,66,50.73a7.41,7.41,0,0,1,.16,1.79c0,.4,0,.85,0,1.35v0c0,.29.11.43.34.43a1,1,0,0,0,.4-.1l.09,1a2.89,2.89,0,0,1-.73.1,1.06,1.06,0,0,1-1-.56,2.6,2.6,0,0,1-.94.59,3.12,3.12,0,0,1-.88.13h0a2.12,2.12,0,0,1-.83-.16,1.62,1.62,0,0,1-.65-.49,1.46,1.46,0,0,1-.29-.76V53.9a2.24,2.24,0,0,1,.15-.78,1.65,1.65,0,0,1,.91-.87,8.16,8.16,0,0,1,2.49-.52,1.54,1.54,0,0,0-.18-.92,1.21,1.21,0,0,0-.74-.24H64a1.43,1.43,0,0,0-.7.15,1,1,0,0,0-.4.81l-1.13-.14A1.88,1.88,0,0,1,62.24,50.19Zm2.87,2.48a4.81,4.81,0,0,0-1.9.4.87.87,0,0,0-.46.72.11.11,0,0,0,0,.05.65.65,0,0,0,.27.58,1,1,0,0,0,.58.16l.17,0a1.58,1.58,0,0,0,.75-.21,5.68,5.68,0,0,0,.6-.4Z" style="fill:#423c25"/><path d="M71.52,50.59a1.59,1.59,0,0,0-.79-.24h-.12a1.35,1.35,0,0,0-.68.25,1.89,1.89,0,0,0-.44.52,3.47,3.47,0,0,0-.23,1.39L69.2,55l-1.1,0L68,49l1.15-.13,0,1.33a1.85,1.85,0,0,1,1-.94,1.53,1.53,0,0,1,.54-.09,3.23,3.23,0,0,1,1.12.24Z" style="fill:#423c25"/><path d="M72.89,55.42V47.6h1.2l0,2.88a1.68,1.68,0,0,1,1.42-1.06,2.89,2.89,0,0,1,.5,0,1.85,1.85,0,0,1,1.11.32A2.27,2.27,0,0,1,77.9,51a5.12,5.12,0,0,1,.24,1.48v.08a4.88,4.88,0,0,1-.26,1.41A2,2,0,0,1,77.05,55a2.13,2.13,0,0,1-1.19.39,2.39,2.39,0,0,1-1.09-.24,1.76,1.76,0,0,1-.74-.69l0,1Zm4-3v0a2.33,2.33,0,0,0-.36-1.32,1.26,1.26,0,0,0-1.1-.61c-.89,0-1.35.66-1.37,2v.07a2.25,2.25,0,0,0,.36,1.33,1.3,1.3,0,0,0,1.11.56,1.19,1.19,0,0,0,1-.62A2.46,2.46,0,0,0,76.93,52.46Z" style="fill:#423c25"/><path d="M79.88,50.19A2.24,2.24,0,0,1,81,49.58a3,3,0,0,1,.68-.07,3.73,3.73,0,0,1,.86.1,1.39,1.39,0,0,1,1.08,1.12,7.41,7.41,0,0,1,.16,1.79c0,.4,0,.85,0,1.35v0c0,.29.11.43.33.43a1.05,1.05,0,0,0,.41-.1l.09,1a3,3,0,0,1-.73.1,1.05,1.05,0,0,1-1-.56,2.68,2.68,0,0,1-.94.59,3.19,3.19,0,0,1-.89.13h0a2.08,2.08,0,0,1-.83-.16,1.56,1.56,0,0,1-.65-.49,1.38,1.38,0,0,1-.29-.76V53.9a2.47,2.47,0,0,1,.14-.78,1.71,1.71,0,0,1,.92-.87,8.09,8.09,0,0,1,2.49-.52,1.45,1.45,0,0,0-.19-.92,1.16,1.16,0,0,0-.74-.24h-.19a1.48,1.48,0,0,0-.7.15,1,1,0,0,0-.39.81l-1.13-.14A1.92,1.92,0,0,1,79.88,50.19Zm2.88,2.48a4.88,4.88,0,0,0-1.91.4.89.89,0,0,0-.46.72v.05a.65.65,0,0,0,.27.58,1,1,0,0,0,.58.16l.17,0a1.58,1.58,0,0,0,.75-.21,5.68,5.68,0,0,0,.6-.4Z" style="fill:#423c25"/><path d="M89.17,50.59a1.59,1.59,0,0,0-.79-.24h-.12a1.31,1.31,0,0,0-.68.25,1.74,1.74,0,0,0-.44.52,3.3,3.3,0,0,0-.23,1.39L86.85,55l-1.1,0L85.65,49l1.15-.13,0,1.33a1.81,1.81,0,0,1,1-.94,1.53,1.53,0,0,1,.54-.09,3.28,3.28,0,0,1,1.12.24Z" style="fill:#423c25"/><path d="M91.72,47.69a.66.66,0,0,1,0,1,.71.71,0,0,1-1,0,.66.66,0,0,1,0-1,.71.71,0,0,1,1,0ZM90.63,49.5l1.17,0-.11,5.84h-1Z" style="fill:#423c25"/><path d="M93.67,50.19a2.24,2.24,0,0,1,1.15-.61,3,3,0,0,1,.68-.07,3.79,3.79,0,0,1,.86.1,1.41,1.41,0,0,1,1.08,1.12,8,8,0,0,1,.16,1.79c0,.4,0,.85,0,1.35v0c0,.29.12.43.34.43a1.05,1.05,0,0,0,.41-.1l.09,1a3,3,0,0,1-.74.1,1,1,0,0,1-1-.56,2.77,2.77,0,0,1-.94.59,3.19,3.19,0,0,1-.89.13h0a2.13,2.13,0,0,1-.84-.16,1.62,1.62,0,0,1-.65-.49,1.46,1.46,0,0,1-.28-.76c0-.06,0-.11,0-.17a2.24,2.24,0,0,1,.15-.78,1.69,1.69,0,0,1,.91-.87,8.17,8.17,0,0,1,2.5-.52,1.45,1.45,0,0,0-.19-.92,1.18,1.18,0,0,0-.74-.24h-.19a1.45,1.45,0,0,0-.7.15,1,1,0,0,0-.4.81l-1.12-.14A1.82,1.82,0,0,1,93.67,50.19Zm2.87,2.48a4.86,4.86,0,0,0-1.9.4.89.89,0,0,0-.46.72v.05a.67.67,0,0,0,.26.58,1.08,1.08,0,0,0,.59.16l.17,0a1.58,1.58,0,0,0,.75-.21,5.61,5.61,0,0,0,.59-.4Z" style="fill:#423c25"/><path d="M100.58,49l.06,1.33a1.74,1.74,0,0,1,1-.92,2.21,2.21,0,0,1,.75-.14,2,2,0,0,1,.42,0,1.61,1.61,0,0,1,1,.61,2.63,2.63,0,0,1,.5,1.13,12,12,0,0,1,.08,1.79c0,.72,0,1.64,0,2.76l-1.1,0c0-.95,0-1.75,0-2.37a15.34,15.34,0,0,0,0-1.81,1.16,1.16,0,0,0-.37-.7,1.05,1.05,0,0,0-.71-.24h0a.92.92,0,0,0-.65.22,2.18,2.18,0,0,0-.45.57,3.6,3.6,0,0,0-.22,1.42l-.06,2.53-1.11,0-.09-6.1Z" style="fill:#423c25"/><path d="M109.17,48.54l.06,1.26a1.46,1.46,0,0,1,.81-.91,2.08,2.08,0,0,1,.66-.11,2.3,2.3,0,0,1,.45,0,2,2,0,0,1,1.15,1,2,2,0,0,1,.82-.94,2.21,2.21,0,0,1,1-.23h.1a1.49,1.49,0,0,1,1.15.63,2.4,2.4,0,0,1,.53,1.35c0,.21,0,.58,0,1.1,0,.7,0,1.67,0,2.92l-1.06-.09V51.47a2.13,2.13,0,0,0-.39-1.26,1,1,0,0,0-.55-.28h-.06a.87.87,0,0,0-.52.23,1.52,1.52,0,0,0-.46.61,7,7,0,0,0-.21,1.6l0,1.7-1,0a25,25,0,0,0-.11-3.22,1.66,1.66,0,0,0-.38-.75.65.65,0,0,0-.49-.23h-.12a1.41,1.41,0,0,0-.6.26,1.39,1.39,0,0,0-.43.57,4.83,4.83,0,0,0-.19,1.47l-.09,2.55h-1L108,48.57Z" style="fill:#423c25"/><path d="M117.72,54.63a3.76,3.76,0,0,1,0-4.4,2.73,2.73,0,0,1,4,0,3.76,3.76,0,0,1,0,4.4,2.73,2.73,0,0,1-4,0Zm3.17-.76a2.44,2.44,0,0,0,.39-1.41,2.4,2.4,0,0,0-.39-1.39,1.33,1.33,0,0,0-1.19-.65,1.36,1.36,0,0,0-1.21.65,2.47,2.47,0,0,0-.38,1.39,2.51,2.51,0,0,0,.38,1.41,1.36,1.36,0,0,0,1.21.65A1.33,1.33,0,0,0,120.89,53.87Z" style="fill:#423c25"/><path d="M123.46,49.47l1.23-.27L126.15,54h0l1.4-4.48,1.22.26-2,5.35-1.32,0Z" style="fill:#423c25"/><path d="M131.09,52.58a2.11,2.11,0,0,0,.41,1.34,1.34,1.34,0,0,0,.91.39h.14a1.44,1.44,0,0,0,.79-.22,1.64,1.64,0,0,0,.57-1l1.17.23a3.31,3.31,0,0,1-.65,1.25,1.83,1.83,0,0,1-1.18.65,4.56,4.56,0,0,1-.72.06,3.38,3.38,0,0,1-.72-.07,2.16,2.16,0,0,1-1.19-.68,2.59,2.59,0,0,1-.66-1.24,4.61,4.61,0,0,1-.12-1c0-.13,0-.25,0-.38a3.33,3.33,0,0,1,.36-1.32,2.08,2.08,0,0,1,.78-.89,2.7,2.7,0,0,1,1-.39,3.64,3.64,0,0,1,.6,0l.6,0a1.93,1.93,0,0,1,1.28.8,4,4,0,0,1,.59,2.45Zm2.71-.91a1.56,1.56,0,0,0-.38-1,1.2,1.2,0,0,0-.94-.42,1.29,1.29,0,0,0-1,.4,1.42,1.42,0,0,0-.41,1Z" style="fill:#423c25"/><path d="M136.48,56l-.35-.23a2.49,2.49,0,0,0,.64-.85.5.5,0,0,1-.51-.27.81.81,0,0,1-.1-.39.41.41,0,0,1,0-.11.59.59,0,0,1,.18-.38.62.62,0,0,1,.37-.18h.09a.72.72,0,0,1,.34.09.71.71,0,0,1,.32.32.67.67,0,0,1,.07.33,1.65,1.65,0,0,1,0,.21,1.44,1.44,0,0,1-.22.6A6.57,6.57,0,0,1,136.48,56Z" style="fill:#423c25"/><path d="M13.82,61.85h.92V60.18L15.92,60V61.8l1.53-.06v1l-1.53,0v3.5a1.2,1.2,0,0,0,.1.57.4.4,0,0,0,.34.14,4.42,4.42,0,0,0,.93-.2l.16,1a7.22,7.22,0,0,1-1.4.22,1.8,1.8,0,0,1-1-.37,1.64,1.64,0,0,1-.3-1.05V62.81h-.92Z" style="fill:#423c25"/><path d="M19.7,60.24v2.9a1.71,1.71,0,0,1,.95-.91,1.89,1.89,0,0,1,1.17-.1,1.62,1.62,0,0,1,1,.62,2.59,2.59,0,0,1,.5,1.12,12.05,12.05,0,0,1,.08,1.8c0,.71,0,1.63,0,2.75l-1.11,0c0-1,0-1.75,0-2.38a15.34,15.34,0,0,0-.05-1.81,1.11,1.11,0,0,0-.37-.7,1.05,1.05,0,0,0-.71-.24h0a.92.92,0,0,0-.65.22,2.18,2.18,0,0,0-.45.57,3.8,3.8,0,0,0-.22,1.42L19.7,68l-1.11,0-.09-7.67Z" style="fill:#423c25"/><path d="M25.66,65.49a2.14,2.14,0,0,0,.41,1.34,1.32,1.32,0,0,0,.91.39h.13a1.47,1.47,0,0,0,.8-.22,1.69,1.69,0,0,0,.57-1l1.17.23A3.54,3.54,0,0,1,29,67.53a1.9,1.9,0,0,1-1.19.65,4.56,4.56,0,0,1-.72.06,3.35,3.35,0,0,1-.71-.07,2.22,2.22,0,0,1-1.19-.68,2.73,2.73,0,0,1-.67-1.25,5.17,5.17,0,0,1-.11-1c0-.12,0-.24,0-.37a3.64,3.64,0,0,1,.36-1.32,2.32,2.32,0,0,1,.78-.9,2.92,2.92,0,0,1,1-.38,2.8,2.8,0,0,1,.6,0l.59,0A2,2,0,0,1,29,63a4,4,0,0,1,.59,2.45Zm2.71-.92a1.59,1.59,0,0,0-.38-.95A1.22,1.22,0,0,0,27,63.2a1.3,1.3,0,0,0-1,.4,1.4,1.4,0,0,0-.4,1Z" style="fill:#423c25"/><path d="M33.23,60h1.36l3.51,5.66h0V59.84H39.4l-.1,7.83H38l-3.49-5.75h0v5.23H33.17Z" style="fill:#423c25"/><path d="M41.64,60.6a.61.61,0,0,1,.21.47.63.63,0,0,1-.21.48.7.7,0,0,1-.49.2.66.66,0,0,1-.49-.2.63.63,0,0,1-.21-.48.61.61,0,0,1,.21-.47.63.63,0,0,1,.49-.2A.66.66,0,0,1,41.64,60.6Zm-1.09,1.81,1.17,0-.11,5.84h-1Z" style="fill:#423c25"/><path d="M44,61.92l.05,1.33a1.73,1.73,0,0,1,.95-.92,2.31,2.31,0,0,1,.76-.14,2,2,0,0,1,.42.05,1.63,1.63,0,0,1,1,.61,2.63,2.63,0,0,1,.5,1.13,12.58,12.58,0,0,1,.07,1.79c0,.72,0,1.64,0,2.75l-1.1,0c0-.95,0-1.75,0-2.38,0-1,0-1.61-.05-1.8a1.13,1.13,0,0,0-.37-.7,1.05,1.05,0,0,0-.71-.24h0a1,1,0,0,0-.66.22,2.39,2.39,0,0,0-.44.57,3.56,3.56,0,0,0-.22,1.42l-.07,2.52-1.1,0L42.9,62Z" style="fill:#423c25"/><path d="M48.44,69h0a.41.41,0,0,1,.23.07,1,1,0,0,0,.77-.49A3.6,3.6,0,0,0,49.69,67l0-4.51,1.06.07c0,.82,0,1.55,0,2.2a29.3,29.3,0,0,1-.13,3.77,2,2,0,0,1-.57,1,1.89,1.89,0,0,1-.93.42l-.31,0a2,2,0,0,1-.47,0Zm2.22-8.39a.63.63,0,0,1,.2.47.66.66,0,0,1-.2.48.71.71,0,0,1-1,0,.66.66,0,0,1-.2-.48.63.63,0,0,1,.2-.47.66.66,0,0,1,.5-.2A.66.66,0,0,1,50.66,60.6Z" style="fill:#423c25"/><path d="M52.61,63.1a2.21,2.21,0,0,1,1.14-.61,3.11,3.11,0,0,1,.69-.07,4.41,4.41,0,0,1,.86.09,1.42,1.42,0,0,1,1.07,1.13,7.41,7.41,0,0,1,.16,1.79c0,.4,0,.85,0,1.35v0c0,.28.11.43.34.43a1.22,1.22,0,0,0,.4-.1l.09,1a2.94,2.94,0,0,1-.73.11,1.08,1.08,0,0,1-1-.56,2.6,2.6,0,0,1-.94.59,3.52,3.52,0,0,1-.88.13h0a2,2,0,0,1-.83-.17,1.52,1.52,0,0,1-.65-.48,1.5,1.5,0,0,1-.29-.77v-.16a2.34,2.34,0,0,1,.15-.79,1.67,1.67,0,0,1,.91-.86,7.87,7.87,0,0,1,2.49-.52,1.54,1.54,0,0,0-.18-.92,1.21,1.21,0,0,0-.74-.24h-.19a1.43,1.43,0,0,0-.7.15,1,1,0,0,0-.4.81l-1.13-.14A1.88,1.88,0,0,1,52.61,63.1Zm2.87,2.48a4.81,4.81,0,0,0-1.9.4.87.87,0,0,0-.46.72.09.09,0,0,0,0,0,.67.67,0,0,0,.27.58,1,1,0,0,0,.58.15h.17a1.71,1.71,0,0,0,.75-.21,5.86,5.86,0,0,0,.6-.41Z" style="fill:#423c25"/><path d="M62,61.45l.07,1.26a1.43,1.43,0,0,1,.81-.91,2.08,2.08,0,0,1,.66-.11,2.3,2.3,0,0,1,.45.05,2,2,0,0,1,1.15,1,2,2,0,0,1,.82-.94,2.09,2.09,0,0,1,1-.23h.1a1.49,1.49,0,0,1,1.15.63,2.4,2.4,0,0,1,.53,1.35c0,.21,0,.58,0,1.1,0,.7,0,1.67,0,2.92l-1.06-.1V64.38a2.13,2.13,0,0,0-.39-1.26,1,1,0,0,0-.55-.28h-.06a.87.87,0,0,0-.52.23,1.46,1.46,0,0,0-.46.61,6.94,6.94,0,0,0-.21,1.6l0,1.7-1,0a25,25,0,0,0-.11-3.22A1.7,1.7,0,0,0,64,63a.68.68,0,0,0-.49-.23h-.12a1.68,1.68,0,0,0-.61.27,1.46,1.46,0,0,0-.42.57,4.49,4.49,0,0,0-.19,1.46l-.09,2.56H61l-.16-6.18Z" style="fill:#423c25"/><path d="M70.55,63.1a2.24,2.24,0,0,1,1.15-.61,3,3,0,0,1,.68-.07,4.34,4.34,0,0,1,.86.09,1.41,1.41,0,0,1,1.08,1.13,7.41,7.41,0,0,1,.16,1.79c0,.4,0,.85,0,1.35v0c0,.28.11.43.33.43a1.27,1.27,0,0,0,.41-.1l.09,1a3,3,0,0,1-.73.11,1.07,1.07,0,0,1-1-.56,2.68,2.68,0,0,1-.94.59,3.61,3.61,0,0,1-.89.13h0a1.93,1.93,0,0,1-.83-.17,1.55,1.55,0,0,1-.66-.48,1.49,1.49,0,0,1-.28-.77v-.16A2.31,2.31,0,0,1,70,66a1.73,1.73,0,0,1,.92-.86,7.73,7.73,0,0,1,2.49-.52,1.45,1.45,0,0,0-.19-.92,1.16,1.16,0,0,0-.74-.24h-.19a1.48,1.48,0,0,0-.7.15,1,1,0,0,0-.39.81l-1.13-.14A1.92,1.92,0,0,1,70.55,63.1Zm2.88,2.48a4.88,4.88,0,0,0-1.91.4.89.89,0,0,0-.46.72v0a.67.67,0,0,0,.27.58,1,1,0,0,0,.58.15h.17a1.71,1.71,0,0,0,.75-.21,5.86,5.86,0,0,0,.6-.41Z" style="fill:#423c25"/><path d="M75.63,62l1.23-.25L78.35,66l1.56-4,1.07.34L77.83,70.2l-1-.51.87-2.35Z" style="fill:#423c25"/><path d="M87.65,63.11a1.63,1.63,0,0,0-.59-.12,1.53,1.53,0,0,0-.3,0,1.44,1.44,0,0,0-.72.47,1.86,1.86,0,0,0-.38,1,4.73,4.73,0,0,0,0,.52,2.43,2.43,0,0,0,.07.61,1.67,1.67,0,0,0,.43.87,1.19,1.19,0,0,0,.83.39h.12a1.54,1.54,0,0,0,.79-.22,1.27,1.27,0,0,0,.49-1l1.11.23a2.45,2.45,0,0,1-.57,1.25,1.93,1.93,0,0,1-1.18.65,3.88,3.88,0,0,1-.67.06,3,3,0,0,1-.68-.07,2.18,2.18,0,0,1-1.07-.54,2.41,2.41,0,0,1-.63-1.14A4.29,4.29,0,0,1,84.5,65c0-.1,0-.2,0-.3a3.68,3.68,0,0,1,.34-1.35,2.25,2.25,0,0,1,.74-.9,2.61,2.61,0,0,1,.92-.38,2.52,2.52,0,0,1,.57-.05l.52,0a2,2,0,0,1,1.16.53,2,2,0,0,1,.64,1.35l-1.09.17A1.25,1.25,0,0,0,87.65,63.11Z" style="fill:#423c25"/><path d="M91.71,60.24v2.9a1.68,1.68,0,0,1,1-.91,1.89,1.89,0,0,1,1.17-.1,1.62,1.62,0,0,1,1,.62,2.59,2.59,0,0,1,.5,1.12,12.05,12.05,0,0,1,.08,1.8c0,.71,0,1.63-.05,2.75l-1.1,0c0-1,0-1.75,0-2.38,0-1,0-1.62,0-1.81a1.16,1.16,0,0,0-.37-.7,1.05,1.05,0,0,0-.71-.24h0a.92.92,0,0,0-.65.22,2.18,2.18,0,0,0-.45.57,3.6,3.6,0,0,0-.22,1.42L91.71,68,90.6,68l-.09-7.67Z" style="fill:#423c25"/><path d="M97.6,60.6a.61.61,0,0,1,.21.47.63.63,0,0,1-.21.48.7.7,0,0,1-1,0,.62.62,0,0,1-.2-.48.6.6,0,0,1,.2-.47.7.7,0,0,1,1,0Zm-1.09,1.81,1.17,0-.1,5.84h-1Z" style="fill:#423c25"/><path d="M100,61.45l.07,1.26a1.43,1.43,0,0,1,.81-.91,2.08,2.08,0,0,1,.66-.11,2.3,2.3,0,0,1,.45.05,2,2,0,0,1,1.15,1,2,2,0,0,1,.82-.94,2.09,2.09,0,0,1,1-.23h.1a1.49,1.49,0,0,1,1.15.63,2.4,2.4,0,0,1,.53,1.35c0,.21,0,.58,0,1.1,0,.7,0,1.67,0,2.92l-1.06-.1V64.38a2.13,2.13,0,0,0-.39-1.26,1,1,0,0,0-.55-.28h-.06a.87.87,0,0,0-.52.23,1.46,1.46,0,0,0-.46.61,6.94,6.94,0,0,0-.21,1.6l0,1.7-1,0a25,25,0,0,0-.11-3.22A1.7,1.7,0,0,0,102,63a.68.68,0,0,0-.49-.23h-.12a1.56,1.56,0,0,0-.6.27,1.39,1.39,0,0,0-.43.57,4.49,4.49,0,0,0-.19,1.46l-.09,2.56H99l-.16-6.18Z" style="fill:#423c25"/><path d="M109.12,65.49a2.14,2.14,0,0,0,.41,1.34,1.29,1.29,0,0,0,.9.39h.14a1.41,1.41,0,0,0,.79-.22,1.7,1.7,0,0,0,.58-1l1.17.23a3.71,3.71,0,0,1-.65,1.25,1.92,1.92,0,0,1-1.19.65,4.56,4.56,0,0,1-.72.06,3.29,3.29,0,0,1-.71-.07,2.18,2.18,0,0,1-1.19-.68,2.56,2.56,0,0,1-.67-1.25,4.54,4.54,0,0,1-.11-1c0-.12,0-.24,0-.37a3.64,3.64,0,0,1,.36-1.32,2.32,2.32,0,0,1,.78-.9,2.92,2.92,0,0,1,1-.38,2.8,2.8,0,0,1,.6,0l.59,0a1.91,1.91,0,0,1,1.28.8,4,4,0,0,1,.6,2.45Zm2.71-.92a1.54,1.54,0,0,0-.39-.95,1.2,1.2,0,0,0-.94-.42,1.3,1.3,0,0,0-1,.4,1.36,1.36,0,0,0-.4,1Z" style="fill:#423c25"/><path d="M117.82,60.6a.6.6,0,0,1,.2.47.62.62,0,0,1-.2.48.71.71,0,0,1-1,0,.66.66,0,0,1-.2-.48.63.63,0,0,1,.2-.47.66.66,0,0,1,.5-.2A.66.66,0,0,1,117.82,60.6Zm-1.09,1.81,1.17,0-.11,5.84h-1Z" style="fill:#423c25"/><path d="M120.22,61.92l0,1.33a1.73,1.73,0,0,1,1-.92,2.25,2.25,0,0,1,.75-.14,2,2,0,0,1,.43.05,1.61,1.61,0,0,1,.95.61,2.53,2.53,0,0,1,.51,1.13,12.58,12.58,0,0,1,.07,1.79c0,.72,0,1.64,0,2.75l-1.1,0c0-.95,0-1.75,0-2.38,0-1,0-1.61,0-1.8a1.13,1.13,0,0,0-.37-.7,1.07,1.07,0,0,0-.71-.24h0a1,1,0,0,0-.66.22,2.16,2.16,0,0,0-.44.57,3.7,3.7,0,0,0-.23,1.42l-.06,2.52-1.1,0-.1-6.09Z" style="fill:#423c25"/><path d="M127.46,61.85h.92V60.18l1.18-.15V61.8l1.53-.06v1l-1.53,0v3.5a1.09,1.09,0,0,0,.1.57A.4.4,0,0,0,130,67a4.69,4.69,0,0,0,.93-.2l.16,1a7.33,7.33,0,0,1-1.4.22,1.8,1.8,0,0,1-1-.37,1.64,1.64,0,0,1-.3-1.05V62.81h-.92Z" style="fill:#423c25"/><path d="M132.85,67.54a3.28,3.28,0,0,1-.71-2.21,3.24,3.24,0,0,1,.71-2.19,2.71,2.71,0,0,1,4,0,3.29,3.29,0,0,1,.71,2.19,3.33,3.33,0,0,1-.71,2.21,2.73,2.73,0,0,1-4,0Zm3.17-.76a2.44,2.44,0,0,0,.39-1.41A2.37,2.37,0,0,0,136,64a1.34,1.34,0,0,0-1.19-.66,1.37,1.37,0,0,0-1.21.66,2.45,2.45,0,0,0-.38,1.39,2.51,2.51,0,0,0,.38,1.41,1.38,1.38,0,0,0,1.21.65A1.35,1.35,0,0,0,136,66.78Z" style="fill:#423c25"/><path d="M17,76a1.63,1.63,0,0,0-.59-.12,1.53,1.53,0,0,0-.3,0,1.44,1.44,0,0,0-.72.47,1.82,1.82,0,0,0-.38,1,4.73,4.73,0,0,0,0,.52,3.08,3.08,0,0,0,.07.61,1.71,1.71,0,0,0,.43.87,1.19,1.19,0,0,0,.83.39h.12a1.54,1.54,0,0,0,.79-.22,1.24,1.24,0,0,0,.49-1l1.11.23a2.4,2.4,0,0,1-.57,1.25,2,2,0,0,1-1.18.65,3.88,3.88,0,0,1-.67.06,3,3,0,0,1-.68-.07,2.18,2.18,0,0,1-1.07-.54A2.5,2.5,0,0,1,14,79a4.29,4.29,0,0,1-.16-1.17c0-.1,0-.2,0-.3a3.83,3.83,0,0,1,.34-1.35,2.25,2.25,0,0,1,.74-.9,2.83,2.83,0,0,1,.92-.39,3.32,3.32,0,0,1,.57,0l.52,0a2.16,2.16,0,0,1,1.16.53,2.06,2.06,0,0,1,.65,1.35l-1.1.18A1.25,1.25,0,0,0,17,76Z" style="fill:#423c25"/><path d="M21,73.14v2.91a1.74,1.74,0,0,1,.95-.92,2.21,2.21,0,0,1,.75-.14,2,2,0,0,1,.42.05,1.61,1.61,0,0,1,1,.61,2.63,2.63,0,0,1,.5,1.13,12,12,0,0,1,.08,1.79c0,.72,0,1.64-.05,2.76l-1.1,0c0-1,0-1.74,0-2.37,0-1,0-1.62,0-1.81a1.16,1.16,0,0,0-.37-.7,1.05,1.05,0,0,0-.71-.24h0a.92.92,0,0,0-.65.22,2.18,2.18,0,0,0-.45.57,3.6,3.6,0,0,0-.22,1.42L21,80.91l-1.11,0-.09-7.67Z" style="fill:#423c25"/><path d="M26.44,76a2.1,2.1,0,0,1,1.14-.61,3.08,3.08,0,0,1,.68-.08,4.37,4.37,0,0,1,.86.1,1.4,1.4,0,0,1,1.08,1.13,7.41,7.41,0,0,1,.16,1.79c0,.4,0,.85,0,1.35v0q0,.42.33.42a1.17,1.17,0,0,0,.41-.09l.09,1a3,3,0,0,1-.73.11,1.07,1.07,0,0,1-1-.56,2.84,2.84,0,0,1-.94.59,3.19,3.19,0,0,1-.89.12h0a2.09,2.09,0,0,1-.83-.17,1.46,1.46,0,0,1-.65-.48,1.42,1.42,0,0,1-.29-.77v-.17a2.47,2.47,0,0,1,.14-.78,1.7,1.7,0,0,1,.92-.86,7.8,7.8,0,0,1,2.49-.52,1.43,1.43,0,0,0-.19-.92,1.16,1.16,0,0,0-.74-.24h-.19a1.31,1.31,0,0,0-.69.16.94.94,0,0,0-.4.81L26,77.21A1.83,1.83,0,0,1,26.44,76Zm2.87,2.47a4.83,4.83,0,0,0-1.91.41.88.88,0,0,0-.45.71.13.13,0,0,0,0,.06.64.64,0,0,0,.27.57,1,1,0,0,0,.58.16H28a1.85,1.85,0,0,0,.75-.21,5.86,5.86,0,0,0,.6-.41Z" style="fill:#423c25"/><path d="M33.35,74.82l0,1.33a1.75,1.75,0,0,1,1-.91,2,2,0,0,1,.75-.14,2,2,0,0,1,.43,0,1.63,1.63,0,0,1,.95.62A2.73,2.73,0,0,1,37,76.88a12.66,12.66,0,0,1,.07,1.8c0,.72,0,1.63,0,2.75l-1.1,0c0-1,0-1.75,0-2.38a14.31,14.31,0,0,0-.06-1.81,1.08,1.08,0,0,0-.36-.69,1.13,1.13,0,0,0-.71-.25h0a1,1,0,0,0-.66.22,2,2,0,0,0-.44.58,3.49,3.49,0,0,0-.23,1.41L33.4,81l-1.1,0L32.2,75Z" style="fill:#423c25"/><path d="M38.36,81.27l1.1-.19c.12.55.36.87.73,1a2.46,2.46,0,0,0,.6.07,2.24,2.24,0,0,0,.52,0,1,1,0,0,0,.77-.49,2.47,2.47,0,0,0,.16-1.08c0-.14,0-.28,0-.43a2.32,2.32,0,0,1-1.07.69,4.56,4.56,0,0,1-.75.06h-.26a2.06,2.06,0,0,1-1-.39,2,2,0,0,1-.73-.91,4,4,0,0,1-.25-1.34,1.62,1.62,0,0,1,0-.22,3.93,3.93,0,0,1,.18-1.21A2.22,2.22,0,0,1,39,75.67a2.64,2.64,0,0,1,1-.54,3.08,3.08,0,0,1,.61-.06,3.12,3.12,0,0,1,.52,0,2,2,0,0,1,1.17.65v-.64l1,0c0,.89,0,1.69,0,2.4a33,33,0,0,1-.13,4,1.92,1.92,0,0,1-.57,1,1.9,1.9,0,0,1-.92.42,7.75,7.75,0,0,1-1.05.1h0a3.36,3.36,0,0,1-.88-.11,1.84,1.84,0,0,1-.78-.45A2.67,2.67,0,0,1,38.36,81.27Zm3.56-2.06a2.31,2.31,0,0,0,.34-1.32,2.11,2.11,0,0,0-.35-1.28,1.29,1.29,0,0,0-1.14-.56,1.25,1.25,0,0,0-1.14.62A2.38,2.38,0,0,0,39.3,78a2.2,2.2,0,0,0,.35,1.26,1.38,1.38,0,0,0,2.27,0Z" style="fill:#423c25"/><path d="M45.63,78.4A2.14,2.14,0,0,0,46,79.74a1.38,1.38,0,0,0,.9.39h.14a1.34,1.34,0,0,0,.79-.22,1.64,1.64,0,0,0,.58-1l1.17.22A3.76,3.76,0,0,1,49,80.44a1.87,1.87,0,0,1-1.19.64,3.65,3.65,0,0,1-.72.07,4.17,4.17,0,0,1-.71-.07,2.18,2.18,0,0,1-1.19-.68,2.64,2.64,0,0,1-.67-1.25,5.17,5.17,0,0,1-.11-1c0-.12,0-.25,0-.37a3.59,3.59,0,0,1,.36-1.32,2.32,2.32,0,0,1,.78-.9,3.19,3.19,0,0,1,1-.39,3.7,3.7,0,0,1,.6,0l.59,0a2,2,0,0,1,1.29.79,4.1,4.1,0,0,1,.59,2.46Zm2.71-.92a1.54,1.54,0,0,0-.39-1,1.2,1.2,0,0,0-.94-.42,1.33,1.33,0,0,0-1,.39,1.43,1.43,0,0,0-.4,1Z" style="fill:#423c25"/><path d="M54.43,76a2.17,2.17,0,0,1,1.15-.61,3,3,0,0,1,.68-.08,4.46,4.46,0,0,1,.86.1,1.43,1.43,0,0,1,1.08,1.13,8,8,0,0,1,.16,1.79c0,.4,0,.85,0,1.35v0c0,.28.12.42.34.42a1.22,1.22,0,0,0,.41-.09l.09,1a3,3,0,0,1-.74.11,1.06,1.06,0,0,1-1-.56,2.94,2.94,0,0,1-.94.59,3.19,3.19,0,0,1-.89.12h0a2.14,2.14,0,0,1-.84-.17,1.52,1.52,0,0,1-.65-.48,1.49,1.49,0,0,1-.28-.77s0-.11,0-.17a2.24,2.24,0,0,1,.15-.78,1.67,1.67,0,0,1,.91-.86,7.88,7.88,0,0,1,2.5-.52,1.43,1.43,0,0,0-.19-.92,1.18,1.18,0,0,0-.74-.24h-.19a1.34,1.34,0,0,0-.7.16,1,1,0,0,0-.4.81L54,77.21A1.83,1.83,0,0,1,54.43,76Zm2.88,2.47a4.83,4.83,0,0,0-1.91.41.89.89,0,0,0-.46.71v.06a.65.65,0,0,0,.26.57,1,1,0,0,0,.59.16H56a1.85,1.85,0,0,0,.75-.21,5.86,5.86,0,0,0,.6-.41Z" style="fill:#423c25"/><path d="M61.34,74.82l.06,1.33a1.72,1.72,0,0,1,1-.91,2.13,2.13,0,0,1,1.17-.1,1.62,1.62,0,0,1,1,.62,2.59,2.59,0,0,1,.5,1.12,12.05,12.05,0,0,1,.08,1.8c0,.72,0,1.63,0,2.75l-1.11,0c0-1,0-1.75,0-2.38a15.34,15.34,0,0,0,0-1.81,1.13,1.13,0,0,0-.37-.69,1.11,1.11,0,0,0-.71-.25h0a1,1,0,0,0-.65.22,2.24,2.24,0,0,0-.45.58,3.54,3.54,0,0,0-.22,1.41L61.4,81l-1.11,0L60.2,75Z" style="fill:#423c25"/><path d="M69.87,76A2.17,2.17,0,0,1,71,75.4a3,3,0,0,1,.68-.08,4.46,4.46,0,0,1,.86.1,1.43,1.43,0,0,1,1.08,1.13,8.08,8.08,0,0,1,.15,1.79c0,.4,0,.85,0,1.35v0c0,.28.11.42.34.42a1.22,1.22,0,0,0,.41-.09l.09,1a3.08,3.08,0,0,1-.74.11,1.05,1.05,0,0,1-1-.56,2.94,2.94,0,0,1-.94.59,3.19,3.19,0,0,1-.89.12h0a2.14,2.14,0,0,1-.84-.17,1.52,1.52,0,0,1-.65-.48,1.49,1.49,0,0,1-.28-.77.91.91,0,0,1,0-.17,2.24,2.24,0,0,1,.15-.78,1.67,1.67,0,0,1,.91-.86,7.88,7.88,0,0,1,2.5-.52,1.43,1.43,0,0,0-.19-.92,1.18,1.18,0,0,0-.74-.24h-.19a1.34,1.34,0,0,0-.7.16,1,1,0,0,0-.4.81l-1.12-.14A1.78,1.78,0,0,1,69.87,76Zm2.87,2.47a4.81,4.81,0,0,0-1.9.41.87.87,0,0,0-.46.71v.06a.63.63,0,0,0,.26.57,1,1,0,0,0,.59.16h.16a1.86,1.86,0,0,0,.76-.21,7.17,7.17,0,0,0,.59-.41Z" style="fill:#423c25"/><path d="M75.64,79l1.12-.21c0,.56.27.89.65,1a3.07,3.07,0,0,0,.71.09l.28,0a.9.9,0,0,0,.59-.25.81.81,0,0,0,.19-.35v-.07a.45.45,0,0,0-.09-.26,1.2,1.2,0,0,0-.29-.26,5.28,5.28,0,0,0-1-.35,9.87,9.87,0,0,1-1.21-.4,1.46,1.46,0,0,1-.59-.43,1.14,1.14,0,0,1-.24-.71V76.7a1.66,1.66,0,0,1,.16-.73,1.45,1.45,0,0,1,.66-.63,2.76,2.76,0,0,1,1-.31l.4,0a4.55,4.55,0,0,1,.53,0,1.83,1.83,0,0,1,1.62,1.74l-1,.13c-.14-.47-.32-.75-.54-.82a1.88,1.88,0,0,0-.57-.09h-.11a1,1,0,0,0-.57.19.59.59,0,0,0-.26.42v.05a.41.41,0,0,0,.16.34,2.84,2.84,0,0,0,.95.34,5.78,5.78,0,0,1,1.37.47,1.38,1.38,0,0,1,.72.62,2.06,2.06,0,0,1,.13.76v0a1.48,1.48,0,0,1-.23.79,1.72,1.72,0,0,1-.76.61,3.06,3.06,0,0,1-1.28.27H78a3.56,3.56,0,0,1-1.09-.13,1.9,1.9,0,0,1-.76-.45A2.35,2.35,0,0,1,75.64,79Z" style="fill:#423c25"/><path d="M82.49,74.78l0,1a1.76,1.76,0,0,1,.74-.69,2.39,2.39,0,0,1,1.09-.24,2.13,2.13,0,0,1,1.19.39,2,2,0,0,1,.83,1.09,4.88,4.88,0,0,1,.26,1.41v.08a5.18,5.18,0,0,1-.24,1.48,2.27,2.27,0,0,1-.84,1.25,1.85,1.85,0,0,1-1.11.32,2.92,2.92,0,0,1-.5,0,1.65,1.65,0,0,1-1.42-1.06l0,2.89h-1.2V74.78Zm2.93,3a2.49,2.49,0,0,0-.36-1.34,1.18,1.18,0,0,0-1-.61,1.3,1.3,0,0,0-1.11.56,2.25,2.25,0,0,0-.36,1.33v.06c0,1.32.48,2,1.37,2a1.24,1.24,0,0,0,1.1-.61,2.27,2.27,0,0,0,.36-1.31Z" style="fill:#423c25"/><path d="M88.93,78.4a2.14,2.14,0,0,0,.41,1.34,1.38,1.38,0,0,0,.9.39h.14a1.34,1.34,0,0,0,.79-.22,1.64,1.64,0,0,0,.58-1l1.17.22a3.76,3.76,0,0,1-.65,1.26,1.87,1.87,0,0,1-1.19.64,3.65,3.65,0,0,1-.72.07,4.07,4.07,0,0,1-.71-.07,2.18,2.18,0,0,1-1.19-.68,2.56,2.56,0,0,1-.67-1.25,4.54,4.54,0,0,1-.11-1c0-.12,0-.25,0-.37a3.59,3.59,0,0,1,.36-1.32,2.32,2.32,0,0,1,.78-.9,3.19,3.19,0,0,1,1-.39,3.7,3.7,0,0,1,.6,0l.59,0a1.93,1.93,0,0,1,1.28.79,4,4,0,0,1,.6,2.46Zm2.71-.92a1.54,1.54,0,0,0-.39-1,1.2,1.2,0,0,0-.94-.42,1.33,1.33,0,0,0-1,.39,1.38,1.38,0,0,0-.4,1Z" style="fill:#423c25"/><path d="M97.11,76a1.54,1.54,0,0,0-.58-.12,1.53,1.53,0,0,0-.3,0,1.44,1.44,0,0,0-.72.47,1.82,1.82,0,0,0-.38,1,3.12,3.12,0,0,0,0,.52,2.48,2.48,0,0,0,.07.61,1.71,1.71,0,0,0,.43.87,1.17,1.17,0,0,0,.83.39h.12a1.48,1.48,0,0,0,.78-.22,1.25,1.25,0,0,0,.5-1l1.11.23a2.48,2.48,0,0,1-.57,1.25,2,2,0,0,1-1.18.65,3.91,3.91,0,0,1-.68.06,2.93,2.93,0,0,1-.67-.07,2.14,2.14,0,0,1-1.07-.54A2.33,2.33,0,0,1,94.13,79,4.29,4.29,0,0,1,94,77.86c0-.1,0-.2,0-.3a3.63,3.63,0,0,1,.34-1.35,2.25,2.25,0,0,1,.74-.9,2.88,2.88,0,0,1,.91-.39,3.52,3.52,0,0,1,.58,0l.52,0a2.16,2.16,0,0,1,1.16.53,2,2,0,0,1,.64,1.35L97.78,77A1.24,1.24,0,0,0,97.11,76Z" style="fill:#423c25"/><path d="M100,74.76h.92V73.09l1.18-.16V74.7l1.53,0v1l-1.53,0v3.5a1,1,0,0,0,.1.56.38.38,0,0,0,.34.15,4.69,4.69,0,0,0,.93-.2l.16,1a6.77,6.77,0,0,1-1.4.23,1.88,1.88,0,0,1-1-.37,1.66,1.66,0,0,1-.3-1V75.72H100Z" style="fill:#423c25"/><path d="M108.43,80.44a3.75,3.75,0,0,1,0-4.39,2.71,2.71,0,0,1,4,0,3.75,3.75,0,0,1,0,4.39,2.71,2.71,0,0,1-4,0Zm3.18-.75a2.79,2.79,0,0,0,0-2.81,1.43,1.43,0,0,0-2.4,0,2.73,2.73,0,0,0,0,2.81,1.43,1.43,0,0,0,2.4,0Z" style="fill:#423c25"/><path d="M115.15,81.23l0-5.29-1,0,0-.86h1a2.5,2.5,0,0,1,.38-1.61,1.45,1.45,0,0,1,.86-.53,1.29,1.29,0,0,1,.35,0,3.14,3.14,0,0,1,.85.13l-.14,1a1.4,1.4,0,0,0-.47-.08.79.79,0,0,0-.45.12,1.08,1.08,0,0,0-.31.9s0,.08,0,.13h1.13l0,.94h-1.13v5.27Z" style="fill:#423c25"/><path d="M121.71,74.76h.92V73.09l1.18-.16V74.7l1.52,0v1l-1.52,0v3.5a1,1,0,0,0,.1.56.38.38,0,0,0,.34.15,4.69,4.69,0,0,0,.93-.2l.15,1a6.6,6.6,0,0,1-1.39.23,1.88,1.88,0,0,1-1-.37,1.66,1.66,0,0,1-.3-1V75.72h-.92Z" style="fill:#423c25"/><path d="M127.58,73.14v2.91a1.77,1.77,0,0,1,1-.92,2.3,2.3,0,0,1,.75-.14,2,2,0,0,1,.43.05,1.63,1.63,0,0,1,1,.61,2.63,2.63,0,0,1,.5,1.13,12.58,12.58,0,0,1,.07,1.79c0,.72,0,1.64,0,2.76l-1.1,0c0-1,0-1.74,0-2.37,0-1,0-1.62-.05-1.81a1.16,1.16,0,0,0-.37-.7,1.07,1.07,0,0,0-.71-.24h0a1,1,0,0,0-.66.22,2.39,2.39,0,0,0-.44.57,3.6,3.6,0,0,0-.22,1.42l-.07,2.53-1.1,0-.09-7.67Z" style="fill:#423c25"/><path d="M133.54,78.4a2.13,2.13,0,0,0,.42,1.34,1.38,1.38,0,0,0,.9.39H135a1.34,1.34,0,0,0,.79-.22,1.58,1.58,0,0,0,.57-1l1.18.22a3.6,3.6,0,0,1-.66,1.26,1.82,1.82,0,0,1-1.18.64,3.65,3.65,0,0,1-.72.07,4.28,4.28,0,0,1-.72-.07,2.26,2.26,0,0,1-1.19-.68,2.62,2.62,0,0,1-.66-1.25,4.55,4.55,0,0,1-.12-1c0-.12,0-.25,0-.37a3.41,3.41,0,0,1,.36-1.32,2.17,2.17,0,0,1,.78-.9,3.09,3.09,0,0,1,1-.39,3.49,3.49,0,0,1,.59,0l.6,0a1.93,1.93,0,0,1,1.28.79,4,4,0,0,1,.59,2.46Zm2.71-.92a1.48,1.48,0,0,0-.38-1,1.2,1.2,0,0,0-.94-.42,1.33,1.33,0,0,0-1,.39,1.44,1.44,0,0,0-.41,1Z" style="fill:#423c25"/><path d="M13.82,91.93l1.12-.21c.05.56.27.89.65,1a3.14,3.14,0,0,0,.71.09,1.27,1.27,0,0,0,.28,0,.93.93,0,0,0,.59-.24.74.74,0,0,0,.19-.36s0,0,0-.06a.44.44,0,0,0-.1-.26,1,1,0,0,0-.29-.26,5.28,5.28,0,0,0-1-.35,10.51,10.51,0,0,1-1.21-.4,1.53,1.53,0,0,1-.59-.43,1.28,1.28,0,0,1-.24-.71v-.08a1.77,1.77,0,0,1,.16-.73,1.35,1.35,0,0,1,.66-.63,2.75,2.75,0,0,1,1-.31l.39,0a3.27,3.27,0,0,1,.54,0,2.3,2.3,0,0,1,.9.37,2.16,2.16,0,0,1,.71,1.37l-1.05.13c-.14-.47-.32-.75-.54-.82a1.87,1.87,0,0,0-.56-.09H16a1,1,0,0,0-.56.2.54.54,0,0,0-.26.41v.06a.43.43,0,0,0,.15.34,2.69,2.69,0,0,0,1,.33,6.84,6.84,0,0,1,1.37.47,1.35,1.35,0,0,1,.72.63,2.06,2.06,0,0,1,.13.76h0a1.46,1.46,0,0,1-.23.79,1.76,1.76,0,0,1-.75.62,3,3,0,0,1-1.29.26h-.08a3.93,3.93,0,0,1-1.1-.13,1.86,1.86,0,0,1-.75-.45A2.37,2.37,0,0,1,13.82,91.93Z" style="fill:#423c25"/><path d="M22.7,88.92a1.8,1.8,0,0,0-.58-.11,1.39,1.39,0,0,0-.3,0,1.36,1.36,0,0,0-.72.47,1.82,1.82,0,0,0-.38,1,3,3,0,0,0,0,.51,2.93,2.93,0,0,0,.06.61,1.78,1.78,0,0,0,.43.88,1.28,1.28,0,0,0,.84.39h.12a1.39,1.39,0,0,0,.78-.22,1.21,1.21,0,0,0,.5-1l1.1.22A2.42,2.42,0,0,1,24,93a2,2,0,0,1-1.18.64,3.21,3.21,0,0,1-.68.07,3.82,3.82,0,0,1-.68-.07,2.15,2.15,0,0,1-1.06-.54,2.41,2.41,0,0,1-.63-1.15,4.16,4.16,0,0,1-.16-1.16c0-.1,0-.21,0-.31a3.63,3.63,0,0,1,.34-1.34,2.17,2.17,0,0,1,.74-.9,2.49,2.49,0,0,1,.91-.39,3.27,3.27,0,0,1,.57,0l.52,0a2.22,2.22,0,0,1,1.17.53,2.06,2.06,0,0,1,.64,1.35l-1.09.18A1.26,1.26,0,0,0,22.7,88.92Z" style="fill:#423c25"/><path d="M26.81,91.31a2.15,2.15,0,0,0,.42,1.34,1.38,1.38,0,0,0,.9.39h.14a1.36,1.36,0,0,0,.79-.22,1.64,1.64,0,0,0,.57-1l1.18.23a3.6,3.6,0,0,1-.66,1.26A1.86,1.86,0,0,1,29,94a4.61,4.61,0,0,1-.72.07,4.18,4.18,0,0,1-.72-.07,2.21,2.21,0,0,1-1.19-.69,2.59,2.59,0,0,1-.66-1.24,4.55,4.55,0,0,1-.12-1c0-.12,0-.25,0-.37a3.24,3.24,0,0,1,.36-1.32,2.17,2.17,0,0,1,.78-.9,2.68,2.68,0,0,1,1-.39,3.42,3.42,0,0,1,.59-.05,4.31,4.31,0,0,1,.6,0,1.91,1.91,0,0,1,1.28.79,4,4,0,0,1,.59,2.46Zm2.71-.92a1.53,1.53,0,0,0-.38-1A1.2,1.2,0,0,0,28.2,89a1.33,1.33,0,0,0-1,.4,1.44,1.44,0,0,0-.41,1Z" style="fill:#423c25"/><path d="M33,87.73l0,1.33a1.71,1.71,0,0,1,1-.91,2.09,2.09,0,0,1,.75-.15,2,2,0,0,1,.43,0,1.65,1.65,0,0,1,1,.62,2.59,2.59,0,0,1,.5,1.12,12.66,12.66,0,0,1,.07,1.8c0,.71,0,1.63,0,2.75l-1.1,0c0-1,0-1.75,0-2.38,0-1,0-1.62-.05-1.81a1.16,1.16,0,0,0-.37-.7,1.13,1.13,0,0,0-.71-.24h0a1,1,0,0,0-.66.22,2.39,2.39,0,0,0-.44.57,3.64,3.64,0,0,0-.22,1.42l-.07,2.53L32,94l-.09-6.09Z" style="fill:#423c25"/><path d="M39,91.31a2.15,2.15,0,0,0,.42,1.34,1.38,1.38,0,0,0,.9.39h.14a1.34,1.34,0,0,0,.79-.22,1.64,1.64,0,0,0,.57-1l1.18.23a3.6,3.6,0,0,1-.66,1.26,1.86,1.86,0,0,1-1.18.64,4.61,4.61,0,0,1-.72.07,4.28,4.28,0,0,1-.72-.07,2.21,2.21,0,0,1-1.19-.69,2.59,2.59,0,0,1-.66-1.24,4.55,4.55,0,0,1-.12-1c0-.12,0-.25,0-.37a3.59,3.59,0,0,1,.36-1.32,2.17,2.17,0,0,1,.78-.9,2.68,2.68,0,0,1,1-.39,3.42,3.42,0,0,1,.59-.05,4.31,4.31,0,0,1,.6,0,1.89,1.89,0,0,1,1.28.79A4,4,0,0,1,43,91.28Zm2.71-.92a1.53,1.53,0,0,0-.38-1A1.2,1.2,0,0,0,40.4,89a1.34,1.34,0,0,0-1,.4,1.44,1.44,0,0,0-.41,1Z" style="fill:#423c25"/><path d="M45.24,92.29a.65.65,0,0,1,0,1,.7.7,0,0,1-1,0,.68.68,0,0,1,0-1,.73.73,0,0,1,1,0Z" style="fill:#423c25"/><path d="M55.66,85.81H57l3.51,5.66h0V85.65h1.28l-.1,7.84H60.42l-3.49-5.75h0V93H55.61Z" style="fill:#423c25"/><path d="M63.6,93.35a3.3,3.3,0,0,1-.71-2.2A3.26,3.26,0,0,1,63.6,89a2.71,2.71,0,0,1,4,0,3.26,3.26,0,0,1,.71,2.19,3.3,3.3,0,0,1-.71,2.2,2.71,2.71,0,0,1-4,0Zm3.18-.75a2.51,2.51,0,0,0,.38-1.41,2.48,2.48,0,0,0-.38-1.4,1.43,1.43,0,0,0-2.4,0,2.41,2.41,0,0,0-.39,1.4,2.44,2.44,0,0,0,.39,1.41,1.43,1.43,0,0,0,2.4,0Z" style="fill:#423c25"/><path d="M69.34,87.66h.93V86l1.17-.16v1.77l1.53,0v1l-1.53.06v3.5a1.12,1.12,0,0,0,.1.56.39.39,0,0,0,.34.14,3.84,3.84,0,0,0,.93-.2l.16,1a6.51,6.51,0,0,1-1.4.22,1.88,1.88,0,0,1-1-.36,1.64,1.64,0,0,1-.29-1.06V88.63h-.93Z" style="fill:#423c25"/><path d="M84.38,91.31a2.15,2.15,0,0,0,.42,1.34,1.38,1.38,0,0,0,.9.39h.14a1.36,1.36,0,0,0,.79-.22,1.64,1.64,0,0,0,.57-1l1.18.23a3.6,3.6,0,0,1-.66,1.26,1.86,1.86,0,0,1-1.18.64,4.61,4.61,0,0,1-.72.07A4.18,4.18,0,0,1,85.1,94a2.18,2.18,0,0,1-1.19-.69,2.59,2.59,0,0,1-.66-1.24,4.55,4.55,0,0,1-.12-1c0-.12,0-.25,0-.37a3.24,3.24,0,0,1,.36-1.32,2.17,2.17,0,0,1,.78-.9,2.68,2.68,0,0,1,1-.39,3.42,3.42,0,0,1,.59-.05,4.31,4.31,0,0,1,.6,0,1.91,1.91,0,0,1,1.28.79,4,4,0,0,1,.59,2.46Zm2.71-.92a1.53,1.53,0,0,0-.38-1,1.2,1.2,0,0,0-.94-.42,1.33,1.33,0,0,0-1,.4,1.44,1.44,0,0,0-.41,1Z" style="fill:#423c25"/><path d="M89.43,88.19l1.22-.26,1.46,4.74h0l1.4-4.48,1.22.26-2,5.35-1.32,0Z" style="fill:#423c25"/><path d="M97.06,91.31a2.16,2.16,0,0,0,.41,1.34,1.43,1.43,0,0,0,.91.39h.14a1.36,1.36,0,0,0,.79-.22,1.64,1.64,0,0,0,.57-1l1.17.23a3.43,3.43,0,0,1-.65,1.26,1.86,1.86,0,0,1-1.18.64,4.61,4.61,0,0,1-.72.07,4.18,4.18,0,0,1-.72-.07,2.18,2.18,0,0,1-1.19-.69,2.59,2.59,0,0,1-.66-1.24,4.55,4.55,0,0,1-.12-1c0-.12,0-.25,0-.37a3.24,3.24,0,0,1,.36-1.32,2.17,2.17,0,0,1,.78-.9,2.63,2.63,0,0,1,1-.39,3.64,3.64,0,0,1,.6-.05,4.41,4.41,0,0,1,.6,0,1.91,1.91,0,0,1,1.28.79,4,4,0,0,1,.59,2.46Zm2.71-.92a1.59,1.59,0,0,0-.38-1,1.2,1.2,0,0,0-.94-.42,1.33,1.33,0,0,0-1,.4,1.44,1.44,0,0,0-.41,1Z" style="fill:#423c25"/><path d="M105.62,89.32a1.52,1.52,0,0,0-.79-.25h-.12a1.34,1.34,0,0,0-.68.24,2.05,2.05,0,0,0-.44.52,3.51,3.51,0,0,0-.23,1.39l-.06,2.53-1.1,0-.1-6.09,1.15-.13,0,1.33a1.88,1.88,0,0,1,1-.94,1.53,1.53,0,0,1,.54-.09,3.23,3.23,0,0,1,1.12.24Z" style="fill:#423c25"/><path d="M107,87.81l1.23-.26,1.5,4.29,1.56-4,1.06.34L109.18,96l-1-.52.87-2.35Z" style="fill:#423c25"/><path d="M113.38,87.66h.93V86l1.17-.16v1.77l1.53,0v1l-1.53.06v3.5a1.12,1.12,0,0,0,.1.56.39.39,0,0,0,.34.14,3.84,3.84,0,0,0,.93-.2l.16,1a6.51,6.51,0,0,1-1.4.22,1.86,1.86,0,0,1-1-.36,1.64,1.64,0,0,1-.29-1.06V88.63h-.93Z" style="fill:#423c25"/><path d="M119.26,86.05V89a1.73,1.73,0,0,1,.95-.92,2.21,2.21,0,0,1,.75-.14,1.93,1.93,0,0,1,.42,0,1.61,1.61,0,0,1,1,.61,2.77,2.77,0,0,1,.51,1.13,14.42,14.42,0,0,1,.07,1.79c0,.72,0,1.64,0,2.75l-1.11,0c0-1,0-1.75,0-2.38a15.24,15.24,0,0,0-.05-1.8,1.11,1.11,0,0,0-.37-.7,1,1,0,0,0-.7-.24h0a.92.92,0,0,0-.65.22,2.18,2.18,0,0,0-.45.57,3.76,3.76,0,0,0-.22,1.42l-.06,2.52-1.11,0-.09-7.67Z" style="fill:#423c25"/><path d="M125.16,86.41a.68.68,0,0,1,0,1,.71.71,0,0,1-.5.19.69.69,0,0,1-.49-.19.68.68,0,0,1,0-1,.7.7,0,0,1,.49-.2A.72.72,0,0,1,125.16,86.41Zm-1.1,1.82,1.17-.06-.1,5.84h-1Z" style="fill:#423c25"/><path d="M127.56,87.73l0,1.33a1.71,1.71,0,0,1,1-.91,2,2,0,0,1,.75-.15,2.1,2.1,0,0,1,.43,0,1.63,1.63,0,0,1,.95.62,2.73,2.73,0,0,1,.51,1.12,12.66,12.66,0,0,1,.07,1.8c0,.71,0,1.63,0,2.75l-1.11,0c0-1,0-1.75,0-2.38a14.31,14.31,0,0,0-.06-1.81,1.15,1.15,0,0,0-.36-.7,1.13,1.13,0,0,0-.71-.24h0a.92.92,0,0,0-.66.22,2,2,0,0,0-.44.57,3.59,3.59,0,0,0-.23,1.42l-.06,2.53-1.1,0-.1-6.09Z" style="fill:#423c25"/><path d="M132.57,94.18l1.1-.19c.12.55.36.87.73,1a2.46,2.46,0,0,0,.6.07,3,3,0,0,0,.52,0,1.06,1.06,0,0,0,.77-.49,2.47,2.47,0,0,0,.16-1.08c0-.14,0-.28,0-.44a2.32,2.32,0,0,1-1.07.7,4.56,4.56,0,0,1-.75.06h-.26a2,2,0,0,1-1.05-.38,2,2,0,0,1-.73-.91,4,4,0,0,1-.25-1.34,1.7,1.7,0,0,1,0-.22,4,4,0,0,1,.18-1.22,2.19,2.19,0,0,1,.73-1.06,2.64,2.64,0,0,1,1-.54,3.08,3.08,0,0,1,.61-.06,3.12,3.12,0,0,1,.52,0,2,2,0,0,1,1.17.65V88l1,0c0,.89,0,1.69,0,2.4a29.9,29.9,0,0,1-.14,4,1.89,1.89,0,0,1-.56,1,1.94,1.94,0,0,1-.92.42,7.75,7.75,0,0,1-1,.1h-.05a3.36,3.36,0,0,1-.88-.11,1.79,1.79,0,0,1-.78-.45A2.71,2.71,0,0,1,132.57,94.18Zm3.56-2.06a2.35,2.35,0,0,0,.34-1.33,2.14,2.14,0,0,0-.35-1.27A1.29,1.29,0,0,0,135,89a1.25,1.25,0,0,0-1.14.62,2.38,2.38,0,0,0-.33,1.31,2.2,2.2,0,0,0,.35,1.26,1.38,1.38,0,0,0,2.27,0Z" style="fill:#423c25"/><path d="M13.82,101.1l1.2-.27,1.19,4.42h0l1-4.15,1.35.05.89,3.94h0l1.13-4.52,1.14.32-1.69,5.72-1.2-.11-1-3.65h0l-1.08,3.81-1.29.16Z" style="fill:#423c25"/><path d="M23.55,101.82a2.24,2.24,0,0,1,1.15-.61,3,3,0,0,1,.68-.07,3.79,3.79,0,0,1,.86.1,1.41,1.41,0,0,1,1.08,1.12,8,8,0,0,1,.16,1.79c0,.4,0,.85-.05,1.35v0c0,.29.12.43.34.43a1.05,1.05,0,0,0,.41-.1l.09,1a3,3,0,0,1-.74.1,1.06,1.06,0,0,1-1-.55,2.78,2.78,0,0,1-.94.58,3.19,3.19,0,0,1-.89.13h0a2.14,2.14,0,0,1-.84-.17,1.62,1.62,0,0,1-.65-.49,1.46,1.46,0,0,1-.28-.76c0-.06,0-.11,0-.17a2.24,2.24,0,0,1,.15-.78,1.64,1.64,0,0,1,.91-.86,7.6,7.6,0,0,1,2.5-.52,1.43,1.43,0,0,0-.19-.92,1.12,1.12,0,0,0-.74-.25h-.19a1.45,1.45,0,0,0-.7.15,1,1,0,0,0-.4.82L23.07,103A1.87,1.87,0,0,1,23.55,101.82Zm2.88,2.48a5.07,5.07,0,0,0-1.91.4.89.89,0,0,0-.46.72v0a.67.67,0,0,0,.26.58,1.08,1.08,0,0,0,.59.16h.17a1.85,1.85,0,0,0,.75-.21c.19-.12.39-.25.6-.41Z" style="fill:#423c25"/><path d="M29.32,104.84l1.12-.21c0,.56.27.89.65,1a3.07,3.07,0,0,0,.71.09,1.27,1.27,0,0,0,.28,0,1,1,0,0,0,.59-.24.9.9,0,0,0,.19-.36V105a.43.43,0,0,0-.09-.26,1.06,1.06,0,0,0-.29-.27,5.6,5.6,0,0,0-1-.34,12,12,0,0,1-1.21-.4,1.56,1.56,0,0,1-.59-.43,1.14,1.14,0,0,1-.24-.71v-.09a1.69,1.69,0,0,1,.16-.73,1.45,1.45,0,0,1,.66-.63,2.73,2.73,0,0,1,1-.3l.39,0a3.27,3.27,0,0,1,.54,0,2.43,2.43,0,0,1,.9.36,2.28,2.28,0,0,1,.71,1.37l-1.05.14c-.14-.48-.32-.75-.54-.82a1.88,1.88,0,0,0-.57-.09H31.5a1.09,1.09,0,0,0-.57.2.57.57,0,0,0-.26.41v0a.43.43,0,0,0,.16.34,2.44,2.44,0,0,0,1,.34,6.26,6.26,0,0,1,1.37.47,1.35,1.35,0,0,1,.72.63A2,2,0,0,1,34,105v0a1.46,1.46,0,0,1-.23.79,1.74,1.74,0,0,1-.76.62,2.92,2.92,0,0,1-1.28.26h-.08a3.54,3.54,0,0,1-1.1-.14,1.77,1.77,0,0,1-.76-.44A2.5,2.5,0,0,1,29.32,104.84Z" style="fill:#423c25"/><path d="M37.86,101.82a2.25,2.25,0,0,1,1.14-.61,3.11,3.11,0,0,1,.69-.07,3.79,3.79,0,0,1,.86.1,1.39,1.39,0,0,1,1.07,1.12,7.47,7.47,0,0,1,.16,1.79c0,.4,0,.85,0,1.35v0c0,.29.11.43.34.43a1.05,1.05,0,0,0,.41-.1l.09,1a3,3,0,0,1-.74.1,1,1,0,0,1-1-.55,2.81,2.81,0,0,1-1,.58,3.12,3.12,0,0,1-.88.13h0a2.14,2.14,0,0,1-.84-.17,1.62,1.62,0,0,1-.65-.49,1.37,1.37,0,0,1-.28-.76,1,1,0,0,1,0-.17,2.24,2.24,0,0,1,.15-.78,1.61,1.61,0,0,1,.91-.86,7.6,7.6,0,0,1,2.5-.52,1.5,1.5,0,0,0-.19-.92,1.14,1.14,0,0,0-.74-.25H39.6a1.43,1.43,0,0,0-.7.15,1,1,0,0,0-.4.82L37.38,103A1.82,1.82,0,0,1,37.86,101.82Zm2.87,2.48a5,5,0,0,0-1.9.4.87.87,0,0,0-.46.72.11.11,0,0,0,0,0,.65.65,0,0,0,.27.58,1.07,1.07,0,0,0,.58.16h.17a1.85,1.85,0,0,0,.75-.21c.19-.12.39-.25.6-.41Z" style="fill:#423c25"/><path d="M43.63,104.84l1.11-.21c.06.56.28.89.66,1a3.05,3.05,0,0,0,.7.09,1.37,1.37,0,0,0,.29,0,1,1,0,0,0,.59-.24,1.05,1.05,0,0,0,.19-.36V105a.43.43,0,0,0-.09-.26,1.06,1.06,0,0,0-.29-.27,5.84,5.84,0,0,0-1-.34,11.62,11.62,0,0,1-1.2-.4,1.56,1.56,0,0,1-.59-.43,1.14,1.14,0,0,1-.24-.71v-.09a1.69,1.69,0,0,1,.16-.73,1.45,1.45,0,0,1,.66-.63,2.74,2.74,0,0,1,1-.3l.4,0a3.08,3.08,0,0,1,.53,0,2.43,2.43,0,0,1,.9.36,2.28,2.28,0,0,1,.72,1.37l-1,.14c-.14-.48-.32-.75-.55-.82a1.82,1.82,0,0,0-.56-.09h-.11a1.09,1.09,0,0,0-.57.2.54.54,0,0,0-.26.41v0a.42.42,0,0,0,.15.34,2.52,2.52,0,0,0,1,.34,6.45,6.45,0,0,1,1.37.47,1.36,1.36,0,0,1,.71.63,1.86,1.86,0,0,1,.14.75v0a1.46,1.46,0,0,1-.23.79,1.74,1.74,0,0,1-.76.62,2.92,2.92,0,0,1-1.28.26H46a3.59,3.59,0,0,1-1.1-.14,1.8,1.8,0,0,1-.75-.44A2.34,2.34,0,0,1,43.63,104.84Z" style="fill:#423c25"/><path d="M52.65,99.32a.64.64,0,0,1,0,1,.7.7,0,0,1-1,0,.62.62,0,0,1-.2-.48.61.61,0,0,1,.2-.47.7.7,0,0,1,1,0Zm-1.09,1.81,1.17,0-.1,5.84h-1Z" style="fill:#423c25"/><path d="M53.91,100.57h.92V98.91L56,98.75v1.77l1.53,0v1l-1.53,0V105a1,1,0,0,0,.1.57.4.4,0,0,0,.34.14,3.84,3.84,0,0,0,.93-.2l.16,1a6.51,6.51,0,0,1-1.4.22,1.86,1.86,0,0,1-1-.36,1.69,1.69,0,0,1-.3-1.06v-3.75h-.92Z" style="fill:#423c25"/><path d="M60.7,104.84l1.11-.21c.06.56.28.89.66,1a3.05,3.05,0,0,0,.7.09,1.37,1.37,0,0,0,.29,0,1,1,0,0,0,.59-.24.87.87,0,0,0,.18-.36.13.13,0,0,0,0-.06.43.43,0,0,0-.09-.26,1.06,1.06,0,0,0-.29-.27,5.84,5.84,0,0,0-1-.34,11.62,11.62,0,0,1-1.2-.4,1.48,1.48,0,0,1-.59-.43,1.14,1.14,0,0,1-.24-.71v-.09a1.69,1.69,0,0,1,.16-.73,1.45,1.45,0,0,1,.66-.63,2.74,2.74,0,0,1,1-.3l.4,0a3.08,3.08,0,0,1,.53,0,2.43,2.43,0,0,1,.9.36,2.28,2.28,0,0,1,.72,1.37l-1.05.14c-.14-.48-.32-.75-.55-.82a1.82,1.82,0,0,0-.56-.09h-.11a1.09,1.09,0,0,0-.57.2.54.54,0,0,0-.26.41v0a.42.42,0,0,0,.15.34,2.44,2.44,0,0,0,1,.34,6.45,6.45,0,0,1,1.37.47,1.36,1.36,0,0,1,.71.63,2,2,0,0,1,.14.75v0a1.46,1.46,0,0,1-.23.79,1.74,1.74,0,0,1-.76.62,3,3,0,0,1-1.28.26H63a3.59,3.59,0,0,1-1.1-.14,1.8,1.8,0,0,1-.75-.44A2.34,2.34,0,0,1,60.7,104.84Z" style="fill:#423c25"/><path d="M67.68,104.22a2.1,2.1,0,0,0,.41,1.33,1.34,1.34,0,0,0,.91.39h.14a1.36,1.36,0,0,0,.79-.22,1.64,1.64,0,0,0,.57-1l1.17.23a3.45,3.45,0,0,1-.65,1.25,1.85,1.85,0,0,1-1.19.65,4.37,4.37,0,0,1-.72.06,3.35,3.35,0,0,1-.71-.07,2.16,2.16,0,0,1-1.19-.68,2.59,2.59,0,0,1-.66-1.24,4.61,4.61,0,0,1-.12-1c0-.13,0-.25,0-.38a3.24,3.24,0,0,1,.36-1.31,2.05,2.05,0,0,1,.78-.9,2.63,2.63,0,0,1,1-.39,3.64,3.64,0,0,1,.6,0l.59,0a2,2,0,0,1,1.29.8,4,4,0,0,1,.59,2.45Zm2.71-.92a1.65,1.65,0,0,0-.38-1,1.2,1.2,0,0,0-.94-.42,1.31,1.31,0,0,0-1,.4,1.41,1.41,0,0,0-.4,1Z" style="fill:#423c25"/><path d="M74,104.22a2.1,2.1,0,0,0,.41,1.33,1.34,1.34,0,0,0,.91.39h.14a1.36,1.36,0,0,0,.79-.22,1.64,1.64,0,0,0,.57-1L78,105a3.31,3.31,0,0,1-.65,1.25,1.83,1.83,0,0,1-1.18.65,4.56,4.56,0,0,1-.72.06,3.38,3.38,0,0,1-.72-.07,2.16,2.16,0,0,1-1.19-.68,2.59,2.59,0,0,1-.66-1.24,4.61,4.61,0,0,1-.12-1c0-.13,0-.25,0-.38a3.24,3.24,0,0,1,.36-1.31,2.05,2.05,0,0,1,.78-.9,2.7,2.7,0,0,1,1-.39,3.64,3.64,0,0,1,.6,0l.6,0a2,2,0,0,1,1.28.8,4,4,0,0,1,.59,2.45Zm2.71-.92a1.59,1.59,0,0,0-.38-1,1.2,1.2,0,0,0-.94-.42,1.29,1.29,0,0,0-1,.4,1.42,1.42,0,0,0-.41,1Z" style="fill:#423c25"/><path d="M80.18,100.17l.06,1.26a1.44,1.44,0,0,1,.82-.91,2.06,2.06,0,0,1,.65-.11,2.49,2.49,0,0,1,.46,0,2.06,2.06,0,0,1,1.15,1,2,2,0,0,1,.82-1,2.19,2.19,0,0,1,1-.23h.11a1.46,1.46,0,0,1,1.14.63A2.34,2.34,0,0,1,87,102.3c0,.21,0,.58,0,1.1,0,.7,0,1.67,0,2.92l-1.06-.09V103.1a2.13,2.13,0,0,0-.39-1.26,1,1,0,0,0-.55-.28h-.05a.83.83,0,0,0-.52.23,1.44,1.44,0,0,0-.46.61,6.41,6.41,0,0,0-.22,1.6l0,1.7-1,0a23.11,23.11,0,0,0-.11-3.22,1.57,1.57,0,0,0-.38-.75.63.63,0,0,0-.48-.23h-.12a1.45,1.45,0,0,0-.61.26,1.37,1.37,0,0,0-.42.57,4.52,4.52,0,0,0-.19,1.47l-.1,2.56h-1L79,100.2Z" style="fill:#423c25"/><path d="M89.27,104.22a2.1,2.1,0,0,0,.41,1.33,1.34,1.34,0,0,0,.91.39h.14a1.36,1.36,0,0,0,.79-.22,1.64,1.64,0,0,0,.57-1l1.17.23a3.31,3.31,0,0,1-.65,1.25,1.83,1.83,0,0,1-1.18.65,4.56,4.56,0,0,1-.72.06,3.38,3.38,0,0,1-.72-.07,2.16,2.16,0,0,1-1.19-.68,2.59,2.59,0,0,1-.66-1.24,4.61,4.61,0,0,1-.12-1c0-.13,0-.25,0-.38a3.24,3.24,0,0,1,.36-1.31,2.05,2.05,0,0,1,.78-.9,2.63,2.63,0,0,1,1-.39,3.64,3.64,0,0,1,.6,0l.6,0a2,2,0,0,1,1.28.8,4,4,0,0,1,.59,2.45ZM92,103.3a1.59,1.59,0,0,0-.38-1,1.2,1.2,0,0,0-.94-.42,1.29,1.29,0,0,0-1,.4,1.42,1.42,0,0,0-.41,1Z" style="fill:#423c25"/><path d="M98.45,106.89l0-1a1.82,1.82,0,0,1-.74.69,2.38,2.38,0,0,1-1.08.24,2.14,2.14,0,0,1-1.2-.39,2,2,0,0,1-.83-1.08,4.66,4.66,0,0,1-.25-1.42s0,0,0-.07a5.19,5.19,0,0,1,.24-1.49,2.22,2.22,0,0,1,.84-1.25,1.85,1.85,0,0,1,1.11-.32,4.75,4.75,0,0,1,.51,0A1.68,1.68,0,0,1,98.42,102l0-2.89h1.2v7.82Zm-2.93-3a2.49,2.49,0,0,0,.36,1.34,1.18,1.18,0,0,0,1,.61,1.25,1.25,0,0,0,1.1-.56,2.17,2.17,0,0,0,.37-1.32v-.07c0-1.32-.48-2-1.37-2a1.24,1.24,0,0,0-1.1.61,2.27,2.27,0,0,0-.36,1.31Z" style="fill:#423c25"/><path d="M101.8,105.2a.65.65,0,0,1,0,1,.73.73,0,0,1-1,0,.68.68,0,0,1,0-1,.7.7,0,0,1,1,0Zm2.54.16a.61.61,0,0,1,.2.47.62.62,0,0,1-.2.48.66.66,0,0,1-.49.2.67.67,0,0,1-.49-1.15.66.66,0,0,1,.49-.2A.7.7,0,0,1,104.34,105.36Zm2.54-.16a.68.68,0,0,1,0,1,.69.69,0,0,1-.5.19.69.69,0,0,1-.49-.19.68.68,0,0,1,0-1,.71.71,0,0,1,1,0Z" style="fill:#423c25"/></g></g></svg>