<svg xmlns="http://www.w3.org/2000/svg" width="150" height="150" viewBox="0 0 150 150"><g id="b7bc1e9a-d8ea-402d-8509-2f681be0ff3e" data-name="fond"><rect x="0.3" y="-0.49" width="149.78" height="150.08" style="fill:#fff"/></g><g id="b8b2095c-c1ac-4989-a8fb-40f50b278809" data-name="shuri peinture"><path d="M159,20l-13.4-.64a2.75,2.75,0,0,0-.2-1.76l0,0a.09.09,0,0,0,.08.05l7.4.37-6.13-4.65h0v0a2.76,2.76,0,0,0,1.51-1Z" style="fill:#fff"/><path d="M153.54-3.66,146.81,8a2.8,2.8,0,0,0-1.64-.64V7.19a.22.22,0,0,0,.2-.12l2.92-5.54-6.42,2.82-.05,0-.1,0a2.6,2.6,0,0,0-.14-1.81Z" style="fill:#fff"/><path d="M152.93,18l-7.4-.37a.09.09,0,0,1-.08-.05s0-.05,0-.07l1.3-4.14s0,0,0,0h0Z" style="fill:#423c25"/><path d="M148.29,1.53l-2.92,5.54a.22.22,0,0,1-.2.12.19.19,0,0,1-.14-.05l-3.18-2.6a.11.11,0,0,1,0-.15l.05,0Z" style="fill:#423c25"/><path d="M146.78,13.36v0s0,0,0,0l-1.3,4.14s0,0,0,.07l0,0a1.66,1.66,0,0,0-.22-.32c-.87-1-2.6-.75-3.6-.17-.12.06-2.05,1.21-1.7,3a2.35,2.35,0,0,0,.92,1.52l-.05.07a.12.12,0,0,0-.12,0l-4,1.08a.17.17,0,0,0-.12.16l-.12,0c.27-1.27-.93-2.49-2-3-.12,0-2.17-1-3.45.36a2.14,2.14,0,0,0-.39.55l-.07,0a.07.07,0,0,0,0-.1l-3.1-2.17-.08,0v-.08l.3,0c1.31-.29,1.88-1.94,1.85-3.1,0-.13-.1-2.38-1.85-2.92a2.86,2.86,0,0,0-1.56-.05l0-.08a.14.14,0,0,0,.08-.1l1.13-3.61a.14.14,0,0,0-.07-.18l.06-.09c1,.77,2.53.39,3.43-.21.11-.08,2-1.35,1.5-3.13a2.57,2.57,0,0,0-.67-1.17l.09-.09a.16.16,0,0,0,.19.08l3.74-1.17a.2.2,0,0,0,.13-.12l.1,0-.08.2c-.41,1.28.75,2.6,1.76,3.15.12.06,2.12,1.09,3.47-.16a3,3,0,0,0,.83-1.37l.1,0a.11.11,0,0,0,0,.15L145,7.14a.19.19,0,0,0,.14.05v.12a1.9,1.9,0,0,0-.4.05c-1.31.3-1.86,2-1.81,3.12,0,.14.14,2.38,1.9,2.89A3.58,3.58,0,0,0,146.78,13.36Zm-8.84,1.26a2.32,2.32,0,1,0-3.26.3A2.3,2.3,0,0,0,137.94,14.62Z" style="fill:#423c25"/><path d="M142.1,22.42V35.88l-7.2-11.32A2.61,2.61,0,0,0,136.36,23l0-.08.12,0a.14.14,0,0,0,0,.1l4,6.33.24-7.55a.13.13,0,0,0,0-.09l.05-.07a2.81,2.81,0,0,0,1.3.49Z" style="fill:#fff"/><path d="M140.79,21.84l-.24,7.55-4-6.33a.14.14,0,0,1,0-.1.17.17,0,0,1,.12-.16l4-1.08a.12.12,0,0,1,.12,0A.13.13,0,0,1,140.79,21.84Z" style="fill:#423c25"/><path d="M137.65,11.36a2.32,2.32,0,1,1-3.27.29A2.3,2.3,0,0,1,137.65,11.36Z" style="fill:#fff"/><path d="M130.66-10.42l6.55,11.71a2.71,2.71,0,0,0-1.47,1.26l-.1,0a.21.21,0,0,0,0-.15l-3.32-6-.73,7.26a.25.25,0,0,0,0,.08l-.09.09a2.82,2.82,0,0,0-1.77-.72Z" style="fill:#fff"/><path d="M135.62,2.35a.21.21,0,0,1,0,.15.2.2,0,0,1-.13.12l-3.74,1.17a.16.16,0,0,1-.19-.08.25.25,0,0,1,0-.08l.73-7.26Z" style="fill:#423c25"/><path d="M130.75,23.2l-12.09,6.11,6.91-11.49a2.77,2.77,0,0,0,1.74.65v.08a.16.16,0,0,0-.14.08l-3.65,6.12,7-3.87a.08.08,0,0,0,0,0l.07,0a1.28,1.28,0,0,0-.18.44A2.68,2.68,0,0,0,130.75,23.2Z" style="fill:#fff"/><path d="M130.49,20.74a.07.07,0,0,1,0,.1.08.08,0,0,1,0,0l-7,3.87,3.65-6.12a.16.16,0,0,1,.14-.08l.08,0Z" style="fill:#423c25"/><path d="M127.17,8.4a.14.14,0,0,1,.07.18l-1.13,3.61a.14.14,0,0,1-.08.1.15.15,0,0,1-.13,0l-6.5-4,7.7.15Z" style="fill:#423c25"/><path d="M127.23,8.31l-.06.09h-.07l-7.7-.15,6.5,4a.15.15,0,0,0,.13,0l0,.08a2.6,2.6,0,0,0-1.49,1l-11.47-7L126.5,6.1a2.59,2.59,0,0,0,.55,2.06Z" style="fill:#fff"/><path d="M145.17,7.31a2.8,2.8,0,0,1,1.64.64l6.73-11.61-12,6.22a2.6,2.6,0,0,1,.14,1.81,3,3,0,0,1-.83,1.37c-1.35,1.25-3.35.22-3.47.16-1-.55-2.17-1.87-1.76-3.15l.08-.2a2.71,2.71,0,0,1,1.47-1.26l-6.55-11.71-.94,13.5a2.82,2.82,0,0,1,1.77.72A2.57,2.57,0,0,1,132.16,5c.47,1.78-1.39,3.05-1.5,3.13-.9.6-2.47,1-3.43.21l-.18-.15a2.59,2.59,0,0,1-.55-2.06l-13.41.24,11.47,7.05a2.6,2.6,0,0,1,1.49-1,2.86,2.86,0,0,1,1.56.05c1.75.54,1.85,2.79,1.85,2.92,0,1.16-.54,2.81-1.85,3.1l-.3,0a2.77,2.77,0,0,1-1.74-.65l-6.91,11.49,12.09-6.11a2.68,2.68,0,0,1-.35-1.88,1.28,1.28,0,0,1,.18-.44,2.14,2.14,0,0,1,.39-.55c1.28-1.33,3.33-.41,3.45-.36,1,.48,2.23,1.7,2,3l0,.08a2.61,2.61,0,0,1-1.46,1.54l7.2,11.32V22.17a2.81,2.81,0,0,1-1.3-.49,2.35,2.35,0,0,1-.92-1.52c-.35-1.8,1.58-2.95,1.7-3,1-.58,2.73-.86,3.6.17a1.66,1.66,0,0,1,.22.32,2.75,2.75,0,0,1,.2,1.76L159,20l-10.71-7.68a2.76,2.76,0,0,1-1.51,1,3.58,3.58,0,0,1-1.92,0c-1.76-.51-1.89-2.75-1.9-2.89-.05-1.15.5-2.82,1.81-3.12A1.9,1.9,0,0,1,145.17,7.31Z" style="fill:none;stroke:#423c25;stroke-miterlimit:10;stroke-width:0.60077714920044px"/><path d="M130.51,20.84a.08.08,0,0,1,0,0l-7,3.87,3.65-6.12a.16.16,0,0,1,.14-.08l.08,0,3.1,2.17A.07.07,0,0,1,130.51,20.84Z" style="fill:none;stroke:#423c25;stroke-miterlimit:10;stroke-width:0.60077714920044px"/><path d="M136.5,23a.14.14,0,0,0,0,.1l4,6.33.24-7.55a.13.13,0,0,0,0-.09.12.12,0,0,0-.12,0l-4,1.08A.17.17,0,0,0,136.5,23Z" style="fill:none;stroke:#423c25;stroke-miterlimit:10;stroke-width:0.60077714920044px"/><path d="M146.78,13.39h0L152.93,18l-7.4-.37a.09.09,0,0,1-.08-.05s0-.05,0-.07l1.3-4.14S146.77,13.39,146.78,13.39Z" style="fill:none;stroke:#423c25;stroke-miterlimit:10;stroke-width:0.60077714920044px"/><path d="M141.82,4.39l.05,0,6.42-2.82-2.92,5.54a.22.22,0,0,1-.2.12.19.19,0,0,1-.14-.05l-3.18-2.6A.11.11,0,0,1,141.82,4.39Z" style="fill:none;stroke:#423c25;stroke-miterlimit:10;stroke-width:0.60077714920044px"/><path d="M135.64,2.5a.21.21,0,0,0,0-.15l-3.32-6-.73,7.26a.25.25,0,0,0,0,.08.16.16,0,0,0,.19.08l3.74-1.17A.2.2,0,0,0,135.64,2.5Z" style="fill:none;stroke:#423c25;stroke-miterlimit:10;stroke-width:0.60077714920044px"/><path d="M126,12.29a.15.15,0,0,1-.13,0l-6.5-4,7.7.15h.07a.14.14,0,0,1,.07.18l-1.13,3.61A.14.14,0,0,1,126,12.29Z" style="fill:none;stroke:#423c25;stroke-miterlimit:10;stroke-width:0.60077714920044px"/><path d="M137.65,11.36a2.32,2.32,0,1,1-3.27.29A2.3,2.3,0,0,1,137.65,11.36Z" style="fill:none;stroke:#423c25;stroke-miterlimit:10;stroke-width:0.60077714920044px"/><path d="M159,20l-13.4-.64a2.75,2.75,0,0,0-.2-1.76l0,0a.09.09,0,0,0,.08.05l7.4.37-6.13-4.65h0v0a2.76,2.76,0,0,0,1.51-1Z" style="fill:#fff"/><path d="M153.54-3.66,146.81,8a2.8,2.8,0,0,0-1.64-.64V7.19a.22.22,0,0,0,.2-.12l2.92-5.54-6.42,2.82-.05,0-.1,0a2.6,2.6,0,0,0-.14-1.81Z" style="fill:#fff"/><path d="M152.93,18l-7.4-.37a.09.09,0,0,1-.08-.05s0-.05,0-.07l1.3-4.14s0,0,0,0h0Z" style="fill:#423c25"/><path d="M148.29,1.53l-2.92,5.54a.22.22,0,0,1-.2.12.19.19,0,0,1-.14-.05l-3.18-2.6a.11.11,0,0,1,0-.15l.05,0Z" style="fill:#423c25"/><path d="M146.78,13.36v0s0,0,0,0l-1.3,4.14s0,0,0,.07l0,0a1.66,1.66,0,0,0-.22-.32c-.87-1-2.6-.75-3.6-.17-.12.06-2.05,1.21-1.7,3a2.35,2.35,0,0,0,.92,1.52l-.05.07a.12.12,0,0,0-.12,0l-4,1.08a.17.17,0,0,0-.12.16l-.12,0c.27-1.27-.93-2.49-2-3-.12,0-2.17-1-3.45.36a2.14,2.14,0,0,0-.39.55l-.07,0a.07.07,0,0,0,0-.1l-3.1-2.17-.08,0v-.08l.3,0c1.31-.29,1.88-1.94,1.85-3.1,0-.13-.1-2.38-1.85-2.92a2.86,2.86,0,0,0-1.56-.05l0-.08a.14.14,0,0,0,.08-.1l1.13-3.61a.14.14,0,0,0-.07-.18l.06-.09c1,.77,2.53.39,3.43-.21.11-.08,2-1.35,1.5-3.13a2.57,2.57,0,0,0-.67-1.17l.09-.09a.16.16,0,0,0,.19.08l3.74-1.17a.2.2,0,0,0,.13-.12l.1,0-.08.2c-.41,1.28.75,2.6,1.76,3.15.12.06,2.12,1.09,3.47-.16a3,3,0,0,0,.83-1.37l.1,0a.11.11,0,0,0,0,.15L145,7.14a.19.19,0,0,0,.14.05v.12a1.9,1.9,0,0,0-.4.05c-1.31.3-1.86,2-1.81,3.12,0,.14.14,2.38,1.9,2.89A3.58,3.58,0,0,0,146.78,13.36Zm-8.84,1.26a2.32,2.32,0,1,0-3.26.3A2.3,2.3,0,0,0,137.94,14.62Z" style="fill:#423c25"/><path d="M142.1,22.42V35.88l-7.2-11.32A2.61,2.61,0,0,0,136.36,23l0-.08.12,0a.14.14,0,0,0,0,.1l4,6.33.24-7.55a.13.13,0,0,0,0-.09l.05-.07a2.81,2.81,0,0,0,1.3.49Z" style="fill:#fff"/><path d="M140.79,21.84l-.24,7.55-4-6.33a.14.14,0,0,1,0-.1.17.17,0,0,1,.12-.16l4-1.08a.12.12,0,0,1,.12,0A.13.13,0,0,1,140.79,21.84Z" style="fill:#423c25"/><path d="M137.65,11.36a2.32,2.32,0,1,1-3.27.29A2.3,2.3,0,0,1,137.65,11.36Z" style="fill:#fff"/><path d="M130.66-10.42l6.55,11.71a2.71,2.71,0,0,0-1.47,1.26l-.1,0a.21.21,0,0,0,0-.15l-3.32-6-.73,7.26a.25.25,0,0,0,0,.08l-.09.09a2.82,2.82,0,0,0-1.77-.72Z" style="fill:#fff"/><path d="M135.62,2.35a.21.21,0,0,1,0,.15.2.2,0,0,1-.13.12l-3.74,1.17a.16.16,0,0,1-.19-.08.25.25,0,0,1,0-.08l.73-7.26Z" style="fill:#423c25"/><path d="M130.75,23.2l-12.09,6.11,6.91-11.49a2.77,2.77,0,0,0,1.74.65v.08a.16.16,0,0,0-.14.08l-3.65,6.12,7-3.87a.08.08,0,0,0,0,0l.07,0a1.28,1.28,0,0,0-.18.44A2.68,2.68,0,0,0,130.75,23.2Z" style="fill:#fff"/><path d="M130.49,20.74a.07.07,0,0,1,0,.1.08.08,0,0,1,0,0l-7,3.87,3.65-6.12a.16.16,0,0,1,.14-.08l.08,0Z" style="fill:#423c25"/><path d="M127.17,8.4a.14.14,0,0,1,.07.18l-1.13,3.61a.14.14,0,0,1-.08.1.15.15,0,0,1-.13,0l-6.5-4,7.7.15Z" style="fill:#423c25"/><path d="M127.23,8.31l-.06.09h-.07l-7.7-.15,6.5,4a.15.15,0,0,0,.13,0l0,.08a2.6,2.6,0,0,0-1.49,1l-11.47-7L126.5,6.1a2.59,2.59,0,0,0,.55,2.06Z" style="fill:#fff"/><path d="M145.17,7.31a2.8,2.8,0,0,1,1.64.64l6.73-11.61-12,6.22a2.6,2.6,0,0,1,.14,1.81,3,3,0,0,1-.83,1.37c-1.35,1.25-3.35.22-3.47.16-1-.55-2.17-1.87-1.76-3.15l.08-.2a2.71,2.71,0,0,1,1.47-1.26l-6.55-11.71-.94,13.5a2.82,2.82,0,0,1,1.77.72A2.57,2.57,0,0,1,132.16,5c.47,1.78-1.39,3.05-1.5,3.13-.9.6-2.47,1-3.43.21l-.18-.15a2.59,2.59,0,0,1-.55-2.06l-13.41.24,11.47,7.05a2.6,2.6,0,0,1,1.49-1,2.86,2.86,0,0,1,1.56.05c1.75.54,1.85,2.79,1.85,2.92,0,1.16-.54,2.81-1.85,3.1l-.3,0a2.77,2.77,0,0,1-1.74-.65l-6.91,11.49,12.09-6.11a2.68,2.68,0,0,1-.35-1.88,1.28,1.28,0,0,1,.18-.44,2.14,2.14,0,0,1,.39-.55c1.28-1.33,3.33-.41,3.45-.36,1,.48,2.23,1.7,2,3l0,.08a2.61,2.61,0,0,1-1.46,1.54l7.2,11.32V22.17a2.81,2.81,0,0,1-1.3-.49,2.35,2.35,0,0,1-.92-1.52c-.35-1.8,1.58-2.95,1.7-3,1-.58,2.73-.86,3.6.17a1.66,1.66,0,0,1,.22.32,2.75,2.75,0,0,1,.2,1.76L159,20l-10.71-7.68a2.76,2.76,0,0,1-1.51,1,3.58,3.58,0,0,1-1.92,0c-1.76-.51-1.89-2.75-1.9-2.89-.05-1.15.5-2.82,1.81-3.12A1.9,1.9,0,0,1,145.17,7.31Z" style="fill:none;stroke:#423c25;stroke-miterlimit:10;stroke-width:0.60077714920044px"/><path d="M130.51,20.84a.08.08,0,0,1,0,0l-7,3.87,3.65-6.12a.16.16,0,0,1,.14-.08l.08,0,3.1,2.17A.07.07,0,0,1,130.51,20.84Z" style="fill:none;stroke:#423c25;stroke-miterlimit:10;stroke-width:0.60077714920044px"/><path d="M136.5,23a.14.14,0,0,0,0,.1l4,6.33.24-7.55a.13.13,0,0,0,0-.09.12.12,0,0,0-.12,0l-4,1.08A.17.17,0,0,0,136.5,23Z" style="fill:none;stroke:#423c25;stroke-miterlimit:10;stroke-width:0.60077714920044px"/><path d="M146.78,13.39h0L152.93,18l-7.4-.37a.09.09,0,0,1-.08-.05s0-.05,0-.07l1.3-4.14S146.77,13.39,146.78,13.39Z" style="fill:none;stroke:#423c25;stroke-miterlimit:10;stroke-width:0.60077714920044px"/><path d="M141.82,4.39l.05,0,6.42-2.82-2.92,5.54a.22.22,0,0,1-.2.12.19.19,0,0,1-.14-.05l-3.18-2.6A.11.11,0,0,1,141.82,4.39Z" style="fill:none;stroke:#423c25;stroke-miterlimit:10;stroke-width:0.60077714920044px"/><path d="M135.64,2.5a.21.21,0,0,0,0-.15l-3.32-6-.73,7.26a.25.25,0,0,0,0,.08.16.16,0,0,0,.19.08l3.74-1.17A.2.2,0,0,0,135.64,2.5Z" style="fill:none;stroke:#423c25;stroke-miterlimit:10;stroke-width:0.60077714920044px"/><path d="M126,12.29a.15.15,0,0,1-.13,0l-6.5-4,7.7.15h.07a.14.14,0,0,1,.07.18l-1.13,3.61A.14.14,0,0,1,126,12.29Z" style="fill:none;stroke:#423c25;stroke-miterlimit:10;stroke-width:0.60077714920044px"/><path d="M137.65,11.36a2.32,2.32,0,1,1-3.27.29A2.3,2.3,0,0,1,137.65,11.36Z" style="fill:none;stroke:#423c25;stroke-miterlimit:10;stroke-width:0.60077714920044px"/><path d="M159,20l-13.4-.64a2.75,2.75,0,0,0-.2-1.76l0,0a.09.09,0,0,0,.08.05l7.4.37-6.13-4.65h0v0a2.76,2.76,0,0,0,1.51-1Z" style="fill:#fff"/><path d="M153.54-3.66,146.81,8a2.8,2.8,0,0,0-1.64-.64V7.19a.22.22,0,0,0,.2-.12l2.92-5.54-6.42,2.82-.05,0-.1,0a2.6,2.6,0,0,0-.14-1.81Z" style="fill:#fff"/><path d="M152.93,18l-7.4-.37a.09.09,0,0,1-.08-.05s0-.05,0-.07l1.3-4.14s0,0,0,0h0Z" style="fill:#423c25"/><path d="M148.29,1.53l-2.92,5.54a.22.22,0,0,1-.2.12.19.19,0,0,1-.14-.05l-3.18-2.6a.11.11,0,0,1,0-.15l.05,0Z" style="fill:#423c25"/><path d="M146.78,13.36v0s0,0,0,0l-1.3,4.14s0,0,0,.07l0,0a1.66,1.66,0,0,0-.22-.32c-.87-1-2.6-.75-3.6-.17-.12.06-2.05,1.21-1.7,3a2.35,2.35,0,0,0,.92,1.52l-.05.07a.12.12,0,0,0-.12,0l-4,1.08a.17.17,0,0,0-.12.16l-.12,0c.27-1.27-.93-2.49-2-3-.12,0-2.17-1-3.45.36a2.14,2.14,0,0,0-.39.55l-.07,0a.07.07,0,0,0,0-.1l-3.1-2.17-.08,0v-.08l.3,0c1.31-.29,1.88-1.94,1.85-3.1,0-.13-.1-2.38-1.85-2.92a2.86,2.86,0,0,0-1.56-.05l0-.08a.14.14,0,0,0,.08-.1l1.13-3.61a.14.14,0,0,0-.07-.18l.06-.09c1,.77,2.53.39,3.43-.21.11-.08,2-1.35,1.5-3.13a2.57,2.57,0,0,0-.67-1.17l.09-.09a.16.16,0,0,0,.19.08l3.74-1.17a.2.2,0,0,0,.13-.12l.1,0-.08.2c-.41,1.28.75,2.6,1.76,3.15.12.06,2.12,1.09,3.47-.16a3,3,0,0,0,.83-1.37l.1,0a.11.11,0,0,0,0,.15L145,7.14a.19.19,0,0,0,.14.05v.12a1.9,1.9,0,0,0-.4.05c-1.31.3-1.86,2-1.81,3.12,0,.14.14,2.38,1.9,2.89A3.58,3.58,0,0,0,146.78,13.36Zm-8.84,1.26a2.32,2.32,0,1,0-3.26.3A2.3,2.3,0,0,0,137.94,14.62Z" style="fill:#423c25"/><path d="M142.1,22.42V35.88l-7.2-11.32A2.61,2.61,0,0,0,136.36,23l0-.08.12,0a.14.14,0,0,0,0,.1l4,6.33.24-7.55a.13.13,0,0,0,0-.09l.05-.07a2.81,2.81,0,0,0,1.3.49Z" style="fill:#fff"/><path d="M140.79,21.84l-.24,7.55-4-6.33a.14.14,0,0,1,0-.1.17.17,0,0,1,.12-.16l4-1.08a.12.12,0,0,1,.12,0A.13.13,0,0,1,140.79,21.84Z" style="fill:#423c25"/><path d="M137.65,11.36a2.32,2.32,0,1,1-3.27.29A2.3,2.3,0,0,1,137.65,11.36Z" style="fill:#fff"/><path d="M130.66-10.42l6.55,11.71a2.71,2.71,0,0,0-1.47,1.26l-.1,0a.21.21,0,0,0,0-.15l-3.32-6-.73,7.26a.25.25,0,0,0,0,.08l-.09.09a2.82,2.82,0,0,0-1.77-.72Z" style="fill:#fff"/><path d="M135.62,2.35a.21.21,0,0,1,0,.15.2.2,0,0,1-.13.12l-3.74,1.17a.16.16,0,0,1-.19-.08.25.25,0,0,1,0-.08l.73-7.26Z" style="fill:#423c25"/><path d="M130.75,23.2l-12.09,6.11,6.91-11.49a2.77,2.77,0,0,0,1.74.65v.08a.16.16,0,0,0-.14.08l-3.65,6.12,7-3.87a.08.08,0,0,0,0,0l.07,0a1.28,1.28,0,0,0-.18.44A2.68,2.68,0,0,0,130.75,23.2Z" style="fill:#fff"/><path d="M130.49,20.74a.07.07,0,0,1,0,.1.08.08,0,0,1,0,0l-7,3.87,3.65-6.12a.16.16,0,0,1,.14-.08l.08,0Z" style="fill:#423c25"/><path d="M127.17,8.4a.14.14,0,0,1,.07.18l-1.13,3.61a.14.14,0,0,1-.08.1.15.15,0,0,1-.13,0l-6.5-4,7.7.15Z" style="fill:#423c25"/><path d="M127.23,8.31l-.06.09h-.07l-7.7-.15,6.5,4a.15.15,0,0,0,.13,0l0,.08a2.6,2.6,0,0,0-1.49,1l-11.47-7L126.5,6.1a2.59,2.59,0,0,0,.55,2.06Z" style="fill:#fff"/><path d="M145.17,7.31a2.8,2.8,0,0,1,1.64.64l6.73-11.61-12,6.22a2.6,2.6,0,0,1,.14,1.81,3,3,0,0,1-.83,1.37c-1.35,1.25-3.35.22-3.47.16-1-.55-2.17-1.87-1.76-3.15l.08-.2a2.71,2.71,0,0,1,1.47-1.26l-6.55-11.71-.94,13.5a2.82,2.82,0,0,1,1.77.72A2.57,2.57,0,0,1,132.16,5c.47,1.78-1.39,3.05-1.5,3.13-.9.6-2.47,1-3.43.21l-.18-.15a2.59,2.59,0,0,1-.55-2.06l-13.41.24,11.47,7.05a2.6,2.6,0,0,1,1.49-1,2.86,2.86,0,0,1,1.56.05c1.75.54,1.85,2.79,1.85,2.92,0,1.16-.54,2.81-1.85,3.1l-.3,0a2.77,2.77,0,0,1-1.74-.65l-6.91,11.49,12.09-6.11a2.68,2.68,0,0,1-.35-1.88,1.28,1.28,0,0,1,.18-.44,2.14,2.14,0,0,1,.39-.55c1.28-1.33,3.33-.41,3.45-.36,1,.48,2.23,1.7,2,3l0,.08a2.61,2.61,0,0,1-1.46,1.54l7.2,11.32V22.17a2.81,2.81,0,0,1-1.3-.49,2.35,2.35,0,0,1-.92-1.52c-.35-1.8,1.58-2.95,1.7-3,1-.58,2.73-.86,3.6.17a1.66,1.66,0,0,1,.22.32,2.75,2.75,0,0,1,.2,1.76L159,20l-10.71-7.68a2.76,2.76,0,0,1-1.51,1,3.58,3.58,0,0,1-1.92,0c-1.76-.51-1.89-2.75-1.9-2.89-.05-1.15.5-2.82,1.81-3.12A1.9,1.9,0,0,1,145.17,7.31Z" style="fill:none;stroke:#423c25;stroke-miterlimit:10;stroke-width:0.60077714920044px"/><path d="M130.51,20.84a.08.08,0,0,1,0,0l-7,3.87,3.65-6.12a.16.16,0,0,1,.14-.08l.08,0,3.1,2.17A.07.07,0,0,1,130.51,20.84Z" style="fill:none;stroke:#423c25;stroke-miterlimit:10;stroke-width:0.60077714920044px"/><path d="M136.5,23a.14.14,0,0,0,0,.1l4,6.33.24-7.55a.13.13,0,0,0,0-.09.12.12,0,0,0-.12,0l-4,1.08A.17.17,0,0,0,136.5,23Z" style="fill:none;stroke:#423c25;stroke-miterlimit:10;stroke-width:0.60077714920044px"/><path d="M146.78,13.39h0L152.93,18l-7.4-.37a.09.09,0,0,1-.08-.05s0-.05,0-.07l1.3-4.14S146.77,13.39,146.78,13.39Z" style="fill:none;stroke:#423c25;stroke-miterlimit:10;stroke-width:0.60077714920044px"/><path d="M141.82,4.39l.05,0,6.42-2.82-2.92,5.54a.22.22,0,0,1-.2.12.19.19,0,0,1-.14-.05l-3.18-2.6A.11.11,0,0,1,141.82,4.39Z" style="fill:none;stroke:#423c25;stroke-miterlimit:10;stroke-width:0.60077714920044px"/><path d="M135.64,2.5a.21.21,0,0,0,0-.15l-3.32-6-.73,7.26a.25.25,0,0,0,0,.08.16.16,0,0,0,.19.08l3.74-1.17A.2.2,0,0,0,135.64,2.5Z" style="fill:none;stroke:#423c25;stroke-miterlimit:10;stroke-width:0.60077714920044px"/><path d="M126,12.29a.15.15,0,0,1-.13,0l-6.5-4,7.7.15h.07a.14.14,0,0,1,.07.18l-1.13,3.61A.14.14,0,0,1,126,12.29Z" style="fill:none;stroke:#423c25;stroke-miterlimit:10;stroke-width:0.60077714920044px"/><path d="M137.65,11.36a2.32,2.32,0,1,1-3.27.29A2.3,2.3,0,0,1,137.65,11.36Z" style="fill:none;stroke:#423c25;stroke-miterlimit:10;stroke-width:0.60077714920044px"/><path d="M159,20l-13.4-.64a2.75,2.75,0,0,0-.2-1.76l0,0a.09.09,0,0,0,.08.05l7.4.37-6.13-4.65h0v0a2.76,2.76,0,0,0,1.51-1Z" style="fill:#fff"/><path d="M153.54-3.66,146.81,8a2.8,2.8,0,0,0-1.64-.64V7.19a.22.22,0,0,0,.2-.12l2.92-5.54-6.42,2.82-.05,0-.1,0a2.6,2.6,0,0,0-.14-1.81Z" style="fill:#fff"/><path d="M152.93,18l-7.4-.37a.09.09,0,0,1-.08-.05s0-.05,0-.07l1.3-4.14s0,0,0,0h0Z" style="fill:#423c25"/><path d="M148.29,1.53l-2.92,5.54a.22.22,0,0,1-.2.12.19.19,0,0,1-.14-.05l-3.18-2.6a.11.11,0,0,1,0-.15l.05,0Z" style="fill:#423c25"/><path d="M146.78,13.36v0s0,0,0,0l-1.3,4.14s0,0,0,.07l0,0a1.66,1.66,0,0,0-.22-.32c-.87-1-2.6-.75-3.6-.17-.12.06-2.05,1.21-1.7,3a2.35,2.35,0,0,0,.92,1.52l-.05.07a.12.12,0,0,0-.12,0l-4,1.08a.17.17,0,0,0-.12.16l-.12,0c.27-1.27-.93-2.49-2-3-.12,0-2.17-1-3.45.36a2.14,2.14,0,0,0-.39.55l-.07,0a.07.07,0,0,0,0-.1l-3.1-2.17-.08,0v-.08l.3,0c1.31-.29,1.88-1.94,1.85-3.1,0-.13-.1-2.38-1.85-2.92a2.86,2.86,0,0,0-1.56-.05l0-.08a.14.14,0,0,0,.08-.1l1.13-3.61a.14.14,0,0,0-.07-.18l.06-.09c1,.77,2.53.39,3.43-.21.11-.08,2-1.35,1.5-3.13a2.57,2.57,0,0,0-.67-1.17l.09-.09a.16.16,0,0,0,.19.08l3.74-1.17a.2.2,0,0,0,.13-.12l.1,0-.08.2c-.41,1.28.75,2.6,1.76,3.15.12.06,2.12,1.09,3.47-.16a3,3,0,0,0,.83-1.37l.1,0a.11.11,0,0,0,0,.15L145,7.14a.19.19,0,0,0,.14.05v.12a1.9,1.9,0,0,0-.4.05c-1.31.3-1.86,2-1.81,3.12,0,.14.14,2.38,1.9,2.89A3.58,3.58,0,0,0,146.78,13.36Zm-8.84,1.26a2.32,2.32,0,1,0-3.26.3A2.3,2.3,0,0,0,137.94,14.62Z" style="fill:#423c25"/><path d="M142.1,22.42V35.88l-7.2-11.32A2.61,2.61,0,0,0,136.36,23l0-.08.12,0a.14.14,0,0,0,0,.1l4,6.33.24-7.55a.13.13,0,0,0,0-.09l.05-.07a2.81,2.81,0,0,0,1.3.49Z" style="fill:#fff"/><path d="M140.79,21.84l-.24,7.55-4-6.33a.14.14,0,0,1,0-.1.17.17,0,0,1,.12-.16l4-1.08a.12.12,0,0,1,.12,0A.13.13,0,0,1,140.79,21.84Z" style="fill:#423c25"/><path d="M137.65,11.36a2.32,2.32,0,1,1-3.27.29A2.3,2.3,0,0,1,137.65,11.36Z" style="fill:#fff"/><path d="M130.66-10.42l6.55,11.71a2.71,2.71,0,0,0-1.47,1.26l-.1,0a.21.21,0,0,0,0-.15l-3.32-6-.73,7.26a.25.25,0,0,0,0,.08l-.09.09a2.82,2.82,0,0,0-1.77-.72Z" style="fill:#fff"/><path d="M135.62,2.35a.21.21,0,0,1,0,.15.2.2,0,0,1-.13.12l-3.74,1.17a.16.16,0,0,1-.19-.08.25.25,0,0,1,0-.08l.73-7.26Z" style="fill:#423c25"/><path d="M130.75,23.2l-12.09,6.11,6.91-11.49a2.77,2.77,0,0,0,1.74.65v.08a.16.16,0,0,0-.14.08l-3.65,6.12,7-3.87a.08.08,0,0,0,0,0l.07,0a1.28,1.28,0,0,0-.18.44A2.68,2.68,0,0,0,130.75,23.2Z" style="fill:#fff"/><path d="M130.49,20.74a.07.07,0,0,1,0,.1.08.08,0,0,1,0,0l-7,3.87,3.65-6.12a.16.16,0,0,1,.14-.08l.08,0Z" style="fill:#423c25"/><path d="M127.17,8.4a.14.14,0,0,1,.07.18l-1.13,3.61a.14.14,0,0,1-.08.1.15.15,0,0,1-.13,0l-6.5-4,7.7.15Z" style="fill:#423c25"/><path d="M127.23,8.31l-.06.09h-.07l-7.7-.15,6.5,4a.15.15,0,0,0,.13,0l0,.08a2.6,2.6,0,0,0-1.49,1l-11.47-7L126.5,6.1a2.59,2.59,0,0,0,.55,2.06Z" style="fill:#fff"/><path d="M145.17,7.31a2.8,2.8,0,0,1,1.64.64l6.73-11.61-12,6.22a2.6,2.6,0,0,1,.14,1.81,3,3,0,0,1-.83,1.37c-1.35,1.25-3.35.22-3.47.16-1-.55-2.17-1.87-1.76-3.15l.08-.2a2.71,2.71,0,0,1,1.47-1.26l-6.55-11.71-.94,13.5a2.82,2.82,0,0,1,1.77.72A2.57,2.57,0,0,1,132.16,5c.47,1.78-1.39,3.05-1.5,3.13-.9.6-2.47,1-3.43.21l-.18-.15a2.59,2.59,0,0,1-.55-2.06l-13.41.24,11.47,7.05a2.6,2.6,0,0,1,1.49-1,2.86,2.86,0,0,1,1.56.05c1.75.54,1.85,2.79,1.85,2.92,0,1.16-.54,2.81-1.85,3.1l-.3,0a2.77,2.77,0,0,1-1.74-.65l-6.91,11.49,12.09-6.11a2.68,2.68,0,0,1-.35-1.88,1.28,1.28,0,0,1,.18-.44,2.14,2.14,0,0,1,.39-.55c1.28-1.33,3.33-.41,3.45-.36,1,.48,2.23,1.7,2,3l0,.08a2.61,2.61,0,0,1-1.46,1.54l7.2,11.32V22.17a2.81,2.81,0,0,1-1.3-.49,2.35,2.35,0,0,1-.92-1.52c-.35-1.8,1.58-2.95,1.7-3,1-.58,2.73-.86,3.6.17a1.66,1.66,0,0,1,.22.32,2.75,2.75,0,0,1,.2,1.76L159,20l-10.71-7.68a2.76,2.76,0,0,1-1.51,1,3.58,3.58,0,0,1-1.92,0c-1.76-.51-1.89-2.75-1.9-2.89-.05-1.15.5-2.82,1.81-3.12A1.9,1.9,0,0,1,145.17,7.31Z" style="fill:none;stroke:#423c25;stroke-miterlimit:10;stroke-width:0.60077714920044px"/><path d="M130.51,20.84a.08.08,0,0,1,0,0l-7,3.87,3.65-6.12a.16.16,0,0,1,.14-.08l.08,0,3.1,2.17A.07.07,0,0,1,130.51,20.84Z" style="fill:none;stroke:#423c25;stroke-miterlimit:10;stroke-width:0.60077714920044px"/><path d="M136.5,23a.14.14,0,0,0,0,.1l4,6.33.24-7.55a.13.13,0,0,0,0-.09.12.12,0,0,0-.12,0l-4,1.08A.17.17,0,0,0,136.5,23Z" style="fill:none;stroke:#423c25;stroke-miterlimit:10;stroke-width:0.60077714920044px"/><path d="M146.78,13.39h0L152.93,18l-7.4-.37a.09.09,0,0,1-.08-.05s0-.05,0-.07l1.3-4.14S146.77,13.39,146.78,13.39Z" style="fill:none;stroke:#423c25;stroke-miterlimit:10;stroke-width:0.60077714920044px"/><path d="M141.82,4.39l.05,0,6.42-2.82-2.92,5.54a.22.22,0,0,1-.2.12.19.19,0,0,1-.14-.05l-3.18-2.6A.11.11,0,0,1,141.82,4.39Z" style="fill:none;stroke:#423c25;stroke-miterlimit:10;stroke-width:0.60077714920044px"/><path d="M135.64,2.5a.21.21,0,0,0,0-.15l-3.32-6-.73,7.26a.25.25,0,0,0,0,.08.16.16,0,0,0,.19.08l3.74-1.17A.2.2,0,0,0,135.64,2.5Z" style="fill:none;stroke:#423c25;stroke-miterlimit:10;stroke-width:0.60077714920044px"/><path d="M126,12.29a.15.15,0,0,1-.13,0l-6.5-4,7.7.15h.07a.14.14,0,0,1,.07.18l-1.13,3.61A.14.14,0,0,1,126,12.29Z" style="fill:none;stroke:#423c25;stroke-miterlimit:10;stroke-width:0.60077714920044px"/><path d="M137.65,11.36a2.32,2.32,0,1,1-3.27.29A2.3,2.3,0,0,1,137.65,11.36Z" style="fill:none;stroke:#423c25;stroke-miterlimit:10;stroke-width:0.60077714920044px"/><path d="M159,20l-13.4-.64a2.75,2.75,0,0,0-.2-1.76l0,0a.09.09,0,0,0,.08.05l7.4.37-6.13-4.65h0v0a2.76,2.76,0,0,0,1.51-1Z" style="fill:#fff"/><path d="M153.54-3.66,146.81,8a2.8,2.8,0,0,0-1.64-.64V7.19a.22.22,0,0,0,.2-.12l2.92-5.54-6.42,2.82-.05,0-.1,0a2.6,2.6,0,0,0-.14-1.81Z" style="fill:#fff"/><path d="M152.93,18l-7.4-.37a.09.09,0,0,1-.08-.05s0-.05,0-.07l1.3-4.14s0,0,0,0h0Z" style="fill:#423c25"/><path d="M148.29,1.53l-2.92,5.54a.22.22,0,0,1-.2.12.19.19,0,0,1-.14-.05l-3.18-2.6a.11.11,0,0,1,0-.15l.05,0Z" style="fill:#423c25"/><path d="M146.78,13.36v0s0,0,0,0l-1.3,4.14s0,0,0,.07l0,0a1.66,1.66,0,0,0-.22-.32c-.87-1-2.6-.75-3.6-.17-.12.06-2.05,1.21-1.7,3a2.35,2.35,0,0,0,.92,1.52l-.05.07a.12.12,0,0,0-.12,0l-4,1.08a.17.17,0,0,0-.12.16l-.12,0c.27-1.27-.93-2.49-2-3-.12,0-2.17-1-3.45.36a2.14,2.14,0,0,0-.39.55l-.07,0a.07.07,0,0,0,0-.1l-3.1-2.17-.08,0v-.08l.3,0c1.31-.29,1.88-1.94,1.85-3.1,0-.13-.1-2.38-1.85-2.92a2.86,2.86,0,0,0-1.56-.05l0-.08a.14.14,0,0,0,.08-.1l1.13-3.61a.14.14,0,0,0-.07-.18l.06-.09c1,.77,2.53.39,3.43-.21.11-.08,2-1.35,1.5-3.13a2.57,2.57,0,0,0-.67-1.17l.09-.09a.16.16,0,0,0,.19.08l3.74-1.17a.2.2,0,0,0,.13-.12l.1,0-.08.2c-.41,1.28.75,2.6,1.76,3.15.12.06,2.12,1.09,3.47-.16a3,3,0,0,0,.83-1.37l.1,0a.11.11,0,0,0,0,.15L145,7.14a.19.19,0,0,0,.14.05v.12a1.9,1.9,0,0,0-.4.05c-1.31.3-1.86,2-1.81,3.12,0,.14.14,2.38,1.9,2.89A3.58,3.58,0,0,0,146.78,13.36Zm-8.84,1.26a2.32,2.32,0,1,0-3.26.3A2.3,2.3,0,0,0,137.94,14.62Z" style="fill:#423c25"/><path d="M142.1,22.42V35.88l-7.2-11.32A2.61,2.61,0,0,0,136.36,23l0-.08.12,0a.14.14,0,0,0,0,.1l4,6.33.24-7.55a.13.13,0,0,0,0-.09l.05-.07a2.81,2.81,0,0,0,1.3.49Z" style="fill:#fff"/><path d="M140.79,21.84l-.24,7.55-4-6.33a.14.14,0,0,1,0-.1.17.17,0,0,1,.12-.16l4-1.08a.12.12,0,0,1,.12,0A.13.13,0,0,1,140.79,21.84Z" style="fill:#423c25"/><path d="M137.65,11.36a2.32,2.32,0,1,1-3.27.29A2.3,2.3,0,0,1,137.65,11.36Z" style="fill:#fff"/><path d="M130.66-10.42l6.55,11.71a2.71,2.71,0,0,0-1.47,1.26l-.1,0a.21.21,0,0,0,0-.15l-3.32-6-.73,7.26a.25.25,0,0,0,0,.08l-.09.09a2.82,2.82,0,0,0-1.77-.72Z" style="fill:#fff"/><path d="M135.62,2.35a.21.21,0,0,1,0,.15.2.2,0,0,1-.13.12l-3.74,1.17a.16.16,0,0,1-.19-.08.25.25,0,0,1,0-.08l.73-7.26Z" style="fill:#423c25"/><path d="M130.75,23.2l-12.09,6.11,6.91-11.49a2.77,2.77,0,0,0,1.74.65v.08a.16.16,0,0,0-.14.08l-3.65,6.12,7-3.87a.08.08,0,0,0,0,0l.07,0a1.28,1.28,0,0,0-.18.44A2.68,2.68,0,0,0,130.75,23.2Z" style="fill:#fff"/><path d="M130.49,20.74a.07.07,0,0,1,0,.1.08.08,0,0,1,0,0l-7,3.87,3.65-6.12a.16.16,0,0,1,.14-.08l.08,0Z" style="fill:#423c25"/><path d="M127.17,8.4a.14.14,0,0,1,.07.18l-1.13,3.61a.14.14,0,0,1-.08.1.15.15,0,0,1-.13,0l-6.5-4,7.7.15Z" style="fill:#423c25"/><path d="M127.23,8.31l-.06.09h-.07l-7.7-.15,6.5,4a.15.15,0,0,0,.13,0l0,.08a2.6,2.6,0,0,0-1.49,1l-11.47-7L126.5,6.1a2.59,2.59,0,0,0,.55,2.06Z" style="fill:#fff"/><path d="M145.17,7.31a2.8,2.8,0,0,1,1.64.64l6.73-11.61-12,6.22a2.6,2.6,0,0,1,.14,1.81,3,3,0,0,1-.83,1.37c-1.35,1.25-3.35.22-3.47.16-1-.55-2.17-1.87-1.76-3.15l.08-.2a2.71,2.71,0,0,1,1.47-1.26l-6.55-11.71-.94,13.5a2.82,2.82,0,0,1,1.77.72A2.57,2.57,0,0,1,132.16,5c.47,1.78-1.39,3.05-1.5,3.13-.9.6-2.47,1-3.43.21l-.18-.15a2.59,2.59,0,0,1-.55-2.06l-13.41.24,11.47,7.05a2.6,2.6,0,0,1,1.49-1,2.86,2.86,0,0,1,1.56.05c1.75.54,1.85,2.79,1.85,2.92,0,1.16-.54,2.81-1.85,3.1l-.3,0a2.77,2.77,0,0,1-1.74-.65l-6.91,11.49,12.09-6.11a2.68,2.68,0,0,1-.35-1.88,1.28,1.28,0,0,1,.18-.44,2.14,2.14,0,0,1,.39-.55c1.28-1.33,3.33-.41,3.45-.36,1,.48,2.23,1.7,2,3l0,.08a2.61,2.61,0,0,1-1.46,1.54l7.2,11.32V22.17a2.81,2.81,0,0,1-1.3-.49,2.35,2.35,0,0,1-.92-1.52c-.35-1.8,1.58-2.95,1.7-3,1-.58,2.73-.86,3.6.17a1.66,1.66,0,0,1,.22.32,2.75,2.75,0,0,1,.2,1.76L159,20l-10.71-7.68a2.76,2.76,0,0,1-1.51,1,3.58,3.58,0,0,1-1.92,0c-1.76-.51-1.89-2.75-1.9-2.89-.05-1.15.5-2.82,1.81-3.12A1.9,1.9,0,0,1,145.17,7.31Z" style="fill:none;stroke:#423c25;stroke-miterlimit:10;stroke-width:0.60077714920044px"/><path d="M130.51,20.84a.08.08,0,0,1,0,0l-7,3.87,3.65-6.12a.16.16,0,0,1,.14-.08l.08,0,3.1,2.17A.07.07,0,0,1,130.51,20.84Z" style="fill:none;stroke:#423c25;stroke-miterlimit:10;stroke-width:0.60077714920044px"/><path d="M136.5,23a.14.14,0,0,0,0,.1l4,6.33.24-7.55a.13.13,0,0,0,0-.09.12.12,0,0,0-.12,0l-4,1.08A.17.17,0,0,0,136.5,23Z" style="fill:none;stroke:#423c25;stroke-miterlimit:10;stroke-width:0.60077714920044px"/><path d="M146.78,13.39h0L152.93,18l-7.4-.37a.09.09,0,0,1-.08-.05s0-.05,0-.07l1.3-4.14S146.77,13.39,146.78,13.39Z" style="fill:none;stroke:#423c25;stroke-miterlimit:10;stroke-width:0.60077714920044px"/><path d="M141.82,4.39l.05,0,6.42-2.82-2.92,5.54a.22.22,0,0,1-.2.12.19.19,0,0,1-.14-.05l-3.18-2.6A.11.11,0,0,1,141.82,4.39Z" style="fill:none;stroke:#423c25;stroke-miterlimit:10;stroke-width:0.60077714920044px"/><path d="M135.64,2.5a.21.21,0,0,0,0-.15l-3.32-6-.73,7.26a.25.25,0,0,0,0,.08.16.16,0,0,0,.19.08l3.74-1.17A.2.2,0,0,0,135.64,2.5Z" style="fill:none;stroke:#423c25;stroke-miterlimit:10;stroke-width:0.60077714920044px"/><path d="M126,12.29a.15.15,0,0,1-.13,0l-6.5-4,7.7.15h.07a.14.14,0,0,1,.07.18l-1.13,3.61A.14.14,0,0,1,126,12.29Z" style="fill:none;stroke:#423c25;stroke-miterlimit:10;stroke-width:0.60077714920044px"/><path d="M137.65,11.36a2.32,2.32,0,1,1-3.27.29A2.3,2.3,0,0,1,137.65,11.36Z" style="fill:none;stroke:#423c25;stroke-miterlimit:10;stroke-width:0.60077714920044px"/><path d="M159,20l-13.4-.64a2.75,2.75,0,0,0-.2-1.76l0,0a.09.09,0,0,0,.08.05l7.4.37-6.13-4.65h0v0a2.76,2.76,0,0,0,1.51-1Z" style="fill:#fff"/><path d="M153.54-3.66,146.81,8a2.8,2.8,0,0,0-1.64-.64V7.19a.22.22,0,0,0,.2-.12l2.92-5.54-6.42,2.82-.05,0-.1,0a2.6,2.6,0,0,0-.14-1.81Z" style="fill:#fff"/><path d="M152.93,18l-7.4-.37a.09.09,0,0,1-.08-.05s0-.05,0-.07l1.3-4.14s0,0,0,0h0Z" style="fill:#423c25"/><path d="M148.29,1.53l-2.92,5.54a.22.22,0,0,1-.2.12.19.19,0,0,1-.14-.05l-3.18-2.6a.11.11,0,0,1,0-.15l.05,0Z" style="fill:#423c25"/><path d="M146.78,13.36v0s0,0,0,0l-1.3,4.14s0,0,0,.07l0,0a1.66,1.66,0,0,0-.22-.32c-.87-1-2.6-.75-3.6-.17-.12.06-2.05,1.21-1.7,3a2.35,2.35,0,0,0,.92,1.52l-.05.07a.12.12,0,0,0-.12,0l-4,1.08a.17.17,0,0,0-.12.16l-.12,0c.27-1.27-.93-2.49-2-3-.12,0-2.17-1-3.45.36a2.14,2.14,0,0,0-.39.55l-.07,0a.07.07,0,0,0,0-.1l-3.1-2.17-.08,0v-.08l.3,0c1.31-.29,1.88-1.94,1.85-3.1,0-.13-.1-2.38-1.85-2.92a2.86,2.86,0,0,0-1.56-.05l0-.08a.14.14,0,0,0,.08-.1l1.13-3.61a.14.14,0,0,0-.07-.18l.06-.09c1,.77,2.53.39,3.43-.21.11-.08,2-1.35,1.5-3.13a2.57,2.57,0,0,0-.67-1.17l.09-.09a.16.16,0,0,0,.19.08l3.74-1.17a.2.2,0,0,0,.13-.12l.1,0-.08.2c-.41,1.28.75,2.6,1.76,3.15.12.06,2.12,1.09,3.47-.16a3,3,0,0,0,.83-1.37l.1,0a.11.11,0,0,0,0,.15L145,7.14a.19.19,0,0,0,.14.05v.12a1.9,1.9,0,0,0-.4.05c-1.31.3-1.86,2-1.81,3.12,0,.14.14,2.38,1.9,2.89A3.58,3.58,0,0,0,146.78,13.36Zm-8.84,1.26a2.32,2.32,0,1,0-3.26.3A2.3,2.3,0,0,0,137.94,14.62Z" style="fill:#423c25"/><path d="M142.1,22.42V35.88l-7.2-11.32A2.61,2.61,0,0,0,136.36,23l0-.08.12,0a.14.14,0,0,0,0,.1l4,6.33.24-7.55a.13.13,0,0,0,0-.09l.05-.07a2.81,2.81,0,0,0,1.3.49Z" style="fill:#fff"/><path d="M140.79,21.84l-.24,7.55-4-6.33a.14.14,0,0,1,0-.1.17.17,0,0,1,.12-.16l4-1.08a.12.12,0,0,1,.12,0A.13.13,0,0,1,140.79,21.84Z" style="fill:#423c25"/><path d="M137.65,11.36a2.32,2.32,0,1,1-3.27.29A2.3,2.3,0,0,1,137.65,11.36Z" style="fill:#fff"/><path d="M130.66-10.42l6.55,11.71a2.71,2.71,0,0,0-1.47,1.26l-.1,0a.21.21,0,0,0,0-.15l-3.32-6-.73,7.26a.25.25,0,0,0,0,.08l-.09.09a2.82,2.82,0,0,0-1.77-.72Z" style="fill:#fff"/><path d="M135.62,2.35a.21.21,0,0,1,0,.15.2.2,0,0,1-.13.12l-3.74,1.17a.16.16,0,0,1-.19-.08.25.25,0,0,1,0-.08l.73-7.26Z" style="fill:#423c25"/><path d="M130.75,23.2l-12.09,6.11,6.91-11.49a2.77,2.77,0,0,0,1.74.65v.08a.16.16,0,0,0-.14.08l-3.65,6.12,7-3.87a.08.08,0,0,0,0,0l.07,0a1.28,1.28,0,0,0-.18.44A2.68,2.68,0,0,0,130.75,23.2Z" style="fill:#fff"/><path d="M130.49,20.74a.07.07,0,0,1,0,.1.08.08,0,0,1,0,0l-7,3.87,3.65-6.12a.16.16,0,0,1,.14-.08l.08,0Z" style="fill:#423c25"/><path d="M127.17,8.4a.14.14,0,0,1,.07.18l-1.13,3.61a.14.14,0,0,1-.08.1.15.15,0,0,1-.13,0l-6.5-4,7.7.15Z" style="fill:#423c25"/><path d="M127.23,8.31l-.06.09h-.07l-7.7-.15,6.5,4a.15.15,0,0,0,.13,0l0,.08a2.6,2.6,0,0,0-1.49,1l-11.47-7L126.5,6.1a2.59,2.59,0,0,0,.55,2.06Z" style="fill:#fff"/><path d="M145.17,7.31a2.8,2.8,0,0,1,1.64.64l6.73-11.61-12,6.22a2.6,2.6,0,0,1,.14,1.81,3,3,0,0,1-.83,1.37c-1.35,1.25-3.35.22-3.47.16-1-.55-2.17-1.87-1.76-3.15l.08-.2a2.71,2.71,0,0,1,1.47-1.26l-6.55-11.71-.94,13.5a2.82,2.82,0,0,1,1.77.72A2.57,2.57,0,0,1,132.16,5c.47,1.78-1.39,3.05-1.5,3.13-.9.6-2.47,1-3.43.21l-.18-.15a2.59,2.59,0,0,1-.55-2.06l-13.41.24,11.47,7.05a2.6,2.6,0,0,1,1.49-1,2.86,2.86,0,0,1,1.56.05c1.75.54,1.85,2.79,1.85,2.92,0,1.16-.54,2.81-1.85,3.1l-.3,0a2.77,2.77,0,0,1-1.74-.65l-6.91,11.49,12.09-6.11a2.68,2.68,0,0,1-.35-1.88,1.28,1.28,0,0,1,.18-.44,2.14,2.14,0,0,1,.39-.55c1.28-1.33,3.33-.41,3.45-.36,1,.48,2.23,1.7,2,3l0,.08a2.61,2.61,0,0,1-1.46,1.54l7.2,11.32V22.17a2.81,2.81,0,0,1-1.3-.49,2.35,2.35,0,0,1-.92-1.52c-.35-1.8,1.58-2.95,1.7-3,1-.58,2.73-.86,3.6.17a1.66,1.66,0,0,1,.22.32,2.75,2.75,0,0,1,.2,1.76L159,20l-10.71-7.68a2.76,2.76,0,0,1-1.51,1,3.58,3.58,0,0,1-1.92,0c-1.76-.51-1.89-2.75-1.9-2.89-.05-1.15.5-2.82,1.81-3.12A1.9,1.9,0,0,1,145.17,7.31Z" style="fill:none;stroke:#423c25;stroke-miterlimit:10;stroke-width:0.60077714920044px"/><path d="M130.51,20.84a.08.08,0,0,1,0,0l-7,3.87,3.65-6.12a.16.16,0,0,1,.14-.08l.08,0,3.1,2.17A.07.07,0,0,1,130.51,20.84Z" style="fill:none;stroke:#423c25;stroke-miterlimit:10;stroke-width:0.60077714920044px"/><path d="M136.5,23a.14.14,0,0,0,0,.1l4,6.33.24-7.55a.13.13,0,0,0,0-.09.12.12,0,0,0-.12,0l-4,1.08A.17.17,0,0,0,136.5,23Z" style="fill:none;stroke:#423c25;stroke-miterlimit:10;stroke-width:0.60077714920044px"/><path d="M146.78,13.39h0L152.93,18l-7.4-.37a.09.09,0,0,1-.08-.05s0-.05,0-.07l1.3-4.14S146.77,13.39,146.78,13.39Z" style="fill:none;stroke:#423c25;stroke-miterlimit:10;stroke-width:0.60077714920044px"/><path d="M141.82,4.39l.05,0,6.42-2.82-2.92,5.54a.22.22,0,0,1-.2.12.19.19,0,0,1-.14-.05l-3.18-2.6A.11.11,0,0,1,141.82,4.39Z" style="fill:none;stroke:#423c25;stroke-miterlimit:10;stroke-width:0.60077714920044px"/><path d="M135.64,2.5a.21.21,0,0,0,0-.15l-3.32-6-.73,7.26a.25.25,0,0,0,0,.08.16.16,0,0,0,.19.08l3.74-1.17A.2.2,0,0,0,135.64,2.5Z" style="fill:none;stroke:#423c25;stroke-miterlimit:10;stroke-width:0.60077714920044px"/><path d="M126,12.29a.15.15,0,0,1-.13,0l-6.5-4,7.7.15h.07a.14.14,0,0,1,.07.18l-1.13,3.61A.14.14,0,0,1,126,12.29Z" style="fill:none;stroke:#423c25;stroke-miterlimit:10;stroke-width:0.60077714920044px"/><path d="M137.65,11.36a2.32,2.32,0,1,1-3.27.29A2.3,2.3,0,0,1,137.65,11.36Z" style="fill:none;stroke:#423c25;stroke-miterlimit:10;stroke-width:0.60077714920044px"/></g><g id="bae09b74-104b-4ef2-82c5-e4a922b92973" data-name="Textes Cartes VA vecto"><g id="f849e9fc-125a-4411-b6a8-79ddad02def7" data-name="Calque 20 - copie 3"><path d="M13.88,26.5v0a.48.48,0,0,1,.27-.12,2.76,2.76,0,0,1,.42-.08l.21,0A.71.71,0,0,0,14.7,26c0-.11-.11-.21-.16-.3s-.09-.14-.1-.16l1.28,0c0-.05,0-.09-.11-.13a1.29,1.29,0,0,0-.25-.09,1.73,1.73,0,0,1-.32-.07l-.19,0q-.13,0-.3-.27a.24.24,0,0,0,.07-.13l.08-.21a1,1,0,0,1,.11-.2.18.18,0,0,1,.15-.09,1,1,0,0,1,.53.17,1.3,1.3,0,0,0,.66.17,1.13,1.13,0,0,0,.54-.13,1.45,1.45,0,0,0,.45-.33,2.36,2.36,0,0,0,.33-.45,2,2,0,0,0,.19-.46.21.21,0,0,1,.17-.14c.09,0,.13-.07.13-.14l-.15-.16-.25-.28-.24-.29a.58.58,0,0,1-.11-.17,1.35,1.35,0,0,0-.06-.27c0-.15-.09-.3-.15-.46L16.86,21a1.75,1.75,0,0,1-.06-.25l-.26-.65a2,2,0,0,1-.17-.51,1.63,1.63,0,0,1,0-.59,5.47,5.47,0,0,1,.19-.88,7.32,7.32,0,0,1,.7-1.65,4.15,4.15,0,0,1,1.07-1.21,4.77,4.77,0,0,1,1.55-.76A8,8,0,0,1,22,14.22h.07s0,0-.06.09l-.19.2-.2.19c-.06.05-.08.08-.07.08l.16-.06.32-.13.32-.12a.55.55,0,0,1,.19-.07.9.9,0,0,1,.34.06c.1,0,.12.13.07.28a.21.21,0,0,1-.13.17l-.19.08-.21.06a.41.41,0,0,0-.17.13s0,.07-.13.14l-.26.22-.24.22c-.07.07-.1.1-.09.1l1.35-.56s0,0,0,.15,0,.22,0,.35a2.44,2.44,0,0,1-.06.39,1.71,1.71,0,0,1,0,.24.53.53,0,0,1-.36.37,4,4,0,0,1-.57.21l-.25.08-.38.1-.38.09-.23,0a.57.57,0,0,0-.29.31.56.56,0,0,0,0,.3l.06.46c0,.16.05.31.08.45s.05.24.07.3l-.42.57a1.23,1.23,0,0,0,.25-.08.41.41,0,0,1,.19,0c.14,0,.25.12.32.36s.13.38.22.68.18.62.25,1a7.21,7.21,0,0,1,.17,1,2.29,2.29,0,0,1-.05.81v0a4.35,4.35,0,0,0-.59.92,4.81,4.81,0,0,1-.59.9l-.25.29c-.11.13-.23.27-.37.41l-.37.4a1.46,1.46,0,0,1-.29.26,1.39,1.39,0,0,1-.67.32c-.32.08-.67.14-1,.2a10.4,10.4,0,0,1-1.07.1l-.8,0a2.24,2.24,0,0,1-.44-.06,3.27,3.27,0,0,1-.53-.17A1.94,1.94,0,0,1,14,26.8.27.27,0,0,1,13.88,26.5Z" style="fill:#423c25"/><path d="M21.63,26.44h-.09l-.07.08-.23.81a.11.11,0,0,1-.06,0l-.09.07H21c-.09,0-.14-.07-.17-.21s0-.23,0-.28.07-.29.14-.58l.18-.53c-.05-.08-.06-.12-.05-.13l0-.14,0-.13c0-.14.1-.36.21-.65s.21-.61.35-1,.27-.73.41-1.13.28-.77.41-1.13l.35-1c.11-.29.18-.51.23-.65.17-.31.36-.63.57-.94a5.28,5.28,0,0,0,.52-.95l.51-1c.15-.33.32-.66.48-1s.35-.64.55-1,.42-.65.68-1c0,0,.08,0,.15.06a3,3,0,0,1,.21.3l.22.33c.07.1.12.16.15.16s.1-.06.14-.16.08-.21.12-.33.09-.23.13-.32.08-.14.12-.13h1.92l.39-.14s.06,0,.08.05a.88.88,0,0,1,0,.17,1.41,1.41,0,0,1,0,.18c0,.06,0,.08.05.08a.75.75,0,0,0,.22,0h.25a.38.38,0,0,1,.18.07s.05.11,0,.22l-.56,2a1.54,1.54,0,0,0-.05.47,3.5,3.5,0,0,0,.07.45c0,.15.07.3.1.45a1.75,1.75,0,0,1,0,.46c-.05.17-.12.45-.21.85s-.18.83-.27,1.29-.18.88-.27,1.29-.16.7-.2.86l0,.08a15.76,15.76,0,0,1-.24,2,20.43,20.43,0,0,1-.48,2,1.94,1.94,0,0,1-.56-.08,1.61,1.61,0,0,0-.54-.08.19.19,0,0,0-.16.08.86.86,0,0,0-.14.18l-.16.18a.25.25,0,0,1-.17.08q-.11,0-.09-.15c0-.09,0-.2.06-.32s0-.23.06-.32,0-.15-.06-.15-.06,0-.15.16l-.22.27-.12.15a1.21,1.21,0,0,1-.13.24.77.77,0,0,1-.19.24s-.06.06-.13.08h0a.28.28,0,0,1-.29-.19,1.1,1.1,0,0,1-.06-.47,3.57,3.57,0,0,1,.07-.62c0-.22.08-.43.11-.62a3.06,3.06,0,0,0,0-.47c0-.13,0-.2-.11-.2h-.55a.63.63,0,0,0-.49.18l-.27,1-.29,1a.94.94,0,0,1-.06.18l-.09.21-.12.24-.12.07H22.28l-.36-.38-.18-.09a.21.21,0,0,1,0-.18,1.12,1.12,0,0,1,.06-.23.58.58,0,0,0,0-.22C21.78,26.48,21.73,26.44,21.63,26.44Zm4.1-4.51-.08.17c0,.08,0,.13.08.14a1.91,1.91,0,0,0,.58-.1.58.58,0,0,0,.43-.35.23.23,0,0,1,.07-.08l.07-.08a2,2,0,0,1,0-.35c0-.16,0-.34.08-.53s.07-.37.1-.53.06-.28.08-.35,0-.08,0-.17,0-.16,0-.25a1.77,1.77,0,0,0,0-.22c0-.07,0-.1-.07-.1s-.17.07-.26.2a4.49,4.49,0,0,0-.31.48c-.11.19-.21.41-.32.64s-.19.46-.26.67l-.2.53C25.77,21.8,25.74,21.9,25.73,21.93Z" style="fill:#423c25"/><path d="M34.21,24.32a.55.55,0,0,1-.15.18q-.08.08-.06.09a.48.48,0,0,0,.35.18.51.51,0,0,0,.31,0,1.32,1.32,0,0,0,.42-.26c.07-.06.1-.11.1-.15a.31.31,0,0,0,0-.1s0-.06,0-.1l.63-.82a1,1,0,0,0,.39-.29,1.4,1.4,0,0,0,.11-.27.6.6,0,0,1,.16-.24,1.57,1.57,0,0,1,.53-.21l1.67,0c.12,0,.18.05.19.15a1.65,1.65,0,0,0,0,.3c0,.05,0,.17,0,.35a2,2,0,0,1-.08.37,2.11,2.11,0,0,1-.51.81c-.28.31-.59.63-.94.95s-.7.61-1,.89l-.81.62,0,.06a2.54,2.54,0,0,0-1-.34c-.16,0-.25,0-.27.1a.34.34,0,0,0,0,.2,1.64,1.64,0,0,1,0,.22c0,.06,0,.09-.16.09h-.83l-.54,0a1.47,1.47,0,0,1-.5-.11,1.82,1.82,0,0,1-.73-.51,1.41,1.41,0,0,1-.31-.64,2.26,2.26,0,0,1-.05-.68c0-.23.05-.45.08-.65L31,24.38s-.05-.1-.09-.2-.07-.2-.11-.31a2.12,2.12,0,0,1-.11-.29,1,1,0,0,1,0-.17,3.41,3.41,0,0,1,.07-.84,7.72,7.72,0,0,1,.2-.83c.09-.29.18-.58.28-.86a4.22,4.22,0,0,0,.21-.85s0,0,.09-.08l.18-.13.27-.19-.16-.07-.28-.13c-.11-.06-.16-.09-.16-.1a1.11,1.11,0,0,1,.2-.34l.3-.35a4.11,4.11,0,0,0,.27-.35.58.58,0,0,0,.11-.31l.18-.25c.09-.12.18-.25.28-.37L33,17l.19-.23a3.29,3.29,0,0,1,.28-.39,4.12,4.12,0,0,1,.28-.31l.33-.27.4-.3a.73.73,0,0,0,.21-.22,1.27,1.27,0,0,1,.21-.23,4.37,4.37,0,0,1,.55-.26,2.48,2.48,0,0,1,.49-.15,3.7,3.7,0,0,1,.48-.08H37a1.34,1.34,0,0,0,.35-.06,1.73,1.73,0,0,1,.31-.05c.06,0,.09,0,.08.05s0,.12.12.17a2.07,2.07,0,0,0,.34.15l.3.11c.08,0,.08.07,0,.09a.54.54,0,0,0-.31.27,2.55,2.55,0,0,1-.14.27s0,.06.11,0a2.68,2.68,0,0,1,.31-.11,1.44,1.44,0,0,1,.42,0,.61.61,0,0,1,.4.21l.22.27a.69.69,0,0,1,.1.23c0,.05,0,.1,0,.15s0,.1,0,.16a1.09,1.09,0,0,0,.14.24,2.6,2.6,0,0,1,.31.59.37.37,0,0,1-.06.43,2.13,2.13,0,0,0-.29.42,1.15,1.15,0,0,0-.09.31,2.44,2.44,0,0,0,0,.27.6.6,0,0,1,0,.29v0s-.12.1-.32.21a2.55,2.55,0,0,1-.72.22,2.39,2.39,0,0,1-.92,0,1.58,1.58,0,0,1-.88-.53l0-.72,0,0,0-.08a.14.14,0,0,1,0-.06l0-.06c.08-.3.14-.51.16-.65s.05-.24.07-.34h0l-.3.17-1.49.63-.63,1a.35.35,0,0,1-.09.11.31.31,0,0,0-.09.13.18.18,0,0,0,0,.14.36.36,0,0,0,.07.1.36.36,0,0,1,.07.1.42.42,0,0,1,0,.16l-.21.64-.24.71c-.09.24-.17.47-.25.7s-.15.44-.22.63a1.22,1.22,0,0,0,.13.19c0,.05.07,0,.1-.05l-.1,1Z" style="fill:#423c25"/><path d="M43.59,23.07H43.5l-.16.35c0,.1-.1.29-.19.55l-.28.83c-.1.29-.2.56-.29.83s-.15.45-.19.55a2.48,2.48,0,0,1-.09.31.75.75,0,0,1-.11.25.13.13,0,0,1-.14.09l-.09,0-.08,0-.06,0-.17.67h-.09c-.08,0-.12,0-.12,0a.59.59,0,0,1-.51-.35.66.66,0,0,1,.13-.61s-.06-.05-.09-.05h0a.23.23,0,0,0-.18.09,1.56,1.56,0,0,0-.16.2,1.13,1.13,0,0,0-.12.21.39.39,0,0,1-.11.15h0l0,0h-.41l-.22,0-.21,0h-.11a.29.29,0,0,1-.34-.17,1.5,1.5,0,0,1-.09-.45,3.15,3.15,0,0,1,0-.53,2.76,2.76,0,0,1,.08-.35l0-.12a1.07,1.07,0,0,1,.06-.17.32.32,0,0,0,0-.14l0-.07,1.67-4.74.07-.19c0-.11.06-.17.07-.21a.81.81,0,0,0,.12-.2c0-.11.1-.22.15-.35s.09-.24.14-.35a1.59,1.59,0,0,1,.08-.21,1.63,1.63,0,0,1,.09-.23l.19-.37.22-.37a1.4,1.4,0,0,1,.16-.22l.14-.18a1.18,1.18,0,0,1,.13-.16l0-.07,0-.09h-.2l-.32,0a1.11,1.11,0,0,1-.29-.08c-.09,0-.12-.08-.11-.14l.13-.16a.91.91,0,0,0,.12-.17l.29-.08.19-.05s.07,0,.06-.06l-.43-.22.09-.27s0-.05,0-.11a.2.2,0,0,0,0-.09.44.44,0,0,1,.17-.07l.19,0a.41.41,0,0,0,.16,0,.13.13,0,0,0,.09-.1l-.34-.49c-.09-.1,0-.21.1-.31a2.52,2.52,0,0,1,.65-.29,9,9,0,0,1,1-.24c.37-.07.73-.14,1.09-.19L46,14c.29,0,.48,0,.59,0a2.28,2.28,0,0,1,.6,0,2.13,2.13,0,0,0,.55.07.44.44,0,0,0,.19,0,.32.32,0,0,1,.17,0h.11a4.21,4.21,0,0,1,.83.33,4.66,4.66,0,0,1,.68.47,2,2,0,0,1,.49.45,1.14,1.14,0,0,1,0,.62l-.43.38.29.16,0,.34,0,.18a3,3,0,0,0,0,.89,2.26,2.26,0,0,1-.1.91.88.88,0,0,1-.52.67l-2,2.33-.07.31c.1.75.18,1.52.25,2.31a8,8,0,0,1-.14,2.38l-.36,0-.22,0-.17-.05-.24,0a.51.51,0,0,0,0,.09v.08a.27.27,0,0,1,0,.08l-.13.17a2.33,2.33,0,0,1-.38.41.62.62,0,0,1-.37.22q-.13,0-.15-.09a1.23,1.23,0,0,1,0-.19,1.05,1.05,0,0,0,0-.19.15.15,0,0,0-.16-.09.23.23,0,0,0-.14.07l-.17.15-.17.17-.11.1a.48.48,0,0,1-.13.09c-.14,0-.26-.08-.35-.27a2.94,2.94,0,0,1-.22-.72,7.2,7.2,0,0,1-.1-1c0-.36,0-.71,0-1.05s0-.65,0-.92,0-.46,0-.57S43.7,23.07,43.59,23.07Zm.71-2.32-.06.16c0,.05,0,.08.11.11a2.44,2.44,0,0,0,.57-.16.75.75,0,0,0,.4-.36l1.19-1.87.05-.18a.56.56,0,0,0,0-.36,2.13,2.13,0,0,0-.14-.35c-.06-.12-.12-.23-.17-.35a.81.81,0,0,1,0-.38q0-.15-.18-.15h0a1.61,1.61,0,0,1-.31.07l-.39.05L45,17l-.18,0a.47.47,0,0,0-.17,0s-.06.05-.08.12l0,.06a.66.66,0,0,1,.53.26.83.83,0,0,1,0,.56,7.25,7.25,0,0,1-.42,1.32A6.24,6.24,0,0,0,44.3,20.75Z" style="fill:#423c25"/><path d="M48.52,27.15l.22-.72c.32-1.27.63-2.5.94-3.7s.64-2.42,1-3.69l0-.14.07-.19a1.27,1.27,0,0,1,0-.14l0-.09a1,1,0,0,1,0-.12l.13-.23c0-.08.09-.15.12-.22a.53.53,0,0,0,.06-.13s0-.09.08-.2.08-.22.13-.34l.14-.35.08-.22c0-.06.05-.15.09-.25s.07-.23.11-.36l.12-.44.13-.43c0-.13.06-.25.08-.35a2.08,2.08,0,0,1,.06-.24l.2-.08.39-.14.58-.19a.38.38,0,0,1,.3.11.62.62,0,0,1,.09.26,1.14,1.14,0,0,1,0,.26c0,.07,0,.1.07.1H54a.82.82,0,0,0,.16-.25.18.18,0,0,0,.12-.1s0-.06,0-.06a1.18,1.18,0,0,1,.28,0l.21,0,.15.17.13.15h.11l.43-.16h.11l.05.08a.12.12,0,0,0,.1.08l-.11.36a25.29,25.29,0,0,1-.86,2.54c-.33.84-.66,1.69-1,2.57a1.15,1.15,0,0,1-.26.41.82.82,0,0,0-.24.41,1.34,1.34,0,0,0-.07.6,2,2,0,0,1,0,.55l-.1.42-.33,1.13-.11.38c-.13.45-.26.94-.4,1.47a9.87,9.87,0,0,1-.55,1.55.15.15,0,0,1-.12.09h-.21s-.05,0-.1,0a.81.81,0,0,0-.17-.34.63.63,0,0,0-.4-.09h-.13a.22.22,0,0,0-.13,0l-.21.22-.28,0c-.14,0-.22,0-.24.07a.24.24,0,0,0-.13.05l-.19.13-.18.13-.1.08A1.06,1.06,0,0,1,48.52,27.15Z" style="fill:#423c25"/><path d="M54.92,20.17l.09-.34c0-.13.08-.27.12-.41s.09-.27.13-.36l0-.16a1,1,0,0,1,.08-.18l.14-.33c0-.12.11-.23.16-.35s.1-.2.14-.26l.18-.25v0h0s0-.07-.09-.1l-.18-.08-.17-.06s-.07,0,0,0a.08.08,0,0,0,0,0,.09.09,0,0,1,0-.05.56.56,0,0,1,.2-.26,1.48,1.48,0,0,1,.31-.15l.31-.09q.14,0,.15-.09s0-.06,0-.09l-.13-.06-.12-.07a.16.16,0,0,1,0-.14.4.4,0,0,1,.16-.21,1.35,1.35,0,0,1,.26-.15l.23-.09c.07,0,.1,0,.1-.05s0,0,0-.06l-.48-.18c-.1,0-.12-.15-.06-.35a1,1,0,0,1,.49-.58c.92,0,1.87-.06,2.86-.1s1.92-.06,2.82-.06a1.45,1.45,0,0,1,.4,0c.11,0,.14.11.1.25a.27.27,0,0,1-.19.17l-.31.11-.27.11c-.07,0-.08.08,0,.13l.33.39a.15.15,0,0,0,0,.06.28.28,0,0,1-.12.16l-.19.09-.19.07C62,16,62,16,62,16a.18.18,0,0,0,0,.19.91.91,0,0,0,.16.11l.16.1a.15.15,0,0,1,.06.16.36.36,0,0,1-.17.18,1.17,1.17,0,0,1-.28.11l-.33.08-.23,0a.25.25,0,0,0-.13.09,2.23,2.23,0,0,1-.81.45,4.26,4.26,0,0,1-1,.09v.07l-.15.52c0,.17-.09.35-.14.55a4.31,4.31,0,0,0-.1.55,1.54,1.54,0,0,0,0,.43c0,.12.07.18.17.18a3,3,0,0,0,.88-.13,3.39,3.39,0,0,1,.88-.12c.1,0,.15,0,.15.07a.4.4,0,0,1,0,.18.78.78,0,0,1-.25.39,1.74,1.74,0,0,1-.37.21l-.34.15a.27.27,0,0,0-.19.17v0c.38,0,.59.11.63.32a1.28,1.28,0,0,1-.06.71.79.79,0,0,1-.52.55,4,4,0,0,1-.88.21l-.84.11c-.26,0-.4.1-.44.21l-1.2,3.52a.58.58,0,0,0-.21.26c0,.1-.07.21-.1.31a3,3,0,0,0-.07.3,1.09,1.09,0,0,1,0,.17.17.17,0,0,1-.13.08H56a1.14,1.14,0,0,1-.72-.21,1.68,1.68,0,0,1-.48-.51l-.05,0a.42.42,0,0,0-.35.12,1,1,0,0,0-.17.25,1.53,1.53,0,0,1-.16.25.35.35,0,0,1-.31.12.33.33,0,0,1-.34-.3,2.31,2.31,0,0,1,0-.71,5,5,0,0,1,.13-.77c.06-.25.1-.42.12-.52.23-.87.44-1.73.62-2.58S54.67,21.05,54.92,20.17Z" style="fill:#423c25"/><path d="M60.18,27.15l.22-.72c.32-1.27.64-2.5.94-3.7s.64-2.42,1-3.69l0-.14a1.45,1.45,0,0,1,.06-.19,1.09,1.09,0,0,1,.05-.14l0-.09a.57.57,0,0,1,.06-.12,1.27,1.27,0,0,1,.12-.23l.13-.22.05-.13s0-.09.08-.2l.14-.34c0-.12.09-.23.13-.35l.08-.22a1.72,1.72,0,0,0,.09-.25c0-.11.07-.23.11-.36l.13-.44.12-.43a3.34,3.34,0,0,0,.08-.35,1,1,0,0,1,.07-.24.79.79,0,0,1,.19-.08l.4-.14.57-.19a.35.35,0,0,1,.3.11.64.64,0,0,1,.1.26,2.28,2.28,0,0,1,0,.26c0,.07,0,.1.07.1h0s.08-.09.16-.25a.18.18,0,0,0,.12-.1s0-.06,0-.06a1.19,1.19,0,0,1,.27,0l.21,0a1,1,0,0,1,.15.17l.14.15h.11l.43-.16h.11a.56.56,0,0,1,0,.08.14.14,0,0,0,.1.08l-.11.36a25.23,25.23,0,0,1-.85,2.54l-1,2.57a1,1,0,0,1-.26.41,1,1,0,0,0-.24.41,1.5,1.5,0,0,0-.06.6,3.28,3.28,0,0,1,0,.55l-.11.42-.32,1.13-.11.38c-.13.45-.27.94-.41,1.47a9.82,9.82,0,0,1-.54,1.55c0,.06-.08.09-.13.09h-.21s0,0-.1,0a.63.63,0,0,0-.17-.34.61.61,0,0,0-.4-.09h-.13a.17.17,0,0,0-.12,0l-.22.22a1.52,1.52,0,0,1-.28,0c-.13,0-.22,0-.24.07a.26.26,0,0,0-.13.05l-.18.13a1.4,1.4,0,0,0-.18.13l-.1.08A1.08,1.08,0,0,1,60.18,27.15Z" style="fill:#423c25"/><path d="M69.49,24.32a.45.45,0,0,1-.15.18q-.07.08-.06.09a.48.48,0,0,0,.35.18.5.5,0,0,0,.31,0,1.56,1.56,0,0,0,.43-.26.25.25,0,0,0,.09-.15.31.31,0,0,0,0-.1s0-.06,0-.1l.63-.82a1,1,0,0,0,.39-.29,1.4,1.4,0,0,0,.11-.27.6.6,0,0,1,.16-.24,1.57,1.57,0,0,1,.53-.21l1.67,0c.12,0,.18.05.19.15a1.65,1.65,0,0,0,0,.3c0,.05,0,.17,0,.35s0,.3-.07.37a2.16,2.16,0,0,1-.52.81c-.28.31-.59.63-.94.95s-.7.61-1,.89l-.81.62,0,.06a2.54,2.54,0,0,0-1-.34c-.16,0-.25,0-.27.1a.44.44,0,0,0,0,.2,1.64,1.64,0,0,1,0,.22c0,.06,0,.09-.16.09h-.83l-.54,0a1.47,1.47,0,0,1-.5-.11,1.89,1.89,0,0,1-.73-.51,1.41,1.41,0,0,1-.31-.64,2.26,2.26,0,0,1-.05-.68c0-.23.05-.45.08-.65l-.09-.16s0-.1-.09-.2-.07-.2-.11-.31a2.12,2.12,0,0,1-.11-.29,1,1,0,0,1,0-.17,3.41,3.41,0,0,1,.07-.84,7.72,7.72,0,0,1,.2-.83c.09-.29.18-.58.28-.86a4.22,4.22,0,0,0,.21-.85s0,0,.09-.08l.18-.13.27-.19-.16-.07-.28-.13a.9.9,0,0,1-.16-.1,1.37,1.37,0,0,1,.2-.34l.3-.35a4.11,4.11,0,0,0,.27-.35.53.53,0,0,0,.12-.31l.17-.25c.09-.12.18-.25.28-.37l.29-.36.19-.23c.1-.15.19-.28.28-.39a2.81,2.81,0,0,1,.29-.31l.32-.27.4-.3a.73.73,0,0,0,.21-.22,1.27,1.27,0,0,1,.21-.23,4.37,4.37,0,0,1,.55-.26,2.48,2.48,0,0,1,.49-.15,3.85,3.85,0,0,1,.49-.08h.57a1.28,1.28,0,0,0,.35-.06,1.68,1.68,0,0,1,.32-.05s.08,0,.07.05,0,.12.12.17a2.07,2.07,0,0,0,.34.15l.3.11c.08,0,.08.07,0,.09a.54.54,0,0,0-.31.27,2.55,2.55,0,0,1-.14.27s0,.06.11,0a2.68,2.68,0,0,1,.31-.11,1.44,1.44,0,0,1,.42,0,.59.59,0,0,1,.4.21l.22.27a.69.69,0,0,1,.1.23.83.83,0,0,1,0,.15,1.42,1.42,0,0,0,0,.16.72.72,0,0,0,.13.24,2.6,2.6,0,0,1,.31.59.37.37,0,0,1-.06.43,2.13,2.13,0,0,0-.29.42,3.19,3.19,0,0,0-.09.31,1.22,1.22,0,0,0,0,.27.77.77,0,0,1,0,.29v0s-.12.1-.31.21a2.62,2.62,0,0,1-.73.22,2.39,2.39,0,0,1-.92,0,1.58,1.58,0,0,1-.88-.53l0-.72,0,0,0-.08a.14.14,0,0,1,0-.06l0-.06a4.84,4.84,0,0,0,.16-.65c0-.13,0-.24.08-.34h0l-.3.17-1.49.63-.63,1a.35.35,0,0,1-.09.11.31.31,0,0,0-.09.13.18.18,0,0,0,0,.14.36.36,0,0,0,.07.1.23.23,0,0,1,.07.1.42.42,0,0,1,0,.16l-.21.64-.24.71c-.09.24-.17.47-.24.7s-.16.44-.23.63a1.22,1.22,0,0,0,.13.19c0,.05.07,0,.1-.05l-.1,1Z" style="fill:#423c25"/><path d="M74.63,25.42a6.2,6.2,0,0,1,.41-1,5,5,0,0,0,.4-1,17.62,17.62,0,0,0,.45-2c.11-.62.25-1.26.43-1.92a8.38,8.38,0,0,1,.45-1.14,7.93,7.93,0,0,0,.45-1.12l0-.08.05-.23,0,0c0-.08-.06-.13-.18-.16a.57.57,0,0,0-.32,0l-.36-.39v-.09c.16-.18.28-.33.38-.43l.26-.3a.5.5,0,0,0,.12-.17l.08,0,.18,0,.27,0a.75.75,0,0,0-.18-.14.59.59,0,0,0-.35-.13,0,0,0,0,1,0-.07.51.51,0,0,1,.31-.34,2.43,2.43,0,0,1,.61-.2,4.29,4.29,0,0,1,.73-.09l.68,0h.4c.45,0,.91,0,1.37,0s.92,0,1.38,0a1.71,1.71,0,0,0,.42,0,1.61,1.61,0,0,1,.42,0l0,.16a.66.66,0,0,1-.08.17.83.83,0,0,1-.14.19,1.06,1.06,0,0,0-.14.2l-.06.16-.45.27.31.27-.06.16a.86.86,0,0,1-.35.42,3.38,3.38,0,0,1-.6.31,5,5,0,0,1-.65.22l-.53.1-.11.07a.6.6,0,0,0-.07.18l-.09.34-.12.39c0,.12-.08.23-.1.31l0,.09a.27.27,0,0,0,0,.13.16.16,0,0,1-.09.14l-.39.2.34,0c.06,0,.07,0,0,.1a.73.73,0,0,0-.09.18l0,.09c0,.06,0,.09.05.09h.09a3.77,3.77,0,0,0,.8-.09,3.61,3.61,0,0,1,.79-.09c.16,0,.27.05.31.15a.49.49,0,0,1,0,.34.48.48,0,0,1-.23.25c-.14.08-.28.16-.43.23l-.43.21c-.12.07-.19.12-.2.15s0,0,.12.08l.3.09a.61.61,0,0,1,.26.15.23.23,0,0,1,0,.28.83.83,0,0,1-.38.48,1.56,1.56,0,0,1-.54.18q-.3.06-.6.09a1.87,1.87,0,0,0-.58.18,1.41,1.41,0,0,0-.13.26,4.73,4.73,0,0,0-.2.5l-.19.51c-.06.16-.1.27-.11.31v0c0,.07,0,.17,0,.28l-.06.33c0,.11,0,.24-.06.4h1.54q.24,0,.18.18a1.17,1.17,0,0,0,0,.3.14.14,0,0,0,.09.12l.18.11a.39.39,0,0,1,.14.17.38.38,0,0,1,0,.3.42.42,0,0,1-.26.26,3.33,3.33,0,0,1-.45.16l-.45.15a.38.38,0,0,0-.24.22c.1.15.14.23.13.24l0,.07q-.07.24-.24.27a4,4,0,0,1-.46.05l-.83.1a4.48,4.48,0,0,1-.7.07,1.55,1.55,0,0,1-.4-.06l-.62-.16-.31.16a.5.5,0,0,1-.3,0,2.11,2.11,0,0,0-.33,0H75a1,1,0,0,1-.5-.81A3.93,3.93,0,0,1,74.63,25.42Z" style="fill:#423c25"/><path d="M13.86,46.77l5.7-.11v1.17l-2.13.05v6.59H16.19V47.88l-2.33,0Z" style="fill:#423c25"/><path d="M21.82,47.06V50a1.71,1.71,0,0,1,.95-.91,2,2,0,0,1,.76-.14A2,2,0,0,1,24,49a1.62,1.62,0,0,1,1,.62,2.77,2.77,0,0,1,.51,1.13,14.51,14.51,0,0,1,.07,1.8c0,.72,0,1.64,0,2.76l-1.11,0c0-.95,0-1.75,0-2.38,0-1,0-1.62-.05-1.81a1.06,1.06,0,0,0-1.08-.95h0a1,1,0,0,0-.66.23,2,2,0,0,0-.44.57,3.55,3.55,0,0,0-.23,1.42l-.06,2.53-1.11,0-.09-7.69Z" style="fill:#423c25"/><path d="M27.8,52.33a2.11,2.11,0,0,0,.41,1.34,1.32,1.32,0,0,0,.91.39h.13a1.37,1.37,0,0,0,.8-.22,1.64,1.64,0,0,0,.57-1l1.18.23a3.6,3.6,0,0,1-.66,1.26A1.86,1.86,0,0,1,30,55a3.58,3.58,0,0,1-.72.07,4.17,4.17,0,0,1-.71-.07,2.2,2.2,0,0,1-1.2-.69,2.59,2.59,0,0,1-.66-1.24A4.7,4.7,0,0,1,26.54,52c0-.12,0-.24,0-.37a3.24,3.24,0,0,1,.36-1.32,2.05,2.05,0,0,1,.78-.9,2.75,2.75,0,0,1,1-.39,3.64,3.64,0,0,1,.6-.05l.6,0a2,2,0,0,1,1.28.8,4,4,0,0,1,.6,2.46Zm2.71-.92a1.59,1.59,0,0,0-.38-1,1.22,1.22,0,0,0-.94-.42,1.35,1.35,0,0,0-1,.4,1.38,1.38,0,0,0-.4,1Z" style="fill:#423c25"/><path d="M36.74,46.82h1.37l3.52,5.67h0V46.66h1.29l-.11,7.86H41.51L38,48.75h0V54H36.69Z" style="fill:#423c25"/><path d="M45.18,47.42a.65.65,0,0,1,0,1,.71.71,0,0,1-1,0,.68.68,0,0,1,0-1,.71.71,0,0,1,1,0Zm-1.1,1.82,1.18-.05L45.15,55h-1Z" style="fill:#423c25"/><path d="M47.59,48.75l0,1.33a1.77,1.77,0,0,1,1-.92,2.27,2.27,0,0,1,.76-.14,2,2,0,0,1,.42,0,1.61,1.61,0,0,1,1,.61,2.84,2.84,0,0,1,.51,1.13,12.66,12.66,0,0,1,.07,1.8c0,.72,0,1.64,0,2.76l-1.11,0c0-1,0-1.75,0-2.39a15.46,15.46,0,0,0,0-1.81,1.16,1.16,0,0,0-.37-.7,1.07,1.07,0,0,0-.71-.24h0a1,1,0,0,0-.66.22,1.89,1.89,0,0,0-.44.58,3.51,3.51,0,0,0-.23,1.42L47.64,55l-1.11,0-.09-6.11Z" style="fill:#423c25"/><path d="M52,55.83h0a.41.41,0,0,1,.23.07,1,1,0,0,0,.77-.49,3.63,3.63,0,0,0,.21-1.52l0-4.53,1.06.08c0,.81,0,1.55,0,2.2a27.68,27.68,0,0,1-.13,3.78,2,2,0,0,1-.57,1,1.89,1.89,0,0,1-.93.42l-.31,0a2.71,2.71,0,0,1-.47,0Zm2.22-8.41a.68.68,0,0,1,0,1,.71.71,0,0,1-1,0,.68.68,0,0,1,0-1,.71.71,0,0,1,1,0Z" style="fill:#423c25"/><path d="M56.17,49.93a2.28,2.28,0,0,1,1.15-.61,3.11,3.11,0,0,1,.69-.07,3.79,3.79,0,0,1,.86.1A1.39,1.39,0,0,1,60,50.47a7.56,7.56,0,0,1,.16,1.8c0,.4,0,.85,0,1.35v.05q0,.42.33.42a1,1,0,0,0,.41-.1l.09,1a3,3,0,0,1-.73.11,1.07,1.07,0,0,1-1-.56,2.66,2.66,0,0,1-1,.58,2.8,2.8,0,0,1-.88.13h0a2.12,2.12,0,0,1-.83-.17,1.55,1.55,0,0,1-.66-.48,1.49,1.49,0,0,1-.28-.77s0-.11,0-.17a2.34,2.34,0,0,1,.15-.79,1.73,1.73,0,0,1,.92-.86,7.88,7.88,0,0,1,2.5-.52,1.43,1.43,0,0,0-.19-.92,1.07,1.07,0,0,0-.74-.24h-.19a1.43,1.43,0,0,0-.7.15,1,1,0,0,0-.4.82l-1.13-.14A1.93,1.93,0,0,1,56.17,49.93Zm2.89,2.49a4.83,4.83,0,0,0-1.91.4.87.87,0,0,0-.46.72.11.11,0,0,0,0,.05.65.65,0,0,0,.27.58,1,1,0,0,0,.58.16h.17a1.91,1.91,0,0,0,.76-.21c.18-.11.38-.25.6-.41Z" style="fill:#423c25"/><path d="M65.8,53l1.12-.21c.06.57.27.9.65,1a3.21,3.21,0,0,0,.71.09,1.37,1.37,0,0,0,.29,0,1,1,0,0,0,.59-.24.9.9,0,0,0,.19-.36v-.06a.48.48,0,0,0-.09-.27A1.2,1.2,0,0,0,69,52.6a6.47,6.47,0,0,0-1-.35,10.51,10.51,0,0,1-1.21-.4,1.53,1.53,0,0,1-.59-.43,1.14,1.14,0,0,1-.24-.71v-.08a1.7,1.7,0,0,1,.16-.74,1.45,1.45,0,0,1,.66-.63,2.59,2.59,0,0,1,1-.3,2.55,2.55,0,0,1,.39,0,3.12,3.12,0,0,1,.54,0,2.43,2.43,0,0,1,.9.36,2.25,2.25,0,0,1,.72,1.38l-1.05.13c-.14-.47-.32-.75-.55-.82a1.82,1.82,0,0,0-.56-.09H68a1.09,1.09,0,0,0-.57.2.54.54,0,0,0-.26.41v.06a.43.43,0,0,0,.15.34,2.69,2.69,0,0,0,1,.33,6.45,6.45,0,0,1,1.37.48,1.35,1.35,0,0,1,.72.63,2,2,0,0,1,.14.75v0a1.56,1.56,0,0,1-.24.79,1.74,1.74,0,0,1-.76.62,2.93,2.93,0,0,1-1.29.26h-.08a3.63,3.63,0,0,1-1.1-.13,2,2,0,0,1-.76-.45A2.51,2.51,0,0,1,65.8,53Z" style="fill:#423c25"/><path d="M72.25,49.93a2.24,2.24,0,0,1,1.15-.61,3,3,0,0,1,.68-.07,3.79,3.79,0,0,1,.86.1A1.39,1.39,0,0,1,76,50.47a7.56,7.56,0,0,1,.16,1.8c0,.4,0,.85,0,1.35v.05c0,.28.11.42.34.42a1.05,1.05,0,0,0,.41-.1L77,55a3.08,3.08,0,0,1-.74.11,1.08,1.08,0,0,1-1-.56,2.63,2.63,0,0,1-.94.58,2.86,2.86,0,0,1-.89.13h0a2.14,2.14,0,0,1-.84-.17,1.52,1.52,0,0,1-.65-.48,1.5,1.5,0,0,1-.29-.77v-.17a2.34,2.34,0,0,1,.15-.79,1.67,1.67,0,0,1,.91-.86,7.88,7.88,0,0,1,2.5-.52,1.43,1.43,0,0,0-.19-.92,1.05,1.05,0,0,0-.74-.24H74a1.45,1.45,0,0,0-.7.15,1,1,0,0,0-.4.82l-1.13-.14A1.88,1.88,0,0,1,72.25,49.93Zm2.88,2.49a4.88,4.88,0,0,0-1.91.4.87.87,0,0,0-.46.72.43.43,0,0,1,0,.05.65.65,0,0,0,.27.58,1,1,0,0,0,.59.16h.17a1.85,1.85,0,0,0,.75-.21,5.86,5.86,0,0,0,.6-.41Z" style="fill:#423c25"/><path d="M81.18,49.94a1.53,1.53,0,0,0-.58-.11,1.45,1.45,0,0,0-.3,0,1.3,1.3,0,0,0-.72.47,1.91,1.91,0,0,0-.39,1,4.67,4.67,0,0,0,0,.52,3.08,3.08,0,0,0,.06.61,1.75,1.75,0,0,0,.43.87,1.24,1.24,0,0,0,.84.4h.12a1.45,1.45,0,0,0,.79-.22,1.24,1.24,0,0,0,.49-1l1.11.23A2.36,2.36,0,0,1,82.43,54a2,2,0,0,1-1.18.64,3.21,3.21,0,0,1-.68.07,3.08,3.08,0,0,1-.68-.07,2.15,2.15,0,0,1-1.07-.55A2.5,2.5,0,0,1,78.19,53,4.29,4.29,0,0,1,78,51.79c0-.1,0-.2,0-.31a3.63,3.63,0,0,1,.35-1.34,2,2,0,0,1,.74-.9,2.42,2.42,0,0,1,.91-.39,2.61,2.61,0,0,1,.58-.05l.52,0a2.09,2.09,0,0,1,1.16.53A2,2,0,0,1,83,50.71l-1.1.18A1.26,1.26,0,0,0,81.18,49.94Z" style="fill:#423c25"/><path d="M87.58,50.34a1.52,1.52,0,0,0-.79-.25h-.12a1.4,1.4,0,0,0-.68.25,2.09,2.09,0,0,0-.45.52,3.4,3.4,0,0,0-.22,1.4l-.06,2.53-1.11,0-.1-6.11,1.15-.12.06,1.33a1.81,1.81,0,0,1,1-.94,1.53,1.53,0,0,1,.54-.1,3.27,3.27,0,0,1,1.12.25Z" style="fill:#423c25"/><path d="M90.14,47.42a.68.68,0,0,1,0,1,.72.72,0,0,1-.5.2.68.68,0,0,1-.49-.2.68.68,0,0,1,0-1,.68.68,0,0,1,.49-.2A.72.72,0,0,1,90.14,47.42ZM89,49.24l1.18-.05L90.11,55h-1Z" style="fill:#423c25"/><path d="M92.37,55.17l0-5.3-1,0,0-.87h.94a2.58,2.58,0,0,1,.38-1.61,1.52,1.52,0,0,1,.87-.54,1.9,1.9,0,0,1,.35,0,3.53,3.53,0,0,1,.85.12l-.13,1a1.84,1.84,0,0,0-.48-.08.73.73,0,0,0-.45.13,1,1,0,0,0-.31.89s0,.09,0,.13h1.13l0,.95H93.49v5.28Z" style="fill:#423c25"/><path d="M97.07,47.42a.68.68,0,0,1,0,1,.72.72,0,0,1-.5.2.68.68,0,0,1-.49-.2.68.68,0,0,1,0-1,.68.68,0,0,1,.49-.2A.72.72,0,0,1,97.07,47.42ZM96,49.24l1.18-.05L97,55H96Z" style="fill:#423c25"/><path d="M101.48,49.94a1.58,1.58,0,0,0-.59-.11l-.3,0a1.37,1.37,0,0,0-.72.47,1.82,1.82,0,0,0-.38,1,3.12,3.12,0,0,0,0,.52,3.08,3.08,0,0,0,.06.61,1.76,1.76,0,0,0,.44.87,1.24,1.24,0,0,0,.83.4h.12a1.45,1.45,0,0,0,.79-.22,1.24,1.24,0,0,0,.49-1l1.11.23a2.42,2.42,0,0,1-.56,1.26,2,2,0,0,1-1.18.64,3.21,3.21,0,0,1-.68.07,3,3,0,0,1-.68-.07,2.07,2.07,0,0,1-1.07-.55A2.33,2.33,0,0,1,98.49,53a4.3,4.3,0,0,1-.17-1.17c0-.1,0-.2,0-.31a3.84,3.84,0,0,1,.35-1.34,2.12,2.12,0,0,1,.74-.9,2.46,2.46,0,0,1,.92-.39,2.52,2.52,0,0,1,.57-.05l.52,0a2.15,2.15,0,0,1,1.17.53,2,2,0,0,1,.64,1.35l-1.09.18A1.28,1.28,0,0,0,101.48,49.94Z" style="fill:#423c25"/><path d="M105.6,52.33a2,2,0,0,0,.42,1.34,1.29,1.29,0,0,0,.9.39h.14a1.39,1.39,0,0,0,.8-.22,1.64,1.64,0,0,0,.57-1l1.17.23a3.43,3.43,0,0,1-.65,1.26,1.89,1.89,0,0,1-1.19.64,3.65,3.65,0,0,1-.72.07,4.28,4.28,0,0,1-.72-.07,2.18,2.18,0,0,1-1.19-.69,2.7,2.7,0,0,1-.67-1.24,5.35,5.35,0,0,1-.11-1.05c0-.12,0-.24,0-.37a3.41,3.41,0,0,1,.37-1.32,2.05,2.05,0,0,1,.78-.9,2.68,2.68,0,0,1,1-.39,3.64,3.64,0,0,1,.6-.05l.59,0a2,2,0,0,1,1.29.8,4,4,0,0,1,.59,2.46Zm2.72-.92a1.6,1.6,0,0,0-.39-1A1.19,1.19,0,0,0,107,50a1.34,1.34,0,0,0-1,.4,1.44,1.44,0,0,0-.41,1Z" style="fill:#423c25"/><path d="M110.66,53l1.12-.21c0,.57.27.9.65,1a3.14,3.14,0,0,0,.71.09,1.37,1.37,0,0,0,.29,0,1,1,0,0,0,.59-.24.9.9,0,0,0,.19-.36v-.06a.48.48,0,0,0-.09-.27,1.2,1.2,0,0,0-.29-.26,6.47,6.47,0,0,0-1-.35,10.51,10.51,0,0,1-1.21-.4,1.53,1.53,0,0,1-.59-.43,1.14,1.14,0,0,1-.24-.71v-.08a1.7,1.7,0,0,1,.16-.74,1.45,1.45,0,0,1,.66-.63,2.59,2.59,0,0,1,1-.3,2.55,2.55,0,0,1,.39,0,3.12,3.12,0,0,1,.54,0,2.43,2.43,0,0,1,.9.36,2.25,2.25,0,0,1,.72,1.38l-1.05.13c-.14-.47-.32-.75-.55-.82a1.87,1.87,0,0,0-.56-.09h-.11a1.09,1.09,0,0,0-.57.2.54.54,0,0,0-.26.41v.06a.43.43,0,0,0,.15.34,2.69,2.69,0,0,0,1,.33,6.45,6.45,0,0,1,1.37.48,1.35,1.35,0,0,1,.72.63,2,2,0,0,1,.13.75v0a1.46,1.46,0,0,1-.23.79,1.74,1.74,0,0,1-.76.62,2.93,2.93,0,0,1-1.29.26H113a3.63,3.63,0,0,1-1.1-.13,2,2,0,0,1-.76-.45A2.51,2.51,0,0,1,110.66,53Z" style="fill:#423c25"/><path d="M121,54.38A3.78,3.78,0,0,1,121,50a2.72,2.72,0,0,1,4,0,3.78,3.78,0,0,1,0,4.41,2.72,2.72,0,0,1-4,0Zm3.18-.76a2.73,2.73,0,0,0,0-2.81,1.35,1.35,0,0,0-1.2-.65,1.38,1.38,0,0,0-1.2.65,2.73,2.73,0,0,0,0,2.81,1.36,1.36,0,0,0,1.2.66A1.34,1.34,0,0,0,124.14,53.62Z" style="fill:#423c25"/><path d="M127.86,48.75l.06,1.33a1.74,1.74,0,0,1,1-.92,2.21,2.21,0,0,1,.75-.14,2,2,0,0,1,.43,0,1.67,1.67,0,0,1,1,.61,2.69,2.69,0,0,1,.5,1.13,12.05,12.05,0,0,1,.08,1.8c0,.72,0,1.64-.05,2.76l-1.1,0c0-1,0-1.75,0-2.39,0-1,0-1.62-.05-1.81a1.16,1.16,0,0,0-.37-.7,1.07,1.07,0,0,0-.71-.24h0a.92.92,0,0,0-.66.22,2.08,2.08,0,0,0-.45.58,3.56,3.56,0,0,0-.22,1.42L127.92,55l-1.11,0-.1-6.11Z" style="fill:#423c25"/><path d="M133.89,52.33a2,2,0,0,0,.42,1.34,1.29,1.29,0,0,0,.9.39h.14a1.39,1.39,0,0,0,.8-.22,1.64,1.64,0,0,0,.57-1l1.17.23a3.43,3.43,0,0,1-.65,1.26,1.89,1.89,0,0,1-1.19.64,3.65,3.65,0,0,1-.72.07,4.28,4.28,0,0,1-.72-.07,2.18,2.18,0,0,1-1.19-.69,2.7,2.7,0,0,1-.67-1.24,5.35,5.35,0,0,1-.11-1.05c0-.12,0-.24,0-.37a3.41,3.41,0,0,1,.37-1.32,2.05,2.05,0,0,1,.78-.9,2.68,2.68,0,0,1,1-.39,3.64,3.64,0,0,1,.6-.05l.59,0a2,2,0,0,1,1.29.8,4,4,0,0,1,.59,2.46Zm2.72-.92a1.6,1.6,0,0,0-.39-1,1.19,1.19,0,0,0-.94-.42,1.34,1.34,0,0,0-1,.4,1.44,1.44,0,0,0-.41,1Z" style="fill:#423c25"/><path d="M14.57,67.32a3.78,3.78,0,0,1,0-4.41,2.49,2.49,0,0,1,2-.86,2.51,2.51,0,0,1,2,.86,3.78,3.78,0,0,1,0,4.41,2.49,2.49,0,0,1-2,.87A2.47,2.47,0,0,1,14.57,67.32Zm3.18-.76a2.73,2.73,0,0,0,0-2.81,1.43,1.43,0,0,0-2.4,0,2.73,2.73,0,0,0,0,2.81,1.42,1.42,0,0,0,2.4,0Z" style="fill:#423c25"/><path d="M21.3,68.11l0-5.3-1-.05,0-.87h.94a2.58,2.58,0,0,1,.38-1.61,1.46,1.46,0,0,1,.87-.54,1.9,1.9,0,0,1,.35,0,3.53,3.53,0,0,1,.85.12l-.14,1a1.71,1.71,0,0,0-.47-.08.73.73,0,0,0-.45.13c-.21.14-.31.44-.31.89a.57.57,0,0,0,0,.13h1.13l0,1H22.42v5.28Z" style="fill:#423c25"/><path d="M30.38,61.62h.92V60l1.18-.16v1.78L34,61.51v1l-1.54.06V66a1,1,0,0,0,.11.57.37.37,0,0,0,.34.14,4,4,0,0,0,.93-.2l.16,1a6.69,6.69,0,0,1-1.4.22,1.89,1.89,0,0,1-1-.36,1.69,1.69,0,0,1-.3-1.06V62.59h-.92Z" style="fill:#423c25"/><path d="M36.27,60v2.91a1.75,1.75,0,0,1,.95-.91,2,2,0,0,1,.76-.14,2,2,0,0,1,.42,0,1.62,1.62,0,0,1,1,.62,2.77,2.77,0,0,1,.51,1.13,12.66,12.66,0,0,1,.07,1.8c0,.72,0,1.64,0,2.76l-1.11,0c0-1,0-1.75,0-2.38,0-1,0-1.62-.05-1.81a1.16,1.16,0,0,0-.37-.7,1.07,1.07,0,0,0-.71-.24h0a1,1,0,0,0-.66.22,2,2,0,0,0-.44.57,3.55,3.55,0,0,0-.23,1.42l-.06,2.54-1.11,0-.09-7.69Z" style="fill:#423c25"/><path d="M42.25,65.27a2.11,2.11,0,0,0,.41,1.34,1.37,1.37,0,0,0,.91.4h.13a1.37,1.37,0,0,0,.8-.22,1.64,1.64,0,0,0,.57-1l1.18.23a3.6,3.6,0,0,1-.66,1.26A1.86,1.86,0,0,1,44.4,68a3.51,3.51,0,0,1-.72.07A4.17,4.17,0,0,1,43,68a2.2,2.2,0,0,1-1.2-.69A2.59,2.59,0,0,1,41.11,66,4.7,4.7,0,0,1,41,65c0-.12,0-.24,0-.37a3.24,3.24,0,0,1,.36-1.32,2.05,2.05,0,0,1,.78-.9,2.75,2.75,0,0,1,1-.39,3.64,3.64,0,0,1,.6,0l.6,0a2,2,0,0,1,1.28.8,4,4,0,0,1,.6,2.46ZM45,64.35a1.59,1.59,0,0,0-.38-1,1.22,1.22,0,0,0-.94-.42,1.35,1.35,0,0,0-1,.4,1.38,1.38,0,0,0-.4,1Z" style="fill:#423c25"/><path d="M48.49,60.36a.65.65,0,0,1,0,1,.71.71,0,0,1-1,0,.68.68,0,0,1,0-1,.69.69,0,0,1,.5-.19A.69.69,0,0,1,48.49,60.36ZM47.4,62.18l1.17,0L48.46,68h-1Z" style="fill:#423c25"/><path d="M53.28,63.28a1.55,1.55,0,0,0-.8-.25h-.12a1.34,1.34,0,0,0-.68.24,2.05,2.05,0,0,0-.44.52A3.36,3.36,0,0,0,51,65.2L51,67.73l-1.11,0-.09-6.1,1.15-.13L51,62.86a1.85,1.85,0,0,1,1-.94,1.53,1.53,0,0,1,.54-.1,3.37,3.37,0,0,1,1.13.25Z" style="fill:#423c25"/><path d="M60.22,68.11V60.28h1.2l0,2.89a1.69,1.69,0,0,1,1.42-1.07,3,3,0,0,1,.5,0,1.86,1.86,0,0,1,1.12.32,2.21,2.21,0,0,1,.84,1.26,5.12,5.12,0,0,1,.24,1.48v.07a4.57,4.57,0,0,1-.26,1.42,2,2,0,0,1-.83,1.09,2.14,2.14,0,0,1-1.2.39,2.35,2.35,0,0,1-1.08-.24,1.71,1.71,0,0,1-.74-.69l0,1Zm4-3V65.1a2.32,2.32,0,0,0-.36-1.31,1.24,1.24,0,0,0-1.1-.61c-.9,0-1.36.66-1.38,2v.07a2.18,2.18,0,0,0,.37,1.33,1.28,1.28,0,0,0,1.1.56,1.17,1.17,0,0,0,1-.61A2.44,2.44,0,0,0,64.27,65.15Z" style="fill:#423c25"/><path d="M66.53,60l1.18.06v7.85L66.58,68Z" style="fill:#423c25"/><path d="M69.46,62.87a2.24,2.24,0,0,1,1.15-.61,3,3,0,0,1,.68-.07,3.87,3.87,0,0,1,.87.1,1.41,1.41,0,0,1,1.08,1.12,8.24,8.24,0,0,1,.15,1.8c0,.4,0,.85,0,1.35v0c0,.28.11.42.34.42a1.05,1.05,0,0,0,.41-.1l.09,1a3,3,0,0,1-.74.11,1.08,1.08,0,0,1-1-.56,2.74,2.74,0,0,1-.94.59,3.19,3.19,0,0,1-.89.12h0A2.14,2.14,0,0,1,69.7,68a1.52,1.52,0,0,1-.65-.48,1.41,1.41,0,0,1-.28-.77.91.91,0,0,1,0-.17,2.24,2.24,0,0,1,.15-.78,1.69,1.69,0,0,1,.91-.87,8,8,0,0,1,2.51-.52,1.5,1.5,0,0,0-.19-.92,1.16,1.16,0,0,0-.75-.24H71.2a1.48,1.48,0,0,0-.7.15,1,1,0,0,0-.4.82L69,64.08A1.82,1.82,0,0,1,69.46,62.87Zm2.88,2.49a4.93,4.93,0,0,0-1.91.4.87.87,0,0,0-.46.72v0a.66.66,0,0,0,.26.58,1,1,0,0,0,.59.16H71a1.85,1.85,0,0,0,.75-.21,5.86,5.86,0,0,0,.6-.41Z" style="fill:#423c25"/><path d="M76.39,61.69l0,1.33a1.75,1.75,0,0,1,1-.92,2.21,2.21,0,0,1,.75-.14,2.1,2.1,0,0,1,.43,0,1.61,1.61,0,0,1,1,.61A2.59,2.59,0,0,1,80,63.75a12.66,12.66,0,0,1,.07,1.8c0,.72,0,1.64,0,2.76l-1.1,0c0-1,0-1.75,0-2.38a14.52,14.52,0,0,0-.06-1.82,1.15,1.15,0,0,0-.36-.7,1.13,1.13,0,0,0-.72-.24h0a1,1,0,0,0-.66.22,2.26,2.26,0,0,0-.44.58,3.56,3.56,0,0,0-.22,1.42l-.07,2.53-1.1,0-.1-6.11Z" style="fill:#423c25"/><path d="M81.17,60.23l1.17-.1,0,4.48,2.28-2.36,1.19.26-2.18,2.21,2.44,3.37-1.29.16-2-2.81-.48.5v2L81.22,68Z" style="fill:#423c25"/><path d="M95.9,62.88a1.8,1.8,0,0,0-.58-.11,1.39,1.39,0,0,0-.3,0,1.3,1.3,0,0,0-.72.47,1.75,1.75,0,0,0-.39,1,4.73,4.73,0,0,0,0,.52,3,3,0,0,0,.07.61,1.7,1.7,0,0,0,.43.88,1.28,1.28,0,0,0,.84.39h.12a1.39,1.39,0,0,0,.78-.22,1.25,1.25,0,0,0,.5-1l1.11.23A2.43,2.43,0,0,1,97.15,67,2,2,0,0,1,96,67.6a4,4,0,0,1-.68.06,3.08,3.08,0,0,1-.68-.07,2.18,2.18,0,0,1-1.07-.54,2.41,2.41,0,0,1-.63-1.15,4.29,4.29,0,0,1-.16-1.17c0-.1,0-.2,0-.3a3.63,3.63,0,0,1,.34-1.35,2.12,2.12,0,0,1,.74-.9,2.53,2.53,0,0,1,.92-.39,3.27,3.27,0,0,1,.57,0l.52,0A2.12,2.12,0,0,1,97,62.3a2,2,0,0,1,.65,1.35l-1.1.18A1.27,1.27,0,0,0,95.9,62.88Z" style="fill:#423c25"/><path d="M99.47,62.87a2.24,2.24,0,0,1,1.15-.61,3.08,3.08,0,0,1,.68-.07,3.81,3.81,0,0,1,.87.1,1.41,1.41,0,0,1,1.08,1.12,8.13,8.13,0,0,1,.16,1.8c0,.4,0,.85,0,1.35v0c0,.28.12.42.34.42a1.05,1.05,0,0,0,.41-.1l.09,1a3,3,0,0,1-.74.11,1.05,1.05,0,0,1-1-.56,2.87,2.87,0,0,1-1,.59,3.14,3.14,0,0,1-.89.12h0a2.14,2.14,0,0,1-.84-.17,1.52,1.52,0,0,1-.65-.48,1.41,1.41,0,0,1-.28-.77.91.91,0,0,1,0-.17,2.24,2.24,0,0,1,.15-.78,1.69,1.69,0,0,1,.91-.87,8,8,0,0,1,2.51-.52,1.5,1.5,0,0,0-.19-.92,1.16,1.16,0,0,0-.75-.24h-.19a1.48,1.48,0,0,0-.7.15,1,1,0,0,0-.4.82L99,64.08A1.82,1.82,0,0,1,99.47,62.87Zm2.88,2.49a4.93,4.93,0,0,0-1.91.4.89.89,0,0,0-.46.72v0a.64.64,0,0,0,.27.58,1,1,0,0,0,.58.16H101a1.85,1.85,0,0,0,.75-.21,5.86,5.86,0,0,0,.6-.41Z" style="fill:#423c25"/><path d="M108.78,63.28A1.52,1.52,0,0,0,108,63h-.12a1.31,1.31,0,0,0-.68.24,2.09,2.09,0,0,0-.45.52,3.4,3.4,0,0,0-.22,1.4l-.06,2.53-1.11,0-.1-6.1,1.15-.13.06,1.33a1.81,1.81,0,0,1,1-.94,1.53,1.53,0,0,1,.54-.1,3.27,3.27,0,0,1,1.12.25Z" style="fill:#423c25"/><path d="M114.29,68l0-1a1.76,1.76,0,0,1-.74.69,2.38,2.38,0,0,1-1.08.24,2.19,2.19,0,0,1-1.21-.39,2.09,2.09,0,0,1-.83-1.08,4.66,4.66,0,0,1-.25-1.42V65a5.09,5.09,0,0,1,.23-1.48,2.32,2.32,0,0,1,.84-1.26,1.86,1.86,0,0,1,1.12-.32,4.75,4.75,0,0,1,.51,0A1.68,1.68,0,0,1,114.26,63l0-2.89h1.19V68Zm-2.93-3a2.5,2.5,0,0,0,.36,1.35,1.17,1.17,0,0,0,1,.61,1.3,1.3,0,0,0,1.11-.55,2.31,2.31,0,0,0,.37-1.34V65c0-1.31-.49-2-1.38-2a1.26,1.26,0,0,0-1.11.61,2.4,2.4,0,0,0-.35,1.32Z" style="fill:#423c25"/><path d="M116.46,65.9l1.13-.22c0,.57.27.9.65,1a3.14,3.14,0,0,0,.71.09,1.42,1.42,0,0,0,.29,0,.92.92,0,0,0,.58-.24.79.79,0,0,0,.19-.36.13.13,0,0,0,0-.06.39.39,0,0,0-.1-.26,1,1,0,0,0-.28-.27,6.47,6.47,0,0,0-1-.35,9.87,9.87,0,0,1-1.21-.4,1.46,1.46,0,0,1-.59-.43,1.14,1.14,0,0,1-.24-.71v-.08a1.63,1.63,0,0,1,.16-.73,1.41,1.41,0,0,1,.66-.64,2.73,2.73,0,0,1,1-.3,2.55,2.55,0,0,1,.39,0,3.27,3.27,0,0,1,.54,0,2.43,2.43,0,0,1,.9.36,2.28,2.28,0,0,1,.72,1.38l-1.05.13c-.14-.47-.33-.75-.55-.82a1.87,1.87,0,0,0-.56-.09h-.11a1.09,1.09,0,0,0-.58.2.57.57,0,0,0-.26.41v.06a.41.41,0,0,0,.16.34,2.84,2.84,0,0,0,1,.34,6.36,6.36,0,0,1,1.38.47,1.43,1.43,0,0,1,.72.63,2,2,0,0,1,.13.75v0a1.46,1.46,0,0,1-.23.79,1.74,1.74,0,0,1-.76.62,3,3,0,0,1-1.29.26h-.08a3.59,3.59,0,0,1-1.1-.13,1.9,1.9,0,0,1-.76-.45A2.37,2.37,0,0,1,116.46,65.9Z" style="fill:#423c25"/><path d="M127.79,61.62h.92V60l1.18-.16v1.78l1.54-.06v1l-1.54.06V66a1,1,0,0,0,.11.57.38.38,0,0,0,.34.14,4,4,0,0,0,.93-.2l.16,1a6.69,6.69,0,0,1-1.4.22,1.83,1.83,0,0,1-1-.36,1.63,1.63,0,0,1-.31-1.06V62.59h-.92Z" style="fill:#423c25"/><path d="M133.19,67.32a3.78,3.78,0,0,1,0-4.41,2.74,2.74,0,0,1,4,0,3.78,3.78,0,0,1,0,4.41,2.72,2.72,0,0,1-4,0Zm3.19-.76a2.79,2.79,0,0,0,0-2.81,1.44,1.44,0,0,0-2.41,0,2.79,2.79,0,0,0,0,2.81,1.43,1.43,0,0,0,2.41,0Z" style="fill:#423c25"/><path d="M14.1,81.09l1.11-.19c.12.55.36.87.73,1a2.49,2.49,0,0,0,.61.08,2.94,2.94,0,0,0,.51,0,1.09,1.09,0,0,0,.78-.5A2.47,2.47,0,0,0,18,80.31c0-.14,0-.28,0-.44a2.3,2.3,0,0,1-1.08.7,4.56,4.56,0,0,1-.75.06h-.25a2.06,2.06,0,0,1-1.06-.39,2.1,2.1,0,0,1-.74-.91A4.28,4.28,0,0,1,13.86,78v-.21A4,4,0,0,1,14,76.55a2.11,2.11,0,0,1,.73-1.07,2.64,2.64,0,0,1,1-.54,3.11,3.11,0,0,1,.62-.06l.52,0a2.06,2.06,0,0,1,1.17.66v-.64l1,0c0,.89,0,1.69,0,2.4A30.3,30.3,0,0,1,19,81.41a1.89,1.89,0,0,1-.56,1,2,2,0,0,1-.93.42,6.2,6.2,0,0,1-1.05.09h-.05a3.38,3.38,0,0,1-.88-.1,1.84,1.84,0,0,1-.78-.45A2.62,2.62,0,0,1,14.1,81.09ZM17.68,79A2.45,2.45,0,0,0,18,77.7a2.18,2.18,0,0,0-.35-1.28,1.3,1.3,0,0,0-1.15-.56,1.25,1.25,0,0,0-1.14.62,2.38,2.38,0,0,0-.33,1.31,2.21,2.21,0,0,0,.35,1.27,1.28,1.28,0,0,0,1.12.58A1.3,1.3,0,0,0,17.68,79Z" style="fill:#423c25"/><path d="M21.33,73.3a.65.65,0,0,1,.2.48.62.62,0,0,1-.2.48.71.71,0,0,1-1,0,.66.66,0,0,1-.2-.48.71.71,0,0,1,1.19-.48Zm-1.1,1.82,1.18-.05-.11,5.86h-1Z" style="fill:#423c25"/><path d="M22.59,75.09l1.23-.27,1.46,4.76h0l1.42-4.49,1.22.26-2,5.37-1.33-.06Z" style="fill:#423c25"/><path d="M30.24,78.21a2.16,2.16,0,0,0,.42,1.35,1.39,1.39,0,0,0,.91.39h.13a1.39,1.39,0,0,0,.8-.22,1.64,1.64,0,0,0,.57-1l1.18.23a3.6,3.6,0,0,1-.66,1.26,1.9,1.9,0,0,1-1.19.65,4.56,4.56,0,0,1-.72.06A3.51,3.51,0,0,1,31,80.9a2.22,2.22,0,0,1-1.19-.68A2.62,2.62,0,0,1,29.11,79a4.61,4.61,0,0,1-.12-1c0-.13,0-.25,0-.38a3.24,3.24,0,0,1,.36-1.32,2.17,2.17,0,0,1,.78-.9,2.68,2.68,0,0,1,1-.39,3.64,3.64,0,0,1,.6,0l.59,0a2,2,0,0,1,1.29.8,4,4,0,0,1,.59,2.46ZM33,77.29a1.65,1.65,0,0,0-.38-1,1.22,1.22,0,0,0-.95-.42,1.34,1.34,0,0,0-1,.4,1.44,1.44,0,0,0-.41,1Z" style="fill:#423c25"/><path d="M41.79,80.26a3.76,3.76,0,0,1,0-4.4,2.72,2.72,0,0,1,4,0,3.76,3.76,0,0,1,0,4.4,2.72,2.72,0,0,1-4,0ZM45,79.5a2.4,2.4,0,0,0,.39-1.41,2.43,2.43,0,0,0-.39-1.4,1.43,1.43,0,0,0-2.4,0,2.43,2.43,0,0,0-.39,1.4,2.4,2.4,0,0,0,.39,1.41,1.42,1.42,0,0,0,2.4,0Z" style="fill:#423c25"/><path d="M48.69,74.63,48.74,76a1.79,1.79,0,0,1,1-.92,2.21,2.21,0,0,1,.75-.14,2.1,2.1,0,0,1,.43,0,1.58,1.58,0,0,1,.95.62,2.5,2.5,0,0,1,.51,1.12,12.85,12.85,0,0,1,.07,1.8c0,.72,0,1.64,0,2.76l-1.1,0c0-1,0-1.75,0-2.38A14.52,14.52,0,0,0,51.23,77a1.13,1.13,0,0,0-.36-.7,1.19,1.19,0,0,0-.71-.24h0a1,1,0,0,0-.65.22,2.24,2.24,0,0,0-.45.58,3.56,3.56,0,0,0-.22,1.42l-.07,2.53-1.1,0-.1-6.1Z" style="fill:#423c25"/><path d="M54.72,78.21a2.17,2.17,0,0,0,.41,1.35A1.43,1.43,0,0,0,56,80h.14a1.34,1.34,0,0,0,.79-.22,1.65,1.65,0,0,0,.58-1l1.17.23a3.43,3.43,0,0,1-.65,1.26,1.92,1.92,0,0,1-1.19.65,4.56,4.56,0,0,1-.72.06,3.38,3.38,0,0,1-.72-.07,2.22,2.22,0,0,1-1.19-.68A2.64,2.64,0,0,1,53.58,79a5.25,5.25,0,0,1-.11-1c0-.13,0-.25,0-.38a3.59,3.59,0,0,1,.36-1.32,2.26,2.26,0,0,1,.79-.9,2.63,2.63,0,0,1,1-.39,3.64,3.64,0,0,1,.6,0l.6,0a2,2,0,0,1,1.29.8,4.1,4.1,0,0,1,.59,2.46Zm2.72-.92a1.6,1.6,0,0,0-.39-1,1.2,1.2,0,0,0-.94-.42,1.33,1.33,0,0,0-1,.4,1.39,1.39,0,0,0-.41,1Z" style="fill:#423c25"/><path d="M65.56,81.05V73.22h1.2l0,2.89A1.69,1.69,0,0,1,68.12,75a4.77,4.77,0,0,1,.5,0,1.91,1.91,0,0,1,1.13.32,2.25,2.25,0,0,1,.83,1.26,5.12,5.12,0,0,1,.24,1.48v.08a4.68,4.68,0,0,1-.26,1.42,2,2,0,0,1-.83,1.08,2.14,2.14,0,0,1-1.2.39,2.35,2.35,0,0,1-1.08-.24,1.71,1.71,0,0,1-.74-.69l0,1Zm4-3v0a2.33,2.33,0,0,0-.36-1.32,1.24,1.24,0,0,0-1.1-.61c-.9,0-1.36.66-1.38,2v.07a2.18,2.18,0,0,0,.37,1.33,1.28,1.28,0,0,0,1.11.56,1.19,1.19,0,0,0,1-.61A2.5,2.5,0,0,0,69.61,78.09Z" style="fill:#423c25"/><path d="M71.87,73l1.18.06v7.85l-1.12.06Z" style="fill:#423c25"/><path d="M74.8,75.81A2.32,2.32,0,0,1,76,75.2a3,3,0,0,1,.68-.07,3.81,3.81,0,0,1,.87.1,1.43,1.43,0,0,1,1.08,1.13,8.08,8.08,0,0,1,.15,1.79c0,.4,0,.85,0,1.35v0c0,.28.11.42.34.42a1.05,1.05,0,0,0,.41-.1l.09,1a3,3,0,0,1-.74.11,1.08,1.08,0,0,1-1-.56,2.74,2.74,0,0,1-.94.59,3.61,3.61,0,0,1-.89.13h0A2,2,0,0,1,75,81a1.52,1.52,0,0,1-.65-.48,1.41,1.41,0,0,1-.28-.77.91.91,0,0,1,0-.17,2.24,2.24,0,0,1,.15-.78,1.69,1.69,0,0,1,.91-.87,8,8,0,0,1,2.51-.52,1.5,1.5,0,0,0-.19-.92,1.22,1.22,0,0,0-.75-.24h-.19a1.37,1.37,0,0,0-.7.16,1,1,0,0,0-.4.81L74.32,77A1.82,1.82,0,0,1,74.8,75.81Zm2.88,2.49a5.12,5.12,0,0,0-1.91.4.89.89,0,0,0-.46.72v0a.64.64,0,0,0,.27.58,1,1,0,0,0,.58.16h.17a1.85,1.85,0,0,0,.75-.21,5.86,5.86,0,0,0,.6-.41Z" style="fill:#423c25"/><path d="M81.73,74.63l0,1.33a1.79,1.79,0,0,1,1-.92,2.21,2.21,0,0,1,.75-.14,2.1,2.1,0,0,1,.43,0,1.63,1.63,0,0,1,1,.62,2.59,2.59,0,0,1,.5,1.12,12.85,12.85,0,0,1,.07,1.8c0,.72,0,1.64,0,2.76l-1.1,0c0-1,0-1.75,0-2.38A14.52,14.52,0,0,0,84.27,77a1.13,1.13,0,0,0-.36-.7,1.19,1.19,0,0,0-.71-.24h0a1,1,0,0,0-.65.22,2.24,2.24,0,0,0-.45.58,3.56,3.56,0,0,0-.22,1.42l-.07,2.53-1.1,0-.1-6.1Z" style="fill:#423c25"/><path d="M86.51,73.18l1.17-.11,0,4.48L90,75.19l1.19.27L89,77.66,91.46,81l-1.29.16-2-2.81-.48.5v2L86.56,81Z" style="fill:#423c25"/><path d="M101.45,75.82a1.85,1.85,0,0,0-.59-.11,1.53,1.53,0,0,0-.3,0,1.4,1.4,0,0,0-.72.47,1.86,1.86,0,0,0-.38,1,3.12,3.12,0,0,0,0,.52,3,3,0,0,0,.06.61,1.71,1.71,0,0,0,.44.88,1.27,1.27,0,0,0,.83.39h.12a1.45,1.45,0,0,0,.79-.22,1.23,1.23,0,0,0,.49-1l1.11.23a2.42,2.42,0,0,1-.56,1.26,2,2,0,0,1-1.18.65,4.08,4.08,0,0,1-.68.06,3,3,0,0,1-.68-.07A2.14,2.14,0,0,1,99.09,80a2.41,2.41,0,0,1-.63-1.15,4.19,4.19,0,0,1-.17-1.17c0-.1,0-.2,0-.3A3.63,3.63,0,0,1,98.65,76a2.17,2.17,0,0,1,.74-.9,2.49,2.49,0,0,1,.91-.39,3.48,3.48,0,0,1,.58,0l.52,0a2.15,2.15,0,0,1,1.17.53,2.06,2.06,0,0,1,.64,1.35l-1.09.18A1.3,1.3,0,0,0,101.45,75.82Z" style="fill:#423c25"/><path d="M105,75.81a2.32,2.32,0,0,1,1.15-.61,3,3,0,0,1,.68-.07,3.79,3.79,0,0,1,.86.1,1.4,1.4,0,0,1,1.08,1.13,7.41,7.41,0,0,1,.16,1.79c0,.4,0,.85,0,1.35v0c0,.28.11.42.34.42a1.05,1.05,0,0,0,.41-.1l.09,1A3.08,3.08,0,0,1,109,81a1.08,1.08,0,0,1-1-.56A2.84,2.84,0,0,1,107,81a3.61,3.61,0,0,1-.89.13h0a2,2,0,0,1-.84-.17,1.52,1.52,0,0,1-.65-.48,1.5,1.5,0,0,1-.29-.77v-.17a2.47,2.47,0,0,1,.14-.78,1.71,1.71,0,0,1,.92-.87,7.88,7.88,0,0,1,2.5-.52,1.43,1.43,0,0,0-.19-.92,1.16,1.16,0,0,0-.74-.24h-.19a1.34,1.34,0,0,0-.7.16,1,1,0,0,0-.4.81L104.53,77A1.88,1.88,0,0,1,105,75.81Zm2.88,2.49a5.07,5.07,0,0,0-1.91.4.87.87,0,0,0-.46.72.43.43,0,0,1,0,0,.64.64,0,0,0,.27.58,1,1,0,0,0,.59.16h.16a1.86,1.86,0,0,0,.76-.21,5.86,5.86,0,0,0,.6-.41Z" style="fill:#423c25"/><path d="M114.33,76.22a1.55,1.55,0,0,0-.8-.25h-.12a1.34,1.34,0,0,0-.68.24,1.94,1.94,0,0,0-.44.53,3.3,3.3,0,0,0-.23,1.39L112,80.67l-1.11,0-.09-6.11,1.15-.13,0,1.33a1.88,1.88,0,0,1,1-.94,1.53,1.53,0,0,1,.54-.09,3.33,3.33,0,0,1,1.13.24Z" style="fill:#423c25"/><path d="M119.84,80.9l0-1a1.65,1.65,0,0,1-.74.69,2.32,2.32,0,0,1-1.08.24,2.16,2.16,0,0,1-1.2-.39A2,2,0,0,1,116,79.4,4.38,4.38,0,0,1,115.7,78a.22.22,0,0,1,0-.08,5.12,5.12,0,0,1,.24-1.48,2.21,2.21,0,0,1,.84-1.26,1.86,1.86,0,0,1,1.12-.32,4.57,4.57,0,0,1,.5,0A1.71,1.71,0,0,1,119.81,76l0-2.89H121V80.9Zm-2.94-3a2.41,2.41,0,0,0,.37,1.34,1.17,1.17,0,0,0,1,.61,1.29,1.29,0,0,0,1.1-.55,2.23,2.23,0,0,0,.37-1.34v-.06q0-2-1.38-2a1.26,1.26,0,0,0-1.1.61,2.33,2.33,0,0,0-.36,1.32Z" style="fill:#423c25"/><path d="M127.79,74.56h.93V72.89l1.18-.16v1.78l1.53-.05v1l-1.53.06V79a1,1,0,0,0,.1.57.38.38,0,0,0,.34.14,4,4,0,0,0,.93-.2l.16,1a7.33,7.33,0,0,1-1.4.22,1.77,1.77,0,0,1-1-.37,1.56,1.56,0,0,1-.3-1.06V75.53h-.93Z" style="fill:#423c25"/><path d="M133.19,80.26a3.76,3.76,0,0,1,0-4.4,2.72,2.72,0,0,1,4,0,3.76,3.76,0,0,1,0,4.4,2.72,2.72,0,0,1-4,0Zm3.19-.76a2.47,2.47,0,0,0,.38-1.41,2.5,2.5,0,0,0-.38-1.4,1.44,1.44,0,0,0-2.41,0,2.42,2.42,0,0,0-.38,1.4A2.39,2.39,0,0,0,134,79.5a1.43,1.43,0,0,0,2.41,0Z" style="fill:#423c25"/><path d="M13.86,87.5h.92V85.83L16,85.67v1.78l1.54,0v1l-1.54,0v3.51a1,1,0,0,0,.11.56.37.37,0,0,0,.34.15,4.69,4.69,0,0,0,.93-.2l.16,1a7.41,7.41,0,0,1-1.41.22,1.82,1.82,0,0,1-1-.37,1.64,1.64,0,0,1-.3-1.05V88.47h-.92Z" style="fill:#423c25"/><path d="M18.55,88l1.2-.26,1.19,4.42h0L22,88l1.35,0,.89,4h0l1.14-4.54,1.14.32-1.69,5.73-1.21-.1-1-3.67h0L21.57,93.6l-1.29.16Z" style="fill:#423c25"/><path d="M28.32,93.2a3.76,3.76,0,0,1,0-4.4,2.72,2.72,0,0,1,4,0,3.76,3.76,0,0,1,0,4.4,2.72,2.72,0,0,1-4,0Zm3.18-.75a2.74,2.74,0,0,0,0-2.82,1.43,1.43,0,0,0-2.4,0,2.74,2.74,0,0,0,0,2.82,1.43,1.43,0,0,0,2.4,0Z" style="fill:#423c25"/><path d="M37.34,85.64h1.37l3.52,5.67h0V85.48h1.28l-.1,7.86H42.11L38.6,87.58h0v5.23H37.29Z" style="fill:#423c25"/><path d="M45.78,86.25a.66.66,0,0,1,0,1,.66.66,0,0,1-.5.2.64.64,0,0,1-.49-.2.62.62,0,0,1-.2-.48.61.61,0,0,1,.2-.47.64.64,0,0,1,.49-.2A.66.66,0,0,1,45.78,86.25Zm-1.1,1.82L45.86,88l-.11,5.86h-1Z" style="fill:#423c25"/><path d="M48.18,87.57l.06,1.33a1.71,1.71,0,0,1,.95-.91,1.92,1.92,0,0,1,1.18-.1,1.68,1.68,0,0,1,1,.62,2.59,2.59,0,0,1,.5,1.12,12.32,12.32,0,0,1,.08,1.81c0,.72,0,1.63,0,2.75l-1.1,0c0-1,0-1.75,0-2.38,0-1,0-1.62-.05-1.81a1.06,1.06,0,0,0-1.08-1h0a1,1,0,0,0-.66.22,2.42,2.42,0,0,0-.45.58,3.56,3.56,0,0,0-.22,1.42l-.06,2.53-1.11,0L47,87.7Z" style="fill:#423c25"/><path d="M52.6,94.66h0a.47.47,0,0,1,.22.07,1.08,1.08,0,0,0,.78-.49,3.64,3.64,0,0,0,.2-1.52l0-4.52,1.07.07c0,.82,0,1.55,0,2.21a26.56,26.56,0,0,1-.14,3.77,1.85,1.85,0,0,1-.56,1,2,2,0,0,1-.93.42,1.55,1.55,0,0,1-.31,0,2.8,2.8,0,0,1-.48,0Zm2.22-8.41a.66.66,0,0,1,0,1,.66.66,0,0,1-.5.2.68.68,0,1,1,0-1.35A.66.66,0,0,1,54.82,86.25Z" style="fill:#423c25"/><path d="M56.77,88.76a2.25,2.25,0,0,1,1.15-.62,3.6,3.6,0,0,1,1.55,0,1.43,1.43,0,0,1,1.08,1.13,8,8,0,0,1,.16,1.79c0,.4,0,.85-.05,1.36v0c0,.28.12.43.34.43a1.09,1.09,0,0,0,.41-.11l.09,1a3,3,0,0,1-.74.11,1.05,1.05,0,0,1-1-.56,2.71,2.71,0,0,1-.95.59,3.61,3.61,0,0,1-.89.13h0a2,2,0,0,1-.84-.17,1.52,1.52,0,0,1-.65-.48,1.41,1.41,0,0,1-.28-.77.91.91,0,0,1,0-.17,2.24,2.24,0,0,1,.15-.78,1.69,1.69,0,0,1,.91-.87,8.25,8.25,0,0,1,2.51-.52,1.52,1.52,0,0,0-.19-.92,1.22,1.22,0,0,0-.75-.24h-.19a1.48,1.48,0,0,0-.7.16,1,1,0,0,0-.4.81L56.29,90A1.8,1.8,0,0,1,56.77,88.76Zm2.88,2.48a4.88,4.88,0,0,0-1.91.41.88.88,0,0,0-.46.71v.06a.64.64,0,0,0,.27.57,1,1,0,0,0,.58.16h.17a1.85,1.85,0,0,0,.75-.21,5.86,5.86,0,0,0,.6-.41Z" style="fill:#423c25"/><path d="M62.55,91.78l1.13-.21c0,.56.27.89.65,1a3.07,3.07,0,0,0,.71.09l.28,0a.93.93,0,0,0,.59-.25A.7.7,0,0,0,66.1,92a.13.13,0,0,0,0-.06.39.39,0,0,0-.1-.26,1.2,1.2,0,0,0-.28-.27,5.84,5.84,0,0,0-1-.34,12,12,0,0,1-1.21-.4,1.48,1.48,0,0,1-.59-.43,1.24,1.24,0,0,1-.25-.72v-.08a1.66,1.66,0,0,1,.17-.73,1.4,1.4,0,0,1,.66-.63,2.75,2.75,0,0,1,1-.31l.39,0a3.27,3.27,0,0,1,.54,0,2.3,2.3,0,0,1,.9.37A2.24,2.24,0,0,1,67,89.54l-1,.14c-.14-.48-.33-.76-.55-.83a1.87,1.87,0,0,0-.56-.09h-.12a1,1,0,0,0-.57.19.6.6,0,0,0-.26.42v.05a.41.41,0,0,0,.16.34,2.63,2.63,0,0,0,1,.34,6.36,6.36,0,0,1,1.38.47,1.36,1.36,0,0,1,.71.63,1.87,1.87,0,0,1,.14.76h0a1.49,1.49,0,0,1-.23.8,1.78,1.78,0,0,1-.76.61,3,3,0,0,1-1.29.27h-.08a3.59,3.59,0,0,1-1.1-.13,1.9,1.9,0,0,1-.76-.45A2.37,2.37,0,0,1,62.55,91.78Z" style="fill:#423c25"/><path d="M68.65,94.58l-.35-.23a2.41,2.41,0,0,0,.64-.86.52.52,0,0,1-.52-.26,1,1,0,0,1-.09-.4.34.34,0,0,1,0-.1.62.62,0,0,1,.18-.39.76.76,0,0,1,.37-.18H69a.67.67,0,0,1,.35.1.66.66,0,0,1,.38.64.75.75,0,0,1,0,.21,1.54,1.54,0,0,1-.22.61A6.57,6.57,0,0,1,68.65,94.58Z" style="fill:#423c25"/><path d="M74.69,93.2a3.76,3.76,0,0,1,0-4.4,2.72,2.72,0,0,1,4,0,3.76,3.76,0,0,1,0,4.4,2.72,2.72,0,0,1-4,0Zm3.19-.75a2.81,2.81,0,0,0,0-2.82,1.44,1.44,0,0,0-2.41,0,2.81,2.81,0,0,0,0,2.82,1.44,1.44,0,0,0,2.41,0Z" style="fill:#423c25"/><path d="M84,89.16a1.61,1.61,0,0,0-.79-.25h-.12a1.23,1.23,0,0,0-.68.25,1.78,1.78,0,0,0-.45.52,3.53,3.53,0,0,0-.22,1.39l-.06,2.54-1.11,0-.09-6.11,1.14-.13.06,1.33a1.85,1.85,0,0,1,1-.94,1.53,1.53,0,0,1,.54-.09,3.33,3.33,0,0,1,1.13.24Z" style="fill:#423c25"/><path d="M88.55,87.5h.93V85.83l1.18-.16v1.78l1.53,0v1l-1.53,0v3.51a1,1,0,0,0,.1.56.38.38,0,0,0,.34.15,4.42,4.42,0,0,0,.93-.2l.16,1a7.22,7.22,0,0,1-1.4.22,1.8,1.8,0,0,1-1-.37,1.64,1.64,0,0,1-.3-1.05V88.47h-.93Z" style="fill:#423c25"/><path d="M93.25,88l1.2-.26,1.19,4.42h0l1-4.16,1.34,0,.9,4h0l1.14-4.54,1.14.32-1.7,5.73-1.2-.1-1-3.67h0L96.26,93.6,95,93.76Z" style="fill:#423c25"/><path d="M103,93.2a3.76,3.76,0,0,1,0-4.4,2.72,2.72,0,0,1,4,0,3.72,3.72,0,0,1,0,4.4,2.72,2.72,0,0,1-4,0Zm3.19-.75a2.81,2.81,0,0,0,0-2.82,1.44,1.44,0,0,0-2.41,0,2.81,2.81,0,0,0,0,2.82,1.44,1.44,0,0,0,2.41,0Z" style="fill:#423c25"/><path d="M112,94V86.16h1.19l-.05,2.89A1.71,1.71,0,0,1,114.56,88a4.38,4.38,0,0,1,.5,0,1.88,1.88,0,0,1,1.12.32,2.32,2.32,0,0,1,.84,1.26,5.45,5.45,0,0,1,.23,1.48v.08A4.66,4.66,0,0,1,117,92.5a2.09,2.09,0,0,1-.83,1.08A2.19,2.19,0,0,1,115,94a2.39,2.39,0,0,1-1.09-.24,1.76,1.76,0,0,1-.74-.69l0,.95ZM116,91V91a2.33,2.33,0,0,0-.36-1.32,1.23,1.23,0,0,0-1.1-.61q-1.35,0-1.38,2v.06a2.31,2.31,0,0,0,.37,1.34,1.3,1.3,0,0,0,1.11.55,1.18,1.18,0,0,0,1-.61A2.49,2.49,0,0,0,116,91Z" style="fill:#423c25"/><path d="M118.31,85.91l1.17,0v7.86l-1.12.05Z" style="fill:#423c25"/><path d="M121.23,88.76a2.25,2.25,0,0,1,1.15-.62,3.84,3.84,0,0,1,.69-.07,3.79,3.79,0,0,1,.86.1A1.43,1.43,0,0,1,125,89.3a8,8,0,0,1,.16,1.79c0,.4,0,.85,0,1.36v0c0,.28.12.43.34.43a1.09,1.09,0,0,0,.41-.11l.09,1a3,3,0,0,1-.73.11,1.07,1.07,0,0,1-1-.56,2.71,2.71,0,0,1-1,.59,3.52,3.52,0,0,1-.88.13h0a1.93,1.93,0,0,1-.83-.17,1.4,1.4,0,0,1-.94-1.25s0-.11,0-.17a2.24,2.24,0,0,1,.15-.78,1.67,1.67,0,0,1,.92-.87,8.1,8.1,0,0,1,2.5-.52,1.45,1.45,0,0,0-.19-.92,1.18,1.18,0,0,0-.74-.24H123a1.42,1.42,0,0,0-.7.16,1,1,0,0,0-.4.81L120.75,90A1.85,1.85,0,0,1,121.23,88.76Zm2.88,2.48a4.76,4.76,0,0,0-1.9.41.87.87,0,0,0-.47.71v.06A.64.64,0,0,0,122,93a1,1,0,0,0,.58.16h.17a1.85,1.85,0,0,0,.75-.21,5.86,5.86,0,0,0,.6-.41Z" style="fill:#423c25"/><path d="M128.16,87.57l.06,1.33a1.71,1.71,0,0,1,.95-.91,1.92,1.92,0,0,1,1.18-.1,1.65,1.65,0,0,1,1,.62,2.59,2.59,0,0,1,.5,1.12,12.32,12.32,0,0,1,.08,1.81c0,.72,0,1.63,0,2.75l-1.1,0c0-1,0-1.75,0-2.38,0-1,0-1.62,0-1.81a1.06,1.06,0,0,0-1.08-1h0a1,1,0,0,0-.66.22,2.42,2.42,0,0,0-.45.58,3.76,3.76,0,0,0-.22,1.42l-.06,2.53-1.11,0L127,87.7Z" style="fill:#423c25"/><path d="M132.94,86.12l1.17-.11.06,4.48,2.27-2.36,1.2.27-2.19,2.2L137.89,94l-1.29.16-2-2.81-.47.5v2l-1.18.1Z" style="fill:#423c25"/><path d="M17,101.71a1.58,1.58,0,0,0-.58-.12,1.39,1.39,0,0,0-.3,0,1.36,1.36,0,0,0-.72.47,1.78,1.78,0,0,0-.39,1,4.38,4.38,0,0,0,0,.51,2.37,2.37,0,0,0,.07.61,1.7,1.7,0,0,0,.43.88,1.19,1.19,0,0,0,.84.39h.12a1.5,1.5,0,0,0,.78-.22,1.25,1.25,0,0,0,.5-1l1.11.22a2.48,2.48,0,0,1-.57,1.26,2,2,0,0,1-1.18.65,4,4,0,0,1-.68.06,3.08,3.08,0,0,1-.68-.07,2.18,2.18,0,0,1-1.07-.54,2.32,2.32,0,0,1-.63-1.15,4.16,4.16,0,0,1-.16-1.16c0-.11,0-.21,0-.31a3.68,3.68,0,0,1,.34-1.35A2.25,2.25,0,0,1,15,101a2.53,2.53,0,0,1,.92-.39,3.27,3.27,0,0,1,.57,0l.52,0a2.22,2.22,0,0,1,1.17.53,2.07,2.07,0,0,1,.65,1.36l-1.1.17A1.24,1.24,0,0,0,17,101.71Z" style="fill:#423c25"/><path d="M20.58,101.7a2.17,2.17,0,0,1,1.15-.61,3,3,0,0,1,.68-.08,4.47,4.47,0,0,1,.87.1,1.43,1.43,0,0,1,1.08,1.13,8.08,8.08,0,0,1,.15,1.79c0,.4,0,.86,0,1.36v0c0,.28.11.43.34.43a1.27,1.27,0,0,0,.41-.1l.09,1a3,3,0,0,1-.74.1,1,1,0,0,1-1-.56,2.71,2.71,0,0,1-.95.59,3.19,3.19,0,0,1-.89.13h0a2.13,2.13,0,0,1-.84-.16,1.62,1.62,0,0,1-.65-.49,1.41,1.41,0,0,1-.28-.77.91.91,0,0,1,0-.17,2.29,2.29,0,0,1,.15-.78,1.64,1.64,0,0,1,.91-.86,7.89,7.89,0,0,1,2.51-.53,1.52,1.52,0,0,0-.19-.92,1.22,1.22,0,0,0-.75-.24h-.19a1.48,1.48,0,0,0-.7.15,1,1,0,0,0-.4.81l-1.12-.14A1.82,1.82,0,0,1,20.58,101.7Zm2.88,2.48a4.88,4.88,0,0,0-1.91.41.89.89,0,0,0-.46.71v.06a.67.67,0,0,0,.27.58,1,1,0,0,0,.58.15h.17a1.71,1.71,0,0,0,.75-.21,5.86,5.86,0,0,0,.6-.41Z" style="fill:#423c25"/><path d="M29.89,102.1a1.61,1.61,0,0,0-.79-.25H29a1.2,1.2,0,0,0-.68.25,1.78,1.78,0,0,0-.45.52,3.35,3.35,0,0,0-.22,1.39l-.07,2.54-1.1,0-.1-6.11,1.15-.13,0,1.34a1.88,1.88,0,0,1,1-1,1.53,1.53,0,0,1,.54-.09,3.09,3.09,0,0,1,1.12.25Z" style="fill:#423c25"/><path d="M35.4,106.78l0-1a1.76,1.76,0,0,1-.74.69,2.38,2.38,0,0,1-1.08.24,2.19,2.19,0,0,1-1.21-.39,2.07,2.07,0,0,1-.83-1.09,4.66,4.66,0,0,1-.25-1.42s0,0,0-.07a5.19,5.19,0,0,1,.24-1.49,2.32,2.32,0,0,1,.84-1.26,1.86,1.86,0,0,1,1.12-.31l.51,0a1.69,1.69,0,0,1,1.41,1.07l0-2.89h1.19v7.84Zm-2.93-3a2.49,2.49,0,0,0,.36,1.34,1.18,1.18,0,0,0,1,.62,1.3,1.3,0,0,0,1.11-.56,2.27,2.27,0,0,0,.36-1.33v-.07q0-2-1.38-2a1.26,1.26,0,0,0-1.1.62,2.35,2.35,0,0,0-.35,1.31Z" style="fill:#423c25"/><path d="M37.57,104.72l1.13-.21c0,.56.27.89.65,1a3.14,3.14,0,0,0,.71.09l.28,0a.88.88,0,0,0,.59-.25.72.72,0,0,0,.19-.35.17.17,0,0,0,0-.07.39.39,0,0,0-.1-.26,1,1,0,0,0-.28-.26,5.51,5.51,0,0,0-1-.35,12,12,0,0,1-1.21-.4,1.48,1.48,0,0,1-.59-.43,1.17,1.17,0,0,1-.24-.71v-.09a1.66,1.66,0,0,1,.16-.73,1.45,1.45,0,0,1,.66-.63,2.75,2.75,0,0,1,1-.31l.39,0a4.9,4.9,0,0,1,.54,0,2.3,2.3,0,0,1,.9.37,2.24,2.24,0,0,1,.72,1.37l-1,.14c-.14-.48-.33-.75-.55-.83a1.87,1.87,0,0,0-.56-.09h-.12a1.08,1.08,0,0,0-.57.19.6.6,0,0,0-.26.42v.05a.41.41,0,0,0,.16.34,2.63,2.63,0,0,0,.95.34,6.36,6.36,0,0,1,1.38.47,1.36,1.36,0,0,1,.71.63,1.87,1.87,0,0,1,.14.76h0a1.49,1.49,0,0,1-.23.8,1.87,1.87,0,0,1-.76.62,3,3,0,0,1-1.29.26h-.08a3.59,3.59,0,0,1-1.1-.13,1.9,1.9,0,0,1-.76-.45A2.34,2.34,0,0,1,37.57,104.72Z" style="fill:#423c25"/><path d="M45.44,100.44h.92V98.77l1.18-.15v1.77l1.53,0v1l-1.53,0v3.51a1.2,1.2,0,0,0,.1.57.42.42,0,0,0,.34.14,4.6,4.6,0,0,0,.94-.2l.15,1a6.51,6.51,0,0,1-1.4.22,1.86,1.86,0,0,1-1-.36,1.69,1.69,0,0,1-.3-1.06v-3.77h-.92Z" style="fill:#423c25"/><path d="M50.84,106.15a3.29,3.29,0,0,1-.71-2.22,3.24,3.24,0,0,1,.71-2.19,2.72,2.72,0,0,1,4,0,3.29,3.29,0,0,1,.71,2.19,3.34,3.34,0,0,1-.71,2.22,2.72,2.72,0,0,1-4,0Zm3.18-.76a2.44,2.44,0,0,0,.39-1.41,2.41,2.41,0,0,0-.39-1.4,1.34,1.34,0,0,0-1.2-.66,1.36,1.36,0,0,0-1.2.66,2.41,2.41,0,0,0-.39,1.4,2.44,2.44,0,0,0,.39,1.41,1.38,1.38,0,0,0,1.2.65A1.35,1.35,0,0,0,54,105.39Z" style="fill:#423c25"/><path d="M59.42,106.15a3.29,3.29,0,0,1-.71-2.22,3.24,3.24,0,0,1,.71-2.19,2.72,2.72,0,0,1,4,0,3.29,3.29,0,0,1,.71,2.19,3.34,3.34,0,0,1-.71,2.22,2.72,2.72,0,0,1-4,0Zm3.18-.76A2.44,2.44,0,0,0,63,104a2.41,2.41,0,0,0-.39-1.4,1.42,1.42,0,0,0-2.4,0,2.41,2.41,0,0,0-.39,1.4,2.44,2.44,0,0,0,.39,1.41,1.43,1.43,0,0,0,2.4,0Z" style="fill:#423c25"/><path d="M66.32,100.51l.05,1.33a1.73,1.73,0,0,1,1-.91,2,2,0,0,1,.75-.14,1.93,1.93,0,0,1,.42,0,1.62,1.62,0,0,1,1,.62,2.65,2.65,0,0,1,.51,1.13,12.66,12.66,0,0,1,.07,1.8c0,.72,0,1.64,0,2.76l-1.1,0c0-.95,0-1.75,0-2.38a14.31,14.31,0,0,0-.06-1.81,1.15,1.15,0,0,0-.36-.7,1.08,1.08,0,0,0-.72-.24h0a1,1,0,0,0-.66.22,2.39,2.39,0,0,0-.44.57,3.6,3.6,0,0,0-.22,1.42l-.07,2.53-1.1,0-.1-6.11Z" style="fill:#423c25"/><path d="M72.35,104.1a2.16,2.16,0,0,0,.41,1.34,1.38,1.38,0,0,0,.91.39h.14a1.36,1.36,0,0,0,.79-.23,1.64,1.64,0,0,0,.58-1l1.17.22a3.58,3.58,0,0,1-.65,1.26,1.92,1.92,0,0,1-1.19.65,4.56,4.56,0,0,1-.72.06,3.38,3.38,0,0,1-.72-.07,2.22,2.22,0,0,1-1.19-.68,2.64,2.64,0,0,1-.67-1.25,4.54,4.54,0,0,1-.11-1c0-.12,0-.25,0-.38a3.7,3.7,0,0,1,.36-1.32,2.32,2.32,0,0,1,.78-.9,3.19,3.19,0,0,1,1-.39,3.64,3.64,0,0,1,.6,0c.19,0,.38,0,.6,0a1.93,1.93,0,0,1,1.29.79,4.11,4.11,0,0,1,.59,2.47Zm2.72-.92a1.55,1.55,0,0,0-.39-1,1.2,1.2,0,0,0-.94-.42,1.31,1.31,0,0,0-1,.4,1.41,1.41,0,0,0-.4,1Z" style="fill:#423c25"/><path d="M79.57,98.58h1.37l3.52,5.68h0V98.43h1.28l-.1,7.85H84.33l-3.5-5.76h0v5.24H79.52Z" style="fill:#423c25"/><path d="M88,99.19a.62.62,0,0,1,.21.47.7.7,0,0,1-1.4,0,.62.62,0,0,1,.21-.47.7.7,0,0,1,1,0ZM86.91,101l1.17-.06-.1,5.86H87Z" style="fill:#423c25"/><path d="M90.41,100.51l0,1.33a1.77,1.77,0,0,1,1-.91,2,2,0,0,1,.75-.14,2.09,2.09,0,0,1,.43,0,1.63,1.63,0,0,1,1,.62,2.53,2.53,0,0,1,.51,1.13,12.66,12.66,0,0,1,.07,1.8c0,.72,0,1.64,0,2.76l-1.1,0c0-.95,0-1.75,0-2.38a14.31,14.31,0,0,0-.06-1.81,1.1,1.1,0,0,0-.36-.7,1.07,1.07,0,0,0-.71-.24h0a.92.92,0,0,0-.65.22,2.18,2.18,0,0,0-.45.57,3.6,3.6,0,0,0-.22,1.42l-.07,2.53-1.1,0-.1-6.11Z" style="fill:#423c25"/><path d="M94.82,107.6h.05a.51.51,0,0,1,.22.07,1.06,1.06,0,0,0,.78-.49,3.82,3.82,0,0,0,.2-1.52l0-4.52,1.06.07c0,.82,0,1.55,0,2.21a27.37,27.37,0,0,1-.13,3.77,1.8,1.8,0,0,1-.57,1,1.9,1.9,0,0,1-.92.42,1.55,1.55,0,0,1-.31,0,2.8,2.8,0,0,1-.48,0ZM97,99.19a.62.62,0,0,1,.21.47.71.71,0,0,1-1.19.49.66.66,0,0,1-.2-.49.61.61,0,0,1,.2-.47.7.7,0,0,1,1,0Z" style="fill:#423c25"/><path d="M99,101.7a2.17,2.17,0,0,1,1.15-.61,3,3,0,0,1,.68-.08,4.56,4.56,0,0,1,.87.1,1.43,1.43,0,0,1,1.08,1.13,8.08,8.08,0,0,1,.15,1.79c0,.4,0,.86,0,1.36v0c0,.28.11.43.34.43a1.27,1.27,0,0,0,.41-.1l.09,1a3,3,0,0,1-.74.1,1.06,1.06,0,0,1-1-.56,2.68,2.68,0,0,1-.94.59,3.19,3.19,0,0,1-.89.13h0a2.13,2.13,0,0,1-.84-.16,1.62,1.62,0,0,1-.65-.49,1.5,1.5,0,0,1-.29-.77v-.17a2.29,2.29,0,0,1,.15-.78,1.64,1.64,0,0,1,.91-.86,7.82,7.82,0,0,1,2.5-.53,1.45,1.45,0,0,0-.19-.92,1.16,1.16,0,0,0-.74-.24h-.19a1.45,1.45,0,0,0-.7.15,1,1,0,0,0-.4.81l-1.13-.14A1.88,1.88,0,0,1,99,101.7Zm2.88,2.48a4.83,4.83,0,0,0-1.91.41.87.87,0,0,0-.46.71s0,0,0,.06a.67.67,0,0,0,.27.58,1.08,1.08,0,0,0,.59.15h.17a1.71,1.71,0,0,0,.75-.21,5.86,5.86,0,0,0,.6-.41Z" style="fill:#423c25"/><path d="M106,105.08a.66.66,0,0,1,.21.48.63.63,0,0,1-.21.48.66.66,0,0,1-.49.2.66.66,0,0,1-.5-.2.66.66,0,0,1-.2-.48.71.71,0,0,1,1.19-.48Z" style="fill:#423c25"/></g></g></svg>