<svg xmlns="http://www.w3.org/2000/svg" width="150" height="150" viewBox="0 0 150 150"><g id="b1bebf39-0f6f-411c-99e1-53754b9a8add" data-name="fond"><rect x="0.3" y="-0.1" width="149.39" height="149.69" style="fill:#fff"/></g><g id="f4e46655-a3e1-493e-a223-5db1c48ad480" data-name="shuri peinture"><path d="M158.59,20.38l-13.37-.64A2.75,2.75,0,0,0,145,18l0,0a.15.15,0,0,0,.09.06l7.38.36-6.12-4.63h0v0a2.7,2.7,0,0,0,1.5-1Z" style="fill:#fff"/><path d="M153.14-3.26,146.43,8.31a2.87,2.87,0,0,0-1.63-.63V7.56a.23.23,0,0,0,.2-.11l2.91-5.54-6.4,2.82s0,0-.05,0l-.1,0a2.57,2.57,0,0,0-.14-1.8Z" style="fill:#fff"/><path d="M152.54,18.38,145.16,18a.15.15,0,0,1-.09-.06s0,0,0-.06l1.3-4.14,0,0h0Z" style="fill:#423c25"/><path d="M147.9,1.91,145,7.45a.23.23,0,0,1-.2.11.19.19,0,0,1-.14,0l-3.17-2.6a.11.11,0,0,1,0-.14s0,0,.05,0Z" style="fill:#423c25"/><path d="M146.4,13.72v0l0,0-1.3,4.14s0,0,0,.06l0,0a1.6,1.6,0,0,0-.21-.32c-.87-1-2.6-.75-3.6-.17-.11.07-2,1.21-1.69,3a2.31,2.31,0,0,0,.92,1.51l-.05.08a.11.11,0,0,0-.12,0l-4,1.08a.16.16,0,0,0-.12.16l-.13,0c.28-1.27-.92-2.49-2-3-.12-.06-2.16-1-3.44.36a2.29,2.29,0,0,0-.39.54l-.07,0a.08.08,0,0,0,0-.11l-3.09-2.15a.11.11,0,0,0-.08,0v-.08l.29,0c1.32-.29,1.89-1.94,1.86-3.09,0-.13-.1-2.37-1.86-2.91a2.82,2.82,0,0,0-1.55,0l0-.09a.13.13,0,0,0,.09-.1L126.91,9a.14.14,0,0,0-.07-.18l.06-.09c1,.77,2.52.39,3.43-.22.1-.07,1.95-1.33,1.48-3.11a2.49,2.49,0,0,0-.67-1.17l.1-.1a.15.15,0,0,0,.19.09L135.16,3a.21.21,0,0,0,.13-.11l.09,0-.07.19c-.41,1.28.74,2.6,1.76,3.14.12.06,2.11,1.09,3.45-.16a2.86,2.86,0,0,0,.83-1.37l.1,0a.11.11,0,0,0,0,.14l3.17,2.6a.19.19,0,0,0,.14,0v.12a1.92,1.92,0,0,0-.41.05c-1.3.3-1.85,2-1.8,3.12,0,.13.14,2.36,1.9,2.88A3.54,3.54,0,0,0,146.4,13.72ZM137.59,15a2.31,2.31,0,1,0-3.26.3A2.29,2.29,0,0,0,137.59,15Z" style="fill:#423c25"/><path d="M141.73,22.75V36.18l-7.18-11.29A2.64,2.64,0,0,0,136,23.35v-.08l.13,0a.19.19,0,0,0,0,.1l4,6.31.23-7.53a.11.11,0,0,0,0-.08l.05-.08a2.77,2.77,0,0,0,1.29.49Z" style="fill:#fff"/><path d="M140.42,22.17l-.23,7.53-4-6.31a.19.19,0,0,1,0-.1.16.16,0,0,1,.12-.16l4-1.08a.11.11,0,0,1,.12,0A.11.11,0,0,1,140.42,22.17Z" style="fill:#423c25"/><path d="M137.29,11.72A2.31,2.31,0,1,1,134,12,2.29,2.29,0,0,1,137.29,11.72Z" style="fill:#fff"/><path d="M130.32-10l6.54,11.68a2.6,2.6,0,0,0-1.48,1.26l-.09,0a.19.19,0,0,0,0-.15l-3.32-6L131.23,4a.17.17,0,0,0,0,.07l-.1.1a2.77,2.77,0,0,0-1.76-.72Z" style="fill:#fff"/><path d="M135.27,2.74a.19.19,0,0,1,0,.15.21.21,0,0,1-.13.11l-3.73,1.17a.15.15,0,0,1-.19-.09.17.17,0,0,1,0-.07L132-3.23Z" style="fill:#423c25"/><path d="M130.41,23.53l-12,6.09,6.88-11.46a2.79,2.79,0,0,0,1.74.65v.08a.16.16,0,0,0-.14.08l-3.64,6.1,6.94-3.86,0,0,.07,0a1.51,1.51,0,0,0-.18.44A2.68,2.68,0,0,0,130.41,23.53Z" style="fill:#fff"/><path d="M130.15,21.07a.08.08,0,0,1,0,.11l0,0-6.94,3.86,3.64-6.1a.16.16,0,0,1,.14-.08.11.11,0,0,1,.08,0Z" style="fill:#423c25"/><path d="M126.84,8.77a.14.14,0,0,1,.07.18l-1.12,3.59a.13.13,0,0,1-.09.1.17.17,0,0,1-.12,0l-6.49-4,7.68.16Z" style="fill:#423c25"/><path d="M126.9,8.68l-.06.09h-.07l-7.68-.16,6.49,4a.17.17,0,0,0,.12,0l0,.09a2.53,2.53,0,0,0-1.49,1l-11.44-7,13.38-.23a2.58,2.58,0,0,0,.55,2Z" style="fill:#fff"/><path d="M144.8,7.68a2.87,2.87,0,0,1,1.63.63l6.71-11.57-11.93,6.2a2.57,2.57,0,0,1,.14,1.8,2.86,2.86,0,0,1-.83,1.37c-1.34,1.25-3.33.22-3.45.16-1-.54-2.17-1.86-1.76-3.14l.07-.19a2.6,2.6,0,0,1,1.48-1.26L130.32-10l-.94,13.46a2.77,2.77,0,0,1,1.76.72,2.49,2.49,0,0,1,.67,1.17c.47,1.78-1.38,3-1.48,3.11-.91.61-2.47,1-3.43.22l-.18-.15a2.58,2.58,0,0,1-.55-2l-13.38.23,11.44,7a2.53,2.53,0,0,1,1.49-1,2.82,2.82,0,0,1,1.55,0c1.76.54,1.86,2.78,1.86,2.91,0,1.15-.54,2.8-1.86,3.09l-.29,0a2.79,2.79,0,0,1-1.74-.65l-6.88,11.46,12-6.09a2.68,2.68,0,0,1-.35-1.88,1.51,1.51,0,0,1,.18-.44,2.29,2.29,0,0,1,.39-.54c1.28-1.33,3.32-.42,3.44-.36,1,.47,2.23,1.69,2,3v.08a2.64,2.64,0,0,1-1.46,1.54l7.18,11.29V22.5a2.77,2.77,0,0,1-1.29-.49,2.31,2.31,0,0,1-.92-1.51c-.35-1.8,1.58-2.94,1.69-3,1-.58,2.73-.85,3.6.17A1.6,1.6,0,0,1,145,18a2.75,2.75,0,0,1,.2,1.76l13.37.64L147.9,12.72a2.7,2.7,0,0,1-1.5,1,3.54,3.54,0,0,1-1.91,0c-1.76-.52-1.9-2.75-1.9-2.88-.05-1.16.5-2.82,1.8-3.12A1.92,1.92,0,0,1,144.8,7.68Z" style="fill:none;stroke:#423c25;stroke-miterlimit:10;stroke-width:0.599213838577271px"/><path d="M130.17,21.18l0,0-6.94,3.86,3.64-6.1a.16.16,0,0,1,.14-.08.11.11,0,0,1,.08,0l3.09,2.15A.08.08,0,0,1,130.17,21.18Z" style="fill:none;stroke:#423c25;stroke-miterlimit:10;stroke-width:0.599213838577271px"/><path d="M136.15,23.29a.19.19,0,0,0,0,.1l4,6.31.23-7.53a.11.11,0,0,0,0-.08.11.11,0,0,0-.12,0l-4,1.08A.16.16,0,0,0,136.15,23.29Z" style="fill:none;stroke:#423c25;stroke-miterlimit:10;stroke-width:0.599213838577271px"/><path d="M146.4,13.74h0l6.12,4.63L145.16,18a.15.15,0,0,1-.09-.06s0,0,0-.06l1.3-4.14Z" style="fill:none;stroke:#423c25;stroke-miterlimit:10;stroke-width:0.599213838577271px"/><path d="M141.45,4.77s0,0,.05,0l6.4-2.82L145,7.45a.23.23,0,0,1-.2.11.19.19,0,0,1-.14,0l-3.17-2.6A.11.11,0,0,1,141.45,4.77Z" style="fill:none;stroke:#423c25;stroke-miterlimit:10;stroke-width:0.599213838577271px"/><path d="M135.29,2.89a.19.19,0,0,0,0-.15l-3.32-6L131.23,4a.17.17,0,0,0,0,.07.15.15,0,0,0,.19.09L135.16,3A.21.21,0,0,0,135.29,2.89Z" style="fill:none;stroke:#423c25;stroke-miterlimit:10;stroke-width:0.599213838577271px"/><path d="M125.7,12.64a.17.17,0,0,1-.12,0l-6.49-4,7.68.16h.07a.14.14,0,0,1,.07.18l-1.12,3.59A.13.13,0,0,1,125.7,12.64Z" style="fill:none;stroke:#423c25;stroke-miterlimit:10;stroke-width:0.599213838577271px"/><path d="M137.29,11.72A2.31,2.31,0,1,1,134,12,2.29,2.29,0,0,1,137.29,11.72Z" style="fill:none;stroke:#423c25;stroke-miterlimit:10;stroke-width:0.599213838577271px"/><path d="M158.59,20.38l-13.37-.64A2.75,2.75,0,0,0,145,18l0,0a.15.15,0,0,0,.09.06l7.38.36-6.12-4.63h0v0a2.7,2.7,0,0,0,1.5-1Z" style="fill:#fff"/><path d="M153.14-3.26,146.43,8.31a2.87,2.87,0,0,0-1.63-.63V7.56a.23.23,0,0,0,.2-.11l2.91-5.54-6.4,2.82s0,0-.05,0l-.1,0a2.57,2.57,0,0,0-.14-1.8Z" style="fill:#fff"/><path d="M152.54,18.38,145.16,18a.15.15,0,0,1-.09-.06s0,0,0-.06l1.3-4.14,0,0h0Z" style="fill:#423c25"/><path d="M147.9,1.91,145,7.45a.23.23,0,0,1-.2.11.19.19,0,0,1-.14,0l-3.17-2.6a.11.11,0,0,1,0-.14s0,0,.05,0Z" style="fill:#423c25"/><path d="M146.4,13.72v0l0,0-1.3,4.14s0,0,0,.06l0,0a1.6,1.6,0,0,0-.21-.32c-.87-1-2.6-.75-3.6-.17-.11.07-2,1.21-1.69,3a2.31,2.31,0,0,0,.92,1.51l-.05.08a.11.11,0,0,0-.12,0l-4,1.08a.16.16,0,0,0-.12.16l-.13,0c.28-1.27-.92-2.49-2-3-.12-.06-2.16-1-3.44.36a2.29,2.29,0,0,0-.39.54l-.07,0a.08.08,0,0,0,0-.11l-3.09-2.15a.11.11,0,0,0-.08,0v-.08l.29,0c1.32-.29,1.89-1.94,1.86-3.09,0-.13-.1-2.37-1.86-2.91a2.82,2.82,0,0,0-1.55,0l0-.09a.13.13,0,0,0,.09-.1L126.91,9a.14.14,0,0,0-.07-.18l.06-.09c1,.77,2.52.39,3.43-.22.1-.07,1.95-1.33,1.48-3.11a2.49,2.49,0,0,0-.67-1.17l.1-.1a.15.15,0,0,0,.19.09L135.16,3a.21.21,0,0,0,.13-.11l.09,0-.07.19c-.41,1.28.74,2.6,1.76,3.14.12.06,2.11,1.09,3.45-.16a2.86,2.86,0,0,0,.83-1.37l.1,0a.11.11,0,0,0,0,.14l3.17,2.6a.19.19,0,0,0,.14,0v.12a1.92,1.92,0,0,0-.41.05c-1.3.3-1.85,2-1.8,3.12,0,.13.14,2.36,1.9,2.88A3.54,3.54,0,0,0,146.4,13.72ZM137.59,15a2.31,2.31,0,1,0-3.26.3A2.29,2.29,0,0,0,137.59,15Z" style="fill:#423c25"/><path d="M141.73,22.75V36.18l-7.18-11.29A2.64,2.64,0,0,0,136,23.35v-.08l.13,0a.19.19,0,0,0,0,.1l4,6.31.23-7.53a.11.11,0,0,0,0-.08l.05-.08a2.77,2.77,0,0,0,1.29.49Z" style="fill:#fff"/><path d="M140.42,22.17l-.23,7.53-4-6.31a.19.19,0,0,1,0-.1.16.16,0,0,1,.12-.16l4-1.08a.11.11,0,0,1,.12,0A.11.11,0,0,1,140.42,22.17Z" style="fill:#423c25"/><path d="M137.29,11.72A2.31,2.31,0,1,1,134,12,2.29,2.29,0,0,1,137.29,11.72Z" style="fill:#fff"/><path d="M130.32-10l6.54,11.68a2.6,2.6,0,0,0-1.48,1.26l-.09,0a.19.19,0,0,0,0-.15l-3.32-6L131.23,4a.17.17,0,0,0,0,.07l-.1.1a2.77,2.77,0,0,0-1.76-.72Z" style="fill:#fff"/><path d="M135.27,2.74a.19.19,0,0,1,0,.15.21.21,0,0,1-.13.11l-3.73,1.17a.15.15,0,0,1-.19-.09.17.17,0,0,1,0-.07L132-3.23Z" style="fill:#423c25"/><path d="M130.41,23.53l-12,6.09,6.88-11.46a2.79,2.79,0,0,0,1.74.65v.08a.16.16,0,0,0-.14.08l-3.64,6.1,6.94-3.86,0,0,.07,0a1.51,1.51,0,0,0-.18.44A2.68,2.68,0,0,0,130.41,23.53Z" style="fill:#fff"/><path d="M130.15,21.07a.08.08,0,0,1,0,.11l0,0-6.94,3.86,3.64-6.1a.16.16,0,0,1,.14-.08.11.11,0,0,1,.08,0Z" style="fill:#423c25"/><path d="M126.84,8.77a.14.14,0,0,1,.07.18l-1.12,3.59a.13.13,0,0,1-.09.1.17.17,0,0,1-.12,0l-6.49-4,7.68.16Z" style="fill:#423c25"/><path d="M126.9,8.68l-.06.09h-.07l-7.68-.16,6.49,4a.17.17,0,0,0,.12,0l0,.09a2.53,2.53,0,0,0-1.49,1l-11.44-7,13.38-.23a2.58,2.58,0,0,0,.55,2Z" style="fill:#fff"/><path d="M144.8,7.68a2.87,2.87,0,0,1,1.63.63l6.71-11.57-11.93,6.2a2.57,2.57,0,0,1,.14,1.8,2.86,2.86,0,0,1-.83,1.37c-1.34,1.25-3.33.22-3.45.16-1-.54-2.17-1.86-1.76-3.14l.07-.19a2.6,2.6,0,0,1,1.48-1.26L130.32-10l-.94,13.46a2.77,2.77,0,0,1,1.76.72,2.49,2.49,0,0,1,.67,1.17c.47,1.78-1.38,3-1.48,3.11-.91.61-2.47,1-3.43.22l-.18-.15a2.58,2.58,0,0,1-.55-2l-13.38.23,11.44,7a2.53,2.53,0,0,1,1.49-1,2.82,2.82,0,0,1,1.55,0c1.76.54,1.86,2.78,1.86,2.91,0,1.15-.54,2.8-1.86,3.09l-.29,0a2.79,2.79,0,0,1-1.74-.65l-6.88,11.46,12-6.09a2.68,2.68,0,0,1-.35-1.88,1.51,1.51,0,0,1,.18-.44,2.29,2.29,0,0,1,.39-.54c1.28-1.33,3.32-.42,3.44-.36,1,.47,2.23,1.69,2,3v.08a2.64,2.64,0,0,1-1.46,1.54l7.18,11.29V22.5a2.77,2.77,0,0,1-1.29-.49,2.31,2.31,0,0,1-.92-1.51c-.35-1.8,1.58-2.94,1.69-3,1-.58,2.73-.85,3.6.17A1.6,1.6,0,0,1,145,18a2.75,2.75,0,0,1,.2,1.76l13.37.64L147.9,12.72a2.7,2.7,0,0,1-1.5,1,3.54,3.54,0,0,1-1.91,0c-1.76-.52-1.9-2.75-1.9-2.88-.05-1.16.5-2.82,1.8-3.12A1.92,1.92,0,0,1,144.8,7.68Z" style="fill:none;stroke:#423c25;stroke-miterlimit:10;stroke-width:0.599213838577271px"/><path d="M130.17,21.18l0,0-6.94,3.86,3.64-6.1a.16.16,0,0,1,.14-.08.11.11,0,0,1,.08,0l3.09,2.15A.08.08,0,0,1,130.17,21.18Z" style="fill:none;stroke:#423c25;stroke-miterlimit:10;stroke-width:0.599213838577271px"/><path d="M136.15,23.29a.19.19,0,0,0,0,.1l4,6.31.23-7.53a.11.11,0,0,0,0-.08.11.11,0,0,0-.12,0l-4,1.08A.16.16,0,0,0,136.15,23.29Z" style="fill:none;stroke:#423c25;stroke-miterlimit:10;stroke-width:0.599213838577271px"/><path d="M146.4,13.74h0l6.12,4.63L145.16,18a.15.15,0,0,1-.09-.06s0,0,0-.06l1.3-4.14Z" style="fill:none;stroke:#423c25;stroke-miterlimit:10;stroke-width:0.599213838577271px"/><path d="M141.45,4.77s0,0,.05,0l6.4-2.82L145,7.45a.23.23,0,0,1-.2.11.19.19,0,0,1-.14,0l-3.17-2.6A.11.11,0,0,1,141.45,4.77Z" style="fill:none;stroke:#423c25;stroke-miterlimit:10;stroke-width:0.599213838577271px"/><path d="M135.29,2.89a.19.19,0,0,0,0-.15l-3.32-6L131.23,4a.17.17,0,0,0,0,.07.15.15,0,0,0,.19.09L135.16,3A.21.21,0,0,0,135.29,2.89Z" style="fill:none;stroke:#423c25;stroke-miterlimit:10;stroke-width:0.599213838577271px"/><path d="M125.7,12.64a.17.17,0,0,1-.12,0l-6.49-4,7.68.16h.07a.14.14,0,0,1,.07.18l-1.12,3.59A.13.13,0,0,1,125.7,12.64Z" style="fill:none;stroke:#423c25;stroke-miterlimit:10;stroke-width:0.599213838577271px"/><path d="M137.29,11.72A2.31,2.31,0,1,1,134,12,2.29,2.29,0,0,1,137.29,11.72Z" style="fill:none;stroke:#423c25;stroke-miterlimit:10;stroke-width:0.599213838577271px"/><path d="M158.59,20.38l-13.37-.64A2.75,2.75,0,0,0,145,18l0,0a.15.15,0,0,0,.09.06l7.38.36-6.12-4.63h0v0a2.7,2.7,0,0,0,1.5-1Z" style="fill:#fff"/><path d="M153.14-3.26,146.43,8.31a2.87,2.87,0,0,0-1.63-.63V7.56a.23.23,0,0,0,.2-.11l2.91-5.54-6.4,2.82s0,0-.05,0l-.1,0a2.57,2.57,0,0,0-.14-1.8Z" style="fill:#fff"/><path d="M152.54,18.38,145.16,18a.15.15,0,0,1-.09-.06s0,0,0-.06l1.3-4.14,0,0h0Z" style="fill:#423c25"/><path d="M147.9,1.91,145,7.45a.23.23,0,0,1-.2.11.19.19,0,0,1-.14,0l-3.17-2.6a.11.11,0,0,1,0-.14s0,0,.05,0Z" style="fill:#423c25"/><path d="M146.4,13.72v0l0,0-1.3,4.14s0,0,0,.06l0,0a1.6,1.6,0,0,0-.21-.32c-.87-1-2.6-.75-3.6-.17-.11.07-2,1.21-1.69,3a2.31,2.31,0,0,0,.92,1.51l-.05.08a.11.11,0,0,0-.12,0l-4,1.08a.16.16,0,0,0-.12.16l-.13,0c.28-1.27-.92-2.49-2-3-.12-.06-2.16-1-3.44.36a2.29,2.29,0,0,0-.39.54l-.07,0a.08.08,0,0,0,0-.11l-3.09-2.15a.11.11,0,0,0-.08,0v-.08l.29,0c1.32-.29,1.89-1.94,1.86-3.09,0-.13-.1-2.37-1.86-2.91a2.82,2.82,0,0,0-1.55,0l0-.09a.13.13,0,0,0,.09-.1L126.91,9a.14.14,0,0,0-.07-.18l.06-.09c1,.77,2.52.39,3.43-.22.1-.07,1.95-1.33,1.48-3.11a2.49,2.49,0,0,0-.67-1.17l.1-.1a.15.15,0,0,0,.19.09L135.16,3a.21.21,0,0,0,.13-.11l.09,0-.07.19c-.41,1.28.74,2.6,1.76,3.14.12.06,2.11,1.09,3.45-.16a2.86,2.86,0,0,0,.83-1.37l.1,0a.11.11,0,0,0,0,.14l3.17,2.6a.19.19,0,0,0,.14,0v.12a1.92,1.92,0,0,0-.41.05c-1.3.3-1.85,2-1.8,3.12,0,.13.14,2.36,1.9,2.88A3.54,3.54,0,0,0,146.4,13.72ZM137.59,15a2.31,2.31,0,1,0-3.26.3A2.29,2.29,0,0,0,137.59,15Z" style="fill:#423c25"/><path d="M141.73,22.75V36.18l-7.18-11.29A2.64,2.64,0,0,0,136,23.35v-.08l.13,0a.19.19,0,0,0,0,.1l4,6.31.23-7.53a.11.11,0,0,0,0-.08l.05-.08a2.77,2.77,0,0,0,1.29.49Z" style="fill:#fff"/><path d="M140.42,22.17l-.23,7.53-4-6.31a.19.19,0,0,1,0-.1.16.16,0,0,1,.12-.16l4-1.08a.11.11,0,0,1,.12,0A.11.11,0,0,1,140.42,22.17Z" style="fill:#423c25"/><path d="M137.29,11.72A2.31,2.31,0,1,1,134,12,2.29,2.29,0,0,1,137.29,11.72Z" style="fill:#fff"/><path d="M130.32-10l6.54,11.68a2.6,2.6,0,0,0-1.48,1.26l-.09,0a.19.19,0,0,0,0-.15l-3.32-6L131.23,4a.17.17,0,0,0,0,.07l-.1.1a2.77,2.77,0,0,0-1.76-.72Z" style="fill:#fff"/><path d="M135.27,2.74a.19.19,0,0,1,0,.15.21.21,0,0,1-.13.11l-3.73,1.17a.15.15,0,0,1-.19-.09.17.17,0,0,1,0-.07L132-3.23Z" style="fill:#423c25"/><path d="M130.41,23.53l-12,6.09,6.88-11.46a2.79,2.79,0,0,0,1.74.65v.08a.16.16,0,0,0-.14.08l-3.64,6.1,6.94-3.86,0,0,.07,0a1.51,1.51,0,0,0-.18.44A2.68,2.68,0,0,0,130.41,23.53Z" style="fill:#fff"/><path d="M130.15,21.07a.08.08,0,0,1,0,.11l0,0-6.94,3.86,3.64-6.1a.16.16,0,0,1,.14-.08.11.11,0,0,1,.08,0Z" style="fill:#423c25"/><path d="M126.84,8.77a.14.14,0,0,1,.07.18l-1.12,3.59a.13.13,0,0,1-.09.1.17.17,0,0,1-.12,0l-6.49-4,7.68.16Z" style="fill:#423c25"/><path d="M126.9,8.68l-.06.09h-.07l-7.68-.16,6.49,4a.17.17,0,0,0,.12,0l0,.09a2.53,2.53,0,0,0-1.49,1l-11.44-7,13.38-.23a2.58,2.58,0,0,0,.55,2Z" style="fill:#fff"/><path d="M144.8,7.68a2.87,2.87,0,0,1,1.63.63l6.71-11.57-11.93,6.2a2.57,2.57,0,0,1,.14,1.8,2.86,2.86,0,0,1-.83,1.37c-1.34,1.25-3.33.22-3.45.16-1-.54-2.17-1.86-1.76-3.14l.07-.19a2.6,2.6,0,0,1,1.48-1.26L130.32-10l-.94,13.46a2.77,2.77,0,0,1,1.76.72,2.49,2.49,0,0,1,.67,1.17c.47,1.78-1.38,3-1.48,3.11-.91.61-2.47,1-3.43.22l-.18-.15a2.58,2.58,0,0,1-.55-2l-13.38.23,11.44,7a2.53,2.53,0,0,1,1.49-1,2.82,2.82,0,0,1,1.55,0c1.76.54,1.86,2.78,1.86,2.91,0,1.15-.54,2.8-1.86,3.09l-.29,0a2.79,2.79,0,0,1-1.74-.65l-6.88,11.46,12-6.09a2.68,2.68,0,0,1-.35-1.88,1.51,1.51,0,0,1,.18-.44,2.29,2.29,0,0,1,.39-.54c1.28-1.33,3.32-.42,3.44-.36,1,.47,2.23,1.69,2,3v.08a2.64,2.64,0,0,1-1.46,1.54l7.18,11.29V22.5a2.77,2.77,0,0,1-1.29-.49,2.31,2.31,0,0,1-.92-1.51c-.35-1.8,1.58-2.94,1.69-3,1-.58,2.73-.85,3.6.17A1.6,1.6,0,0,1,145,18a2.75,2.75,0,0,1,.2,1.76l13.37.64L147.9,12.72a2.7,2.7,0,0,1-1.5,1,3.54,3.54,0,0,1-1.91,0c-1.76-.52-1.9-2.75-1.9-2.88-.05-1.16.5-2.82,1.8-3.12A1.92,1.92,0,0,1,144.8,7.68Z" style="fill:none;stroke:#423c25;stroke-miterlimit:10;stroke-width:0.599213838577271px"/><path d="M130.17,21.18l0,0-6.94,3.86,3.64-6.1a.16.16,0,0,1,.14-.08.11.11,0,0,1,.08,0l3.09,2.15A.08.08,0,0,1,130.17,21.18Z" style="fill:none;stroke:#423c25;stroke-miterlimit:10;stroke-width:0.599213838577271px"/><path d="M136.15,23.29a.19.19,0,0,0,0,.1l4,6.31.23-7.53a.11.11,0,0,0,0-.08.11.11,0,0,0-.12,0l-4,1.08A.16.16,0,0,0,136.15,23.29Z" style="fill:none;stroke:#423c25;stroke-miterlimit:10;stroke-width:0.599213838577271px"/><path d="M146.4,13.74h0l6.12,4.63L145.16,18a.15.15,0,0,1-.09-.06s0,0,0-.06l1.3-4.14Z" style="fill:none;stroke:#423c25;stroke-miterlimit:10;stroke-width:0.599213838577271px"/><path d="M141.45,4.77s0,0,.05,0l6.4-2.82L145,7.45a.23.23,0,0,1-.2.11.19.19,0,0,1-.14,0l-3.17-2.6A.11.11,0,0,1,141.45,4.77Z" style="fill:none;stroke:#423c25;stroke-miterlimit:10;stroke-width:0.599213838577271px"/><path d="M135.29,2.89a.19.19,0,0,0,0-.15l-3.32-6L131.23,4a.17.17,0,0,0,0,.07.15.15,0,0,0,.19.09L135.16,3A.21.21,0,0,0,135.29,2.89Z" style="fill:none;stroke:#423c25;stroke-miterlimit:10;stroke-width:0.599213838577271px"/><path d="M125.7,12.64a.17.17,0,0,1-.12,0l-6.49-4,7.68.16h.07a.14.14,0,0,1,.07.18l-1.12,3.59A.13.13,0,0,1,125.7,12.64Z" style="fill:none;stroke:#423c25;stroke-miterlimit:10;stroke-width:0.599213838577271px"/><path d="M137.29,11.72A2.31,2.31,0,1,1,134,12,2.29,2.29,0,0,1,137.29,11.72Z" style="fill:none;stroke:#423c25;stroke-miterlimit:10;stroke-width:0.599213838577271px"/><path d="M158.59,20.38l-13.37-.64A2.75,2.75,0,0,0,145,18l0,0a.15.15,0,0,0,.09.06l7.38.36-6.12-4.63h0v0a2.7,2.7,0,0,0,1.5-1Z" style="fill:#fff"/><path d="M153.14-3.26,146.43,8.31a2.87,2.87,0,0,0-1.63-.63V7.56a.23.23,0,0,0,.2-.11l2.91-5.54-6.4,2.82s0,0-.05,0l-.1,0a2.57,2.57,0,0,0-.14-1.8Z" style="fill:#fff"/><path d="M152.54,18.38,145.16,18a.15.15,0,0,1-.09-.06s0,0,0-.06l1.3-4.14,0,0h0Z" style="fill:#423c25"/><path d="M147.9,1.91,145,7.45a.23.23,0,0,1-.2.11.19.19,0,0,1-.14,0l-3.17-2.6a.11.11,0,0,1,0-.14s0,0,.05,0Z" style="fill:#423c25"/><path d="M146.4,13.72v0l0,0-1.3,4.14s0,0,0,.06l0,0a1.6,1.6,0,0,0-.21-.32c-.87-1-2.6-.75-3.6-.17-.11.07-2,1.21-1.69,3a2.31,2.31,0,0,0,.92,1.51l-.05.08a.11.11,0,0,0-.12,0l-4,1.08a.16.16,0,0,0-.12.16l-.13,0c.28-1.27-.92-2.49-2-3-.12-.06-2.16-1-3.44.36a2.29,2.29,0,0,0-.39.54l-.07,0a.08.08,0,0,0,0-.11l-3.09-2.15a.11.11,0,0,0-.08,0v-.08l.29,0c1.32-.29,1.89-1.94,1.86-3.09,0-.13-.1-2.37-1.86-2.91a2.82,2.82,0,0,0-1.55,0l0-.09a.13.13,0,0,0,.09-.1L126.91,9a.14.14,0,0,0-.07-.18l.06-.09c1,.77,2.52.39,3.43-.22.1-.07,1.95-1.33,1.48-3.11a2.49,2.49,0,0,0-.67-1.17l.1-.1a.15.15,0,0,0,.19.09L135.16,3a.21.21,0,0,0,.13-.11l.09,0-.07.19c-.41,1.28.74,2.6,1.76,3.14.12.06,2.11,1.09,3.45-.16a2.86,2.86,0,0,0,.83-1.37l.1,0a.11.11,0,0,0,0,.14l3.17,2.6a.19.19,0,0,0,.14,0v.12a1.92,1.92,0,0,0-.41.05c-1.3.3-1.85,2-1.8,3.12,0,.13.14,2.36,1.9,2.88A3.54,3.54,0,0,0,146.4,13.72ZM137.59,15a2.31,2.31,0,1,0-3.26.3A2.29,2.29,0,0,0,137.59,15Z" style="fill:#423c25"/><path d="M141.73,22.75V36.18l-7.18-11.29A2.64,2.64,0,0,0,136,23.35v-.08l.13,0a.19.19,0,0,0,0,.1l4,6.31.23-7.53a.11.11,0,0,0,0-.08l.05-.08a2.77,2.77,0,0,0,1.29.49Z" style="fill:#fff"/><path d="M140.42,22.17l-.23,7.53-4-6.31a.19.19,0,0,1,0-.1.16.16,0,0,1,.12-.16l4-1.08a.11.11,0,0,1,.12,0A.11.11,0,0,1,140.42,22.17Z" style="fill:#423c25"/><path d="M137.29,11.72A2.31,2.31,0,1,1,134,12,2.29,2.29,0,0,1,137.29,11.72Z" style="fill:#fff"/><path d="M130.32-10l6.54,11.68a2.6,2.6,0,0,0-1.48,1.26l-.09,0a.19.19,0,0,0,0-.15l-3.32-6L131.23,4a.17.17,0,0,0,0,.07l-.1.1a2.77,2.77,0,0,0-1.76-.72Z" style="fill:#fff"/><path d="M135.27,2.74a.19.19,0,0,1,0,.15.21.21,0,0,1-.13.11l-3.73,1.17a.15.15,0,0,1-.19-.09.17.17,0,0,1,0-.07L132-3.23Z" style="fill:#423c25"/><path d="M130.41,23.53l-12,6.09,6.88-11.46a2.79,2.79,0,0,0,1.74.65v.08a.16.16,0,0,0-.14.08l-3.64,6.1,6.94-3.86,0,0,.07,0a1.51,1.51,0,0,0-.18.44A2.68,2.68,0,0,0,130.41,23.53Z" style="fill:#fff"/><path d="M130.15,21.07a.08.08,0,0,1,0,.11l0,0-6.94,3.86,3.64-6.1a.16.16,0,0,1,.14-.08.11.11,0,0,1,.08,0Z" style="fill:#423c25"/><path d="M126.84,8.77a.14.14,0,0,1,.07.18l-1.12,3.59a.13.13,0,0,1-.09.1.17.17,0,0,1-.12,0l-6.49-4,7.68.16Z" style="fill:#423c25"/><path d="M126.9,8.68l-.06.09h-.07l-7.68-.16,6.49,4a.17.17,0,0,0,.12,0l0,.09a2.53,2.53,0,0,0-1.49,1l-11.44-7,13.38-.23a2.58,2.58,0,0,0,.55,2Z" style="fill:#fff"/><path d="M144.8,7.68a2.87,2.87,0,0,1,1.63.63l6.71-11.57-11.93,6.2a2.57,2.57,0,0,1,.14,1.8,2.86,2.86,0,0,1-.83,1.37c-1.34,1.25-3.33.22-3.45.16-1-.54-2.17-1.86-1.76-3.14l.07-.19a2.6,2.6,0,0,1,1.48-1.26L130.32-10l-.94,13.46a2.77,2.77,0,0,1,1.76.72,2.49,2.49,0,0,1,.67,1.17c.47,1.78-1.38,3-1.48,3.11-.91.61-2.47,1-3.43.22l-.18-.15a2.58,2.58,0,0,1-.55-2l-13.38.23,11.44,7a2.53,2.53,0,0,1,1.49-1,2.82,2.82,0,0,1,1.55,0c1.76.54,1.86,2.78,1.86,2.91,0,1.15-.54,2.8-1.86,3.09l-.29,0a2.79,2.79,0,0,1-1.74-.65l-6.88,11.46,12-6.09a2.68,2.68,0,0,1-.35-1.88,1.51,1.51,0,0,1,.18-.44,2.29,2.29,0,0,1,.39-.54c1.28-1.33,3.32-.42,3.44-.36,1,.47,2.23,1.69,2,3v.08a2.64,2.64,0,0,1-1.46,1.54l7.18,11.29V22.5a2.77,2.77,0,0,1-1.29-.49,2.31,2.31,0,0,1-.92-1.51c-.35-1.8,1.58-2.94,1.69-3,1-.58,2.73-.85,3.6.17A1.6,1.6,0,0,1,145,18a2.75,2.75,0,0,1,.2,1.76l13.37.64L147.9,12.72a2.7,2.7,0,0,1-1.5,1,3.54,3.54,0,0,1-1.91,0c-1.76-.52-1.9-2.75-1.9-2.88-.05-1.16.5-2.82,1.8-3.12A1.92,1.92,0,0,1,144.8,7.68Z" style="fill:none;stroke:#423c25;stroke-miterlimit:10;stroke-width:0.599213838577271px"/><path d="M130.17,21.18l0,0-6.94,3.86,3.64-6.1a.16.16,0,0,1,.14-.08.11.11,0,0,1,.08,0l3.09,2.15A.08.08,0,0,1,130.17,21.18Z" style="fill:none;stroke:#423c25;stroke-miterlimit:10;stroke-width:0.599213838577271px"/><path d="M136.15,23.29a.19.19,0,0,0,0,.1l4,6.31.23-7.53a.11.11,0,0,0,0-.08.11.11,0,0,0-.12,0l-4,1.08A.16.16,0,0,0,136.15,23.29Z" style="fill:none;stroke:#423c25;stroke-miterlimit:10;stroke-width:0.599213838577271px"/><path d="M146.4,13.74h0l6.12,4.63L145.16,18a.15.15,0,0,1-.09-.06s0,0,0-.06l1.3-4.14Z" style="fill:none;stroke:#423c25;stroke-miterlimit:10;stroke-width:0.599213838577271px"/><path d="M141.45,4.77s0,0,.05,0l6.4-2.82L145,7.45a.23.23,0,0,1-.2.11.19.19,0,0,1-.14,0l-3.17-2.6A.11.11,0,0,1,141.45,4.77Z" style="fill:none;stroke:#423c25;stroke-miterlimit:10;stroke-width:0.599213838577271px"/><path d="M135.29,2.89a.19.19,0,0,0,0-.15l-3.32-6L131.23,4a.17.17,0,0,0,0,.07.15.15,0,0,0,.19.09L135.16,3A.21.21,0,0,0,135.29,2.89Z" style="fill:none;stroke:#423c25;stroke-miterlimit:10;stroke-width:0.599213838577271px"/><path d="M125.7,12.64a.17.17,0,0,1-.12,0l-6.49-4,7.68.16h.07a.14.14,0,0,1,.07.18l-1.12,3.59A.13.13,0,0,1,125.7,12.64Z" style="fill:none;stroke:#423c25;stroke-miterlimit:10;stroke-width:0.599213838577271px"/><path d="M137.29,11.72A2.31,2.31,0,1,1,134,12,2.29,2.29,0,0,1,137.29,11.72Z" style="fill:none;stroke:#423c25;stroke-miterlimit:10;stroke-width:0.599213838577271px"/><path d="M158.59,20.38l-13.37-.64A2.75,2.75,0,0,0,145,18l0,0a.15.15,0,0,0,.09.06l7.38.36-6.12-4.63h0v0a2.7,2.7,0,0,0,1.5-1Z" style="fill:#fff"/><path d="M153.14-3.26,146.43,8.31a2.87,2.87,0,0,0-1.63-.63V7.56a.23.23,0,0,0,.2-.11l2.91-5.54-6.4,2.82s0,0-.05,0l-.1,0a2.57,2.57,0,0,0-.14-1.8Z" style="fill:#fff"/><path d="M152.54,18.38,145.16,18a.15.15,0,0,1-.09-.06s0,0,0-.06l1.3-4.14,0,0h0Z" style="fill:#423c25"/><path d="M147.9,1.91,145,7.45a.23.23,0,0,1-.2.11.19.19,0,0,1-.14,0l-3.17-2.6a.11.11,0,0,1,0-.14s0,0,.05,0Z" style="fill:#423c25"/><path d="M146.4,13.72v0l0,0-1.3,4.14s0,0,0,.06l0,0a1.6,1.6,0,0,0-.21-.32c-.87-1-2.6-.75-3.6-.17-.11.07-2,1.21-1.69,3a2.31,2.31,0,0,0,.92,1.51l-.05.08a.11.11,0,0,0-.12,0l-4,1.08a.16.16,0,0,0-.12.16l-.13,0c.28-1.27-.92-2.49-2-3-.12-.06-2.16-1-3.44.36a2.29,2.29,0,0,0-.39.54l-.07,0a.08.08,0,0,0,0-.11l-3.09-2.15a.11.11,0,0,0-.08,0v-.08l.29,0c1.32-.29,1.89-1.94,1.86-3.09,0-.13-.1-2.37-1.86-2.91a2.82,2.82,0,0,0-1.55,0l0-.09a.13.13,0,0,0,.09-.1L126.91,9a.14.14,0,0,0-.07-.18l.06-.09c1,.77,2.52.39,3.43-.22.1-.07,1.95-1.33,1.48-3.11a2.49,2.49,0,0,0-.67-1.17l.1-.1a.15.15,0,0,0,.19.09L135.16,3a.21.21,0,0,0,.13-.11l.09,0-.07.19c-.41,1.28.74,2.6,1.76,3.14.12.06,2.11,1.09,3.45-.16a2.86,2.86,0,0,0,.83-1.37l.1,0a.11.11,0,0,0,0,.14l3.17,2.6a.19.19,0,0,0,.14,0v.12a1.92,1.92,0,0,0-.41.05c-1.3.3-1.85,2-1.8,3.12,0,.13.14,2.36,1.9,2.88A3.54,3.54,0,0,0,146.4,13.72ZM137.59,15a2.31,2.31,0,1,0-3.26.3A2.29,2.29,0,0,0,137.59,15Z" style="fill:#423c25"/><path d="M141.73,22.75V36.18l-7.18-11.29A2.64,2.64,0,0,0,136,23.35v-.08l.13,0a.19.19,0,0,0,0,.1l4,6.31.23-7.53a.11.11,0,0,0,0-.08l.05-.08a2.77,2.77,0,0,0,1.29.49Z" style="fill:#fff"/><path d="M140.42,22.17l-.23,7.53-4-6.31a.19.19,0,0,1,0-.1.16.16,0,0,1,.12-.16l4-1.08a.11.11,0,0,1,.12,0A.11.11,0,0,1,140.42,22.17Z" style="fill:#423c25"/><path d="M137.29,11.72A2.31,2.31,0,1,1,134,12,2.29,2.29,0,0,1,137.29,11.72Z" style="fill:#fff"/><path d="M130.32-10l6.54,11.68a2.6,2.6,0,0,0-1.48,1.26l-.09,0a.19.19,0,0,0,0-.15l-3.32-6L131.23,4a.17.17,0,0,0,0,.07l-.1.1a2.77,2.77,0,0,0-1.76-.72Z" style="fill:#fff"/><path d="M135.27,2.74a.19.19,0,0,1,0,.15.21.21,0,0,1-.13.11l-3.73,1.17a.15.15,0,0,1-.19-.09.17.17,0,0,1,0-.07L132-3.23Z" style="fill:#423c25"/><path d="M130.41,23.53l-12,6.09,6.88-11.46a2.79,2.79,0,0,0,1.74.65v.08a.16.16,0,0,0-.14.08l-3.64,6.1,6.94-3.86,0,0,.07,0a1.51,1.51,0,0,0-.18.44A2.68,2.68,0,0,0,130.41,23.53Z" style="fill:#fff"/><path d="M130.15,21.07a.08.08,0,0,1,0,.11l0,0-6.94,3.86,3.64-6.1a.16.16,0,0,1,.14-.08.11.11,0,0,1,.08,0Z" style="fill:#423c25"/><path d="M126.84,8.77a.14.14,0,0,1,.07.18l-1.12,3.59a.13.13,0,0,1-.09.1.17.17,0,0,1-.12,0l-6.49-4,7.68.16Z" style="fill:#423c25"/><path d="M126.9,8.68l-.06.09h-.07l-7.68-.16,6.49,4a.17.17,0,0,0,.12,0l0,.09a2.53,2.53,0,0,0-1.49,1l-11.44-7,13.38-.23a2.58,2.58,0,0,0,.55,2Z" style="fill:#fff"/><path d="M144.8,7.68a2.87,2.87,0,0,1,1.63.63l6.71-11.57-11.93,6.2a2.57,2.57,0,0,1,.14,1.8,2.86,2.86,0,0,1-.83,1.37c-1.34,1.25-3.33.22-3.45.16-1-.54-2.17-1.86-1.76-3.14l.07-.19a2.6,2.6,0,0,1,1.48-1.26L130.32-10l-.94,13.46a2.77,2.77,0,0,1,1.76.72,2.49,2.49,0,0,1,.67,1.17c.47,1.78-1.38,3-1.48,3.11-.91.61-2.47,1-3.43.22l-.18-.15a2.58,2.58,0,0,1-.55-2l-13.38.23,11.44,7a2.53,2.53,0,0,1,1.49-1,2.82,2.82,0,0,1,1.55,0c1.76.54,1.86,2.78,1.86,2.91,0,1.15-.54,2.8-1.86,3.09l-.29,0a2.79,2.79,0,0,1-1.74-.65l-6.88,11.46,12-6.09a2.68,2.68,0,0,1-.35-1.88,1.51,1.51,0,0,1,.18-.44,2.29,2.29,0,0,1,.39-.54c1.28-1.33,3.32-.42,3.44-.36,1,.47,2.23,1.69,2,3v.08a2.64,2.64,0,0,1-1.46,1.54l7.18,11.29V22.5a2.77,2.77,0,0,1-1.29-.49,2.31,2.31,0,0,1-.92-1.51c-.35-1.8,1.58-2.94,1.69-3,1-.58,2.73-.85,3.6.17A1.6,1.6,0,0,1,145,18a2.75,2.75,0,0,1,.2,1.76l13.37.64L147.9,12.72a2.7,2.7,0,0,1-1.5,1,3.54,3.54,0,0,1-1.91,0c-1.76-.52-1.9-2.75-1.9-2.88-.05-1.16.5-2.82,1.8-3.12A1.92,1.92,0,0,1,144.8,7.68Z" style="fill:none;stroke:#423c25;stroke-miterlimit:10;stroke-width:0.599213838577271px"/><path d="M130.17,21.18l0,0-6.94,3.86,3.64-6.1a.16.16,0,0,1,.14-.08.11.11,0,0,1,.08,0l3.09,2.15A.08.08,0,0,1,130.17,21.18Z" style="fill:none;stroke:#423c25;stroke-miterlimit:10;stroke-width:0.599213838577271px"/><path d="M136.15,23.29a.19.19,0,0,0,0,.1l4,6.31.23-7.53a.11.11,0,0,0,0-.08.11.11,0,0,0-.12,0l-4,1.08A.16.16,0,0,0,136.15,23.29Z" style="fill:none;stroke:#423c25;stroke-miterlimit:10;stroke-width:0.599213838577271px"/><path d="M146.4,13.74h0l6.12,4.63L145.16,18a.15.15,0,0,1-.09-.06s0,0,0-.06l1.3-4.14Z" style="fill:none;stroke:#423c25;stroke-miterlimit:10;stroke-width:0.599213838577271px"/><path d="M141.45,4.77s0,0,.05,0l6.4-2.82L145,7.45a.23.23,0,0,1-.2.11.19.19,0,0,1-.14,0l-3.17-2.6A.11.11,0,0,1,141.45,4.77Z" style="fill:none;stroke:#423c25;stroke-miterlimit:10;stroke-width:0.599213838577271px"/><path d="M135.29,2.89a.19.19,0,0,0,0-.15l-3.32-6L131.23,4a.17.17,0,0,0,0,.07.15.15,0,0,0,.19.09L135.16,3A.21.21,0,0,0,135.29,2.89Z" style="fill:none;stroke:#423c25;stroke-miterlimit:10;stroke-width:0.599213838577271px"/><path d="M125.7,12.64a.17.17,0,0,1-.12,0l-6.49-4,7.68.16h.07a.14.14,0,0,1,.07.18l-1.12,3.59A.13.13,0,0,1,125.7,12.64Z" style="fill:none;stroke:#423c25;stroke-miterlimit:10;stroke-width:0.599213838577271px"/><path d="M137.29,11.72A2.31,2.31,0,1,1,134,12,2.29,2.29,0,0,1,137.29,11.72Z" style="fill:none;stroke:#423c25;stroke-miterlimit:10;stroke-width:0.599213838577271px"/></g><g id="e7aaa29c-c849-4406-8535-fee88069f7bd" data-name="Textes Cartes VA vecto"><g id="a917a723-4b89-436a-8303-6b1f73eda21a" data-name="Calque 20 - copie 3"><path d="M16.29,26.71l-.63.52a.36.36,0,0,0-.2.06.94.94,0,0,0-.18.12l-.18.13a.41.41,0,0,1-.19.05.19.19,0,0,1-.2-.2.68.68,0,0,1,0-.3l0-.07.33-.79,0-.09,0-.07.25-1.6,1.9-6.22a5.7,5.7,0,0,1-.3-1.12A2.7,2.7,0,0,1,17,15.9a1.11,1.11,0,0,1,.19-.18c.11-.09.23-.2.37-.3a2.7,2.7,0,0,1,.38-.27c.13-.07.2-.1.23-.07l.55.68a.24.24,0,0,0,.22-.17c0-.12.09-.24.12-.37s.1-.25.16-.37a.31.31,0,0,1,.29-.17h.11l.27,0,.28,0q.46.82.84,1.68c.24.57.46,1.15.65,1.74l-.14.39.32-.39s0-.08.08-.21l.19-.42.21-.47a2.65,2.65,0,0,0,.13-.41s.07-.08.11-.21a.4.4,0,0,1,.19-.27l.65-.25-.39-.29c-.1,0-.14-.12-.14-.26A2.16,2.16,0,0,1,23,15l.06-.16a.53.53,0,0,1,.13-.1,1.06,1.06,0,0,1,.21-.11.51.51,0,0,1,.2,0,.11.11,0,0,1,.09.12c0,.12,0,.19,0,.22l.11.08a2.56,2.56,0,0,0,.56.06l.84,0a3.59,3.59,0,0,1,.75.14c.22.06.31.16.27.27a.12.12,0,0,1,0,.09.21.21,0,0,0-.05.09c-.05.13-.13.36-.26.67s-.26.64-.39,1l-.4,1c-.12.31-.21.53-.26.65l-.36,1.83-1.86,6.51a.67.67,0,0,1-.22.14,1.15,1.15,0,0,1-.28.11l-.27.05a.29.29,0,0,1-.23-.13,1.08,1.08,0,0,1-.19-.31c-.06-.11-.11-.22-.16-.33a.87.87,0,0,0-.1-.2l-.47.34-.11.4s-.05,0-.12.06l-.18,0a.68.68,0,0,1-.59-.3.89.89,0,0,1-.2-.6l.25-2.9-.16-1.37H19.5c-.16.54-.32,1.08-.5,1.63l-.51,1.62L18.4,26c-.06.17-.11.32-.17.47s-.13.35-.22.59l-.08,0-.07,0h-.09L17.65,27a.2.2,0,0,0-.18.11,2,2,0,0,0-.13.25,1.5,1.5,0,0,1-.15.25.23.23,0,0,1-.2.12s0,0-.06,0a1.22,1.22,0,0,0-.09-.27.37.37,0,0,0-.18-.21.38.38,0,0,0-.2.17,1,1,0,0,0-.1.26,1.57,1.57,0,0,1-.1.26.27.27,0,0,1-.26.12c-.11,0-.16-.07-.14-.19a1.45,1.45,0,0,1,.11-.42q.1-.24.21-.45A1,1,0,0,0,16.29,26.71Z" style="fill:#423c25"/><path d="M25,20.92a2.3,2.3,0,0,1,.15-.32l.21-.33.19-.34a.67.67,0,0,0,.08-.3l.17-.23.25-.35.25-.35a1.34,1.34,0,0,0,.15-.24,3.35,3.35,0,0,1,.31-.38A3.7,3.7,0,0,1,27,17.8c.09-.08.19-.17.3-.25s.24-.19.39-.32l.17-.22a1.18,1.18,0,0,1,.18-.21,3.44,3.44,0,0,1,.78-.33,7.85,7.85,0,0,1,1-.26,10.14,10.14,0,0,1,1-.17,5.16,5.16,0,0,1,.77-.07c.23,0,.31.09.25.25a.29.29,0,0,1-.09.16.64.64,0,0,1-.16.11l-.16.12a.26.26,0,0,0-.09.13.11.11,0,0,0,.06.14l.22.07.23.05a.26.26,0,0,1,.15.08l.26.56a2.06,2.06,0,0,1,.09.22.57.57,0,0,1,0,.14l0,.16a.61.61,0,0,0,.1.23,1.52,1.52,0,0,0,.17.25.81.81,0,0,1,.1.18.4.4,0,0,1,0,.22c0,.08,0,.2-.06.34a5.92,5.92,0,0,1-.23.62,5.25,5.25,0,0,0-.22.63l0,0c0,.06,0,.19,0,.38s-.05.42-.08.65-.06.45-.08.65,0,.33-.06.38l0,.06a.14.14,0,0,0,0,.09A.57.57,0,0,1,32,23l0,.07,0,.07a.93.93,0,0,1,0,.1s0,.08-.06.1v.07a.55.55,0,0,1-.24.13.24.24,0,0,0-.18.14.19.19,0,0,0,.09.22.22.22,0,0,1,.13.21c0,.05,0,.16-.05.32a1.63,1.63,0,0,1-.06.36,2,2,0,0,1-.47.76,11.45,11.45,0,0,1-.86.84q-.48.41-1,.78c-.31.24-.57.44-.76.6,0,0-.05,0-.05.05a.16.16,0,0,0,0,.15.13.13,0,0,1,0,.14c0,.1-.16.15-.4.18l-.68,0h-.32a2.84,2.84,0,0,1-.5-.05,6.28,6.28,0,0,1-.7-.15,4.46,4.46,0,0,1-.65-.23.58.58,0,0,1-.34-.27,1,1,0,0,0-.15-.25,1.44,1.44,0,0,1-.18-.25,2.15,2.15,0,0,1-.14-.26.52.52,0,0,1-.05-.27l0-.11.07-.22.06-.18V26a.15.15,0,0,0,0-.18.27.27,0,0,1-.1-.18,1.46,1.46,0,0,1,0-.2c0-.09,0-.19,0-.3a1.32,1.32,0,0,1,0-.27c0-.1,0-.16,0-.18a4.47,4.47,0,0,1,.07-.82A7.91,7.91,0,0,1,24.6,23c.09-.28.17-.55.25-.81a4.29,4.29,0,0,0,.15-.81.22.22,0,0,0,0-.14.4.4,0,0,1,0-.13.16.16,0,0,0,0-.1Zm1.81,3.51a.57.57,0,0,0,0,.26,3.7,3.7,0,0,0,.13.4c.06.14.12.26.18.37s.12.16.15.16a.43.43,0,0,0,.29-.16l.2-.18a2,2,0,0,1,.15-.15l.25-.23.25-.23.17-.15,0-.1c.14-.51.25-1,.33-1.42a7.68,7.68,0,0,1,.41-1.43c0-.09,0-.19,0-.31s0-.24.05-.36,0-.23,0-.34a1,1,0,0,1,.07-.25l.1-.23.11-.24,0,0a.19.19,0,0,0,0-.07l0-.07,0-.06a.31.31,0,0,0,0-.34.75.75,0,0,0-.26-.2L29.28,19c-.07,0-.08-.08,0-.14h-.18s-.06,0-.07,0,0,.08-.06.18l-.86,1.22,0,.13a.87.87,0,0,0-.05.42,1.15,1.15,0,0,1,0,.45,14,14,0,0,1-.58,1.6A12.79,12.79,0,0,0,26.79,24.43Z" style="fill:#423c25"/><path d="M35.61,23.83l-.3.66c0,.09-.07.25-.15.46l-.22.68c-.08.23-.15.45-.22.67s-.12.37-.15.46l-.09.26a.47.47,0,0,1-.09.23c0,.05,0,.07-.1.07l-.11,0-.06,0-.07,0L34,28h-.22a.91.91,0,0,0-.33,0l-.31,0a.44.44,0,0,1-.21,0c-.06,0-.07-.06-.05-.15s0,0,0-.11a1,1,0,0,1,.06-.19L33,27.3l0-.1s0,0,0,0,0,0-.06,0h0a.25.25,0,0,0-.18.08l-.13.18-.1.2a.29.29,0,0,1-.09.13h-.08l-.12-.05H32l-.1.05s-.06,0-.1,0a1.7,1.7,0,0,1-.12-.34,1.84,1.84,0,0,1-.08-.38,2.23,2.23,0,0,1,0-.33.86.86,0,0,1,0-.25l0-.11L31.7,26l0-.07,1.45-4.05s0,0,.08-.08l.17-.15.17-.15c.06-.05.08-.08.08-.09s0-.05,0-.12v-.27a2.53,2.53,0,0,1,0-.29,1.13,1.13,0,0,0,0-.14s0-.11.07-.21.08-.21.14-.33a2.53,2.53,0,0,1,.16-.33.48.48,0,0,1,.13-.19l.11-.14a.56.56,0,0,0,.11-.13l0-.14h-.18l-.29,0L33.78,19q-.11,0-.09-.12a1.31,1.31,0,0,0,.12-.14,1,1,0,0,0,.12-.16v0a.15.15,0,0,0,0-.06s0,0,0-.07l.38-.23-.2-.21s0-.05,0-.08a.16.16,0,0,0,0-.08.46.46,0,0,1,.24-.12.21.21,0,0,0,.17-.17.28.28,0,0,0,0-.17c0-.08,0-.16-.07-.24s0-.17,0-.24,0-.12,0-.14a2.06,2.06,0,0,1,.81-.33,9.7,9.7,0,0,1,1.12-.18,10.82,10.82,0,0,1,1.09-.07h.71l.54,0h.63a3.92,3.92,0,0,1,.75.29,3.69,3.69,0,0,1,.59.41,1.64,1.64,0,0,1,.4.4.74.74,0,0,1,.05.52,10,10,0,0,1-.08,1.4c-.05.33-.1.63-.14.89a5.33,5.33,0,0,1-.32.88c-.14.32-.3.64-.47,1s-.36.61-.54.9-.36.51-.51.69l-.86.33c-.29.1-.61.2-1,.29l-1.06.18a.15.15,0,0,1,.06-.09s0,0,0,0Zm.67-1.73a.23.23,0,0,0,0,.13.09.09,0,0,0,.08.11,1.06,1.06,0,0,0,.37-.13.65.65,0,0,0,.22-.3l.93-1.72,0-.17a1.67,1.67,0,0,0,0-.67,3,3,0,0,1,0-.67c0-.08-.05-.13-.16-.13h.16l-.25.05-.34.07-.31.06a.46.46,0,0,0-.15.05.32.32,0,0,0-.16,0l-.06.1,0,.06c.24,0,.38.1.43.23a1,1,0,0,1,0,.5,8.43,8.43,0,0,1-.4,1.2A7.17,7.17,0,0,0,36.28,22.1Z" style="fill:#423c25"/><path d="M40.2,26.08a5.55,5.55,0,0,1,.35-.86,4.2,4.2,0,0,0,.35-.86,13.52,13.52,0,0,0,.39-1.68A14,14,0,0,1,41.67,21a7,7,0,0,1,.4-1,6.3,6.3,0,0,0,.37-1l0-.07.07-.2v-.05c0-.06-.07-.11-.17-.13a.66.66,0,0,0-.28,0l-.3-.34a.08.08,0,0,1,0-.07c.13-.16.24-.28.31-.38l.23-.26.12-.15.34-.07.13,0-.17-.13a.51.51,0,0,0-.3-.1s0-.05,0-.06a.49.49,0,0,1,.28-.29,1.94,1.94,0,0,1,.53-.18,4.14,4.14,0,0,1,.64-.08l.58,0h.34c.41,0,.8,0,1.19,0s.79.05,1.19.05a1.44,1.44,0,0,0,.37-.05,1.45,1.45,0,0,1,.37,0l0,.14c0,.1-.06.15-.07.15l-.12.17a1.34,1.34,0,0,0-.11.17l-.06.14-.41.23.29.24,0,.14a.89.89,0,0,1-.32.36,2.33,2.33,0,0,1-.52.27l-.56.18-.46.09-.09.07s0,.07-.06.14l-.08.31c0,.1-.06.21-.1.33a1.91,1.91,0,0,0-.1.27l0,.08A.29.29,0,0,0,45,20a.11.11,0,0,1-.07.11l-.34.18.29,0s0,0,0,.09a.77.77,0,0,1-.07.16v.07s0,.07,0,.07H45a3.39,3.39,0,0,0,.7-.07,3.34,3.34,0,0,1,.68-.07.27.27,0,0,1,.26.12.47.47,0,0,1,0,.29.6.6,0,0,1-.21.22,3.22,3.22,0,0,1-.37.2l-.37.18c-.11.06-.17.1-.18.14s0,0,.11.06a1.53,1.53,0,0,1,.26.08.86.86,0,0,1,.23.13.22.22,0,0,1,0,.25.87.87,0,0,1-.34.42,1.94,1.94,0,0,1-.48.16l-.52.07a1.4,1.4,0,0,0-.49.15.93.93,0,0,0-.13.23,3.86,3.86,0,0,0-.17.43c0,.16-.1.31-.15.44l-.09.26v0c0,.07,0,.16,0,.25a2.89,2.89,0,0,1,0,.29c0,.1,0,.21,0,.34H45c.07,0,.12,0,.13.05a.12.12,0,0,1,0,.1.68.68,0,0,1,0,.14.13.13,0,0,0,0,.12s0,.07.07.1l.14.1a.44.44,0,0,1,.12.15.39.39,0,0,1,0,.26.38.38,0,0,1-.22.23,3.35,3.35,0,0,1-.38.14l-.39.13a.32.32,0,0,0-.21.2,1.23,1.23,0,0,1,.12.2v.05a.32.32,0,0,1-.21.24l-.4.05a7.39,7.39,0,0,0-.94.11,1.72,1.72,0,0,1-.75,0l-.54-.14-.25.14a.42.42,0,0,1-.26,0,1.11,1.11,0,0,0-.29,0h-.2a.83.83,0,0,1-.42-.7A2.85,2.85,0,0,1,40.2,26.08Z" style="fill:#423c25"/><path d="M49.15,26.37l-.54,1.15a.52.52,0,0,1-.47.28,9,9,0,0,1-.91,0l-.45-.21a1.26,1.26,0,0,1-.57-.42.84.84,0,0,1-.15-.53,1.61,1.61,0,0,1,.2-.61,3.08,3.08,0,0,1,.49-.65.74.74,0,0,1,.34-.23,1.51,1.51,0,0,1,.37-.12l.88-.06.3.09a.05.05,0,0,1,0,.07s0,0,.17.08l.23.1a.64.64,0,0,1,.13.33.65.65,0,0,0,.13.34l-1.14.34a.15.15,0,0,0,.15.08h.3a.42.42,0,0,0,.21-.06.3.3,0,0,1,.23,0S49.11,26.37,49.15,26.37Zm1-3.19-.38.68a.35.35,0,0,1-.26.11.87.87,0,0,0-.31,0l-.15-.1-.19-.08s-.05,0-.16,0a.76.76,0,0,1-.22,0,.71.71,0,0,1-.11-.2s0,0-.1.05a.25.25,0,0,1-.15.07h-.36c-.08,0-.18.08-.28.22h-.26a.1.1,0,0,1-.08-.08,3.65,3.65,0,0,1,.09-.56,3.74,3.74,0,0,1,.12-.45l.15-.44c.06-.15.11-.32.17-.53l.09-.32.27-1,.11-.36a1.91,1.91,0,0,0,.23-.5q.09-.3.18-.54a1.79,1.79,0,0,0,.1-.69,3.66,3.66,0,0,0-.07-.42,1.57,1.57,0,0,1-.05-.37,1,1,0,0,1,.15-.51l.09-.31a.37.37,0,0,0,.1-.07l.09-.07H49l.31.14h.09l.18-.13.21-.15H50a.6.6,0,0,1,.22.06s0,0,0,.05a.12.12,0,0,0,0,.09v.11a.23.23,0,0,0,0,.11h0a.19.19,0,0,0,.14-.1l.15-.23a1.45,1.45,0,0,1,.21-.22.45.45,0,0,1,.31-.1l.39.17.28.12c.09,0,.14.06.14.07a1.17,1.17,0,0,0-.08.21c0,.09-.07.19-.1.31l-.11.38-.11.37c0,.12,0,.23-.06.32a1.24,1.24,0,0,1-.06.2s0,.1,0,.2,0,.2-.05.3,0,.21,0,.3a1.19,1.19,0,0,0,0,.17.66.66,0,0,1,0,.11c0,.06,0,.12,0,.19s0,.14,0,.2v.18a.27.27,0,0,0,0,.13.34.34,0,0,1,0,.16l0,.12c-.11.36-.19.63-.25.79s-.09.29-.12.37a.47.47,0,0,1-.08.15.49.49,0,0,0-.09.15,3.75,3.75,0,0,0-.15.38C50.31,22.55,50.22,22.82,50.1,23.18Z" style="fill:#423c25"/><path d="M34.4,47l5.7-.1v1.16l-2.13,0v6.57H36.73V48.14l-2.33,0Z" style="fill:#423c25"/><path d="M42.35,47.33v2.9a1.72,1.72,0,0,1,.95-.91,2.13,2.13,0,0,1,1.17-.1,1.62,1.62,0,0,1,1,.62,2.59,2.59,0,0,1,.5,1.12,12.05,12.05,0,0,1,.08,1.8c0,.72,0,1.63,0,2.75l-1.1,0c0-1,0-1.75,0-2.38,0-1,0-1.62-.05-1.81a1.19,1.19,0,0,0-.37-.7,1.17,1.17,0,0,0-.71-.24h0a1,1,0,0,0-.65.22,2.24,2.24,0,0,0-.45.58,3.54,3.54,0,0,0-.22,1.41l-.06,2.53-1.11,0-.09-7.67Z" style="fill:#423c25"/><path d="M48.31,52.58a2.11,2.11,0,0,0,.41,1.34,1.29,1.29,0,0,0,.9.39h.14a1.34,1.34,0,0,0,.79-.22,1.7,1.7,0,0,0,.58-1l1.17.23a3.61,3.61,0,0,1-.65,1.25,1.92,1.92,0,0,1-1.19.65,4.56,4.56,0,0,1-.72.06,3.35,3.35,0,0,1-.71-.07,2.13,2.13,0,0,1-1.19-.68,2.61,2.61,0,0,1-.67-1.24,5.25,5.25,0,0,1-.11-1c0-.13,0-.25,0-.38a3.59,3.59,0,0,1,.36-1.31,2.19,2.19,0,0,1,.78-.9,2.75,2.75,0,0,1,1-.39,3.64,3.64,0,0,1,.6,0l.59,0a2,2,0,0,1,1.29.8,4.06,4.06,0,0,1,.59,2.45ZM51,51.67a1.57,1.57,0,0,0-.39-1,1.2,1.2,0,0,0-.94-.42,1.3,1.3,0,0,0-1,.4,1.41,1.41,0,0,0-.4,1Z" style="fill:#423c25"/><path d="M56.87,50.59a1.63,1.63,0,0,0-.8-.24H56a1.27,1.27,0,0,0-.67.25,1.92,1.92,0,0,0-.45.52,3.35,3.35,0,0,0-.22,1.39L54.55,55l-1.11,0L53.35,49l1.14-.13.06,1.33a1.81,1.81,0,0,1,1-.94,1.47,1.47,0,0,1,.53-.1,3.32,3.32,0,0,1,1.13.25Z" style="fill:#423c25"/><path d="M59.48,52.58a2.11,2.11,0,0,0,.41,1.34,1.32,1.32,0,0,0,.91.39h.13a1.39,1.39,0,0,0,.8-.22,1.69,1.69,0,0,0,.57-1l1.17.23a3.45,3.45,0,0,1-.65,1.25,1.9,1.9,0,0,1-1.19.65,4.56,4.56,0,0,1-.72.06,3.35,3.35,0,0,1-.71-.07A2.16,2.16,0,0,1,59,54.58a2.7,2.7,0,0,1-.67-1.24,5.25,5.25,0,0,1-.11-1c0-.13,0-.25,0-.38a3.59,3.59,0,0,1,.36-1.31,2.19,2.19,0,0,1,.78-.9,2.75,2.75,0,0,1,1-.39,3.64,3.64,0,0,1,.6,0l.59,0a2,2,0,0,1,1.29.8,4.06,4.06,0,0,1,.59,2.45Zm2.71-.91a1.62,1.62,0,0,0-.38-1,1.22,1.22,0,0,0-1-.42,1.3,1.3,0,0,0-1,.4,1.41,1.41,0,0,0-.4,1Z" style="fill:#423c25"/><path d="M67.81,47.69a.64.64,0,0,1,0,1,.7.7,0,0,1-1,0,.62.62,0,0,1-.2-.48.61.61,0,0,1,.2-.47.7.7,0,0,1,1,0ZM66.72,49.5l1.17,0-.1,5.84h-1Z" style="fill:#423c25"/><path d="M69.07,53.21,70.19,53c0,.56.27.88.65,1a3.07,3.07,0,0,0,.71.09l.28,0a1,1,0,0,0,.59-.24.9.9,0,0,0,.19-.36v-.06a.43.43,0,0,0-.09-.26,1.06,1.06,0,0,0-.29-.27,5.6,5.6,0,0,0-1-.34,12,12,0,0,1-1.21-.4,1.56,1.56,0,0,1-.59-.43,1.17,1.17,0,0,1-.24-.71v-.09a1.66,1.66,0,0,1,.16-.73,1.45,1.45,0,0,1,.66-.63,2.73,2.73,0,0,1,1-.3,2.55,2.55,0,0,1,.39,0,3.08,3.08,0,0,1,.53,0,2.41,2.41,0,0,1,.91.36A2.3,2.3,0,0,1,73.52,51l-1,.14c-.14-.48-.32-.75-.54-.82a1.88,1.88,0,0,0-.57-.09h-.11a1.08,1.08,0,0,0-.57.19.6.6,0,0,0-.26.42v0a.4.4,0,0,0,.16.34,2.44,2.44,0,0,0,1,.34A6.26,6.26,0,0,1,72.9,52a1.35,1.35,0,0,1,.72.63,2,2,0,0,1,.13.75v0a1.46,1.46,0,0,1-.23.79,1.74,1.74,0,0,1-.76.62,2.92,2.92,0,0,1-1.28.26H71.4A3.59,3.59,0,0,1,70.3,55a1.69,1.69,0,0,1-.76-.45A2.42,2.42,0,0,1,69.07,53.21Z" style="fill:#423c25"/><path d="M78.05,49l.06,1.33a1.77,1.77,0,0,1,1-.92,2.21,2.21,0,0,1,.75-.14,2,2,0,0,1,.42,0,1.61,1.61,0,0,1,1,.61,2.63,2.63,0,0,1,.5,1.13,12,12,0,0,1,.08,1.79c0,.72,0,1.64,0,2.76l-1.11,0c0-.95,0-1.75,0-2.37a15.34,15.34,0,0,0,0-1.81,1.11,1.11,0,0,0-.37-.7,1,1,0,0,0-.71-.24h0a.92.92,0,0,0-.65.22,2.18,2.18,0,0,0-.45.57,3.8,3.8,0,0,0-.22,1.42l-.06,2.53-1.11,0-.09-6.1Z" style="fill:#423c25"/><path d="M83.53,54.63a3.76,3.76,0,0,1,0-4.4,2.73,2.73,0,0,1,4,0,3.76,3.76,0,0,1,0,4.4,2.71,2.71,0,0,1-4,0Zm3.18-.76a2.51,2.51,0,0,0,.38-1.41,2.47,2.47,0,0,0-.38-1.39,1.44,1.44,0,0,0-2.41,0,2.47,2.47,0,0,0-.38,1.39,2.51,2.51,0,0,0,.38,1.41,1.44,1.44,0,0,0,2.41,0Z" style="fill:#423c25"/><path d="M92.54,48.54l.06,1.26a1.44,1.44,0,0,1,.82-.91,2.06,2.06,0,0,1,.65-.11,2.49,2.49,0,0,1,.46,0,2,2,0,0,1,1.15,1,2,2,0,0,1,.82-.94,2.08,2.08,0,0,1,1-.23h.11a1.46,1.46,0,0,1,1.14.63,2.34,2.34,0,0,1,.54,1.35c0,.21,0,.58,0,1.1,0,.7,0,1.67,0,2.92l-1.06-.09V51.47a2.13,2.13,0,0,0-.39-1.26,1,1,0,0,0-.55-.28h-.05a.87.87,0,0,0-.53.23,1.41,1.41,0,0,0-.45.61,6.32,6.32,0,0,0-.22,1.6l0,1.7-1,0a23.11,23.11,0,0,0-.11-3.22,1.57,1.57,0,0,0-.38-.75.63.63,0,0,0-.49-.23h-.11a1.45,1.45,0,0,0-.61.26,1.48,1.48,0,0,0-.43.57,4.93,4.93,0,0,0-.18,1.47l-.1,2.55h-1l-.16-6.18Z" style="fill:#423c25"/><path d="M101.09,54.63a3.76,3.76,0,0,1,0-4.4,2.73,2.73,0,0,1,4,0,3.76,3.76,0,0,1,0,4.4,2.71,2.71,0,0,1-4,0Zm3.18-.76a2.51,2.51,0,0,0,.38-1.41,2.47,2.47,0,0,0-.38-1.39,1.43,1.43,0,0,0-2.4,0,2.4,2.4,0,0,0-.39,1.39,2.44,2.44,0,0,0,.39,1.41,1.43,1.43,0,0,0,2.4,0Z" style="fill:#423c25"/><path d="M110.35,50.59a1.59,1.59,0,0,0-.79-.24h-.12a1.31,1.31,0,0,0-.68.25,1.92,1.92,0,0,0-.45.52,3.53,3.53,0,0,0-.22,1.39L108,55l-1.1,0-.1-6.09,1.15-.13,0,1.33a1.81,1.81,0,0,1,1-.94,1.53,1.53,0,0,1,.54-.1,3.32,3.32,0,0,1,1.12.25Z" style="fill:#423c25"/><path d="M113,52.58a2.11,2.11,0,0,0,.41,1.34,1.32,1.32,0,0,0,.91.39h.14a1.36,1.36,0,0,0,.79-.22,1.64,1.64,0,0,0,.57-1l1.17.23a3.45,3.45,0,0,1-.65,1.25,1.9,1.9,0,0,1-1.19.65,4.56,4.56,0,0,1-.72.06,3.35,3.35,0,0,1-.71-.07,2.16,2.16,0,0,1-1.19-.68,2.59,2.59,0,0,1-.66-1.24,4.61,4.61,0,0,1-.12-1,2.42,2.42,0,0,1,0-.38,3.4,3.4,0,0,1,.35-1.31,2.13,2.13,0,0,1,.79-.9,2.63,2.63,0,0,1,1-.39,3.64,3.64,0,0,1,.6,0l.59,0a2,2,0,0,1,1.29.8,4,4,0,0,1,.59,2.45Zm2.71-.91a1.62,1.62,0,0,0-.38-1,1.22,1.22,0,0,0-.94-.42,1.31,1.31,0,0,0-1,.4,1.41,1.41,0,0,0-.4,1Z" style="fill:#423c25"/><path d="M17.8,60h1.37l3.51,5.66h0V59.84H24l-.11,7.83H22.56l-3.5-5.75h0v5.23H17.75Z" style="fill:#423c25"/><path d="M26.22,60.6a.66.66,0,0,1,0,.95.71.71,0,0,1-1,0,.68.68,0,0,1,.49-1.15A.66.66,0,0,1,26.22,60.6Zm-1.1,1.81,1.18,0-.11,5.84h-1Z" style="fill:#423c25"/><path d="M28.62,61.92l.05,1.33a1.73,1.73,0,0,1,.95-.92,2.21,2.21,0,0,1,.75-.14,2.1,2.1,0,0,1,.43.05,1.61,1.61,0,0,1,.95.61A2.77,2.77,0,0,1,32.26,64a12.58,12.58,0,0,1,.07,1.79c0,.72,0,1.64,0,2.75l-1.1,0c0-.95,0-1.75,0-2.38a14.22,14.22,0,0,0-.06-1.8,1.1,1.1,0,0,0-.36-.7,1.07,1.07,0,0,0-.71-.24h0a.92.92,0,0,0-.66.22,2,2,0,0,0-.44.57,3.51,3.51,0,0,0-.23,1.42l-.06,2.52-1.1,0L27.47,62Z" style="fill:#423c25"/><path d="M33,69h0a.43.43,0,0,1,.23.07,1.08,1.08,0,0,0,.77-.49,3.82,3.82,0,0,0,.2-1.52l0-4.51,1.06.07c0,.82,0,1.55,0,2.21a27.29,27.29,0,0,1-.13,3.76,1.84,1.84,0,0,1-.57,1,1.9,1.9,0,0,1-.92.42l-.31,0a2,2,0,0,1-.47,0Zm2.21-8.39a.61.61,0,0,1,.2.47.62.62,0,0,1-.2.48.7.7,0,0,1-1,0,.62.62,0,0,1-.2-.48.61.61,0,0,1,.2-.47.7.7,0,0,1,1,0Z" style="fill:#423c25"/><path d="M37.18,63.1a2.24,2.24,0,0,1,1.15-.61,3,3,0,0,1,.68-.07,3.79,3.79,0,0,1,.86.1A1.4,1.4,0,0,1,41,63.64a8,8,0,0,1,.16,1.79c0,.4,0,.85,0,1.35v0c0,.29.12.43.34.43a1.27,1.27,0,0,0,.41-.1l.09,1a3,3,0,0,1-.74.11,1.06,1.06,0,0,1-1-.56,2.68,2.68,0,0,1-.94.59,3.61,3.61,0,0,1-.89.13h0a2,2,0,0,1-.84-.17,1.52,1.52,0,0,1-.65-.48,1.46,1.46,0,0,1-.28-.77s0-.1,0-.16a2.34,2.34,0,0,1,.15-.79,1.7,1.7,0,0,1,.92-.86A7.73,7.73,0,0,1,40,64.64a1.45,1.45,0,0,0-.19-.92,1.16,1.16,0,0,0-.74-.24h-.19a1.48,1.48,0,0,0-.7.15,1,1,0,0,0-.4.81L36.7,64.3A1.87,1.87,0,0,1,37.18,63.1Zm2.88,2.48a4.88,4.88,0,0,0-1.91.4.89.89,0,0,0-.46.72v0a.67.67,0,0,0,.27.58,1,1,0,0,0,.58.15h.17a1.58,1.58,0,0,0,.75-.21,5.86,5.86,0,0,0,.6-.41Z" style="fill:#423c25"/><path d="M45.06,59.94l5.69-.1V61l-2.13,0v6.57H47.38V61.05l-2.32.05Z" style="fill:#423c25"/><path d="M51.78,65.49a2.13,2.13,0,0,0,.42,1.34,1.29,1.29,0,0,0,.9.39h.14A1.44,1.44,0,0,0,54,67a1.64,1.64,0,0,0,.57-1l1.18.23a3.55,3.55,0,0,1-.66,1.25,1.87,1.87,0,0,1-1.18.65,4.56,4.56,0,0,1-.72.06,3.38,3.38,0,0,1-.72-.07,2.26,2.26,0,0,1-1.19-.68,2.62,2.62,0,0,1-.66-1.25,4.55,4.55,0,0,1-.12-1c0-.12,0-.24,0-.37a3.33,3.33,0,0,1,.36-1.32,2.08,2.08,0,0,1,.78-.89,2.68,2.68,0,0,1,1-.39,3.42,3.42,0,0,1,.59,0l.6,0a1.91,1.91,0,0,1,1.28.8,3.91,3.91,0,0,1,.59,2.45Zm2.71-.92a1.48,1.48,0,0,0-.38-.95,1.2,1.2,0,0,0-.94-.42,1.29,1.29,0,0,0-1,.4,1.41,1.41,0,0,0-.41,1Z" style="fill:#423c25"/><path d="M60,63.11a1.58,1.58,0,0,0-.58-.12,1.39,1.39,0,0,0-.3,0,1.36,1.36,0,0,0-.72.47,1.86,1.86,0,0,0-.38,1A3.12,3.12,0,0,0,58,65a3,3,0,0,0,.06.61,1.75,1.75,0,0,0,.43.87,1.19,1.19,0,0,0,.84.39h.12a1.39,1.39,0,0,0,.78-.22,1.25,1.25,0,0,0,.5-1l1.1.23a2.36,2.36,0,0,1-.56,1.25,2,2,0,0,1-1.18.65,4,4,0,0,1-.68.06,2.93,2.93,0,0,1-.67-.07,2.14,2.14,0,0,1-1.07-.54A2.33,2.33,0,0,1,57,66.12,4.29,4.29,0,0,1,56.83,65c0-.1,0-.2,0-.3a3.68,3.68,0,0,1,.34-1.35,2.15,2.15,0,0,1,.74-.89,2.49,2.49,0,0,1,.91-.39A3.27,3.27,0,0,1,59.4,62l.52,0a2.08,2.08,0,0,1,1.17.53,2,2,0,0,1,.64,1.35l-1.09.17A1.25,1.25,0,0,0,60,63.11Z" style="fill:#423c25"/><path d="M64,60.24v2.9a1.71,1.71,0,0,1,1-.91,1.92,1.92,0,0,1,1.18-.1,1.63,1.63,0,0,1,1,.62,2.5,2.5,0,0,1,.51,1.12,12.66,12.66,0,0,1,.07,1.8c0,.71,0,1.63,0,2.75l-1.1,0c0-1,0-1.75,0-2.38,0-1,0-1.62,0-1.81a1.16,1.16,0,0,0-.37-.7,1.07,1.07,0,0,0-.71-.24h0a1,1,0,0,0-.66.22,2.16,2.16,0,0,0-.44.57,3.79,3.79,0,0,0-.23,1.42L64,68l-1.1,0-.1-7.67Z" style="fill:#423c25"/><path d="M69.89,61.92l0,1.33a1.73,1.73,0,0,1,1-.92,2.21,2.21,0,0,1,.75-.14,2,2,0,0,1,.43.05,1.61,1.61,0,0,1,1,.61A2.65,2.65,0,0,1,73.53,64a12.58,12.58,0,0,1,.07,1.79c0,.72,0,1.64,0,2.75l-1.1,0c0-.95,0-1.75,0-2.38a14.22,14.22,0,0,0-.06-1.8,1.1,1.1,0,0,0-.36-.7,1.07,1.07,0,0,0-.71-.24h0a.92.92,0,0,0-.66.22,2,2,0,0,0-.44.57A3.51,3.51,0,0,0,70,65.58l-.06,2.52-1.1,0L68.74,62Z" style="fill:#423c25"/><path d="M75.84,60.6a.61.61,0,0,1,.2.47.62.62,0,0,1-.2.48.71.71,0,0,1-1,0,.68.68,0,0,1,.49-1.15A.66.66,0,0,1,75.84,60.6Zm-1.09,1.81,1.17,0-.11,5.84h-1Z" style="fill:#423c25"/><path d="M82.33,61.82l0,7.82h-1.2l0-2.89a1.65,1.65,0,0,1-1.41,1.06,3.14,3.14,0,0,1-.51,0,1.85,1.85,0,0,1-1.11-.32,2.22,2.22,0,0,1-.84-1.25,5.18,5.18,0,0,1-.24-1.48s0,0,0-.08a4.55,4.55,0,0,1,.25-1.41,2,2,0,0,1,.83-1.09,2.14,2.14,0,0,1,1.2-.39,2.38,2.38,0,0,1,1.08.24,1.82,1.82,0,0,1,.74.69l0-1Zm-4,2.95v0a2.27,2.27,0,0,0,.36,1.31,1.23,1.23,0,0,0,1.1.61c.89,0,1.35-.65,1.37-2v-.06a2.18,2.18,0,0,0-.37-1.33,1.27,1.27,0,0,0-1.1-.56,1.18,1.18,0,0,0-1,.61A2.49,2.49,0,0,0,78.3,64.77Z" style="fill:#423c25"/><path d="M87.12,68.52l-.06-1.33a1.72,1.72,0,0,1-.94.92,2.31,2.31,0,0,1-.76.14,1.51,1.51,0,0,1-.42,0,1.61,1.61,0,0,1-1-.61,2.77,2.77,0,0,1-.51-1.13,16.85,16.85,0,0,1-.07-2.11c0-.66,0-1.47,0-2.43l1.11,0c0,.76,0,1.41,0,2a20.91,20.91,0,0,0,.06,2.22,1.11,1.11,0,0,0,.37.7,1,1,0,0,0,.7.24h0a.92.92,0,0,0,.65-.22,2.18,2.18,0,0,0,.45-.57A3.89,3.89,0,0,0,87,64.85l.06-2.49,1.14-.07.09,6.11Z" style="fill:#423c25"/><path d="M90.58,65.49A2.14,2.14,0,0,0,91,66.83a1.29,1.29,0,0,0,.9.39H92a1.41,1.41,0,0,0,.79-.22,1.7,1.7,0,0,0,.58-1l1.17.23a3.71,3.71,0,0,1-.65,1.25,1.92,1.92,0,0,1-1.19.65,4.56,4.56,0,0,1-.72.06,3.29,3.29,0,0,1-.71-.07,2.18,2.18,0,0,1-1.19-.68,2.56,2.56,0,0,1-.67-1.25,4.54,4.54,0,0,1-.11-1c0-.12,0-.24,0-.37a3.7,3.7,0,0,1,.36-1.32,2.22,2.22,0,0,1,.78-.89,2.75,2.75,0,0,1,1-.39,3.64,3.64,0,0,1,.6,0l.59,0a1.91,1.91,0,0,1,1.28.8,3.91,3.91,0,0,1,.59,2.45Zm2.71-.92a1.54,1.54,0,0,0-.39-.95A1.2,1.2,0,0,0,92,63.2a1.3,1.3,0,0,0-1,.4,1.36,1.36,0,0,0-.4,1Z" style="fill:#423c25"/><path d="M95.62,66.11l1.12-.21c.05.57.27.89.65,1a3.07,3.07,0,0,0,.71.09l.28,0A.9.9,0,0,0,99,66.7a.81.81,0,0,0,.19-.35v-.06a.48.48,0,0,0-.09-.27,1.2,1.2,0,0,0-.29-.26,6.18,6.18,0,0,0-1-.35A12.65,12.65,0,0,1,96.57,65a1.48,1.48,0,0,1-.59-.44,1.11,1.11,0,0,1-.24-.7v-.09a1.66,1.66,0,0,1,.16-.73,1.45,1.45,0,0,1,.66-.63,2.55,2.55,0,0,1,1-.3,2.75,2.75,0,0,1,.4,0,3.08,3.08,0,0,1,.53,0,2.37,2.37,0,0,1,.9.36,2.24,2.24,0,0,1,.72,1.37L99,64c-.14-.48-.32-.75-.54-.83a1.88,1.88,0,0,0-.57-.09H97.8a1.08,1.08,0,0,0-.57.19.6.6,0,0,0-.26.42v.05a.43.43,0,0,0,.15.34,2.8,2.8,0,0,0,1,.34,6.26,6.26,0,0,1,1.37.47,1.35,1.35,0,0,1,.72.63,2,2,0,0,1,.13.75v0a1.46,1.46,0,0,1-.23.79,1.81,1.81,0,0,1-.76.62A3.07,3.07,0,0,1,98,68h-.09a3.56,3.56,0,0,1-1.09-.13,1.9,1.9,0,0,1-.76-.45A2.35,2.35,0,0,1,95.62,66.11Z" style="fill:#423c25"/><path d="M108.07,61.17a2.25,2.25,0,0,0-1-.25h-.16a2.74,2.74,0,0,0-1.13.33,2,2,0,0,0-.85,1,3.43,3.43,0,0,0-.32,1.44v.1a5.72,5.72,0,0,0,.23,1.45,2.21,2.21,0,0,0,2,1.48,2.88,2.88,0,0,0,1.11-.17,1.93,1.93,0,0,0,.74-.58,2.44,2.44,0,0,0,.39-1.26l1.11.26a3,3,0,0,1-1.6,2.48,4.49,4.49,0,0,1-1.65.33,3.85,3.85,0,0,1-.69-.06,3.17,3.17,0,0,1-1.72-.78,3.5,3.5,0,0,1-.84-1.35,5.79,5.79,0,0,1-.26-1.8,4.94,4.94,0,0,1,.35-1.87,3.54,3.54,0,0,1,.93-1.37,2.77,2.77,0,0,1,1.19-.65,6,6,0,0,1,1.17-.13h0a4,4,0,0,1,1,.13,2.6,2.6,0,0,1,1.08.67,3.32,3.32,0,0,1,.84,1.67l-1.22.25A1.86,1.86,0,0,0,108.07,61.17Z" style="fill:#423c25"/><path d="M112,63.1a2.24,2.24,0,0,1,1.15-.61,3,3,0,0,1,.68-.07,3.79,3.79,0,0,1,.86.1,1.39,1.39,0,0,1,1.08,1.12,8,8,0,0,1,.16,1.79c0,.4,0,.85,0,1.35v0c0,.29.11.43.33.43a1.27,1.27,0,0,0,.41-.1l.09,1a3,3,0,0,1-.73.11,1.07,1.07,0,0,1-1-.56,2.68,2.68,0,0,1-.94.59,3.61,3.61,0,0,1-.89.13h0a1.9,1.9,0,0,1-.83-.17,1.49,1.49,0,0,1-.66-.48,1.46,1.46,0,0,1-.28-.77v-.16a2.31,2.31,0,0,1,.14-.79,1.7,1.7,0,0,1,.92-.86,7.73,7.73,0,0,1,2.49-.52,1.45,1.45,0,0,0-.19-.92,1.16,1.16,0,0,0-.74-.24h-.19a1.48,1.48,0,0,0-.7.15,1,1,0,0,0-.4.81l-1.12-.14A1.92,1.92,0,0,1,112,63.1Zm2.88,2.48a4.88,4.88,0,0,0-1.91.4.89.89,0,0,0-.46.72v0a.67.67,0,0,0,.27.58,1,1,0,0,0,.58.15h.17a1.58,1.58,0,0,0,.75-.21,5.86,5.86,0,0,0,.6-.41Z" style="fill:#423c25"/><path d="M121.26,63.5a1.59,1.59,0,0,0-.79-.24h-.12a1.31,1.31,0,0,0-.68.25,1.78,1.78,0,0,0-.45.52,3.53,3.53,0,0,0-.22,1.39L118.94,68l-1.1,0-.1-6.1,1.15-.12,0,1.33a1.81,1.81,0,0,1,1-.94,1.33,1.33,0,0,1,.54-.1,3.32,3.32,0,0,1,1.12.25Z" style="fill:#423c25"/><path d="M126.76,68.17l0-1a1.71,1.71,0,0,1-.74.69,2.32,2.32,0,0,1-1.08.24,2.19,2.19,0,0,1-1.2-.39,2,2,0,0,1-.82-1.09,4.29,4.29,0,0,1-.26-1.41v-.08a5.12,5.12,0,0,1,.24-1.48,2.26,2.26,0,0,1,.83-1.25,1.86,1.86,0,0,1,1.12-.32,2.89,2.89,0,0,1,.5,0,1.69,1.69,0,0,1,1.42,1.07l0-2.89h1.19v7.82Zm-2.93-3a2.46,2.46,0,0,0,.36,1.34,1.18,1.18,0,0,0,1,.62,1.3,1.3,0,0,0,1.1-.56,2.18,2.18,0,0,0,.37-1.33v-.07c0-1.31-.48-2-1.38-2a1.24,1.24,0,0,0-1.09.6,2.33,2.33,0,0,0-.36,1.32Z" style="fill:#423c25"/><path d="M128.92,66.11,130,65.9c.06.57.27.89.65,1a3.14,3.14,0,0,0,.71.09l.29,0a.87.87,0,0,0,.58-.25.72.72,0,0,0,.19-.35.13.13,0,0,0,0-.06.43.43,0,0,0-.1-.27,1.16,1.16,0,0,0-.28-.26,6.47,6.47,0,0,0-1-.35c-.56-.16-1-.29-1.21-.39a1.44,1.44,0,0,1-.58-.44,1.18,1.18,0,0,1-.25-.7v-.09a1.66,1.66,0,0,1,.17-.73,1.4,1.4,0,0,1,.66-.63,2.79,2.79,0,0,1,1.35-.32,3.19,3.19,0,0,1,.54,0,2.43,2.43,0,0,1,.9.36,2.24,2.24,0,0,1,.72,1.37l-1,.14c-.14-.48-.33-.75-.55-.83a1.87,1.87,0,0,0-.56-.09h-.11a1.08,1.08,0,0,0-.57.19.57.57,0,0,0-.26.42v.05a.43.43,0,0,0,.15.34,2.63,2.63,0,0,0,1,.34,6.17,6.17,0,0,1,1.36.47,1.35,1.35,0,0,1,.72.63,2,2,0,0,1,.14.75v0a1.55,1.55,0,0,1-.23.79,1.87,1.87,0,0,1-.76.62,3.15,3.15,0,0,1-1.29.26h-.08a3.63,3.63,0,0,1-1.1-.13,1.93,1.93,0,0,1-.75-.45A2.34,2.34,0,0,1,128.92,66.11Z" style="fill:#423c25"/><path d="M53.31,76a2.17,2.17,0,0,1,1.15-.61,3,3,0,0,1,.68-.08,4.46,4.46,0,0,1,.86.1,1.43,1.43,0,0,1,1.08,1.13,8,8,0,0,1,.16,1.79c0,.4,0,.85-.05,1.35v0c0,.28.12.42.34.42a1.05,1.05,0,0,0,.41-.1L58,81a3,3,0,0,1-.74.11,1.06,1.06,0,0,1-1-.56,2.94,2.94,0,0,1-.94.59,3.19,3.19,0,0,1-.89.12h0a2.14,2.14,0,0,1-.84-.17,1.52,1.52,0,0,1-.65-.48,1.49,1.49,0,0,1-.28-.77s0-.11,0-.17a2.24,2.24,0,0,1,.15-.78,1.67,1.67,0,0,1,.91-.86,7.88,7.88,0,0,1,2.5-.52,1.43,1.43,0,0,0-.19-.92,1.18,1.18,0,0,0-.74-.24h-.19a1.34,1.34,0,0,0-.7.16,1,1,0,0,0-.4.81l-1.12-.14A1.78,1.78,0,0,1,53.31,76Zm2.88,2.47a5,5,0,0,0-1.91.41.89.89,0,0,0-.46.71v.06a.65.65,0,0,0,.26.57,1,1,0,0,0,.59.16h.17a1.85,1.85,0,0,0,.75-.21,5.86,5.86,0,0,0,.6-.41Z" style="fill:#423c25"/><path d="M58.55,75.28,59.78,75l1.46,4.74h0l1.41-4.48,1.22.26-2,5.36-1.32-.06Z" style="fill:#423c25"/><path d="M65.64,76a2.18,2.18,0,0,1,1.14-.61,3.1,3.1,0,0,1,.69-.08,4.46,4.46,0,0,1,.86.1,1.4,1.4,0,0,1,1.07,1.13,7.41,7.41,0,0,1,.16,1.79c0,.4,0,.85,0,1.35v0c0,.28.11.42.34.42a1.09,1.09,0,0,0,.41-.1l.08,1a2.94,2.94,0,0,1-.73.11,1.05,1.05,0,0,1-1-.56,2.87,2.87,0,0,1-1,.59,3.12,3.12,0,0,1-.88.12h0a2.14,2.14,0,0,1-.84-.17,1.52,1.52,0,0,1-.65-.48,1.41,1.41,0,0,1-.28-.77.91.91,0,0,1,0-.17,2.24,2.24,0,0,1,.15-.78,1.64,1.64,0,0,1,.91-.86,7.88,7.88,0,0,1,2.5-.52,1.5,1.5,0,0,0-.19-.92,1.21,1.21,0,0,0-.74-.24h-.19a1.32,1.32,0,0,0-.7.16,1,1,0,0,0-.4.81l-1.12-.14A1.78,1.78,0,0,1,65.64,76Zm2.87,2.47a5,5,0,0,0-1.9.41.87.87,0,0,0-.46.71.13.13,0,0,0,0,.06.64.64,0,0,0,.27.57,1,1,0,0,0,.58.16h.17a1.85,1.85,0,0,0,.75-.21,5.86,5.86,0,0,0,.6-.41Z" style="fill:#423c25"/><path d="M72.59,73.5a.65.65,0,0,1,0,1,.7.7,0,0,1-1,0,.68.68,0,0,1,0-1,.73.73,0,0,1,1,0ZM71.5,75.32l1.17-.06-.1,5.85h-1Z" style="fill:#423c25"/><path d="M73.85,73.16l1.17.06v7.83l-1.12.06Z" style="fill:#423c25"/><path d="M76.77,76a2.14,2.14,0,0,1,1.14-.61,3.1,3.1,0,0,1,.69-.08,4.46,4.46,0,0,1,.86.1,1.4,1.4,0,0,1,1.07,1.13,7.41,7.41,0,0,1,.16,1.79c0,.4,0,.85,0,1.35v0c0,.28.11.42.34.42a1,1,0,0,0,.4-.1l.09,1a2.94,2.94,0,0,1-.73.11,1.08,1.08,0,0,1-1-.56,2.74,2.74,0,0,1-.94.59,3.12,3.12,0,0,1-.88.12h0a2.12,2.12,0,0,1-.83-.17,1.52,1.52,0,0,1-.65-.48,1.5,1.5,0,0,1-.29-.77v-.17a2.24,2.24,0,0,1,.15-.78,1.64,1.64,0,0,1,.91-.86,7.87,7.87,0,0,1,2.49-.52,1.52,1.52,0,0,0-.18-.92,1.21,1.21,0,0,0-.74-.24h-.19a1.32,1.32,0,0,0-.7.16,1,1,0,0,0-.4.81l-1.12-.14A1.78,1.78,0,0,1,76.77,76Zm2.87,2.47a5,5,0,0,0-1.9.41.87.87,0,0,0-.46.71.13.13,0,0,0,0,.06.64.64,0,0,0,.27.57,1,1,0,0,0,.58.16h.17a1.85,1.85,0,0,0,.75-.21,5.86,5.86,0,0,0,.6-.41Z" style="fill:#423c25"/><path d="M82.55,81.23V73.42h1.19l0,2.88a1.71,1.71,0,0,1,1.42-1.07l.5,0a1.9,1.9,0,0,1,1.12.31,2.25,2.25,0,0,1,.83,1.26,5.12,5.12,0,0,1,.24,1.48v.07a4.68,4.68,0,0,1-.26,1.42,2,2,0,0,1-.83,1.08,2.13,2.13,0,0,1-1.19.39A2.39,2.39,0,0,1,84.42,81a1.74,1.74,0,0,1-.73-.69l0,1Zm4-3v0a2.29,2.29,0,0,0-.36-1.31,1.23,1.23,0,0,0-1.1-.61c-.89,0-1.35.66-1.37,2v.07a2.22,2.22,0,0,0,.37,1.33,1.28,1.28,0,0,0,1.1.55,1.18,1.18,0,0,0,1-.61A2.49,2.49,0,0,0,86.58,78.28Z" style="fill:#423c25"/><path d="M88.84,73.16l1.17.06v7.83l-1.12.06Z" style="fill:#423c25"/><path d="M92.31,78.4a2.14,2.14,0,0,0,.41,1.34,1.41,1.41,0,0,0,.91.39h.13a1.37,1.37,0,0,0,.8-.22,1.58,1.58,0,0,0,.57-1l1.17.22a3.58,3.58,0,0,1-.65,1.26,1.84,1.84,0,0,1-1.19.64,3.65,3.65,0,0,1-.72.07,4.17,4.17,0,0,1-.71-.07,2.22,2.22,0,0,1-1.19-.68,2.73,2.73,0,0,1-.67-1.25,5.17,5.17,0,0,1-.11-1,2.36,2.36,0,0,1,0-.37,3.4,3.4,0,0,1,.35-1.32,2.32,2.32,0,0,1,.78-.9,3.19,3.19,0,0,1,1-.39,3.7,3.7,0,0,1,.6,0l.59,0a2,2,0,0,1,1.29.79,4.1,4.1,0,0,1,.59,2.46ZM95,77.48a1.59,1.59,0,0,0-.38-1,1.22,1.22,0,0,0-.94-.42,1.34,1.34,0,0,0-1,.39,1.43,1.43,0,0,0-.4,1Z" style="fill:#423c25"/><path d="M98.54,79.81a.66.66,0,0,1,0,1,.71.71,0,0,1-1,0A.68.68,0,0,1,98,79.61.66.66,0,0,1,98.54,79.81Zm-.81-1a45.2,45.2,0,0,1-.29-5.48h1.27c0,.29,0,.57,0,.84a22.14,22.14,0,0,1-.43,4.64Z" style="fill:#423c25"/></g></g></svg>