<svg xmlns="http://www.w3.org/2000/svg" width="150" height="150" viewBox="0 0 150 150"><g id="ba436ef5-5f02-4046-bd81-6bd3974d172f" data-name="fond"><rect x="0.3" y="-0.49" width="149.78" height="150.08" style="fill:#fff"/></g><g id="b5daf5a3-a8c1-4040-8fe3-ee646388dff1" data-name="shuri peinture"><path d="M159,20l-13.4-.64a2.75,2.75,0,0,0-.2-1.76l0,0a.09.09,0,0,0,.08.05l7.4.37-6.13-4.65h0v0a2.76,2.76,0,0,0,1.51-1Z" style="fill:#fff"/><path d="M153.54-3.66,146.81,8a2.8,2.8,0,0,0-1.64-.64V7.19a.22.22,0,0,0,.2-.12l2.92-5.54-6.42,2.82-.05,0-.1,0a2.6,2.6,0,0,0-.14-1.81Z" style="fill:#fff"/><path d="M152.93,18l-7.4-.37a.09.09,0,0,1-.08-.05s0-.05,0-.07l1.3-4.14s0,0,0,0h0Z" style="fill:#423c25"/><path d="M148.29,1.53l-2.92,5.54a.22.22,0,0,1-.2.12.19.19,0,0,1-.14-.05l-3.18-2.6a.11.11,0,0,1,0-.15l.05,0Z" style="fill:#423c25"/><path d="M146.78,13.36v0s0,0,0,0l-1.3,4.14s0,0,0,.07l0,0a1.66,1.66,0,0,0-.22-.32c-.87-1-2.6-.75-3.6-.17-.12.06-2.05,1.21-1.7,3a2.35,2.35,0,0,0,.92,1.52l-.05.07a.12.12,0,0,0-.12,0l-4,1.08a.17.17,0,0,0-.12.16l-.12,0c.27-1.27-.93-2.49-2-3-.12,0-2.17-1-3.45.36a2.14,2.14,0,0,0-.39.55l-.07,0a.07.07,0,0,0,0-.1l-3.1-2.17-.08,0v-.08l.3,0c1.31-.29,1.88-1.94,1.85-3.1,0-.13-.1-2.38-1.85-2.92a2.86,2.86,0,0,0-1.56-.05l0-.08a.14.14,0,0,0,.08-.1l1.13-3.61a.14.14,0,0,0-.07-.18l.06-.09c1,.77,2.53.39,3.43-.21.11-.08,2-1.35,1.5-3.13a2.57,2.57,0,0,0-.67-1.17l.09-.09a.16.16,0,0,0,.19.08l3.74-1.17a.2.2,0,0,0,.13-.12l.1,0-.08.2c-.41,1.28.75,2.6,1.76,3.15.12.06,2.12,1.09,3.47-.16a3,3,0,0,0,.83-1.37l.1,0a.11.11,0,0,0,0,.15L145,7.14a.19.19,0,0,0,.14.05v.12a1.9,1.9,0,0,0-.4.05c-1.31.3-1.86,2-1.81,3.12,0,.14.14,2.38,1.9,2.89A3.58,3.58,0,0,0,146.78,13.36Zm-8.84,1.26a2.32,2.32,0,1,0-3.26.3A2.3,2.3,0,0,0,137.94,14.62Z" style="fill:#423c25"/><path d="M142.1,22.42V35.88l-7.2-11.32A2.61,2.61,0,0,0,136.36,23l0-.08.12,0a.14.14,0,0,0,0,.1l4,6.33.24-7.55a.13.13,0,0,0,0-.09l.05-.07a2.81,2.81,0,0,0,1.3.49Z" style="fill:#fff"/><path d="M140.79,21.84l-.24,7.55-4-6.33a.14.14,0,0,1,0-.1.17.17,0,0,1,.12-.16l4-1.08a.12.12,0,0,1,.12,0A.13.13,0,0,1,140.79,21.84Z" style="fill:#423c25"/><path d="M137.65,11.36a2.32,2.32,0,1,1-3.27.29A2.3,2.3,0,0,1,137.65,11.36Z" style="fill:#fff"/><path d="M130.66-10.42l6.55,11.71a2.71,2.71,0,0,0-1.47,1.26l-.1,0a.21.21,0,0,0,0-.15l-3.32-6-.73,7.26a.25.25,0,0,0,0,.08l-.09.09a2.82,2.82,0,0,0-1.77-.72Z" style="fill:#fff"/><path d="M135.62,2.35a.21.21,0,0,1,0,.15.2.2,0,0,1-.13.12l-3.74,1.17a.16.16,0,0,1-.19-.08.25.25,0,0,1,0-.08l.73-7.26Z" style="fill:#423c25"/><path d="M130.75,23.2l-12.09,6.11,6.91-11.49a2.77,2.77,0,0,0,1.74.65v.08a.16.16,0,0,0-.14.08l-3.65,6.12,7-3.87a.08.08,0,0,0,0,0l.07,0a1.28,1.28,0,0,0-.18.44A2.68,2.68,0,0,0,130.75,23.2Z" style="fill:#fff"/><path d="M130.49,20.74a.07.07,0,0,1,0,.1.08.08,0,0,1,0,0l-7,3.87,3.65-6.12a.16.16,0,0,1,.14-.08l.08,0Z" style="fill:#423c25"/><path d="M127.17,8.4a.14.14,0,0,1,.07.18l-1.13,3.61a.14.14,0,0,1-.08.1.15.15,0,0,1-.13,0l-6.5-4,7.7.15Z" style="fill:#423c25"/><path d="M127.23,8.31l-.06.09h-.07l-7.7-.15,6.5,4a.15.15,0,0,0,.13,0l0,.08a2.6,2.6,0,0,0-1.49,1l-11.47-7L126.5,6.1a2.59,2.59,0,0,0,.55,2.06Z" style="fill:#fff"/><path d="M145.17,7.31a2.8,2.8,0,0,1,1.64.64l6.73-11.61-12,6.22a2.6,2.6,0,0,1,.14,1.81,3,3,0,0,1-.83,1.37c-1.35,1.25-3.35.22-3.47.16-1-.55-2.17-1.87-1.76-3.15l.08-.2a2.71,2.71,0,0,1,1.47-1.26l-6.55-11.71-.94,13.5a2.82,2.82,0,0,1,1.77.72A2.57,2.57,0,0,1,132.16,5c.47,1.78-1.39,3.05-1.5,3.13-.9.6-2.47,1-3.43.21l-.18-.15a2.59,2.59,0,0,1-.55-2.06l-13.41.24,11.47,7.05a2.6,2.6,0,0,1,1.49-1,2.86,2.86,0,0,1,1.56.05c1.75.54,1.85,2.79,1.85,2.92,0,1.16-.54,2.81-1.85,3.1l-.3,0a2.77,2.77,0,0,1-1.74-.65l-6.91,11.49,12.09-6.11a2.68,2.68,0,0,1-.35-1.88,1.28,1.28,0,0,1,.18-.44,2.14,2.14,0,0,1,.39-.55c1.28-1.33,3.33-.41,3.45-.36,1,.48,2.23,1.7,2,3l0,.08a2.61,2.61,0,0,1-1.46,1.54l7.2,11.32V22.17a2.81,2.81,0,0,1-1.3-.49,2.35,2.35,0,0,1-.92-1.52c-.35-1.8,1.58-2.95,1.7-3,1-.58,2.73-.86,3.6.17a1.66,1.66,0,0,1,.22.32,2.75,2.75,0,0,1,.2,1.76L159,20l-10.71-7.68a2.76,2.76,0,0,1-1.51,1,3.58,3.58,0,0,1-1.92,0c-1.76-.51-1.89-2.75-1.9-2.89-.05-1.15.5-2.82,1.81-3.12A1.9,1.9,0,0,1,145.17,7.31Z" style="fill:none;stroke:#423c25;stroke-miterlimit:10;stroke-width:0.60077714920044px"/><path d="M130.51,20.84a.08.08,0,0,1,0,0l-7,3.87,3.65-6.12a.16.16,0,0,1,.14-.08l.08,0,3.1,2.17A.07.07,0,0,1,130.51,20.84Z" style="fill:none;stroke:#423c25;stroke-miterlimit:10;stroke-width:0.60077714920044px"/><path d="M136.5,23a.14.14,0,0,0,0,.1l4,6.33.24-7.55a.13.13,0,0,0,0-.09.12.12,0,0,0-.12,0l-4,1.08A.17.17,0,0,0,136.5,23Z" style="fill:none;stroke:#423c25;stroke-miterlimit:10;stroke-width:0.60077714920044px"/><path d="M146.78,13.39h0L152.93,18l-7.4-.37a.09.09,0,0,1-.08-.05s0-.05,0-.07l1.3-4.14S146.77,13.39,146.78,13.39Z" style="fill:none;stroke:#423c25;stroke-miterlimit:10;stroke-width:0.60077714920044px"/><path d="M141.82,4.39l.05,0,6.42-2.82-2.92,5.54a.22.22,0,0,1-.2.12.19.19,0,0,1-.14-.05l-3.18-2.6A.11.11,0,0,1,141.82,4.39Z" style="fill:none;stroke:#423c25;stroke-miterlimit:10;stroke-width:0.60077714920044px"/><path d="M135.64,2.5a.21.21,0,0,0,0-.15l-3.32-6-.73,7.26a.25.25,0,0,0,0,.08.16.16,0,0,0,.19.08l3.74-1.17A.2.2,0,0,0,135.64,2.5Z" style="fill:none;stroke:#423c25;stroke-miterlimit:10;stroke-width:0.60077714920044px"/><path d="M126,12.29a.15.15,0,0,1-.13,0l-6.5-4,7.7.15h.07a.14.14,0,0,1,.07.18l-1.13,3.61A.14.14,0,0,1,126,12.29Z" style="fill:none;stroke:#423c25;stroke-miterlimit:10;stroke-width:0.60077714920044px"/><path d="M137.65,11.36a2.32,2.32,0,1,1-3.27.29A2.3,2.3,0,0,1,137.65,11.36Z" style="fill:none;stroke:#423c25;stroke-miterlimit:10;stroke-width:0.60077714920044px"/><path d="M159,20l-13.4-.64a2.75,2.75,0,0,0-.2-1.76l0,0a.09.09,0,0,0,.08.05l7.4.37-6.13-4.65h0v0a2.76,2.76,0,0,0,1.51-1Z" style="fill:#fff"/><path d="M153.54-3.66,146.81,8a2.8,2.8,0,0,0-1.64-.64V7.19a.22.22,0,0,0,.2-.12l2.92-5.54-6.42,2.82-.05,0-.1,0a2.6,2.6,0,0,0-.14-1.81Z" style="fill:#fff"/><path d="M152.93,18l-7.4-.37a.09.09,0,0,1-.08-.05s0-.05,0-.07l1.3-4.14s0,0,0,0h0Z" style="fill:#423c25"/><path d="M148.29,1.53l-2.92,5.54a.22.22,0,0,1-.2.12.19.19,0,0,1-.14-.05l-3.18-2.6a.11.11,0,0,1,0-.15l.05,0Z" style="fill:#423c25"/><path d="M146.78,13.36v0s0,0,0,0l-1.3,4.14s0,0,0,.07l0,0a1.66,1.66,0,0,0-.22-.32c-.87-1-2.6-.75-3.6-.17-.12.06-2.05,1.21-1.7,3a2.35,2.35,0,0,0,.92,1.52l-.05.07a.12.12,0,0,0-.12,0l-4,1.08a.17.17,0,0,0-.12.16l-.12,0c.27-1.27-.93-2.49-2-3-.12,0-2.17-1-3.45.36a2.14,2.14,0,0,0-.39.55l-.07,0a.07.07,0,0,0,0-.1l-3.1-2.17-.08,0v-.08l.3,0c1.31-.29,1.88-1.94,1.85-3.1,0-.13-.1-2.38-1.85-2.92a2.86,2.86,0,0,0-1.56-.05l0-.08a.14.14,0,0,0,.08-.1l1.13-3.61a.14.14,0,0,0-.07-.18l.06-.09c1,.77,2.53.39,3.43-.21.11-.08,2-1.35,1.5-3.13a2.57,2.57,0,0,0-.67-1.17l.09-.09a.16.16,0,0,0,.19.08l3.74-1.17a.2.2,0,0,0,.13-.12l.1,0-.08.2c-.41,1.28.75,2.6,1.76,3.15.12.06,2.12,1.09,3.47-.16a3,3,0,0,0,.83-1.37l.1,0a.11.11,0,0,0,0,.15L145,7.14a.19.19,0,0,0,.14.05v.12a1.9,1.9,0,0,0-.4.05c-1.31.3-1.86,2-1.81,3.12,0,.14.14,2.38,1.9,2.89A3.58,3.58,0,0,0,146.78,13.36Zm-8.84,1.26a2.32,2.32,0,1,0-3.26.3A2.3,2.3,0,0,0,137.94,14.62Z" style="fill:#423c25"/><path d="M142.1,22.42V35.88l-7.2-11.32A2.61,2.61,0,0,0,136.36,23l0-.08.12,0a.14.14,0,0,0,0,.1l4,6.33.24-7.55a.13.13,0,0,0,0-.09l.05-.07a2.81,2.81,0,0,0,1.3.49Z" style="fill:#fff"/><path d="M140.79,21.84l-.24,7.55-4-6.33a.14.14,0,0,1,0-.1.17.17,0,0,1,.12-.16l4-1.08a.12.12,0,0,1,.12,0A.13.13,0,0,1,140.79,21.84Z" style="fill:#423c25"/><path d="M137.65,11.36a2.32,2.32,0,1,1-3.27.29A2.3,2.3,0,0,1,137.65,11.36Z" style="fill:#fff"/><path d="M130.66-10.42l6.55,11.71a2.71,2.71,0,0,0-1.47,1.26l-.1,0a.21.21,0,0,0,0-.15l-3.32-6-.73,7.26a.25.25,0,0,0,0,.08l-.09.09a2.82,2.82,0,0,0-1.77-.72Z" style="fill:#fff"/><path d="M135.62,2.35a.21.21,0,0,1,0,.15.2.2,0,0,1-.13.12l-3.74,1.17a.16.16,0,0,1-.19-.08.25.25,0,0,1,0-.08l.73-7.26Z" style="fill:#423c25"/><path d="M130.75,23.2l-12.09,6.11,6.91-11.49a2.77,2.77,0,0,0,1.74.65v.08a.16.16,0,0,0-.14.08l-3.65,6.12,7-3.87a.08.08,0,0,0,0,0l.07,0a1.28,1.28,0,0,0-.18.44A2.68,2.68,0,0,0,130.75,23.2Z" style="fill:#fff"/><path d="M130.49,20.74a.07.07,0,0,1,0,.1.08.08,0,0,1,0,0l-7,3.87,3.65-6.12a.16.16,0,0,1,.14-.08l.08,0Z" style="fill:#423c25"/><path d="M127.17,8.4a.14.14,0,0,1,.07.18l-1.13,3.61a.14.14,0,0,1-.08.1.15.15,0,0,1-.13,0l-6.5-4,7.7.15Z" style="fill:#423c25"/><path d="M127.23,8.31l-.06.09h-.07l-7.7-.15,6.5,4a.15.15,0,0,0,.13,0l0,.08a2.6,2.6,0,0,0-1.49,1l-11.47-7L126.5,6.1a2.59,2.59,0,0,0,.55,2.06Z" style="fill:#fff"/><path d="M145.17,7.31a2.8,2.8,0,0,1,1.64.64l6.73-11.61-12,6.22a2.6,2.6,0,0,1,.14,1.81,3,3,0,0,1-.83,1.37c-1.35,1.25-3.35.22-3.47.16-1-.55-2.17-1.87-1.76-3.15l.08-.2a2.71,2.71,0,0,1,1.47-1.26l-6.55-11.71-.94,13.5a2.82,2.82,0,0,1,1.77.72A2.57,2.57,0,0,1,132.16,5c.47,1.78-1.39,3.05-1.5,3.13-.9.6-2.47,1-3.43.21l-.18-.15a2.59,2.59,0,0,1-.55-2.06l-13.41.24,11.47,7.05a2.6,2.6,0,0,1,1.49-1,2.86,2.86,0,0,1,1.56.05c1.75.54,1.85,2.79,1.85,2.92,0,1.16-.54,2.81-1.85,3.1l-.3,0a2.77,2.77,0,0,1-1.74-.65l-6.91,11.49,12.09-6.11a2.68,2.68,0,0,1-.35-1.88,1.28,1.28,0,0,1,.18-.44,2.14,2.14,0,0,1,.39-.55c1.28-1.33,3.33-.41,3.45-.36,1,.48,2.23,1.7,2,3l0,.08a2.61,2.61,0,0,1-1.46,1.54l7.2,11.32V22.17a2.81,2.81,0,0,1-1.3-.49,2.35,2.35,0,0,1-.92-1.52c-.35-1.8,1.58-2.95,1.7-3,1-.58,2.73-.86,3.6.17a1.66,1.66,0,0,1,.22.32,2.75,2.75,0,0,1,.2,1.76L159,20l-10.71-7.68a2.76,2.76,0,0,1-1.51,1,3.58,3.58,0,0,1-1.92,0c-1.76-.51-1.89-2.75-1.9-2.89-.05-1.15.5-2.82,1.81-3.12A1.9,1.9,0,0,1,145.17,7.31Z" style="fill:none;stroke:#423c25;stroke-miterlimit:10;stroke-width:0.60077714920044px"/><path d="M130.51,20.84a.08.08,0,0,1,0,0l-7,3.87,3.65-6.12a.16.16,0,0,1,.14-.08l.08,0,3.1,2.17A.07.07,0,0,1,130.51,20.84Z" style="fill:none;stroke:#423c25;stroke-miterlimit:10;stroke-width:0.60077714920044px"/><path d="M136.5,23a.14.14,0,0,0,0,.1l4,6.33.24-7.55a.13.13,0,0,0,0-.09.12.12,0,0,0-.12,0l-4,1.08A.17.17,0,0,0,136.5,23Z" style="fill:none;stroke:#423c25;stroke-miterlimit:10;stroke-width:0.60077714920044px"/><path d="M146.78,13.39h0L152.93,18l-7.4-.37a.09.09,0,0,1-.08-.05s0-.05,0-.07l1.3-4.14S146.77,13.39,146.78,13.39Z" style="fill:none;stroke:#423c25;stroke-miterlimit:10;stroke-width:0.60077714920044px"/><path d="M141.82,4.39l.05,0,6.42-2.82-2.92,5.54a.22.22,0,0,1-.2.12.19.19,0,0,1-.14-.05l-3.18-2.6A.11.11,0,0,1,141.82,4.39Z" style="fill:none;stroke:#423c25;stroke-miterlimit:10;stroke-width:0.60077714920044px"/><path d="M135.64,2.5a.21.21,0,0,0,0-.15l-3.32-6-.73,7.26a.25.25,0,0,0,0,.08.16.16,0,0,0,.19.08l3.74-1.17A.2.2,0,0,0,135.64,2.5Z" style="fill:none;stroke:#423c25;stroke-miterlimit:10;stroke-width:0.60077714920044px"/><path d="M126,12.29a.15.15,0,0,1-.13,0l-6.5-4,7.7.15h.07a.14.14,0,0,1,.07.18l-1.13,3.61A.14.14,0,0,1,126,12.29Z" style="fill:none;stroke:#423c25;stroke-miterlimit:10;stroke-width:0.60077714920044px"/><path d="M137.65,11.36a2.32,2.32,0,1,1-3.27.29A2.3,2.3,0,0,1,137.65,11.36Z" style="fill:none;stroke:#423c25;stroke-miterlimit:10;stroke-width:0.60077714920044px"/><path d="M159,20l-13.4-.64a2.75,2.75,0,0,0-.2-1.76l0,0a.09.09,0,0,0,.08.05l7.4.37-6.13-4.65h0v0a2.76,2.76,0,0,0,1.51-1Z" style="fill:#fff"/><path d="M153.54-3.66,146.81,8a2.8,2.8,0,0,0-1.64-.64V7.19a.22.22,0,0,0,.2-.12l2.92-5.54-6.42,2.82-.05,0-.1,0a2.6,2.6,0,0,0-.14-1.81Z" style="fill:#fff"/><path d="M152.93,18l-7.4-.37a.09.09,0,0,1-.08-.05s0-.05,0-.07l1.3-4.14s0,0,0,0h0Z" style="fill:#423c25"/><path d="M148.29,1.53l-2.92,5.54a.22.22,0,0,1-.2.12.19.19,0,0,1-.14-.05l-3.18-2.6a.11.11,0,0,1,0-.15l.05,0Z" style="fill:#423c25"/><path d="M146.78,13.36v0s0,0,0,0l-1.3,4.14s0,0,0,.07l0,0a1.66,1.66,0,0,0-.22-.32c-.87-1-2.6-.75-3.6-.17-.12.06-2.05,1.21-1.7,3a2.35,2.35,0,0,0,.92,1.52l-.05.07a.12.12,0,0,0-.12,0l-4,1.08a.17.17,0,0,0-.12.16l-.12,0c.27-1.27-.93-2.49-2-3-.12,0-2.17-1-3.45.36a2.14,2.14,0,0,0-.39.55l-.07,0a.07.07,0,0,0,0-.1l-3.1-2.17-.08,0v-.08l.3,0c1.31-.29,1.88-1.94,1.85-3.1,0-.13-.1-2.38-1.85-2.92a2.86,2.86,0,0,0-1.56-.05l0-.08a.14.14,0,0,0,.08-.1l1.13-3.61a.14.14,0,0,0-.07-.18l.06-.09c1,.77,2.53.39,3.43-.21.11-.08,2-1.35,1.5-3.13a2.57,2.57,0,0,0-.67-1.17l.09-.09a.16.16,0,0,0,.19.08l3.74-1.17a.2.2,0,0,0,.13-.12l.1,0-.08.2c-.41,1.28.75,2.6,1.76,3.15.12.06,2.12,1.09,3.47-.16a3,3,0,0,0,.83-1.37l.1,0a.11.11,0,0,0,0,.15L145,7.14a.19.19,0,0,0,.14.05v.12a1.9,1.9,0,0,0-.4.05c-1.31.3-1.86,2-1.81,3.12,0,.14.14,2.38,1.9,2.89A3.58,3.58,0,0,0,146.78,13.36Zm-8.84,1.26a2.32,2.32,0,1,0-3.26.3A2.3,2.3,0,0,0,137.94,14.62Z" style="fill:#423c25"/><path d="M142.1,22.42V35.88l-7.2-11.32A2.61,2.61,0,0,0,136.36,23l0-.08.12,0a.14.14,0,0,0,0,.1l4,6.33.24-7.55a.13.13,0,0,0,0-.09l.05-.07a2.81,2.81,0,0,0,1.3.49Z" style="fill:#fff"/><path d="M140.79,21.84l-.24,7.55-4-6.33a.14.14,0,0,1,0-.1.17.17,0,0,1,.12-.16l4-1.08a.12.12,0,0,1,.12,0A.13.13,0,0,1,140.79,21.84Z" style="fill:#423c25"/><path d="M137.65,11.36a2.32,2.32,0,1,1-3.27.29A2.3,2.3,0,0,1,137.65,11.36Z" style="fill:#fff"/><path d="M130.66-10.42l6.55,11.71a2.71,2.71,0,0,0-1.47,1.26l-.1,0a.21.21,0,0,0,0-.15l-3.32-6-.73,7.26a.25.25,0,0,0,0,.08l-.09.09a2.82,2.82,0,0,0-1.77-.72Z" style="fill:#fff"/><path d="M135.62,2.35a.21.21,0,0,1,0,.15.2.2,0,0,1-.13.12l-3.74,1.17a.16.16,0,0,1-.19-.08.25.25,0,0,1,0-.08l.73-7.26Z" style="fill:#423c25"/><path d="M130.75,23.2l-12.09,6.11,6.91-11.49a2.77,2.77,0,0,0,1.74.65v.08a.16.16,0,0,0-.14.08l-3.65,6.12,7-3.87a.08.08,0,0,0,0,0l.07,0a1.28,1.28,0,0,0-.18.44A2.68,2.68,0,0,0,130.75,23.2Z" style="fill:#fff"/><path d="M130.49,20.74a.07.07,0,0,1,0,.1.08.08,0,0,1,0,0l-7,3.87,3.65-6.12a.16.16,0,0,1,.14-.08l.08,0Z" style="fill:#423c25"/><path d="M127.17,8.4a.14.14,0,0,1,.07.18l-1.13,3.61a.14.14,0,0,1-.08.1.15.15,0,0,1-.13,0l-6.5-4,7.7.15Z" style="fill:#423c25"/><path d="M127.23,8.31l-.06.09h-.07l-7.7-.15,6.5,4a.15.15,0,0,0,.13,0l0,.08a2.6,2.6,0,0,0-1.49,1l-11.47-7L126.5,6.1a2.59,2.59,0,0,0,.55,2.06Z" style="fill:#fff"/><path d="M145.17,7.31a2.8,2.8,0,0,1,1.64.64l6.73-11.61-12,6.22a2.6,2.6,0,0,1,.14,1.81,3,3,0,0,1-.83,1.37c-1.35,1.25-3.35.22-3.47.16-1-.55-2.17-1.87-1.76-3.15l.08-.2a2.71,2.71,0,0,1,1.47-1.26l-6.55-11.71-.94,13.5a2.82,2.82,0,0,1,1.77.72A2.57,2.57,0,0,1,132.16,5c.47,1.78-1.39,3.05-1.5,3.13-.9.6-2.47,1-3.43.21l-.18-.15a2.59,2.59,0,0,1-.55-2.06l-13.41.24,11.47,7.05a2.6,2.6,0,0,1,1.49-1,2.86,2.86,0,0,1,1.56.05c1.75.54,1.85,2.79,1.85,2.92,0,1.16-.54,2.81-1.85,3.1l-.3,0a2.77,2.77,0,0,1-1.74-.65l-6.91,11.49,12.09-6.11a2.68,2.68,0,0,1-.35-1.88,1.28,1.28,0,0,1,.18-.44,2.14,2.14,0,0,1,.39-.55c1.28-1.33,3.33-.41,3.45-.36,1,.48,2.23,1.7,2,3l0,.08a2.61,2.61,0,0,1-1.46,1.54l7.2,11.32V22.17a2.81,2.81,0,0,1-1.3-.49,2.35,2.35,0,0,1-.92-1.52c-.35-1.8,1.58-2.95,1.7-3,1-.58,2.73-.86,3.6.17a1.66,1.66,0,0,1,.22.32,2.75,2.75,0,0,1,.2,1.76L159,20l-10.71-7.68a2.76,2.76,0,0,1-1.51,1,3.58,3.58,0,0,1-1.92,0c-1.76-.51-1.89-2.75-1.9-2.89-.05-1.15.5-2.82,1.81-3.12A1.9,1.9,0,0,1,145.17,7.31Z" style="fill:none;stroke:#423c25;stroke-miterlimit:10;stroke-width:0.60077714920044px"/><path d="M130.51,20.84a.08.08,0,0,1,0,0l-7,3.87,3.65-6.12a.16.16,0,0,1,.14-.08l.08,0,3.1,2.17A.07.07,0,0,1,130.51,20.84Z" style="fill:none;stroke:#423c25;stroke-miterlimit:10;stroke-width:0.60077714920044px"/><path d="M136.5,23a.14.14,0,0,0,0,.1l4,6.33.24-7.55a.13.13,0,0,0,0-.09.12.12,0,0,0-.12,0l-4,1.08A.17.17,0,0,0,136.5,23Z" style="fill:none;stroke:#423c25;stroke-miterlimit:10;stroke-width:0.60077714920044px"/><path d="M146.78,13.39h0L152.93,18l-7.4-.37a.09.09,0,0,1-.08-.05s0-.05,0-.07l1.3-4.14S146.77,13.39,146.78,13.39Z" style="fill:none;stroke:#423c25;stroke-miterlimit:10;stroke-width:0.60077714920044px"/><path d="M141.82,4.39l.05,0,6.42-2.82-2.92,5.54a.22.22,0,0,1-.2.12.19.19,0,0,1-.14-.05l-3.18-2.6A.11.11,0,0,1,141.82,4.39Z" style="fill:none;stroke:#423c25;stroke-miterlimit:10;stroke-width:0.60077714920044px"/><path d="M135.64,2.5a.21.21,0,0,0,0-.15l-3.32-6-.73,7.26a.25.25,0,0,0,0,.08.16.16,0,0,0,.19.08l3.74-1.17A.2.2,0,0,0,135.64,2.5Z" style="fill:none;stroke:#423c25;stroke-miterlimit:10;stroke-width:0.60077714920044px"/><path d="M126,12.29a.15.15,0,0,1-.13,0l-6.5-4,7.7.15h.07a.14.14,0,0,1,.07.18l-1.13,3.61A.14.14,0,0,1,126,12.29Z" style="fill:none;stroke:#423c25;stroke-miterlimit:10;stroke-width:0.60077714920044px"/><path d="M137.65,11.36a2.32,2.32,0,1,1-3.27.29A2.3,2.3,0,0,1,137.65,11.36Z" style="fill:none;stroke:#423c25;stroke-miterlimit:10;stroke-width:0.60077714920044px"/><path d="M159,20l-13.4-.64a2.75,2.75,0,0,0-.2-1.76l0,0a.09.09,0,0,0,.08.05l7.4.37-6.13-4.65h0v0a2.76,2.76,0,0,0,1.51-1Z" style="fill:#fff"/><path d="M153.54-3.66,146.81,8a2.8,2.8,0,0,0-1.64-.64V7.19a.22.22,0,0,0,.2-.12l2.92-5.54-6.42,2.82-.05,0-.1,0a2.6,2.6,0,0,0-.14-1.81Z" style="fill:#fff"/><path d="M152.93,18l-7.4-.37a.09.09,0,0,1-.08-.05s0-.05,0-.07l1.3-4.14s0,0,0,0h0Z" style="fill:#423c25"/><path d="M148.29,1.53l-2.92,5.54a.22.22,0,0,1-.2.12.19.19,0,0,1-.14-.05l-3.18-2.6a.11.11,0,0,1,0-.15l.05,0Z" style="fill:#423c25"/><path d="M146.78,13.36v0s0,0,0,0l-1.3,4.14s0,0,0,.07l0,0a1.66,1.66,0,0,0-.22-.32c-.87-1-2.6-.75-3.6-.17-.12.06-2.05,1.21-1.7,3a2.35,2.35,0,0,0,.92,1.52l-.05.07a.12.12,0,0,0-.12,0l-4,1.08a.17.17,0,0,0-.12.16l-.12,0c.27-1.27-.93-2.49-2-3-.12,0-2.17-1-3.45.36a2.14,2.14,0,0,0-.39.55l-.07,0a.07.07,0,0,0,0-.1l-3.1-2.17-.08,0v-.08l.3,0c1.31-.29,1.88-1.94,1.85-3.1,0-.13-.1-2.38-1.85-2.92a2.86,2.86,0,0,0-1.56-.05l0-.08a.14.14,0,0,0,.08-.1l1.13-3.61a.14.14,0,0,0-.07-.18l.06-.09c1,.77,2.53.39,3.43-.21.11-.08,2-1.35,1.5-3.13a2.57,2.57,0,0,0-.67-1.17l.09-.09a.16.16,0,0,0,.19.08l3.74-1.17a.2.2,0,0,0,.13-.12l.1,0-.08.2c-.41,1.28.75,2.6,1.76,3.15.12.06,2.12,1.09,3.47-.16a3,3,0,0,0,.83-1.37l.1,0a.11.11,0,0,0,0,.15L145,7.14a.19.19,0,0,0,.14.05v.12a1.9,1.9,0,0,0-.4.05c-1.31.3-1.86,2-1.81,3.12,0,.14.14,2.38,1.9,2.89A3.58,3.58,0,0,0,146.78,13.36Zm-8.84,1.26a2.32,2.32,0,1,0-3.26.3A2.3,2.3,0,0,0,137.94,14.62Z" style="fill:#423c25"/><path d="M142.1,22.42V35.88l-7.2-11.32A2.61,2.61,0,0,0,136.36,23l0-.08.12,0a.14.14,0,0,0,0,.1l4,6.33.24-7.55a.13.13,0,0,0,0-.09l.05-.07a2.81,2.81,0,0,0,1.3.49Z" style="fill:#fff"/><path d="M140.79,21.84l-.24,7.55-4-6.33a.14.14,0,0,1,0-.1.17.17,0,0,1,.12-.16l4-1.08a.12.12,0,0,1,.12,0A.13.13,0,0,1,140.79,21.84Z" style="fill:#423c25"/><path d="M137.65,11.36a2.32,2.32,0,1,1-3.27.29A2.3,2.3,0,0,1,137.65,11.36Z" style="fill:#fff"/><path d="M130.66-10.42l6.55,11.71a2.71,2.71,0,0,0-1.47,1.26l-.1,0a.21.21,0,0,0,0-.15l-3.32-6-.73,7.26a.25.25,0,0,0,0,.08l-.09.09a2.82,2.82,0,0,0-1.77-.72Z" style="fill:#fff"/><path d="M135.62,2.35a.21.21,0,0,1,0,.15.2.2,0,0,1-.13.12l-3.74,1.17a.16.16,0,0,1-.19-.08.25.25,0,0,1,0-.08l.73-7.26Z" style="fill:#423c25"/><path d="M130.75,23.2l-12.09,6.11,6.91-11.49a2.77,2.77,0,0,0,1.74.65v.08a.16.16,0,0,0-.14.08l-3.65,6.12,7-3.87a.08.08,0,0,0,0,0l.07,0a1.28,1.28,0,0,0-.18.44A2.68,2.68,0,0,0,130.75,23.2Z" style="fill:#fff"/><path d="M130.49,20.74a.07.07,0,0,1,0,.1.08.08,0,0,1,0,0l-7,3.87,3.65-6.12a.16.16,0,0,1,.14-.08l.08,0Z" style="fill:#423c25"/><path d="M127.17,8.4a.14.14,0,0,1,.07.18l-1.13,3.61a.14.14,0,0,1-.08.1.15.15,0,0,1-.13,0l-6.5-4,7.7.15Z" style="fill:#423c25"/><path d="M127.23,8.31l-.06.09h-.07l-7.7-.15,6.5,4a.15.15,0,0,0,.13,0l0,.08a2.6,2.6,0,0,0-1.49,1l-11.47-7L126.5,6.1a2.59,2.59,0,0,0,.55,2.06Z" style="fill:#fff"/><path d="M145.17,7.31a2.8,2.8,0,0,1,1.64.64l6.73-11.61-12,6.22a2.6,2.6,0,0,1,.14,1.81,3,3,0,0,1-.83,1.37c-1.35,1.25-3.35.22-3.47.16-1-.55-2.17-1.87-1.76-3.15l.08-.2a2.71,2.71,0,0,1,1.47-1.26l-6.55-11.71-.94,13.5a2.82,2.82,0,0,1,1.77.72A2.57,2.57,0,0,1,132.16,5c.47,1.78-1.39,3.05-1.5,3.13-.9.6-2.47,1-3.43.21l-.18-.15a2.59,2.59,0,0,1-.55-2.06l-13.41.24,11.47,7.05a2.6,2.6,0,0,1,1.49-1,2.86,2.86,0,0,1,1.56.05c1.75.54,1.85,2.79,1.85,2.92,0,1.16-.54,2.81-1.85,3.1l-.3,0a2.77,2.77,0,0,1-1.74-.65l-6.91,11.49,12.09-6.11a2.68,2.68,0,0,1-.35-1.88,1.28,1.28,0,0,1,.18-.44,2.14,2.14,0,0,1,.39-.55c1.28-1.33,3.33-.41,3.45-.36,1,.48,2.23,1.7,2,3l0,.08a2.61,2.61,0,0,1-1.46,1.54l7.2,11.32V22.17a2.81,2.81,0,0,1-1.3-.49,2.35,2.35,0,0,1-.92-1.52c-.35-1.8,1.58-2.95,1.7-3,1-.58,2.73-.86,3.6.17a1.66,1.66,0,0,1,.22.32,2.75,2.75,0,0,1,.2,1.76L159,20l-10.71-7.68a2.76,2.76,0,0,1-1.51,1,3.58,3.58,0,0,1-1.92,0c-1.76-.51-1.89-2.75-1.9-2.89-.05-1.15.5-2.82,1.81-3.12A1.9,1.9,0,0,1,145.17,7.31Z" style="fill:none;stroke:#423c25;stroke-miterlimit:10;stroke-width:0.60077714920044px"/><path d="M130.51,20.84a.08.08,0,0,1,0,0l-7,3.87,3.65-6.12a.16.16,0,0,1,.14-.08l.08,0,3.1,2.17A.07.07,0,0,1,130.51,20.84Z" style="fill:none;stroke:#423c25;stroke-miterlimit:10;stroke-width:0.60077714920044px"/><path d="M136.5,23a.14.14,0,0,0,0,.1l4,6.33.24-7.55a.13.13,0,0,0,0-.09.12.12,0,0,0-.12,0l-4,1.08A.17.17,0,0,0,136.5,23Z" style="fill:none;stroke:#423c25;stroke-miterlimit:10;stroke-width:0.60077714920044px"/><path d="M146.78,13.39h0L152.93,18l-7.4-.37a.09.09,0,0,1-.08-.05s0-.05,0-.07l1.3-4.14S146.77,13.39,146.78,13.39Z" style="fill:none;stroke:#423c25;stroke-miterlimit:10;stroke-width:0.60077714920044px"/><path d="M141.82,4.39l.05,0,6.42-2.82-2.92,5.54a.22.22,0,0,1-.2.12.19.19,0,0,1-.14-.05l-3.18-2.6A.11.11,0,0,1,141.82,4.39Z" style="fill:none;stroke:#423c25;stroke-miterlimit:10;stroke-width:0.60077714920044px"/><path d="M135.64,2.5a.21.21,0,0,0,0-.15l-3.32-6-.73,7.26a.25.25,0,0,0,0,.08.16.16,0,0,0,.19.08l3.74-1.17A.2.2,0,0,0,135.64,2.5Z" style="fill:none;stroke:#423c25;stroke-miterlimit:10;stroke-width:0.60077714920044px"/><path d="M126,12.29a.15.15,0,0,1-.13,0l-6.5-4,7.7.15h.07a.14.14,0,0,1,.07.18l-1.13,3.61A.14.14,0,0,1,126,12.29Z" style="fill:none;stroke:#423c25;stroke-miterlimit:10;stroke-width:0.60077714920044px"/><path d="M137.65,11.36a2.32,2.32,0,1,1-3.27.29A2.3,2.3,0,0,1,137.65,11.36Z" style="fill:none;stroke:#423c25;stroke-miterlimit:10;stroke-width:0.60077714920044px"/><path d="M159,20l-13.4-.64a2.75,2.75,0,0,0-.2-1.76l0,0a.09.09,0,0,0,.08.05l7.4.37-6.13-4.65h0v0a2.76,2.76,0,0,0,1.51-1Z" style="fill:#fff"/><path d="M153.54-3.66,146.81,8a2.8,2.8,0,0,0-1.64-.64V7.19a.22.22,0,0,0,.2-.12l2.92-5.54-6.42,2.82-.05,0-.1,0a2.6,2.6,0,0,0-.14-1.81Z" style="fill:#fff"/><path d="M152.93,18l-7.4-.37a.09.09,0,0,1-.08-.05s0-.05,0-.07l1.3-4.14s0,0,0,0h0Z" style="fill:#423c25"/><path d="M148.29,1.53l-2.92,5.54a.22.22,0,0,1-.2.12.19.19,0,0,1-.14-.05l-3.18-2.6a.11.11,0,0,1,0-.15l.05,0Z" style="fill:#423c25"/><path d="M146.78,13.36v0s0,0,0,0l-1.3,4.14s0,0,0,.07l0,0a1.66,1.66,0,0,0-.22-.32c-.87-1-2.6-.75-3.6-.17-.12.06-2.05,1.21-1.7,3a2.35,2.35,0,0,0,.92,1.52l-.05.07a.12.12,0,0,0-.12,0l-4,1.08a.17.17,0,0,0-.12.16l-.12,0c.27-1.27-.93-2.49-2-3-.12,0-2.17-1-3.45.36a2.14,2.14,0,0,0-.39.55l-.07,0a.07.07,0,0,0,0-.1l-3.1-2.17-.08,0v-.08l.3,0c1.31-.29,1.88-1.94,1.85-3.1,0-.13-.1-2.38-1.85-2.92a2.86,2.86,0,0,0-1.56-.05l0-.08a.14.14,0,0,0,.08-.1l1.13-3.61a.14.14,0,0,0-.07-.18l.06-.09c1,.77,2.53.39,3.43-.21.11-.08,2-1.35,1.5-3.13a2.57,2.57,0,0,0-.67-1.17l.09-.09a.16.16,0,0,0,.19.08l3.74-1.17a.2.2,0,0,0,.13-.12l.1,0-.08.2c-.41,1.28.75,2.6,1.76,3.15.12.06,2.12,1.09,3.47-.16a3,3,0,0,0,.83-1.37l.1,0a.11.11,0,0,0,0,.15L145,7.14a.19.19,0,0,0,.14.05v.12a1.9,1.9,0,0,0-.4.05c-1.31.3-1.86,2-1.81,3.12,0,.14.14,2.38,1.9,2.89A3.58,3.58,0,0,0,146.78,13.36Zm-8.84,1.26a2.32,2.32,0,1,0-3.26.3A2.3,2.3,0,0,0,137.94,14.62Z" style="fill:#423c25"/><path d="M142.1,22.42V35.88l-7.2-11.32A2.61,2.61,0,0,0,136.36,23l0-.08.12,0a.14.14,0,0,0,0,.1l4,6.33.24-7.55a.13.13,0,0,0,0-.09l.05-.07a2.81,2.81,0,0,0,1.3.49Z" style="fill:#fff"/><path d="M140.79,21.84l-.24,7.55-4-6.33a.14.14,0,0,1,0-.1.17.17,0,0,1,.12-.16l4-1.08a.12.12,0,0,1,.12,0A.13.13,0,0,1,140.79,21.84Z" style="fill:#423c25"/><path d="M137.65,11.36a2.32,2.32,0,1,1-3.27.29A2.3,2.3,0,0,1,137.65,11.36Z" style="fill:#fff"/><path d="M130.66-10.42l6.55,11.71a2.71,2.71,0,0,0-1.47,1.26l-.1,0a.21.21,0,0,0,0-.15l-3.32-6-.73,7.26a.25.25,0,0,0,0,.08l-.09.09a2.82,2.82,0,0,0-1.77-.72Z" style="fill:#fff"/><path d="M135.62,2.35a.21.21,0,0,1,0,.15.2.2,0,0,1-.13.12l-3.74,1.17a.16.16,0,0,1-.19-.08.25.25,0,0,1,0-.08l.73-7.26Z" style="fill:#423c25"/><path d="M130.75,23.2l-12.09,6.11,6.91-11.49a2.77,2.77,0,0,0,1.74.65v.08a.16.16,0,0,0-.14.08l-3.65,6.12,7-3.87a.08.08,0,0,0,0,0l.07,0a1.28,1.28,0,0,0-.18.44A2.68,2.68,0,0,0,130.75,23.2Z" style="fill:#fff"/><path d="M130.49,20.74a.07.07,0,0,1,0,.1.08.08,0,0,1,0,0l-7,3.87,3.65-6.12a.16.16,0,0,1,.14-.08l.08,0Z" style="fill:#423c25"/><path d="M127.17,8.4a.14.14,0,0,1,.07.18l-1.13,3.61a.14.14,0,0,1-.08.1.15.15,0,0,1-.13,0l-6.5-4,7.7.15Z" style="fill:#423c25"/><path d="M127.23,8.31l-.06.09h-.07l-7.7-.15,6.5,4a.15.15,0,0,0,.13,0l0,.08a2.6,2.6,0,0,0-1.49,1l-11.47-7L126.5,6.1a2.59,2.59,0,0,0,.55,2.06Z" style="fill:#fff"/><path d="M145.17,7.31a2.8,2.8,0,0,1,1.64.64l6.73-11.61-12,6.22a2.6,2.6,0,0,1,.14,1.81,3,3,0,0,1-.83,1.37c-1.35,1.25-3.35.22-3.47.16-1-.55-2.17-1.87-1.76-3.15l.08-.2a2.71,2.71,0,0,1,1.47-1.26l-6.55-11.71-.94,13.5a2.82,2.82,0,0,1,1.77.72A2.57,2.57,0,0,1,132.16,5c.47,1.78-1.39,3.05-1.5,3.13-.9.6-2.47,1-3.43.21l-.18-.15a2.59,2.59,0,0,1-.55-2.06l-13.41.24,11.47,7.05a2.6,2.6,0,0,1,1.49-1,2.86,2.86,0,0,1,1.56.05c1.75.54,1.85,2.79,1.85,2.92,0,1.16-.54,2.81-1.85,3.1l-.3,0a2.77,2.77,0,0,1-1.74-.65l-6.91,11.49,12.09-6.11a2.68,2.68,0,0,1-.35-1.88,1.28,1.28,0,0,1,.18-.44,2.14,2.14,0,0,1,.39-.55c1.28-1.33,3.33-.41,3.45-.36,1,.48,2.23,1.7,2,3l0,.08a2.61,2.61,0,0,1-1.46,1.54l7.2,11.32V22.17a2.81,2.81,0,0,1-1.3-.49,2.35,2.35,0,0,1-.92-1.52c-.35-1.8,1.58-2.95,1.7-3,1-.58,2.73-.86,3.6.17a1.66,1.66,0,0,1,.22.32,2.75,2.75,0,0,1,.2,1.76L159,20l-10.71-7.68a2.76,2.76,0,0,1-1.51,1,3.58,3.58,0,0,1-1.92,0c-1.76-.51-1.89-2.75-1.9-2.89-.05-1.15.5-2.82,1.81-3.12A1.9,1.9,0,0,1,145.17,7.31Z" style="fill:none;stroke:#423c25;stroke-miterlimit:10;stroke-width:0.60077714920044px"/><path d="M130.51,20.84a.08.08,0,0,1,0,0l-7,3.87,3.65-6.12a.16.16,0,0,1,.14-.08l.08,0,3.1,2.17A.07.07,0,0,1,130.51,20.84Z" style="fill:none;stroke:#423c25;stroke-miterlimit:10;stroke-width:0.60077714920044px"/><path d="M136.5,23a.14.14,0,0,0,0,.1l4,6.33.24-7.55a.13.13,0,0,0,0-.09.12.12,0,0,0-.12,0l-4,1.08A.17.17,0,0,0,136.5,23Z" style="fill:none;stroke:#423c25;stroke-miterlimit:10;stroke-width:0.60077714920044px"/><path d="M146.78,13.39h0L152.93,18l-7.4-.37a.09.09,0,0,1-.08-.05s0-.05,0-.07l1.3-4.14S146.77,13.39,146.78,13.39Z" style="fill:none;stroke:#423c25;stroke-miterlimit:10;stroke-width:0.60077714920044px"/><path d="M141.82,4.39l.05,0,6.42-2.82-2.92,5.54a.22.22,0,0,1-.2.12.19.19,0,0,1-.14-.05l-3.18-2.6A.11.11,0,0,1,141.82,4.39Z" style="fill:none;stroke:#423c25;stroke-miterlimit:10;stroke-width:0.60077714920044px"/><path d="M135.64,2.5a.21.21,0,0,0,0-.15l-3.32-6-.73,7.26a.25.25,0,0,0,0,.08.16.16,0,0,0,.19.08l3.74-1.17A.2.2,0,0,0,135.64,2.5Z" style="fill:none;stroke:#423c25;stroke-miterlimit:10;stroke-width:0.60077714920044px"/><path d="M126,12.29a.15.15,0,0,1-.13,0l-6.5-4,7.7.15h.07a.14.14,0,0,1,.07.18l-1.13,3.61A.14.14,0,0,1,126,12.29Z" style="fill:none;stroke:#423c25;stroke-miterlimit:10;stroke-width:0.60077714920044px"/><path d="M137.65,11.36a2.32,2.32,0,1,1-3.27.29A2.3,2.3,0,0,1,137.65,11.36Z" style="fill:none;stroke:#423c25;stroke-miterlimit:10;stroke-width:0.60077714920044px"/><path d="M159,20l-13.4-.64a2.75,2.75,0,0,0-.2-1.76l0,0a.09.09,0,0,0,.08.05l7.4.37-6.13-4.65h0v0a2.76,2.76,0,0,0,1.51-1Z" style="fill:#fff"/><path d="M153.54-3.66,146.81,8a2.8,2.8,0,0,0-1.64-.64V7.19a.22.22,0,0,0,.2-.12l2.92-5.54-6.42,2.82-.05,0-.1,0a2.6,2.6,0,0,0-.14-1.81Z" style="fill:#fff"/><path d="M152.93,18l-7.4-.37a.09.09,0,0,1-.08-.05s0-.05,0-.07l1.3-4.14s0,0,0,0h0Z" style="fill:#423c25"/><path d="M148.29,1.53l-2.92,5.54a.22.22,0,0,1-.2.12.19.19,0,0,1-.14-.05l-3.18-2.6a.11.11,0,0,1,0-.15l.05,0Z" style="fill:#423c25"/><path d="M146.78,13.36v0s0,0,0,0l-1.3,4.14s0,0,0,.07l0,0a1.66,1.66,0,0,0-.22-.32c-.87-1-2.6-.75-3.6-.17-.12.06-2.05,1.21-1.7,3a2.35,2.35,0,0,0,.92,1.52l-.05.07a.12.12,0,0,0-.12,0l-4,1.08a.17.17,0,0,0-.12.16l-.12,0c.27-1.27-.93-2.49-2-3-.12,0-2.17-1-3.45.36a2.14,2.14,0,0,0-.39.55l-.07,0a.07.07,0,0,0,0-.1l-3.1-2.17-.08,0v-.08l.3,0c1.31-.29,1.88-1.94,1.85-3.1,0-.13-.1-2.38-1.85-2.92a2.86,2.86,0,0,0-1.56-.05l0-.08a.14.14,0,0,0,.08-.1l1.13-3.61a.14.14,0,0,0-.07-.18l.06-.09c1,.77,2.53.39,3.43-.21.11-.08,2-1.35,1.5-3.13a2.57,2.57,0,0,0-.67-1.17l.09-.09a.16.16,0,0,0,.19.08l3.74-1.17a.2.2,0,0,0,.13-.12l.1,0-.08.2c-.41,1.28.75,2.6,1.76,3.15.12.06,2.12,1.09,3.47-.16a3,3,0,0,0,.83-1.37l.1,0a.11.11,0,0,0,0,.15L145,7.14a.19.19,0,0,0,.14.05v.12a1.9,1.9,0,0,0-.4.05c-1.31.3-1.86,2-1.81,3.12,0,.14.14,2.38,1.9,2.89A3.58,3.58,0,0,0,146.78,13.36Zm-8.84,1.26a2.32,2.32,0,1,0-3.26.3A2.3,2.3,0,0,0,137.94,14.62Z" style="fill:#423c25"/><path d="M142.1,22.42V35.88l-7.2-11.32A2.61,2.61,0,0,0,136.36,23l0-.08.12,0a.14.14,0,0,0,0,.1l4,6.33.24-7.55a.13.13,0,0,0,0-.09l.05-.07a2.81,2.81,0,0,0,1.3.49Z" style="fill:#fff"/><path d="M140.79,21.84l-.24,7.55-4-6.33a.14.14,0,0,1,0-.1.17.17,0,0,1,.12-.16l4-1.08a.12.12,0,0,1,.12,0A.13.13,0,0,1,140.79,21.84Z" style="fill:#423c25"/><path d="M137.65,11.36a2.32,2.32,0,1,1-3.27.29A2.3,2.3,0,0,1,137.65,11.36Z" style="fill:#fff"/><path d="M130.66-10.42l6.55,11.71a2.71,2.71,0,0,0-1.47,1.26l-.1,0a.21.21,0,0,0,0-.15l-3.32-6-.73,7.26a.25.25,0,0,0,0,.08l-.09.09a2.82,2.82,0,0,0-1.77-.72Z" style="fill:#fff"/><path d="M135.62,2.35a.21.21,0,0,1,0,.15.2.2,0,0,1-.13.12l-3.74,1.17a.16.16,0,0,1-.19-.08.25.25,0,0,1,0-.08l.73-7.26Z" style="fill:#423c25"/><path d="M130.75,23.2l-12.09,6.11,6.91-11.49a2.77,2.77,0,0,0,1.74.65v.08a.16.16,0,0,0-.14.08l-3.65,6.12,7-3.87a.08.08,0,0,0,0,0l.07,0a1.28,1.28,0,0,0-.18.44A2.68,2.68,0,0,0,130.75,23.2Z" style="fill:#fff"/><path d="M130.49,20.74a.07.07,0,0,1,0,.1.08.08,0,0,1,0,0l-7,3.87,3.65-6.12a.16.16,0,0,1,.14-.08l.08,0Z" style="fill:#423c25"/><path d="M127.17,8.4a.14.14,0,0,1,.07.18l-1.13,3.61a.14.14,0,0,1-.08.1.15.15,0,0,1-.13,0l-6.5-4,7.7.15Z" style="fill:#423c25"/><path d="M127.23,8.31l-.06.09h-.07l-7.7-.15,6.5,4a.15.15,0,0,0,.13,0l0,.08a2.6,2.6,0,0,0-1.49,1l-11.47-7L126.5,6.1a2.59,2.59,0,0,0,.55,2.06Z" style="fill:#fff"/><path d="M145.17,7.31a2.8,2.8,0,0,1,1.64.64l6.73-11.61-12,6.22a2.6,2.6,0,0,1,.14,1.81,3,3,0,0,1-.83,1.37c-1.35,1.25-3.35.22-3.47.16-1-.55-2.17-1.87-1.76-3.15l.08-.2a2.71,2.71,0,0,1,1.47-1.26l-6.55-11.71-.94,13.5a2.82,2.82,0,0,1,1.77.72A2.57,2.57,0,0,1,132.16,5c.47,1.78-1.39,3.05-1.5,3.13-.9.6-2.47,1-3.43.21l-.18-.15a2.59,2.59,0,0,1-.55-2.06l-13.41.24,11.47,7.05a2.6,2.6,0,0,1,1.49-1,2.86,2.86,0,0,1,1.56.05c1.75.54,1.85,2.79,1.85,2.92,0,1.16-.54,2.81-1.85,3.1l-.3,0a2.77,2.77,0,0,1-1.74-.65l-6.91,11.49,12.09-6.11a2.68,2.68,0,0,1-.35-1.88,1.28,1.28,0,0,1,.18-.44,2.14,2.14,0,0,1,.39-.55c1.28-1.33,3.33-.41,3.45-.36,1,.48,2.23,1.7,2,3l0,.08a2.61,2.61,0,0,1-1.46,1.54l7.2,11.32V22.17a2.81,2.81,0,0,1-1.3-.49,2.35,2.35,0,0,1-.92-1.52c-.35-1.8,1.58-2.95,1.7-3,1-.58,2.73-.86,3.6.17a1.66,1.66,0,0,1,.22.32,2.75,2.75,0,0,1,.2,1.76L159,20l-10.71-7.68a2.76,2.76,0,0,1-1.51,1,3.58,3.58,0,0,1-1.92,0c-1.76-.51-1.89-2.75-1.9-2.89-.05-1.15.5-2.82,1.81-3.12A1.9,1.9,0,0,1,145.17,7.31Z" style="fill:none;stroke:#423c25;stroke-miterlimit:10;stroke-width:0.60077714920044px"/><path d="M130.51,20.84a.08.08,0,0,1,0,0l-7,3.87,3.65-6.12a.16.16,0,0,1,.14-.08l.08,0,3.1,2.17A.07.07,0,0,1,130.51,20.84Z" style="fill:none;stroke:#423c25;stroke-miterlimit:10;stroke-width:0.60077714920044px"/><path d="M136.5,23a.14.14,0,0,0,0,.1l4,6.33.24-7.55a.13.13,0,0,0,0-.09.12.12,0,0,0-.12,0l-4,1.08A.17.17,0,0,0,136.5,23Z" style="fill:none;stroke:#423c25;stroke-miterlimit:10;stroke-width:0.60077714920044px"/><path d="M146.78,13.39h0L152.93,18l-7.4-.37a.09.09,0,0,1-.08-.05s0-.05,0-.07l1.3-4.14S146.77,13.39,146.78,13.39Z" style="fill:none;stroke:#423c25;stroke-miterlimit:10;stroke-width:0.60077714920044px"/><path d="M141.82,4.39l.05,0,6.42-2.82-2.92,5.54a.22.22,0,0,1-.2.12.19.19,0,0,1-.14-.05l-3.18-2.6A.11.11,0,0,1,141.82,4.39Z" style="fill:none;stroke:#423c25;stroke-miterlimit:10;stroke-width:0.60077714920044px"/><path d="M135.64,2.5a.21.21,0,0,0,0-.15l-3.32-6-.73,7.26a.25.25,0,0,0,0,.08.16.16,0,0,0,.19.08l3.74-1.17A.2.2,0,0,0,135.64,2.5Z" style="fill:none;stroke:#423c25;stroke-miterlimit:10;stroke-width:0.60077714920044px"/><path d="M126,12.29a.15.15,0,0,1-.13,0l-6.5-4,7.7.15h.07a.14.14,0,0,1,.07.18l-1.13,3.61A.14.14,0,0,1,126,12.29Z" style="fill:none;stroke:#423c25;stroke-miterlimit:10;stroke-width:0.60077714920044px"/><path d="M137.65,11.36a2.32,2.32,0,1,1-3.27.29A2.3,2.3,0,0,1,137.65,11.36Z" style="fill:none;stroke:#423c25;stroke-miterlimit:10;stroke-width:0.60077714920044px"/><path d="M159,20l-13.4-.64a2.75,2.75,0,0,0-.2-1.76l0,0a.09.09,0,0,0,.08.05l7.4.37-6.13-4.65h0v0a2.76,2.76,0,0,0,1.51-1Z" style="fill:#fff"/><path d="M153.54-3.66,146.81,8a2.8,2.8,0,0,0-1.64-.64V7.19a.22.22,0,0,0,.2-.12l2.92-5.54-6.42,2.82-.05,0-.1,0a2.6,2.6,0,0,0-.14-1.81Z" style="fill:#fff"/><path d="M152.93,18l-7.4-.37a.09.09,0,0,1-.08-.05s0-.05,0-.07l1.3-4.14s0,0,0,0h0Z" style="fill:#423c25"/><path d="M148.29,1.53l-2.92,5.54a.22.22,0,0,1-.2.12.19.19,0,0,1-.14-.05l-3.18-2.6a.11.11,0,0,1,0-.15l.05,0Z" style="fill:#423c25"/><path d="M146.78,13.36v0s0,0,0,0l-1.3,4.14s0,0,0,.07l0,0a1.66,1.66,0,0,0-.22-.32c-.87-1-2.6-.75-3.6-.17-.12.06-2.05,1.21-1.7,3a2.35,2.35,0,0,0,.92,1.52l-.05.07a.12.12,0,0,0-.12,0l-4,1.08a.17.17,0,0,0-.12.16l-.12,0c.27-1.27-.93-2.49-2-3-.12,0-2.17-1-3.45.36a2.14,2.14,0,0,0-.39.55l-.07,0a.07.07,0,0,0,0-.1l-3.1-2.17-.08,0v-.08l.3,0c1.31-.29,1.88-1.94,1.85-3.1,0-.13-.1-2.38-1.85-2.92a2.86,2.86,0,0,0-1.56-.05l0-.08a.14.14,0,0,0,.08-.1l1.13-3.61a.14.14,0,0,0-.07-.18l.06-.09c1,.77,2.53.39,3.43-.21.11-.08,2-1.35,1.5-3.13a2.57,2.57,0,0,0-.67-1.17l.09-.09a.16.16,0,0,0,.19.08l3.74-1.17a.2.2,0,0,0,.13-.12l.1,0-.08.2c-.41,1.28.75,2.6,1.76,3.15.12.06,2.12,1.09,3.47-.16a3,3,0,0,0,.83-1.37l.1,0a.11.11,0,0,0,0,.15L145,7.14a.19.19,0,0,0,.14.05v.12a1.9,1.9,0,0,0-.4.05c-1.31.3-1.86,2-1.81,3.12,0,.14.14,2.38,1.9,2.89A3.58,3.58,0,0,0,146.78,13.36Zm-8.84,1.26a2.32,2.32,0,1,0-3.26.3A2.3,2.3,0,0,0,137.94,14.62Z" style="fill:#423c25"/><path d="M142.1,22.42V35.88l-7.2-11.32A2.61,2.61,0,0,0,136.36,23l0-.08.12,0a.14.14,0,0,0,0,.1l4,6.33.24-7.55a.13.13,0,0,0,0-.09l.05-.07a2.81,2.81,0,0,0,1.3.49Z" style="fill:#fff"/><path d="M140.79,21.84l-.24,7.55-4-6.33a.14.14,0,0,1,0-.1.17.17,0,0,1,.12-.16l4-1.08a.12.12,0,0,1,.12,0A.13.13,0,0,1,140.79,21.84Z" style="fill:#423c25"/><path d="M137.65,11.36a2.32,2.32,0,1,1-3.27.29A2.3,2.3,0,0,1,137.65,11.36Z" style="fill:#fff"/><path d="M130.66-10.42l6.55,11.71a2.71,2.71,0,0,0-1.47,1.26l-.1,0a.21.21,0,0,0,0-.15l-3.32-6-.73,7.26a.25.25,0,0,0,0,.08l-.09.09a2.82,2.82,0,0,0-1.77-.72Z" style="fill:#fff"/><path d="M135.62,2.35a.21.21,0,0,1,0,.15.2.2,0,0,1-.13.12l-3.74,1.17a.16.16,0,0,1-.19-.08.25.25,0,0,1,0-.08l.73-7.26Z" style="fill:#423c25"/><path d="M130.75,23.2l-12.09,6.11,6.91-11.49a2.77,2.77,0,0,0,1.74.65v.08a.16.16,0,0,0-.14.08l-3.65,6.12,7-3.87a.08.08,0,0,0,0,0l.07,0a1.28,1.28,0,0,0-.18.44A2.68,2.68,0,0,0,130.75,23.2Z" style="fill:#fff"/><path d="M130.49,20.74a.07.07,0,0,1,0,.1.08.08,0,0,1,0,0l-7,3.87,3.65-6.12a.16.16,0,0,1,.14-.08l.08,0Z" style="fill:#423c25"/><path d="M127.17,8.4a.14.14,0,0,1,.07.18l-1.13,3.61a.14.14,0,0,1-.08.1.15.15,0,0,1-.13,0l-6.5-4,7.7.15Z" style="fill:#423c25"/><path d="M127.23,8.31l-.06.09h-.07l-7.7-.15,6.5,4a.15.15,0,0,0,.13,0l0,.08a2.6,2.6,0,0,0-1.49,1l-11.47-7L126.5,6.1a2.59,2.59,0,0,0,.55,2.06Z" style="fill:#fff"/><path d="M145.17,7.31a2.8,2.8,0,0,1,1.64.64l6.73-11.61-12,6.22a2.6,2.6,0,0,1,.14,1.81,3,3,0,0,1-.83,1.37c-1.35,1.25-3.35.22-3.47.16-1-.55-2.17-1.87-1.76-3.15l.08-.2a2.71,2.71,0,0,1,1.47-1.26l-6.55-11.71-.94,13.5a2.82,2.82,0,0,1,1.77.72A2.57,2.57,0,0,1,132.16,5c.47,1.78-1.39,3.05-1.5,3.13-.9.6-2.47,1-3.43.21l-.18-.15a2.59,2.59,0,0,1-.55-2.06l-13.41.24,11.47,7.05a2.6,2.6,0,0,1,1.49-1,2.86,2.86,0,0,1,1.56.05c1.75.54,1.85,2.79,1.85,2.92,0,1.16-.54,2.81-1.85,3.1l-.3,0a2.77,2.77,0,0,1-1.74-.65l-6.91,11.49,12.09-6.11a2.68,2.68,0,0,1-.35-1.88,1.28,1.28,0,0,1,.18-.44,2.14,2.14,0,0,1,.39-.55c1.28-1.33,3.33-.41,3.45-.36,1,.48,2.23,1.7,2,3l0,.08a2.61,2.61,0,0,1-1.46,1.54l7.2,11.32V22.17a2.81,2.81,0,0,1-1.3-.49,2.35,2.35,0,0,1-.92-1.52c-.35-1.8,1.58-2.95,1.7-3,1-.58,2.73-.86,3.6.17a1.66,1.66,0,0,1,.22.32,2.75,2.75,0,0,1,.2,1.76L159,20l-10.71-7.68a2.76,2.76,0,0,1-1.51,1,3.58,3.58,0,0,1-1.92,0c-1.76-.51-1.89-2.75-1.9-2.89-.05-1.15.5-2.82,1.81-3.12A1.9,1.9,0,0,1,145.17,7.31Z" style="fill:none;stroke:#423c25;stroke-miterlimit:10;stroke-width:0.60077714920044px"/><path d="M130.51,20.84a.08.08,0,0,1,0,0l-7,3.87,3.65-6.12a.16.16,0,0,1,.14-.08l.08,0,3.1,2.17A.07.07,0,0,1,130.51,20.84Z" style="fill:none;stroke:#423c25;stroke-miterlimit:10;stroke-width:0.60077714920044px"/><path d="M136.5,23a.14.14,0,0,0,0,.1l4,6.33.24-7.55a.13.13,0,0,0,0-.09.12.12,0,0,0-.12,0l-4,1.08A.17.17,0,0,0,136.5,23Z" style="fill:none;stroke:#423c25;stroke-miterlimit:10;stroke-width:0.60077714920044px"/><path d="M146.78,13.39h0L152.93,18l-7.4-.37a.09.09,0,0,1-.08-.05s0-.05,0-.07l1.3-4.14S146.77,13.39,146.78,13.39Z" style="fill:none;stroke:#423c25;stroke-miterlimit:10;stroke-width:0.60077714920044px"/><path d="M141.82,4.39l.05,0,6.42-2.82-2.92,5.54a.22.22,0,0,1-.2.12.19.19,0,0,1-.14-.05l-3.18-2.6A.11.11,0,0,1,141.82,4.39Z" style="fill:none;stroke:#423c25;stroke-miterlimit:10;stroke-width:0.60077714920044px"/><path d="M135.64,2.5a.21.21,0,0,0,0-.15l-3.32-6-.73,7.26a.25.25,0,0,0,0,.08.16.16,0,0,0,.19.08l3.74-1.17A.2.2,0,0,0,135.64,2.5Z" style="fill:none;stroke:#423c25;stroke-miterlimit:10;stroke-width:0.60077714920044px"/><path d="M126,12.29a.15.15,0,0,1-.13,0l-6.5-4,7.7.15h.07a.14.14,0,0,1,.07.18l-1.13,3.61A.14.14,0,0,1,126,12.29Z" style="fill:none;stroke:#423c25;stroke-miterlimit:10;stroke-width:0.60077714920044px"/><path d="M137.65,11.36a2.32,2.32,0,1,1-3.27.29A2.3,2.3,0,0,1,137.65,11.36Z" style="fill:none;stroke:#423c25;stroke-miterlimit:10;stroke-width:0.60077714920044px"/><path d="M159,20l-13.4-.64a2.75,2.75,0,0,0-.2-1.76l0,0a.09.09,0,0,0,.08.05l7.4.37-6.13-4.65h0v0a2.76,2.76,0,0,0,1.51-1Z" style="fill:#fff"/><path d="M153.54-3.66,146.81,8a2.8,2.8,0,0,0-1.64-.64V7.19a.22.22,0,0,0,.2-.12l2.92-5.54-6.42,2.82-.05,0-.1,0a2.6,2.6,0,0,0-.14-1.81Z" style="fill:#fff"/><path d="M152.93,18l-7.4-.37a.09.09,0,0,1-.08-.05s0-.05,0-.07l1.3-4.14s0,0,0,0h0Z" style="fill:#423c25"/><path d="M148.29,1.53l-2.92,5.54a.22.22,0,0,1-.2.12.19.19,0,0,1-.14-.05l-3.18-2.6a.11.11,0,0,1,0-.15l.05,0Z" style="fill:#423c25"/><path d="M146.78,13.36v0s0,0,0,0l-1.3,4.14s0,0,0,.07l0,0a1.66,1.66,0,0,0-.22-.32c-.87-1-2.6-.75-3.6-.17-.12.06-2.05,1.21-1.7,3a2.35,2.35,0,0,0,.92,1.52l-.05.07a.12.12,0,0,0-.12,0l-4,1.08a.17.17,0,0,0-.12.16l-.12,0c.27-1.27-.93-2.49-2-3-.12,0-2.17-1-3.45.36a2.14,2.14,0,0,0-.39.55l-.07,0a.07.07,0,0,0,0-.1l-3.1-2.17-.08,0v-.08l.3,0c1.31-.29,1.88-1.94,1.85-3.1,0-.13-.1-2.38-1.85-2.92a2.86,2.86,0,0,0-1.56-.05l0-.08a.14.14,0,0,0,.08-.1l1.13-3.61a.14.14,0,0,0-.07-.18l.06-.09c1,.77,2.53.39,3.43-.21.11-.08,2-1.35,1.5-3.13a2.57,2.57,0,0,0-.67-1.17l.09-.09a.16.16,0,0,0,.19.08l3.74-1.17a.2.2,0,0,0,.13-.12l.1,0-.08.2c-.41,1.28.75,2.6,1.76,3.15.12.06,2.12,1.09,3.47-.16a3,3,0,0,0,.83-1.37l.1,0a.11.11,0,0,0,0,.15L145,7.14a.19.19,0,0,0,.14.05v.12a1.9,1.9,0,0,0-.4.05c-1.31.3-1.86,2-1.81,3.12,0,.14.14,2.38,1.9,2.89A3.58,3.58,0,0,0,146.78,13.36Zm-8.84,1.26a2.32,2.32,0,1,0-3.26.3A2.3,2.3,0,0,0,137.94,14.62Z" style="fill:#423c25"/><path d="M142.1,22.42V35.88l-7.2-11.32A2.61,2.61,0,0,0,136.36,23l0-.08.12,0a.14.14,0,0,0,0,.1l4,6.33.24-7.55a.13.13,0,0,0,0-.09l.05-.07a2.81,2.81,0,0,0,1.3.49Z" style="fill:#fff"/><path d="M140.79,21.84l-.24,7.55-4-6.33a.14.14,0,0,1,0-.1.17.17,0,0,1,.12-.16l4-1.08a.12.12,0,0,1,.12,0A.13.13,0,0,1,140.79,21.84Z" style="fill:#423c25"/><path d="M137.65,11.36a2.32,2.32,0,1,1-3.27.29A2.3,2.3,0,0,1,137.65,11.36Z" style="fill:#fff"/><path d="M130.66-10.42l6.55,11.71a2.71,2.71,0,0,0-1.47,1.26l-.1,0a.21.21,0,0,0,0-.15l-3.32-6-.73,7.26a.25.25,0,0,0,0,.08l-.09.09a2.82,2.82,0,0,0-1.77-.72Z" style="fill:#fff"/><path d="M135.62,2.35a.21.21,0,0,1,0,.15.2.2,0,0,1-.13.12l-3.74,1.17a.16.16,0,0,1-.19-.08.25.25,0,0,1,0-.08l.73-7.26Z" style="fill:#423c25"/><path d="M130.75,23.2l-12.09,6.11,6.91-11.49a2.77,2.77,0,0,0,1.74.65v.08a.16.16,0,0,0-.14.08l-3.65,6.12,7-3.87a.08.08,0,0,0,0,0l.07,0a1.28,1.28,0,0,0-.18.44A2.68,2.68,0,0,0,130.75,23.2Z" style="fill:#fff"/><path d="M130.49,20.74a.07.07,0,0,1,0,.1.08.08,0,0,1,0,0l-7,3.87,3.65-6.12a.16.16,0,0,1,.14-.08l.08,0Z" style="fill:#423c25"/><path d="M127.17,8.4a.14.14,0,0,1,.07.18l-1.13,3.61a.14.14,0,0,1-.08.1.15.15,0,0,1-.13,0l-6.5-4,7.7.15Z" style="fill:#423c25"/><path d="M127.23,8.31l-.06.09h-.07l-7.7-.15,6.5,4a.15.15,0,0,0,.13,0l0,.08a2.6,2.6,0,0,0-1.49,1l-11.47-7L126.5,6.1a2.59,2.59,0,0,0,.55,2.06Z" style="fill:#fff"/><path d="M145.17,7.31a2.8,2.8,0,0,1,1.64.64l6.73-11.61-12,6.22a2.6,2.6,0,0,1,.14,1.81,3,3,0,0,1-.83,1.37c-1.35,1.25-3.35.22-3.47.16-1-.55-2.17-1.87-1.76-3.15l.08-.2a2.71,2.71,0,0,1,1.47-1.26l-6.55-11.71-.94,13.5a2.82,2.82,0,0,1,1.77.72A2.57,2.57,0,0,1,132.16,5c.47,1.78-1.39,3.05-1.5,3.13-.9.6-2.47,1-3.43.21l-.18-.15a2.59,2.59,0,0,1-.55-2.06l-13.41.24,11.47,7.05a2.6,2.6,0,0,1,1.49-1,2.86,2.86,0,0,1,1.56.05c1.75.54,1.85,2.79,1.85,2.92,0,1.16-.54,2.81-1.85,3.1l-.3,0a2.77,2.77,0,0,1-1.74-.65l-6.91,11.49,12.09-6.11a2.68,2.68,0,0,1-.35-1.88,1.28,1.28,0,0,1,.18-.44,2.14,2.14,0,0,1,.39-.55c1.28-1.33,3.33-.41,3.45-.36,1,.48,2.23,1.7,2,3l0,.08a2.61,2.61,0,0,1-1.46,1.54l7.2,11.32V22.17a2.81,2.81,0,0,1-1.3-.49,2.35,2.35,0,0,1-.92-1.52c-.35-1.8,1.58-2.95,1.7-3,1-.58,2.73-.86,3.6.17a1.66,1.66,0,0,1,.22.32,2.75,2.75,0,0,1,.2,1.76L159,20l-10.71-7.68a2.76,2.76,0,0,1-1.51,1,3.58,3.58,0,0,1-1.92,0c-1.76-.51-1.89-2.75-1.9-2.89-.05-1.15.5-2.82,1.81-3.12A1.9,1.9,0,0,1,145.17,7.31Z" style="fill:none;stroke:#423c25;stroke-miterlimit:10;stroke-width:0.60077714920044px"/><path d="M130.51,20.84a.08.08,0,0,1,0,0l-7,3.87,3.65-6.12a.16.16,0,0,1,.14-.08l.08,0,3.1,2.17A.07.07,0,0,1,130.51,20.84Z" style="fill:none;stroke:#423c25;stroke-miterlimit:10;stroke-width:0.60077714920044px"/><path d="M136.5,23a.14.14,0,0,0,0,.1l4,6.33.24-7.55a.13.13,0,0,0,0-.09.12.12,0,0,0-.12,0l-4,1.08A.17.17,0,0,0,136.5,23Z" style="fill:none;stroke:#423c25;stroke-miterlimit:10;stroke-width:0.60077714920044px"/><path d="M146.78,13.39h0L152.93,18l-7.4-.37a.09.09,0,0,1-.08-.05s0-.05,0-.07l1.3-4.14S146.77,13.39,146.78,13.39Z" style="fill:none;stroke:#423c25;stroke-miterlimit:10;stroke-width:0.60077714920044px"/><path d="M141.82,4.39l.05,0,6.42-2.82-2.92,5.54a.22.22,0,0,1-.2.12.19.19,0,0,1-.14-.05l-3.18-2.6A.11.11,0,0,1,141.82,4.39Z" style="fill:none;stroke:#423c25;stroke-miterlimit:10;stroke-width:0.60077714920044px"/><path d="M135.64,2.5a.21.21,0,0,0,0-.15l-3.32-6-.73,7.26a.25.25,0,0,0,0,.08.16.16,0,0,0,.19.08l3.74-1.17A.2.2,0,0,0,135.64,2.5Z" style="fill:none;stroke:#423c25;stroke-miterlimit:10;stroke-width:0.60077714920044px"/><path d="M126,12.29a.15.15,0,0,1-.13,0l-6.5-4,7.7.15h.07a.14.14,0,0,1,.07.18l-1.13,3.61A.14.14,0,0,1,126,12.29Z" style="fill:none;stroke:#423c25;stroke-miterlimit:10;stroke-width:0.60077714920044px"/><path d="M137.65,11.36a2.32,2.32,0,1,1-3.27.29A2.3,2.3,0,0,1,137.65,11.36Z" style="fill:none;stroke:#423c25;stroke-miterlimit:10;stroke-width:0.60077714920044px"/><path d="M159,20l-13.4-.64a2.75,2.75,0,0,0-.2-1.76l0,0a.09.09,0,0,0,.08.05l7.4.37-6.13-4.65h0v0a2.76,2.76,0,0,0,1.51-1Z" style="fill:#fff"/><path d="M153.54-3.66,146.81,8a2.8,2.8,0,0,0-1.64-.64V7.19a.22.22,0,0,0,.2-.12l2.92-5.54-6.42,2.82-.05,0-.1,0a2.6,2.6,0,0,0-.14-1.81Z" style="fill:#fff"/><path d="M152.93,18l-7.4-.37a.09.09,0,0,1-.08-.05s0-.05,0-.07l1.3-4.14s0,0,0,0h0Z" style="fill:#423c25"/><path d="M148.29,1.53l-2.92,5.54a.22.22,0,0,1-.2.12.19.19,0,0,1-.14-.05l-3.18-2.6a.11.11,0,0,1,0-.15l.05,0Z" style="fill:#423c25"/><path d="M146.78,13.36v0s0,0,0,0l-1.3,4.14s0,0,0,.07l0,0a1.66,1.66,0,0,0-.22-.32c-.87-1-2.6-.75-3.6-.17-.12.06-2.05,1.21-1.7,3a2.35,2.35,0,0,0,.92,1.52l-.05.07a.12.12,0,0,0-.12,0l-4,1.08a.17.17,0,0,0-.12.16l-.12,0c.27-1.27-.93-2.49-2-3-.12,0-2.17-1-3.45.36a2.14,2.14,0,0,0-.39.55l-.07,0a.07.07,0,0,0,0-.1l-3.1-2.17-.08,0v-.08l.3,0c1.31-.29,1.88-1.94,1.85-3.1,0-.13-.1-2.38-1.85-2.92a2.86,2.86,0,0,0-1.56-.05l0-.08a.14.14,0,0,0,.08-.1l1.13-3.61a.14.14,0,0,0-.07-.18l.06-.09c1,.77,2.53.39,3.43-.21.11-.08,2-1.35,1.5-3.13a2.57,2.57,0,0,0-.67-1.17l.09-.09a.16.16,0,0,0,.19.08l3.74-1.17a.2.2,0,0,0,.13-.12l.1,0-.08.2c-.41,1.28.75,2.6,1.76,3.15.12.06,2.12,1.09,3.47-.16a3,3,0,0,0,.83-1.37l.1,0a.11.11,0,0,0,0,.15L145,7.14a.19.19,0,0,0,.14.05v.12a1.9,1.9,0,0,0-.4.05c-1.31.3-1.86,2-1.81,3.12,0,.14.14,2.38,1.9,2.89A3.58,3.58,0,0,0,146.78,13.36Zm-8.84,1.26a2.32,2.32,0,1,0-3.26.3A2.3,2.3,0,0,0,137.94,14.62Z" style="fill:#423c25"/><path d="M142.1,22.42V35.88l-7.2-11.32A2.61,2.61,0,0,0,136.36,23l0-.08.12,0a.14.14,0,0,0,0,.1l4,6.33.24-7.55a.13.13,0,0,0,0-.09l.05-.07a2.81,2.81,0,0,0,1.3.49Z" style="fill:#fff"/><path d="M140.79,21.84l-.24,7.55-4-6.33a.14.14,0,0,1,0-.1.17.17,0,0,1,.12-.16l4-1.08a.12.12,0,0,1,.12,0A.13.13,0,0,1,140.79,21.84Z" style="fill:#423c25"/><path d="M137.65,11.36a2.32,2.32,0,1,1-3.27.29A2.3,2.3,0,0,1,137.65,11.36Z" style="fill:#fff"/><path d="M130.66-10.42l6.55,11.71a2.71,2.71,0,0,0-1.47,1.26l-.1,0a.21.21,0,0,0,0-.15l-3.32-6-.73,7.26a.25.25,0,0,0,0,.08l-.09.09a2.82,2.82,0,0,0-1.77-.72Z" style="fill:#fff"/><path d="M135.62,2.35a.21.21,0,0,1,0,.15.2.2,0,0,1-.13.12l-3.74,1.17a.16.16,0,0,1-.19-.08.25.25,0,0,1,0-.08l.73-7.26Z" style="fill:#423c25"/><path d="M130.75,23.2l-12.09,6.11,6.91-11.49a2.77,2.77,0,0,0,1.74.65v.08a.16.16,0,0,0-.14.08l-3.65,6.12,7-3.87a.08.08,0,0,0,0,0l.07,0a1.28,1.28,0,0,0-.18.44A2.68,2.68,0,0,0,130.75,23.2Z" style="fill:#fff"/><path d="M130.49,20.74a.07.07,0,0,1,0,.1.08.08,0,0,1,0,0l-7,3.87,3.65-6.12a.16.16,0,0,1,.14-.08l.08,0Z" style="fill:#423c25"/><path d="M127.17,8.4a.14.14,0,0,1,.07.18l-1.13,3.61a.14.14,0,0,1-.08.1.15.15,0,0,1-.13,0l-6.5-4,7.7.15Z" style="fill:#423c25"/><path d="M127.23,8.31l-.06.09h-.07l-7.7-.15,6.5,4a.15.15,0,0,0,.13,0l0,.08a2.6,2.6,0,0,0-1.49,1l-11.47-7L126.5,6.1a2.59,2.59,0,0,0,.55,2.06Z" style="fill:#fff"/><path d="M145.17,7.31a2.8,2.8,0,0,1,1.64.64l6.73-11.61-12,6.22a2.6,2.6,0,0,1,.14,1.81,3,3,0,0,1-.83,1.37c-1.35,1.25-3.35.22-3.47.16-1-.55-2.17-1.87-1.76-3.15l.08-.2a2.71,2.71,0,0,1,1.47-1.26l-6.55-11.71-.94,13.5a2.82,2.82,0,0,1,1.77.72A2.57,2.57,0,0,1,132.16,5c.47,1.78-1.39,3.05-1.5,3.13-.9.6-2.47,1-3.43.21l-.18-.15a2.59,2.59,0,0,1-.55-2.06l-13.41.24,11.47,7.05a2.6,2.6,0,0,1,1.49-1,2.86,2.86,0,0,1,1.56.05c1.75.54,1.85,2.79,1.85,2.92,0,1.16-.54,2.81-1.85,3.1l-.3,0a2.77,2.77,0,0,1-1.74-.65l-6.91,11.49,12.09-6.11a2.68,2.68,0,0,1-.35-1.88,1.28,1.28,0,0,1,.18-.44,2.14,2.14,0,0,1,.39-.55c1.28-1.33,3.33-.41,3.45-.36,1,.48,2.23,1.7,2,3l0,.08a2.61,2.61,0,0,1-1.46,1.54l7.2,11.32V22.17a2.81,2.81,0,0,1-1.3-.49,2.35,2.35,0,0,1-.92-1.52c-.35-1.8,1.58-2.95,1.7-3,1-.58,2.73-.86,3.6.17a1.66,1.66,0,0,1,.22.32,2.75,2.75,0,0,1,.2,1.76L159,20l-10.71-7.68a2.76,2.76,0,0,1-1.51,1,3.58,3.58,0,0,1-1.92,0c-1.76-.51-1.89-2.75-1.9-2.89-.05-1.15.5-2.82,1.81-3.12A1.9,1.9,0,0,1,145.17,7.31Z" style="fill:none;stroke:#423c25;stroke-miterlimit:10;stroke-width:0.60077714920044px"/><path d="M130.51,20.84a.08.08,0,0,1,0,0l-7,3.87,3.65-6.12a.16.16,0,0,1,.14-.08l.08,0,3.1,2.17A.07.07,0,0,1,130.51,20.84Z" style="fill:none;stroke:#423c25;stroke-miterlimit:10;stroke-width:0.60077714920044px"/><path d="M136.5,23a.14.14,0,0,0,0,.1l4,6.33.24-7.55a.13.13,0,0,0,0-.09.12.12,0,0,0-.12,0l-4,1.08A.17.17,0,0,0,136.5,23Z" style="fill:none;stroke:#423c25;stroke-miterlimit:10;stroke-width:0.60077714920044px"/><path d="M146.78,13.39h0L152.93,18l-7.4-.37a.09.09,0,0,1-.08-.05s0-.05,0-.07l1.3-4.14S146.77,13.39,146.78,13.39Z" style="fill:none;stroke:#423c25;stroke-miterlimit:10;stroke-width:0.60077714920044px"/><path d="M141.82,4.39l.05,0,6.42-2.82-2.92,5.54a.22.22,0,0,1-.2.12.19.19,0,0,1-.14-.05l-3.18-2.6A.11.11,0,0,1,141.82,4.39Z" style="fill:none;stroke:#423c25;stroke-miterlimit:10;stroke-width:0.60077714920044px"/><path d="M135.64,2.5a.21.21,0,0,0,0-.15l-3.32-6-.73,7.26a.25.25,0,0,0,0,.08.16.16,0,0,0,.19.08l3.74-1.17A.2.2,0,0,0,135.64,2.5Z" style="fill:none;stroke:#423c25;stroke-miterlimit:10;stroke-width:0.60077714920044px"/><path d="M126,12.29a.15.15,0,0,1-.13,0l-6.5-4,7.7.15h.07a.14.14,0,0,1,.07.18l-1.13,3.61A.14.14,0,0,1,126,12.29Z" style="fill:none;stroke:#423c25;stroke-miterlimit:10;stroke-width:0.60077714920044px"/><path d="M137.65,11.36a2.32,2.32,0,1,1-3.27.29A2.3,2.3,0,0,1,137.65,11.36Z" style="fill:none;stroke:#423c25;stroke-miterlimit:10;stroke-width:0.60077714920044px"/><path d="M159,20l-13.4-.64a2.75,2.75,0,0,0-.2-1.76l0,0a.09.09,0,0,0,.08.05l7.4.37-6.13-4.65h0v0a2.76,2.76,0,0,0,1.51-1Z" style="fill:#fff"/><path d="M153.54-3.66,146.81,8a2.8,2.8,0,0,0-1.64-.64V7.19a.22.22,0,0,0,.2-.12l2.92-5.54-6.42,2.82-.05,0-.1,0a2.6,2.6,0,0,0-.14-1.81Z" style="fill:#fff"/><path d="M152.93,18l-7.4-.37a.09.09,0,0,1-.08-.05s0-.05,0-.07l1.3-4.14s0,0,0,0h0Z" style="fill:#423c25"/><path d="M148.29,1.53l-2.92,5.54a.22.22,0,0,1-.2.12.19.19,0,0,1-.14-.05l-3.18-2.6a.11.11,0,0,1,0-.15l.05,0Z" style="fill:#423c25"/><path d="M146.78,13.36v0s0,0,0,0l-1.3,4.14s0,0,0,.07l0,0a1.66,1.66,0,0,0-.22-.32c-.87-1-2.6-.75-3.6-.17-.12.06-2.05,1.21-1.7,3a2.35,2.35,0,0,0,.92,1.52l-.05.07a.12.12,0,0,0-.12,0l-4,1.08a.17.17,0,0,0-.12.16l-.12,0c.27-1.27-.93-2.49-2-3-.12,0-2.17-1-3.45.36a2.14,2.14,0,0,0-.39.55l-.07,0a.07.07,0,0,0,0-.1l-3.1-2.17-.08,0v-.08l.3,0c1.31-.29,1.88-1.94,1.85-3.1,0-.13-.1-2.38-1.85-2.92a2.86,2.86,0,0,0-1.56-.05l0-.08a.14.14,0,0,0,.08-.1l1.13-3.61a.14.14,0,0,0-.07-.18l.06-.09c1,.77,2.53.39,3.43-.21.11-.08,2-1.35,1.5-3.13a2.57,2.57,0,0,0-.67-1.17l.09-.09a.16.16,0,0,0,.19.08l3.74-1.17a.2.2,0,0,0,.13-.12l.1,0-.08.2c-.41,1.28.75,2.6,1.76,3.15.12.06,2.12,1.09,3.47-.16a3,3,0,0,0,.83-1.37l.1,0a.11.11,0,0,0,0,.15L145,7.14a.19.19,0,0,0,.14.05v.12a1.9,1.9,0,0,0-.4.05c-1.31.3-1.86,2-1.81,3.12,0,.14.14,2.38,1.9,2.89A3.58,3.58,0,0,0,146.78,13.36Zm-8.84,1.26a2.32,2.32,0,1,0-3.26.3A2.3,2.3,0,0,0,137.94,14.62Z" style="fill:#423c25"/><path d="M142.1,22.42V35.88l-7.2-11.32A2.61,2.61,0,0,0,136.36,23l0-.08.12,0a.14.14,0,0,0,0,.1l4,6.33.24-7.55a.13.13,0,0,0,0-.09l.05-.07a2.81,2.81,0,0,0,1.3.49Z" style="fill:#fff"/><path d="M140.79,21.84l-.24,7.55-4-6.33a.14.14,0,0,1,0-.1.17.17,0,0,1,.12-.16l4-1.08a.12.12,0,0,1,.12,0A.13.13,0,0,1,140.79,21.84Z" style="fill:#423c25"/><path d="M137.65,11.36a2.32,2.32,0,1,1-3.27.29A2.3,2.3,0,0,1,137.65,11.36Z" style="fill:#fff"/><path d="M130.66-10.42l6.55,11.71a2.71,2.71,0,0,0-1.47,1.26l-.1,0a.21.21,0,0,0,0-.15l-3.32-6-.73,7.26a.25.25,0,0,0,0,.08l-.09.09a2.82,2.82,0,0,0-1.77-.72Z" style="fill:#fff"/><path d="M135.62,2.35a.21.21,0,0,1,0,.15.2.2,0,0,1-.13.12l-3.74,1.17a.16.16,0,0,1-.19-.08.25.25,0,0,1,0-.08l.73-7.26Z" style="fill:#423c25"/><path d="M130.75,23.2l-12.09,6.11,6.91-11.49a2.77,2.77,0,0,0,1.74.65v.08a.16.16,0,0,0-.14.08l-3.65,6.12,7-3.87a.08.08,0,0,0,0,0l.07,0a1.28,1.28,0,0,0-.18.44A2.68,2.68,0,0,0,130.75,23.2Z" style="fill:#fff"/><path d="M130.49,20.74a.07.07,0,0,1,0,.1.08.08,0,0,1,0,0l-7,3.87,3.65-6.12a.16.16,0,0,1,.14-.08l.08,0Z" style="fill:#423c25"/><path d="M127.17,8.4a.14.14,0,0,1,.07.18l-1.13,3.61a.14.14,0,0,1-.08.1.15.15,0,0,1-.13,0l-6.5-4,7.7.15Z" style="fill:#423c25"/><path d="M127.23,8.31l-.06.09h-.07l-7.7-.15,6.5,4a.15.15,0,0,0,.13,0l0,.08a2.6,2.6,0,0,0-1.49,1l-11.47-7L126.5,6.1a2.59,2.59,0,0,0,.55,2.06Z" style="fill:#fff"/><path d="M145.17,7.31a2.8,2.8,0,0,1,1.64.64l6.73-11.61-12,6.22a2.6,2.6,0,0,1,.14,1.81,3,3,0,0,1-.83,1.37c-1.35,1.25-3.35.22-3.47.16-1-.55-2.17-1.87-1.76-3.15l.08-.2a2.71,2.71,0,0,1,1.47-1.26l-6.55-11.71-.94,13.5a2.82,2.82,0,0,1,1.77.72A2.57,2.57,0,0,1,132.16,5c.47,1.78-1.39,3.05-1.5,3.13-.9.6-2.47,1-3.43.21l-.18-.15a2.59,2.59,0,0,1-.55-2.06l-13.41.24,11.47,7.05a2.6,2.6,0,0,1,1.49-1,2.86,2.86,0,0,1,1.56.05c1.75.54,1.85,2.79,1.85,2.92,0,1.16-.54,2.81-1.85,3.1l-.3,0a2.77,2.77,0,0,1-1.74-.65l-6.91,11.49,12.09-6.11a2.68,2.68,0,0,1-.35-1.88,1.28,1.28,0,0,1,.18-.44,2.14,2.14,0,0,1,.39-.55c1.28-1.33,3.33-.41,3.45-.36,1,.48,2.23,1.7,2,3l0,.08a2.61,2.61,0,0,1-1.46,1.54l7.2,11.32V22.17a2.81,2.81,0,0,1-1.3-.49,2.35,2.35,0,0,1-.92-1.52c-.35-1.8,1.58-2.95,1.7-3,1-.58,2.73-.86,3.6.17a1.66,1.66,0,0,1,.22.32,2.75,2.75,0,0,1,.2,1.76L159,20l-10.71-7.68a2.76,2.76,0,0,1-1.51,1,3.58,3.58,0,0,1-1.92,0c-1.76-.51-1.89-2.75-1.9-2.89-.05-1.15.5-2.82,1.81-3.12A1.9,1.9,0,0,1,145.17,7.31Z" style="fill:none;stroke:#423c25;stroke-miterlimit:10;stroke-width:0.60077714920044px"/><path d="M130.51,20.84a.08.08,0,0,1,0,0l-7,3.87,3.65-6.12a.16.16,0,0,1,.14-.08l.08,0,3.1,2.17A.07.07,0,0,1,130.51,20.84Z" style="fill:none;stroke:#423c25;stroke-miterlimit:10;stroke-width:0.60077714920044px"/><path d="M136.5,23a.14.14,0,0,0,0,.1l4,6.33.24-7.55a.13.13,0,0,0,0-.09.12.12,0,0,0-.12,0l-4,1.08A.17.17,0,0,0,136.5,23Z" style="fill:none;stroke:#423c25;stroke-miterlimit:10;stroke-width:0.60077714920044px"/><path d="M146.78,13.39h0L152.93,18l-7.4-.37a.09.09,0,0,1-.08-.05s0-.05,0-.07l1.3-4.14S146.77,13.39,146.78,13.39Z" style="fill:none;stroke:#423c25;stroke-miterlimit:10;stroke-width:0.60077714920044px"/><path d="M141.82,4.39l.05,0,6.42-2.82-2.92,5.54a.22.22,0,0,1-.2.12.19.19,0,0,1-.14-.05l-3.18-2.6A.11.11,0,0,1,141.82,4.39Z" style="fill:none;stroke:#423c25;stroke-miterlimit:10;stroke-width:0.60077714920044px"/><path d="M135.64,2.5a.21.21,0,0,0,0-.15l-3.32-6-.73,7.26a.25.25,0,0,0,0,.08.16.16,0,0,0,.19.08l3.74-1.17A.2.2,0,0,0,135.64,2.5Z" style="fill:none;stroke:#423c25;stroke-miterlimit:10;stroke-width:0.60077714920044px"/><path d="M126,12.29a.15.15,0,0,1-.13,0l-6.5-4,7.7.15h.07a.14.14,0,0,1,.07.18l-1.13,3.61A.14.14,0,0,1,126,12.29Z" style="fill:none;stroke:#423c25;stroke-miterlimit:10;stroke-width:0.60077714920044px"/><path d="M137.65,11.36a2.32,2.32,0,1,1-3.27.29A2.3,2.3,0,0,1,137.65,11.36Z" style="fill:none;stroke:#423c25;stroke-miterlimit:10;stroke-width:0.60077714920044px"/><path d="M159,20l-13.4-.64a2.75,2.75,0,0,0-.2-1.76l0,0a.09.09,0,0,0,.08.05l7.4.37-6.13-4.65h0v0a2.76,2.76,0,0,0,1.51-1Z" style="fill:#fff"/><path d="M153.54-3.66,146.81,8a2.8,2.8,0,0,0-1.64-.64V7.19a.22.22,0,0,0,.2-.12l2.92-5.54-6.42,2.82-.05,0-.1,0a2.6,2.6,0,0,0-.14-1.81Z" style="fill:#fff"/><path d="M152.93,18l-7.4-.37a.09.09,0,0,1-.08-.05s0-.05,0-.07l1.3-4.14s0,0,0,0h0Z" style="fill:#423c25"/><path d="M148.29,1.53l-2.92,5.54a.22.22,0,0,1-.2.12.19.19,0,0,1-.14-.05l-3.18-2.6a.11.11,0,0,1,0-.15l.05,0Z" style="fill:#423c25"/><path d="M146.78,13.36v0s0,0,0,0l-1.3,4.14s0,0,0,.07l0,0a1.66,1.66,0,0,0-.22-.32c-.87-1-2.6-.75-3.6-.17-.12.06-2.05,1.21-1.7,3a2.35,2.35,0,0,0,.92,1.52l-.05.07a.12.12,0,0,0-.12,0l-4,1.08a.17.17,0,0,0-.12.16l-.12,0c.27-1.27-.93-2.49-2-3-.12,0-2.17-1-3.45.36a2.14,2.14,0,0,0-.39.55l-.07,0a.07.07,0,0,0,0-.1l-3.1-2.17-.08,0v-.08l.3,0c1.31-.29,1.88-1.94,1.85-3.1,0-.13-.1-2.38-1.85-2.92a2.86,2.86,0,0,0-1.56-.05l0-.08a.14.14,0,0,0,.08-.1l1.13-3.61a.14.14,0,0,0-.07-.18l.06-.09c1,.77,2.53.39,3.43-.21.11-.08,2-1.35,1.5-3.13a2.57,2.57,0,0,0-.67-1.17l.09-.09a.16.16,0,0,0,.19.08l3.74-1.17a.2.2,0,0,0,.13-.12l.1,0-.08.2c-.41,1.28.75,2.6,1.76,3.15.12.06,2.12,1.09,3.47-.16a3,3,0,0,0,.83-1.37l.1,0a.11.11,0,0,0,0,.15L145,7.14a.19.19,0,0,0,.14.05v.12a1.9,1.9,0,0,0-.4.05c-1.31.3-1.86,2-1.81,3.12,0,.14.14,2.38,1.9,2.89A3.58,3.58,0,0,0,146.78,13.36Zm-8.84,1.26a2.32,2.32,0,1,0-3.26.3A2.3,2.3,0,0,0,137.94,14.62Z" style="fill:#423c25"/><path d="M142.1,22.42V35.88l-7.2-11.32A2.61,2.61,0,0,0,136.36,23l0-.08.12,0a.14.14,0,0,0,0,.1l4,6.33.24-7.55a.13.13,0,0,0,0-.09l.05-.07a2.81,2.81,0,0,0,1.3.49Z" style="fill:#fff"/><path d="M140.79,21.84l-.24,7.55-4-6.33a.14.14,0,0,1,0-.1.17.17,0,0,1,.12-.16l4-1.08a.12.12,0,0,1,.12,0A.13.13,0,0,1,140.79,21.84Z" style="fill:#423c25"/><path d="M137.65,11.36a2.32,2.32,0,1,1-3.27.29A2.3,2.3,0,0,1,137.65,11.36Z" style="fill:#fff"/><path d="M130.66-10.42l6.55,11.71a2.71,2.71,0,0,0-1.47,1.26l-.1,0a.21.21,0,0,0,0-.15l-3.32-6-.73,7.26a.25.25,0,0,0,0,.08l-.09.09a2.82,2.82,0,0,0-1.77-.72Z" style="fill:#fff"/><path d="M135.62,2.35a.21.21,0,0,1,0,.15.2.2,0,0,1-.13.12l-3.74,1.17a.16.16,0,0,1-.19-.08.25.25,0,0,1,0-.08l.73-7.26Z" style="fill:#423c25"/><path d="M130.75,23.2l-12.09,6.11,6.91-11.49a2.77,2.77,0,0,0,1.74.65v.08a.16.16,0,0,0-.14.08l-3.65,6.12,7-3.87a.08.08,0,0,0,0,0l.07,0a1.28,1.28,0,0,0-.18.44A2.68,2.68,0,0,0,130.75,23.2Z" style="fill:#fff"/><path d="M130.49,20.74a.07.07,0,0,1,0,.1.08.08,0,0,1,0,0l-7,3.87,3.65-6.12a.16.16,0,0,1,.14-.08l.08,0Z" style="fill:#423c25"/><path d="M127.17,8.4a.14.14,0,0,1,.07.18l-1.13,3.61a.14.14,0,0,1-.08.1.15.15,0,0,1-.13,0l-6.5-4,7.7.15Z" style="fill:#423c25"/><path d="M127.23,8.31l-.06.09h-.07l-7.7-.15,6.5,4a.15.15,0,0,0,.13,0l0,.08a2.6,2.6,0,0,0-1.49,1l-11.47-7L126.5,6.1a2.59,2.59,0,0,0,.55,2.06Z" style="fill:#fff"/><path d="M145.17,7.31a2.8,2.8,0,0,1,1.64.64l6.73-11.61-12,6.22a2.6,2.6,0,0,1,.14,1.81,3,3,0,0,1-.83,1.37c-1.35,1.25-3.35.22-3.47.16-1-.55-2.17-1.87-1.76-3.15l.08-.2a2.71,2.71,0,0,1,1.47-1.26l-6.55-11.71-.94,13.5a2.82,2.82,0,0,1,1.77.72A2.57,2.57,0,0,1,132.16,5c.47,1.78-1.39,3.05-1.5,3.13-.9.6-2.47,1-3.43.21l-.18-.15a2.59,2.59,0,0,1-.55-2.06l-13.41.24,11.47,7.05a2.6,2.6,0,0,1,1.49-1,2.86,2.86,0,0,1,1.56.05c1.75.54,1.85,2.79,1.85,2.92,0,1.16-.54,2.81-1.85,3.1l-.3,0a2.77,2.77,0,0,1-1.74-.65l-6.91,11.49,12.09-6.11a2.68,2.68,0,0,1-.35-1.88,1.28,1.28,0,0,1,.18-.44,2.14,2.14,0,0,1,.39-.55c1.28-1.33,3.33-.41,3.45-.36,1,.48,2.23,1.7,2,3l0,.08a2.61,2.61,0,0,1-1.46,1.54l7.2,11.32V22.17a2.81,2.81,0,0,1-1.3-.49,2.35,2.35,0,0,1-.92-1.52c-.35-1.8,1.58-2.95,1.7-3,1-.58,2.73-.86,3.6.17a1.66,1.66,0,0,1,.22.32,2.75,2.75,0,0,1,.2,1.76L159,20l-10.71-7.68a2.76,2.76,0,0,1-1.51,1,3.58,3.58,0,0,1-1.92,0c-1.76-.51-1.89-2.75-1.9-2.89-.05-1.15.5-2.82,1.81-3.12A1.9,1.9,0,0,1,145.17,7.31Z" style="fill:none;stroke:#423c25;stroke-miterlimit:10;stroke-width:0.60077714920044px"/><path d="M130.51,20.84a.08.08,0,0,1,0,0l-7,3.87,3.65-6.12a.16.16,0,0,1,.14-.08l.08,0,3.1,2.17A.07.07,0,0,1,130.51,20.84Z" style="fill:none;stroke:#423c25;stroke-miterlimit:10;stroke-width:0.60077714920044px"/><path d="M136.5,23a.14.14,0,0,0,0,.1l4,6.33.24-7.55a.13.13,0,0,0,0-.09.12.12,0,0,0-.12,0l-4,1.08A.17.17,0,0,0,136.5,23Z" style="fill:none;stroke:#423c25;stroke-miterlimit:10;stroke-width:0.60077714920044px"/><path d="M146.78,13.39h0L152.93,18l-7.4-.37a.09.09,0,0,1-.08-.05s0-.05,0-.07l1.3-4.14S146.77,13.39,146.78,13.39Z" style="fill:none;stroke:#423c25;stroke-miterlimit:10;stroke-width:0.60077714920044px"/><path d="M141.82,4.39l.05,0,6.42-2.82-2.92,5.54a.22.22,0,0,1-.2.12.19.19,0,0,1-.14-.05l-3.18-2.6A.11.11,0,0,1,141.82,4.39Z" style="fill:none;stroke:#423c25;stroke-miterlimit:10;stroke-width:0.60077714920044px"/><path d="M135.64,2.5a.21.21,0,0,0,0-.15l-3.32-6-.73,7.26a.25.25,0,0,0,0,.08.16.16,0,0,0,.19.08l3.74-1.17A.2.2,0,0,0,135.64,2.5Z" style="fill:none;stroke:#423c25;stroke-miterlimit:10;stroke-width:0.60077714920044px"/><path d="M126,12.29a.15.15,0,0,1-.13,0l-6.5-4,7.7.15h.07a.14.14,0,0,1,.07.18l-1.13,3.61A.14.14,0,0,1,126,12.29Z" style="fill:none;stroke:#423c25;stroke-miterlimit:10;stroke-width:0.60077714920044px"/><path d="M137.65,11.36a2.32,2.32,0,1,1-3.27.29A2.3,2.3,0,0,1,137.65,11.36Z" style="fill:none;stroke:#423c25;stroke-miterlimit:10;stroke-width:0.60077714920044px"/></g></svg>