<svg xmlns="http://www.w3.org/2000/svg" width="125" height="80" viewBox="0 0 125 80"><g id="b8b72a77-d04b-4e31-8860-8010d90df8b0" data-name="icon VA vecto"><g id="a2e1ee7b-8d5d-4378-8f13-684aa2b2e941" data-name="barbare mots - copie 3"><rect x="0.18" y="-0.22" width="125" height="80" style="fill:#fff"/><path d="M129.16,18.4l-7.4-.36a.13.13,0,0,1-.09-.07v0l1.3-4.15a.05.05,0,0,1,0,0h0Z" style="fill:#423c25"/><path d="M124.51,1.89l-2.92,5.54a.23.23,0,0,1-.2.13.24.24,0,0,1-.14,0L118.07,4.9a.1.1,0,0,1,0-.14.1.1,0,0,1,0,0Z" style="fill:#423c25"/><path d="M123,13.72a2.66,2.66,0,0,0,1.51-1l10.71,7.67-13.4-.64a2.72,2.72,0,0,0-.2-1.75l0,0a.13.13,0,0,0,.09.07l7.4.36L123,13.76h0Z" style="fill:#fff"/><path d="M121.59,7.43l2.92-5.54-6.42,2.82a.1.1,0,0,0,0,0l-.11,0a2.58,2.58,0,0,0-.14-1.8l12-6.22L123,8.31a2.74,2.74,0,0,0-1.64-.63V7.56A.23.23,0,0,0,121.59,7.43Z" style="fill:#fff"/><path d="M117,22.11a.12.12,0,0,1,0,.1l-.24,7.54-4-6.33a.16.16,0,0,1,0-.15.15.15,0,0,1,.11-.11l4-1.08A.12.12,0,0,1,117,22.11Z" style="fill:#423c25"/><path d="M113.88,11.72a2.32,2.32,0,1,1-3.27.29A2.33,2.33,0,0,1,113.88,11.72Z" style="fill:#fff"/><path d="M117,22.05a2.87,2.87,0,0,0,1.3.48V36.24l-7.2-11.32a2.52,2.52,0,0,0,1.46-1.54l0-.13.13,0a.16.16,0,0,0,0,.15l4,6.33.24-7.54a.12.12,0,0,0,0-.1Z" style="fill:#fff"/><path d="M111.85,2.72a.16.16,0,0,1,0,.15.2.2,0,0,1-.12.12L108,4.16a.17.17,0,0,1-.2-.1.15.15,0,0,1,0-.07l.73-7.26Z" style="fill:#423c25"/><path d="M111.86,2.87a.16.16,0,0,0,0-.15l-3.33-6L107.79,4a.15.15,0,0,0,0,.07l-.09.1a2.77,2.77,0,0,0-1.77-.72l1-13.49,6.54,11.7A2.69,2.69,0,0,0,112,2.92Z" style="fill:#fff"/><path d="M106.71,21.1a.09.09,0,0,1,0,.11l0,0-7,3.87L103.4,19a.14.14,0,0,1,.13-.08.16.16,0,0,1,.09,0Z" style="fill:#423c25"/><path d="M103.4,19l-3.65,6.12,7-3.87,0,0,.05,0a2.35,2.35,0,0,0-.17.44,2.68,2.68,0,0,0,.35,1.88L94.89,29.68l6.9-11.5a2.84,2.84,0,0,0,1.73.66v.07A.14.14,0,0,0,103.4,19Z" style="fill:#fff"/><path d="M102.25,12.65a.15.15,0,0,0,.09-.1l1.13-3.61a.14.14,0,0,0,0-.15l.07-.08c1,.73,2.5.34,3.39-.25.11-.07,2-1.34,1.49-3.12a2.47,2.47,0,0,0-.67-1.18l.09-.1a.17.17,0,0,0,.2.1L111.74,3a.2.2,0,0,0,.12-.12l.1,0a1.07,1.07,0,0,0-.07.19c-.42,1.28.74,2.61,1.76,3.15.11.06,2.11,1.1,3.46-.16a3,3,0,0,0,.83-1.38l.11,0a.1.1,0,0,0,0,.14l3.18,2.61a.24.24,0,0,0,.14,0v.12a2,2,0,0,0-.41,0c-1.31.31-1.85,2-1.8,3.13,0,.13.14,2.37,1.9,2.89a3.55,3.55,0,0,0,1.91,0v0a.05.05,0,0,0,0,0l-1.3,4.15v0l0,0a1.67,1.67,0,0,0-.21-.33c-.87-1-2.6-.75-3.61-.17-.11.06-2,1.21-1.69,3a2.37,2.37,0,0,0,.91,1.52l0,.06a.12.12,0,0,0-.12,0l-4,1.08a.15.15,0,0,0-.11.11l-.13,0c.23-1.26-1-2.44-2-2.92-.12,0-2.16-1-3.44.36a2.53,2.53,0,0,0-.41.55l-.05,0a.09.09,0,0,0,0-.11l-3.09-2.16a.16.16,0,0,0-.09,0v-.07a1.76,1.76,0,0,0,.31,0c1.31-.28,1.89-1.94,1.86-3.1,0-.13-.1-2.37-1.86-2.92a2.86,2.86,0,0,0-1.56,0ZM114.17,15a2.32,2.32,0,1,0-3.27.29A2.33,2.33,0,0,0,114.17,15Z" style="fill:#423c25"/><path d="M102.34,12.55a.15.15,0,0,1-.09.1.21.21,0,0,1-.13,0l-6.5-4,7.7.15a.12.12,0,0,1,.11,0,.14.14,0,0,1,0,.15Z" style="fill:#423c25"/><path d="M102.25,12.65l0,.08a2.65,2.65,0,0,0-1.49,1l-11.47-7,13.42-.24a2.57,2.57,0,0,0,.55,2.05,1.3,1.3,0,0,0,.22.19l-.07.08a.12.12,0,0,0-.11,0l-7.7-.15,6.5,4A.21.21,0,0,0,102.25,12.65Z" style="fill:#fff"/><path d="M121.4,7.68a2.74,2.74,0,0,1,1.64.63L129.76-3.3l-12,6.22a2.58,2.58,0,0,1,.14,1.8,3,3,0,0,1-.83,1.38c-1.35,1.26-3.35.22-3.46.16-1-.54-2.18-1.87-1.76-3.15a1.07,1.07,0,0,1,.07-.19,2.69,2.69,0,0,1,1.47-1.27L106.89-10l-1,13.49a2.77,2.77,0,0,1,1.77.72,2.47,2.47,0,0,1,.67,1.18c.47,1.78-1.38,3.05-1.49,3.12-.89.59-2.43,1-3.39.25a1.3,1.3,0,0,1-.22-.19,2.57,2.57,0,0,1-.55-2l-13.42.24,11.47,7.05a2.65,2.65,0,0,1,1.49-1,2.86,2.86,0,0,1,1.56,0c1.76.55,1.85,2.79,1.86,2.92,0,1.16-.55,2.82-1.86,3.1a1.76,1.76,0,0,1-.31,0,2.84,2.84,0,0,1-1.73-.66l-6.9,11.5L107,23.56a2.68,2.68,0,0,1-.35-1.88,2.35,2.35,0,0,1,.17-.44,2.53,2.53,0,0,1,.41-.55c1.28-1.33,3.32-.41,3.44-.36,1,.48,2.2,1.66,2,2.92l0,.13a2.52,2.52,0,0,1-1.46,1.54l7.2,11.32V22.53a2.87,2.87,0,0,1-1.3-.48,2.37,2.37,0,0,1-.91-1.52c-.35-1.81,1.58-3,1.69-3,1-.58,2.74-.86,3.61.17a1.67,1.67,0,0,1,.21.33,2.72,2.72,0,0,1,.2,1.75l13.4.64-10.71-7.67a2.66,2.66,0,0,1-1.51,1,3.55,3.55,0,0,1-1.91,0c-1.76-.52-1.9-2.76-1.9-2.89,0-1.16.49-2.82,1.8-3.13A2,2,0,0,1,121.4,7.68Z" style="fill:none;stroke:#423c25;stroke-miterlimit:10;stroke-width:0.60077714920044px"/><path d="M106.74,21.21l0,0-7,3.87L103.4,19a.14.14,0,0,1,.13-.08.16.16,0,0,1,.09,0l3.09,2.16A.09.09,0,0,1,106.74,21.21Z" style="fill:none;stroke:#423c25;stroke-miterlimit:10;stroke-width:0.60077714920044px"/><path d="M112.74,23.27a.16.16,0,0,0,0,.15l4,6.33.24-7.54a.12.12,0,0,0,0-.1.12.12,0,0,0-.12,0l-4,1.08A.15.15,0,0,0,112.74,23.27Z" style="fill:none;stroke:#423c25;stroke-miterlimit:10;stroke-width:0.60077714920044px"/><path d="M123,13.75h0l6.13,4.64-7.4-.36a.13.13,0,0,1-.09-.07v0l1.3-4.15A.05.05,0,0,1,123,13.75Z" style="fill:none;stroke:#423c25;stroke-miterlimit:10;stroke-width:0.60077714920044px"/><path d="M118.05,4.76a.1.1,0,0,1,0,0l6.42-2.82-2.92,5.54a.23.23,0,0,1-.2.13.24.24,0,0,1-.14,0L118.07,4.9A.1.1,0,0,1,118.05,4.76Z" style="fill:none;stroke:#423c25;stroke-miterlimit:10;stroke-width:0.60077714920044px"/><path d="M111.86,2.87a.16.16,0,0,0,0-.15l-3.33-6L107.79,4a.15.15,0,0,0,0,.07.17.17,0,0,0,.2.1L111.74,3A.2.2,0,0,0,111.86,2.87Z" style="fill:none;stroke:#423c25;stroke-miterlimit:10;stroke-width:0.60077714920044px"/><path d="M102.25,12.65a.21.21,0,0,1-.13,0l-6.5-4,7.7.15a.12.12,0,0,1,.11,0,.14.14,0,0,1,0,.15l-1.13,3.61A.15.15,0,0,1,102.25,12.65Z" style="fill:none;stroke:#423c25;stroke-miterlimit:10;stroke-width:0.60077714920044px"/><path d="M113.88,11.72a2.32,2.32,0,1,1-3.27.29A2.33,2.33,0,0,1,113.88,11.72Z" style="fill:none;stroke:#423c25;stroke-miterlimit:10;stroke-width:0.60077714920044px"/><rect x="0.18" y="-0.22" width="125" height="80" style="fill:none;stroke:#423c25;stroke-miterlimit:10;stroke-width:2px"/><path d="M6.28,32.69a.2.2,0,0,1-.22,0,4.17,4.17,0,0,0-.71.06c-.23,0-.35,0-.37-.18a5.26,5.26,0,0,1-.68-.12l-.62-.15c-.12,0-.2,0-.21,0a.16.16,0,0,1,0-.09c-.14,0-.18-.08-.13-.1s.06-.06,0-.14,0-.23.29-.51a3.1,3.1,0,0,1-.08-.58,1.23,1.23,0,0,1,0-.42l.22-.7L4,29.28s0-.07.12-.07.4,0,.8.07a.8.8,0,0,0-.12-.15c-.08-.09-.18-.18-.28-.28L4.3,28.6c-.08-.07-.1-.11-.06-.11L5.6,23.36s0-.06.12-.12L6,23l.26-.23c.08-.07.12-.11.12-.13s0-.09,0-.22,0-.26,0-.4v-.65l.12-.31c.06-.16.14-.34.22-.52S6.92,20.2,7,20a.85.85,0,0,1,.2-.28.9.9,0,0,1,.17-.21l.19-.2.07-.24H7q-.43,0-.36-.21s0-.1.08-.26a2.54,2.54,0,0,0,.11-.3L8,18.29a.41.41,0,0,0-.17-.09L7.5,18l-.36-.17C7,17.82,7,17.78,7,17.76l.15-.38,0-.14c0-.12.06-.24.09-.36a2.36,2.36,0,0,0,0-.24,3.42,3.42,0,0,0,.18-.6.72.72,0,0,1,.3-.48A2.77,2.77,0,0,1,8.93,15a13.66,13.66,0,0,1,1.62-.3,15.49,15.49,0,0,1,1.58-.13l1,0,.84.07h.92a5.85,5.85,0,0,1,1.05.43,4.89,4.89,0,0,1,.89.65,2.09,2.09,0,0,1,.66.59,1.23,1.23,0,0,1,.06.8c0,.47,0,.87,0,1.23s-.07.66-.11.93-.08.52-.13.75-.09.44-.14.64a1.74,1.74,0,0,1-.47.86A5.22,5.22,0,0,1,16,22c-.24.16-.49.32-.73.5a1.87,1.87,0,0,0-.57.72,2.91,2.91,0,0,1,.44.6,3.76,3.76,0,0,1,.34.79,3.5,3.5,0,0,1,.13.94,4,4,0,0,1-.15,1.05l-.24.68q-.12.33-.3.75c-.12.28-.26.6-.44.94s-.39.73-.65,1.16a3.56,3.56,0,0,1-.24.48,1.39,1.39,0,0,1-.29.35,2.47,2.47,0,0,1-.39.29,6.3,6.3,0,0,1-.59.3,11.75,11.75,0,0,1-1.25.65,9.26,9.26,0,0,1-1.29.43H9.19l-.35,0L8,32.72a1.61,1.61,0,0,0-.38.08,1.82,1.82,0,0,1-.58,0l0-.24c0-.2,0-.3,0-.32Zm2-3.91a4.45,4.45,0,0,0,.47.14,4.38,4.38,0,0,0,.68.15.42.42,0,0,0,.31-.19q.27-.48.6-1a5.75,5.75,0,0,0,.53-1.05l.05-.24-.34-.84a.54.54,0,0,0-.11-.33,1.58,1.58,0,0,0-.27-.32,2.8,2.8,0,0,0-.35-.25,1.13,1.13,0,0,0-.32-.13l-.22.82L9,26.45q-.19.71-.51,1.56a.32.32,0,0,1,0,.23.48.48,0,0,1-.09.13ZM10.58,22a.31.31,0,0,0,.26.2,1.32,1.32,0,0,0,.54-.18,1.33,1.33,0,0,0,.39-.46l.82-.84.07-.24c.08-.34.15-.68.22-1a9.36,9.36,0,0,0,.12-1s-.07-.05-.21-.11l-.27-.11a3.83,3.83,0,0,0-.42.08l-.44.09-.34.09-.17,0a.78.78,0,0,0-.21,0,.43.43,0,0,0-.08.17l0,.09c.32,0,.47.14.46.32a3.48,3.48,0,0,1-.13.74,3.58,3.58,0,0,1-.17.61,1.51,1.51,0,0,1-.14.31l-.16.32a4.54,4.54,0,0,0-.18.63A.46.46,0,0,0,10.58,22Z" style="fill:#423c25"/><path d="M15.61,31.42h-.09l-.12.1-.27.93s0,0-.05,0l-.09.06h-.07c-.1,0-.16-.08-.2-.24a.5.5,0,0,1,0-.31,2.57,2.57,0,0,0,.06-.28c0-.12.06-.25.11-.4S15,31.07,15,31s.07-.2.08-.25a.26.26,0,0,1-.07-.14l.05-.17,0-.15.24-.74c.11-.34.24-.71.39-1.13s.32-.85.48-1.32l.48-1.32c.16-.41.29-.79.41-1.13s.21-.58.25-.74c.21-.37.44-.74.68-1.1a10.29,10.29,0,0,0,.62-1.11l1.14-2.33A16.17,16.17,0,0,1,21.2,17c.05,0,.12,0,.2.08a3.78,3.78,0,0,1,.25.34l.25.39c.08.12.14.18.17.18s.1-.06.15-.18a3.52,3.52,0,0,0,.16-.39l.14-.37c.05-.11.09-.16.12-.14h2.21l.48-.17c.05,0,.08,0,.1.06a1.08,1.08,0,0,1,0,.19l0,.21q0,.09.06.09a.66.66,0,0,0,.25,0,1.37,1.37,0,0,1,.29,0,.34.34,0,0,1,.21.09c.06.05.07.13,0,.24L25.67,20a1.46,1.46,0,0,0-.05.54,4.88,4.88,0,0,0,.08.51c0,.18.08.35.11.52a2.38,2.38,0,0,1,0,.54c-.05.19-.13.52-.23,1s-.21,1-.33,1.5-.22,1-.32,1.5-.18.81-.23,1l0,.1a19.91,19.91,0,0,1-.29,2.29c-.14.76-.33,1.53-.55,2.31a2.2,2.2,0,0,1-.64-.09,2.19,2.19,0,0,0-.63-.1.24.24,0,0,0-.18.1,1.63,1.63,0,0,0-.17.2l-.18.21a.33.33,0,0,1-.22.09c-.08,0-.11-.05-.09-.17a3.12,3.12,0,0,1,.06-.37c0-.13,0-.26.06-.37s0-.17-.08-.17a.36.36,0,0,0-.1.11,2,2,0,0,0-.17.23l-.25.33-.17.28a1.05,1.05,0,0,1-.24.28s0,.06-.12.09v0H20.7c-.24,0-.36-.16-.37-.47a5.46,5.46,0,0,1,.08-1c.07-.38.12-.72.17-1s0-.46-.12-.46h-.67a.62.62,0,0,0-.55.21l-.34,1.15L18.59,32a4.26,4.26,0,0,1-.18.42,2.43,2.43,0,0,1-.16.3l-.14.09H16.36l-.44-.45-.21-.1a.3.3,0,0,1,0-.2,1.72,1.72,0,0,1,.08-.28.59.59,0,0,0,0-.25C15.78,31.46,15.72,31.42,15.61,31.42Zm4.73-5.23a.87.87,0,0,0-.07.19c0,.1,0,.15.09.17a5.46,5.46,0,0,0,.68-.12.64.64,0,0,0,.48-.41.31.31,0,0,1,.08-.1.22.22,0,0,0,.08-.09,3.31,3.31,0,0,1,.05-.41c0-.19.07-.4.1-.61s.07-.42.11-.61a3,3,0,0,1,.1-.41,1.12,1.12,0,0,1,0-.19,2.5,2.5,0,0,1,.05-.29,1.26,1.26,0,0,0,0-.27q0-.12-.06-.12c-.15,0-.31.16-.49.48s-.37.68-.56,1.07a12,12,0,0,0-.46,1.11C20.43,25.92,20.36,26.12,20.34,26.19Z" style="fill:#423c25"/><path d="M30.42,27.51a.22.22,0,0,0-.1,0l-.19.39c0,.12-.1.34-.21.64s-.23.63-.35,1-.23.66-.34,1-.17.52-.2.65a.67.67,0,0,1-.09.35,1.26,1.26,0,0,1-.15.3.15.15,0,0,1-.15.1l-.12,0-.1.05s-.06,0-.06.05l-.17.76h-.12c-.1,0-.15,0-.15,0a.63.63,0,0,1-.58-.4.76.76,0,0,1,.15-.7c-.08-.05-.11-.08-.09-.08h-.08a.28.28,0,0,0-.21.11,1.31,1.31,0,0,0-.17.24l-.13.25a.41.41,0,0,1-.13.17h-.05l-.05,0h-.5l-.26,0-.25,0h-.14a.31.31,0,0,1-.36-.2,1.24,1.24,0,0,1-.1-.52,3.83,3.83,0,0,1,.05-.6,1.73,1.73,0,0,1,.1-.41l0-.14c0-.08.06-.15.09-.2a.22.22,0,0,0,0-.16l0-.1,1.95-5.49.08-.23a1.81,1.81,0,0,1,.09-.23,1.08,1.08,0,0,0,.13-.24c0-.13.11-.26.18-.41a4,4,0,0,0,.15-.4,4.64,4.64,0,0,1,.21-.51l.21-.43c.08-.16.16-.3.24-.43a1.55,1.55,0,0,1,.2-.27l.16-.19c.1-.11.15-.17.15-.19l0-.1,0-.09h-.24l-.39,0a1.33,1.33,0,0,1-.33-.08c-.1,0-.13-.1-.1-.18a.68.68,0,0,1,.14-.18c.1-.11.15-.17.15-.21l.13,0,.22-.06.19-.07s.07,0,.06-.06l-.46-.27.1-.31s0-.06,0-.12,0-.08,0-.1a.6.6,0,0,1,.22-.09l.23,0,.2,0a.15.15,0,0,0,.12-.12l-.43-.56c-.1-.12-.06-.25.12-.37a2.84,2.84,0,0,1,.77-.33,8.82,8.82,0,0,1,1.15-.28l1.26-.22c.41-.06.78-.11,1.1-.14L34,17a2.5,2.5,0,0,1,.68.06,2.5,2.5,0,0,0,.66.09.42.42,0,0,0,.19-.08.49.49,0,0,1,.24,0h.1a5.43,5.43,0,0,1,1,.38,4.52,4.52,0,0,1,.82.55,2.44,2.44,0,0,1,.54.53,1.1,1.1,0,0,1,.06.72l-.48.43.34.19-.08.39-.07.21a4.08,4.08,0,0,0,0,1,3,3,0,0,1-.09,1,1,1,0,0,1-.19.42,1.5,1.5,0,0,1-.44.35L34.88,26l-.09.36c.11.87.21,1.76.29,2.68a9,9,0,0,1-.2,2.77l-.39,0-.23-.05-.2-.05-.3,0a.11.11,0,0,0,0,.12.11.11,0,0,1,0,.12l-.18.22q-.13.16-.3.33a4,4,0,0,1-.33.29.46.46,0,0,1-.25.12c-.1,0-.15,0-.17-.1a1.29,1.29,0,0,1,0-.23.77.77,0,0,0-.06-.23.22.22,0,0,0-.2-.09.29.29,0,0,0-.14.08l-.2.18-.21.19a.41.41,0,0,1-.14.12.26.26,0,0,1-.15.1q-.25,0-.42-.3a3.55,3.55,0,0,1-.24-.84,9.48,9.48,0,0,1-.1-1.15c0-.42,0-.83,0-1.23s0-.74,0-1.05,0-.53,0-.66S30.55,27.51,30.42,27.51Zm.82-2.69,0,.17c0,.06,0,.11.12.14a2.35,2.35,0,0,0,.66-.19,1,1,0,0,0,.47-.43l1.39-2.16.05-.22a.75.75,0,0,0,0-.42l-.17-.41a3.52,3.52,0,0,1-.18-.4.77.77,0,0,1-.06-.42c0-.12,0-.17-.19-.17H33.2l-.34.06-.45.07L32,20.5a.6.6,0,0,0-.21.05.41.41,0,0,0-.2.05s-.05.06-.09.14v.07a.76.76,0,0,1,.63.3,1.06,1.06,0,0,1,.09.66,8,8,0,0,1-.49,1.53A9.7,9.7,0,0,0,31.24,24.82Z" style="fill:#423c25"/><path d="M38.94,32.76c0,.05-.11,0-.19,0a4.13,4.13,0,0,0-.63,0c-.19,0-.28,0-.28-.15l-.62-.1-.54-.14q-.16.06-.18,0s0,0,0-.07-.17-.08-.13-.09,0-.06,0-.12,0-.21.22-.44a4.32,4.32,0,0,1,0-.5,1.11,1.11,0,0,1,0-.38l.17-.6.22-.41s0-.05.12-.05l.67.05s0-.06-.11-.13a2.66,2.66,0,0,0-.24-.23l-.23-.22c-.06-.06-.08-.09-.05-.09l1.2-4.47.11-.11.23-.19.23-.2L39,24a.45.45,0,0,0,0-.17V23.5c0-.14,0-.27,0-.38s0-.18,0-.2.05-.14.1-.27.11-.29.18-.45a4.51,4.51,0,0,1,.22-.44.63.63,0,0,1,.18-.25s0-.08.14-.18.14-.16.14-.18l.08-.19h-.53c-.26,0-.36-.06-.31-.19a1,1,0,0,1,.08-.23c.06-.14.09-.22.11-.25l1-.07s-.05,0-.14-.09L40,20l-.32-.14c-.09-.05-.14-.08-.14-.1l.14-.34a.78.78,0,0,0,.09-.33c0-.18,0-.28,0-.31a3,3,0,0,0,.18-.53.68.68,0,0,1,.26-.41,2.56,2.56,0,0,1,1-.46,12.15,12.15,0,0,1,1.41-.26c.49-.06.95-.1,1.37-.12s.72,0,.9,0l.72.07H46l.37,0h.12a4.93,4.93,0,0,1,.94.39,5,5,0,0,1,.77.55,2.24,2.24,0,0,1,.54.53,1.17,1.17,0,0,1,.06.69,10.07,10.07,0,0,1-.14,1.88c-.08.44-.15.84-.2,1.2A1.76,1.76,0,0,1,48,23a3.51,3.51,0,0,1-.6.48c-.22.14-.43.29-.64.44a1.82,1.82,0,0,0-.5.62,2.26,2.26,0,0,1,.38.51,3.11,3.11,0,0,1,.28.69,3.52,3.52,0,0,1,.12.82,3.07,3.07,0,0,1-.13.93c-.08.19-.16.38-.23.57s-.16.41-.25.65-.22.52-.36.82-.33.65-.55,1a4.65,4.65,0,0,1-.23.41,1.81,1.81,0,0,1-.25.3,2.41,2.41,0,0,1-.35.25c-.14.08-.3.17-.49.26a11.58,11.58,0,0,1-1.11.56,8.29,8.29,0,0,1-1.13.38h-.79l-.77.07a2.29,2.29,0,0,0-.36.07,1.51,1.51,0,0,1-.5,0l.07-.21a.86.86,0,0,0,0-.17v-.1Zm1.73-3.4a3.2,3.2,0,0,0,.42.13l.56.13a.49.49,0,0,0,.29-.17,7.25,7.25,0,0,1,.53-.9,3.44,3.44,0,0,0,.45-.9l0-.21-.29-.72a.78.78,0,0,0-.33-.58,1.56,1.56,0,0,0-.6-.34l-.17.72c0,.13-.12.4-.25.81s-.29.86-.45,1.35a.55.55,0,0,1-.12.32Zm2-5.9c0,.11.11.17.19.18a1.18,1.18,0,0,0,.49-.16,1.1,1.1,0,0,0,.33-.41l.72-.72,0-.22q.12-.43.21-.87c.05-.3.09-.59.11-.88,0,0-.07-.05-.2-.1l-.24-.09a3.35,3.35,0,0,0-.37.07l-.37.08-.41.11a.79.79,0,0,0-.23.05.39.39,0,0,0-.08.14l0,.08c.3,0,.45.12.44.27a3,3,0,0,1-.13.64,4.31,4.31,0,0,1-.13.54,2.17,2.17,0,0,1-.12.26l-.14.28a3.79,3.79,0,0,0-.14.55S42.66,23.36,42.71,23.46Z" style="fill:#423c25"/><path d="M47.27,31.42h-.1a.48.48,0,0,1-.12.1l-.26.93s0,0,0,0a.27.27,0,0,0-.1.06h-.07c-.09,0-.16-.08-.19-.24a.5.5,0,0,1,0-.31,2.57,2.57,0,0,0,.06-.28,2.73,2.73,0,0,1,.11-.4c0-.12.07-.25.11-.37s.06-.2.08-.25a.21.21,0,0,1-.07-.14l0-.17,0-.15L47,29.5l.4-1.13.48-1.32.48-1.32.41-1.13c.12-.33.2-.58.25-.74.21-.37.43-.74.67-1.1a10.41,10.41,0,0,0,.63-1.11c.39-.81.78-1.59,1.14-2.33A15.28,15.28,0,0,1,52.86,17s.11,0,.19.08a3.78,3.78,0,0,1,.25.34c.09.14.17.27.26.39s.13.18.16.18.1-.06.16-.18a3.52,3.52,0,0,0,.16-.39,3.18,3.18,0,0,1,.14-.37c0-.11.09-.16.12-.14h2.21l.48-.17s.08,0,.09.06a1.06,1.06,0,0,1,0,.19c0,.07,0,.14,0,.21s0,.09.06.09a.71.71,0,0,0,.26,0,1.23,1.23,0,0,1,.28,0,.4.4,0,0,1,.22.09c.06.05.07.13,0,.24L57.32,20a1.68,1.68,0,0,0,0,.54,3.17,3.17,0,0,0,.08.51c0,.18.08.35.11.52a1.93,1.93,0,0,1,0,.54c-.05.19-.12.52-.23,1s-.21,1-.32,1.5-.22,1-.32,1.5-.18.81-.23,1l0,.1a17.89,17.89,0,0,1-.28,2.29c-.15.76-.33,1.53-.56,2.31a2.18,2.18,0,0,1-.63-.09,2.2,2.2,0,0,0-.64-.1.28.28,0,0,0-.18.1c-.06.06-.11.13-.17.2a1.68,1.68,0,0,1-.18.21.29.29,0,0,1-.21.09c-.08,0-.11-.05-.1-.17s0-.23.06-.37a2.83,2.83,0,0,0,.06-.37c0-.11,0-.17-.07-.17s-.05,0-.11.11-.11.15-.17.23-.14.19-.25.33a1.62,1.62,0,0,1-.17.28.78.78,0,0,1-.24.28s0,.06-.12.09v0h0c-.24,0-.37-.16-.38-.47a4.79,4.79,0,0,1,.09-1c.06-.38.12-.72.17-1s0-.46-.12-.46h-.68a.63.63,0,0,0-.55.21l-.33,1.15L50.24,32a4.26,4.26,0,0,1-.18.42c-.08.18-.14.28-.15.3l-.15.09H48l-.43-.45-.22-.1a.26.26,0,0,1,0-.2c0-.09,0-.18.07-.28a.61.61,0,0,0,0-.25C47.44,31.46,47.38,31.42,47.27,31.42ZM52,26.19a1.51,1.51,0,0,0-.08.19c0,.1,0,.15.1.17a5.34,5.34,0,0,0,.67-.12.6.6,0,0,0,.48-.41l.08-.1.09-.09a3.31,3.31,0,0,1,0-.41c0-.19.06-.4.09-.61s.07-.42.11-.61a2.68,2.68,0,0,1,.11-.41s0-.1,0-.19,0-.2.05-.29a.83.83,0,0,0,0-.27c0-.08,0-.12-.06-.12s-.3.16-.49.48-.37.68-.55,1.07-.34.76-.47,1.11A4.8,4.8,0,0,0,52,26.19Z" style="fill:#423c25"/><path d="M62.08,27.51l-.1,0-.19.39c0,.12-.11.34-.22.64l-.35,1-.33,1c-.11.31-.17.52-.21.65a.63.63,0,0,1-.08.35.9.9,0,0,1-.16.3.13.13,0,0,1-.14.1l-.12,0-.11.05S60,32,60,32l-.17.76h-.12c-.09,0-.14,0-.14,0-.32-.05-.52-.18-.59-.4a.77.77,0,0,1,.16-.7c-.08-.05-.11-.08-.1-.08H59a.31.31,0,0,0-.22.11,1.25,1.25,0,0,0-.16.24l-.14.25a.35.35,0,0,1-.13.17h0l0,0h-.51l-.25,0-.25,0h-.15a.32.32,0,0,1-.36-.2,1.42,1.42,0,0,1-.09-.52,2.92,2.92,0,0,1,0-.6,2.66,2.66,0,0,1,.09-.41l0-.14.08-.2a.23.23,0,0,0,0-.16l0-.1,1.94-5.49A1.33,1.33,0,0,0,59,24.4c0-.12.07-.19.08-.23a.77.77,0,0,0,.13-.24c.06-.13.12-.26.18-.41a2.56,2.56,0,0,0,.16-.4c0-.13.07-.21.08-.24l.12-.27.22-.43c.08-.16.16-.3.24-.43a1.63,1.63,0,0,1,.19-.27s.07-.08.17-.19.14-.17.14-.19l0-.1,0-.09h-.24l-.38,0a1.54,1.54,0,0,1-.34-.08c-.09,0-.13-.1-.09-.18s0-.08.14-.18.14-.17.14-.21l.14,0,.21-.06.19-.07q.09,0,.06-.06l-.45-.27.09-.31s0-.06,0-.12,0-.08,0-.1a.54.54,0,0,1,.22-.09l.22,0,.21,0a.18.18,0,0,0,.12-.12l-.43-.56c-.1-.12-.06-.25.12-.37a2.76,2.76,0,0,1,.76-.33,9,9,0,0,1,1.16-.28l1.26-.22c.4-.06.77-.11,1.1-.14L65.6,17a2.61,2.61,0,0,1,.69.06,2.39,2.39,0,0,0,.66.09.47.47,0,0,0,.19-.08.49.49,0,0,1,.24,0h.1a5.43,5.43,0,0,1,1,.38,5.34,5.34,0,0,1,.82.55,2.44,2.44,0,0,1,.54.53,1.26,1.26,0,0,1,.06.72l-.48.43.33.19-.07.39-.07.21a3.67,3.67,0,0,0,0,1,3,3,0,0,1-.1,1,.9.9,0,0,1-.19.42,1.45,1.45,0,0,1-.43.35L66.54,26l-.1.36c.12.87.21,1.76.29,2.68a9,9,0,0,1-.19,2.77l-.4,0-.22-.05-.21-.05-.3,0a.17.17,0,0,0,0,.12.09.09,0,0,1,0,.12l-.18.22q-.14.16-.3.33a4,4,0,0,1-.32.29.49.49,0,0,1-.25.12c-.1,0-.16,0-.17-.1a1.2,1.2,0,0,1,0-.23.77.77,0,0,0-.06-.23.19.19,0,0,0-.19-.09.29.29,0,0,0-.14.08l-.21.18-.2.19c-.07.07-.11.11-.15.12s-.06.07-.14.1-.32-.08-.42-.3a3.55,3.55,0,0,1-.24-.84,9.36,9.36,0,0,1-.11-1.15c0-.42,0-.83,0-1.23s0-.74,0-1.05,0-.53,0-.66S62.2,27.51,62.08,27.51Zm.81-2.69,0,.17c0,.06,0,.11.12.14a2.17,2.17,0,0,0,.66-.19.9.9,0,0,0,.47-.43l1.39-2.16,0-.22a.61.61,0,0,0,0-.42c0-.13-.1-.27-.17-.41l-.18-.4a1,1,0,0,1-.06-.42c0-.12,0-.17-.19-.17h-.07l-.35.06-.44.07-.4.06c-.12,0-.19,0-.2.05a.52.52,0,0,0-.21.05.31.31,0,0,0-.08.14v.07a.73.73,0,0,1,.62.3,1.05,1.05,0,0,1,.1.66,8.77,8.77,0,0,1-.49,1.53A9.75,9.75,0,0,0,62.89,24.82Z" style="fill:#423c25"/><path d="M67.86,32.24l.24-.84c.35-1.46.7-2.89,1.06-4.29s.73-2.83,1.15-4.28l0-.17a1.28,1.28,0,0,0,.09-.22,1.38,1.38,0,0,1,.06-.16l0-.1.07-.14.16-.27.16-.26a.41.41,0,0,0,.07-.15.78.78,0,0,1,.07-.22c0-.12.1-.26.15-.4s.09-.28.14-.41a2,2,0,0,0,.09-.26,1.55,1.55,0,0,0,.12-.28,2.1,2.1,0,0,0,.12-.42l.15-.5.14-.51a2.79,2.79,0,0,0,.1-.42.74.74,0,0,1,.07-.27,1.07,1.07,0,0,1,.24-.1l.47-.15.68-.23a.37.37,0,0,1,.33.13,1,1,0,0,1,.11.3c0,.11,0,.22,0,.31s0,.12.1.12h0a1,1,0,0,0,.22-.29.18.18,0,0,0,.09-.12s0-.07.08-.07a1.1,1.1,0,0,1,.31-.07l.24,0,.18.2.15.18h.12l.51-.19h.12l.07.09a.23.23,0,0,0,.12.1l-.12.41a30.33,30.33,0,0,1-1,3c-.38,1-.77,2-1.15,3a1.39,1.39,0,0,1-.34.49,1.25,1.25,0,0,0-.31.47,2,2,0,0,0-.06.69,5.25,5.25,0,0,1,0,.65l-.12.48-.38,1.32-.13.43c-.16.53-.32,1.11-.49,1.73a12.47,12.47,0,0,1-.63,1.78.18.18,0,0,1-.15.1l-.17,0-.09,0h-.07a1.27,1.27,0,0,0-.23-.39c-.07-.08-.22-.11-.45-.11h-.18a.24.24,0,0,0-.13,0l-.26.26a1.27,1.27,0,0,1-.31,0c-.16,0-.25,0-.27.06a.31.31,0,0,0-.15.07l-.22.14-.21.15a1.17,1.17,0,0,0-.14.09A1.06,1.06,0,0,1,67.86,32.24Z" style="fill:#423c25"/><path d="M73.88,31.42h-.09l-.12.1-.27.93s0,0-.05,0a.24.24,0,0,0-.09.06h-.07c-.1,0-.16-.08-.2-.24A.5.5,0,0,1,73,32a2.57,2.57,0,0,0,.06-.28c0-.12.06-.25.11-.4s.07-.25.11-.37.07-.2.08-.25a.26.26,0,0,1-.07-.14l0-.17,0-.15.24-.74c.11-.34.24-.71.39-1.13s.32-.85.48-1.32L75,25.73c.16-.41.29-.79.41-1.13s.21-.58.25-.74c.21-.37.44-.74.68-1.1a10.29,10.29,0,0,0,.62-1.11l1.14-2.33A16.17,16.17,0,0,1,79.47,17s.12,0,.2.08a3.78,3.78,0,0,1,.25.34l.25.39c.08.12.14.18.17.18s.1-.06.15-.18a3.52,3.52,0,0,0,.16-.39l.14-.37c0-.11.09-.16.13-.14h2.2l.48-.17c.05,0,.08,0,.1.06a1.08,1.08,0,0,1,0,.19l0,.21q0,.09.06.09a.66.66,0,0,0,.25,0,1.37,1.37,0,0,1,.29,0,.34.34,0,0,1,.21.09c.06.05.07.13,0,.24L83.94,20a1.46,1.46,0,0,0,0,.54,4.88,4.88,0,0,0,.08.51c0,.18.08.35.11.52a2.38,2.38,0,0,1,0,.54c0,.19-.13.52-.23,1s-.21,1-.33,1.5-.22,1-.32,1.5-.18.81-.23,1l0,.1a19.91,19.91,0,0,1-.29,2.29c-.14.76-.33,1.53-.55,2.31a2.2,2.2,0,0,1-.64-.09,2.19,2.19,0,0,0-.63-.1.24.24,0,0,0-.18.1,1.63,1.63,0,0,0-.17.2l-.18.21a.33.33,0,0,1-.22.09c-.08,0-.11-.05-.09-.17a3.12,3.12,0,0,1,.06-.37c0-.13,0-.26.06-.37s0-.17-.08-.17a.36.36,0,0,0-.1.11,2,2,0,0,0-.17.23l-.25.33-.17.28a1.05,1.05,0,0,1-.24.28s0,.06-.12.09v0h0c-.24,0-.36-.16-.37-.47a5.46,5.46,0,0,1,.08-1c.07-.38.12-.72.17-1s0-.46-.12-.46h-.67a.62.62,0,0,0-.55.21l-.34,1.15L76.86,32a4.26,4.26,0,0,1-.18.42,2.43,2.43,0,0,1-.16.3l-.14.09H74.63l-.44-.45-.21-.1a.3.3,0,0,1,0-.2,1.72,1.72,0,0,1,.08-.28.59.59,0,0,0,0-.25C74.05,31.46,74,31.42,73.88,31.42Zm4.73-5.23a.87.87,0,0,0-.07.19c0,.1,0,.15.09.17a5.46,5.46,0,0,0,.68-.12.64.64,0,0,0,.48-.41.31.31,0,0,1,.08-.1.22.22,0,0,0,.08-.09,3.31,3.31,0,0,1,0-.41c0-.19.07-.4.1-.61s.07-.42.11-.61a3,3,0,0,1,.1-.41,1.12,1.12,0,0,1,0-.19,2.5,2.5,0,0,1,0-.29,1.26,1.26,0,0,0,0-.27q0-.12-.06-.12c-.15,0-.31.16-.49.48s-.37.68-.56,1.07a12,12,0,0,0-.46,1.11C78.7,25.92,78.63,26.12,78.61,26.19Z" style="fill:#423c25"/><path d="M85.62,31.37l-.72.6a.56.56,0,0,0-.43.21.62.62,0,0,1-.43.2c-.13,0-.21-.07-.22-.23a.75.75,0,0,1,0-.35l0-.09.36-.91,0-.1,0-.1.31-1.84,2.23-7.25a5.44,5.44,0,0,1-.4-1.31,2.89,2.89,0,0,1,.09-1.43,1.51,1.51,0,0,1,.2-.2c.14-.12.29-.24.46-.36l.45-.31c.14-.09.22-.12.26-.09l.64.79a.25.25,0,0,0,.24-.19c0-.13.1-.27.15-.43a1.54,1.54,0,0,1,.2-.43.38.38,0,0,1,.32-.19h.15l.31,0,.31,0a22.9,22.9,0,0,1,1.73,4l-.17.46.39-.46a2.5,2.5,0,0,1,.09-.24c.07-.14.14-.31.22-.49l.24-.55a4.79,4.79,0,0,0,.17-.47A1,1,0,0,0,93,19.4a.57.57,0,0,1,.24-.32l.68-.31-.41-.31c-.08,0-.12-.13-.11-.3a2.46,2.46,0,0,1,.06-.44l.07-.2a1,1,0,0,1,.4-.24c.2-.08.31-.08.32,0l0,.1c0,.13,0,.21,0,.25a.81.81,0,0,1,.13.11,3.53,3.53,0,0,0,.65.06l1,.06a4.1,4.1,0,0,1,.87.16c.25.07.35.18.3.32s0,.07,0,.11a.54.54,0,0,0-.05.11c-.07.14-.17.4-.32.76l-.45,1.17-.46,1.16c-.14.37-.25.63-.31.77l-.38,2.11L93,32.12a1.1,1.1,0,0,1-.26.16,1.83,1.83,0,0,1-.34.12,1.27,1.27,0,0,1-.28.08.36.36,0,0,1-.27-.16,2.82,2.82,0,0,1-.23-.36l-.19-.38a1.2,1.2,0,0,0-.13-.23l-.53.38-.14.46a.26.26,0,0,1-.15.08.54.54,0,0,1-.19,0,.84.84,0,0,1-.71-.35,1,1,0,0,1-.2-.71l.29-3.38-.17-1.59h-.1c-.17.63-.36,1.26-.56,1.9s-.39,1.27-.56,1.9l-.12.4c-.07.2-.13.38-.2.56a7.14,7.14,0,0,1-.29.67l-.07.06-.07,0h-.12a.68.68,0,0,1-.17-.09.23.23,0,0,0-.21.13q-.08.14-.15.3a1.46,1.46,0,0,1-.17.3.27.27,0,0,1-.24.13l0,0a1.39,1.39,0,0,0-.1-.33A.46.46,0,0,0,86.1,32a.37.37,0,0,0-.27.19c0,.09-.08.2-.12.31a1.34,1.34,0,0,1-.12.3c0,.09-.15.13-.31.13s-.18-.07-.15-.21a2.4,2.4,0,0,1,.14-.5,4.12,4.12,0,0,1,.24-.52A.65.65,0,0,0,85.62,31.37Z" style="fill:#423c25"/><path d="M10.06,48.26c0,.19-.08.39-.11.6s0,.43-.06.64A.92.92,0,0,0,10,50s.09,0,.23-.18a.88.88,0,0,0,.23-.37.91.91,0,0,1,.18-.35,2.12,2.12,0,0,0,.23-.4l.07-.26c0-.05.06-.1.14-.17a2.26,2.26,0,0,0,.3-.31,2.59,2.59,0,0,0,.37-.62,5.81,5.81,0,0,0,.36-1.13l.65-1.61a2.44,2.44,0,0,0,.28-.67c.09-.31.19-.61.3-.93a3,3,0,0,1,.43-.82.83.83,0,0,1,.7-.36s0,.08,0,.24c0,0,0,0,.1,0a.42.42,0,0,0,.2.1.14.14,0,0,0,.17-.08,1,1,0,0,0,0-.5s0-.07-.09-.12,0-.09.09-.14a.75.75,0,0,1,.37-.1l.35,0,.46,0a.22.22,0,0,1,.17.11.38.38,0,0,1,0,.24,2.65,2.65,0,0,0,0,.4l0,0,0,0,.39-.1a2,2,0,0,1,.33,0c-.08.32-.16.62-.25.89s-.19.56-.3.86c0,1-.09,1.93-.17,3s-.12,2.2-.12,3.53l1.8-4a.43.43,0,0,1,0-.41,1.44,1.44,0,0,1,.27-.34,3.4,3.4,0,0,1,.46-.35l.14-.36a2.36,2.36,0,0,0,.3-.6c.11-.27.22-.56.34-.87s.24-.59.37-.87a3.16,3.16,0,0,1,.38-.64,1.05,1.05,0,0,1,.63-.36,1.42,1.42,0,0,1,.62,0,1.85,1.85,0,0,1,.49.2.8.8,0,0,0,.26.12l1.2.12s0,.07,0,.15l-.05.19-.07.21c0,.05,0,.08,0,.08a1.72,1.72,0,0,1,.26-.33l.21-.2a.28.28,0,0,1,.18-.1c.11,0,.15.15.1.43a3.14,3.14,0,0,0-.09.74,2,2,0,0,1-.08.63,2.38,2.38,0,0,1-.24.51.76.76,0,0,0-.19.22l-.31.44a4.23,4.23,0,0,0-.3.42,1.26,1.26,0,0,0-.14.21l0,.07c0,.07-.06.18-.12.34l-.05.14-3.12,5.64-.21.84a2.35,2.35,0,0,0-.58.62c-.26.34-.51.71-.77,1.11l-.71,1.13a6.31,6.31,0,0,1-.42.65l-.24.29a1.45,1.45,0,0,0-.21.31,7.5,7.5,0,0,0-.53.93,1,1,0,0,1-.67.6.89.89,0,0,1-.36,0,.63.63,0,0,1-.29-.08,1,1,0,0,1-.05-.39l.05-.12a1,1,0,0,0,.07-.21.61.61,0,0,0-.39.12,2.55,2.55,0,0,0-.3.26,3.65,3.65,0,0,1-.3.27.7.7,0,0,1-.42.12l-.34-.8a.31.31,0,0,0,0-.25.5.5,0,0,1-.09-.25l.09-.34a.41.41,0,0,0-.08-.42.39.39,0,0,1-.11-.39l.41-.53a1.35,1.35,0,0,1-.17-1.08c.08-.48.17-1.08.26-1.8,0,0,0-.13-.1-.3s-.17-.25-.23-.25-.1.09-.15.26a5,5,0,0,1-.36.89c-.22.42-.47.84-.74,1.26a5.4,5.4,0,0,0-.6,1.24L9.32,57.73c-.08.23-.18.35-.31.37a2,2,0,0,1-.45,0H8.27s-.1,0-.15.11L8,58.49a1.6,1.6,0,0,1-.13.21c0,.06-.08.07-.11,0L8,58.43l-.91,0s-.07,0-.08-.11,0-.22,0-.35,0-.28,0-.4,0-.18-.06-.18-.11.06-.2.18-.17.25-.25.38a2.4,2.4,0,0,0-.19.32c0,.09-.07.1,0,0-.15-.88-.29-1.73-.43-2.55a9.25,9.25,0,0,1-.08-2.59,7.47,7.47,0,0,0,0-1.25c0-.41,0-.82-.07-1.22,0-.18.07-.45.12-.82s.1-.78.17-1.25.13-.94.19-1.45.13-1,.19-1.45.13-.88.19-1.25.12-.64.17-.81l0-.17.12-.48a6.13,6.13,0,0,1,.18-.61,3.22,3.22,0,0,1,.23-.52c.08-.14.17-.22.29-.22s.26.16.5.46h.12c.1,0,.14,0,.12,0l-.1-.08L8.12,42s0-.1.08-.16l.26-.1.74-.5h1.88l.07.12-.05.19-.12.38-.12.43-.1.29L11,44.36c.05.07,0,.19-.06.38a3.45,3.45,0,0,0-.21.51c0,.1,0,.15.05.15-.08.22-.15.43-.23.63s-.13.38-.18.54a8.82,8.82,0,0,0-.24,1.3A3.45,3.45,0,0,0,10.06,48.26Z" style="fill:#423c25"/><path d="M22.88,49.33a2.13,2.13,0,0,1,.21-.43l.27-.44c.1-.16.18-.3.26-.45a.91.91,0,0,0,.1-.41,3.54,3.54,0,0,0,.23-.31c.11-.14.22-.3.34-.47l.33-.46a2,2,0,0,0,.21-.32,4.78,4.78,0,0,1,.41-.51,4.3,4.3,0,0,1,.37-.37,2.85,2.85,0,0,1,.41-.34c.15-.11.32-.26.51-.43l.23-.29a1.42,1.42,0,0,1,.25-.29,4.41,4.41,0,0,1,1-.44c.44-.14.89-.25,1.36-.35s.92-.17,1.36-.23a9.55,9.55,0,0,1,1-.08q.45,0,.33.33a.33.33,0,0,1-.12.21.8.8,0,0,1-.21.15l-.22.16a.47.47,0,0,0-.12.18q0,.12.09.18a1.83,1.83,0,0,0,.28.1l.32.07a.29.29,0,0,1,.2.11l.34.74.13.29a1.33,1.33,0,0,1,0,.19c0,.06,0,.14,0,.22A1.2,1.2,0,0,0,33,46a3.28,3.28,0,0,0,.21.33,1.05,1.05,0,0,1,.15.24.67.67,0,0,1,0,.29,2.78,2.78,0,0,1-.08.46,7.59,7.59,0,0,1-.3.83,6.61,6.61,0,0,0-.3.85l0,0c0,.08,0,.25-.07.51s-.07.55-.11.87-.07.6-.1.87-.06.44-.08.51l0,.07a.16.16,0,0,0,0,.12.51.51,0,0,1,0,.17l0,.09,0,.1-.07.13-.08.13,0,.1a.71.71,0,0,1-.31.17.29.29,0,0,0-.24.19.24.24,0,0,0,.12.29.31.31,0,0,1,.17.28,2.83,2.83,0,0,0-.06.44,3.48,3.48,0,0,1-.09.48,2.66,2.66,0,0,1-.63,1,15.53,15.53,0,0,1-1.16,1.11c-.42.37-.84.72-1.27,1.05l-1,.8c-.05,0-.07.06-.07.07a.18.18,0,0,0,0,.19.18.18,0,0,1,0,.2c0,.12-.2.21-.52.24s-.63,0-.92,0h-.43a4.42,4.42,0,0,1-.67-.07,8.81,8.81,0,0,1-.94-.2,7.15,7.15,0,0,1-.86-.3.78.78,0,0,1-.46-.36,1.21,1.21,0,0,0-.2-.34,3.43,3.43,0,0,1-.24-.33,3,3,0,0,1-.19-.35.61.61,0,0,1-.06-.37l0-.15.1-.29.07-.24,0-.14a.19.19,0,0,0-.06-.24.41.41,0,0,1-.13-.24,1.23,1.23,0,0,1,0-.26c0-.13,0-.26,0-.4a2.42,2.42,0,0,1,0-.37.63.63,0,0,1,0-.24,5.67,5.67,0,0,1,.1-1.09,9.19,9.19,0,0,1,.26-1.1c.11-.36.22-.72.32-1.08A4.92,4.92,0,0,0,22.91,50a.34.34,0,0,0,0-.19.67.67,0,0,1-.06-.17s0-.06,0-.13S22.87,49.38,22.88,49.33ZM25.31,54a.69.69,0,0,0,.05.34,3,3,0,0,0,.18.53,2.49,2.49,0,0,0,.24.49c.08.15.15.22.2.22a.61.61,0,0,0,.38-.2c.15-.14.24-.22.27-.26l.2-.19c.11-.09.22-.2.34-.31l.33-.31a1.79,1.79,0,0,1,.23-.19l0-.15a18,18,0,0,0,.44-1.89,10,10,0,0,1,.54-1.92c0-.12,0-.25,0-.41l.06-.48c0-.16.05-.31.08-.46a1.59,1.59,0,0,1,.08-.33l.14-.32c.08-.17.13-.28.15-.31l0,0a.36.36,0,0,0,0-.09l0-.1,0-.07a.46.46,0,0,0-.05-.46,1,1,0,0,0-.35-.26l-.35-.17c-.09,0-.11-.11,0-.19h-.24a.11.11,0,0,0-.1,0,1,1,0,0,0-.07.24L27,48.42l-.05.17a1.12,1.12,0,0,0-.06.57,1.54,1.54,0,0,1-.06.6,17.17,17.17,0,0,1-.78,2.14A17.17,17.17,0,0,0,25.31,54Z" style="fill:#423c25"/><path d="M37.12,53.51l-.1,0-.19.39c0,.12-.11.34-.22.64l-.35,1-.33,1c-.11.31-.17.52-.21.65a.63.63,0,0,1-.08.35.9.9,0,0,1-.16.3.13.13,0,0,1-.14.1l-.12,0-.11.05s-.06,0-.06,0l-.17.76h-.12c-.09,0-.14,0-.14,0-.32-.05-.52-.18-.59-.4a.77.77,0,0,1,.16-.7c-.08,0-.11-.08-.1-.08H34a.31.31,0,0,0-.22.11,1.25,1.25,0,0,0-.16.24l-.14.25a.35.35,0,0,1-.13.17h0l0,0h-.51l-.25,0-.25,0h-.15a.32.32,0,0,1-.36-.2,1.42,1.42,0,0,1-.09-.52,2.92,2.92,0,0,1,0-.6,2.66,2.66,0,0,1,.09-.41l.05-.14.08-.2a.23.23,0,0,0,0-.16l0-.1,1.94-5.49A1.33,1.33,0,0,0,34,50.4c0-.12.07-.19.08-.23a.77.77,0,0,0,.13-.24c.06-.13.12-.26.18-.41a2.56,2.56,0,0,0,.16-.4l.08-.24.12-.27.22-.43c.08-.16.16-.3.24-.43a1.63,1.63,0,0,1,.19-.27s.07-.08.17-.19.14-.17.14-.19l0-.1,0-.09h-.24l-.38,0a1.54,1.54,0,0,1-.34-.08c-.09,0-.13-.1-.09-.18s0-.08.14-.18.14-.17.14-.21l.14,0,.21-.06.19-.07q.09,0,.06-.06l-.45-.27.09-.31s0-.06,0-.12,0-.08,0-.1a.54.54,0,0,1,.22-.09l.22,0,.21,0a.18.18,0,0,0,.12-.12l-.43-.56c-.1-.12-.06-.25.12-.37a2.76,2.76,0,0,1,.76-.33,9,9,0,0,1,1.16-.28l1.26-.22c.4-.06.77-.11,1.1-.14l.68-.05a2.61,2.61,0,0,1,.69.06,2.39,2.39,0,0,0,.66.09.47.47,0,0,0,.19-.08.49.49,0,0,1,.24,0h.1a5.43,5.43,0,0,1,1,.38,5.34,5.34,0,0,1,.82.55,2.44,2.44,0,0,1,.54.53,1.26,1.26,0,0,1,.06.72l-.48.43.33.19-.07.39-.07.21a3.67,3.67,0,0,0-.05,1,3,3,0,0,1-.1,1.05.9.9,0,0,1-.19.42,1.45,1.45,0,0,1-.43.35L41.58,52l-.1.36c.12.87.21,1.76.29,2.68a9,9,0,0,1-.19,2.77l-.4,0-.22,0-.21-.05-.3,0a.17.17,0,0,0,0,.12.09.09,0,0,1,0,.12l-.18.22q-.14.16-.3.33a4,4,0,0,1-.32.29.49.49,0,0,1-.25.12c-.1,0-.16,0-.17-.1a1.2,1.2,0,0,1,0-.23.77.77,0,0,0-.06-.23.19.19,0,0,0-.19-.09.29.29,0,0,0-.14.08l-.21.18-.2.19c-.07.07-.11.11-.15.12s-.06.07-.14.1-.32-.08-.42-.3a3.55,3.55,0,0,1-.24-.84,9.36,9.36,0,0,1-.11-1.15c0-.42,0-.83,0-1.23s0-.74,0-1.05,0-.53,0-.66S37.24,53.51,37.12,53.51Zm.81-2.69,0,.17c0,.06,0,.11.12.14a2.17,2.17,0,0,0,.66-.19.9.9,0,0,0,.47-.43l1.39-2.16,0-.22a.61.61,0,0,0,0-.42c0-.13-.1-.27-.17-.41l-.18-.4a1,1,0,0,1-.06-.42c0-.12,0-.17-.19-.17H39.9l-.35.06-.44.07-.4.06c-.12,0-.19,0-.2,0a.52.52,0,0,0-.21.05.31.31,0,0,0-.08.14v.07a.73.73,0,0,1,.62.3,1.05,1.05,0,0,1,.1.66,8.77,8.77,0,0,1-.49,1.53A9.75,9.75,0,0,0,37.93,50.82Z" style="fill:#423c25"/><path d="M47.46,57.88l-.24.57a.67.67,0,0,1-.29,0,4.17,4.17,0,0,0-.5,0,4.71,4.71,0,0,1-.53,0,1.58,1.58,0,0,1-.41,0c-.11,0-.15-.1-.12-.19a.64.64,0,0,0,0-.29,1.25,1.25,0,0,1,0-.29l0-.14a.27.27,0,0,0-.17-.34c-.13,0-.21.09-.24.28a2.18,2.18,0,0,1-.12.46.38.38,0,0,1-.12.2h-.07l-.2,0h-.21a.34.34,0,0,0-.16.07.08.08,0,0,1-.11,0,1.74,1.74,0,0,1-.21-.41,3,3,0,0,1-.16-.48,2.65,2.65,0,0,1-.07-.44,1.28,1.28,0,0,1,0-.3l0-.15a.59.59,0,0,0,.05-.19.88.88,0,0,1,0-.17l0-.07,1.92-6,.57-.3.4-.21a.61.61,0,0,0,.18-.13l-.72-.39c0-.05,0-.12.07-.23a3.43,3.43,0,0,1,.12-.33,3.73,3.73,0,0,1,.16-.35.58.58,0,0,1,.18-.24.73.73,0,0,1,.13-.17,1.1,1.1,0,0,0,.15-.17l0-.16h-.29a6.72,6.72,0,0,1-.73-.05c-.26,0-.38-.11-.35-.22a1.16,1.16,0,0,1,.14-.19,1.19,1.19,0,0,0,.15-.22v0a0,0,0,0,0,0-.07s0,0,.06-.07l.48-.32-.29-.28a.08.08,0,0,1,0-.11s0-.07,0-.09a.5.5,0,0,1,.28-.14.24.24,0,0,0,.22-.17l0-.07a.7.7,0,0,0,0-.19,2.81,2.81,0,0,1-.1-.31,3,3,0,0,1-.07-.3c0-.09,0-.15,0-.18a2.63,2.63,0,0,1,1.08-.42,12.71,12.71,0,0,1,1.56-.24c.55-.06,1.06-.1,1.54-.11l1,0,.74.05h.36a2.77,2.77,0,0,0,.38,0h.12c.4.1.75.19,1,.28a3.34,3.34,0,0,1,.86.44,3.62,3.62,0,0,1,.59.48.93.93,0,0,1,.11.65,13,13,0,0,1,0,1.78c-.05.43-.09.81-.12,1.13,0,.13-.07.26-.11.42s-.08.3-.11.46c-.14.48-.32,1-.53,1.67s-.45,1.29-.73,2-.59,1.33-.92,2a14.37,14.37,0,0,1-1.07,1.76,6.83,6.83,0,0,1-1.2,1.29,2.44,2.44,0,0,1-1.33.55l-1.4.29c0-.07,0-.11.08-.12s0,0,0,0Zm.41-2.26a.47.47,0,0,0,0,.17.11.11,0,0,0,.11.14,1.46,1.46,0,0,0,.4-.15l.5-.3a3.38,3.38,0,0,0,.44-.35.7.7,0,0,0,.22-.3l2.38-6.67.07-.22a.88.88,0,0,0-.05-.4c0-.12-.1-.24-.16-.36l-.15-.36a1,1,0,0,1-.07-.39.24.24,0,0,1-.11-.06.29.29,0,0,0-.16-.06h.19l-.37,0-.54-.06L50,46.16h-.26l-.19.06a.54.54,0,0,0-.07.14l0,.07a.49.49,0,0,1,.38.14.86.86,0,0,1,.17.36,1.41,1.41,0,0,1,0,.46c0,.16,0,.3,0,.43a3.53,3.53,0,0,0,0,.36,3.37,3.37,0,0,1,0,.5,4.48,4.48,0,0,1-.15.64,3.85,3.85,0,0,1-.33.73,11.07,11.07,0,0,0-.65,1.37,15.7,15.7,0,0,0-.52,1.6,14.48,14.48,0,0,0-.34,1.51A4.06,4.06,0,0,0,47.87,55.62Z" style="fill:#423c25"/><path d="M53.79,57.49v-.05a.28.28,0,0,1,.2-.1l.34-.08.47-.08s0-.07,0-.16-.09-.17-.13-.26-.12-.2-.22-.35l1.46,0s0-.1-.12-.15a.76.76,0,0,0-.28-.09l-.56-.12c-.14,0-.27-.11-.38-.32,0,0,.06-.06.08-.15a1.84,1.84,0,0,1,.09-.25.76.76,0,0,1,.13-.23A.26.26,0,0,1,55,55a1.15,1.15,0,0,1,.59.2,1.42,1.42,0,0,0,.78.21,1.28,1.28,0,0,0,.63-.16,1.89,1.89,0,0,0,.5-.38,2.38,2.38,0,0,0,.37-.51,2.09,2.09,0,0,0,.23-.54.28.28,0,0,1,.22-.16c.11,0,.15-.09.14-.17l-.16-.18L58.06,53l-.28-.33a.59.59,0,0,1-.12-.21,1.51,1.51,0,0,0-.08-.31,5.52,5.52,0,0,1-.17-.53l-.17-.53a1.12,1.12,0,0,1-.08-.28c-.13-.31-.24-.56-.33-.76a2.78,2.78,0,0,1-.19-.6,1.92,1.92,0,0,1,0-.68,5.87,5.87,0,0,1,.24-1,8.39,8.39,0,0,1,.8-1.92,5,5,0,0,1,1.25-1.42,5.44,5.44,0,0,1,1.81-.87,9.13,9.13,0,0,1,2.47-.3h.08s0,0-.08.09l-.21.23-.22.23c-.06.06-.09.09-.07.09a.75.75,0,0,0,.18-.07,3.42,3.42,0,0,1,.36-.14l.37-.15a1,1,0,0,1,.22-.07,1.27,1.27,0,0,1,.41.06q.17.06.09.33a.38.38,0,0,1-.14.2l-.23.1-.25.07a.33.33,0,0,0-.19.13s-.05.07-.15.16l-.31.27-.41.36,1.61-.65s0,.06,0,.18a3.5,3.5,0,0,1,0,.41c0,.16,0,.3-.07.45a1.22,1.22,0,0,1-.06.28.65.65,0,0,1-.41.42,4.22,4.22,0,0,1-.67.26l-.3.07-.42.11-.41.1-.28.08c-.21.11-.32.23-.34.36a.72.72,0,0,0,0,.37c0,.17,0,.34.08.51s.07.35.1.52a2.55,2.55,0,0,1,0,.35l-.48.67a1.21,1.21,0,0,0,.29-.1.54.54,0,0,1,.19,0c.17,0,.31.13.43.4l.25.81c.1.34.2.71.28,1.11s.14.79.18,1.17a2.67,2.67,0,0,1,0,.92l0,0A5.13,5.13,0,0,0,61.87,55a4.46,4.46,0,0,1-.71,1c0,.07-.14.17-.27.33s-.28.31-.42.48l-.43.46-.34.32a2,2,0,0,1-.79.36,10.08,10.08,0,0,1-1.19.22c-.43.06-.84.1-1.24.12s-.7,0-.91,0a2.18,2.18,0,0,1-.5-.07,4.31,4.31,0,0,1-.61-.19,2.2,2.2,0,0,1-.51-.28A.34.34,0,0,1,53.79,57.49Z" style="fill:#423c25"/></g></g></svg>