<svg xmlns="http://www.w3.org/2000/svg" width="125" height="80" viewBox="0 0 125 80"><g id="a1f39eb5-49b5-47b4-bf42-baf35bb2551e" data-name="icon VA vecto"><g id="bb57af4c-4804-4717-bdeb-412930c709d0" data-name="barbare phrases - copie 3"><rect x="0.18" y="-0.54" width="125" height="80" style="fill:#fff"/><path d="M129.16,18.07l-7.4-.36a.1.1,0,0,1-.08-.06.06.06,0,0,1,0-.06l1.3-4.14s0,0,0,0h0Z" style="fill:#423c25"/><path d="M124.51,1.56l-2.92,5.55a.22.22,0,0,1-.2.12.27.27,0,0,1-.14-.05l-3.18-2.61a.1.1,0,0,1,0-.14.07.07,0,0,1,0,0Z" style="fill:#423c25"/><path d="M121.83,19.44a2.77,2.77,0,0,0-.21-1.76l.06,0a.1.1,0,0,0,.08.06l7.4.36L123,13.43h0v0a2.7,2.7,0,0,0,1.5-1l10.71,7.68Z" style="fill:#fff"/><path d="M121.59,7.11l2.92-5.55L118.1,4.39a.07.07,0,0,0,0,0l-.1,0a2.63,2.63,0,0,0-.14-1.8l11.95-6.23L123,8a2.88,2.88,0,0,0-1.64-.63V7.23A.22.22,0,0,0,121.59,7.11Z" style="fill:#fff"/><path d="M117,21.79a.12.12,0,0,1,0,.09l-.24,7.54-4-6.33a.14.14,0,0,1,0-.15.16.16,0,0,1,.11-.1l4-1.08A.14.14,0,0,1,117,21.79Z" style="fill:#423c25"/><path d="M113.88,11.39a2.33,2.33,0,1,1-3.27.3A2.32,2.32,0,0,1,113.88,11.39Z" style="fill:#fff"/><path d="M112.58,23.05a.28.28,0,0,0,0-.13l.13,0a.14.14,0,0,0,0,.15l4,6.33.24-7.54a.12.12,0,0,0,0-.09l0-.07a2.92,2.92,0,0,0,1.3.48V35.92l-7.2-11.32A2.58,2.58,0,0,0,112.58,23.05Z" style="fill:#fff"/><path d="M111.85,2.39a.16.16,0,0,1,0,.15.15.15,0,0,1-.12.12L108,3.83h-.11a.16.16,0,0,1-.09-.17l.72-7.26Z" style="fill:#423c25"/><path d="M107.8,3.66a.16.16,0,0,0,.09.17l-.09.1a2.71,2.71,0,0,0-1.86-.82l1-13.49,6.55,11.71A2.68,2.68,0,0,0,112,2.59l-.11,0a.16.16,0,0,0,0-.15l-3.33-6Z" style="fill:#fff"/><path d="M103.53,18.58a.17.17,0,0,0-.13.09l-3.65,6.11,7-3.86,0,0,.06,0a1.49,1.49,0,0,0-.17.44,2.59,2.59,0,0,0,.34,1.87L94.89,29.35l6.91-11.5a2.67,2.67,0,0,0,1.73.66Z" style="fill:#fff"/><path d="M106.7,20.92l-7,3.86,3.65-6.11a.17.17,0,0,1,.13-.09.12.12,0,0,1,.09,0l3.09,2.16a.1.1,0,0,1,0,.12Z" style="fill:#423c25"/><path d="M107.2,20.36a2.43,2.43,0,0,0-.4.56l-.06,0a.1.1,0,0,0,0-.12l-3.09-2.16a.12.12,0,0,0-.09,0v-.07a1.54,1.54,0,0,0,.3,0c1.31-.28,1.89-1.94,1.86-3.09,0-.14-.1-2.38-1.86-2.92a2.86,2.86,0,0,0-1.56-.06l0-.07a.18.18,0,0,0,.09-.1l1.13-3.61a.14.14,0,0,0-.08-.18l.06-.09c1,.77,2.54.39,3.44-.22.11-.07,2-1.34,1.49-3.12a2.41,2.41,0,0,0-.58-1.08l.09-.1H108l3.74-1.17a.15.15,0,0,0,.12-.12l.11,0a.7.7,0,0,0-.08.2c-.41,1.28.74,2.6,1.76,3.15.12.06,2.11,1.09,3.46-.17A2.93,2.93,0,0,0,118,4.4l.1,0a.1.1,0,0,0,0,.14l3.18,2.61a.27.27,0,0,0,.14.05v.12a1.92,1.92,0,0,0-.41.05c-1.31.3-1.85,2-1.8,3.12,0,.13.14,2.37,1.9,2.89a3.48,3.48,0,0,0,1.92,0v0s0,0,0,0l-1.3,4.14a.06.06,0,0,0,0,.06l-.06,0a1.31,1.31,0,0,0-.21-.33c-.87-1-2.6-.74-3.61-.17-.11.07-2,1.21-1.69,3a2.39,2.39,0,0,0,.91,1.52l0,.07a.14.14,0,0,0-.12,0l-4,1.08a.16.16,0,0,0-.11.1l-.13,0c.23-1.26-1-2.44-2-2.91C110.53,20,108.48,19,107.2,20.36Zm7-5.7a2.32,2.32,0,1,0-3.27.3A2.32,2.32,0,0,0,114.17,14.66Z" style="fill:#423c25"/><path d="M102.34,12.23a.18.18,0,0,1-.09.1.16.16,0,0,1-.12,0l-6.51-4,7.7.16h.07a.14.14,0,0,1,.08.18Z" style="fill:#423c25"/><path d="M102.27,12.4a2.65,2.65,0,0,0-1.49,1l-11.46-7,13.41-.24a2.6,2.6,0,0,0,.55,2.06.8.8,0,0,0,.17.15l-.06.09h-.07l-7.7-.16,6.51,4a.16.16,0,0,0,.12,0Z" style="fill:#fff"/><path d="M121.4,7.35A2.88,2.88,0,0,1,123,8l6.72-11.61L117.81,2.6A2.63,2.63,0,0,1,118,4.4a2.93,2.93,0,0,1-.84,1.37c-1.35,1.26-3.34.23-3.46.17-1-.55-2.17-1.87-1.76-3.15a.7.7,0,0,1,.08-.2,2.68,2.68,0,0,1,1.47-1.26l-6.55-11.71-1,13.49a2.71,2.71,0,0,1,1.86.82A2.41,2.41,0,0,1,108.38,5c.47,1.78-1.38,3.05-1.49,3.12-.9.61-2.48,1-3.44.22a.8.8,0,0,1-.17-.15,2.6,2.6,0,0,1-.55-2.06l-13.41.24,11.46,7.05a2.65,2.65,0,0,1,1.49-1,2.86,2.86,0,0,1,1.56.06c1.76.54,1.86,2.78,1.86,2.92,0,1.15-.55,2.81-1.86,3.09a1.54,1.54,0,0,1-.3,0,2.67,2.67,0,0,1-1.73-.66l-6.91,11.5L107,23.23a2.59,2.59,0,0,1-.34-1.87,1.49,1.49,0,0,1,.17-.44,2.43,2.43,0,0,1,.4-.56c1.28-1.32,3.33-.41,3.44-.35,1,.47,2.2,1.65,2,2.91a.28.28,0,0,1,0,.13,2.58,2.58,0,0,1-1.46,1.55l7.2,11.32V22.2a2.92,2.92,0,0,1-1.3-.48,2.39,2.39,0,0,1-.91-1.52c-.35-1.81,1.58-2.95,1.69-3,1-.57,2.74-.86,3.61.17a1.31,1.31,0,0,1,.21.33,2.77,2.77,0,0,1,.21,1.76l13.39.64L124.51,12.4a2.7,2.7,0,0,1-1.5,1,3.48,3.48,0,0,1-1.92,0c-1.76-.52-1.9-2.76-1.9-2.89,0-1.16.49-2.82,1.8-3.12A1.92,1.92,0,0,1,121.4,7.35Z" style="fill:none;stroke:#423c25;stroke-miterlimit:10;stroke-width:0.60077714920044px"/><path d="M106.74,20.89l0,0-7,3.86,3.65-6.11a.17.17,0,0,1,.13-.09.12.12,0,0,1,.09,0l3.09,2.16A.1.1,0,0,1,106.74,20.89Z" style="fill:none;stroke:#423c25;stroke-miterlimit:10;stroke-width:0.60077714920044px"/><path d="M112.74,22.94a.14.14,0,0,0,0,.15l4,6.33.24-7.54a.12.12,0,0,0,0-.09.14.14,0,0,0-.12,0l-4,1.08A.16.16,0,0,0,112.74,22.94Z" style="fill:none;stroke:#423c25;stroke-miterlimit:10;stroke-width:0.60077714920044px"/><path d="M123,13.43h0l6.13,4.64-7.4-.36a.1.1,0,0,1-.08-.06.06.06,0,0,1,0-.06l1.3-4.14S123,13.43,123,13.43Z" style="fill:none;stroke:#423c25;stroke-miterlimit:10;stroke-width:0.60077714920044px"/><path d="M118.05,4.43a.07.07,0,0,1,0,0l6.41-2.83-2.92,5.55a.22.22,0,0,1-.2.12.27.27,0,0,1-.14-.05l-3.18-2.61A.1.1,0,0,1,118.05,4.43Z" style="fill:none;stroke:#423c25;stroke-miterlimit:10;stroke-width:0.60077714920044px"/><path d="M111.86,2.54a.16.16,0,0,0,0-.15l-3.33-6-.72,7.26a.16.16,0,0,0,.09.17H108l3.74-1.17A.15.15,0,0,0,111.86,2.54Z" style="fill:none;stroke:#423c25;stroke-miterlimit:10;stroke-width:0.60077714920044px"/><path d="M102.25,12.33a.16.16,0,0,1-.12,0l-6.51-4,7.7.16h.07a.14.14,0,0,1,.08.18l-1.13,3.61A.18.18,0,0,1,102.25,12.33Z" style="fill:none;stroke:#423c25;stroke-miterlimit:10;stroke-width:0.60077714920044px"/><path d="M113.88,11.39a2.33,2.33,0,1,1-3.27.3A2.32,2.32,0,0,1,113.88,11.39Z" style="fill:none;stroke:#423c25;stroke-miterlimit:10;stroke-width:0.60077714920044px"/><rect x="0.18" y="-0.54" width="125" height="80" style="fill:none;stroke:#423c25;stroke-miterlimit:10;stroke-width:2px"/><path d="M6.36,33a.22.22,0,0,1-.22,0,4,4,0,0,0-.7.06c-.24,0-.36,0-.38-.18a5.59,5.59,0,0,1-.68-.12l-.61-.15c-.13,0-.2,0-.22,0a.29.29,0,0,1,0-.09c-.15-.05-.19-.08-.13-.1s.06-.06,0-.14,0-.23.29-.51a3.15,3.15,0,0,1-.09-.58,1.18,1.18,0,0,1,0-.42l.21-.7.27-.46s0-.07.12-.07.39,0,.79.07a.8.8,0,0,0-.12-.15,3.69,3.69,0,0,0-.28-.28l-.26-.25c-.07-.07-.09-.11-.06-.11l1.37-5.13s0-.06.12-.12l.26-.22.26-.23c.09-.07.13-.11.13-.13a1,1,0,0,0,0-.22c0-.12,0-.26,0-.4v-.65l.12-.31.22-.52c.08-.18.16-.36.25-.52a1,1,0,0,1,.2-.28.9.9,0,0,1,.17-.21c.12-.12.18-.19.2-.2l.07-.24H7.1q-.42,0-.36-.21a1.92,1.92,0,0,1,.09-.26c0-.15.09-.25.11-.3l1.17-.07a.41.41,0,0,0-.17-.09l-.36-.16-.36-.17c-.11-.05-.16-.09-.16-.11l.14-.38,0-.14c0-.12.06-.24.08-.36a1.35,1.35,0,0,0,0-.24,3.42,3.42,0,0,0,.18-.6.72.72,0,0,1,.3-.48A2.67,2.67,0,0,1,9,15.3a13.66,13.66,0,0,1,1.62-.3,15.45,15.45,0,0,1,1.59-.13l1,0,.84.07H15a5.67,5.67,0,0,1,1.06.43,5.21,5.21,0,0,1,.88.65,2.09,2.09,0,0,1,.66.59,1.11,1.11,0,0,1,.06.8c0,.47,0,.87,0,1.23s-.07.66-.11.93-.09.52-.13.75-.1.44-.15.64a1.67,1.67,0,0,1-.47.86,4.57,4.57,0,0,1-.69.54c-.25.16-.49.32-.74.5a2,2,0,0,0-.57.72,2.59,2.59,0,0,1,.44.6,3.76,3.76,0,0,1,.34.79,3.14,3.14,0,0,1,.13.94,4.4,4.4,0,0,1-.14,1.05l-.24.68q-.12.33-.3.75c-.12.28-.27.59-.45.94s-.39.73-.64,1.16a3.56,3.56,0,0,1-.24.48,1.64,1.64,0,0,1-.29.35,3.17,3.17,0,0,1-.4.29,6.3,6.3,0,0,1-.59.3,12.75,12.75,0,0,1-1.24.65,9.43,9.43,0,0,1-1.3.43H9.28l-.35,0L8,33a1.53,1.53,0,0,0-.37.08,1.89,1.89,0,0,1-.59,0l0-.24c0-.2,0-.3,0-.32Zm2-3.91.47.14a4.38,4.38,0,0,0,.68.15.44.44,0,0,0,.32-.19q.25-.48.6-1a5.67,5.67,0,0,0,.52-1.05l.05-.24L10.66,26a.62.62,0,0,0-.11-.33,1.4,1.4,0,0,0-.28-.32,2.8,2.8,0,0,0-.35-.25A1,1,0,0,0,9.6,25l-.22.82q-.08.24-.27.93c-.14.47-.31,1-.52,1.56a.34.34,0,0,1,0,.23.49.49,0,0,1-.1.13Zm2.32-6.78a.3.3,0,0,0,.25.2,1.32,1.32,0,0,0,.54-.18,1.34,1.34,0,0,0,.4-.46l.81-.84.07-.24c.08-.34.16-.68.22-1a9.36,9.36,0,0,0,.12-1s-.07-.05-.2-.11l-.28-.11a3.83,3.83,0,0,0-.42.08l-.43.09-.35.09-.17,0a.59.59,0,0,0-.2.05s0,.07-.09.17l0,.09c.32,0,.48.14.47.32a4.51,4.51,0,0,1-.14.74,3.81,3.81,0,0,1-.16.61,2.26,2.26,0,0,1-.15.31c0,.09-.1.2-.15.32a2.79,2.79,0,0,0-.18.63S10.61,22.15,10.67,22.27Z" style="fill:#423c25"/><path d="M15.7,31.69h-.1l-.12.1-.27.93s0,0,0,0a.21.21,0,0,0-.1.06H15c-.1,0-.16-.08-.19-.24s0-.27,0-.31,0-.16.06-.28.06-.25.1-.4.07-.25.11-.37l.09-.25a.23.23,0,0,1-.08-.14l.05-.17,0-.15.24-.74c.11-.34.24-.71.4-1.13l.48-1.32q.24-.69.48-1.32l.41-1.13c.12-.33.2-.58.25-.74.21-.37.43-.74.67-1.1a8.82,8.82,0,0,0,.62-1.11l1.14-2.33a15.4,15.4,0,0,1,1.41-2.28s.11,0,.19.08a3.78,3.78,0,0,1,.25.34l.25.39c.08.12.14.18.17.18s.1-.06.16-.18a3.53,3.53,0,0,0,.15-.39c.05-.13.1-.26.15-.37s.08-.16.12-.14h2.21l.48-.17s.08,0,.09.06a1.06,1.06,0,0,1,0,.19,1.49,1.49,0,0,0,0,.21q0,.09.06.09a.66.66,0,0,0,.25,0,1.32,1.32,0,0,1,.29,0,.4.4,0,0,1,.22.09.22.22,0,0,1,0,.24l-.67,2.31a1.7,1.7,0,0,0-.05.54,5,5,0,0,0,.09.51c0,.18.07.35.11.52a2.4,2.4,0,0,1,0,.54c-.05.19-.13.52-.23,1s-.21,1-.32,1.5-.22,1-.33,1.5-.18.81-.22,1l0,.1a17.92,17.92,0,0,1-.29,2.29c-.14.76-.33,1.53-.55,2.31a2.13,2.13,0,0,1-.63-.09,2,2,0,0,0-.64-.1.22.22,0,0,0-.18.1c-.06.06-.11.13-.17.2l-.18.21a.3.3,0,0,1-.21.09c-.09,0-.12,0-.1-.17s0-.23.06-.37,0-.26.06-.37,0-.17-.07-.17-.06,0-.11.11-.11.15-.17.23l-.25.33a2.86,2.86,0,0,1-.17.28,1.05,1.05,0,0,1-.24.28s0,.06-.12.09v0h0c-.24,0-.36-.16-.37-.47a4.79,4.79,0,0,1,.09-1c.06-.38.12-.72.16-1s0-.46-.12-.46h-.67a.63.63,0,0,0-.55.21L19,31.11l-.31,1.16a4.26,4.26,0,0,1-.18.42,2.43,2.43,0,0,1-.16.3l-.14.09H16.44L16,32.63l-.22-.1a.26.26,0,0,1,0-.2,1.64,1.64,0,0,1,.07-.28.85.85,0,0,0,0-.25C15.87,31.73,15.81,31.69,15.7,31.69Zm4.72-5.23s0,.09-.07.19,0,.15.1.17a5.68,5.68,0,0,0,.67-.12.6.6,0,0,0,.48-.41.58.58,0,0,1,.08-.1l.09-.09a2.07,2.07,0,0,1,.05-.41c0-.19.06-.4.09-.61s.07-.42.11-.61a1.86,1.86,0,0,1,.11-.41.84.84,0,0,1,0-.19c0-.1,0-.2.05-.29a1.26,1.26,0,0,0,0-.27q0-.12-.06-.12c-.14,0-.31.16-.49.48a11.79,11.79,0,0,0-.55,1.07c-.19.39-.34.76-.47,1.11S20.44,26.39,20.42,26.46Z" style="fill:#423c25"/><path d="M30.5,27.78l-.09,0-.19.39c0,.12-.11.34-.22.64l-.35,1-.33,1c-.11.31-.18.52-.21.65a.63.63,0,0,1-.08.35,1.14,1.14,0,0,1-.16.3.13.13,0,0,1-.14.1l-.12,0-.11,0s-.06,0-.06.05l-.17.76h-.12c-.09,0-.14,0-.14,0-.32,0-.52-.18-.59-.4a.77.77,0,0,1,.16-.7c-.08-.05-.12-.08-.1-.08h-.07a.29.29,0,0,0-.22.11,1.46,1.46,0,0,0-.17.24c0,.09-.09.17-.13.25a.4.4,0,0,1-.13.17h-.05l-.05,0h-.5l-.25,0-.25,0h-.15a.31.31,0,0,1-.36-.2,1.42,1.42,0,0,1-.09-.52,3.86,3.86,0,0,1,0-.6,3.5,3.5,0,0,1,.1-.41l.05-.14.08-.2a.18.18,0,0,0,0-.16l0-.1,1.94-5.49a1.33,1.33,0,0,0,.09-.23,1.71,1.71,0,0,1,.08-.23.77.77,0,0,0,.13-.24c.06-.13.12-.26.18-.41a3,3,0,0,0,.16-.4c0-.13.07-.21.08-.24l.12-.27c.06-.13.14-.27.22-.43s.16-.3.24-.43a1.63,1.63,0,0,1,.19-.27s.07-.08.17-.19a.82.82,0,0,0,.14-.19l0-.1,0-.09h-.24l-.38,0a1.54,1.54,0,0,1-.34-.08c-.1,0-.13-.1-.1-.18s0-.08.15-.18a.62.62,0,0,0,.14-.21l.13,0,.22-.06.19-.07q.09,0,.06-.06L28.54,20l.09-.31s0-.06,0-.12a.16.16,0,0,0,0-.1.5.5,0,0,1,.21-.09l.23,0,.21,0a.18.18,0,0,0,.12-.12l-.44-.56c-.09-.12-.05-.25.12-.37a3,3,0,0,1,.77-.33A9.24,9.24,0,0,1,31,17.65l1.26-.22c.41-.06.78-.11,1.11-.14l.68-.05a2.61,2.61,0,0,1,.69.06,2.39,2.39,0,0,0,.66.09.47.47,0,0,0,.19-.08.49.49,0,0,1,.24,0h.09a5.27,5.27,0,0,1,1,.38,4.83,4.83,0,0,1,.81.55,2.06,2.06,0,0,1,.54.53,1.1,1.1,0,0,1,.06.72l-.48.43.34.19-.07.39-.07.21a3.67,3.67,0,0,0-.05,1,3,3,0,0,1-.1,1.05.9.9,0,0,1-.19.42,1.59,1.59,0,0,1-.43.35L35,26.24l-.1.36c.11.87.21,1.76.29,2.68A9.27,9.27,0,0,1,35,32.05l-.4,0L34.34,32l-.2-.05a1.24,1.24,0,0,0-.3,0s0,.07,0,.12a.09.09,0,0,1,0,.12s-.09.12-.18.22-.19.22-.3.33A4,4,0,0,1,33,33a.48.48,0,0,1-.26.12c-.09,0-.15,0-.16-.1a1.2,1.2,0,0,1,0-.23.77.77,0,0,0-.06-.23.2.2,0,0,0-.19-.09s-.08,0-.15.08l-.2.18-.2.19a.53.53,0,0,1-.15.12s-.06.07-.14.1-.32-.08-.42-.3a2.8,2.8,0,0,1-.24-.84,9.36,9.36,0,0,1-.11-1.15c0-.43,0-.83,0-1.23s0-.74,0-1.05,0-.53,0-.66S30.63,27.78,30.5,27.78Zm.82-2.69-.05.17c0,.06,0,.11.12.14a2.17,2.17,0,0,0,.66-.19.94.94,0,0,0,.47-.43l1.39-2.16L34,22.4A.61.61,0,0,0,34,22c-.05-.13-.1-.27-.17-.41l-.18-.4a1,1,0,0,1-.06-.42c0-.12,0-.17-.19-.17h-.07l-.35.06-.44.07-.4.06c-.12,0-.19,0-.2.05a.47.47,0,0,0-.21.05.31.31,0,0,0-.08.14v.07a.73.73,0,0,1,.62.3,1.05,1.05,0,0,1,.1.66,9,9,0,0,1-.49,1.53A9.75,9.75,0,0,0,31.32,25.09Z" style="fill:#423c25"/><path d="M39,33c-.05,0-.11,0-.19,0a4,4,0,0,0-.62.05c-.2,0-.29,0-.29-.15-.23,0-.43-.06-.61-.1l-.54-.14q-.18.06-.18,0a.25.25,0,0,1,0-.07c-.12-.05-.17-.08-.13-.09s.05-.06,0-.12,0-.21.21-.44a4.26,4.26,0,0,1,0-.5,1.17,1.17,0,0,1,0-.38l.17-.6.22-.41s0,0,.12,0l.67,0s0-.06-.11-.13a2.66,2.66,0,0,0-.24-.23l-.23-.22c-.06-.06-.08-.09,0-.09l1.2-4.47s0-.05.1-.11a1.92,1.92,0,0,0,.23-.19l.23-.2.11-.12a.45.45,0,0,0,0-.17v-.36c0-.14,0-.27,0-.38s0-.18,0-.2a2.66,2.66,0,0,1,.09-.27q.08-.21.18-.45c.07-.16.15-.3.22-.44a.63.63,0,0,1,.18-.25A.68.68,0,0,1,40,21.6l.15-.18.07-.19h-.53c-.26,0-.36-.06-.31-.19a2.13,2.13,0,0,1,.08-.23c.06-.14.09-.22.11-.25l1-.07s0-.05-.14-.09l-.31-.13-.31-.14c-.1,0-.15-.08-.15-.1l.15-.34a.89.89,0,0,0,.08-.33,2.67,2.67,0,0,0,0-.31,3,3,0,0,0,.18-.53.67.67,0,0,1,.25-.41,2.56,2.56,0,0,1,1-.46,12.56,12.56,0,0,1,1.41-.26c.49-.06,1-.1,1.37-.12s.73,0,.9,0l.72.07H46l.38,0h.11a4.93,4.93,0,0,1,.94.39,4.59,4.59,0,0,1,.77.55,2.24,2.24,0,0,1,.54.53,1,1,0,0,1,.06.69,11.19,11.19,0,0,1-.13,1.88q-.14.66-.21,1.2a1.57,1.57,0,0,1-.42.74,3.51,3.51,0,0,1-.6.48c-.21.14-.43.29-.63.44a1.74,1.74,0,0,0-.51.62,2.29,2.29,0,0,1,.39.51A3.1,3.1,0,0,1,47,26a3.52,3.52,0,0,1,.12.82,2.79,2.79,0,0,1-.13.93c-.08.19-.16.38-.23.57s-.15.41-.25.65-.22.51-.36.82-.33.65-.55,1a4.65,4.65,0,0,1-.23.41,1.81,1.81,0,0,1-.25.3,2,2,0,0,1-.35.25c-.14.08-.3.17-.49.26a11.58,11.58,0,0,1-1.11.56,8.61,8.61,0,0,1-1.12.38h-.8l-.76.07a1.91,1.91,0,0,0-.36.07,1.57,1.57,0,0,1-.51,0l.07-.21a.86.86,0,0,0,0-.17v-.1Zm1.73-3.4a3.83,3.83,0,0,0,.42.13l.56.13a.49.49,0,0,0,.29-.17,8.75,8.75,0,0,1,.53-.9,3.84,3.84,0,0,0,.46-.9l0-.21L42.77,27a.8.8,0,0,0-.34-.58,1.43,1.43,0,0,0-.6-.34l-.17.72c0,.13-.11.4-.25.81s-.28.86-.44,1.35a.74.74,0,0,1-.12.32Zm2-5.9c.05.11.11.17.19.18a1.18,1.18,0,0,0,.49-.16,1.1,1.1,0,0,0,.33-.41l.72-.72,0-.22c.08-.29.14-.58.2-.87a6.82,6.82,0,0,0,.11-.88s-.07,0-.19-.1l-.24-.09a3.1,3.1,0,0,0-.38.07l-.37.08-.41.11a.69.69,0,0,0-.22.05.28.28,0,0,0-.09.14L43,21c.3,0,.45.12.44.27a3.12,3.12,0,0,1-.13.64,4.31,4.31,0,0,1-.13.54,2.17,2.17,0,0,1-.12.26,1.87,1.87,0,0,0-.13.28,2.65,2.65,0,0,0-.15.55A.32.32,0,0,0,42.79,23.73Z" style="fill:#423c25"/><path d="M47.35,31.69h-.1a.48.48,0,0,1-.12.1l-.26.93s0,0,0,0l-.09.06h-.08c-.09,0-.16-.08-.19-.24a.5.5,0,0,1,0-.31,2.57,2.57,0,0,0,.06-.28c0-.12.06-.25.11-.4s.07-.25.11-.37.07-.2.08-.25a.21.21,0,0,1-.07-.14l0-.17.05-.15c0-.16.12-.4.24-.74s.24-.71.39-1.13L48,27.32,48.44,26l.41-1.13c.12-.33.2-.58.25-.74.21-.37.43-.74.67-1.1a10.41,10.41,0,0,0,.63-1.11l1.14-2.33a16.17,16.17,0,0,1,1.4-2.28c.05,0,.11,0,.19.08a3.72,3.72,0,0,1,.26.34c.08.14.17.27.25.39s.13.18.17.18.1-.06.15-.18a3.52,3.52,0,0,0,.16-.39c.05-.13.09-.26.14-.37s.09-.16.12-.14h2.21l.48-.17s.08,0,.1.06l0,.19,0,.21q0,.09.06.09a.64.64,0,0,0,.25,0,1.37,1.37,0,0,1,.29,0,.37.37,0,0,1,.21.09c.06.05.07.13,0,.24l-.67,2.31a1.46,1.46,0,0,0,0,.54,3.17,3.17,0,0,0,.08.51c0,.18.08.35.11.52a1.93,1.93,0,0,1,0,.54c0,.19-.12.52-.22,1s-.22,1-.33,1.5-.22,1-.32,1.5-.18.81-.23,1l0,.1a19.91,19.91,0,0,1-.29,2.29c-.15.76-.33,1.53-.55,2.31A2.2,2.2,0,0,1,55,32a1.91,1.91,0,0,0-.64-.1.24.24,0,0,0-.18.1l-.16.2-.18.21a.33.33,0,0,1-.22.09c-.08,0-.11,0-.1-.17s0-.23.06-.37a2.83,2.83,0,0,0,.06-.37c0-.11,0-.17-.07-.17l-.11.11-.16.23c-.06.08-.14.19-.26.33a2.1,2.1,0,0,1-.16.28,1.05,1.05,0,0,1-.24.28s0,.06-.12.09v0h-.05c-.24,0-.37-.16-.37-.47a5.46,5.46,0,0,1,.08-1c.06-.38.12-.72.17-1s0-.46-.12-.46h-.67A.64.64,0,0,0,51,30l-.33,1.15-.31,1.16-.18.42A2.43,2.43,0,0,1,50,33l-.14.09H48.09l-.43-.45-.21-.1a.26.26,0,0,1,0-.2c0-.09,0-.18.07-.28a.48.48,0,0,0,0-.25C47.52,31.73,47.46,31.69,47.35,31.69Zm4.73-5.23a.87.87,0,0,0-.07.19c0,.1,0,.15.09.17a5.34,5.34,0,0,0,.67-.12.6.6,0,0,0,.48-.41l.09-.1a.22.22,0,0,0,.08-.09,3.31,3.31,0,0,1,0-.41c0-.19.06-.4.1-.61s.06-.42.1-.61a2.68,2.68,0,0,1,.11-.41,1.12,1.12,0,0,1,0-.19c0-.1,0-.2,0-.29a1.32,1.32,0,0,0,0-.27q0-.12-.06-.12c-.15,0-.31.16-.5.48s-.36.68-.55,1.07-.34.76-.47,1.11S52.09,26.39,52.08,26.46Z" style="fill:#423c25"/><path d="M62.16,27.78l-.1,0-.19.39a5.46,5.46,0,0,1-.22.64l-.34,1c-.12.34-.24.66-.34,1s-.17.52-.2.65a.79.79,0,0,1-.09.35,1.26,1.26,0,0,1-.15.3.15.15,0,0,1-.15.1l-.12,0-.11,0s-.06,0-.06.05l-.16.76h-.12c-.1,0-.15,0-.15,0a.63.63,0,0,1-.58-.4.74.74,0,0,1,.15-.7c-.08-.05-.11-.08-.1-.08h-.07a.28.28,0,0,0-.21.11,1,1,0,0,0-.17.24l-.13.25a.5.5,0,0,1-.13.17h-.05l0,0h-.51l-.25,0-.25,0h-.14a.31.31,0,0,1-.36-.2,1.24,1.24,0,0,1-.1-.52,3.83,3.83,0,0,1,0-.6,2.4,2.4,0,0,1,.09-.41l0-.14a1.29,1.29,0,0,1,.09-.2.3.3,0,0,0,0-.16l0-.1L59,24.9l.08-.23.08-.23a.73.73,0,0,0,.14-.24c0-.13.11-.26.18-.41s.11-.28.15-.4a4.64,4.64,0,0,1,.21-.51l.21-.43c.08-.16.16-.3.24-.43a1.55,1.55,0,0,1,.2-.27l.16-.19c.1-.11.15-.17.15-.19l0-.1,0-.09h-.23l-.39,0a1.54,1.54,0,0,1-.34-.08q-.14-.06-.09-.18a.68.68,0,0,1,.14-.18q.15-.17.15-.21l.13,0,.21-.06.2-.07s.07,0,.06-.06L60.19,20l.1-.31s0-.06,0-.12,0-.08,0-.1a.6.6,0,0,1,.22-.09l.23,0,.2,0a.18.18,0,0,0,.12-.12l-.43-.56c-.1-.12-.06-.25.12-.37a2.71,2.71,0,0,1,.77-.33,8.82,8.82,0,0,1,1.15-.28l1.26-.22c.41-.06.77-.11,1.1-.14l.69-.05a2.54,2.54,0,0,1,.68.06,2.5,2.5,0,0,0,.66.09.47.47,0,0,0,.19-.08.49.49,0,0,1,.24,0h.1a5.43,5.43,0,0,1,1,.38,4.9,4.9,0,0,1,.82.55,2.44,2.44,0,0,1,.54.53,1.1,1.1,0,0,1,.06.72l-.48.43.33.19-.07.39-.07.21a4.08,4.08,0,0,0,0,1,3.21,3.21,0,0,1-.09,1.05,1,1,0,0,1-.2.42,1.45,1.45,0,0,1-.43.35l-2.28,2.71-.09.36c.11.87.2,1.76.28,2.68a9,9,0,0,1-.19,2.77l-.39,0L66,32l-.21-.05a1.19,1.19,0,0,0-.29,0,.11.11,0,0,0,0,.12.11.11,0,0,1,0,.12l-.19.22a2.24,2.24,0,0,1-.3.33,4,4,0,0,1-.32.29.46.46,0,0,1-.25.12c-.1,0-.15,0-.17-.1a1.2,1.2,0,0,1,0-.23.44.44,0,0,0-.06-.23.19.19,0,0,0-.19-.09.29.29,0,0,0-.14.08l-.21.18-.2.19a.41.41,0,0,1-.14.12.26.26,0,0,1-.15.1q-.26,0-.42-.3a3.55,3.55,0,0,1-.24-.84,9.48,9.48,0,0,1-.1-1.15c0-.43,0-.83,0-1.23s0-.74,0-1.05,0-.53,0-.66S62.29,27.78,62.16,27.78ZM63,25.09l0,.17c0,.06,0,.11.12.14a2.35,2.35,0,0,0,.66-.19.92.92,0,0,0,.46-.43l1.4-2.16,0-.22a.61.61,0,0,0,0-.42,4.3,4.3,0,0,0-.16-.41,3.52,3.52,0,0,1-.18-.4.77.77,0,0,1-.06-.42c0-.12,0-.17-.2-.17h-.07l-.35.06-.44.07-.4.06a.52.52,0,0,0-.2.05.41.41,0,0,0-.2.05s-.06.06-.09.14v.07a.76.76,0,0,1,.63.3A1.13,1.13,0,0,1,64,22a8.23,8.23,0,0,1-.49,1.53A9.75,9.75,0,0,0,63,25.09Z" style="fill:#423c25"/><path d="M67.94,32.51l.24-.84c.35-1.46.71-2.89,1.06-4.29s.73-2.83,1.15-4.28l0-.17c0-.08.06-.15.08-.22a.82.82,0,0,0,.06-.16l0-.1a.4.4,0,0,1,.07-.14q.07-.12.15-.27l.16-.26a.41.41,0,0,0,.07-.15,1.48,1.48,0,0,1,.07-.22c.05-.12.1-.26.15-.4s.09-.28.14-.41l.1-.26.12-.28a2.1,2.1,0,0,0,.12-.42l.14-.5.15-.51a2.92,2.92,0,0,0,.09-.42,1,1,0,0,1,.07-.27,1.07,1.07,0,0,1,.24-.1l.47-.15.69-.23a.35.35,0,0,1,.32.13.77.77,0,0,1,.11.3c0,.11,0,.22,0,.31s0,.12.1.12h0a1,1,0,0,0,.21-.29.23.23,0,0,0,.1-.12.08.08,0,0,1,.07-.07,1.2,1.2,0,0,1,.31-.07l.24,0,.18.2.16.18h.12l.5-.19h.12s0,0,.07.09a.35.35,0,0,0,.12.1l-.12.41a30.28,30.28,0,0,1-1,3c-.39,1-.77,2-1.16,3a1.51,1.51,0,0,1-.33.49,1,1,0,0,0-.31.47,1.6,1.6,0,0,0-.06.69c0,.24,0,.46,0,.65l-.12.48L73,28.57l-.12.43c-.16.53-.33,1.11-.49,1.73a11.38,11.38,0,0,1-.64,1.78.16.16,0,0,1-.14.1l-.17,0a.22.22,0,0,1-.1,0h-.07a1.27,1.27,0,0,0-.23-.39.6.6,0,0,0-.44-.11h-.18c-.07,0-.12,0-.13,0l-.27.26a1.27,1.27,0,0,1-.31,0c-.16,0-.25,0-.26.06a.3.3,0,0,0-.16.07l-.22.14-.21.15-.13.09A1.08,1.08,0,0,1,67.94,32.51Z" style="fill:#423c25"/><path d="M74,31.69h-.1l-.12.1-.26.93s0,0,0,0a.27.27,0,0,0-.1.06h-.07c-.1,0-.16-.08-.19-.24a.5.5,0,0,1,0-.31c0-.07,0-.16.06-.28a2.73,2.73,0,0,1,.11-.4c0-.12.06-.25.1-.37l.09-.25a.21.21,0,0,1-.07-.14l0-.17,0-.15.24-.74c.11-.34.25-.71.4-1.13l.48-1.32L75.06,26l.41-1.13c.12-.33.2-.58.25-.74.21-.37.43-.74.67-1.1A8.82,8.82,0,0,0,77,21.92l1.14-2.33a15.4,15.4,0,0,1,1.41-2.28s.11,0,.19.08a3.78,3.78,0,0,1,.25.34l.25.39c.08.12.14.18.17.18s.1-.06.16-.18a3.53,3.53,0,0,0,.15-.39c0-.13.1-.26.15-.37s.09-.16.12-.14h2.21l.48-.17s.08,0,.09.06a1.06,1.06,0,0,1,0,.19c0,.07,0,.14,0,.21s0,.09.06.09a.67.67,0,0,0,.25,0,1.32,1.32,0,0,1,.29,0,.4.4,0,0,1,.22.09.22.22,0,0,1,0,.24L84,20.27a1.7,1.7,0,0,0,0,.54,5,5,0,0,0,.09.51c0,.18.07.35.11.52a1.93,1.93,0,0,1,0,.54c0,.19-.12.52-.23,1s-.21,1-.32,1.5-.22,1-.33,1.5-.18.81-.22,1l0,.1a17.92,17.92,0,0,1-.29,2.29,22.68,22.68,0,0,1-.55,2.31,2.18,2.18,0,0,1-.63-.09,2,2,0,0,0-.64-.1.24.24,0,0,0-.18.1c-.06.06-.11.13-.17.2a1.68,1.68,0,0,1-.18.21.29.29,0,0,1-.21.09c-.08,0-.12,0-.1-.17s0-.23.06-.37,0-.26.06-.37,0-.17-.07-.17,0,0-.11.11-.11.15-.17.23-.14.19-.25.33a2.86,2.86,0,0,1-.17.28.78.78,0,0,1-.24.28s0,.06-.12.09v0h0c-.24,0-.36-.16-.37-.47a4.79,4.79,0,0,1,.09-1c.06-.38.12-.72.16-1s0-.46-.12-.46h-.67a.63.63,0,0,0-.55.21l-.34,1.15-.31,1.16a4.26,4.26,0,0,1-.18.42l-.15.3-.15.09H74.71l-.43-.45-.22-.1a.26.26,0,0,1,0-.2,1.64,1.64,0,0,1,.07-.28.85.85,0,0,0,0-.25C74.14,31.73,74.08,31.69,74,31.69Zm4.72-5.23s0,.09-.07.19,0,.15.1.17a5.68,5.68,0,0,0,.67-.12.6.6,0,0,0,.48-.41.58.58,0,0,1,.08-.1L80,26.1a2.07,2.07,0,0,1,0-.41c0-.19.06-.4.09-.61s.07-.42.11-.61a2.68,2.68,0,0,1,.11-.41s0-.1,0-.19,0-.2,0-.29a.83.83,0,0,0,0-.27q0-.12-.06-.12c-.14,0-.31.16-.49.48s-.37.68-.55,1.07-.34.76-.47,1.11S78.71,26.39,78.69,26.46Z" style="fill:#423c25"/><path d="M85.7,31.64l-.72.6a.57.57,0,0,0-.43.21.6.6,0,0,1-.43.2c-.13,0-.2-.08-.22-.23a.73.73,0,0,1,0-.35L84,32l.36-.91,0-.1,0-.1L84.67,29l2.23-7.25a5.44,5.44,0,0,1-.39-1.31A3,3,0,0,1,86.59,19a1.51,1.51,0,0,1,.2-.2c.14-.12.29-.24.46-.36s.32-.23.46-.31.22-.12.25-.09l.65.79a.25.25,0,0,0,.24-.19l.14-.43a1.89,1.89,0,0,1,.2-.43.39.39,0,0,1,.33-.19h.14l.31,0,.32,0a23.66,23.66,0,0,1,1.72,4l-.16.46.38-.46a1.67,1.67,0,0,1,.1-.24l.21-.49.24-.55a3.1,3.1,0,0,0,.17-.47,1,1,0,0,0,.1-.26.5.5,0,0,1,.24-.32L94,19l-.41-.31c-.08,0-.12-.13-.11-.3A2.46,2.46,0,0,1,93.5,18l.07-.2a1.06,1.06,0,0,1,.4-.24c.2-.08.31-.08.32,0l0,.1c0,.13,0,.21,0,.25l.13.11a3.42,3.42,0,0,0,.65.06l1,.06a4.08,4.08,0,0,1,.88.16c.24.07.34.18.3.32a.37.37,0,0,0,0,.11l0,.11c-.06.14-.17.4-.31.76s-.3.76-.46,1.17l-.45,1.16c-.15.37-.25.63-.32.77l-.38,2.11-2.18,7.59a1.1,1.1,0,0,1-.27.16,2,2,0,0,1-.33.12,1.3,1.3,0,0,1-.29.08.36.36,0,0,1-.27-.16,2,2,0,0,1-.22-.36c-.08-.14-.14-.26-.2-.38a.82.82,0,0,0-.13-.23l-.53.38-.14.46a.22.22,0,0,1-.14.08.58.58,0,0,1-.2,0,.81.81,0,0,1-.7-.35,1,1,0,0,1-.21-.71l.29-3.38-.17-1.59h-.09c-.18.63-.37,1.26-.57,1.9s-.39,1.27-.56,1.9l-.12.4-.19.56c-.07.17-.16.4-.29.67l-.07.06-.08,0h-.12L87.29,32a.23.23,0,0,0-.22.13,2.09,2.09,0,0,0-.14.3,2.14,2.14,0,0,1-.17.3.3.3,0,0,1-.24.13l0,0a1.39,1.39,0,0,0-.1-.33.42.42,0,0,0-.19-.22.35.35,0,0,0-.26.19,1.43,1.43,0,0,0-.12.31,1.34,1.34,0,0,1-.12.3c-.05.09-.15.13-.31.13s-.18-.07-.16-.21a2.4,2.4,0,0,1,.14-.5c.08-.18.16-.36.24-.52S85.72,31.69,85.7,31.64Z" style="fill:#423c25"/><path d="M2.81,57.5v0c0-.06.15-.12.36-.17l.55-.11.29,0a1.26,1.26,0,0,0-.11-.28c-.07-.15-.15-.29-.22-.41a1.33,1.33,0,0,0-.13-.2l1.7,0c0-.07,0-.13-.14-.18A1.58,1.58,0,0,0,4.78,56a2.17,2.17,0,0,1-.42-.1,1,1,0,0,0-.26,0c-.12,0-.26-.12-.4-.36a.36.36,0,0,0,.09-.17c0-.1.07-.19.11-.29A1.59,1.59,0,0,1,4,54.79a.26.26,0,0,1,.21-.12,1.39,1.39,0,0,1,.71.22,1.55,1.55,0,0,0,.87.23A1.47,1.47,0,0,0,6.55,55a2,2,0,0,0,.6-.44,2.62,2.62,0,0,0,.45-.6,2.71,2.71,0,0,0,.25-.61.29.29,0,0,1,.23-.19c.12,0,.17-.1.17-.2a1.1,1.1,0,0,1-.2-.2l-.33-.38-.33-.39c-.1-.12-.14-.19-.14-.23a2.09,2.09,0,0,0-.09-.36c0-.19-.12-.39-.19-.61s-.14-.42-.19-.61a1.5,1.5,0,0,1-.08-.34c-.13-.35-.25-.64-.35-.86a2.87,2.87,0,0,1-.23-.68,2.34,2.34,0,0,1,0-.8,7,7,0,0,1,.26-1.16,9.92,9.92,0,0,1,.92-2.21,5.72,5.72,0,0,1,1.43-1.62,6.4,6.4,0,0,1,2.08-1,10.51,10.51,0,0,1,2.87-.34h.09s0,0-.08.12l-.25.26-.27.25c-.08.07-.11.11-.09.11l.21-.08a4.08,4.08,0,0,1,.42-.17l.43-.17a.8.8,0,0,1,.26-.08,1.25,1.25,0,0,1,.45.07c.13,0,.16.17.1.38a.35.35,0,0,1-.17.23l-.26.1-.28.08a.48.48,0,0,0-.23.17s-.05.09-.17.19l-.34.3-.33.29c-.09.09-.13.13-.12.13l1.8-.74s.05.06,0,.2,0,.29,0,.47a4.18,4.18,0,0,1-.07.51c0,.17-.06.28-.07.33a.75.75,0,0,1-.48.49,6.09,6.09,0,0,1-.77.28,2.15,2.15,0,0,1-.34.1l-.5.14-.5.12-.32.07a.75.75,0,0,0-.38.41.83.83,0,0,0,0,.4c0,.2,0,.4.08.62s.07.41.11.6.07.31.08.39l-.55.77a1.82,1.82,0,0,0,.33-.11.57.57,0,0,1,.25-.06c.19,0,.33.16.43.48s.18.51.3.91.23.83.33,1.29A9.22,9.22,0,0,1,13,52.29a3.06,3.06,0,0,1-.06,1.08v.05a5.91,5.91,0,0,0-.79,1.22,5.53,5.53,0,0,1-.79,1.2l-.33.39c-.15.17-.31.36-.49.55l-.5.54a2.6,2.6,0,0,1-.39.35,2,2,0,0,1-.9.42c-.42.1-.88.19-1.38.26s-1,.12-1.42.14-.82,0-1.07,0a3.22,3.22,0,0,1-.59-.08,5.36,5.36,0,0,1-.71-.23A2.76,2.76,0,0,1,3,57.89C2.82,57.77,2.76,57.64,2.81,57.5Z" style="fill:#423c25"/><path d="M13,56.51a6.48,6.48,0,0,1,.47-1.15,6.19,6.19,0,0,0,.47-1.15A19.69,19.69,0,0,0,14.43,52,20.11,20.11,0,0,1,15,49.7a8.66,8.66,0,0,1,.53-1.32,8.33,8.33,0,0,0,.5-1.3L16,47l.09-.27v-.07c0-.08-.09-.14-.22-.17a.81.81,0,0,0-.38,0L15.09,46a.16.16,0,0,1,0-.1l.42-.5.3-.35a.86.86,0,0,0,.17-.21l.46-.09.17,0-.23-.16a.69.69,0,0,0-.4-.15.08.08,0,0,1,0-.07.71.71,0,0,1,.37-.4,3.11,3.11,0,0,1,.71-.24,5.79,5.79,0,0,1,.86-.1l.78,0h.45c.54,0,1.08,0,1.6.06s1.05.06,1.59.06a1.88,1.88,0,0,0,.49-.06,2,2,0,0,1,.5-.06l0,.19c-.05.13-.08.2-.1.2s-.07.1-.15.22l-.16.23-.07.19-.55.32.38.31-.05.19a1.14,1.14,0,0,1-.43.48,3.75,3.75,0,0,1-.69.36,6,6,0,0,1-.76.24,5.81,5.81,0,0,1-.61.12l-.12.1s-.06.09-.08.19l-.12.41a2.71,2.71,0,0,1-.13.44l-.13.37,0,.1a.34.34,0,0,0,0,.17.15.15,0,0,1-.09.14l-.46.24.38,0q.08,0,0,.12a2.35,2.35,0,0,1-.1.22l0,.1c0,.06,0,.09.05.09h.12a5,5,0,0,0,.93-.09,4.29,4.29,0,0,1,.91-.1.35.35,0,0,1,.35.17.54.54,0,0,1,0,.38.63.63,0,0,1-.28.29,4.68,4.68,0,0,1-.5.28,4.5,4.5,0,0,0-.49.24q-.22.11-.24.18s.05.06.15.08a1.67,1.67,0,0,1,.34.11,1.33,1.33,0,0,1,.31.18c.09.07.1.18,0,.32a1.18,1.18,0,0,1-.46.57,2.09,2.09,0,0,1-.64.21l-.69.1a1.74,1.74,0,0,0-.66.2,1.4,1.4,0,0,0-.17.3c-.08.17-.15.36-.23.58l-.2.6a2.87,2.87,0,0,0-.12.35v0c0,.1,0,.21-.05.34l-.06.38c0,.13,0,.28-.06.46h1.78a.22.22,0,0,1,.18.06.21.21,0,0,1,0,.14l0,.18a.25.25,0,0,0,0,.17s0,.09.09.13l.19.13a.49.49,0,0,1,.16.21.5.5,0,0,1,0,.34.48.48,0,0,1-.29.3,3.52,3.52,0,0,1-.52.2,3.82,3.82,0,0,0-.51.18.43.43,0,0,0-.29.26l.17.26,0,.08a.38.38,0,0,1-.27.31,4.84,4.84,0,0,1-.54.07,11.85,11.85,0,0,0-1.25.14,2.29,2.29,0,0,1-1,0l-.72-.19-.33.19a.45.45,0,0,1-.35,0,2.07,2.07,0,0,0-.4,0h-.26a1.17,1.17,0,0,1-.57-.94A3.65,3.65,0,0,1,13,56.51Z" style="fill:#423c25"/><path d="M23.13,57.64l-.71.6a.58.58,0,0,0-.44.21.6.6,0,0,1-.43.2c-.13,0-.2-.08-.22-.23a.89.89,0,0,1,0-.35l0-.09.36-.91,0-.1,0-.1L22.1,55l2.23-7.25a5.93,5.93,0,0,1-.39-1.31A3,3,0,0,1,24,45a1.32,1.32,0,0,1,.21-.2,4.43,4.43,0,0,1,.45-.36c.17-.12.32-.23.46-.31s.22-.12.25-.09l.65.79a.25.25,0,0,0,.24-.19,3.62,3.62,0,0,0,.14-.43,1.56,1.56,0,0,1,.21-.43.36.36,0,0,1,.32-.19h.14l.32,0,.31,0a23.69,23.69,0,0,1,1.73,4l-.17.46.38-.46a1.67,1.67,0,0,1,.1-.24L30,47l.24-.55a3.1,3.1,0,0,0,.17-.47,1,1,0,0,0,.1-.26.57.57,0,0,1,.24-.32l.67-.31L31,44.73c-.08,0-.11-.13-.1-.3a1.84,1.84,0,0,1,.05-.44l.08-.2a.93.93,0,0,1,.39-.24q.3-.12.33,0l0,.1c0,.13,0,.21,0,.25l.13.11a3.42,3.42,0,0,0,.65.06l1,.06a4.08,4.08,0,0,1,.88.16c.25.07.35.18.3.32a1.17,1.17,0,0,0,0,.11l-.05.11-.31.76c-.14.37-.3.76-.46,1.17l-.45,1.16-.31.77-.39,2.11-2.18,7.59a1.1,1.1,0,0,1-.27.16,2,2,0,0,1-.33.12,1.3,1.3,0,0,1-.29.08.34.34,0,0,1-.26-.16,2,2,0,0,1-.23-.36c-.07-.14-.14-.26-.19-.38a.77.77,0,0,0-.14-.23l-.52.38-.15.46s-.06.06-.14.08a.58.58,0,0,1-.19,0,.83.83,0,0,1-.71-.35,1,1,0,0,1-.21-.71l.29-3.38L27,52.55h-.09c-.18.63-.37,1.26-.57,1.9s-.38,1.27-.56,1.9l-.12.4c-.06.2-.13.38-.19.56s-.16.4-.29.67l-.07.06-.07,0h-.12a.54.54,0,0,1-.17-.09.23.23,0,0,0-.22.13l-.14.3a2.14,2.14,0,0,1-.17.3.27.27,0,0,1-.24.13l-.05,0a1.35,1.35,0,0,0-.09-.33.48.48,0,0,0-.2-.22.37.37,0,0,0-.26.19,1.43,1.43,0,0,0-.12.31,1.34,1.34,0,0,1-.12.3c-.05.09-.15.13-.31.13s-.18-.07-.16-.21a2.49,2.49,0,0,1,.15-.5A4.12,4.12,0,0,1,23,58C23.11,57.8,23.15,57.69,23.13,57.64Z" style="fill:#423c25"/><path d="M34.37,57.93a.3.3,0,0,0-.18.11,2.39,2.39,0,0,0-.22.23l-.22.22c-.07.08-.12.11-.15.11s-.26-.15-.25-.44a5.08,5.08,0,0,1,.13-1A9.49,9.49,0,0,1,33.77,56q.16-.53.21-.72.63-2.18,1.47-4.32c.56-1.42,1-2.86,1.46-4.32a.16.16,0,0,1,0-.12s0-.07,0-.07H35a.61.61,0,0,1,.15-.24.45.45,0,0,0,.16-.24v-.09a1,1,0,0,1-.17-.27.34.34,0,0,1,.21-.17,2.22,2.22,0,0,1,.39-.1,3.26,3.26,0,0,1,.41,0h.29l-.34-.22a1.59,1.59,0,0,1-.36,0,.81.81,0,0,1-.33-.12.54.54,0,0,1-.22-.2.36.36,0,0,1,0-.31,1.1,1.1,0,0,1,.19-.3.6.6,0,0,1,.29-.23l1.08-.19h.46l1,0,1.21,0H44a.53.53,0,0,1-.21.34.66.66,0,0,1-.3.09l-.32,0a.56.56,0,0,0-.3.19,1.09,1.09,0,0,0,0,.69,1.22,1.22,0,0,1,0,.66,2,2,0,0,1-.2.43,2.08,2.08,0,0,1-.43.43.67.67,0,0,1-.5.12l-.58,0a.67.67,0,0,0-.33.07l-.09.25c0,.12-.09.25-.14.37s-.11.26-.16.39a2,2,0,0,0-.09.26l-.1.36c0,.11-.09.31-.18.58s-.18.55-.29.85-.2.58-.3.84-.17.44-.21.54l-1.8,6.34a3.54,3.54,0,0,1-.2.45,1.7,1.7,0,0,1-.33.48,1,1,0,0,0-.61,0,.83.83,0,0,0-.33.24l-.24.27a.45.45,0,0,1-.36.13.41.41,0,0,1-.36-.16,1.59,1.59,0,0,1-.2-.39c-.06-.14-.12-.27-.18-.38A.34.34,0,0,0,34.37,57.93Z" style="fill:#423c25"/><path d="M41.35,56.51a6.48,6.48,0,0,1,.47-1.15,7,7,0,0,0,.47-1.15A19.69,19.69,0,0,0,42.8,52a18.12,18.12,0,0,1,.52-2.25,8.66,8.66,0,0,1,.53-1.32,8.33,8.33,0,0,0,.5-1.3l0-.09.1-.27v-.07c0-.08-.09-.14-.23-.17a.77.77,0,0,0-.37,0L43.46,46a.16.16,0,0,1,0-.1l.42-.5.3-.35a1.23,1.23,0,0,0,.17-.21l.46-.09.16,0-.22-.16a.69.69,0,0,0-.4-.15s0,0,0-.07a.71.71,0,0,1,.37-.4,3.11,3.11,0,0,1,.71-.24,5.81,5.81,0,0,1,.85-.1l.78,0h.46q.81,0,1.59.06c.52,0,1.06.06,1.6.06a1.88,1.88,0,0,0,.49-.06,1.93,1.93,0,0,1,.49-.06l0,.19c0,.13-.08.2-.1.2l-.16.22a2.4,2.4,0,0,0-.15.23l-.07.19-.56.32.39.31,0,.19a1.14,1.14,0,0,1-.43.48,3.54,3.54,0,0,1-.7.36,6,6,0,0,1-1.37.36l-.12.1a.39.39,0,0,0-.07.19l-.12.41a2.71,2.71,0,0,1-.13.44c-.06.15-.1.28-.13.37l0,.1a.59.59,0,0,0,0,.17.15.15,0,0,1-.1.14l-.45.24.38,0q.08,0,0,.12l-.1.22,0,.1c0,.06,0,.09,0,.09h.12a5.07,5.07,0,0,0,.94-.09,4.22,4.22,0,0,1,.91-.1.36.36,0,0,1,.35.17.54.54,0,0,1,0,.38.69.69,0,0,1-.28.29,4.68,4.68,0,0,1-.5.28c-.19.08-.35.16-.5.24s-.22.13-.24.18.06.06.16.08a1.9,1.9,0,0,1,.34.11,1.33,1.33,0,0,1,.31.18c.09.07.1.18,0,.32a1.11,1.11,0,0,1-.45.57,2.19,2.19,0,0,1-.64.21l-.69.1a1.64,1.64,0,0,0-.66.2,1.06,1.06,0,0,0-.17.3,4.67,4.67,0,0,0-.23.58l-.2.6a2.87,2.87,0,0,0-.12.35v0a2.75,2.75,0,0,0-.05.34l-.06.38a2.72,2.72,0,0,0-.06.46h1.77q.15,0,.18.06a.17.17,0,0,1,0,.14,1.16,1.16,0,0,1,0,.18.48.48,0,0,0,0,.17s0,.09.1.13l.19.13a.58.58,0,0,1,.16.21.46.46,0,0,1,0,.34.44.44,0,0,1-.28.3,4,4,0,0,1-.52.2,4,4,0,0,0-.52.18.41.41,0,0,0-.28.26,1.64,1.64,0,0,1,.16.26l0,.08a.39.39,0,0,1-.28.31,4.27,4.27,0,0,1-.54.07,11.63,11.63,0,0,0-1.24.14,2.28,2.28,0,0,1-1,0l-.72-.19-.34.19a.44.44,0,0,1-.35,0,2,2,0,0,0-.39,0h-.27a1.18,1.18,0,0,1-.56-.94A3.65,3.65,0,0,1,41.35,56.51Z" style="fill:#423c25"/><path d="M51.5,57.64l-.72.6a.57.57,0,0,0-.43.21.6.6,0,0,1-.43.2c-.13,0-.2-.08-.22-.23a.73.73,0,0,1,0-.35l0-.09.36-.91,0-.1,0-.1L50.47,55l2.23-7.25a5.44,5.44,0,0,1-.39-1.31A3,3,0,0,1,52.39,45l.2-.2c.14-.12.29-.24.46-.36s.32-.23.46-.31.22-.12.25-.09l.65.79a.25.25,0,0,0,.24-.19l.14-.43a1.89,1.89,0,0,1,.2-.43.39.39,0,0,1,.33-.19h.14l.31,0,.32,0a23.66,23.66,0,0,1,1.72,4l-.16.46.38-.46a1.67,1.67,0,0,1,.1-.24l.21-.49.24-.55a3.1,3.1,0,0,0,.17-.47,1,1,0,0,0,.1-.26.5.5,0,0,1,.24-.32l.67-.31-.41-.31c-.08,0-.12-.13-.11-.3A2.46,2.46,0,0,1,59.3,44l.07-.2a1.06,1.06,0,0,1,.4-.24c.2-.08.31-.08.32,0l0,.1c0,.13,0,.21,0,.25l.13.11a3.42,3.42,0,0,0,.65.06l1,.06a4.08,4.08,0,0,1,.88.16c.24.07.34.18.3.32a.37.37,0,0,0,0,.11l0,.11c-.06.14-.17.4-.31.76s-.3.76-.46,1.17l-.45,1.16c-.15.37-.25.63-.32.77L61,50.8l-2.18,7.59a1.1,1.1,0,0,1-.27.16,2,2,0,0,1-.33.12,1.3,1.3,0,0,1-.29.08.36.36,0,0,1-.27-.16,2,2,0,0,1-.22-.36c-.08-.14-.14-.26-.2-.38a.82.82,0,0,0-.13-.23l-.53.38-.14.46a.22.22,0,0,1-.14.08.58.58,0,0,1-.2,0,.81.81,0,0,1-.7-.35,1,1,0,0,1-.21-.71l.29-3.38-.17-1.59h-.09c-.18.63-.37,1.26-.57,1.9s-.39,1.27-.56,1.9l-.12.4-.19.56c-.07.17-.16.4-.29.67l-.07.06-.08,0h-.12L53.09,58a.23.23,0,0,0-.22.13,2.09,2.09,0,0,0-.14.3,2.14,2.14,0,0,1-.17.3.3.3,0,0,1-.24.13l0,0a1.39,1.39,0,0,0-.1-.33.42.42,0,0,0-.19-.22.35.35,0,0,0-.26.19,1.43,1.43,0,0,0-.12.31,1.34,1.34,0,0,1-.12.3c0,.09-.15.13-.31.13S51,59.13,51,59a2.4,2.4,0,0,1,.14-.5c.08-.18.16-.36.24-.52S51.52,57.69,51.5,57.64Z" style="fill:#423c25"/><path d="M65.52,55.24l-.21.21s-.07.09-.06.1a.69.69,0,0,0,.41.2.81.81,0,0,0,.39,0,1.84,1.84,0,0,0,.45-.3c.07-.08.1-.13.1-.16a.21.21,0,0,0,0-.12s0-.07.1-.12l.74-1a.9.9,0,0,0,.45-.34,2.58,2.58,0,0,0,.13-.31.64.64,0,0,1,.18-.27,1.41,1.41,0,0,1,.61-.26l1.9.05a.22.22,0,0,1,.24.17,1.36,1.36,0,0,1,0,.36,1.58,1.58,0,0,1,0,.38,2.47,2.47,0,0,1-.09.44,2.67,2.67,0,0,1-.6.94,14.25,14.25,0,0,1-1.1,1.1c-.4.36-.81.71-1.21,1s-.72.57-1,.74l0,.05a6,6,0,0,0-.72-.29,2,2,0,0,0-.51-.09c-.17,0-.28,0-.31.1a.4.4,0,0,0,0,.24,2.46,2.46,0,0,1,0,.26c0,.06,0,.09-.17.09h-.39l-.57,0-.62,0a1.88,1.88,0,0,1-.6-.12,2,2,0,0,1-.85-.59,1.65,1.65,0,0,1-.36-.74,2.68,2.68,0,0,1,0-.8c0-.28,0-.52.08-.75a1,1,0,0,0-.12-.19.64.64,0,0,0-.07-.24c-.05-.11-.09-.23-.14-.35l-.13-.33c0-.11-.06-.18,0-.21a4,4,0,0,1,.06-1,8,8,0,0,1,.23-1c.09-.32.2-.65.32-1a3.92,3.92,0,0,0,.23-1s0,0,.11-.1l.23-.14.33-.22-.36-.15-.25-.12c-.07,0-.11-.07-.11-.09A1,1,0,0,1,62.4,49c.11-.14.23-.27.35-.41l.32-.4a.55.55,0,0,0,.14-.36l.22-.3.32-.42q.18-.21.33-.42c.09-.13.17-.22.21-.27a4.35,4.35,0,0,1,.36-.47l.34-.34c.11-.1.24-.2.37-.3a5,5,0,0,0,.47-.36l.22-.26a1,1,0,0,1,.26-.26,3.57,3.57,0,0,1,.64-.33A3.5,3.5,0,0,1,67.5,44a3.43,3.43,0,0,1,.56-.07h.67a1,1,0,0,0,.26,0l.3-.07.24,0c.06,0,.08,0,.07.07s0,.15.15.2a3.52,3.52,0,0,0,.39.16l.33.13c.09,0,.1.08,0,.11a.62.62,0,0,0-.36.32A1.2,1.2,0,0,0,70,45c0,.05,0,.05.12,0a2.28,2.28,0,0,1,.36-.1,1.45,1.45,0,0,1,.47,0,.69.69,0,0,1,.47.25l.24.31a1.75,1.75,0,0,1,.12.27,1.21,1.21,0,0,0,0,.18.94.94,0,0,0,.06.18.86.86,0,0,0,.18.26,3.4,3.4,0,0,1,.34.7.44.44,0,0,1-.06.5A1.79,1.79,0,0,0,72,48a1.13,1.13,0,0,0-.11.36,1.8,1.8,0,0,0,0,.31,1.48,1.48,0,0,1,0,.34l0,.05s-.13.13-.36.25a2.54,2.54,0,0,1-.83.25,3.12,3.12,0,0,1-1,0,1.85,1.85,0,0,1-1-.62v-.88a.26.26,0,0,1,0-.09.19.19,0,0,0,0-.08l0,0a4.2,4.2,0,0,0,.17-.76,3.08,3.08,0,0,1,.07-.39s0,0,0,0a2.16,2.16,0,0,0-.31.2l-1.73.72-.74,1.15a.77.77,0,0,0-.12.13.76.76,0,0,0-.1.14.26.26,0,0,0,0,.18l.07.1a.36.36,0,0,1,.06.32c-.12.44-.29,1-.5,1.56s-.39,1.1-.55,1.53a1.16,1.16,0,0,0,.14.23q.07.09.12-.06l-.09,1.2Z" style="fill:#423c25"/><path d="M71.47,56.51a6.48,6.48,0,0,1,.47-1.15,7,7,0,0,0,.47-1.15A19.69,19.69,0,0,0,72.92,52a18.12,18.12,0,0,1,.52-2.25A8.66,8.66,0,0,1,74,48.38a8.33,8.33,0,0,0,.5-1.3l0-.09.1-.27v-.07c0-.08-.09-.14-.23-.17a.77.77,0,0,0-.37,0L73.58,46a.16.16,0,0,1,0-.1l.42-.5.3-.35a1.23,1.23,0,0,0,.17-.21l.46-.09.16,0-.22-.16a.69.69,0,0,0-.4-.15s0,0,0-.07a.71.71,0,0,1,.37-.4,3.11,3.11,0,0,1,.71-.24,5.81,5.81,0,0,1,.85-.1l.78,0h.46q.81,0,1.59.06c.52,0,1.06.06,1.6.06a1.88,1.88,0,0,0,.49-.06,1.93,1.93,0,0,1,.49-.06l0,.19c0,.13-.08.2-.1.2l-.16.22a2.4,2.4,0,0,0-.15.23l-.07.19-.56.32.39.31-.05.19a1.14,1.14,0,0,1-.43.48,3.54,3.54,0,0,1-.7.36,6,6,0,0,1-1.37.36l-.12.1a.39.39,0,0,0-.07.19l-.12.41a2.71,2.71,0,0,1-.13.44c-.06.15-.1.28-.13.37l0,.1a.59.59,0,0,0,0,.17.15.15,0,0,1-.1.14l-.45.24.38,0s.06,0,0,.12l-.1.22,0,.1c0,.06,0,.09,0,.09h.12a5.07,5.07,0,0,0,.94-.09,4.22,4.22,0,0,1,.91-.1.36.36,0,0,1,.35.17.54.54,0,0,1,0,.38.69.69,0,0,1-.28.29,4.68,4.68,0,0,1-.5.28c-.19.08-.35.16-.5.24s-.22.13-.24.18.06.06.16.08a1.9,1.9,0,0,1,.34.11,1.33,1.33,0,0,1,.31.18c.09.07.1.18,0,.32A1.11,1.11,0,0,1,79,52a2.19,2.19,0,0,1-.64.21l-.69.1a1.64,1.64,0,0,0-.66.2,1.06,1.06,0,0,0-.17.3,4.67,4.67,0,0,0-.23.58l-.2.6a2.87,2.87,0,0,0-.12.35v0a2.75,2.75,0,0,0,0,.34l-.06.38a2.72,2.72,0,0,0-.06.46h1.77q.15,0,.18.06a.17.17,0,0,1,0,.14,1.16,1.16,0,0,1,0,.18.48.48,0,0,0,0,.17s0,.09.1.13l.19.13a.58.58,0,0,1,.16.21.46.46,0,0,1,0,.34.44.44,0,0,1-.28.3,4,4,0,0,1-.52.2,4,4,0,0,0-.52.18.41.41,0,0,0-.28.26,1.64,1.64,0,0,1,.16.26l0,.08a.39.39,0,0,1-.28.31,4.27,4.27,0,0,1-.54.07,11.63,11.63,0,0,0-1.24.14,2.28,2.28,0,0,1-1,0l-.72-.19-.34.19a.44.44,0,0,1-.35,0,2,2,0,0,0-.39,0h-.27a1.18,1.18,0,0,1-.56-.94A3.65,3.65,0,0,1,71.47,56.51Z" style="fill:#423c25"/><path d="M78.81,57.76v0s.08-.08.2-.1l.34-.08.47-.08s0-.07,0-.16L79.65,57c0-.09-.12-.2-.21-.35l1.46,0q0-.08-.12-.15a.75.75,0,0,0-.29-.09l-.55-.12c-.14,0-.27-.11-.38-.32,0,0,.06-.06.08-.15a1.84,1.84,0,0,1,.09-.25.76.76,0,0,1,.13-.23.24.24,0,0,1,.2-.11,1.18,1.18,0,0,1,.59.2,1.42,1.42,0,0,0,.78.21,1.22,1.22,0,0,0,.62-.16,1.94,1.94,0,0,0,.51-.38,2.38,2.38,0,0,0,.37-.51,2.5,2.5,0,0,0,.23-.54.28.28,0,0,1,.21-.16c.12,0,.16-.09.15-.17l-.16-.18-.29-.34-.27-.33a.59.59,0,0,1-.12-.21,1.19,1.19,0,0,0-.09-.31c0-.16-.11-.34-.16-.53l-.17-.53a1.45,1.45,0,0,1-.09-.28c-.12-.31-.23-.56-.32-.76a2.78,2.78,0,0,1-.19-.6,1.92,1.92,0,0,1,0-.68,5.66,5.66,0,0,1,.24-1,8,8,0,0,1,.8-1.92,4.87,4.87,0,0,1,1.25-1.42,5.44,5.44,0,0,1,1.81-.87,9.08,9.08,0,0,1,2.47-.3h.07s0,0-.07.09l-.21.23-.22.23c-.06.06-.09.09-.07.09l.18-.07a3.42,3.42,0,0,1,.36-.14l.37-.15a1,1,0,0,1,.22-.07,1.16,1.16,0,0,1,.4.06c.12,0,.15.15.1.33a.38.38,0,0,1-.14.2l-.23.1-.25.07a.39.39,0,0,0-.2.13s0,.07-.14.16l-.31.27-.41.36,1.61-.65s0,.06,0,.18a3.5,3.5,0,0,1-.05.41c0,.15,0,.3-.07.45a1.22,1.22,0,0,1-.06.28.65.65,0,0,1-.41.42,4.62,4.62,0,0,1-.67.26l-.3.07-.42.11-.41.1-.29.08c-.2.11-.32.23-.33.36a.72.72,0,0,0,0,.37c0,.17,0,.34.08.51s.06.35.1.52a2.14,2.14,0,0,1,0,.35l-.48.67a1.16,1.16,0,0,0,.3-.1.54.54,0,0,1,.18,0c.18,0,.32.13.44.4l.25.81q.15.51.27,1.11t.18,1.17a2.7,2.7,0,0,1,0,.92l0,.05a5.52,5.52,0,0,0-.68,1.07,4.46,4.46,0,0,1-.71,1l-.27.33q-.21.23-.42.48c-.15.16-.29.32-.44.46a4.38,4.38,0,0,1-.33.32,2.09,2.09,0,0,1-.79.36,10.08,10.08,0,0,1-1.19.22c-.43.06-.84.1-1.24.12s-.7,0-.91,0a2.11,2.11,0,0,1-.5-.07,4.44,4.44,0,0,1-.62-.19,2.34,2.34,0,0,1-.5-.28A.33.33,0,0,1,78.81,57.76Z" style="fill:#423c25"/></g></g></svg>