<svg xmlns="http://www.w3.org/2000/svg" width="125" height="80" viewBox="0 0 125 80"><g id="a272ee5b-727e-41d3-86db-80277922bb0a" data-name="icon VA vecto"><g id="ec3f65a7-01b8-4b58-9a62-d28fd0a290f6" data-name="lieu - copie 3"><rect x="-0.27" y="0.18" width="125" height="80" style="fill:#fff"/><path d="M128.7,18.8l-7.4-.37a.08.08,0,0,1-.08-.05.08.08,0,0,1,0-.07l1.3-4.14,0,0h0Z" style="fill:#423c25"/><path d="M124.06,2.29l-2.92,5.54a.22.22,0,0,1-.2.12.24.24,0,0,1-.14,0l-3.19-2.6a.14.14,0,0,1,0-.15.1.1,0,0,1,0,0Z" style="fill:#423c25"/><path d="M121.3,18.43l7.4.37-6.12-4.64h0l0,0a2.66,2.66,0,0,0,1.52-1l10.71,7.68-13.4-.64a2.83,2.83,0,0,0-.2-1.76l0,0A.08.08,0,0,0,121.3,18.43Z" style="fill:#fff"/><path d="M124.06,2.29l-6.42,2.82a.1.1,0,0,0,0,0l-.1,0a2.63,2.63,0,0,0-.14-1.8l12-6.22L122.58,8.71a2.77,2.77,0,0,0-1.64-.64V8a.22.22,0,0,0,.2-.12Z" style="fill:#fff"/><path d="M116.55,22.6l-.23,7.55-4-6.33a.2.2,0,0,1,0-.15.19.19,0,0,1,.12-.11l4-1.08a.13.13,0,0,1,.12,0A.16.16,0,0,1,116.55,22.6Z" style="fill:#423c25"/><path d="M113.42,12.11a2.32,2.32,0,1,1-3.27.3A2.33,2.33,0,0,1,113.42,12.11Z" style="fill:#fff"/><path d="M112.28,23.67a.2.2,0,0,0,0,.15l4,6.33.23-7.55a.16.16,0,0,0,0-.09l0-.07a2.77,2.77,0,0,0,1.3.49V36.64l-7.21-11.32a2.59,2.59,0,0,0,1.47-1.54.68.68,0,0,0,0-.14Z" style="fill:#fff"/><path d="M111.4,3.11a.22.22,0,0,1,0,.21.15.15,0,0,1-.09.06l-3.75,1.17a.16.16,0,0,1-.19-.08.13.13,0,0,1,0-.09l.72-7.25Z" style="fill:#423c25"/><path d="M111.4,3.11l-3.34-6-.72,7.25a.13.13,0,0,0,0,.09l-.1.09a2.73,2.73,0,0,0-1.77-.72l1-13.49L113,2.05a2.71,2.71,0,0,0-1.49,1.28h-.11A.22.22,0,0,0,111.4,3.11Z" style="fill:#fff"/><path d="M106.26,21.5a.09.09,0,0,1,0,.11l0,0-7,3.87,3.65-6.12a.16.16,0,0,1,.13-.08.19.19,0,0,1,.1,0Z" style="fill:#423c25"/><path d="M103.07,19.31a.16.16,0,0,0-.13.08l-3.65,6.12,7-3.87,0,0,.06,0a1.85,1.85,0,0,0-.18.44,2.68,2.68,0,0,0,.35,1.88L94.43,30.07l6.91-11.5a2.67,2.67,0,0,0,1.73.66Z" style="fill:#fff"/><path d="M122.52,14.17l-1.3,4.14a.08.08,0,0,0,0,.07l0,0a1.66,1.66,0,0,0-.22-.32c-.87-1-2.6-.75-3.61-.17-.11.06-2,1.21-1.69,3a2.33,2.33,0,0,0,.92,1.51l0,.07a.13.13,0,0,0-.12,0l-4,1.08a.19.19,0,0,0-.12.11l-.13,0c.23-1.25-1-2.44-2-2.91-.12-.05-2.17-1-3.44.36a2.53,2.53,0,0,0-.41.55l-.06,0a.09.09,0,0,0,0-.11l-3.09-2.16a.19.19,0,0,0-.1,0v-.08a1.53,1.53,0,0,0,.3,0c1.32-.29,1.9-1.94,1.86-3.1,0-.13-.1-2.38-1.85-2.92a2.89,2.89,0,0,0-1.57,0l0-.08a.15.15,0,0,0,.09-.1L103,9.34a.17.17,0,0,0,0-.15l.06-.08a3.18,3.18,0,0,0,3.39-.25c.11-.07,2-1.34,1.5-3.12a2.57,2.57,0,0,0-.68-1.18l.1-.09a.16.16,0,0,0,.19.08l3.75-1.17a.15.15,0,0,0,.09-.06h.11l-.06.18c-.41,1.28.74,2.6,1.77,3.15.11.06,2.11,1.09,3.45-.16a2.91,2.91,0,0,0,.84-1.38l.1,0a.14.14,0,0,0,0,.15l3.19,2.6a.24.24,0,0,0,.14,0v.12a1.9,1.9,0,0,0-.4,0c-1.31.3-1.86,2-1.81,3.13,0,.13.14,2.37,1.9,2.89a3.54,3.54,0,0,0,1.91,0l0,0Zm-8.8,1.21a2.32,2.32,0,1,0-3.27.3A2.33,2.33,0,0,0,113.72,15.38Z" style="fill:#423c25"/><path d="M101.67,13,95.16,9l7.71.15a.21.21,0,0,1,.11,0,.17.17,0,0,1,0,.15L101.88,13a.15.15,0,0,1-.09.1A.17.17,0,0,1,101.67,13Z" style="fill:#423c25"/><path d="M103,9.19a.21.21,0,0,0-.11,0L95.16,9l6.51,4a.17.17,0,0,0,.12,0l0,.08a2.63,2.63,0,0,0-1.49,1L88.86,7.1l13.41-.23a2.58,2.58,0,0,0,.55,2.05l.22.19Z" style="fill:#fff"/><path d="M120.94,8.07a2.77,2.77,0,0,1,1.64.64L129.3-2.9l-12,6.22a2.63,2.63,0,0,1,.14,1.8,2.91,2.91,0,0,1-.84,1.38c-1.34,1.25-3.34.22-3.45.16-1-.55-2.18-1.87-1.77-3.15l.06-.18A2.71,2.71,0,0,1,113,2.05l-6.55-11.7-1,13.49a2.73,2.73,0,0,1,1.77.72,2.57,2.57,0,0,1,.68,1.18c.46,1.78-1.39,3-1.5,3.12a3.18,3.18,0,0,1-3.39.25l-.22-.19a2.58,2.58,0,0,1-.55-2L88.86,7.1l11.46,7.06a2.63,2.63,0,0,1,1.49-1,2.89,2.89,0,0,1,1.57,0c1.75.54,1.85,2.79,1.85,2.92,0,1.16-.54,2.81-1.86,3.1a1.53,1.53,0,0,1-.3,0,2.67,2.67,0,0,1-1.73-.66l-6.91,11.5L106.51,24a2.68,2.68,0,0,1-.35-1.88,1.85,1.85,0,0,1,.18-.44,2.53,2.53,0,0,1,.41-.55c1.27-1.33,3.32-.41,3.44-.36,1,.47,2.19,1.66,2,2.91a.68.68,0,0,1,0,.14,2.59,2.59,0,0,1-1.47,1.54l7.21,11.32V22.93a2.77,2.77,0,0,1-1.3-.49,2.33,2.33,0,0,1-.92-1.51c-.35-1.81,1.58-3,1.69-3,1-.58,2.74-.86,3.61.17a1.66,1.66,0,0,1,.22.32,2.83,2.83,0,0,1,.2,1.76l13.4.64-10.71-7.68a2.66,2.66,0,0,1-1.52,1,3.54,3.54,0,0,1-1.91,0c-1.76-.52-1.89-2.76-1.9-2.89,0-1.16.5-2.83,1.81-3.13A1.9,1.9,0,0,1,120.94,8.07Z" style="fill:none;stroke:#423c25;stroke-miterlimit:10;stroke-width:0.60077714920044px"/><path d="M106.28,21.61l0,0-7,3.87,3.65-6.12a.16.16,0,0,1,.13-.08.19.19,0,0,1,.1,0l3.09,2.16A.09.09,0,0,1,106.28,21.61Z" style="fill:none;stroke:#423c25;stroke-miterlimit:10;stroke-width:0.60077714920044px"/><path d="M112.28,23.67a.2.2,0,0,0,0,.15l4,6.33.23-7.55a.16.16,0,0,0,0-.09.13.13,0,0,0-.12,0l-4,1.08A.19.19,0,0,0,112.28,23.67Z" style="fill:none;stroke:#423c25;stroke-miterlimit:10;stroke-width:0.60077714920044px"/><path d="M122.56,14.15h0l6.12,4.64-7.4-.37a.08.08,0,0,1-.08-.05.08.08,0,0,1,0-.07l1.3-4.14Z" style="fill:none;stroke:#423c25;stroke-miterlimit:10;stroke-width:0.60077714920044px"/><path d="M117.59,5.15a.1.1,0,0,1,0,0l6.42-2.82-2.92,5.54a.22.22,0,0,1-.2.12.24.24,0,0,1-.14,0l-3.19-2.6A.14.14,0,0,1,117.59,5.15Z" style="fill:none;stroke:#423c25;stroke-miterlimit:10;stroke-width:0.60077714920044px"/><path d="M111.38,3.32a.22.22,0,0,0,0-.21l-3.34-6-.72,7.25a.13.13,0,0,0,0,.09.16.16,0,0,0,.19.08l3.75-1.17A.15.15,0,0,0,111.38,3.32Z" style="fill:none;stroke:#423c25;stroke-miterlimit:10;stroke-width:0.60077714920044px"/><path d="M101.79,13.05a.17.17,0,0,1-.12,0L95.16,9l7.71.15a.21.21,0,0,1,.11,0,.17.17,0,0,1,0,.15L101.88,13A.15.15,0,0,1,101.79,13.05Z" style="fill:none;stroke:#423c25;stroke-miterlimit:10;stroke-width:0.60077714920044px"/><path d="M113.42,12.11a2.32,2.32,0,1,1-3.27.3A2.33,2.33,0,0,1,113.42,12.11Z" style="fill:none;stroke:#423c25;stroke-miterlimit:10;stroke-width:0.60077714920044px"/><rect x="-0.27" y="0.18" width="125" height="80" style="fill:none;stroke:#423c25;stroke-miterlimit:10;stroke-width:2px"/><path d="M15.51,15a3.26,3.26,0,0,1,.81-.68,3.62,3.62,0,0,1,1-.4,5.52,5.52,0,0,1,1.39-.15h.17s.06.06.06.17a2.21,2.21,0,0,1-.06.34l0,.16.65-.43-.36,3.48c-.1,0-.16.07-.17.12l0,.15-.12.4c-.1.37-.18.71-.26,1s-.17.64-.27,1-.19.67-.27,1.05-.21.83-.35,1.35-.31,1.1-.49,1.76-.41,1.45-.66,2.36a5.32,5.32,0,0,0-.23.94.43.43,0,0,0,.21.46,2.51,2.51,0,0,0,.86.2l1.72.16a.52.52,0,0,1,.14.31q0,.12-.06.33a.94.94,0,0,1-.12.2,1.88,1.88,0,0,0-.18.24l-.16.22a.24.24,0,0,0-.05.18l.12.3.12.3-.05.12c0,.05-.1.13-.25.23s-.32.21-.5.33l-.52.28a1,1,0,0,1-.29.12l-.36-.14c-.08,0-.12,0-.14.06a.13.13,0,0,1-.14.11h-.2a22,22,0,0,1-2.78-.18,14.89,14.89,0,0,0-2.83-.09.69.69,0,0,1-.31-.79.66.66,0,0,1,.12-.17.31.31,0,0,0,.09-.14l0-.1-.12-.4,0-.05,1.56.07-1.34-.43,0-.1a1.64,1.64,0,0,0,0-.38,1.14,1.14,0,0,1,.06-.43l0-.1.1-.29,0-.12a1.42,1.42,0,0,1,.48-.19,2.35,2.35,0,0,0,.46-.12l0,0,0-.08c0-.06,0-.19,0-.38s0-.4,0-.62,0-.44,0-.63v-.38c0-.18.15-.51.3-1s.32-1,.51-1.55.35-1.05.5-1.52.25-.8.3-1a11.91,11.91,0,0,0,.35-2,10.93,10.93,0,0,1,.37-1.95l0-.15a.67.67,0,0,0,.08-.17c0-.06.05-.12.08-.19l0-.12A11.2,11.2,0,0,1,15.51,15Z" style="fill:#423c25"/><path d="M21,22.5a2.13,2.13,0,0,1,.21-.43c.08-.15.18-.29.27-.45a4,4,0,0,0,.25-.44.82.82,0,0,0,.11-.41l.23-.31.34-.47.33-.47a2.41,2.41,0,0,0,.21-.31,3.36,3.36,0,0,1,.4-.51l.38-.38a4.69,4.69,0,0,1,.4-.33,5.58,5.58,0,0,0,.52-.43l.23-.29a1.42,1.42,0,0,1,.25-.29,4.41,4.41,0,0,1,1-.44,11.27,11.27,0,0,1,1.36-.35c.47-.1.92-.17,1.35-.23a7.75,7.75,0,0,1,1-.08q.45,0,.33.33a.38.38,0,0,1-.12.21l-.21.15a1.25,1.25,0,0,0-.22.16.36.36,0,0,0-.12.18.13.13,0,0,0,.08.18,1.4,1.4,0,0,0,.29.09l.31.08a.34.34,0,0,1,.21.1l.33.75c.07.13.11.22.14.29a.58.58,0,0,1,0,.19c0,.06,0,.13,0,.21a1.14,1.14,0,0,0,.14.32,2.08,2.08,0,0,0,.22.33,1,1,0,0,1,.14.24.54.54,0,0,1,0,.29c0,.11,0,.26-.08.46a7.45,7.45,0,0,1-.3.82,6.74,6.74,0,0,0-.3.86l0,0c0,.08,0,.26-.07.52s-.07.55-.11.86-.07.61-.11.88a4,4,0,0,1-.07.5l0,.08a.16.16,0,0,0,0,.12.5.5,0,0,1,0,.16l0,.1,0,.1-.08.13-.07.13,0,.1a.66.66,0,0,1-.31.16.31.31,0,0,0-.24.2.21.21,0,0,0,.12.28.32.32,0,0,1,.16.29l-.06.43a2.3,2.3,0,0,1-.08.48,2.46,2.46,0,0,1-.64,1,12.28,12.28,0,0,1-1.15,1.12c-.42.37-.85.72-1.27,1l-1,.81c-.05,0-.07,0-.07.07a.18.18,0,0,0,0,.19.18.18,0,0,1,0,.19c0,.13-.21.21-.53.24a7.23,7.23,0,0,1-.91,0h-.43a4.42,4.42,0,0,1-.67-.07c-.31-.05-.62-.12-.94-.2a6.59,6.59,0,0,1-.86-.3.87.87,0,0,1-.46-.36,1.68,1.68,0,0,0-.2-.34,2.62,2.62,0,0,1-.24-.34,2.27,2.27,0,0,1-.19-.34.63.63,0,0,1-.06-.38l0-.14.1-.29.07-.24,0-.14a.21.21,0,0,0-.06-.24.41.41,0,0,1-.13-.24,1.1,1.1,0,0,1,0-.27c0-.12,0-.26,0-.39a2.62,2.62,0,0,1,0-.37.56.56,0,0,1,0-.24,6.71,6.71,0,0,1,.09-1.1c.07-.36.16-.72.27-1.09s.22-.73.32-1.08a5.58,5.58,0,0,0,.21-1.08A.34.34,0,0,0,21,23a.85.85,0,0,1-.06-.17s0-.06,0-.13A.84.84,0,0,1,21,22.5Zm2.43,4.7a.82.82,0,0,0,0,.35c.05.17.11.35.18.53a3.73,3.73,0,0,0,.24.49c.09.15.16.22.21.22a.59.59,0,0,0,.38-.21l.27-.25.2-.19.34-.31.33-.31.23-.2,0-.14a17.78,17.78,0,0,0,.45-1.9,10.44,10.44,0,0,1,.54-1.92c0-.11,0-.24,0-.4l.06-.48c0-.16.05-.32.07-.46a2.65,2.65,0,0,1,.09-.34l.14-.31c.08-.17.13-.28.15-.31l0,0a.36.36,0,0,0,0-.09.29.29,0,0,1,0-.1l0-.07a.48.48,0,0,0-.05-.46,1,1,0,0,0-.35-.26l-.35-.17c-.09-.05-.11-.11-.05-.19H26.5s-.08,0-.09,0a1,1,0,0,0-.07.24l-1.16,1.63,0,.17a1.12,1.12,0,0,0-.06.57,1.57,1.57,0,0,1-.06.6,17.78,17.78,0,0,1-.78,2.14A14.37,14.37,0,0,0,23.46,27.2Z" style="fill:#423c25"/><path d="M35,28.14c-.08.08-.14.15-.2.2s-.08.1-.06.11a.63.63,0,0,0,.41.19.58.58,0,0,0,.38,0,1.62,1.62,0,0,0,.46-.3.31.31,0,0,0,.09-.15.37.37,0,0,0,0-.12s0-.07.09-.12l.75-1a.87.87,0,0,0,.44-.34,2.73,2.73,0,0,0,.14-.31.75.75,0,0,1,.17-.28,1.65,1.65,0,0,1,.62-.25l1.89.05a.22.22,0,0,1,.24.17,2,2,0,0,1,0,.74,2.11,2.11,0,0,1-.1.43,2.61,2.61,0,0,1-.6.95,12.45,12.45,0,0,1-1.09,1.09c-.41.37-.81.72-1.21,1s-.72.56-1,.74l0,.05a4.7,4.7,0,0,0-.72-.29,1.9,1.9,0,0,0-.5-.1c-.18,0-.28,0-.31.11a.38.38,0,0,0,0,.24,1.13,1.13,0,0,1,0,.25c0,.07-.06.1-.17.1h-1c-.19,0-.4,0-.63,0a2.46,2.46,0,0,1-.59-.12,2.14,2.14,0,0,1-.86-.59,1.89,1.89,0,0,1-.36-.74,2.74,2.74,0,0,1,0-.81c0-.27.05-.52.08-.74a1,1,0,0,0-.12-.19.93.93,0,0,0-.07-.24l-.15-.35c0-.12-.09-.23-.13-.34s-.05-.17,0-.2a4,4,0,0,1,.06-1,8,8,0,0,1,.22-1c.1-.32.21-.65.33-1a4.31,4.31,0,0,0,.23-1s0,0,.1-.1l.23-.14.34-.22-.36-.15-.26-.12c-.07,0-.1-.07-.1-.09a.94.94,0,0,1,.21-.39c.11-.14.23-.28.35-.41l.33-.4a.66.66,0,0,0,.14-.36l.22-.3c.09-.13.2-.27.32-.42a3.9,3.9,0,0,0,.32-.42,2.13,2.13,0,0,1,.22-.27,3.54,3.54,0,0,1,.36-.47l.34-.34a4,4,0,0,1,.37-.3,5,5,0,0,0,.46-.36,2,2,0,0,0,.22-.26,1,1,0,0,1,.27-.27,4.69,4.69,0,0,1,.63-.32,3.86,3.86,0,0,1,.55-.17,3.7,3.7,0,0,1,.57-.07h.67a.91.91,0,0,0,.25,0l.3-.07a1.48,1.48,0,0,1,.24,0c.06,0,.09,0,.07.08s0,.14.16.2l.38.16a2.45,2.45,0,0,1,.34.13c.09,0,.09.07,0,.11a.64.64,0,0,0-.36.32,1.41,1.41,0,0,0-.14.3s0,0,.12,0a2.66,2.66,0,0,1,.36-.11,1.77,1.77,0,0,1,.47,0,.67.67,0,0,1,.46.25l.24.31a.74.74,0,0,1,.12.27c0,.06,0,.12.05.18a1.89,1.89,0,0,1,.06.18,1.55,1.55,0,0,0,.18.26,3.5,3.5,0,0,1,.35.7.49.49,0,0,1-.06.5,1.88,1.88,0,0,0-.35.48,1.46,1.46,0,0,0-.11.36c0,.11,0,.22,0,.31a1.55,1.55,0,0,1,0,.34l0,.05a1.16,1.16,0,0,1-.36.25,2.62,2.62,0,0,1-.83.25,3,3,0,0,1-1.06,0,1.84,1.84,0,0,1-1-.61V21a.56.56,0,0,1,0-.08.11.11,0,0,0,0-.08l0-.05c.09-.35.15-.61.17-.76a2,2,0,0,1,.07-.39s0,0,0,0l-.31.21-1.73.72-.74,1.15-.12.13-.1.13a.25.25,0,0,0,0,.18l.07.11a.67.67,0,0,1,.06.12.3.3,0,0,1,0,.19c-.13.45-.3,1-.5,1.56s-.4,1.11-.56,1.54a1.14,1.14,0,0,0,.15.23s.09,0,.12-.06l-.1,1.2Z" style="fill:#423c25"/><path d="M40.9,30.59h-.09l-.12.09-.27.94s0,0,0,0a.12.12,0,0,0-.1.06h-.07c-.1,0-.16-.08-.2-.24a.54.54,0,0,1,0-.32c0-.06,0-.15.07-.27a2.59,2.59,0,0,1,.1-.4c0-.13.07-.25.11-.37l.09-.25a.22.22,0,0,1-.08-.15l.05-.16,0-.15.24-.74c.11-.34.24-.71.4-1.13s.31-.86.47-1.32.33-.9.49-1.32l.4-1.13c.12-.33.21-.58.26-.74.2-.37.43-.74.67-1.11a9.3,9.3,0,0,0,.62-1.1l1.14-2.33a15.4,15.4,0,0,1,1.41-2.28c0-.05.11,0,.19.07s.16.22.25.35l.25.39c.08.12.14.18.17.18s.1-.06.15-.18a3.52,3.52,0,0,0,.16-.39c0-.13.1-.26.15-.37s.08-.16.12-.14h2.2l.48-.17c.05,0,.08,0,.1.06a1,1,0,0,1,0,.19l0,.2c0,.07,0,.1.06.1a.66.66,0,0,0,.25,0,1.36,1.36,0,0,1,.29,0,.41.41,0,0,1,.21.1c.06.05.07.13,0,.24L51,19.16a1.49,1.49,0,0,0-.05.54,5.16,5.16,0,0,0,.09.52c0,.18.07.35.1.52a2.31,2.31,0,0,1,0,.54c-.05.19-.13.52-.23,1s-.21,1-.32,1.5-.23,1-.33,1.5-.18.81-.23,1l0,.09a17.85,17.85,0,0,1-.29,2.3c-.14.76-.33,1.53-.55,2.31a2.2,2.2,0,0,1-.64-.09,1.89,1.89,0,0,0-.63-.1.21.21,0,0,0-.18.1,1.63,1.63,0,0,0-.17.2l-.18.2a.3.3,0,0,1-.22.1c-.08,0-.11-.06-.09-.17a3.12,3.12,0,0,1,.06-.37c0-.14,0-.26.06-.37s0-.17-.08-.17a.36.36,0,0,0-.1.11c-.06.07-.11.15-.17.23l-.25.33s-.07.13-.17.28a.83.83,0,0,1-.24.27s0,.07-.12.1v0h0c-.24,0-.36-.15-.37-.46a5.56,5.56,0,0,1,.08-1c.07-.37.12-.72.17-1s0-.47-.12-.47h-.67a.62.62,0,0,0-.55.22L44.19,30l-.31,1.15a2.87,2.87,0,0,1-.18.42,1.39,1.39,0,0,1-.16.3l-.14.1H41.65l-.44-.46L41,31.43a.34.34,0,0,1,0-.21,1.62,1.62,0,0,1,.08-.27.59.59,0,0,0,0-.25C41.08,30.62,41,30.59,40.9,30.59Zm4.73-5.23s0,.09-.07.19a.12.12,0,0,0,.1.17,5.68,5.68,0,0,0,.67-.12.64.64,0,0,0,.48-.41.24.24,0,0,1,.08-.1A.22.22,0,0,0,47,25a3.31,3.31,0,0,1,.05-.41c0-.19.07-.4.1-.61s.07-.42.11-.62a3.21,3.21,0,0,1,.1-.4,1.19,1.19,0,0,1,0-.2c0-.09,0-.19,0-.28a1.26,1.26,0,0,0,0-.27q0-.12-.06-.12c-.15,0-.31.16-.49.48a11.79,11.79,0,0,0-.55,1.07,10.65,10.65,0,0,0-.47,1.1C45.72,25.09,45.65,25.29,45.63,25.36Z" style="fill:#423c25"/><path d="M51.27,30.83a.26.26,0,0,0-.18.11l-.21.22-.22.23c-.07.07-.12.11-.16.11s-.26-.15-.25-.44a5.93,5.93,0,0,1,.13-1,11.21,11.21,0,0,1,.29-1.11c.11-.35.19-.59.22-.72.41-1.45.9-2.89,1.46-4.32s1-2.86,1.47-4.32a.11.11,0,0,1,0-.12c0-.05,0-.07,0-.07H51.94a.6.6,0,0,1,.16-.24.6.6,0,0,0,.16-.24v-.1a.69.69,0,0,1-.17-.26c0-.06.08-.12.2-.17a2.11,2.11,0,0,1,.4-.11,3,3,0,0,1,.41,0l.28,0L53.05,18a1.59,1.59,0,0,1-.36,0,.92.92,0,0,1-.34-.12.51.51,0,0,1-.21-.2.4.4,0,0,1,0-.31,1.41,1.41,0,0,1,.19-.3.71.71,0,0,1,.29-.23l1.08-.19.47,0,1,0,1.21,0h4.56a.48.48,0,0,1-.2.34,1,1,0,0,1-.3.09l-.32.05a.5.5,0,0,0-.3.19,1.18,1.18,0,0,0,0,.69,1.06,1.06,0,0,1,0,.66,2,2,0,0,1-.19.43,2.76,2.76,0,0,1-.43.43.7.7,0,0,1-.51.12c-.2,0-.4,0-.57,0a.74.74,0,0,0-.34.07c0,.05,0,.13-.08.25a3.59,3.59,0,0,1-.15.37l-.15.39-.1.26-.09.36c0,.11-.1.3-.18.58l-.29.85q-.16.43-.3.84c-.1.26-.17.44-.22.54l-1.8,6.33a2.14,2.14,0,0,1-.19.46,2,2,0,0,1-.34.48,1.08,1.08,0,0,0-.61,0,1.16,1.16,0,0,0-.32.24l-.24.28a.45.45,0,0,1-.36.13.4.4,0,0,1-.36-.17,2,2,0,0,1-.21-.38,1.91,1.91,0,0,0-.18-.38A.31.31,0,0,0,51.27,30.83Z" style="fill:#423c25"/><path d="M57.63,31.4l.24-.84c.35-1.45.71-2.88,1.06-4.28s.73-2.83,1.15-4.28l.05-.17c0-.08.06-.15.08-.22a1.77,1.77,0,0,0,.06-.17l0-.09a.54.54,0,0,1,.08-.15,3,3,0,0,0,.15-.26l.16-.26a.41.41,0,0,0,.07-.15,1.45,1.45,0,0,1,.07-.23q.07-.18.15-.39c.05-.15.09-.28.14-.41s.08-.22.1-.26l.12-.28a2.1,2.1,0,0,0,.12-.42l.14-.5.15-.51a2.92,2.92,0,0,0,.09-.42,1,1,0,0,1,.07-.27,1.07,1.07,0,0,1,.24-.1l.47-.16.68-.22a.35.35,0,0,1,.33.13,1,1,0,0,1,.11.3c0,.11,0,.21,0,.31s0,.12.1.12h0a1.28,1.28,0,0,0,.21-.29.23.23,0,0,0,.1-.12s0-.07.07-.07a.89.89,0,0,1,.31-.07l.24,0,.18.21.16.18h.12l.5-.19h.12a.25.25,0,0,1,.07.09.35.35,0,0,0,.12.1l-.12.41a31.2,31.2,0,0,1-1,3c-.39,1-.77,2-1.16,3a1.45,1.45,0,0,1-.33.5,1.08,1.08,0,0,0-.31.46,1.66,1.66,0,0,0-.06.7c0,.24,0,.46,0,.65l-.12.48-.38,1.32-.12.43c-.16.53-.33,1.1-.49,1.73a11.26,11.26,0,0,1-.64,1.77.17.17,0,0,1-.15.11h-.33a1.51,1.51,0,0,0-.23-.4.66.66,0,0,0-.44-.1h-.18l-.13,0-.27.27a1.47,1.47,0,0,1-.31,0c-.16,0-.25,0-.26.06a.33.33,0,0,0-.16.08l-.22.14-.21.14a.64.64,0,0,0-.13.1A1.06,1.06,0,0,1,57.63,31.4Z" style="fill:#423c25"/><path d="M64.93,22.5a1.66,1.66,0,0,1,.2-.43l.28-.45c.09-.15.18-.3.25-.44a.93.93,0,0,0,.11-.41l.23-.31.33-.47.34-.47a2.09,2.09,0,0,0,.2-.31,3.36,3.36,0,0,1,.41-.51l.37-.38a4.91,4.91,0,0,1,.41-.33c.15-.11.32-.26.52-.43l.22-.29a1.84,1.84,0,0,1,.25-.29,4.5,4.5,0,0,1,1-.44,11.1,11.1,0,0,1,1.35-.35c.48-.1.93-.17,1.36-.23a7.62,7.62,0,0,1,1-.08c.3,0,.42.11.34.33a.45.45,0,0,1-.12.21l-.22.15a1.16,1.16,0,0,0-.21.16.27.27,0,0,0-.12.18c0,.08,0,.14.08.18a1.23,1.23,0,0,0,.29.09l.31.08a.34.34,0,0,1,.2.1l.34.75a2.74,2.74,0,0,1,.13.29.59.59,0,0,1,.05.19l0,.21a1.24,1.24,0,0,0,.15.32,3.28,3.28,0,0,0,.21.33.79.79,0,0,1,.15.24.67.67,0,0,1,0,.29,2.1,2.1,0,0,1-.08.46,7.45,7.45,0,0,1-.3.82,6.74,6.74,0,0,0-.3.86l0,0c0,.08,0,.26-.07.52s-.07.55-.11.86-.08.61-.11.88-.06.44-.07.5l0,.08a.23.23,0,0,0,0,.12.3.3,0,0,1,0,.16l0,.1,0,.1-.07.13a.88.88,0,0,0-.07.13l0,.1a.61.61,0,0,1-.31.16.31.31,0,0,0-.24.2.23.23,0,0,0,.12.28.32.32,0,0,1,.17.29,2.84,2.84,0,0,0-.06.43,3.28,3.28,0,0,1-.08.48,2.69,2.69,0,0,1-.64,1A15.34,15.34,0,0,1,72,29.82c-.43.37-.85.72-1.28,1l-1,.81s-.08,0-.08.07a.18.18,0,0,0,0,.19.18.18,0,0,1,0,.19c0,.13-.21.21-.53.24a7.23,7.23,0,0,1-.91,0h-.43a4.53,4.53,0,0,1-.68-.07c-.3-.05-.61-.12-.93-.2a7.33,7.33,0,0,1-.87-.3.87.87,0,0,1-.45-.36,1.36,1.36,0,0,0-.21-.34,2.62,2.62,0,0,1-.24-.34,3.72,3.72,0,0,1-.19-.34.71.71,0,0,1-.06-.38l0-.14.1-.29.07-.24,0-.14a.21.21,0,0,0-.06-.24.49.49,0,0,1-.14-.24,2.65,2.65,0,0,1,0-.27c0-.12,0-.26,0-.39s0-.26,0-.37a1,1,0,0,1,0-.24,5.77,5.77,0,0,1,.1-1.1,9,9,0,0,1,.26-1.09c.12-.37.22-.73.33-1.08a5.56,5.56,0,0,0,.2-1.08s0-.09,0-.19a.85.85,0,0,1-.06-.17.4.4,0,0,0,0-.13A.8.8,0,0,1,64.93,22.5Zm2.42,4.7a.73.73,0,0,0,.05.35c0,.17.11.35.18.53a2.79,2.79,0,0,0,.24.49c.09.15.15.22.2.22a.63.63,0,0,0,.39-.21l.26-.25.21-.19.33-.31c.12-.11.23-.22.34-.31a2.4,2.4,0,0,1,.23-.2l0-.14a17.63,17.63,0,0,0,.44-1.9,12.3,12.3,0,0,1,.54-1.92,3.28,3.28,0,0,1,0-.4,3.93,3.93,0,0,1,.06-.48c0-.16,0-.32.07-.46a1.71,1.71,0,0,1,.08-.34,3.06,3.06,0,0,0,.15-.31c.08-.17.12-.28.14-.31l0,0a.36.36,0,0,0,0-.09.3.3,0,0,1,0-.1l0-.07a.43.43,0,0,0-.05-.46A1,1,0,0,0,71,20l-.35-.17c-.1-.05-.11-.11,0-.19H70.4c-.05,0-.08,0-.1,0a2.15,2.15,0,0,0-.07.24l-1.15,1.63,0,.17a1.39,1.39,0,0,0-.06.57,1.4,1.4,0,0,1-.06.6,17.78,17.78,0,0,1-.78,2.14A17,17,0,0,0,67.35,27.2Z" style="fill:#423c25"/><path d="M76.09,30.54l-.72.6a.62.62,0,0,0-.44.2.56.56,0,0,1-.43.21c-.13,0-.2-.08-.21-.23a.75.75,0,0,1,0-.35l0-.09.36-.92,0-.09,0-.1.31-1.85,2.24-7.24a5.44,5.44,0,0,1-.4-1.31A3,3,0,0,1,77,17.94s.07-.08.21-.2.29-.24.45-.36l.46-.32c.14-.08.22-.11.25-.08l.65.79a.25.25,0,0,0,.24-.19c0-.13.1-.27.15-.43a1.22,1.22,0,0,1,.2-.43.38.38,0,0,1,.32-.2h.15l.31,0,.31,0a23.34,23.34,0,0,1,1.73,4l-.17.46.38-.46a2.08,2.08,0,0,1,.1-.24l.22-.49.24-.55a2.9,2.9,0,0,0,.16-.47,1.17,1.17,0,0,0,.1-.27.58.58,0,0,1,.24-.31l.67-.31-.41-.31c-.08,0-.11-.13-.1-.3a1.53,1.53,0,0,1,.06-.45l.07-.19a.93.93,0,0,1,.39-.24q.3-.12.33,0l0,.1c0,.13,0,.21,0,.25a.81.81,0,0,1,.13.11,3.42,3.42,0,0,0,.65.06l1,.06a4.89,4.89,0,0,1,.87.15c.25.08.35.18.3.33a1.17,1.17,0,0,0,0,.11,1,1,0,0,1,0,.1c-.07.15-.17.4-.32.77l-.45,1.17-.46,1.16c-.14.37-.25.62-.31.77l-.39,2.11-2.18,7.58a1.13,1.13,0,0,1-.26.17l-.34.12a1,1,0,0,1-.29.07.34.34,0,0,1-.26-.15,3.17,3.17,0,0,1-.23-.36l-.19-.39a1,1,0,0,0-.13-.22l-.53.38-.15.46s-.06.06-.14.08a.93.93,0,0,1-.19,0,.84.84,0,0,1-.71-.35.92.92,0,0,1-.2-.71L80.09,27l-.16-1.59h-.1c-.18.63-.36,1.26-.56,1.9s-.39,1.27-.57,1.89l-.12.41c-.06.19-.13.38-.19.55a7.14,7.14,0,0,1-.29.68l-.07.06L78,31h-.12a.68.68,0,0,1-.17-.09.22.22,0,0,0-.21.13q-.08.14-.15.3a1.46,1.46,0,0,1-.17.3.27.27,0,0,1-.24.13l-.05,0a1,1,0,0,0-.09-.33.55.55,0,0,0-.19-.23.41.41,0,0,0-.27.2,1.43,1.43,0,0,0-.12.31,1.34,1.34,0,0,1-.12.3c0,.09-.15.13-.31.13s-.18-.07-.16-.22a3.68,3.68,0,0,1,.15-.49,5.05,5.05,0,0,1,.24-.53A.6.6,0,0,0,76.09,30.54Z" style="fill:#423c25"/><path d="M16.74,53.49a1.29,1.29,0,0,1-.21.24c-.07.07-.1.11-.08.12a.65.65,0,0,0,.47.24.93.93,0,0,0,.42,0,2.39,2.39,0,0,0,.56-.35.32.32,0,0,0,.13-.2.51.51,0,0,0,0-.13s0-.09.07-.13l.84-1.11a1.22,1.22,0,0,0,.52-.38,1.73,1.73,0,0,0,.15-.36.64.64,0,0,1,.22-.31,1.76,1.76,0,0,1,.69-.29l2.24.05c.16,0,.24.06.25.19a3.39,3.39,0,0,0,.06.41,3.55,3.55,0,0,0-.07.45,5,5,0,0,1-.1.51,3,3,0,0,1-.68,1.08q-.57.61-1.26,1.26c-.47.42-.93.82-1.4,1.18s-.82.65-1.08.84l0,.08a3.46,3.46,0,0,0-1.4-.46c-.2,0-.32,0-.36.13a.53.53,0,0,0,0,.28,1.37,1.37,0,0,1,0,.29q0,.12-.21.12H15.34l-.72,0a2.2,2.2,0,0,1-.67-.15,2.65,2.65,0,0,1-1-.68,1.94,1.94,0,0,1-.42-.85,3.56,3.56,0,0,1-.06-.92,7.47,7.47,0,0,1,.11-.86,1.64,1.64,0,0,1-.12-.22,1.32,1.32,0,0,1-.12-.26l-.16-.41-.14-.39a1.07,1.07,0,0,1-.06-.23,4.74,4.74,0,0,1,.08-1.12A10.6,10.6,0,0,1,12.37,50c.11-.39.23-.77.37-1.14A5.27,5.27,0,0,0,13,47.76s0-.06.12-.11l.24-.17.36-.25a1,1,0,0,0-.21-.1L13.15,47c-.14-.07-.21-.11-.21-.13a1.42,1.42,0,0,1,.27-.44l.39-.47a4.55,4.55,0,0,0,.36-.47.72.72,0,0,0,.16-.42c.05-.06.13-.18.24-.34s.24-.32.37-.49l.39-.48.25-.3a5.31,5.31,0,0,1,.37-.53,4.83,4.83,0,0,1,.38-.4,5.46,5.46,0,0,1,.44-.38q.23-.18.54-.39a1.1,1.1,0,0,0,.27-.29,1.53,1.53,0,0,1,.28-.31,6.77,6.77,0,0,1,.74-.35,3.68,3.68,0,0,1,.65-.2,4.41,4.41,0,0,1,.65-.1c.22,0,.48,0,.77,0a1.85,1.85,0,0,0,.46-.08,2.54,2.54,0,0,1,.42-.07c.08,0,.12,0,.1.07s0,.16.17.23a3,3,0,0,0,.45.19l.4.16c.1.05.11.09,0,.12a.66.66,0,0,0-.41.36c-.09.19-.16.31-.19.36s0,.07.15,0l.42-.14a1.61,1.61,0,0,1,.55,0,.81.81,0,0,1,.54.29l.29.36a1.22,1.22,0,0,1,.14.3c0,.07,0,.14.05.2a1,1,0,0,0,.06.22,1,1,0,0,0,.18.31,4.1,4.1,0,0,1,.42.79.52.52,0,0,1-.09.58,2.2,2.2,0,0,0-.38.56,2.23,2.23,0,0,0-.12.41,1.45,1.45,0,0,0,0,.36,1,1,0,0,1-.06.4v0a1.33,1.33,0,0,1-.42.27,3.16,3.16,0,0,1-1,.3,3.41,3.41,0,0,1-1.23,0,2.21,2.21,0,0,1-1.17-.71l0-1,0-.05a.81.81,0,0,1,0-.11l0-.08,0-.07c.11-.4.19-.69.22-.87s.06-.33.09-.45,0,0,0,0l-.4.23-2,.84-.84,1.32-.12.15a.66.66,0,0,0-.12.16.24.24,0,0,0,0,.2.51.51,0,0,0,.09.13.38.38,0,0,1,.09.13.79.79,0,0,1,0,.22c-.08.25-.17.54-.28.85s-.21.63-.32,1l-.33.93q-.15.46-.3.84l.17.27c.05.06.1,0,.15-.08l-.15,1.37Z" style="fill:#423c25"/><path d="M23.26,56.59h-.09l-.12.09-.27.94s0,0,0,0a.12.12,0,0,0-.1.06h-.07c-.1,0-.16-.08-.19-.24s0-.27,0-.32,0-.15.06-.27.06-.25.1-.4.07-.25.11-.37l.09-.25a.22.22,0,0,1-.08-.15l.05-.16.05-.15.24-.74c.11-.34.24-.71.4-1.13l.48-1.32q.24-.69.48-1.32l.4-1.13c.12-.33.21-.58.26-.74.2-.37.43-.74.67-1.11a9.3,9.3,0,0,0,.62-1.1l1.14-2.33a15.4,15.4,0,0,1,1.41-2.28c0-.05.11,0,.19.07s.16.22.25.35l.25.39c.08.12.14.18.17.18s.1-.06.16-.18l.15-.39c0-.13.1-.26.15-.37s.08-.16.12-.14h2.2L33,42c.05,0,.08,0,.1.06s0,.12,0,.19a1.23,1.23,0,0,0,0,.2c0,.07,0,.1.06.1a.66.66,0,0,0,.25,0,1.36,1.36,0,0,1,.29,0,.5.5,0,0,1,.22.1.24.24,0,0,1,0,.24l-.67,2.3a1.49,1.49,0,0,0,0,.54,5.16,5.16,0,0,0,.09.52c0,.18.07.35.1.52a1.87,1.87,0,0,1,0,.54c-.05.19-.13.52-.23,1s-.21,1-.32,1.5-.23,1-.33,1.5-.18.81-.23,1l0,.09a17.85,17.85,0,0,1-.29,2.3c-.14.76-.33,1.53-.55,2.31a2.2,2.2,0,0,1-.64-.09,1.89,1.89,0,0,0-.63-.1.21.21,0,0,0-.18.1c-.06.06-.11.13-.17.2l-.18.2a.28.28,0,0,1-.22.1c-.08,0-.11-.06-.09-.17a3.12,3.12,0,0,1,.06-.37c0-.14,0-.26.06-.37s0-.17-.07-.17-.06,0-.11.11-.11.15-.17.23l-.25.33s-.07.13-.17.28a.83.83,0,0,1-.24.27s0,.07-.12.1v0h0c-.24,0-.36-.15-.37-.46a5.56,5.56,0,0,1,.08-1c.07-.37.12-.72.17-1s0-.47-.12-.47h-.67a.62.62,0,0,0-.55.22L26.55,56l-.31,1.15a2.87,2.87,0,0,1-.18.42,1.39,1.39,0,0,1-.16.3l-.14.1H24l-.43-.46-.22-.09a.34.34,0,0,1,0-.21c0-.08.05-.18.08-.27a.59.59,0,0,0,0-.25C23.44,56.62,23.38,56.59,23.26,56.59ZM28,51.36s0,.09-.07.19a.12.12,0,0,0,.1.17,5.68,5.68,0,0,0,.67-.12.64.64,0,0,0,.48-.41.24.24,0,0,1,.08-.1.22.22,0,0,0,.08-.09,3.31,3.31,0,0,1,.05-.41c0-.19.07-.4.1-.61s.07-.42.11-.62a1.9,1.9,0,0,1,.11-.4.92.92,0,0,1,0-.2c0-.09,0-.19.05-.28a1.26,1.26,0,0,0,0-.27q0-.12-.06-.12c-.14,0-.31.16-.49.48a11.79,11.79,0,0,0-.55,1.07,10.65,10.65,0,0,0-.47,1.1C28.08,51.09,28,51.29,28,51.36Z" style="fill:#423c25"/><path d="M38.07,52.68s-.08,0-.1,0l-.19.38a6.25,6.25,0,0,1-.21.65l-.35,1c-.12.34-.23.66-.34,1s-.17.52-.2.65a.69.69,0,0,1-.09.35,1.26,1.26,0,0,1-.15.3c0,.06-.06.09-.15.09l-.12,0-.1,0s-.06,0-.06,0l-.17.77h-.12c-.1,0-.14,0-.14,0-.33,0-.52-.18-.59-.4a.82.82,0,0,1,.15-.71c-.08,0-.11-.07-.09-.07H35a.28.28,0,0,0-.21.11,1,1,0,0,0-.17.24l-.13.25a.4.4,0,0,1-.13.17h0l-.05,0h-.36l-.14,0-.26,0-.25,0h-.14a.31.31,0,0,1-.36-.2,1.27,1.27,0,0,1-.1-.52,3.83,3.83,0,0,1,.05-.6,1.61,1.61,0,0,1,.1-.41l0-.14a1.65,1.65,0,0,0,.09-.21.2.2,0,0,0,0-.15l0-.1,2-5.49s0-.11.08-.23a1.33,1.33,0,0,1,.09-.23,1.08,1.08,0,0,0,.13-.24c0-.13.11-.26.18-.41a4.14,4.14,0,0,0,.15-.41A2.21,2.21,0,0,1,35.6,48a1.51,1.51,0,0,1,.12-.26l.21-.43a4.14,4.14,0,0,1,.24-.43,1.55,1.55,0,0,1,.2-.27l.17-.19a1.16,1.16,0,0,0,.14-.19l0-.1,0-.09-.24,0-.39,0a1.31,1.31,0,0,1-.33-.09c-.1,0-.13-.1-.1-.18l.14-.18c.1-.1.15-.17.15-.2l.13,0,.22-.06.19-.08s.07,0,.06-.06l-.46-.26.1-.31s0-.06,0-.12,0-.08,0-.1a.47.47,0,0,1,.22-.09l.23,0,.2,0a.13.13,0,0,0,.12-.12l-.43-.55c-.09-.13,0-.25.12-.37a3.16,3.16,0,0,1,.77-.34,11,11,0,0,1,1.15-.27l1.26-.22c.41-.06.78-.11,1.11-.14l.68,0a1.9,1.9,0,0,1,.68.06,2.48,2.48,0,0,0,.66.08.42.42,0,0,0,.19-.07.49.49,0,0,1,.25-.05h.09a5.84,5.84,0,0,1,1,.39,4.83,4.83,0,0,1,.81.55,2.24,2.24,0,0,1,.54.53,1.1,1.1,0,0,1,.06.72l-.48.43.34.19-.07.39-.08.21a3.59,3.59,0,0,0,0,1,3,3,0,0,1-.1,1.06,1,1,0,0,1-.19.42,1.5,1.5,0,0,1-.44.35l-2.27,2.71-.1.36c.11.86.21,1.76.29,2.68A9.27,9.27,0,0,1,42.54,57a2,2,0,0,1-.4,0l-.23,0-.2-.05a1.21,1.21,0,0,0-.3,0,.11.11,0,0,0,0,.12.1.1,0,0,1,0,.12c0,.05-.1.13-.18.23s-.19.21-.3.33a3.8,3.8,0,0,1-.33.28.43.43,0,0,1-.25.12c-.1,0-.15,0-.17-.09a1.43,1.43,0,0,1,0-.23.77.77,0,0,0-.06-.23.22.22,0,0,0-.2-.09.23.23,0,0,0-.14.08l-.2.18c-.08.06-.14.13-.21.19a.41.41,0,0,1-.14.12.32.32,0,0,1-.15.1q-.25,0-.42-.3a3.55,3.55,0,0,1-.24-.84,9.66,9.66,0,0,1-.1-1.15c0-.43,0-.84,0-1.23s0-.74,0-1,0-.54,0-.66S38.2,52.68,38.07,52.68ZM38.89,50l0,.17c0,.06,0,.11.12.14a2.74,2.74,0,0,0,.66-.19,1,1,0,0,0,.47-.43l1.39-2.16.05-.22a.61.61,0,0,0,0-.42c-.05-.14-.11-.27-.17-.41a3,3,0,0,1-.18-.41.75.75,0,0,1-.06-.42c0-.11,0-.16-.19-.16h-.08l-.34.06-.45.07-.39.06a.43.43,0,0,0-.21,0,.71.71,0,0,0-.2,0s0,.07-.09.15V46a.75.75,0,0,1,.63.3,1.06,1.06,0,0,1,.09.66,7.91,7.91,0,0,1-.49,1.52A10.17,10.17,0,0,0,38.89,50Z" style="fill:#423c25"/><path d="M48.42,57l-.25.58a.62.62,0,0,1-.28,0,2.17,2.17,0,0,0-.51,0,4.61,4.61,0,0,1-.53,0,1.59,1.59,0,0,1-.4,0c-.12,0-.16-.1-.12-.2a1.15,1.15,0,0,0,0-.28.63.63,0,0,1,0-.29l0-.15c0-.14,0-.25-.17-.33s-.21.09-.24.27a2.28,2.28,0,0,1-.12.47.31.31,0,0,1-.12.19h-.07l-.19,0h-.22a.35.35,0,0,0-.15.07.08.08,0,0,1-.11,0,2.22,2.22,0,0,1-.22-.41,4.42,4.42,0,0,1-.15-.48,2.76,2.76,0,0,1-.08-.44,1.15,1.15,0,0,1,0-.3l0-.15a.54.54,0,0,0,0-.19.47.47,0,0,1,0-.17l0-.07,1.92-6.05.58-.3.39-.21c.12-.08.18-.12.18-.14L47,48a2.35,2.35,0,0,0,.07-.23l.12-.33a3.73,3.73,0,0,1,.16-.35.83.83,0,0,1,.18-.24s0-.07.13-.17l.16-.17,0-.17H47.6a6.41,6.41,0,0,1-.73,0c-.27,0-.38-.11-.35-.22a.63.63,0,0,1,.13-.19,2.36,2.36,0,0,0,.16-.22v0s0-.06,0-.07,0,0,.06-.08l.48-.31-.28-.29s0-.06,0-.1,0-.07,0-.09a.47.47,0,0,1,.29-.14.26.26,0,0,0,.22-.17l0-.07a.88.88,0,0,0-.05-.19c0-.1-.06-.2-.09-.32a2.26,2.26,0,0,1-.08-.3.25.25,0,0,1,0-.18,2.81,2.81,0,0,1,1.08-.42q.73-.15,1.56-.24c.54-.05,1.05-.09,1.53-.1l1,0,.74,0h.37l.38,0h.12c.4.1.74.19,1,.28a2.81,2.81,0,0,1,.86.44,2.56,2.56,0,0,1,.59.48.88.88,0,0,1,.11.65,10.4,10.4,0,0,1,0,1.78c0,.43-.09.8-.12,1.12,0,.13-.07.27-.11.42s-.07.31-.1.47l-.53,1.67c-.21.63-.46,1.28-.73,2s-.59,1.33-.93,2a13.91,13.91,0,0,1-1.07,1.76A6.24,6.24,0,0,1,52,56.88a2.41,2.41,0,0,1-1.33.55l-1.39.29c0-.07,0-.11.07-.12s0,0,0,0Zm.4-2.25a.52.52,0,0,0,0,.17.11.11,0,0,0,.1.14,1.55,1.55,0,0,0,.4-.16,2.88,2.88,0,0,0,.5-.3,3.31,3.31,0,0,0,.45-.34.7.7,0,0,0,.22-.3l2.37-6.68.07-.21a.75.75,0,0,0,0-.4c0-.12-.1-.24-.15-.36s-.11-.24-.16-.36a1.23,1.23,0,0,1-.07-.39l-.11-.06a.26.26,0,0,0-.15-.06h.19l-.37,0-.54-.06L51,45.33h-.25l-.19.06s0,0-.07.13l0,.08a.48.48,0,0,1,.39.14,1,1,0,0,1,.16.36,1.72,1.72,0,0,1,0,.46c0,.16,0,.3,0,.43a1.73,1.73,0,0,0,0,.36,3.22,3.22,0,0,1,0,.5c0,.19-.09.41-.16.64a4.07,4.07,0,0,1-.32.73,9.28,9.28,0,0,0-.65,1.37,16.46,16.46,0,0,0-.53,1.59c-.14.54-.26,1-.34,1.52A4.06,4.06,0,0,0,48.82,54.79Z" style="fill:#423c25"/></g></g></svg>