<svg xmlns="http://www.w3.org/2000/svg" width="125" height="80" viewBox="0 0 125 80"><g id="fa956d83-3970-4189-a5fa-2dec9d3052a5" data-name="icon VA vecto"><g id="b216e9c5-0a3e-45a2-b176-0a9e1d9c1d04" data-name="objet - copie 3"><rect x="0.25" y="0.43" width="125" height="80" style="fill:#fff"/><path d="M129.23,19l-7.4-.36a.09.09,0,0,1-.08-.06.06.06,0,0,1,0-.06l1.3-4.14,0,0h0Z" style="fill:#423c25"/><path d="M124.58,2.53l-2.92,5.55a.21.21,0,0,1-.2.12.27.27,0,0,1-.14,0l-3.18-2.61a.1.1,0,0,1,0-.14.1.1,0,0,1,0,0Z" style="fill:#423c25"/><path d="M123.08,14.37a2.65,2.65,0,0,0,1.5-1l10.72,7.68-13.4-.64a2.78,2.78,0,0,0-.21-1.76l.06,0a.09.09,0,0,0,.08.06l7.4.36L123.1,14.4h0Z" style="fill:#fff"/><path d="M118,5.37a2.57,2.57,0,0,0-.13-1.8l12-6.23L123.11,9a2.8,2.8,0,0,0-1.64-.64V8.2a.21.21,0,0,0,.2-.12l2.92-5.55-6.41,2.83a.1.1,0,0,0,0,0Z" style="fill:#fff"/><path d="M117.05,22.76a.14.14,0,0,1,0,.09l-.24,7.55-4-6.33a.15.15,0,0,1,0-.15.15.15,0,0,1,.11-.11l4-1.08A.13.13,0,0,1,117.05,22.76Z" style="fill:#423c25"/><path d="M114,12.36a2.33,2.33,0,1,1-3.27.3A2.32,2.32,0,0,1,114,12.36Z" style="fill:#fff"/><path d="M116.84,30.4l.24-7.55a.14.14,0,0,0,0-.09l0-.07a2.8,2.8,0,0,0,1.3.48V36.89l-7.2-11.32A2.62,2.62,0,0,0,112.66,24a.68.68,0,0,0,0-.14l.13,0a.15.15,0,0,0,0,.15Z" style="fill:#fff"/><path d="M111.92,3.36a.16.16,0,0,1,0,.15.15.15,0,0,1-.12.12L108.07,4.8H108a.16.16,0,0,1-.09-.17l.72-7.25Z" style="fill:#423c25"/><path d="M111.93,3.51a.16.16,0,0,0,0-.15l-3.33-6-.72,7.25a.16.16,0,0,0,.09.17l-.09.1A2.8,2.8,0,0,0,106,4.08L107-9.41,113.51,2.3A2.68,2.68,0,0,0,112,3.56Z" style="fill:#fff"/><path d="M106.78,21.74a.1.1,0,0,1,0,.12l0,0-7,3.86,3.65-6.11a.16.16,0,0,1,.14-.08l.08,0Z" style="fill:#423c25"/><path d="M106.77,21.89l0,0,.06,0a1.49,1.49,0,0,0-.17.44A2.59,2.59,0,0,0,107,24.2L95,30.32l6.91-11.5a2.67,2.67,0,0,0,1.73.66v.08a.16.16,0,0,0-.14.08l-3.65,6.11Z" style="fill:#fff"/><path d="M117.05,22.76a.13.13,0,0,0-.12,0l-4,1.08a.15.15,0,0,0-.11.11l-.13,0c.22-1.25-1-2.44-2-2.91-.12-.06-2.17-1-3.45.36a2.19,2.19,0,0,0-.4.55l-.06,0a.1.1,0,0,0,0-.12l-3.09-2.16-.08,0v-.08a1.54,1.54,0,0,0,.3,0c1.32-.28,1.89-1.94,1.86-3.09,0-.13-.1-2.38-1.86-2.92a2.86,2.86,0,0,0-1.56,0l0-.08a.15.15,0,0,0,.09-.1l1.13-3.61a.16.16,0,0,0,0-.15l.06-.08A3.18,3.18,0,0,0,107,9.11c.11-.08,2-1.35,1.5-3.13a2.53,2.53,0,0,0-.59-1.08l.09-.1h.11l3.74-1.17a.15.15,0,0,0,.12-.12l.11.05a1.19,1.19,0,0,0-.08.2c-.41,1.28.74,2.6,1.76,3.15.12.06,2.11,1.09,3.46-.17A2.78,2.78,0,0,0,118,5.37l.11,0a.1.1,0,0,0,0,.14l3.18,2.61a.27.27,0,0,0,.14,0v.12a1.83,1.83,0,0,0-.4,0c-1.32.3-1.86,2-1.81,3.13,0,.13.14,2.36,1.9,2.89a3.58,3.58,0,0,0,1.92,0v0l0,0-1.3,4.14a.06.06,0,0,0,0,.06l-.06,0a1.26,1.26,0,0,0-.21-.32c-.87-1-2.6-.75-3.61-.18-.11.07-2,1.21-1.69,3a2.36,2.36,0,0,0,.91,1.52Zm-2.81-7.13a2.32,2.32,0,1,0-3.27.3A2.32,2.32,0,0,0,114.24,15.63Z" style="fill:#423c25"/><path d="M102.2,13.28l-6.51-4,7.7.16a.16.16,0,0,1,.12,0,.16.16,0,0,1,0,.15l-1.13,3.61a.15.15,0,0,1-.09.1A.16.16,0,0,1,102.2,13.28Z" style="fill:#423c25"/><path d="M102.2,13.28a.16.16,0,0,0,.12,0l0,.08a2.58,2.58,0,0,0-1.49,1l-11.46-7,13.41-.23a2.58,2.58,0,0,0,.55,2.05l.22.19-.06.08a.16.16,0,0,0-.12,0l-7.7-.16Z" style="fill:#fff"/><path d="M121.47,8.32a2.8,2.8,0,0,1,1.64.64l6.72-11.62-12,6.23a2.57,2.57,0,0,1,.13,1.8,2.78,2.78,0,0,1-.83,1.37c-1.35,1.26-3.34.23-3.46.17-1-.55-2.17-1.87-1.76-3.15a1.19,1.19,0,0,1,.08-.2,2.68,2.68,0,0,1,1.47-1.26L107-9.41,106,4.08a2.8,2.8,0,0,1,1.86.82A2.53,2.53,0,0,1,108.46,6c.46,1.78-1.39,3-1.5,3.13a3.18,3.18,0,0,1-3.39.25l-.22-.19a2.58,2.58,0,0,1-.55-2l-13.41.23,11.46,7.05a2.58,2.58,0,0,1,1.49-1,2.86,2.86,0,0,1,1.56,0c1.76.54,1.86,2.79,1.86,2.92,0,1.15-.54,2.81-1.86,3.09a1.54,1.54,0,0,1-.3,0,2.67,2.67,0,0,1-1.73-.66L95,30.32,107,24.2a2.59,2.59,0,0,1-.34-1.87,1.49,1.49,0,0,1,.17-.44,2.19,2.19,0,0,1,.4-.55c1.28-1.33,3.33-.42,3.45-.36,1,.47,2.18,1.66,2,2.91a.68.68,0,0,1,0,.14,2.62,2.62,0,0,1-1.47,1.54l7.2,11.32V23.17a2.8,2.8,0,0,1-1.3-.48,2.36,2.36,0,0,1-.91-1.52c-.35-1.81,1.58-3,1.69-3,1-.57,2.74-.85,3.61.18a1.26,1.26,0,0,1,.21.32,2.78,2.78,0,0,1,.21,1.76l13.4.64-10.72-7.68a2.65,2.65,0,0,1-1.5,1,3.58,3.58,0,0,1-1.92,0c-1.76-.53-1.9-2.76-1.9-2.89-.05-1.16.49-2.83,1.81-3.13A1.83,1.83,0,0,1,121.47,8.32Z" style="fill:none;stroke:#423c25;stroke-miterlimit:10;stroke-width:0.60077714920044px"/><path d="M106.81,21.86l0,0-7,3.86,3.65-6.11a.16.16,0,0,1,.14-.08l.08,0,3.09,2.16A.1.1,0,0,1,106.81,21.86Z" style="fill:none;stroke:#423c25;stroke-miterlimit:10;stroke-width:0.60077714920044px"/><path d="M112.81,23.92a.15.15,0,0,0,0,.15l4,6.33.24-7.55a.14.14,0,0,0,0-.09.13.13,0,0,0-.12,0l-4,1.08A.15.15,0,0,0,112.81,23.92Z" style="fill:none;stroke:#423c25;stroke-miterlimit:10;stroke-width:0.60077714920044px"/><path d="M123.08,14.4h0L129.23,19l-7.4-.36a.09.09,0,0,1-.08-.06.06.06,0,0,1,0-.06l1.3-4.14Z" style="fill:none;stroke:#423c25;stroke-miterlimit:10;stroke-width:0.60077714920044px"/><path d="M118.12,5.4a.1.1,0,0,1,0,0l6.41-2.83-2.92,5.55a.21.21,0,0,1-.2.12.27.27,0,0,1-.14,0l-3.18-2.61A.1.1,0,0,1,118.12,5.4Z" style="fill:none;stroke:#423c25;stroke-miterlimit:10;stroke-width:0.60077714920044px"/><path d="M111.93,3.51a.16.16,0,0,0,0-.15l-3.33-6-.72,7.25a.16.16,0,0,0,.09.17h.11l3.74-1.17A.15.15,0,0,0,111.93,3.51Z" style="fill:none;stroke:#423c25;stroke-miterlimit:10;stroke-width:0.60077714920044px"/><path d="M102.32,13.3a.16.16,0,0,1-.12,0l-6.51-4,7.7.16a.16.16,0,0,1,.12,0,.16.16,0,0,1,0,.15l-1.13,3.61A.15.15,0,0,1,102.32,13.3Z" style="fill:none;stroke:#423c25;stroke-miterlimit:10;stroke-width:0.60077714920044px"/><path d="M114,12.36a2.33,2.33,0,1,1-3.27.3A2.32,2.32,0,0,1,114,12.36Z" style="fill:none;stroke:#423c25;stroke-miterlimit:10;stroke-width:0.60077714920044px"/><rect x="0.25" y="0.43" width="125" height="80" style="fill:none;stroke:#423c25;stroke-miterlimit:10;stroke-width:2px"/><path d="M13.55,22.09a2.12,2.12,0,0,1,.22-.49c.09-.17.2-.34.31-.52s.21-.35.3-.52a1,1,0,0,0,.13-.46,2.72,2.72,0,0,1,.23-.35c.12-.17.25-.35.4-.54l.4-.55a3.22,3.22,0,0,1,.27-.34c.19-.24.35-.44.49-.6a5.75,5.75,0,0,1,.42-.43c.14-.13.3-.26.46-.39s.36-.29.6-.5l.24-.32a.82.82,0,0,1,.31-.33,4.8,4.8,0,0,1,1.19-.53,12.7,12.7,0,0,1,1.56-.39c.53-.11,1.05-.19,1.56-.25a9,9,0,0,1,1.18-.1c.31,0,.43.13.36.38a.49.49,0,0,1-.15.24,1.08,1.08,0,0,1-.24.18l-.24.17a.34.34,0,0,0-.13.21c0,.09,0,.16.09.21a1.17,1.17,0,0,0,.33.11l.36.07c.12,0,.18.07.2.13l.41.87a2.08,2.08,0,0,1,.12.35,2,2,0,0,0,.05.24,1,1,0,0,0,.06.22,1.13,1.13,0,0,0,.18.34,3.09,3.09,0,0,0,.25.41,1.64,1.64,0,0,1,.17.26.71.71,0,0,1,.06.31,2.56,2.56,0,0,1-.1.53,5.25,5.25,0,0,1-.34,1,8.33,8.33,0,0,0-.36,1v0a3.15,3.15,0,0,0-.09.59c0,.31-.07.65-.11,1s-.08.7-.12,1-.07.5-.08.56l0,.1a.35.35,0,0,0,0,.13,1.08,1.08,0,0,1-.06.2l0,.1,0,.12a.64.64,0,0,0-.06.14l-.06.15,0,.12a.72.72,0,0,1-.38.19c-.16,0-.26.1-.29.22a.18.18,0,0,0,0,.19l.14.14.14.15a.24.24,0,0,1,.07.19,2.07,2.07,0,0,0-.08.49,3.42,3.42,0,0,1-.09.56A3,3,0,0,1,23,29.22a16.32,16.32,0,0,1-1.33,1.28c-.49.42-1,.82-1.48,1.2s-.89.68-1.17.92a.17.17,0,0,0-.05.1.23.23,0,0,0,0,.22.21.21,0,0,1,0,.21c-.05.15-.25.24-.62.28a9.83,9.83,0,0,1-1.06.06h-.48A5.21,5.21,0,0,1,16,33.4a7.53,7.53,0,0,1-1.08-.24,9,9,0,0,1-1-.34.9.9,0,0,1-.51-.41,1.54,1.54,0,0,0-.22-.39c-.09-.12-.19-.25-.27-.38a2.3,2.3,0,0,1-.23-.4.61.61,0,0,1,0-.42l0-.16.09-.34.08-.29,0-.17a.36.36,0,0,0-.14-.26.31.31,0,0,1-.1-.29.85.85,0,0,1-.07-.29c0-.14,0-.29-.05-.45s0-.31,0-.43a1.16,1.16,0,0,1,0-.27,8.67,8.67,0,0,1,.14-1.26,10.41,10.41,0,0,1,.3-1.26c.12-.43.25-.85.37-1.25a8.27,8.27,0,0,0,.27-1.24s0-.11-.06-.22-.07-.18-.06-.19V22.3A.46.46,0,0,1,13.55,22.09Zm2.79,5.42a.88.88,0,0,0,.06.41,4.32,4.32,0,0,0,.21.6,4,4,0,0,0,.28.55q.13.24.24.24a.6.6,0,0,0,.42-.23,1.2,1.2,0,0,1,.35-.27l.21-.22.36-.36.39-.37a1.8,1.8,0,0,1,.26-.23l.05-.17c.11-.38.21-.75.29-1.11s.15-.72.22-1.07.16-.71.26-1.07.2-.73.33-1.11a2.88,2.88,0,0,1,0-.47c0-.19.05-.37.08-.55s.07-.36.1-.53a3.59,3.59,0,0,1,.09-.4l.18-.36a1.82,1.82,0,0,0,.18-.36v-.05a.61.61,0,0,0,0-.12l.05-.09,0-.1a.54.54,0,0,0-.07-.54,1.42,1.42,0,0,0-.39-.29l-.41-.19c-.12-.05-.14-.13-.06-.23h-.27a.15.15,0,0,0-.13.06,1.48,1.48,0,0,0-.08.28L18.35,21l-.07.22a1.64,1.64,0,0,0-.05.66,1.48,1.48,0,0,1-.07.68,17.82,17.82,0,0,1-.91,2.46A17.82,17.82,0,0,0,16.34,27.51Z" style="fill:#423c25"/><path d="M26.13,33c-.05.05-.11,0-.19,0a4,4,0,0,0-.63.05c-.19,0-.29,0-.29-.14l-.61-.11-.54-.13q-.16,0-.18,0a.23.23,0,0,1,0-.07c-.13,0-.17-.08-.13-.1s0-.06,0-.12,0-.21.22-.43a4.63,4.63,0,0,1,0-.51A1.16,1.16,0,0,1,23.8,31l.17-.6.21-.41s0-.05.12-.05L25,30a.56.56,0,0,0-.11-.13l-.24-.23-.23-.21c-.06-.07-.08-.1,0-.1l1.2-4.46s0-.06.11-.11l.23-.19.23-.21c.07-.06.1-.1.1-.12s0-.07,0-.17v-.36c0-.14,0-.27,0-.38s0-.18,0-.19l.1-.28c.05-.13.11-.28.18-.44s.14-.31.21-.45a3.84,3.84,0,0,1,.33-.43.68.68,0,0,0,.14-.18l.07-.19h-.52c-.26,0-.36-.06-.32-.19a1.94,1.94,0,0,1,.09-.23,1.79,1.79,0,0,1,.11-.25l1-.07s-.05,0-.14-.08l-.32-.14-.31-.14c-.09-.05-.14-.08-.14-.1l.14-.33a1.16,1.16,0,0,0,.09-.34c0-.17,0-.28,0-.31a2.76,2.76,0,0,0,.18-.53.75.75,0,0,1,.25-.41,2.56,2.56,0,0,1,1-.45c.46-.11.93-.2,1.42-.27s.94-.1,1.37-.12l.9,0,.72.07h.79a5,5,0,0,1,.94.38,5.18,5.18,0,0,1,.76.55,2.06,2.06,0,0,1,.54.53,1.07,1.07,0,0,1,.06.7,10.1,10.1,0,0,1-.13,1.87c-.09.45-.15.85-.2,1.2a1.7,1.7,0,0,1-.42.74,4.51,4.51,0,0,1-.6.48l-.64.45a1.6,1.6,0,0,0-.5.61,2.33,2.33,0,0,1,.38.52,3,3,0,0,1,.28.68,3.61,3.61,0,0,1,.12.83,3,3,0,0,1-.13.92c-.08.19-.16.39-.23.58l-.25.65q-.15.36-.36.81c-.15.31-.33.65-.56,1-.08.16-.15.3-.22.41a1.84,1.84,0,0,1-.6.55l-.5.27a11.25,11.25,0,0,1-1.1.55,8.78,8.78,0,0,1-1.13.38h-.79l-.77.07-.36.07a1.45,1.45,0,0,1-.5,0l.07-.22a.62.62,0,0,0,0-.17v-.09Zm1.73-3.41a2.12,2.12,0,0,0,.42.13c.21.06.4.1.56.13a.51.51,0,0,0,.29-.16,7.25,7.25,0,0,1,.53-.9,4.19,4.19,0,0,0,.45-.9l.05-.22L29.87,27a.82.82,0,0,0-.33-.58,1.4,1.4,0,0,0-.6-.33l-.17.72c0,.13-.12.39-.25.8s-.29.86-.45,1.36c0,.17-.07.28-.12.31Zm2-5.89a.28.28,0,0,0,.19.18,1.17,1.17,0,0,0,.49-.17,1,1,0,0,0,.32-.41l.72-.72.05-.21c.08-.29.15-.58.21-.88a6.78,6.78,0,0,0,.1-.88s-.06,0-.19-.09l-.24-.1-.37.07-.37.09-.41.11a1,1,0,0,0-.23,0,.47.47,0,0,0-.08.15l0,.07c.31,0,.46.12.45.28a3,3,0,0,1-.13.63,3.26,3.26,0,0,1-.14.54,2.38,2.38,0,0,1-.12.27c0,.07-.08.16-.13.27a3,3,0,0,0-.14.55S29.85,23.6,29.9,23.71Z" style="fill:#423c25"/><path d="M46.22,21.54l-.53,1.7q-.16.56-.33,1.08a5.56,5.56,0,0,0-.2,1.08,1.44,1.44,0,0,1-.07.25l-.17.52c-.05.17-.14.42-.26.74a1.14,1.14,0,0,0,0,.15.18.18,0,0,1,0,.16.63.63,0,0,1-.32.15.9.9,0,0,0-.28.06c-.06,0-.08.06-.05.11a2.14,2.14,0,0,0,.39.26l-.23.31c-.1.15-.22.3-.34.47l-.33.47-.23.31a5.32,5.32,0,0,1-.4.52,4.31,4.31,0,0,1-.37.37l-.41.35-.52.42a1.91,1.91,0,0,0-.23.28,1.84,1.84,0,0,1-.25.29l-1,.65a3.65,3.65,0,0,1-1.16.31c-.36,0-.73.05-1.12.05s-.38-.11-.33-.34q0-.12-.15-.12l-.3,0-.33,0h-.26c-.06,0-.08,0-.07-.1a1.16,1.16,0,0,1,0-.16c0-.08,0-.18,0-.27s0-.19,0-.28,0-.14,0-.15-.1.07-.16.16-.12.2-.19.3L36,32c-.06.08-.11.12-.16.12a.54.54,0,0,1-.17,0c-.08,0-.12,0-.12-.08l.15-.46h-.24q-.15.12-.27-.45A9.31,9.31,0,0,1,35,29.43c-.08-.13-.15-.23-.21-.31a1.41,1.41,0,0,1-.13-.24.67.67,0,0,1,0-.29,1.69,1.69,0,0,1,.1-.45,2.57,2.57,0,0,1,.15-.47c.06-.15.13-.31.19-.47a4.73,4.73,0,0,1,.29-1,1.94,1.94,0,0,1,.38-.59,1.63,1.63,0,0,1,.45-.32c.15-.08.3-.14.46-.21A2.55,2.55,0,0,1,39,25.4a1.39,1.39,0,0,1-.17.71c-.13.25-.22.46-.29.63a.81.81,0,0,0,.05.14l.11.25a2,2,0,0,1,.09.25.49.49,0,0,1,0,.13v0l0,.1a.41.41,0,0,1,0,.09l0,.07a.48.48,0,0,0,.06.45,1.11,1.11,0,0,0,.32.25l.35.17c.11,0,.15.1.13.17s0,0-.07,0l-.12.1s-.05,0-.07.07v.05a.52.52,0,0,0,.37-.18,1.22,1.22,0,0,0,.25-.32L41,27l0-.16a3.22,3.22,0,0,0,.13-.71.9.9,0,0,1,.35-.66c.14-.9.28-1.74.41-2.53a20.71,20.71,0,0,1,.6-2.56,12.6,12.6,0,0,0,.29-1.24,7.62,7.62,0,0,1,.36-1.3.4.4,0,0,1,.34-.14.52.52,0,0,0,.38-.1H44V19l.48-1.13a.59.59,0,0,1,.28-.33l.39-.2-.09.56.38-.46.22.67q0,.08.06,0a2.61,2.61,0,0,0,.12-.28c0-.11.1-.26.18-.43a3.11,3.11,0,0,0,.42.13l.25.05.18.06a.9.9,0,0,1,.2.17l-.74,2.8,0,.17a3.93,3.93,0,0,0-.08.46C46.2,21.42,46.2,21.52,46.22,21.54Z" style="fill:#423c25"/><path d="M45,30.49a5.92,5.92,0,0,1,.47-1.15,6.27,6.27,0,0,0,.47-1.16,19.53,19.53,0,0,0,.51-2.25A19.77,19.77,0,0,1,47,23.67a9.56,9.56,0,0,1,.53-1.32,7.88,7.88,0,0,0,.5-1.29l0-.1.09-.26v-.08c0-.08-.09-.13-.23-.16a.58.58,0,0,0-.37,0L47.1,20a.16.16,0,0,1,0-.1c.18-.2.32-.37.42-.5l.3-.35a.89.89,0,0,0,.17-.2l.46-.1.17,0-.23-.17a.67.67,0,0,0-.4-.14.11.11,0,0,1,0-.08.67.67,0,0,1,.37-.39,2.37,2.37,0,0,1,.71-.24,5.8,5.8,0,0,1,.85-.11c.3,0,.56,0,.78,0h.46c.54,0,1.08,0,1.6.06s1.05.06,1.59.06a1.88,1.88,0,0,0,.49-.06,2,2,0,0,1,.5-.06l-.05.19c0,.13-.08.19-.1.19a2.4,2.4,0,0,1-.15.23,2,2,0,0,0-.16.23l-.07.19-.55.31.38.31,0,.19a1.14,1.14,0,0,1-.43.48,2.72,2.72,0,0,1-.7.36,5.43,5.43,0,0,1-.75.24,3.07,3.07,0,0,1-.61.12l-.12.1a.34.34,0,0,0-.08.19l-.12.41a2.71,2.71,0,0,1-.13.44c0,.16-.1.28-.13.38l0,.09a.34.34,0,0,0,0,.17.15.15,0,0,1-.09.14l-.46.24.38,0q.08,0,0,.12a2.09,2.09,0,0,1-.1.21l0,.1c0,.06,0,.1,0,.1h.12a5.08,5.08,0,0,0,.93-.1,5.06,5.06,0,0,1,.91-.1.35.35,0,0,1,.35.17.56.56,0,0,1,0,.39.62.62,0,0,1-.28.28,4.68,4.68,0,0,1-.5.28l-.49.24q-.23.11-.24.18s0,.06.15.08a2.67,2.67,0,0,1,.34.11,1.33,1.33,0,0,1,.31.18c.09.07.1.18,0,.33a1.1,1.1,0,0,1-.46.56,2.1,2.1,0,0,1-.64.22q-.35.06-.69.09a1.76,1.76,0,0,0-.66.21,1.4,1.4,0,0,0-.17.3,4.49,4.49,0,0,0-.23.57c-.07.22-.14.42-.2.6a3.64,3.64,0,0,0-.12.35v0c0,.1,0,.21-.05.34l-.06.38c0,.13,0,.28-.06.46h1.78a.22.22,0,0,1,.18.06.22.22,0,0,1,0,.14,1.16,1.16,0,0,1,0,.18.48.48,0,0,0,0,.17s0,.09.1.13l.19.14a.41.41,0,0,1,.16.2.53.53,0,0,1,0,.35.48.48,0,0,1-.29.3,5.19,5.19,0,0,1-.52.19l-.51.18a.43.43,0,0,0-.29.26,1.52,1.52,0,0,1,.17.27l0,.07a.38.38,0,0,1-.27.31,3.25,3.25,0,0,1-.54.07,11.61,11.61,0,0,0-1.25.15,2.44,2.44,0,0,1-1,0l-.72-.19-.34.19a.46.46,0,0,1-.34,0,2.28,2.28,0,0,0-.4,0h-.26a1.17,1.17,0,0,1-.57-.94A3.59,3.59,0,0,1,45,30.49Z" style="fill:#423c25"/><path d="M58,29.22l-.21.2c-.06.06-.07.09-.06.11a.69.69,0,0,0,.41.19.76.76,0,0,0,.38,0,2,2,0,0,0,.46-.3c.06-.07.1-.12.1-.16a.27.27,0,0,0,0-.12s0-.07.1-.12l.74-1a1,1,0,0,0,.45-.33c0-.11.1-.22.13-.31a.67.67,0,0,1,.18-.28,1.38,1.38,0,0,1,.61-.25l1.9.05a.23.23,0,0,1,.24.16,1.47,1.47,0,0,1,0,.36,1.11,1.11,0,0,1,0,.39,2.11,2.11,0,0,1-.1.43,2.7,2.7,0,0,1-.6.95,14,14,0,0,1-1.09,1.09c-.41.37-.81.71-1.21,1l-1,.75,0,0a7.33,7.33,0,0,0-.72-.28,1.67,1.67,0,0,0-.51-.1c-.18,0-.28,0-.31.11a.38.38,0,0,0,0,.24,2.29,2.29,0,0,1,0,.25c0,.06-.06.1-.17.1h-1l-.62,0a2.45,2.45,0,0,1-.6-.12,2,2,0,0,1-.85-.59,1.63,1.63,0,0,1-.36-.75,2.38,2.38,0,0,1,0-.8c0-.27,0-.52.08-.74a1.06,1.06,0,0,0-.12-.2.76.76,0,0,0-.07-.24,3.45,3.45,0,0,1-.14-.34l-.14-.34c0-.1-.05-.17,0-.2a4.07,4.07,0,0,1,.06-1,6.82,6.82,0,0,1,.23-1c.09-.32.2-.64.32-1a3.92,3.92,0,0,0,.23-1s0,0,.1-.09L55,24l.34-.21L55,23.61l-.25-.12c-.07,0-.11-.07-.11-.08a1,1,0,0,1,.22-.4l.34-.41q.18-.2.33-.39a.66.66,0,0,0,.14-.36l.22-.3a3.9,3.9,0,0,1,.32-.42l.33-.42a1.78,1.78,0,0,1,.21-.28,4.35,4.35,0,0,1,.36-.47,3.51,3.51,0,0,1,.34-.33,2.2,2.2,0,0,1,.37-.3l.47-.36.21-.27a1,1,0,0,1,.27-.26,4.69,4.69,0,0,1,.63-.32A3,3,0,0,1,60,18a2.6,2.6,0,0,1,.56-.07l.67,0,.25,0,.3-.07a.85.85,0,0,1,.24,0c.07,0,.09,0,.08.07s0,.15.15.21l.39.15.33.13c.09,0,.09.08,0,.11a.71.71,0,0,0-.36.33,1.06,1.06,0,0,0-.14.3s0,.05.12,0a2.22,2.22,0,0,1,.36-.11,2.29,2.29,0,0,1,.47,0,.71.71,0,0,1,.47.26l.24.31a1.73,1.73,0,0,1,.12.26c0,.07,0,.13,0,.18l.06.18a1.54,1.54,0,0,0,.18.27,3.2,3.2,0,0,1,.35.69.5.5,0,0,1-.06.51,2.16,2.16,0,0,0-.35.48,1.65,1.65,0,0,0-.11.36c0,.11,0,.21,0,.31a1.47,1.47,0,0,1,0,.33l0,.05c0,.05-.14.13-.36.25a2.54,2.54,0,0,1-.83.26,3.41,3.41,0,0,1-1,0,1.83,1.83,0,0,1-1-.61V22L61,22a.16.16,0,0,0,0-.09l0-.05a5.59,5.59,0,0,0,.17-.75,2.06,2.06,0,0,1,.07-.4s0,0,0,0l-.31.2-1.73.72-.75,1.16-.12.13a.38.38,0,0,0-.09.13.26.26,0,0,0,0,.18l.07.11a.23.23,0,0,1,.06.12.3.3,0,0,1,0,.19c-.13.45-.3,1-.5,1.56l-.55,1.54a.76.76,0,0,0,.14.22q.07.09.12-.06l-.1,1.2Z" style="fill:#423c25"/><path d="M65.82,31.9a.33.33,0,0,0-.18.11l-.21.23-.22.23c-.07.07-.12.11-.15.11-.18,0-.27-.15-.26-.45a5.36,5.36,0,0,1,.14-1,9.31,9.31,0,0,1,.28-1.1c.11-.35.19-.59.22-.72.42-1.46.9-2.9,1.46-4.32s1-2.87,1.47-4.32a.11.11,0,0,1,0-.12c0-.05,0-.07,0-.07H66.5a.49.49,0,0,1,.15-.24.63.63,0,0,0,.16-.24v-.1a.88.88,0,0,1-.17-.26c0-.07.08-.12.2-.17a1.68,1.68,0,0,1,.4-.11l.41-.05h.29l-.34-.22-.36,0a1.5,1.5,0,0,1-.34-.12.7.7,0,0,1-.21-.21.4.4,0,0,1,0-.31,1.54,1.54,0,0,1,.2-.3.71.71,0,0,1,.28-.23l1.08-.19h.47l1,0,1.22,0H75.5a.53.53,0,0,1-.21.33,1,1,0,0,1-.3.1l-.32,0a.46.46,0,0,0-.3.19,1.15,1.15,0,0,0,0,.68,1.06,1.06,0,0,1,0,.66,1.79,1.79,0,0,1-.19.43,2.7,2.7,0,0,1-.43.44.81.81,0,0,1-.51.12l-.57,0a.89.89,0,0,0-.34.07c0,.05,0,.14-.08.26s-.09.24-.14.37-.11.25-.16.38l-.1.27-.09.36c0,.11-.1.3-.18.57l-.29.85q-.15.45-.3.84a5,5,0,0,1-.22.54l-1.8,6.34a2.65,2.65,0,0,1-.19.46,1.93,1.93,0,0,1-.33.48,1.11,1.11,0,0,0-.62,0,.87.87,0,0,0-.32.24l-.24.28a.49.49,0,0,1-.36.13.42.42,0,0,1-.36-.17,1.52,1.52,0,0,1-.2-.38,2.36,2.36,0,0,0-.19-.39A.32.32,0,0,0,65.82,31.9Z" style="fill:#423c25"/><path d="M17.54,54.57l-.21.24c-.07.06-.1.1-.08.12a.65.65,0,0,0,.47.24.93.93,0,0,0,.42,0,2.79,2.79,0,0,0,.56-.35c.09-.09.13-.16.13-.2a.59.59,0,0,0,0-.14s0-.08.07-.13l.84-1.1a1.22,1.22,0,0,0,.52-.39,1.38,1.38,0,0,0,.15-.36.69.69,0,0,1,.22-.31,2.13,2.13,0,0,1,.69-.29l2.24.05c.16,0,.24.07.25.19a3.12,3.12,0,0,0,.06.41,4.26,4.26,0,0,0-.07.46,4.21,4.21,0,0,1-.1.5A2.81,2.81,0,0,1,23,54.59q-.57.63-1.26,1.26c-.47.43-.93.82-1.4,1.19s-.82.65-1.08.84l0,.07a3.57,3.57,0,0,0-1.4-.45c-.2,0-.32,0-.36.13a.5.5,0,0,0,0,.27,1.46,1.46,0,0,1,0,.29q0,.12-.21.12h-.46l-.65,0-.72,0a1.94,1.94,0,0,1-.67-.14,2.55,2.55,0,0,1-1-.69,1.84,1.84,0,0,1-.42-.85,3.49,3.49,0,0,1-.06-.91,7.47,7.47,0,0,1,.11-.86c-.05-.08-.09-.16-.12-.22a2.36,2.36,0,0,1-.12-.26c-.05-.13-.1-.27-.16-.41l-.14-.4a.94.94,0,0,1-.06-.23,4.65,4.65,0,0,1,.08-1.11,10.78,10.78,0,0,1,.28-1.12c.11-.38.23-.76.37-1.14a5,5,0,0,0,.28-1.14s0,0,.12-.11l.24-.16.36-.26-.21-.09L14,48a.72.72,0,0,1-.21-.13,1.35,1.35,0,0,1,.27-.45L14.4,47a4.49,4.49,0,0,0,.36-.46.77.77,0,0,0,.16-.42l.24-.34c.11-.16.24-.32.37-.49l.39-.48c.12-.15.2-.25.25-.3a4.35,4.35,0,0,1,.37-.53c.12-.14.25-.28.38-.41a5.37,5.37,0,0,1,.44-.37l.54-.4a1,1,0,0,0,.27-.28,1.67,1.67,0,0,1,.28-.32,6.55,6.55,0,0,1,.74-.34,4.87,4.87,0,0,1,.65-.21,3.4,3.4,0,0,1,.65-.09c.22,0,.48,0,.77,0a1.77,1.77,0,0,0,.46-.07,1.78,1.78,0,0,1,.42-.07c.08,0,.12,0,.1.07s0,.16.17.23a4.68,4.68,0,0,0,.45.19c.16.06.3.11.4.16s.11.08,0,.12a.62.62,0,0,0-.41.36c-.09.19-.16.31-.19.36s0,.07.15,0a2.28,2.28,0,0,1,.42-.14,1.4,1.4,0,0,1,.55-.05.77.77,0,0,1,.54.29l.29.36a1,1,0,0,1,.14.3c0,.07,0,.14,0,.2a1.23,1.23,0,0,0,.06.22,1,1,0,0,0,.18.31,4.1,4.1,0,0,1,.42.79.5.5,0,0,1-.09.58,2.2,2.2,0,0,0-.38.56,2,2,0,0,0-.12.41,1.45,1.45,0,0,0,0,.36.93.93,0,0,1-.06.39v0c0,.05-.16.14-.42.28a3.83,3.83,0,0,1-1,.3,3.42,3.42,0,0,1-1.23,0A2.15,2.15,0,0,1,21,47.34l0-1,0,0a.53.53,0,0,1,0-.11l0-.09,0-.07c.11-.4.19-.69.22-.86s.06-.33.09-.46,0,0,0,0A3.54,3.54,0,0,0,21,45l-2,.84-.84,1.32-.12.14a.67.67,0,0,0-.12.17.21.21,0,0,0,0,.19.38.38,0,0,0,.09.13.42.42,0,0,1,.09.14.72.72,0,0,1,0,.21c-.08.26-.17.54-.28.85s-.21.63-.32.95l-.33.94q-.15.45-.3.84A3,3,0,0,0,17,52c0,.07.1,0,.15-.07L17,53.25Z" style="fill:#423c25"/><path d="M24.06,57.66H24l-.12.1-.27.94s0,0,0,0a.21.21,0,0,0-.1.06h-.07c-.1,0-.16-.08-.19-.24s0-.26,0-.31,0-.16.06-.28a3.75,3.75,0,0,1,.1-.39c0-.13.07-.25.11-.37l.09-.26a.19.19,0,0,1-.08-.14l.05-.17,0-.14.24-.75c.11-.33.24-.71.4-1.12l.48-1.32q.24-.7.48-1.32l.4-1.13c.12-.34.21-.59.26-.75.2-.36.43-.73.67-1.1a9.48,9.48,0,0,0,.62-1.1l1.14-2.33a14.43,14.43,0,0,1,1.41-2.28s.11,0,.19.07a4.07,4.07,0,0,1,.25.35l.25.38c.08.12.14.18.17.18s.1-.06.16-.18l.15-.38c.05-.14.1-.26.15-.37s.08-.16.12-.15h2.2l.48-.17a.08.08,0,0,1,.1.06,1,1,0,0,1,0,.2,1.23,1.23,0,0,0,0,.2c0,.06,0,.1.06.1a1,1,0,0,0,.25,0,.92.92,0,0,1,.29,0,.5.5,0,0,1,.22.1q.08.06,0,.24l-.67,2.3a1.7,1.7,0,0,0,0,.54,5.16,5.16,0,0,0,.09.52c0,.17.07.34.1.51a1.92,1.92,0,0,1,0,.54c0,.19-.13.53-.23,1s-.21,1-.32,1.5-.22,1-.33,1.5-.18.8-.23,1l0,.1a17.7,17.7,0,0,1-.29,2.29c-.14.76-.33,1.53-.55,2.32a2,2,0,0,1-.64-.1,2.18,2.18,0,0,0-.63-.09.23.23,0,0,0-.18.09l-.17.21-.18.2a.32.32,0,0,1-.22.1c-.08,0-.11-.06-.09-.17a2.83,2.83,0,0,1,.06-.37c0-.14,0-.26.06-.38s0-.16-.07-.16-.06,0-.11.1l-.17.23-.25.34-.17.27a.79.79,0,0,1-.24.28s0,.06-.12.1v0h-.05c-.24,0-.36-.16-.37-.47a5.52,5.52,0,0,1,.08-1c.07-.38.12-.72.17-1s0-.47-.12-.47h-.67a.6.6,0,0,0-.55.22l-.34,1.15L27,58.24a2.87,2.87,0,0,1-.18.42,2.43,2.43,0,0,1-.16.3l-.14.1H24.81l-.43-.46-.22-.1a.25.25,0,0,1,0-.2,1.64,1.64,0,0,1,.07-.28.57.57,0,0,0,0-.25C24.24,57.7,24.18,57.66,24.06,57.66Zm4.73-5.23-.07.19c0,.1,0,.16.1.17a3.29,3.29,0,0,0,.67-.12.62.62,0,0,0,.48-.41.22.22,0,0,1,.08-.09.41.41,0,0,0,.09-.1,3,3,0,0,1,0-.41c0-.19.07-.39.1-.61s.07-.42.11-.61A2,2,0,0,1,30.5,50a.89.89,0,0,1,0-.19c0-.1,0-.19.05-.29a1.15,1.15,0,0,0,0-.26q0-.12-.06-.12c-.14,0-.31.16-.49.48a10.6,10.6,0,0,0-.55,1.07c-.19.39-.34.76-.47,1.1S28.81,52.37,28.79,52.43Z" style="fill:#423c25"/><path d="M38.87,53.75s-.08,0-.09,0l-.2.38c0,.13-.1.34-.21.65s-.23.62-.35,1l-.34,1c-.1.3-.17.52-.2.65a.6.6,0,0,1-.08.34,1.59,1.59,0,0,1-.16.3.12.12,0,0,1-.14.1l-.12,0-.11,0s-.06,0-.06.05l-.17.77h-.12c-.1,0-.14,0-.14,0a.64.64,0,0,1-.59-.39.81.81,0,0,1,.15-.71c-.08-.05-.11-.07-.09-.07h-.07a.26.26,0,0,0-.22.11,1.46,1.46,0,0,0-.17.24c0,.08-.09.17-.13.25a.48.48,0,0,1-.13.17h-.05l0,0h-.5l-.25,0-.26,0-.14,0a.33.33,0,0,1-.36-.21,1.36,1.36,0,0,1-.1-.51,3.83,3.83,0,0,1,0-.6,2,2,0,0,1,.1-.41l0-.15.08-.2a.22.22,0,0,0,0-.16l0-.09,1.94-5.5a1.71,1.71,0,0,0,.08-.23,1.11,1.11,0,0,1,.09-.22,2,2,0,0,0,.13-.24l.18-.41c.06-.15.12-.28.16-.41a1.54,1.54,0,0,1,.08-.24l.12-.26c.06-.13.14-.28.22-.44s.16-.3.24-.43a1.45,1.45,0,0,1,.19-.26l.17-.19a1,1,0,0,0,.14-.2l0-.09,0-.1h-.24l-.39,0a1.07,1.07,0,0,1-.33-.08c-.1,0-.13-.1-.1-.18s.05-.08.15-.18.14-.17.14-.2l.13,0a.9.9,0,0,0,.22-.06l.19-.07q.09,0,.06-.06L36.9,46l.1-.32s0,0,0-.12a.13.13,0,0,0,0-.09.51.51,0,0,1,.21-.1l.23,0,.2,0a.15.15,0,0,0,.12-.12l-.43-.55c-.09-.13-.05-.25.12-.37a2.82,2.82,0,0,1,.77-.34,11.44,11.44,0,0,1,1.15-.28l1.26-.21c.41-.07.78-.11,1.11-.15s.55,0,.68,0a1.9,1.9,0,0,1,.68.06,3,3,0,0,0,.66.08.77.77,0,0,0,.2-.07.43.43,0,0,1,.24,0h.09a5.55,5.55,0,0,1,1,.38,4.92,4.92,0,0,1,.81.56,2.24,2.24,0,0,1,.54.52,1.12,1.12,0,0,1,.06.72l-.48.44.34.19-.07.38-.08.22a3.58,3.58,0,0,0,0,1,3,3,0,0,1-.1,1.06,1,1,0,0,1-.19.42,1.57,1.57,0,0,1-.43.34l-2.28,2.72-.1.36c.11.86.21,1.75.29,2.67A9.25,9.25,0,0,1,43.34,58a2.13,2.13,0,0,1-.4,0l-.23,0-.2-.05-.3,0s0,.07,0,.12a.1.1,0,0,1,0,.12,2.64,2.64,0,0,1-.18.23l-.3.32a2.86,2.86,0,0,1-.33.29.43.43,0,0,1-.25.12c-.09,0-.15,0-.17-.1s0-.14,0-.22a.7.7,0,0,0-.06-.23.19.19,0,0,0-.19-.1s-.08,0-.15.09l-.2.18-.21.19L40,59a.28.28,0,0,1-.14.09q-.27,0-.42-.3A2.64,2.64,0,0,1,39.2,58a7.61,7.61,0,0,1-.11-1.15c0-.42,0-.83,0-1.22s0-.75,0-1.06,0-.53,0-.66S39,53.75,38.87,53.75Zm.82-2.69,0,.17c0,.07,0,.11.12.15a2.77,2.77,0,0,0,.66-.2.9.9,0,0,0,.47-.43l1.39-2.16,0-.21a.61.61,0,0,0,0-.42c0-.14-.11-.28-.17-.41L42,47.14a.77.77,0,0,1-.06-.42c0-.11-.05-.17-.19-.17h-.07l-.35.06-.45.07-.39.06-.21,0a.59.59,0,0,0-.2.05A.39.39,0,0,0,40,47v.08a.74.74,0,0,1,.62.3,1,1,0,0,1,.1.66,8.72,8.72,0,0,1-.5,1.52A10.86,10.86,0,0,0,39.69,51.06Z" style="fill:#423c25"/><path d="M49.22,58.12,49,58.7h-.29a2.17,2.17,0,0,0-.51,0l-.52,0a1.58,1.58,0,0,1-.41,0c-.11,0-.15-.09-.12-.19a1.25,1.25,0,0,0,0-.29.64.64,0,0,1,0-.29l0-.14a.26.26,0,0,0-.17-.34c-.12,0-.2.1-.24.28a2.47,2.47,0,0,1-.12.47.35.35,0,0,1-.12.19h-.07l-.19,0H46a.52.52,0,0,0-.15.07s-.08,0-.11,0a2.11,2.11,0,0,1-.22-.4,4.42,4.42,0,0,1-.15-.48,1.9,1.9,0,0,1-.07-.45.92.92,0,0,1,0-.3l.05-.14a.58.58,0,0,0,0-.19.43.43,0,0,1,0-.17l0-.07,1.92-6,.58-.3.39-.22c.12-.07.18-.11.18-.13l-.72-.38c0-.05,0-.13.08-.23a2.79,2.79,0,0,1,.12-.34c0-.12.1-.23.15-.35a.83.83,0,0,1,.18-.24l.13-.16a1.47,1.47,0,0,1,.16-.17l0-.17H48.4a6.56,6.56,0,0,1-.73,0c-.27,0-.38-.1-.35-.21a.75.75,0,0,1,.13-.2l.16-.21v0a.06.06,0,0,0,0-.07s0,0,.06-.07l.48-.31L47.85,46a.08.08,0,0,1,0-.11s0-.07,0-.08a.54.54,0,0,1,.29-.15.25.25,0,0,0,.22-.16l0-.08a1.06,1.06,0,0,0,0-.19c0-.09-.06-.2-.09-.31a2.26,2.26,0,0,1-.08-.3.22.22,0,0,1,0-.18A2.52,2.52,0,0,1,49.29,44q.74-.15,1.56-.24c.54-.06,1-.09,1.53-.11l1,0,.75.05.36,0a3.26,3.26,0,0,0,.38,0H55c.4.09.74.19,1,.27a3,3,0,0,1,.87.45,2.68,2.68,0,0,1,.58.48.87.87,0,0,1,.11.65,10.27,10.27,0,0,1,0,1.77c-.05.43-.09.81-.12,1.13,0,.13-.07.27-.11.42s-.07.31-.1.47c-.15.48-.32,1-.53,1.67s-.45,1.28-.73,1.95-.59,1.34-.93,2A12.38,12.38,0,0,1,54,56.67,5.93,5.93,0,0,1,52.8,58a2.31,2.31,0,0,1-1.33.55l-1.39.29a.11.11,0,0,1,.07-.12c.05,0,.05,0,0,0Zm.4-2.26a1.39,1.39,0,0,0,0,.17.13.13,0,0,0,.11.15,1.67,1.67,0,0,0,.39-.16l.51-.3a4,4,0,0,0,.44-.35.7.7,0,0,0,.22-.3l2.37-6.67.07-.22a.84.84,0,0,0,0-.39c0-.12-.1-.24-.16-.36s-.11-.24-.16-.36a1.24,1.24,0,0,1-.07-.4l-.11-.06a.24.24,0,0,0-.15-.06h.19l-.37,0-.54-.06-.52-.06c-.15,0-.23,0-.25,0l-.19.06s0,.05-.07.13l0,.07a.47.47,0,0,1,.39.15.75.75,0,0,1,.16.36,1.33,1.33,0,0,1,0,.45c0,.16,0,.31-.05.43a1.94,1.94,0,0,0,0,.36,3.36,3.36,0,0,1-.05.51,4.86,4.86,0,0,1-.16.63,3.85,3.85,0,0,1-.32.74,9.64,9.64,0,0,0-.65,1.36,15.77,15.77,0,0,0-.53,1.6c-.14.54-.25,1-.33,1.51A4.17,4.17,0,0,0,49.62,55.86Z" style="fill:#423c25"/></g></g></svg>