<svg xmlns="http://www.w3.org/2000/svg" width="125" height="80" viewBox="0 0 125 80"><g id="e3a1a4ba-2f2a-47fe-8d6e-7d15ebaf7ba5" data-name="icon VA vecto"><g id="ec78022e-27ee-4440-8c34-cede3e40f6f8" data-name="objectif - copie 3"><rect x="-0.13" y="0.32" width="125" height="80" style="fill:#fff"/><path d="M128.85,18.94l-7.4-.37a.11.11,0,0,1-.09-.06s0,0,0-.06l1.3-4.14a0,0,0,0,1,0,0h0Z" style="fill:#423c25"/><path d="M124.2,2.43,121.28,8a.22.22,0,0,1-.34.07l-3.18-2.61a.09.09,0,0,1,0-.08.1.1,0,0,1,.06-.1Z" style="fill:#423c25"/><path d="M121.51,20.3a2.68,2.68,0,0,0-.2-1.76l0,0a.11.11,0,0,0,.09.06l7.4.37-6.13-4.65h0v0a2.67,2.67,0,0,0,1.51-1l10.71,7.68Z" style="fill:#fff"/><path d="M121.08,8.09a.24.24,0,0,0,.2-.12l2.92-5.54-6.42,2.82a.1.1,0,0,0-.06.1l-.11,0a2.62,2.62,0,0,0-.12-1.86l12-6.22-6.72,11.6a2.81,2.81,0,0,0-1.64-.63Z" style="fill:#fff"/><path d="M116.7,22.74l-.24,7.55-4-6.33a.21.21,0,0,1,0-.15.17.17,0,0,1,.12-.11l4-1.08a.09.09,0,0,1,.11,0A.13.13,0,0,1,116.7,22.74Z" style="fill:#423c25"/><path d="M113.56,12.25a2.32,2.32,0,1,1-3.26.29A2.32,2.32,0,0,1,113.56,12.25Z" style="fill:#fff"/><path d="M112.27,23.92l0-.14.12,0a.21.21,0,0,0,0,.15l4,6.33.24-7.55a.13.13,0,0,0,0-.09l0-.07a2.76,2.76,0,0,0,1.3.48V36.77l-7.2-11.31A2.61,2.61,0,0,0,112.27,23.92Z" style="fill:#fff"/><path d="M111.54,3.25a.16.16,0,0,1,0,.15.18.18,0,0,1-.12.12l-3.74,1.17h-.11a.19.19,0,0,1-.1-.17l.73-7.25Z" style="fill:#423c25"/><path d="M107.48,4.78A2.74,2.74,0,0,0,105.63,4l.94-13.49,6.55,11.71a2.71,2.71,0,0,0-1.47,1.26l-.1-.05a.16.16,0,0,0,0-.15l-3.33-6-.73,7.25a.19.19,0,0,0,.1.17Z" style="fill:#fff"/><path d="M106.4,21.63a.08.08,0,0,1,0,.11s0,0,0,0l-7,3.87,3.64-6.12a.16.16,0,0,1,.14-.08.16.16,0,0,1,.09,0Z" style="fill:#423c25"/><path d="M99.44,25.64l7-3.87s0,0,0,0l.07,0a2.11,2.11,0,0,0-.18.45,2.69,2.69,0,0,0,.35,1.88L94.58,30.21l6.9-11.5a2.69,2.69,0,0,0,1.73.66v.07a.16.16,0,0,0-.14.08Z" style="fill:#fff"/><path d="M103.16,9.47a.17.17,0,0,0,0-.14l.06-.08A3.19,3.19,0,0,0,106.58,9c.11-.07,2-1.34,1.49-3.12a2.46,2.46,0,0,0-.59-1.09l.1-.09h.11l3.74-1.17a.18.18,0,0,0,.12-.12l.1.05a1.46,1.46,0,0,0-.07.19c-.42,1.29.74,2.61,1.76,3.16.12.06,2.11,1.09,3.46-.16a2.88,2.88,0,0,0,.81-1.32l.11,0a.09.09,0,0,0,0,.08L120.94,8a.24.24,0,0,0,.14.05v.12a2,2,0,0,0-.41,0c-1.31.3-1.85,2-1.81,3.12,0,.13.14,2.38,1.91,2.89a3.54,3.54,0,0,0,1.91,0v0a0,0,0,0,0,0,0l-1.3,4.14s0,0,0,.06l0,0a2,2,0,0,0-.21-.33c-.88-1-2.61-.74-3.61-.17-.11.07-2,1.22-1.69,3a2.39,2.39,0,0,0,.91,1.52l0,.07a.09.09,0,0,0-.11,0l-4,1.08a.17.17,0,0,0-.12.11l-.12,0c.23-1.26-1-2.44-2-2.91-.12-.06-2.17-1-3.44.36a2.35,2.35,0,0,0-.4.54l-.07,0a.08.08,0,0,0,0-.11l-3.09-2.16a.16.16,0,0,0-.09,0v-.07a1.76,1.76,0,0,0,.31,0c1.31-.28,1.89-1.94,1.86-3.09,0-.14-.1-2.38-1.86-2.93a2.76,2.76,0,0,0-1.56,0l0-.09a.13.13,0,0,0,.1-.09Zm10.7,6a2.32,2.32,0,1,0-3.27.3A2.32,2.32,0,0,0,113.86,15.52Z" style="fill:#423c25"/><path d="M102,13.09a.13.13,0,0,1-.1.09.14.14,0,0,1-.11,0l-6.51-4,7.7.16a.14.14,0,0,1,.15.18Z" style="fill:#423c25"/><path d="M102,13.27a2.63,2.63,0,0,0-1.49,1L89,7.24,102.41,7A2.57,2.57,0,0,0,103,9.06a1.3,1.3,0,0,0,.22.19l-.06.08a.17.17,0,0,0-.12,0l-7.7-.16,6.51,4a.14.14,0,0,0,.11,0Z" style="fill:#fff"/><path d="M121.09,8.21a2.81,2.81,0,0,1,1.64.63l6.72-11.6-12,6.22a2.62,2.62,0,0,1,.12,1.86,2.88,2.88,0,0,1-.81,1.32c-1.35,1.25-3.34.22-3.46.16-1-.55-2.18-1.87-1.76-3.16a1.46,1.46,0,0,1,.07-.19,2.71,2.71,0,0,1,1.47-1.26L106.57-9.52,105.63,4a2.74,2.74,0,0,1,1.85.81,2.46,2.46,0,0,1,.59,1.09c.47,1.78-1.38,3.05-1.49,3.12a3.19,3.19,0,0,1-3.39.26,1.3,1.3,0,0,1-.22-.19A2.57,2.57,0,0,1,102.41,7L89,7.24l11.47,7a2.63,2.63,0,0,1,1.49-1,2.76,2.76,0,0,1,1.56,0c1.76.55,1.86,2.79,1.86,2.93,0,1.15-.55,2.81-1.86,3.09a1.76,1.76,0,0,1-.31,0,2.69,2.69,0,0,1-1.73-.66l-6.9,11.5,12.08-6.11a2.69,2.69,0,0,1-.35-1.88,2.11,2.11,0,0,1,.18-.45,2.35,2.35,0,0,1,.4-.54c1.27-1.33,3.32-.42,3.44-.36,1,.47,2.2,1.65,2,2.91l0,.14a2.61,2.61,0,0,1-1.46,1.54L118,36.77V23.06a2.76,2.76,0,0,1-1.3-.48,2.39,2.39,0,0,1-.91-1.52c-.35-1.8,1.58-2.95,1.69-3,1-.57,2.73-.85,3.61.17a2,2,0,0,1,.21.33,2.68,2.68,0,0,1,.2,1.76l13.4.64L124.2,13.26a2.67,2.67,0,0,1-1.51,1,3.54,3.54,0,0,1-1.91,0c-1.77-.51-1.9-2.76-1.91-2.89,0-1.15.5-2.82,1.81-3.12A2,2,0,0,1,121.09,8.21Z" style="fill:none;stroke:#423c25;stroke-miterlimit:10;stroke-width:0.60077714920044px"/><path d="M106.42,21.74s0,0,0,0l-7,3.87,3.64-6.12a.16.16,0,0,1,.14-.08.16.16,0,0,1,.09,0l3.09,2.16A.08.08,0,0,1,106.42,21.74Z" style="fill:none;stroke:#423c25;stroke-miterlimit:10;stroke-width:0.60077714920044px"/><path d="M112.42,23.81a.21.21,0,0,0,0,.15l4,6.33.24-7.55a.13.13,0,0,0,0-.09.09.09,0,0,0-.11,0l-4,1.08A.17.17,0,0,0,112.42,23.81Z" style="fill:none;stroke:#423c25;stroke-miterlimit:10;stroke-width:0.60077714920044px"/><path d="M122.7,14.29h0l6.13,4.65-7.4-.37a.11.11,0,0,1-.09-.06s0,0,0-.06l1.3-4.14A0,0,0,0,1,122.7,14.29Z" style="fill:none;stroke:#423c25;stroke-miterlimit:10;stroke-width:0.60077714920044px"/><path d="M117.72,5.35a.1.1,0,0,1,.06-.1l6.42-2.82L121.28,8a.22.22,0,0,1-.34.07l-3.18-2.61A.09.09,0,0,1,117.72,5.35Z" style="fill:none;stroke:#423c25;stroke-miterlimit:10;stroke-width:0.60077714920044px"/><path d="M111.55,3.4a.16.16,0,0,0,0-.15l-3.33-6-.73,7.25a.19.19,0,0,0,.1.17h.11l3.74-1.17A.18.18,0,0,0,111.55,3.4Z" style="fill:none;stroke:#423c25;stroke-miterlimit:10;stroke-width:0.60077714920044px"/><path d="M101.93,13.18a.14.14,0,0,1-.11,0l-6.51-4,7.7.16a.14.14,0,0,1,.15.18L102,13.09A.13.13,0,0,1,101.93,13.18Z" style="fill:none;stroke:#423c25;stroke-miterlimit:10;stroke-width:0.60077714920044px"/><path d="M113.56,12.25a2.32,2.32,0,1,1-3.26.29A2.32,2.32,0,0,1,113.56,12.25Z" style="fill:none;stroke:#423c25;stroke-miterlimit:10;stroke-width:0.60077714920044px"/><rect x="-0.13" y="0.32" width="125" height="80" style="fill:none;stroke:#423c25;stroke-miterlimit:10;stroke-width:2px"/><path d="M19.41,26.09l-.48,1c-.05.15-.13.38-.23.71s-.22.68-.35,1-.24.72-.35,1.05-.18.56-.23.71l0,.16q-.06.2-.12.36a1.79,1.79,0,0,1-.1.22c0,.08-.06.12-.17.12l-.12,0a.33.33,0,0,1-.12,0c-.05,0-.07,0-.07.05l-.22.89h-.12c-.11,0-.17,0-.19,0a2.37,2.37,0,0,0-.53,0,4.23,4.23,0,0,1-.48,0,.73.73,0,0,1-.32,0q-.11,0-.06-.24s0-.07,0-.16a2.22,2.22,0,0,1,.1-.32l.07-.31,0-.17a.06.06,0,0,1,0-.05.08.08,0,0,0-.05-.07h-.1a.31.31,0,0,0-.26.12,1.27,1.27,0,0,0-.18.27q-.09.16-.15.3a.53.53,0,0,1-.15.22h-.1L14.1,32h-.24a.35.35,0,0,0-.15.07.12.12,0,0,1-.14,0,3.39,3.39,0,0,1-.2-.54,4.35,4.35,0,0,1-.13-.58,5,5,0,0,1-.06-.51,1.14,1.14,0,0,1,0-.39l0-.16.12-.41,0-.12,2.28-6.24s0-.06.12-.12l.26-.22.26-.23c.08-.07.12-.11.12-.13s0-.09,0-.21,0-.27,0-.41,0-.31,0-.43,0-.2,0-.22a2.09,2.09,0,0,1,.12-.31c.06-.16.13-.33.21-.52s.17-.35.26-.51a.68.68,0,0,1,.22-.29,1,1,0,0,1,.16-.21l.18-.2.07-.24h-.26L17,18.83a1.38,1.38,0,0,1-.39-.11c-.11,0-.15-.11-.12-.19a.85.85,0,0,1,.13-.22,1.85,1.85,0,0,0,.16-.24l0,0a.15.15,0,0,0,0-.11s0-.05.11-.08l.55-.36-.31-.34c0-.05,0-.09,0-.13a.17.17,0,0,0,.06-.11.76.76,0,0,1,.38-.19.28.28,0,0,0,.24-.26.5.5,0,0,0,0-.26c0-.12-.07-.24-.11-.37a1.75,1.75,0,0,1-.07-.36q0-.17.06-.21a2.25,2.25,0,0,1,.73-.38,8.59,8.59,0,0,1,1-.26c.38-.07.77-.12,1.19-.16l1.16-.08c.36,0,.69,0,1,0h.64l.82.08.4,0h.56a6.81,6.81,0,0,1,1.15.43,4.54,4.54,0,0,1,.94.65,2.28,2.28,0,0,1,.63.59,1.2,1.2,0,0,1,.09.8c0,.47,0,.88-.05,1.23s-.07.66-.11.93-.08.52-.13.75a5.13,5.13,0,0,0-.1.65,9.8,9.8,0,0,1-.49,1.34c-.21.5-.45,1-.71,1.48a15.6,15.6,0,0,1-.81,1.38,7.87,7.87,0,0,1-.82,1.05q-.64.27-1.32.51c-.45.16-.95.31-1.51.45l-1.58.29c0-.08,0-.13.08-.14s.05,0,0,0Zm1-2.64c0,.05,0,.12,0,.2s0,.14.16.16a1.18,1.18,0,0,0,.53-.19,1.68,1.68,0,0,0,.39-.48l1.39-2.64.07-.24A3.07,3.07,0,0,0,23,19.21a5.18,5.18,0,0,1,0-1c0-.13-.08-.19-.24-.19h0L23,18a1.52,1.52,0,0,1-.39.1l-.52.11-.5.09-.25.06-.21.05s-.07.07-.1.17l0,.1c.38,0,.6.14.66.34a1.64,1.64,0,0,1,0,.78A8.41,8.41,0,0,1,21,21.6,9.17,9.17,0,0,0,20.41,23.45Z" style="fill:#423c25"/><path d="M29.8,17.92a3.48,3.48,0,0,1,.69-.59,3.08,3.08,0,0,1,.89-.36,5.29,5.29,0,0,1,1.2-.12h.15s.06,0,.06.14a1.36,1.36,0,0,1-.06.29l0,.15.55-.36-.29,3c-.08,0-.13.06-.14.1l0,.12-.12.36c-.14.48-.26.91-.36,1.3s-.21.85-.34,1.36l-.51,1.87c-.2.74-.47,1.7-.8,2.88a5.17,5.17,0,0,0-.18.81.35.35,0,0,0,.18.4,1.75,1.75,0,0,0,.74.18c.35,0,.86.08,1.51.12a.46.46,0,0,1,.11.28q0,.11-.06.3a.71.71,0,0,1-.09.17l-.16.2c-.06.07-.1.14-.14.19a.17.17,0,0,0,0,.16s0,.05,0,.11l.06.18.11.24,0,.09a.62.62,0,0,1-.22.21c-.13.09-.27.18-.43.27l-.46.26a.89.89,0,0,1-.26.1L31,32.23c-.05,0-.09,0-.12.05a.17.17,0,0,1-.17.1h-.14a17.82,17.82,0,0,1-2.43-.17,11.09,11.09,0,0,0-2.45-.07.59.59,0,0,1-.26-.67.5.5,0,0,1,.11-.16.26.26,0,0,0,.08-.13l0-.07-.1-.36,0-.05,1.37.07-1.2-.38,0-.08a.93.93,0,0,0,0-.33,1,1,0,0,1,.06-.39l0-.07a.45.45,0,0,1,0-.13l.06-.13,0-.1a1.32,1.32,0,0,1,.42-.17l.39-.09v0l0-.07a2.15,2.15,0,0,0,0-.32,4.63,4.63,0,0,0,0-.54v-.89l.27-.86.44-1.34.42-1.33c.12-.41.21-.69.26-.84a9.37,9.37,0,0,0,.31-1.7A8.22,8.22,0,0,1,29,19.27l0-.12a2.45,2.45,0,0,0,.12-.31l0-.12A9.72,9.72,0,0,1,29.8,17.92Z" style="fill:#423c25"/><path d="M34.6,23.11a2.34,2.34,0,0,1,.2-.43l.28-.44a5.05,5.05,0,0,0,.25-.45.93.93,0,0,0,.11-.4l.23-.32.33-.46c.12-.17.23-.33.34-.47s.17-.25.2-.31a5.26,5.26,0,0,1,.41-.52c.13-.14.25-.26.37-.37a4.94,4.94,0,0,1,.41-.34c.15-.11.32-.25.52-.43l.22-.29a1.69,1.69,0,0,1,.26-.29,4.66,4.66,0,0,1,1-.44,13.3,13.3,0,0,1,1.35-.35c.48-.09.93-.17,1.36-.23a9.74,9.74,0,0,1,1-.08c.31,0,.42.11.34.34a.41.41,0,0,1-.12.2l-.22.16a1.13,1.13,0,0,0-.21.15.32.32,0,0,0-.12.18c0,.08,0,.14.08.18l.29.1.31.07a.29.29,0,0,1,.2.11l.34.74c.06.13.11.23.13.29a.67.67,0,0,1,0,.19,2.07,2.07,0,0,0,0,.22.88.88,0,0,0,.14.31,2.24,2.24,0,0,0,.22.34,1,1,0,0,1,.14.24.79.79,0,0,1,0,.28,2.8,2.8,0,0,1-.09.46,7.59,7.59,0,0,1-.3.83,6.61,6.61,0,0,0-.3.85l0,.05c0,.08,0,.25-.07.51s-.07.56-.11.87-.08.6-.11.87-.06.44-.07.51l0,.07a.23.23,0,0,0,0,.12.34.34,0,0,1,0,.17L44,26l0,.1a.88.88,0,0,1-.07.13c0,.06-.06.1-.07.13l0,.1a.63.63,0,0,1-.31.17.29.29,0,0,0-.24.19.24.24,0,0,0,.12.29.31.31,0,0,1,.17.29,2.45,2.45,0,0,0-.06.43,2.59,2.59,0,0,1-.08.48,2.71,2.71,0,0,1-.64,1,13.57,13.57,0,0,1-1.15,1.11c-.43.37-.85.72-1.27,1.05s-.77.59-1,.8c0,0-.08.06-.08.07a.2.2,0,0,0,0,.2.18.18,0,0,1,0,.19c0,.13-.21.21-.53.24s-.62.05-.91.05h-.43a4.89,4.89,0,0,1-.68-.08,6.76,6.76,0,0,1-.93-.2,7.33,7.33,0,0,1-.87-.3.79.79,0,0,1-.45-.36,1.85,1.85,0,0,0-.21-.34L34,31.42a3.9,3.9,0,0,1-.19-.35.78.78,0,0,1-.06-.37l0-.15.09-.28L34,30l0-.15a.22.22,0,0,0-.06-.24.36.36,0,0,1-.13-.24,1,1,0,0,1,0-.26c0-.13,0-.26,0-.4s0-.26,0-.37a1,1,0,0,1,0-.24,6.59,6.59,0,0,1,.1-1.09A8.61,8.61,0,0,1,34.09,26c.12-.37.22-.73.33-1.08a5.85,5.85,0,0,0,.2-1.08s0-.1,0-.2a.88.88,0,0,1-.06-.16.5.5,0,0,0,0-.14A.8.8,0,0,1,34.6,23.11ZM37,27.82a.9.9,0,0,0,0,.35c0,.16.11.34.18.52a2.9,2.9,0,0,0,.24.5c.09.14.16.21.2.21a.63.63,0,0,0,.39-.2l.26-.25a2.24,2.24,0,0,1,.21-.2l.33-.31.34-.31a1.29,1.29,0,0,1,.23-.19l0-.15a18,18,0,0,0,.44-1.89A12.3,12.3,0,0,1,40.45,24a3.43,3.43,0,0,1,0-.41,3.93,3.93,0,0,1,.06-.48c0-.16.05-.31.07-.46a1.59,1.59,0,0,1,.08-.33s.07-.14.15-.31.13-.28.14-.32l0,0,0-.1,0-.1,0-.07a.41.41,0,0,0-.05-.45,1,1,0,0,0-.34-.27l-.35-.17c-.1,0-.11-.11,0-.19h-.24a.11.11,0,0,0-.1,0,2.15,2.15,0,0,0-.07.24L38.75,22.2l0,.17a1.42,1.42,0,0,0-.06.58,1.26,1.26,0,0,1-.06.6,17,17,0,0,1-.78,2.13A17.78,17.78,0,0,0,37,27.82Z" style="fill:#423c25"/><path d="M44.89,31.44s-.1,0-.18.11l-.21.23-.22.23c-.07.07-.12.1-.15.1-.18,0-.26-.14-.26-.44a5.16,5.16,0,0,1,.14-1,9.31,9.31,0,0,1,.28-1.1c.12-.36.19-.6.22-.72.42-1.46.9-2.9,1.46-4.32s1.05-2.87,1.47-4.32a.15.15,0,0,1,0-.12c0-.05,0-.08,0-.08H45.57a.61.61,0,0,1,.15-.24.51.51,0,0,0,.16-.24v-.09c-.11-.15-.17-.23-.17-.27a.29.29,0,0,1,.2-.16,1.68,1.68,0,0,1,.4-.11,3.05,3.05,0,0,1,.41-.05H47l-.34-.22-.36,0a1.5,1.5,0,0,1-.34-.12.7.7,0,0,1-.21-.21.4.4,0,0,1,0-.31,1.54,1.54,0,0,1,.2-.3.63.63,0,0,1,.28-.23l1.08-.19h.47l1,0c.4,0,.8,0,1.22,0l1,0h3.58a.53.53,0,0,1-.21.34,1,1,0,0,1-.3.1l-.32,0a.47.47,0,0,0-.3.2,1.15,1.15,0,0,0,0,.68,1.06,1.06,0,0,1,0,.66,1.47,1.47,0,0,1-.19.43,2.38,2.38,0,0,1-.43.43.69.69,0,0,1-.5.12l-.58,0a.74.74,0,0,0-.34.07c0,.05,0,.13-.08.25s-.09.25-.14.38S51,21,51,21.17s-.08.22-.1.26l-.09.36c0,.12-.09.31-.18.58l-.29.85q-.15.45-.3.84a5,5,0,0,1-.22.54L48,30.94a2.33,2.33,0,0,1-.19.45,1.62,1.62,0,0,1-.33.48,1.1,1.1,0,0,0-.62,0,.87.87,0,0,0-.32.24l-.24.27a.46.46,0,0,1-.36.14.42.42,0,0,1-.36-.17,1.43,1.43,0,0,1-.2-.39c-.06-.14-.12-.27-.18-.38A.35.35,0,0,0,44.89,31.44Z" style="fill:#423c25"/><path d="M19.09,54.11a1.59,1.59,0,0,1-.2.24c-.07.06-.1.1-.08.12a.73.73,0,0,0,.46.24.91.91,0,0,0,.42,0,2.65,2.65,0,0,0,.57-.35.36.36,0,0,0,.13-.21.59.59,0,0,0,0-.13s0-.08.07-.13l.84-1.1a1.12,1.12,0,0,0,.51-.39A1.38,1.38,0,0,0,22,52a.62.62,0,0,1,.22-.31,1.93,1.93,0,0,1,.69-.29l2.23.05c.16,0,.25.06.26.19a1.51,1.51,0,0,0,.06.41c0,.06,0,.22-.08.46a3.33,3.33,0,0,1-.09.5,2.88,2.88,0,0,1-.69,1.08,15,15,0,0,1-1.26,1.26c-.46.42-.92.82-1.39,1.19s-.82.65-1.08.84l-.05.07A3.55,3.55,0,0,0,19.38,57c-.21,0-.33,0-.36.14a.49.49,0,0,0,0,.27,2.83,2.83,0,0,1,0,.29q0,.12-.21.12H17.7c-.22,0-.46,0-.72,0a2.21,2.21,0,0,1-.67-.14,2.57,2.57,0,0,1-1-.69,1.89,1.89,0,0,1-.42-.85,2.8,2.8,0,0,1-.06-.91,7.65,7.65,0,0,1,.11-.87l-.12-.21a.87.87,0,0,1-.12-.27l-.16-.4c-.06-.15-.1-.28-.14-.4a1.07,1.07,0,0,1-.06-.23,4.62,4.62,0,0,1,.08-1.11,8.73,8.73,0,0,1,.28-1.12c.11-.38.23-.76.37-1.14a5.24,5.24,0,0,0,.27-1.14s0,0,.12-.11l.24-.17.36-.25a.77.77,0,0,0-.2-.09l-.38-.18c-.14-.08-.21-.12-.21-.14a1.42,1.42,0,0,1,.27-.44l.39-.47a3.68,3.68,0,0,0,.36-.47.72.72,0,0,0,.16-.42l.24-.33a5.25,5.25,0,0,1,.37-.49l.38-.48a1.91,1.91,0,0,1,.26-.3,3.47,3.47,0,0,1,.37-.53,5,5,0,0,1,.38-.41l.43-.37.54-.4a1,1,0,0,0,.28-.29,1.53,1.53,0,0,1,.28-.31c.27-.14.52-.26.74-.35a6,6,0,0,1,.65-.2,4.41,4.41,0,0,1,.65-.1l.76,0a1.78,1.78,0,0,0,.47-.07,1.78,1.78,0,0,1,.42-.07c.08,0,.11,0,.1.07s0,.15.17.23a4.68,4.68,0,0,0,.45.19l.4.15c.1.05.11.09,0,.12a.66.66,0,0,0-.41.36,2.31,2.31,0,0,1-.19.36c0,.07,0,.08.14,0l.42-.15a1.7,1.7,0,0,1,.56,0,.8.8,0,0,1,.54.28l.28.36a1.36,1.36,0,0,1,.15.3,1.29,1.29,0,0,0,.05.21,1.15,1.15,0,0,0,.06.21,1,1,0,0,0,.18.32,3.83,3.83,0,0,1,.42.79.5.5,0,0,1-.09.57,2.41,2.41,0,0,0-.38.57,1.24,1.24,0,0,0-.12.41,1.45,1.45,0,0,0,0,.36,1.43,1.43,0,0,1-.06.39v0c0,.05-.16.14-.42.28a3.78,3.78,0,0,1-1,.3,3.37,3.37,0,0,1-1.22,0,2.21,2.21,0,0,1-1.18-.71l0-1,0-.05,0-.1a.36.36,0,0,1,0-.09l0-.07c.11-.4.18-.69.22-.86s.06-.33.09-.46,0,0,0,0a3.54,3.54,0,0,0-.4.23l-2,.84-.84,1.32-.12.14a.33.33,0,0,0-.12.17.21.21,0,0,0,0,.19.38.38,0,0,0,.09.13.51.51,0,0,1,.09.13.79.79,0,0,1,0,.22c-.08.26-.18.54-.28.85s-.21.63-.32,1-.22.63-.33.94-.2.58-.3.84a3,3,0,0,0,.17.26c.05.06.1,0,.14-.07l-.14,1.37Z" style="fill:#423c25"/><path d="M25.62,57.2h-.09l-.12.1-.27.93s0,0-.05,0a.24.24,0,0,0-.09.06h-.07c-.1,0-.16-.08-.2-.24a.51.51,0,0,1,0-.31,2.57,2.57,0,0,0,.06-.28,4,4,0,0,1,.11-.39c0-.13.07-.26.11-.38s.07-.2.08-.25a.23.23,0,0,1-.07-.14l.05-.17.05-.14.24-.75c.11-.33.24-.71.39-1.13s.32-.85.48-1.32l.48-1.32c.16-.41.29-.79.41-1.12s.21-.59.25-.75c.21-.37.44-.73.68-1.1a10.29,10.29,0,0,0,.62-1.11l1.14-2.32a15.1,15.1,0,0,1,1.4-2.28c.05,0,.12,0,.2.07a2.93,2.93,0,0,1,.25.35l.25.38c.08.12.14.18.17.18s.1-.06.15-.18.11-.25.16-.38.1-.26.14-.38.09-.16.12-.14h2.21l.48-.17a.08.08,0,0,1,.1.06,1.08,1.08,0,0,1,0,.19c0,.08,0,.14,0,.21s0,.09.06.09a.9.9,0,0,0,.25,0,.93.93,0,0,1,.29,0,.41.41,0,0,1,.21.09c.06.05.07.13,0,.24l-.67,2.31a1.46,1.46,0,0,0,0,.54,4.5,4.5,0,0,0,.08.51c0,.18.08.35.11.52a2.38,2.38,0,0,1,0,.54c-.05.19-.13.52-.23,1s-.21,1-.33,1.5-.22,1-.32,1.5-.18.8-.23,1l0,.1a19.63,19.63,0,0,1-.29,2.29c-.14.76-.33,1.53-.55,2.32a2.2,2.2,0,0,1-.64-.1,2.19,2.19,0,0,0-.63-.1.24.24,0,0,0-.18.1,1.63,1.63,0,0,0-.17.2c-.06.08-.12.14-.18.21a.33.33,0,0,1-.22.09c-.08,0-.11-.05-.09-.16a3,3,0,0,1,.06-.38c0-.13,0-.26.06-.37s0-.17-.08-.17a.36.36,0,0,0-.1.11,2,2,0,0,0-.17.23l-.25.34-.17.27a.91.91,0,0,1-.24.28s0,.06-.12.09v0h-.05c-.24,0-.36-.16-.37-.47a5.46,5.46,0,0,1,.08-1c.07-.38.12-.72.17-1s0-.47-.12-.47H29.8a.62.62,0,0,0-.55.21l-.34,1.16-.31,1.15a4.26,4.26,0,0,1-.18.42,2.43,2.43,0,0,1-.16.3l-.14.09H26.37l-.44-.45-.21-.1a.3.3,0,0,1,0-.2,1.72,1.72,0,0,1,.08-.28.57.57,0,0,0,0-.25C25.79,57.24,25.73,57.2,25.62,57.2ZM30.35,52a1.15,1.15,0,0,0-.07.19c0,.1,0,.15.09.17a5.46,5.46,0,0,0,.68-.12.62.62,0,0,0,.48-.41.22.22,0,0,1,.08-.09.31.31,0,0,0,.08-.1,3.31,3.31,0,0,1,0-.41c0-.19.07-.39.1-.61s.07-.42.11-.61a3.5,3.5,0,0,1,.1-.41,1.12,1.12,0,0,1,0-.19,2.93,2.93,0,0,1,.05-.29,1.17,1.17,0,0,0,0-.26q0-.12-.06-.12c-.15,0-.31.16-.49.48s-.37.67-.56,1.06-.34.76-.46,1.11S30.37,51.91,30.35,52Z" style="fill:#423c25"/><path d="M40.43,53.29l-.1,0-.19.39a5.43,5.43,0,0,1-.22.65c-.11.3-.22.62-.34,1s-.24.65-.34,1-.17.52-.2.64a.67.67,0,0,1-.09.35,1.26,1.26,0,0,1-.15.3.14.14,0,0,1-.15.1l-.12,0-.11,0s-.05,0-.05.05l-.17.77h-.12q-.15,0-.15,0a.64.64,0,0,1-.58-.39.78.78,0,0,1,.15-.71c-.08-.05-.11-.07-.09-.07h-.08a.26.26,0,0,0-.21.1,1.77,1.77,0,0,0-.17.24c-.05.09-.09.18-.13.26a.45.45,0,0,1-.13.16h0l0,0h-.51l-.25,0-.25,0h-.14a.31.31,0,0,1-.36-.2,1.21,1.21,0,0,1-.1-.52,4,4,0,0,1,.05-.6,2.24,2.24,0,0,1,.09-.4l.05-.15c0-.08.06-.15.09-.2a.22.22,0,0,0,0-.16l0-.09,2-5.5.08-.23a1.81,1.81,0,0,1,.09-.23,1.08,1.08,0,0,0,.13-.24c.05-.12.11-.26.18-.4s.11-.28.15-.41a4.64,4.64,0,0,1,.21-.51l.21-.43c.08-.16.16-.3.24-.43a1.11,1.11,0,0,1,.2-.26l.16-.2c.1-.11.15-.17.15-.19l0-.09,0-.1h-.23l-.39,0a1.13,1.13,0,0,1-.34-.08Q38,46.5,38,46.38a.68.68,0,0,1,.14-.18c.1-.11.15-.17.15-.21l.13,0,.22-.06.19-.07s.07-.05.06-.06l-.46-.27.1-.31s0-.05,0-.12,0-.08,0-.09a.62.62,0,0,1,.22-.1l.23,0a1.2,1.2,0,0,0,.2,0,.15.15,0,0,0,.12-.12l-.43-.55c-.1-.13-.06-.26.12-.38a2.84,2.84,0,0,1,.77-.33,8.82,8.82,0,0,1,1.15-.28L42.17,43c.41-.07.78-.12,1.1-.15l.69,0a2.54,2.54,0,0,1,.68.06,2.5,2.5,0,0,0,.66.09.58.58,0,0,0,.19-.07.39.39,0,0,1,.24,0h.1a5.43,5.43,0,0,1,1,.38,5.6,5.6,0,0,1,.82.55,2.44,2.44,0,0,1,.54.53,1.12,1.12,0,0,1,.06.72l-.48.43.33.2L48,46l-.07.22a4,4,0,0,0,0,1,3.18,3.18,0,0,1-.09,1.05,1.15,1.15,0,0,1-.19.42,1.5,1.5,0,0,1-.44.35l-2.28,2.71-.09.36c.11.87.2,1.76.28,2.68a8.66,8.66,0,0,1-.19,2.77l-.39,0-.23,0-.2-.05-.3,0a.11.11,0,0,0,0,.12.1.1,0,0,1,0,.12l-.19.23a3.84,3.84,0,0,1-.62.61.46.46,0,0,1-.25.12c-.1,0-.15,0-.17-.1s0-.14,0-.23a.51.51,0,0,0,0-.22.2.2,0,0,0-.2-.1.29.29,0,0,0-.14.08l-.2.18a2,2,0,0,0-.21.2l-.14.12a.32.32,0,0,1-.15.09q-.25,0-.42-.3a3.28,3.28,0,0,1-.24-.84,9.48,9.48,0,0,1-.1-1.15c0-.42,0-.83,0-1.22s0-.75,0-1.06,0-.53,0-.66S40.56,53.29,40.43,53.29Zm.82-2.69,0,.17c0,.06,0,.11.12.14a2.35,2.35,0,0,0,.66-.19.94.94,0,0,0,.47-.43l1.39-2.16,0-.22a.61.61,0,0,0,0-.42,3.33,3.33,0,0,0-.16-.4c-.07-.14-.13-.28-.18-.41a.77.77,0,0,1-.06-.42c0-.11,0-.17-.19-.17h-.08l-.34.06-.45.07-.39.06a.6.6,0,0,0-.21,0,.59.59,0,0,0-.2.05s0,.06-.09.14v.07a.82.82,0,0,1,.63.3,1.06,1.06,0,0,1,.09.66,8,8,0,0,1-.49,1.53A8.76,8.76,0,0,0,41.25,50.6Z" style="fill:#423c25"/><path d="M50.77,57.66l-.24.57a.62.62,0,0,1-.28,0h-.51a4.58,4.58,0,0,1-.53,0,1.5,1.5,0,0,1-.4,0c-.12,0-.16-.1-.12-.19a1.25,1.25,0,0,0,0-.29.63.63,0,0,1,0-.29l0-.14c0-.15,0-.26-.17-.34s-.21.09-.24.28a2.47,2.47,0,0,1-.12.47.35.35,0,0,1-.12.19H48l-.19,0h-.22a.42.42,0,0,0-.15.07s-.08,0-.11,0a2.22,2.22,0,0,1-.22-.41A4.42,4.42,0,0,1,47,57a2.57,2.57,0,0,1-.08-.44,1.15,1.15,0,0,1,0-.3l0-.14a.64.64,0,0,0,0-.2.38.38,0,0,1,0-.16l0-.08,1.92-6,.58-.3.39-.22A.61.61,0,0,0,50.1,49l-.72-.39a2,2,0,0,0,.07-.22l.12-.34a3.73,3.73,0,0,1,.16-.35.83.83,0,0,1,.18-.24.73.73,0,0,1,.13-.17,2.12,2.12,0,0,1,.16-.16l0-.17H50a6.4,6.4,0,0,1-.73,0c-.27,0-.39-.1-.35-.22a.81.81,0,0,1,.13-.19l.16-.21v0s0-.05,0-.07,0,0,.06-.07l.48-.31-.28-.29s0-.07,0-.11,0-.07,0-.08a.54.54,0,0,1,.29-.15.22.22,0,0,0,.21-.17L50,45a1.06,1.06,0,0,0-.05-.19c0-.1-.06-.2-.1-.31s-.05-.21-.07-.3,0-.15,0-.18a2.52,2.52,0,0,1,1.08-.42,12.14,12.14,0,0,1,1.56-.24c.54-.06,1.05-.09,1.53-.11s.82,0,1,0l.74,0h.36l.39,0h.12c.4.09.74.18,1,.27a2.85,2.85,0,0,1,.86.45,2.56,2.56,0,0,1,.59.48.84.84,0,0,1,.11.64,10.38,10.38,0,0,1,0,1.78c0,.43-.09.81-.12,1.13,0,.13-.07.27-.11.42s-.07.31-.11.47c-.14.48-.32,1-.52,1.66s-.46,1.29-.74,2-.58,1.34-.92,2a13.37,13.37,0,0,1-1.07,1.77,6.17,6.17,0,0,1-1.2,1.28A2.34,2.34,0,0,1,53,58l-1.39.29a.11.11,0,0,1,.07-.12s0,0,0,0Zm.41-2.26a.52.52,0,0,0,0,.17c0,.08,0,.13.1.14a1.19,1.19,0,0,0,.4-.15,5.09,5.09,0,0,0,.5-.3,3.34,3.34,0,0,0,.45-.35.58.58,0,0,0,.21-.3l2.38-6.67.07-.22a.73.73,0,0,0,0-.39c0-.12-.1-.24-.15-.36s-.11-.24-.16-.36a1.05,1.05,0,0,1-.07-.4s0,0-.11-.06a.26.26,0,0,0-.15-.06h.19l-.37,0L53.85,46,53.33,46c-.15,0-.24,0-.25,0l-.19.06s0,.05-.08.13l0,.07a.49.49,0,0,1,.38.14.86.86,0,0,1,.17.36,1.75,1.75,0,0,1,0,.46c0,.16,0,.3,0,.43a1.86,1.86,0,0,0,0,.36,3.34,3.34,0,0,1,0,.51c0,.19-.09.4-.16.63a3.78,3.78,0,0,1-.32.73,9.8,9.8,0,0,0-.65,1.37,13.62,13.62,0,0,0-.53,1.6c-.14.53-.26,1-.34,1.51A4.07,4.07,0,0,0,51.18,55.4Z" style="fill:#423c25"/></g></g></svg>