<svg xmlns="http://www.w3.org/2000/svg" width="125" height="80" viewBox="0 0 125 80"><g id="f8c12782-1bf6-4f55-b302-93f5ea4d2349" data-name="icon VA vecto"><g id="b4d93c18-d856-473a-ac39-fea74be260c1" data-name="personnage - copie 3"><rect x="-0.27" y="0.42" width="125" height="80" style="fill:#fff"/><path d="M128.71,19l-7.4-.36a.1.1,0,0,1-.08-.06.06.06,0,0,1,0-.06l1.3-4.14a0,0,0,0,1,0,0h0Z" style="fill:#423c25"/><path d="M124.06,2.52l-2.92,5.55a.22.22,0,0,1-.2.12.27.27,0,0,1-.14,0l-3.18-2.61a.1.1,0,0,1,0-.14l0,0Z" style="fill:#423c25"/><path d="M121.37,20.4a2.62,2.62,0,0,0-.2-1.76l.06,0a.1.1,0,0,0,.08.06l7.4.36-6.13-4.64h0v0a2.7,2.7,0,0,0,1.5-1L134.77,21Z" style="fill:#fff"/><path d="M122.59,9A2.8,2.8,0,0,0,121,8.31V8.19a.22.22,0,0,0,.2-.12l2.92-5.55-6.42,2.82,0,0-.1,0a2.72,2.72,0,0,0-.14-1.81l12-6.22Z" style="fill:#fff"/><path d="M116.56,22.84l-.24,7.54-4-6.33a.16.16,0,0,1,0-.15.14.14,0,0,1,.11-.1l4-1.08a.14.14,0,0,1,.12,0A.12.12,0,0,1,116.56,22.84Z" style="fill:#423c25"/><path d="M113.43,12.35a2.33,2.33,0,1,1-3.27.3A2.33,2.33,0,0,1,113.43,12.35Z" style="fill:#fff"/><path d="M116.57,22.68a2.92,2.92,0,0,0,1.3.48V36.87l-7.2-11.31A2.58,2.58,0,0,0,112.13,24l0-.13.13,0a.16.16,0,0,0,0,.15l4,6.33.24-7.54a.12.12,0,0,0,0-.09Z" style="fill:#fff"/><path d="M111.4,3.35a.16.16,0,0,1,0,.15.16.16,0,0,1-.12.12l-3.74,1.17a.16.16,0,0,1-.19-.08.14.14,0,0,1,0-.09l.72-7.26Z" style="fill:#423c25"/><path d="M111.4,3.35l-3.33-6-.72,7.26a.14.14,0,0,0,0,.09l-.1.09a2.76,2.76,0,0,0-1.77-.73l.94-13.49L113,2.29a2.68,2.68,0,0,0-1.47,1.26l-.11,0A.16.16,0,0,0,111.4,3.35Z" style="fill:#fff"/><path d="M103.08,19.54a.15.15,0,0,0-.13.09L99.3,25.74l7-3.86,0,0,.06,0a1.43,1.43,0,0,0-.17.43,2.61,2.61,0,0,0,.34,1.88L94.44,30.31l6.91-11.5a2.67,2.67,0,0,0,1.73.66Z" style="fill:#fff"/><path d="M106.25,21.88l-7,3.86L103,19.63a.15.15,0,0,1,.13-.09.12.12,0,0,1,.09,0l3.09,2.16a.1.1,0,0,1,0,.12Z" style="fill:#423c25"/><path d="M120.64,14.37a3.58,3.58,0,0,0,1.92,0v0a0,0,0,0,0,0,0l-1.3,4.14a.06.06,0,0,0,0,.06l-.06,0a1.42,1.42,0,0,0-.21-.33c-.87-1-2.6-.74-3.61-.17-.11.07-2,1.21-1.69,3a2.39,2.39,0,0,0,.91,1.52l0,.07a.14.14,0,0,0-.12,0l-4,1.08a.14.14,0,0,0-.11.1l-.13,0c.23-1.26-1-2.44-2-2.91-.11-.06-2.16-1-3.44.35a2.24,2.24,0,0,0-.4.56l-.06,0a.1.1,0,0,0,0-.12l-3.09-2.16a.12.12,0,0,0-.09,0v-.07a1.54,1.54,0,0,0,.3,0c1.31-.28,1.89-1.94,1.86-3.1,0-.12-.1-2.37-1.86-2.92a2.86,2.86,0,0,0-1.56-.05l0-.07a.16.16,0,0,0,.1-.1L103,9.58a.14.14,0,0,0-.08-.18l.06-.09c1,.77,2.54.38,3.44-.22.11-.07,2-1.34,1.49-3.12a2.44,2.44,0,0,0-.67-1.17l.1-.09a.16.16,0,0,0,.19.08l3.74-1.17a.16.16,0,0,0,.12-.12l.11,0a.7.7,0,0,0-.08.2c-.41,1.28.74,2.6,1.76,3.15.12.06,2.11,1.09,3.46-.17a2.93,2.93,0,0,0,.84-1.37l.1,0a.1.1,0,0,0,0,.14l3.18,2.61a.27.27,0,0,0,.14,0v.12a2,2,0,0,0-.41,0c-1.31.3-1.85,2-1.8,3.12C118.74,11.61,118.87,13.85,120.64,14.37Zm-6.92,1.25a2.32,2.32,0,1,0-3.27.3A2.33,2.33,0,0,0,113.72,15.62Z" style="fill:#423c25"/><path d="M101.68,13.27l-6.51-4,7.7.15.07,0a.14.14,0,0,1,.08.18l-1.13,3.61a.16.16,0,0,1-.1.1A.15.15,0,0,1,101.68,13.27Z" style="fill:#423c25"/><path d="M102.83,9.16a1.22,1.22,0,0,0,.17.15l-.06.09-.07,0-7.7-.15,6.51,4a.15.15,0,0,0,.11,0l0,.07a2.65,2.65,0,0,0-1.49,1l-11.47-7,13.41-.24A2.66,2.66,0,0,0,102.83,9.16Z" style="fill:#fff"/><path d="M121,8.31a2.8,2.8,0,0,1,1.64.64l6.72-11.62-12,6.22a2.72,2.72,0,0,1,.14,1.81,2.93,2.93,0,0,1-.84,1.37c-1.35,1.26-3.34.23-3.46.17-1-.55-2.17-1.87-1.76-3.15a.7.7,0,0,1,.08-.2A2.68,2.68,0,0,1,113,2.29L106.43-9.42l-.94,13.49a2.76,2.76,0,0,1,1.77.73A2.44,2.44,0,0,1,107.93,6c.47,1.78-1.38,3.05-1.49,3.12-.9.6-2.48,1-3.44.22a1.22,1.22,0,0,1-.17-.15,2.66,2.66,0,0,1-.56-2.06l-13.41.24,11.47,7.05a2.65,2.65,0,0,1,1.49-1,2.86,2.86,0,0,1,1.56.05c1.76.55,1.86,2.8,1.86,2.92,0,1.16-.55,2.82-1.86,3.1a1.54,1.54,0,0,1-.3,0,2.67,2.67,0,0,1-1.73-.66l-6.91,11.5,12.08-6.12a2.61,2.61,0,0,1-.34-1.88,1.43,1.43,0,0,1,.17-.43,2.24,2.24,0,0,1,.4-.56c1.28-1.32,3.33-.41,3.44-.35,1,.47,2.2,1.65,2,2.91l0,.13a2.58,2.58,0,0,1-1.46,1.55l7.2,11.31V23.16a2.92,2.92,0,0,1-1.3-.48,2.39,2.39,0,0,1-.91-1.52c-.35-1.81,1.58-2.95,1.69-3,1-.57,2.74-.86,3.61.17a1.42,1.42,0,0,1,.21.33,2.62,2.62,0,0,1,.2,1.76l13.4.64-10.71-7.68a2.7,2.7,0,0,1-1.5,1,3.58,3.58,0,0,1-1.92,0c-1.77-.52-1.9-2.76-1.9-2.89,0-1.16.49-2.82,1.8-3.12A2,2,0,0,1,121,8.31Z" style="fill:none;stroke:#423c25;stroke-miterlimit:10;stroke-width:0.60077714920044px"/><path d="M106.29,21.85l0,0-7,3.86L103,19.63a.15.15,0,0,1,.13-.09.12.12,0,0,1,.09,0l3.09,2.16A.1.1,0,0,1,106.29,21.85Z" style="fill:none;stroke:#423c25;stroke-miterlimit:10;stroke-width:0.60077714920044px"/><path d="M112.29,23.9a.16.16,0,0,0,0,.15l4,6.33.24-7.54a.12.12,0,0,0,0-.09.14.14,0,0,0-.12,0l-4,1.08A.14.14,0,0,0,112.29,23.9Z" style="fill:none;stroke:#423c25;stroke-miterlimit:10;stroke-width:0.60077714920044px"/><path d="M122.56,14.38h0L128.71,19l-7.4-.36a.1.1,0,0,1-.08-.06.06.06,0,0,1,0-.06l1.3-4.14A0,0,0,0,1,122.56,14.38Z" style="fill:none;stroke:#423c25;stroke-miterlimit:10;stroke-width:0.60077714920044px"/><path d="M117.6,5.39l0,0,6.42-2.82-2.92,5.55a.22.22,0,0,1-.2.12.27.27,0,0,1-.14,0l-3.18-2.61A.1.1,0,0,1,117.6,5.39Z" style="fill:none;stroke:#423c25;stroke-miterlimit:10;stroke-width:0.60077714920044px"/><path d="M111.41,3.5a.16.16,0,0,0,0-.15l-3.33-6-.72,7.26a.14.14,0,0,0,0,.09.16.16,0,0,0,.19.08l3.74-1.17A.16.16,0,0,0,111.41,3.5Z" style="fill:none;stroke:#423c25;stroke-miterlimit:10;stroke-width:0.60077714920044px"/><path d="M101.79,13.29a.15.15,0,0,1-.11,0l-6.51-4,7.7.15.07,0a.14.14,0,0,1,.08.18l-1.13,3.61A.16.16,0,0,1,101.79,13.29Z" style="fill:none;stroke:#423c25;stroke-miterlimit:10;stroke-width:0.60077714920044px"/><path d="M113.43,12.35a2.33,2.33,0,1,1-3.27.3A2.33,2.33,0,0,1,113.43,12.35Z" style="fill:none;stroke:#423c25;stroke-miterlimit:10;stroke-width:0.60077714920044px"/><rect x="-0.27" y="0.42" width="125" height="80" style="fill:none;stroke:#423c25;stroke-miterlimit:10;stroke-width:2px"/><path d="M8.62,28.13a1,1,0,0,1-.2.24c-.07.07-.1.11-.08.12a.65.65,0,0,0,.47.24.93.93,0,0,0,.42,0,2.39,2.39,0,0,0,.56-.35.32.32,0,0,0,.13-.2.51.51,0,0,0,0-.13s0-.09.07-.13l.84-1.11a1.22,1.22,0,0,0,.52-.38,1.73,1.73,0,0,0,.15-.36.58.58,0,0,1,.22-.31,1.76,1.76,0,0,1,.69-.29l2.23.05c.17,0,.25.06.26.19a2.14,2.14,0,0,0,.06.41,3.55,3.55,0,0,0-.07.45,5,5,0,0,1-.1.51,2.88,2.88,0,0,1-.69,1.08c-.37.41-.79.83-1.25,1.26s-.93.82-1.4,1.18-.82.65-1.08.84l0,.08a3.46,3.46,0,0,0-1.4-.46c-.2,0-.33,0-.36.13a.53.53,0,0,0,0,.28,2.64,2.64,0,0,1,0,.29q0,.12-.21.12H7.23l-.72,0a2.2,2.2,0,0,1-.67-.15,2.56,2.56,0,0,1-1-.68,1.94,1.94,0,0,1-.42-.85,3.17,3.17,0,0,1-.06-.92,7.47,7.47,0,0,1,.11-.86,1.64,1.64,0,0,1-.12-.22.91.91,0,0,1-.12-.26l-.16-.41C4,27.39,4,27.26,4,27.14a1.07,1.07,0,0,1-.06-.23A4.74,4.74,0,0,1,4,25.79a10.6,10.6,0,0,1,.28-1.11c.11-.39.23-.77.37-1.14a5.93,5.93,0,0,0,.28-1.14s0-.06.12-.11l.24-.17c.07-.06.19-.14.35-.25a.65.65,0,0,0-.2-.1L5,21.59c-.14-.07-.21-.11-.21-.13A1.42,1.42,0,0,1,5.1,21l.39-.47a4.55,4.55,0,0,0,.36-.47A.72.72,0,0,0,6,19.66c0-.06.13-.18.24-.34s.24-.32.37-.49L7,18.35a4,4,0,0,1,.26-.3,4,4,0,0,1,.37-.53,4.83,4.83,0,0,1,.38-.4,5.46,5.46,0,0,1,.44-.38q.23-.18.54-.39a1.1,1.1,0,0,0,.27-.29,1.53,1.53,0,0,1,.28-.31,6.77,6.77,0,0,1,.74-.35,3.44,3.44,0,0,1,.65-.2,4.41,4.41,0,0,1,.65-.1c.22,0,.48,0,.77,0a1.85,1.85,0,0,0,.46-.08,2.54,2.54,0,0,1,.42-.07c.08,0,.11,0,.1.07s0,.16.17.23a3,3,0,0,0,.45.19c.16.06.3.11.4.16s.11.09,0,.12a.66.66,0,0,0-.41.36c-.09.19-.16.31-.19.36s0,.07.15,0l.42-.14a1.61,1.61,0,0,1,.55-.05.81.81,0,0,1,.54.29l.29.36a1.22,1.22,0,0,1,.14.3c0,.07,0,.14.05.2a1,1,0,0,0,.06.22,1,1,0,0,0,.18.31,4.1,4.1,0,0,1,.42.79.52.52,0,0,1-.09.58,2.2,2.2,0,0,0-.38.56,2.23,2.23,0,0,0-.12.41,1.45,1.45,0,0,0,0,.36,1.21,1.21,0,0,1-.06.4v0a1.33,1.33,0,0,1-.42.27,3.14,3.14,0,0,1-1,.3,3.36,3.36,0,0,1-1.22,0,2.21,2.21,0,0,1-1.17-.71l0-1,0-.05a.81.81,0,0,1,0-.11.59.59,0,0,1,0-.08l0-.07c.11-.4.18-.69.22-.87s.06-.33.09-.45,0,0,0,0l-.4.23-2,.84-.84,1.32-.12.15A.66.66,0,0,0,9,21a.24.24,0,0,0,0,.2.51.51,0,0,0,.09.13.38.38,0,0,1,.09.13.79.79,0,0,1,0,.22l-.28.85c-.1.31-.21.63-.32.95s-.22.63-.33.93-.2.59-.3.84l.17.27c.05.06.1,0,.15-.08l-.15,1.37Z" style="fill:#423c25"/><path d="M22.57,32.5a2.91,2.91,0,0,1-.2-.24.83.83,0,0,0-.23-.22s-.06-.05-.22-.06a1.47,1.47,0,0,1-.31,0,1.25,1.25,0,0,1-.12-.27l-.12,0h-.15a1,1,0,0,0-.51.1,2.8,2.8,0,0,0-.45.4h-.37c-.05,0-.07,0-.06-.11a10.44,10.44,0,0,1,.38-1.77c.18-.63.35-1.2.51-1.73l.62-2.23.12-.22.17-.24a1.4,1.4,0,0,1-.8.33,5.66,5.66,0,0,0-.92.13c-.08.43-.18.86-.28,1.28s-.22.85-.35,1.26l-.74,2.55-.1.4a.54.54,0,0,0-.18.1.76.76,0,0,1-.13.1H18l-.39-.2H17.5a.36.36,0,0,0-.09.18.34.34,0,0,1-.12.21l-.25,0a.65.65,0,0,1-.28-.07s0,0,0-.07a.11.11,0,0,0-.06-.12v-.12a.45.45,0,0,0,0-.17h-.05a.23.23,0,0,0-.18.13l-.19.3a1.15,1.15,0,0,1-.28.3.64.64,0,0,1-.41.14L15,32.25l-.38-.16L14.46,32c0-.07.07-.16.11-.28s.08-.26.13-.42l.29-1q0-.24.09-.42c0-.12.06-.21.07-.27a1.41,1.41,0,0,0,.06-.27c0-.13,0-.26.08-.41a3.91,3.91,0,0,1,.07-.39,2,2,0,0,0,0-.23s0-.06,0-.14,0-.17,0-.27v-.41l0-.09a1.28,1.28,0,0,0,.12-.18c.06-.11.13-.21.2-.33s.15-.22.21-.32l.12-.2.05-.17c.19-.67.37-1.33.54-2s.33-1.28.5-1.92l.52-2c.17-.66.37-1.35.57-2.07l.24-.84a2.16,2.16,0,0,1,1-.46,2.37,2.37,0,0,1,.21.24.71.71,0,0,0,.23.22s.08.05.24.06l.28,0a1.25,1.25,0,0,1,.12.27.32.32,0,0,0,.14,0l.15,0a1,1,0,0,0,.52-.11,2.1,2.1,0,0,0,.44-.4h.35c.06,0,.08,0,.06.11a10.37,10.37,0,0,1-.37,1.77c-.19.63-.35,1.2-.49,1.73l-.65,2.23a.19.19,0,0,0-.05.1s0,0,0,0l-.05,0a6.73,6.73,0,0,0,.77-.09,6.48,6.48,0,0,1,.77-.1,16.66,16.66,0,0,1,.61-2.53c.26-.83.52-1.67.78-2.53l.12-.41.17-.1.12-.09h.12l.4.19h.12l.23-.18c.14-.11.24-.17.3-.21l.19.1s0,0,0,.07a.16.16,0,0,0,0,.12c0,.18,0,.27,0,.29h.05c.06,0,.12,0,.18-.13a3.11,3.11,0,0,1,.2-.3,1.58,1.58,0,0,1,.28-.3.6.6,0,0,1,.42-.13l.51.22.39.16c.12.05.18.08.18.1a1.23,1.23,0,0,0-.11.27c0,.12-.09.26-.13.42l-.29,1q0,.24-.09.42a1.2,1.2,0,0,1-.08.28,2.12,2.12,0,0,0-.06.26c0,.13,0,.26-.07.41s0,.27-.07.39a1.17,1.17,0,0,0,0,.23,1.14,1.14,0,0,1,0,.15,2.09,2.09,0,0,0,0,.26V22l0,.09a.71.71,0,0,1-.19.24,1.37,1.37,0,0,0-.22.29l0,.17c-.42,1.46-.8,2.86-1.15,4.21s-.77,2.76-1.23,4.21L23.6,32A2.07,2.07,0,0,1,22.57,32.5Z" style="fill:#423c25"/><path d="M25.42,31.23h-.09l-.12.09-.27.94s0,0,0,0a.12.12,0,0,0-.1.06h-.07c-.1,0-.16-.08-.19-.24s0-.27,0-.32,0-.15.06-.27.06-.25.1-.4.07-.25.11-.37l.09-.25a.22.22,0,0,1-.08-.15l.05-.16.05-.15.24-.74c.11-.34.24-.71.4-1.13L26,26.86q.24-.69.48-1.32l.4-1.13c.12-.33.21-.58.26-.74.2-.37.43-.74.67-1.11a8.08,8.08,0,0,0,.62-1.1l1.14-2.33A15.4,15.4,0,0,1,31,16.85c0-.05.11,0,.19.07s.16.22.25.35l.25.39c.08.12.14.18.17.18s.1-.06.16-.18.1-.25.15-.39.1-.26.15-.37.08-.16.12-.14h2.21l.47-.17s.08,0,.1.06a.9.9,0,0,1,0,.19,1.23,1.23,0,0,0,0,.2c0,.07,0,.1.06.1a.66.66,0,0,0,.25,0,1.36,1.36,0,0,1,.29,0,.5.5,0,0,1,.22.1.24.24,0,0,1,0,.24l-.67,2.3a1.75,1.75,0,0,0,0,.54,5.16,5.16,0,0,0,.09.52c0,.18.07.35.1.52a1.87,1.87,0,0,1,0,.54c0,.19-.13.52-.23,1s-.21,1-.32,1.5-.22,1-.33,1.5-.18.81-.23,1l0,.09a17.85,17.85,0,0,1-.29,2.3c-.14.76-.33,1.53-.55,2.31a2.25,2.25,0,0,1-.64-.09,1.89,1.89,0,0,0-.63-.1.21.21,0,0,0-.18.1c-.06.06-.11.13-.17.2l-.18.2a.28.28,0,0,1-.21.1c-.09,0-.12-.06-.1-.17a3.12,3.12,0,0,1,.06-.37c0-.14,0-.26.06-.37s0-.17-.07-.17-.06,0-.11.11-.11.15-.17.23l-.25.33s-.07.13-.17.28a.83.83,0,0,1-.24.27s0,.07-.12.1v0h0c-.24,0-.36-.15-.37-.46a5.56,5.56,0,0,1,.08-1c.07-.37.12-.72.17-1s0-.47-.12-.47H29.6a.62.62,0,0,0-.55.22l-.34,1.15L28.4,31.8a2.87,2.87,0,0,1-.18.42,1.39,1.39,0,0,1-.16.3l-.14.1H26.17l-.43-.46-.22-.09a.28.28,0,0,1,0-.21,1.54,1.54,0,0,1,.07-.27.59.59,0,0,0,0-.25C25.6,31.26,25.54,31.23,25.42,31.23ZM30.15,26s0,.09-.07.19a.12.12,0,0,0,.1.17,5.68,5.68,0,0,0,.67-.12.64.64,0,0,0,.48-.41.24.24,0,0,1,.08-.1.38.38,0,0,0,.09-.09,2.83,2.83,0,0,1,0-.41c0-.19.07-.4.1-.61s.07-.42.11-.62a1.9,1.9,0,0,1,.11-.4.92.92,0,0,1,0-.2c0-.09,0-.19.05-.28a1.26,1.26,0,0,0,0-.27q0-.12-.06-.12c-.14,0-.31.16-.49.48a11.79,11.79,0,0,0-.55,1.07c-.19.39-.34.76-.47,1.1S30.17,25.93,30.15,26Z" style="fill:#423c25"/><path d="M40.23,27.32s-.08,0-.09,0l-.19.38c0,.13-.11.35-.22.65l-.35,1c-.12.34-.23.66-.34,1s-.17.52-.2.65a.65.65,0,0,1-.08.35,1.59,1.59,0,0,1-.16.3.13.13,0,0,1-.14.09l-.12,0-.11.05s-.06,0-.06,0l-.17.77h-.12c-.09,0-.14,0-.14,0-.32,0-.52-.18-.59-.4a.82.82,0,0,1,.15-.71c-.08,0-.11-.07-.09-.07h-.07a.29.29,0,0,0-.22.11,1.46,1.46,0,0,0-.17.24c0,.09-.09.17-.13.25a.4.4,0,0,1-.13.17h-.05l0,0H36l-.14,0-.25,0-.26,0h-.14a.31.31,0,0,1-.36-.2,1.46,1.46,0,0,1-.09-.52,3.86,3.86,0,0,1,0-.6,3.5,3.5,0,0,1,.1-.41l0-.14.08-.21a.2.2,0,0,0,0-.15l0-.1L37,24.44s0-.11.08-.23.07-.2.09-.23a.77.77,0,0,0,.13-.24c.06-.13.12-.26.18-.41a4.3,4.3,0,0,0,.16-.41c0-.12.07-.2.08-.24l.12-.26c.06-.13.14-.27.22-.43a4.14,4.14,0,0,1,.24-.43,1.63,1.63,0,0,1,.19-.27l.17-.19a1.16,1.16,0,0,0,.14-.19l0-.1,0-.09-.24,0-.39,0a1.59,1.59,0,0,1-.33-.09c-.1,0-.13-.1-.1-.18l.15-.18c.09-.1.14-.17.14-.2l.13,0,.22-.06.19-.08q.09,0,.06-.06l-.46-.26.1-.31s0-.06,0-.12a.16.16,0,0,0,0-.1.4.4,0,0,1,.21-.09l.23,0,.21,0a.13.13,0,0,0,.11-.12l-.43-.55c-.09-.13-.05-.25.12-.37a3.16,3.16,0,0,1,.77-.34,11.59,11.59,0,0,1,1.15-.27L42,17c.41-.06.78-.11,1.11-.14l.68,0a2,2,0,0,1,.69.06,2.36,2.36,0,0,0,.65.08.52.52,0,0,0,.2-.07.43.43,0,0,1,.24-.05h.09a5.52,5.52,0,0,1,1,.39,4.83,4.83,0,0,1,.81.55,2.07,2.07,0,0,1,.54.53A1.1,1.1,0,0,1,48,19l-.48.43.34.19-.07.39-.07.21a3.6,3.6,0,0,0,0,1,3,3,0,0,1-.1,1.06,1,1,0,0,1-.19.42,1.59,1.59,0,0,1-.43.35L44.7,25.78l-.1.36c.11.86.21,1.76.29,2.68a9.27,9.27,0,0,1-.19,2.77,2,2,0,0,1-.4,0l-.23,0-.2-.05a1.15,1.15,0,0,0-.3,0,.13.13,0,0,0,0,.12.1.1,0,0,1,0,.12,1.67,1.67,0,0,1-.18.23c-.09.11-.19.21-.3.33a2.73,2.73,0,0,1-.33.28.43.43,0,0,1-.25.12c-.09,0-.15,0-.17-.09s0-.14,0-.23a.77.77,0,0,0-.06-.23.2.2,0,0,0-.19-.09s-.08,0-.15.08l-.2.18-.21.19a.41.41,0,0,1-.14.12.28.28,0,0,1-.14.1.43.43,0,0,1-.42-.3,2.8,2.8,0,0,1-.24-.84,7.88,7.88,0,0,1-.11-1.15c0-.43,0-.84,0-1.23s0-.74,0-1,0-.54,0-.66S40.36,27.32,40.23,27.32Zm.82-2.69,0,.17c0,.06,0,.11.12.14a2.61,2.61,0,0,0,.66-.19.94.94,0,0,0,.47-.43l1.39-2.16,0-.22a.61.61,0,0,0,0-.42c0-.14-.11-.27-.17-.41l-.18-.41a.85.85,0,0,1-.06-.42c0-.11-.05-.16-.19-.16H43l-.35.06-.45.07-.39.06a.43.43,0,0,0-.21.05.81.81,0,0,0-.2,0,.47.47,0,0,0-.08.15v.07a.73.73,0,0,1,.62.3,1.05,1.05,0,0,1,.1.66,8.67,8.67,0,0,1-.49,1.52A10.23,10.23,0,0,0,41.05,24.63Z" style="fill:#423c25"/><path d="M46.57,31.23h-.1a.56.56,0,0,1-.12.09l-.26.94s0,0-.05,0-.06,0-.1.06h-.07c-.09,0-.16-.08-.19-.24a.54.54,0,0,1,0-.32,1.91,1.91,0,0,0,.06-.27,2.73,2.73,0,0,1,.11-.4c0-.13.07-.25.11-.37s.06-.2.08-.25a.21.21,0,0,1-.07-.15L46,30.2l0-.15.24-.74.4-1.13.48-1.32.48-1.32.41-1.13c.12-.33.2-.58.25-.74.21-.37.43-.74.67-1.11a9.4,9.4,0,0,0,.63-1.1l1.14-2.33a15.28,15.28,0,0,1,1.4-2.28c.05-.05.11,0,.19.07a3.53,3.53,0,0,1,.25.35l.26.39c.08.12.13.18.16.18s.1-.06.16-.18a3.52,3.52,0,0,0,.16-.39,3.18,3.18,0,0,1,.14-.37c.05-.11.09-.16.12-.14h2.21l.48-.17q.08,0,.09.06a.9.9,0,0,1,0,.19,1.5,1.5,0,0,1,0,.2c0,.07,0,.1.06.1a.71.71,0,0,0,.26,0,1.26,1.26,0,0,1,.28,0,.5.5,0,0,1,.22.1c.06,0,.07.13,0,.24l-.68,2.3a1.72,1.72,0,0,0,0,.54,3.28,3.28,0,0,0,.08.52c0,.18.08.35.11.52a1.9,1.9,0,0,1,0,.54c0,.19-.12.52-.23,1s-.21,1-.32,1.5-.22,1-.32,1.5-.18.81-.23,1l0,.09a17.83,17.83,0,0,1-.28,2.3c-.15.76-.33,1.53-.56,2.31a2.18,2.18,0,0,1-.63-.09,1.91,1.91,0,0,0-.64-.1.24.24,0,0,0-.18.1l-.17.2a1.12,1.12,0,0,1-.18.2.26.26,0,0,1-.21.1c-.08,0-.11-.06-.1-.17s0-.23.06-.37a3.12,3.12,0,0,0,.06-.37c0-.11,0-.17-.07-.17s0,0-.11.11l-.17.23c0,.08-.14.19-.25.33a2.16,2.16,0,0,1-.17.28.65.65,0,0,1-.24.27s0,.07-.12.1v0h0c-.24,0-.37-.15-.38-.46a5.63,5.63,0,0,1,.09-1l.17-1c0-.31,0-.47-.12-.47h-.68a.63.63,0,0,0-.55.22l-.33,1.15-.32,1.15a2.87,2.87,0,0,1-.18.42,1.71,1.71,0,0,1-.15.3l-.15.1H47.31l-.43-.46-.22-.09a.28.28,0,0,1,0-.21c0-.08,0-.18.07-.27a.61.61,0,0,0,0-.25C46.74,31.26,46.68,31.23,46.57,31.23ZM51.3,26a1.51,1.51,0,0,0-.08.19.12.12,0,0,0,.1.17,5.34,5.34,0,0,0,.67-.12.6.6,0,0,0,.48-.41.41.41,0,0,1,.09-.1.32.32,0,0,0,.08-.09,3.31,3.31,0,0,1,0-.41c0-.19.06-.4.09-.61s.07-.42.11-.62a2.83,2.83,0,0,1,.11-.4s0-.1,0-.2a2.74,2.74,0,0,0,0-.28.83.83,0,0,0,0-.27q0-.12-.06-.12c-.14,0-.3.16-.49.48s-.37.68-.55,1.07-.34.76-.47,1.1A5.27,5.27,0,0,0,51.3,26Z" style="fill:#423c25"/><path d="M61.14,28.78l-.21.2c0,.06-.07.1-.06.11a.63.63,0,0,0,.41.19.58.58,0,0,0,.38,0,1.48,1.48,0,0,0,.46-.3c.06-.07.1-.12.1-.15a.21.21,0,0,0,0-.12s0-.07.1-.12l.74-1a1,1,0,0,0,.45-.34,2.58,2.58,0,0,0,.13-.31.67.67,0,0,1,.18-.28,1.58,1.58,0,0,1,.61-.25l1.9.05a.24.24,0,0,1,.24.17,1.37,1.37,0,0,1,0,.36,1.05,1.05,0,0,1,0,.38,1.59,1.59,0,0,1-.1.43,2.61,2.61,0,0,1-.6.95,12.45,12.45,0,0,1-1.09,1.09c-.41.37-.81.72-1.21,1s-.72.56-1,.74l0,.05a5.68,5.68,0,0,0-.72-.29,2,2,0,0,0-.51-.1c-.17,0-.28,0-.31.11a.38.38,0,0,0,0,.24,2.29,2.29,0,0,1,0,.25c0,.07-.06.1-.17.1h-1c-.19,0-.4,0-.62,0a2.45,2.45,0,0,1-.6-.12,2,2,0,0,1-.85-.59,1.65,1.65,0,0,1-.36-.74,2.44,2.44,0,0,1,0-.81c0-.27,0-.52.08-.74a1,1,0,0,0-.12-.19.64.64,0,0,0-.07-.24,3.65,3.65,0,0,1-.14-.35c0-.12-.1-.23-.14-.34s0-.17,0-.2a4,4,0,0,1,.06-1,6.51,6.51,0,0,1,.23-1c.09-.32.2-.65.32-1a3.85,3.85,0,0,0,.23-1s0-.05.11-.1l.22-.14.34-.22-.36-.15-.25-.12c-.07,0-.11-.07-.11-.09a.86.86,0,0,1,.22-.39c.11-.14.22-.28.34-.41l.33-.4a.66.66,0,0,0,.14-.36l.22-.3c.09-.13.2-.27.32-.42s.23-.28.33-.42a1.58,1.58,0,0,1,.21-.27,3.54,3.54,0,0,1,.36-.47c.11-.12.23-.23.34-.34a4,4,0,0,1,.37-.3,5,5,0,0,0,.47-.36l.21-.26a1.1,1.1,0,0,1,.27-.27,4.69,4.69,0,0,1,.63-.32,4,4,0,0,1,.56-.17,3.43,3.43,0,0,1,.56-.07h.67a.85.85,0,0,0,.25,0l.3-.07a1.48,1.48,0,0,1,.24,0c.07,0,.09,0,.08.08s0,.14.15.2a3.52,3.52,0,0,0,.39.16,2.85,2.85,0,0,1,.33.13c.09,0,.09.07,0,.11a.64.64,0,0,0-.36.32,1.41,1.41,0,0,0-.14.3c0,.05,0,.05.12,0l.36-.11a1.77,1.77,0,0,1,.47,0,.69.69,0,0,1,.47.25l.24.31a1.41,1.41,0,0,1,.12.27c0,.06,0,.12,0,.18l.06.18a1.55,1.55,0,0,0,.18.26,3.5,3.5,0,0,1,.35.7.49.49,0,0,1-.06.5,2.16,2.16,0,0,0-.35.48,1.4,1.4,0,0,0-.1.36,1.8,1.8,0,0,0,0,.31,1.12,1.12,0,0,1,0,.34l0,.05a1.16,1.16,0,0,1-.36.25,2.54,2.54,0,0,1-.83.25,2.89,2.89,0,0,1-1,0,1.77,1.77,0,0,1-1-.61V21.6l0-.08a.11.11,0,0,0,0-.08l0-.05a5.64,5.64,0,0,0,.17-.76,3.08,3.08,0,0,1,.07-.39s0,0,0,0l-.31.21-1.73.72-.75,1.15-.12.13a1.06,1.06,0,0,0-.09.13.26.26,0,0,0,0,.18l.07.11a.23.23,0,0,1,.06.12.3.3,0,0,1,0,.19c-.13.45-.29,1-.5,1.56s-.39,1.11-.55,1.54a.82.82,0,0,0,.14.23q.07.07.12-.06l-.1,1.2Z" style="fill:#423c25"/><path d="M69,31.47a.3.3,0,0,0-.18.11l-.21.22-.22.23c-.07.07-.12.11-.15.11S68,32,68,31.7a6,6,0,0,1,.14-1,11.24,11.24,0,0,1,.28-1.11c.12-.35.19-.59.22-.72.42-1.45.9-2.89,1.46-4.32s1-2.86,1.47-4.32a.13.13,0,0,1,0-.12c0-.05,0-.07,0-.07H69.66a.49.49,0,0,1,.15-.24.51.51,0,0,0,.16-.24v-.1a.88.88,0,0,1-.17-.26A.32.32,0,0,1,70,19a2.34,2.34,0,0,1,.4-.11,3,3,0,0,1,.41,0l.29,0-.34-.21a1.59,1.59,0,0,1-.36,0,.92.92,0,0,1-.34-.12.58.58,0,0,1-.21-.2.4.4,0,0,1,0-.31,1.54,1.54,0,0,1,.2-.3.63.63,0,0,1,.28-.23l1.08-.19.47,0,1,0,1.22,0h4.56a.53.53,0,0,1-.21.34,1,1,0,0,1-.3.09l-.32.05a.5.5,0,0,0-.3.19,1.18,1.18,0,0,0,0,.69,1.06,1.06,0,0,1,0,.66,1.6,1.6,0,0,1-.19.43,2.76,2.76,0,0,1-.43.43.69.69,0,0,1-.5.12c-.21,0-.4,0-.58,0a.74.74,0,0,0-.34.07s0,.13-.08.25-.09.24-.14.37-.11.26-.16.39l-.1.26-.09.36c0,.11-.09.3-.18.58l-.29.85-.3.84c-.1.26-.17.44-.22.54L72.1,31a2.14,2.14,0,0,1-.19.46,1.93,1.93,0,0,1-.33.48,1.11,1.11,0,0,0-.62,0,1.16,1.16,0,0,0-.32.24l-.24.28a.45.45,0,0,1-.36.13.4.4,0,0,1-.36-.17,1.52,1.52,0,0,1-.2-.38c-.06-.14-.12-.27-.18-.38A.33.33,0,0,0,69,31.47Z" style="fill:#423c25"/><path d="M76,30.05a6.19,6.19,0,0,1,.47-1.15,6.13,6.13,0,0,0,.46-1.15,17.86,17.86,0,0,0,.52-2.26,17.72,17.72,0,0,1,.52-2.25,8.56,8.56,0,0,1,.52-1.32,7.54,7.54,0,0,0,.51-1.3l0-.1.1-.26v-.07c0-.08-.09-.14-.23-.17a.77.77,0,0,0-.37,0l-.41-.46s0,0,0-.09L78.5,19c.1-.12.2-.24.3-.34a1.86,1.86,0,0,0,.17-.21l.45-.09.17,0-.23-.17A.69.69,0,0,0,79,18s0-.06,0-.07a.71.71,0,0,1,.37-.4,3.11,3.11,0,0,1,.71-.24,7.29,7.29,0,0,1,.85-.11l.78,0h.46q.81,0,1.59.06c.52,0,1,.06,1.6.06a1.93,1.93,0,0,0,.49-.06,1.93,1.93,0,0,1,.49-.06l0,.19c0,.13-.08.19-.09.19a2,2,0,0,1-.16.23,1.26,1.26,0,0,0-.15.23l-.08.19-.55.31.39.32-.05.19a1.36,1.36,0,0,1-.43.48,3.54,3.54,0,0,1-.7.36l-.76.24a5.36,5.36,0,0,1-.61.12l-.12.09a.5.5,0,0,0-.07.2l-.12.4a3.81,3.81,0,0,1-.13.45c-.06.15-.1.27-.13.37l0,.1a.51.51,0,0,0,0,.16.15.15,0,0,1-.1.15l-.45.24.38,0s.06,0,0,.12l-.09.22,0,.09c0,.07,0,.1,0,.1h.12a4.36,4.36,0,0,0,.94-.1,4.92,4.92,0,0,1,.91-.09.34.34,0,0,1,.35.17.54.54,0,0,1,0,.38.6.6,0,0,1-.27.29,4,4,0,0,1-.51.27l-.49.24a.69.69,0,0,0-.24.18s.05.06.16.09a1.82,1.82,0,0,1,.33.11.92.92,0,0,1,.32.18.25.25,0,0,1,0,.32,1,1,0,0,1-.45.56,2,2,0,0,1-.64.22l-.7.1a1.74,1.74,0,0,0-.66.2,1.59,1.59,0,0,0-.16.3,4.67,4.67,0,0,0-.23.58q-.1.32-.21.6c-.06.18-.1.3-.12.34v0c0,.09,0,.21,0,.33l-.06.39a2.73,2.73,0,0,0-.06.45h1.77q.15,0,.18.06a.24.24,0,0,1,0,.15c0,.05,0,.11,0,.18a.25.25,0,0,0,0,.17.17.17,0,0,0,.1.13l.19.13a.62.62,0,0,1,.15.2.47.47,0,0,1,0,.35.45.45,0,0,1-.29.3,3.84,3.84,0,0,1-.51.19l-.52.18a.49.49,0,0,0-.29.27,1.38,1.38,0,0,1,.17.26l0,.07a.4.4,0,0,1-.28.32,4.27,4.27,0,0,1-.54.07,12.17,12.17,0,0,0-1.25.14,2.24,2.24,0,0,1-1,0L77.7,32l-.34.19a.5.5,0,0,1-.35,0,2.08,2.08,0,0,0-.39-.05h-.27a1.13,1.13,0,0,1-.56-.93A3.65,3.65,0,0,1,76,30.05Z" style="fill:#423c25"/><path d="M89.19,27.32s-.08,0-.09,0l-.2.38a6.25,6.25,0,0,1-.21.65l-.35,1c-.12.34-.23.66-.34,1s-.17.52-.2.65a.65.65,0,0,1-.08.35,1.59,1.59,0,0,1-.16.3.13.13,0,0,1-.14.09l-.12,0-.11.05s-.06,0-.06,0l-.17.77h-.12c-.1,0-.14,0-.14,0-.32,0-.52-.18-.59-.4a.82.82,0,0,1,.15-.71c-.08,0-.11-.07-.09-.07H86.1a.29.29,0,0,0-.22.11,1.46,1.46,0,0,0-.17.24l-.13.25a.4.4,0,0,1-.13.17h0l-.05,0H85l-.14,0-.25,0-.26,0H84.2a.31.31,0,0,1-.36-.2,1.46,1.46,0,0,1-.1-.52,3.83,3.83,0,0,1,.05-.6,2.2,2.2,0,0,1,.1-.41l0-.14.08-.21A.2.2,0,0,0,84,30l0-.1L86,24.44s0-.11.08-.23a1.33,1.33,0,0,1,.09-.23,1.08,1.08,0,0,0,.13-.24c.06-.13.12-.26.18-.41a4.3,4.3,0,0,0,.16-.41c0-.12.06-.2.08-.24l.12-.26c.06-.13.14-.27.22-.43a4.14,4.14,0,0,1,.24-.43,1.63,1.63,0,0,1,.19-.27l.17-.19a1.16,1.16,0,0,0,.14-.19l0-.1,0-.09-.24,0-.39,0a1.44,1.44,0,0,1-.33-.09c-.1,0-.13-.1-.1-.18a1.14,1.14,0,0,1,.15-.18c.09-.1.14-.17.14-.2l.13,0,.22-.06.19-.08q.09,0,.06-.06l-.46-.26.1-.31s0-.06,0-.12a.16.16,0,0,0,0-.1.4.4,0,0,1,.21-.09l.23,0,.2,0a.13.13,0,0,0,.12-.12l-.43-.55c-.09-.13,0-.25.12-.37a3.16,3.16,0,0,1,.77-.34,11.59,11.59,0,0,1,1.15-.27L90.93,17c.41-.06.78-.11,1.11-.14l.68,0a1.9,1.9,0,0,1,.68.06,2.48,2.48,0,0,0,.66.08.52.52,0,0,0,.2-.07.43.43,0,0,1,.24-.05h.09a5.52,5.52,0,0,1,1,.39,4.83,4.83,0,0,1,.81.55,2.24,2.24,0,0,1,.54.53A1.1,1.1,0,0,1,97,19l-.48.43.34.19-.07.39-.08.21a3.59,3.59,0,0,0,0,1,3,3,0,0,1-.1,1.06,1,1,0,0,1-.19.42,1.59,1.59,0,0,1-.43.35l-2.28,2.71-.1.36c.11.86.21,1.76.29,2.68a9.27,9.27,0,0,1-.19,2.77,2,2,0,0,1-.4,0l-.23,0-.2-.05a1.15,1.15,0,0,0-.3,0,.13.13,0,0,0,0,.12.1.1,0,0,1,0,.12,1.67,1.67,0,0,1-.18.23c-.09.11-.19.21-.3.33a2.73,2.73,0,0,1-.33.28.43.43,0,0,1-.25.12c-.09,0-.15,0-.17-.09s0-.14,0-.23a.77.77,0,0,0-.06-.23A.2.2,0,0,0,91,32s-.08,0-.15.08l-.2.18-.21.19a.41.41,0,0,1-.14.12.28.28,0,0,1-.14.1.43.43,0,0,1-.42-.3,2.8,2.8,0,0,1-.24-.84,7.88,7.88,0,0,1-.11-1.15c0-.43,0-.84,0-1.23s0-.74,0-1,0-.54,0-.66S89.32,27.32,89.19,27.32ZM90,24.63,90,24.8c0,.06,0,.11.12.14a2.74,2.74,0,0,0,.66-.19.94.94,0,0,0,.47-.43l1.39-2.16.05-.22a.61.61,0,0,0,0-.42c-.05-.14-.11-.27-.17-.41l-.18-.41a.75.75,0,0,1-.06-.42c0-.11,0-.16-.19-.16H92l-.35.06-.45.07-.39.06a.43.43,0,0,0-.21.05.71.71,0,0,0-.2,0,.47.47,0,0,0-.08.15v.07a.74.74,0,0,1,.62.3,1.05,1.05,0,0,1,.1.66,8.72,8.72,0,0,1-.5,1.52A11.44,11.44,0,0,0,90,24.63Z" style="fill:#423c25"/><path d="M8.62,54.13a1,1,0,0,1-.2.24c-.07.07-.1.11-.08.12a.65.65,0,0,0,.47.24.93.93,0,0,0,.42,0,2.39,2.39,0,0,0,.56-.35.32.32,0,0,0,.13-.2.51.51,0,0,0,0-.13s0-.09.07-.13l.84-1.11a1.22,1.22,0,0,0,.52-.38,1.73,1.73,0,0,0,.15-.36.58.58,0,0,1,.22-.31,1.76,1.76,0,0,1,.69-.29l2.23.05c.17,0,.25.06.26.19a2.14,2.14,0,0,0,.06.41,3.55,3.55,0,0,0-.07.45,5,5,0,0,1-.1.51,2.88,2.88,0,0,1-.69,1.08c-.37.41-.79.83-1.25,1.26s-.93.82-1.4,1.18-.82.65-1.08.84l0,.08a3.46,3.46,0,0,0-1.4-.46c-.2,0-.33,0-.36.13a.53.53,0,0,0,0,.28,2.64,2.64,0,0,1,0,.29q0,.12-.21.12H7.23l-.72,0a2.2,2.2,0,0,1-.67-.15,2.56,2.56,0,0,1-1-.68,1.94,1.94,0,0,1-.42-.85,3.17,3.17,0,0,1-.06-.92,7.47,7.47,0,0,1,.11-.86,1.64,1.64,0,0,1-.12-.22.91.91,0,0,1-.12-.26l-.16-.41C4,53.39,4,53.26,4,53.14a1.07,1.07,0,0,1-.06-.23A4.74,4.74,0,0,1,4,51.79a10.6,10.6,0,0,1,.28-1.11c.11-.39.23-.77.37-1.14a5.93,5.93,0,0,0,.28-1.14s0-.06.12-.11l.24-.17.35-.25a.65.65,0,0,0-.2-.1L5,47.59c-.14-.07-.21-.11-.21-.13A1.42,1.42,0,0,1,5.1,47l.39-.47a4.55,4.55,0,0,0,.36-.47A.72.72,0,0,0,6,45.66c0-.06.13-.18.24-.34s.24-.32.37-.49L7,44.35a4,4,0,0,1,.26-.3,4,4,0,0,1,.37-.53,4.83,4.83,0,0,1,.38-.4,5.46,5.46,0,0,1,.44-.38q.23-.18.54-.39a1.1,1.1,0,0,0,.27-.29,1.53,1.53,0,0,1,.28-.31,6.77,6.77,0,0,1,.74-.35,3.44,3.44,0,0,1,.65-.2,4.41,4.41,0,0,1,.65-.1c.22,0,.48,0,.77,0a1.85,1.85,0,0,0,.46-.08,2.54,2.54,0,0,1,.42-.07c.08,0,.11,0,.1.07s0,.16.17.23a3,3,0,0,0,.45.19l.4.16c.1.05.11.09,0,.12a.66.66,0,0,0-.41.36c-.09.19-.16.31-.19.36s0,.07.15,0l.42-.14a1.61,1.61,0,0,1,.55,0,.81.81,0,0,1,.54.29l.29.36a1.22,1.22,0,0,1,.14.3c0,.07,0,.14.05.2a1,1,0,0,0,.06.22,1,1,0,0,0,.18.31,4.1,4.1,0,0,1,.42.79.52.52,0,0,1-.09.58,2.2,2.2,0,0,0-.38.56,2.23,2.23,0,0,0-.12.41,1.45,1.45,0,0,0,0,.36,1.21,1.21,0,0,1-.06.4v0a1.33,1.33,0,0,1-.42.27,3.14,3.14,0,0,1-1,.3,3.36,3.36,0,0,1-1.22,0,2.21,2.21,0,0,1-1.17-.71l0-1,0-.05a.81.81,0,0,1,0-.11l0-.08,0-.07c.11-.4.18-.69.22-.87s.06-.33.09-.45,0,0,0,0l-.4.23-2,.84-.84,1.32-.12.15A.66.66,0,0,0,9,47a.24.24,0,0,0,0,.2.51.51,0,0,0,.09.13.38.38,0,0,1,.09.13.79.79,0,0,1,0,.22l-.28.85c-.1.31-.21.63-.32.95s-.22.63-.33.93-.2.59-.3.84l.17.27c.05.06.1,0,.15-.08l-.15,1.37Z" style="fill:#423c25"/><path d="M15.15,57.23h-.09l-.12.09-.27.94s0,0-.05,0a.12.12,0,0,0-.09.06h-.07c-.1,0-.16-.08-.2-.24a.54.54,0,0,1,0-.32c0-.06,0-.15.07-.27a2.59,2.59,0,0,1,.1-.4c0-.13.07-.25.11-.37s.07-.2.08-.25a.26.26,0,0,1-.07-.15l0-.16.05-.15.24-.74c.11-.34.24-.71.4-1.13s.31-.86.47-1.32.33-.9.49-1.32l.4-1.13c.12-.33.21-.58.26-.74.2-.37.43-.74.67-1.11a9.3,9.3,0,0,0,.62-1.1l1.14-2.33a15.4,15.4,0,0,1,1.41-2.28c0-.05.11,0,.19.07s.16.22.25.35l.25.39c.08.12.14.18.17.18s.1-.06.15-.18a3.52,3.52,0,0,0,.16-.39c0-.13.1-.26.15-.37s.08-.16.12-.14h2.2l.48-.17c.05,0,.08,0,.1.06a1,1,0,0,1,0,.19l0,.2c0,.07,0,.1.06.1a.66.66,0,0,0,.25,0,1.36,1.36,0,0,1,.29,0,.41.41,0,0,1,.21.1c.06.05.07.13,0,.24l-.67,2.3a1.49,1.49,0,0,0-.05.54,5.16,5.16,0,0,0,.09.52c0,.18.07.35.1.52a2.31,2.31,0,0,1,0,.54c-.05.19-.13.52-.23,1s-.21,1-.32,1.5-.23,1-.33,1.5-.18.81-.23,1l0,.09A17.85,17.85,0,0,1,24,55.3c-.14.76-.33,1.53-.55,2.31a2.2,2.2,0,0,1-.64-.09,1.89,1.89,0,0,0-.63-.1.21.21,0,0,0-.18.1,1.63,1.63,0,0,0-.17.2l-.18.2a.3.3,0,0,1-.22.1c-.08,0-.11-.06-.09-.17a3.12,3.12,0,0,1,.06-.37c0-.14,0-.26.06-.37s0-.17-.08-.17a.36.36,0,0,0-.1.11,2,2,0,0,0-.17.23l-.25.33s-.07.13-.17.28a.83.83,0,0,1-.24.27s0,.07-.12.1v0h-.05c-.24,0-.36-.15-.37-.46a5.56,5.56,0,0,1,.08-1c.07-.37.12-.72.17-1s0-.47-.12-.47h-.67a.62.62,0,0,0-.55.22l-.34,1.15-.31,1.15a2.87,2.87,0,0,1-.18.42,1.39,1.39,0,0,1-.16.3l-.14.1H15.9l-.44-.46-.21-.09a.34.34,0,0,1,0-.21,1.62,1.62,0,0,1,.08-.27.59.59,0,0,0,0-.25C15.33,57.26,15.26,57.23,15.15,57.23ZM19.88,52s0,.09-.07.19a.12.12,0,0,0,.1.17,5.68,5.68,0,0,0,.67-.12.64.64,0,0,0,.48-.41.24.24,0,0,1,.08-.1.22.22,0,0,0,.08-.09,3.31,3.31,0,0,1,.05-.41c0-.19.07-.4.1-.61s.07-.42.11-.62a3.21,3.21,0,0,1,.1-.4,1.19,1.19,0,0,1,0-.2,2.74,2.74,0,0,1,.05-.28,1.26,1.26,0,0,0,0-.27q0-.12-.06-.12c-.15,0-.31.16-.49.48a11.79,11.79,0,0,0-.55,1.07,10.65,10.65,0,0,0-.47,1.1C20,51.73,19.9,51.93,19.88,52Z" style="fill:#423c25"/><path d="M30,53.32c-.05,0-.08,0-.1,0l-.19.38a6.25,6.25,0,0,1-.21.65c-.12.31-.23.63-.35,1s-.23.66-.34,1-.17.52-.2.65a.69.69,0,0,1-.09.35,1.26,1.26,0,0,1-.15.3.14.14,0,0,1-.15.09l-.12,0-.1,0s-.06,0-.06,0l-.17.77h-.12c-.1,0-.15,0-.15,0a.63.63,0,0,1-.58-.4.79.79,0,0,1,.15-.71c-.08,0-.11-.07-.09-.07h-.08a.28.28,0,0,0-.21.11,1,1,0,0,0-.17.24l-.13.25a.5.5,0,0,1-.13.17h0l-.05,0h-.36l-.14,0-.26,0-.25,0H25a.31.31,0,0,1-.36-.2,1.27,1.27,0,0,1-.1-.52,3.83,3.83,0,0,1,0-.6,1.61,1.61,0,0,1,.1-.41l0-.14c0-.08.06-.15.09-.21a.2.2,0,0,0,0-.15l0-.1,1.95-5.49s0-.11.08-.23a1.33,1.33,0,0,1,.09-.23,1.08,1.08,0,0,0,.13-.24c.05-.13.11-.26.18-.41a4.14,4.14,0,0,0,.15-.41,2.21,2.21,0,0,1,.09-.24,1.51,1.51,0,0,1,.12-.26l.21-.43a4.14,4.14,0,0,1,.24-.43,1.55,1.55,0,0,1,.2-.27l.16-.19a1,1,0,0,0,.15-.19l0-.1,0-.09-.24,0-.39,0a1.31,1.31,0,0,1-.33-.09c-.1,0-.13-.1-.1-.18l.14-.18c.1-.1.15-.17.15-.2L28,46l.22-.06.19-.08q.08,0,.06-.06L28,45.54l.1-.31s0-.06,0-.12,0-.08,0-.1a.47.47,0,0,1,.22-.09l.23,0,.2,0a.13.13,0,0,0,.12-.12l-.43-.55c-.1-.13-.06-.25.12-.37a3.16,3.16,0,0,1,.77-.34,11,11,0,0,1,1.15-.27L31.7,43c.41-.06.78-.11,1.1-.14l.69,0a1.9,1.9,0,0,1,.68.06,2.48,2.48,0,0,0,.66.08.42.42,0,0,0,.19-.07.48.48,0,0,1,.24-.05h.1a5.4,5.4,0,0,1,1,.39,4.52,4.52,0,0,1,.82.55,2.24,2.24,0,0,1,.54.53,1.1,1.1,0,0,1,.06.72l-.48.43.34.19-.08.39-.07.21a4,4,0,0,0,0,1,3,3,0,0,1-.09,1.06,1,1,0,0,1-.19.42,1.5,1.5,0,0,1-.44.35l-2.28,2.71-.09.36c.11.86.21,1.76.29,2.68a9,9,0,0,1-.2,2.77,1.92,1.92,0,0,1-.39,0l-.23,0-.2-.05a1.26,1.26,0,0,0-.3,0,.11.11,0,0,0,0,.12.1.1,0,0,1,0,.12l-.18.23c-.09.11-.19.21-.3.33a3.8,3.8,0,0,1-.33.28.46.46,0,0,1-.25.12c-.1,0-.15,0-.17-.09a1.43,1.43,0,0,1,0-.23.77.77,0,0,0-.06-.23.22.22,0,0,0-.2-.09.23.23,0,0,0-.14.08l-.2.18c-.08.06-.14.13-.21.19a.41.41,0,0,1-.14.12.32.32,0,0,1-.15.1q-.26,0-.42-.3a3.55,3.55,0,0,1-.24-.84,9.66,9.66,0,0,1-.1-1.15c0-.43,0-.84,0-1.23s0-.74,0-1,0-.54,0-.66S30.09,53.32,30,53.32Zm.82-2.69-.05.17c0,.06,0,.11.12.14a2.74,2.74,0,0,0,.66-.19,1,1,0,0,0,.47-.43l1.39-2.16.05-.22a.75.75,0,0,0,0-.42c-.05-.14-.11-.27-.17-.41a3,3,0,0,1-.18-.41.75.75,0,0,1-.06-.42c0-.11,0-.16-.19-.16h-.08l-.34.06-.45.07-.39.06a.43.43,0,0,0-.21,0,.71.71,0,0,0-.2,0s0,.07-.09.15v.07a.76.76,0,0,1,.63.3,1.06,1.06,0,0,1,.09.66,7.91,7.91,0,0,1-.49,1.52A10.17,10.17,0,0,0,30.78,50.63Z" style="fill:#423c25"/><path d="M40.3,57.68l-.24.58a.62.62,0,0,1-.28,0,2.17,2.17,0,0,0-.51,0,4.61,4.61,0,0,1-.53,0,1.54,1.54,0,0,1-.4,0c-.12,0-.16-.1-.12-.2a1.15,1.15,0,0,0,0-.28.63.63,0,0,1,0-.29l0-.15c0-.14,0-.25-.17-.33s-.21.09-.24.27a2.28,2.28,0,0,1-.12.47.31.31,0,0,1-.12.19h-.07l-.19,0h-.22A.35.35,0,0,0,37,58a.08.08,0,0,1-.11,0,2.22,2.22,0,0,1-.22-.41,4.42,4.42,0,0,1-.15-.48,2.76,2.76,0,0,1-.08-.44,1.15,1.15,0,0,1,0-.3l0-.15a.41.41,0,0,0,0-.19.47.47,0,0,1,0-.17l0-.07,1.92-6.05.58-.3.39-.21c.12-.08.18-.12.18-.14l-.72-.38a2.35,2.35,0,0,0,.07-.23q.06-.15.12-.33a3.73,3.73,0,0,1,.16-.35.83.83,0,0,1,.18-.24s0-.07.13-.17l.16-.17.05-.17h-.29a6.29,6.29,0,0,1-.73,0c-.27,0-.38-.11-.35-.22a.63.63,0,0,1,.13-.19,2.36,2.36,0,0,0,.16-.22v0s0-.06,0-.07,0,0,.06-.08l.48-.31-.28-.29s0-.06,0-.1,0-.07,0-.09a.47.47,0,0,1,.29-.14.24.24,0,0,0,.21-.17l0-.07a.88.88,0,0,0-.05-.19l-.1-.32c0-.11-.05-.21-.07-.3s0-.14,0-.18a2.81,2.81,0,0,1,1.08-.42q.73-.15,1.56-.24c.54-.05,1.05-.09,1.53-.1l1,0,.74,0h.36l.39,0h.12c.4.1.74.19,1,.28a2.81,2.81,0,0,1,.86.44,2.56,2.56,0,0,1,.59.48.88.88,0,0,1,.11.65,10.4,10.4,0,0,1,0,1.78c0,.43-.09.8-.12,1.12,0,.13-.07.27-.11.42s-.07.31-.11.47c-.14.48-.32,1-.52,1.67s-.46,1.28-.74,2-.58,1.33-.92,2a13.91,13.91,0,0,1-1.07,1.76,6.24,6.24,0,0,1-1.2,1.29,2.41,2.41,0,0,1-1.33.55l-1.39.29c0-.07,0-.11.07-.12s0,0,0,0Zm.41-2.25a.52.52,0,0,0,0,.17.11.11,0,0,0,.1.14,1.55,1.55,0,0,0,.4-.16,2.88,2.88,0,0,0,.5-.3,3.31,3.31,0,0,0,.45-.34.58.58,0,0,0,.21-.3L44.72,48l.07-.21a.75.75,0,0,0,0-.4c0-.12-.1-.24-.15-.36s-.11-.24-.16-.36a1,1,0,0,1-.07-.39s0,0-.11-.06a.26.26,0,0,0-.15-.06h.19l-.37,0L43.38,46,42.86,46h-.25l-.19.06s0,0-.08.13l0,.08a.48.48,0,0,1,.39.14,1,1,0,0,1,.16.36,1.72,1.72,0,0,1,0,.46c0,.16,0,.3,0,.43a1.73,1.73,0,0,0,0,.36,3.22,3.22,0,0,1,0,.5c0,.19-.09.41-.16.64a4.07,4.07,0,0,1-.32.73,9.28,9.28,0,0,0-.65,1.37,14.11,14.11,0,0,0-.53,1.59c-.14.54-.26,1-.34,1.52A4.06,4.06,0,0,0,40.71,55.43Z" style="fill:#423c25"/></g></g></svg>