<svg xmlns="http://www.w3.org/2000/svg" width="125" height="80" viewBox="0 0 125 80"><g id="a146b6e8-e26b-4e31-a324-0023a87dbf5f" data-name="icon VA vecto"><g id="b05132f4-e4b3-433b-b289-d216d936f163" data-name="techniques - copie 3"><rect width="125" height="80" style="fill:#fff"/><path d="M129,18.61l-7.39-.36a.09.09,0,0,1-.09-.06s0,0,0-.06l1.3-4.14,0,0h0Z" style="fill:#423c25"/><path d="M124.33,2.1l-2.92,5.55a.22.22,0,0,1-.2.12.24.24,0,0,1-.14,0l-3.18-2.61a.1.1,0,0,1,0-.14.08.08,0,0,1,0,0Z" style="fill:#423c25"/><path d="M121.64,20a2.76,2.76,0,0,0-.2-1.76l0,0a.09.09,0,0,0,.09.06l7.39.36L122.85,14h0v0a2.64,2.64,0,0,0,1.51-1L135,20.62Z" style="fill:#fff"/><path d="M117.76,4.94a2.57,2.57,0,0,0-.14-1.8l12-6.23L122.86,8.53a2.81,2.81,0,0,0-1.65-.64V7.77a.22.22,0,0,0,.2-.12l2.92-5.55-6.42,2.83a.08.08,0,0,0,0,0Z" style="fill:#fff"/><path d="M116.83,22.42,116.59,30l-4-6.33a.16.16,0,0,1,0-.15.14.14,0,0,1,.11-.11l4-1.08a.12.12,0,0,1,.12,0A.18.18,0,0,1,116.83,22.42Z" style="fill:#423c25"/><path d="M113.7,11.93a2.33,2.33,0,1,1-3.27.3A2.33,2.33,0,0,1,113.7,11.93Z" style="fill:#fff"/><path d="M116.84,22.26a2.76,2.76,0,0,0,1.3.48V36.46l-7.2-11.32a2.61,2.61,0,0,0,1.46-1.54l0-.14.13,0a.16.16,0,0,0,0,.15l4,6.33.24-7.55a.18.18,0,0,0,0-.09Z" style="fill:#fff"/><path d="M111.67,2.93a.18.18,0,0,1,0,.2.23.23,0,0,1-.1.07l-3.74,1.17a.17.17,0,0,1-.2-.08.25.25,0,0,1,0-.09L108.34-3Z" style="fill:#423c25"/><path d="M111.67,2.93l-3.33-6-.73,7.25a.25.25,0,0,0,0,.09l-.09.1a2.73,2.73,0,0,0-1.77-.74l.94-13.49,6.55,11.71a2.7,2.7,0,0,0-1.48,1.28l-.11,0A.18.18,0,0,0,111.67,2.93Z" style="fill:#fff"/><path d="M106.53,21.31a.1.1,0,0,1,0,.12l0,0-7,3.86,3.64-6.11a.17.17,0,0,1,.14-.08l.09,0Z" style="fill:#423c25"/><path d="M101.61,18.39a2.7,2.7,0,0,0,1.74.66v.08a.17.17,0,0,0-.14.08l-3.64,6.11,7-3.86,0,0,0,0a1.49,1.49,0,0,0-.17.44,2.65,2.65,0,0,0,.35,1.87L94.71,29.89Z" style="fill:#fff"/><path d="M111.56,3.2a.23.23,0,0,0,.1-.07l.11,0-.06.18c-.42,1.28.74,2.6,1.76,3.15.11.06,2.11,1.09,3.46-.16a3,3,0,0,0,.83-1.38l.11,0a.1.1,0,0,0,0,.14l3.18,2.61a.24.24,0,0,0,.14,0v.12a2,2,0,0,0-.4.05c-1.31.3-1.86,2-1.81,3.13,0,.13.14,2.37,1.91,2.89a3.55,3.55,0,0,0,1.91,0v0l0,0-1.3,4.14s0,.05,0,.06l0,0a1.66,1.66,0,0,0-.22-.32c-.87-1-2.6-.75-3.6-.18-.12.07-2,1.21-1.69,3a2.32,2.32,0,0,0,.91,1.52l0,.07a.12.12,0,0,0-.12,0l-4,1.08a.14.14,0,0,0-.11.11l-.13,0c.22-1.25-1-2.44-2-2.91-.12-.06-2.17-1-3.44.36a2.53,2.53,0,0,0-.41.55l0,0a.1.1,0,0,0,0-.12l-3.09-2.16-.09,0v-.08a1.65,1.65,0,0,0,.3,0c1.31-.28,1.89-1.94,1.85-3.09,0-.13-.09-2.38-1.85-2.92a2.86,2.86,0,0,0-1.56-.05l0-.08a.19.19,0,0,0,.1-.1l1.13-3.61a.14.14,0,0,0,0-.15l.06-.08a3.2,3.2,0,0,0,3.4-.25c.1-.08,2-1.35,1.49-3.13a2.41,2.41,0,0,0-.67-1.16l.09-.1a.17.17,0,0,0,.2.08Zm2.43,12a2.32,2.32,0,1,0-3.27.3A2.33,2.33,0,0,0,114,15.2Z" style="fill:#423c25"/><path d="M102.16,12.77a.19.19,0,0,1-.1.1.18.18,0,0,1-.12,0l-6.5-4,7.7.16a.12.12,0,0,1,.11,0,.14.14,0,0,1,0,.15Z" style="fill:#423c25"/><path d="M103.14,9l-7.7-.16,6.5,4a.18.18,0,0,0,.12,0l0,.08a2.55,2.55,0,0,0-1.49,1l-11.47-7,13.41-.23a2.62,2.62,0,0,0,.55,2.05l.22.19-.06.08A.12.12,0,0,0,103.14,9Z" style="fill:#fff"/><path d="M121.21,7.89a2.81,2.81,0,0,1,1.65.64l6.72-11.62-12,6.23a2.57,2.57,0,0,1,.14,1.8,3,3,0,0,1-.83,1.38c-1.35,1.25-3.35.22-3.46.16-1-.55-2.18-1.87-1.76-3.15l.06-.18a2.7,2.7,0,0,1,1.48-1.28L106.7-9.84l-.94,13.49a2.73,2.73,0,0,1,1.77.74,2.41,2.41,0,0,1,.67,1.16c.47,1.78-1.39,3.05-1.49,3.13a3.2,3.2,0,0,1-3.4.25l-.22-.19a2.62,2.62,0,0,1-.55-2l-13.41.23L100.6,14a2.55,2.55,0,0,1,1.49-1,2.86,2.86,0,0,1,1.56.05c1.76.54,1.85,2.79,1.85,2.92,0,1.15-.54,2.81-1.85,3.09a1.65,1.65,0,0,1-.3,0,2.7,2.7,0,0,1-1.74-.66l-6.9,11.5,12.08-6.12a2.65,2.65,0,0,1-.35-1.87,1.49,1.49,0,0,1,.17-.44,2.53,2.53,0,0,1,.41-.55c1.27-1.33,3.32-.42,3.44-.36,1,.47,2.19,1.66,2,2.91l0,.14a2.61,2.61,0,0,1-1.46,1.54l7.2,11.32V22.74a2.76,2.76,0,0,1-1.3-.48,2.32,2.32,0,0,1-.91-1.52c-.35-1.81,1.57-2.95,1.69-3,1-.57,2.73-.85,3.6.18a1.66,1.66,0,0,1,.22.32,2.76,2.76,0,0,1,.2,1.76l13.4.64-10.71-7.68a2.64,2.64,0,0,1-1.51,1,3.55,3.55,0,0,1-1.91,0c-1.77-.52-1.9-2.76-1.91-2.89,0-1.16.5-2.83,1.81-3.13A2,2,0,0,1,121.21,7.89Z" style="fill:none;stroke:#423c25;stroke-miterlimit:10;stroke-width:0.60077714920044px"/><path d="M106.56,21.43l0,0-7,3.86,3.64-6.11a.17.17,0,0,1,.14-.08l.09,0,3.09,2.16A.1.1,0,0,1,106.56,21.43Z" style="fill:none;stroke:#423c25;stroke-miterlimit:10;stroke-width:0.60077714920044px"/><path d="M112.56,23.49a.16.16,0,0,0,0,.15l4,6.33.24-7.55a.18.18,0,0,0,0-.09.12.12,0,0,0-.12,0l-4,1.08A.14.14,0,0,0,112.56,23.49Z" style="fill:none;stroke:#423c25;stroke-miterlimit:10;stroke-width:0.60077714920044px"/><path d="M122.83,14h0L129,18.61l-7.39-.36a.09.09,0,0,1-.09-.06s0,0,0-.06l1.3-4.14Z" style="fill:none;stroke:#423c25;stroke-miterlimit:10;stroke-width:0.60077714920044px"/><path d="M117.87,5a.08.08,0,0,1,0,0l6.42-2.83-2.92,5.55a.22.22,0,0,1-.2.12.24.24,0,0,1-.14,0l-3.18-2.61A.1.1,0,0,1,117.87,5Z" style="fill:none;stroke:#423c25;stroke-miterlimit:10;stroke-width:0.60077714920044px"/><path d="M111.66,3.13a.18.18,0,0,0,0-.2l-3.33-6-.73,7.25a.25.25,0,0,0,0,.09.17.17,0,0,0,.2.08l3.74-1.17A.23.23,0,0,0,111.66,3.13Z" style="fill:none;stroke:#423c25;stroke-miterlimit:10;stroke-width:0.60077714920044px"/><path d="M102.06,12.87a.18.18,0,0,1-.12,0l-6.5-4,7.7.16a.12.12,0,0,1,.11,0,.14.14,0,0,1,0,.15l-1.13,3.61A.19.19,0,0,1,102.06,12.87Z" style="fill:none;stroke:#423c25;stroke-miterlimit:10;stroke-width:0.60077714920044px"/><path d="M113.7,11.93a2.33,2.33,0,1,1-3.27.3A2.33,2.33,0,0,1,113.7,11.93Z" style="fill:none;stroke:#423c25;stroke-miterlimit:10;stroke-width:0.60077714920044px"/><rect width="125" height="80" style="fill:none;stroke:#423c25;stroke-miterlimit:10;stroke-width:2px"/><path d="M11.82,31,11,31.7a.5.5,0,0,0-.27.08,1.67,1.67,0,0,0-.24.16,1.77,1.77,0,0,1-.24.17.46.46,0,0,1-.26.07c-.16,0-.25-.08-.26-.26a1,1,0,0,1,0-.41l0-.09.43-1.06,0-.12,0-.1L10.62,28l2.54-8.33a8.59,8.59,0,0,1-.41-1.5,3.79,3.79,0,0,1,.08-1.64s.1-.12.25-.24.31-.27.49-.41a3.06,3.06,0,0,1,.52-.36c.16-.1.26-.13.3-.1l.74.91a.31.31,0,0,0,.29-.22c.06-.16.12-.32.17-.5a3.61,3.61,0,0,1,.21-.49.41.41,0,0,1,.39-.23h.14l.36,0,.38,0a21.42,21.42,0,0,1,1.12,2.25c.33.77.62,1.55.88,2.33l-.2.53.44-.53a1.58,1.58,0,0,1,.1-.28c.08-.16.16-.35.26-.56l.27-.64a2.82,2.82,0,0,0,.18-.54c.05,0,.1-.11.15-.28a.48.48,0,0,1,.26-.36l.86-.34-.52-.38a.31.31,0,0,1-.18-.35,1.72,1.72,0,0,1,.08-.52l.07-.21A.8.8,0,0,1,21,15a2.44,2.44,0,0,1,.28-.14.5.5,0,0,1,.26-.05c.08,0,.12.06.12.16s0,.26,0,.3a.57.57,0,0,1,.14.11,5.52,5.52,0,0,0,.74.07c.37,0,.75,0,1.13.07a4.57,4.57,0,0,1,1,.18c.29.09.41.21.36.37a.22.22,0,0,1-.06.12.22.22,0,0,0-.06.12c-.06.18-.18.47-.35.89l-.53,1.33c-.18.47-.36.92-.52,1.35s-.29.71-.35.87l-.48,2.45-2.5,8.71a.76.76,0,0,1-.29.19,1.48,1.48,0,0,1-.38.15,1.6,1.6,0,0,1-.36.07.39.39,0,0,1-.31-.18,1.87,1.87,0,0,1-.25-.41c-.08-.15-.14-.3-.21-.44A1.19,1.19,0,0,0,18.3,31l-.63.46-.14.53a.26.26,0,0,1-.17.08.75.75,0,0,1-.24,0,.92.92,0,0,1-.79-.4,1.2,1.2,0,0,1-.26-.8L16.4,27l-.21-1.82h-.08c-.2.72-.42,1.44-.66,2.17s-.46,1.45-.68,2.17l-.12.48-.23.64q-.11.3-.3.78l-.11.06-.08,0h-.12a.68.68,0,0,1-.17-.09.3.3,0,0,0-.24.15l-.18.34a1.77,1.77,0,0,1-.19.33.31.31,0,0,1-.28.16l-.07,0a2.4,2.4,0,0,0-.12-.38.53.53,0,0,0-.24-.27.45.45,0,0,0-.27.23,1.73,1.73,0,0,0-.14.34,1.21,1.21,0,0,1-.13.35c0,.11-.17.16-.35.16s-.2-.09-.19-.25A2.06,2.06,0,0,1,11.4,32q.13-.31.27-.6A1.14,1.14,0,0,0,11.82,31Z" style="fill:#423c25"/><path d="M21.63,32.16l.24-.84c.36-1.46.71-2.88,1.06-4.28s.74-2.83,1.15-4.29l.05-.17.08-.21a.88.88,0,0,0,.06-.17l0-.1a.51.51,0,0,1,.07-.14l.16-.26q.07-.15.15-.27a.51.51,0,0,0,.07-.14,1,1,0,0,1,.08-.23l.14-.4.14-.4.1-.27.12-.27a2.1,2.1,0,0,0,.12-.42l.14-.51.15-.5a2,2,0,0,0,.09-.42.85.85,0,0,1,.08-.28.87.87,0,0,1,.24-.09l.46-.16.69-.23a.36.36,0,0,1,.32.13.77.77,0,0,1,.11.3,1.83,1.83,0,0,1,0,.32c0,.08,0,.12.1.12h0a1.62,1.62,0,0,0,.21-.29.23.23,0,0,0,.1-.12c0-.05,0-.07.07-.07a.91.91,0,0,1,.31-.08l.24,0a1.35,1.35,0,0,1,.18.2,1.18,1.18,0,0,0,.16.18h.12l.5-.19h.12l.08.1a.18.18,0,0,0,.12.09l-.12.41c-.29,1-.63,2-1,3s-.77,1.95-1.15,3a1.44,1.44,0,0,1-.34.49,1.21,1.21,0,0,0-.31.47,1.64,1.64,0,0,0-.06.7c0,.24,0,.45,0,.64L27,26.9l-.38,1.32-.12.44c-.16.52-.32,1.1-.49,1.72a11,11,0,0,1-.64,1.78.19.19,0,0,1-.14.11h-.34a1.07,1.07,0,0,0-.23-.4.65.65,0,0,0-.44-.11h-.18c-.07,0-.12,0-.13,0l-.27.26a1.19,1.19,0,0,1-.31,0c-.16,0-.25,0-.26.06a.33.33,0,0,0-.16.07l-.21.15a1.64,1.64,0,0,0-.22.14.64.64,0,0,0-.13.1A1.09,1.09,0,0,1,21.63,32.16Z" style="fill:#423c25"/><path d="M29.58,31.3l-.72.6a.55.55,0,0,0-.43.2.58.58,0,0,1-.44.2c-.12,0-.2-.07-.21-.22a.74.74,0,0,1,0-.35l0-.1.36-.91,0-.1,0-.09.32-1.85,2.23-7.25a5.3,5.3,0,0,1-.4-1.31,2.85,2.85,0,0,1,.09-1.42s.06-.09.2-.21.29-.24.46-.36l.45-.31c.14-.09.22-.12.25-.08l.65.79a.26.26,0,0,0,.24-.19c.05-.13.1-.28.15-.44a1.3,1.3,0,0,1,.2-.43.38.38,0,0,1,.32-.19h.15l.31,0,.31,0a23,23,0,0,1,1.73,4l-.17.45.39-.45a1.33,1.33,0,0,1,.09-.24l.22-.5.24-.55a4,4,0,0,0,.17-.47,1.84,1.84,0,0,0,.09-.26.55.55,0,0,1,.24-.31l.67-.31-.4-.32c-.08,0-.12-.13-.11-.3a2.75,2.75,0,0,1,.06-.44l.07-.19a1,1,0,0,1,.4-.24c.2-.08.3-.08.32,0l0,.09c0,.13,0,.22,0,.26l.13.1a2.33,2.33,0,0,0,.65.06l1,.06a5.92,5.92,0,0,1,.87.16c.25.07.35.18.3.32a.54.54,0,0,1,0,.11s0,.08,0,.11-.17.4-.32.77l-.45,1.16c-.16.41-.31.8-.46,1.17s-.25.62-.31.76l-.38,2.12L36.92,32a1.29,1.29,0,0,1-.26.17l-.34.12a1,1,0,0,1-.29.07.33.33,0,0,1-.26-.16,2,2,0,0,1-.23-.36c-.07-.13-.13-.26-.19-.38a1.2,1.2,0,0,0-.13-.23l-.53.39-.14.45a.32.32,0,0,1-.15.09l-.19,0a.82.82,0,0,1-.71-.35.94.94,0,0,1-.2-.7l.29-3.39-.17-1.58h-.1c-.17.62-.36,1.25-.56,1.89s-.39,1.28-.57,1.9l-.12.41c-.06.19-.12.37-.19.55a6.16,6.16,0,0,1-.29.67.22.22,0,0,1-.07.06s-.05,0-.07,0h-.12a.56.56,0,0,1-.17-.1.23.23,0,0,0-.21.13q-.07.14-.15.3a1.07,1.07,0,0,1-.17.3.28.28,0,0,1-.24.14.05.05,0,0,1,0,0,1.19,1.19,0,0,0-.1-.32.49.49,0,0,0-.19-.23.4.4,0,0,0-.27.19l-.12.31a1,1,0,0,1-.12.3c0,.09-.15.14-.31.14s-.18-.08-.15-.22a2.33,2.33,0,0,1,.14-.49,4.27,4.27,0,0,1,.24-.53A.66.66,0,0,0,29.58,31.3Z" style="fill:#423c25"/><path d="M50.6,21.22l-.53,1.7c-.11.37-.22.73-.32,1.08a5.56,5.56,0,0,0-.2,1.08,2.42,2.42,0,0,1-.08.25c0,.15-.1.33-.16.52s-.14.42-.27.74a1.14,1.14,0,0,0,0,.15.19.19,0,0,1,0,.16.71.71,0,0,1-.33.15.77.77,0,0,0-.27.06c-.07,0-.08.06-.05.11a1.9,1.9,0,0,0,.38.26l-.22.31-.34.47-.34.47-.22.31c-.15.21-.28.38-.4.52a4.31,4.31,0,0,1-.37.37l-.41.35-.53.42a3,3,0,0,0-.23.28,1.42,1.42,0,0,1-.25.29l-1,.65a3.78,3.78,0,0,1-1.17.31c-.36,0-.73.05-1.11.05s-.39-.11-.34-.34,0-.12-.14-.12l-.3,0-.34,0a1,1,0,0,1-.25,0c-.06,0-.09,0-.07-.1s0-.07,0-.16,0-.18.05-.27,0-.19,0-.28,0-.14,0-.15-.1.07-.15.16a2.61,2.61,0,0,1-.2.3l-.19.28c-.05.08-.11.12-.15.12a.49.49,0,0,1-.17,0c-.08,0-.12-.05-.12-.08l.14-.46H39.8c-.09.08-.18-.07-.26-.45a10.15,10.15,0,0,1-.15-1.66c-.08-.13-.14-.23-.2-.31a.94.94,0,0,1-.13-.24.66.66,0,0,1,0-.29,2.37,2.37,0,0,1,.11-.45,2.54,2.54,0,0,1,.14-.47c.07-.15.13-.31.2-.47a4.79,4.79,0,0,1,.28-1,2,2,0,0,1,.39-.59,1.59,1.59,0,0,1,.44-.32c.15-.08.31-.14.47-.21a2.53,2.53,0,0,1,2.3.29,1.38,1.38,0,0,1-.16.71,5.26,5.26,0,0,0-.29.63.37.37,0,0,0,.05.14l.1.25a2.16,2.16,0,0,1,.1.25c0,.07,0,.12,0,.13v0a.31.31,0,0,0,0,.1l0,.09,0,.07a.48.48,0,0,0,.06.45.89.89,0,0,0,.32.25l.35.17c.1.05.15.1.13.17s0,0-.07,0l-.12.1s-.06,0-.07.07v.05a.54.54,0,0,0,.37-.18,1.48,1.48,0,0,0,.25-.32l1.13-1.64,0-.16a3.94,3.94,0,0,0,.13-.71.87.87,0,0,1,.35-.66c.14-.9.28-1.74.4-2.53A20.71,20.71,0,0,1,47,20a10.28,10.28,0,0,0,.29-1.24,7.62,7.62,0,0,1,.36-1.3.42.42,0,0,1,.35-.14.49.49,0,0,0,.37-.1h.1v1.46l.48-1.13a.62.62,0,0,1,.27-.33l.4-.2-.1.56.39-.46.21.67q0,.08.06,0a2.61,2.61,0,0,0,.12-.28c0-.11.1-.26.18-.43a4.33,4.33,0,0,0,.42.13l.26.05.18.06a1.2,1.2,0,0,1,.2.17l-.74,2.8,0,.17c0,.13-.06.28-.09.46S50.58,21.2,50.6,21.22Z" style="fill:#423c25"/><path d="M49.31,31.34h-.1l-.12.1-.26.94,0,0a.27.27,0,0,0-.1.06h-.07c-.1,0-.16-.08-.19-.24s0-.26,0-.31,0-.16.06-.28a3.75,3.75,0,0,1,.1-.39c0-.13.07-.25.11-.37l.09-.26a.17.17,0,0,1-.07-.14l0-.17,0-.14.24-.75c.11-.33.25-.71.4-1.12L49.92,27c.16-.47.33-.91.48-1.32l.41-1.13c.12-.34.2-.59.25-.75.21-.36.43-.73.67-1.1a9.48,9.48,0,0,0,.62-1.1l1.14-2.33A14.43,14.43,0,0,1,54.9,17c.05,0,.11,0,.19.07a4.07,4.07,0,0,1,.25.35l.25.38c.08.12.14.18.17.18s.1-.06.16-.18.11-.25.15-.38.1-.26.15-.37.08-.16.12-.15h2.21L59,16.7a.07.07,0,0,1,.09.06,1,1,0,0,1,0,.2c0,.07,0,.14,0,.2s0,.1.06.1a1,1,0,0,0,.25,0,.92.92,0,0,1,.29,0,.5.5,0,0,1,.22.1s.07.12,0,.24l-.67,2.3a1.7,1.7,0,0,0,0,.54,5.16,5.16,0,0,0,.09.52c0,.17.07.34.11.51a2.4,2.4,0,0,1,0,.54c-.05.19-.12.53-.23,1s-.21,1-.32,1.5-.22,1-.33,1.5-.18.8-.22,1l0,.1a17.7,17.7,0,0,1-.29,2.29,23.5,23.5,0,0,1-.55,2.32,1.85,1.85,0,0,1-.63-.1,2.25,2.25,0,0,0-.64-.09.26.26,0,0,0-.18.09l-.17.21a1.71,1.71,0,0,1-.18.2.32.32,0,0,1-.21.1c-.09,0-.12-.06-.1-.17s0-.24.06-.37,0-.26.06-.38,0-.16-.07-.16,0,0-.11.1l-.17.23c0,.08-.14.19-.25.34L54.8,32a.7.7,0,0,1-.24.28s0,.06-.12.1v0h0c-.24,0-.36-.16-.37-.47a4.84,4.84,0,0,1,.09-1c.06-.38.12-.72.16-1s0-.47-.12-.47h-.67a.61.61,0,0,0-.55.22l-.34,1.15-.31,1.15a2.87,2.87,0,0,1-.18.42l-.15.3-.15.1H50.05l-.43-.46-.22-.1a.25.25,0,0,1,0-.2,1.64,1.64,0,0,1,.07-.28.81.81,0,0,0,0-.25C49.48,31.38,49.42,31.34,49.31,31.34ZM54,26.11,54,26.3c0,.1,0,.16.1.17a3.29,3.29,0,0,0,.67-.12.59.59,0,0,0,.48-.41.32.32,0,0,1,.08-.09.41.41,0,0,0,.09-.1,2.15,2.15,0,0,1,0-.41c0-.19.06-.39.09-.61s.07-.42.11-.61a3.07,3.07,0,0,1,.11-.41s0-.09,0-.19,0-.19.05-.29a.77.77,0,0,0,0-.26q0-.12-.06-.12c-.14,0-.31.16-.49.48a10.6,10.6,0,0,0-.55,1.07c-.19.39-.34.76-.47,1.1S54.05,26.05,54,26.11Z" style="fill:#423c25"/><path d="M58.23,31.42v-.05c0-.05.08-.09.2-.11l.34-.07.47-.09s0-.06,0-.15-.09-.18-.14-.27-.12-.2-.21-.34l1.46,0c0-.05,0-.1-.12-.14a1,1,0,0,0-.29-.1L59.36,30c-.14,0-.27-.1-.38-.31a.26.26,0,0,0,.08-.16,1.84,1.84,0,0,1,.09-.25.76.76,0,0,1,.13-.23.24.24,0,0,1,.2-.11,1.11,1.11,0,0,1,.59.21,1.51,1.51,0,0,0,.78.2,1.32,1.32,0,0,0,.62-.15,2.22,2.22,0,0,0,.51-.39,2.59,2.59,0,0,0,.37-.5,3,3,0,0,0,.23-.54.29.29,0,0,1,.21-.17c.12,0,.16-.09.15-.17a1.18,1.18,0,0,1-.16-.18l-.29-.33-.27-.34a.51.51,0,0,1-.12-.2,1.22,1.22,0,0,0-.09-.32c0-.16-.11-.33-.16-.52s-.12-.37-.17-.53a1.44,1.44,0,0,1-.09-.29c-.12-.3-.23-.56-.32-.76a2.78,2.78,0,0,1-.19-.6,1.91,1.91,0,0,1,0-.68,5.87,5.87,0,0,1,.24-1,8,8,0,0,1,.8-1.92,4.71,4.71,0,0,1,1.25-1.41,5.27,5.27,0,0,1,1.81-.88,9.08,9.08,0,0,1,2.47-.3h.07s0,0-.07.1l-.21.22-.22.23c-.06.07-.09.1-.07.1l.18-.07.36-.15.37-.14a.63.63,0,0,1,.22-.07,1.16,1.16,0,0,1,.4.06c.12,0,.15.14.1.32a.34.34,0,0,1-.14.2.8.8,0,0,1-.23.1l-.25.07a.46.46,0,0,0-.2.13s0,.07-.14.16l-.31.28-.41.36,1.61-.65s0,.06,0,.18a3.77,3.77,0,0,1,0,.41c0,.15,0,.3-.07.44a1.53,1.53,0,0,1-.06.29.7.7,0,0,1-.41.42,4.55,4.55,0,0,1-.67.25l-.3.07-.42.11-.41.11-.29.07c-.2.11-.32.23-.33.36a.72.72,0,0,0,0,.37c0,.17,0,.34.08.52s.06.35.1.51a2.26,2.26,0,0,1,0,.35l-.48.67.3-.09a.62.62,0,0,1,.18-.05c.18,0,.32.14.44.41s.14.46.25.8.19.72.27,1.12.14.79.18,1.16a2.75,2.75,0,0,1,0,.93l0,0a5.84,5.84,0,0,0-.68,1.07A4.32,4.32,0,0,1,65.6,30l-.27.32q-.21.22-.42.48c-.15.17-.29.32-.44.47a3.86,3.86,0,0,1-.33.31,2.09,2.09,0,0,1-.79.36,10,10,0,0,1-1.19.23l-1.24.12-.91,0a2.11,2.11,0,0,1-.5-.07,4.44,4.44,0,0,1-.62-.19,2,2,0,0,1-.5-.28A.32.32,0,0,1,58.23,31.42Z" style="fill:#423c25"/><path d="M11.87,57.34a.38.38,0,0,0-.21.12,3.38,3.38,0,0,0-.26.27l-.24.26q-.11.12-.18.12-.32,0-.3-.51a6.7,6.7,0,0,1,.15-1.17c.1-.43.21-.85.34-1.26s.21-.68.24-.83a51.73,51.73,0,0,1,1.69-5c.65-1.64,1.21-3.29,1.69-5a.16.16,0,0,1,0-.15s0-.07,0-.07H12.66a.52.52,0,0,1,.17-.29.46.46,0,0,0,.16-.26l0-.12c-.15-.16-.21-.26-.19-.31s.09-.15.22-.19a3,3,0,0,1,.45-.12,1.89,1.89,0,0,1,.47-.06l.32,0-.38-.24a2.18,2.18,0,0,1-.44,0,1.88,1.88,0,0,1-.38-.14.54.54,0,0,1-.25-.22.41.41,0,0,1,0-.36,1,1,0,0,1,.21-.35.84.84,0,0,1,.36-.28L14.63,41l.54,0,1.18,0,1.37,0H23a.51.51,0,0,1-.22.37,1,1,0,0,1-.34.11l-.37.06a.54.54,0,0,0-.34.23,1.14,1.14,0,0,0-.06.43,3.6,3.6,0,0,0,0,.36c0,.11,0,.23,0,.35a.93.93,0,0,1-.06.39,3.64,3.64,0,0,1-.21.51,2.91,2.91,0,0,1-.46.5.74.74,0,0,1-.57.13l-.7,0a.86.86,0,0,0-.41.09s-.05.14-.09.28-.1.28-.16.43l-.17.45c-.05.14-.09.24-.11.31l-.12.41c0,.12-.1.34-.2.66l-.32,1c-.12.34-.23.66-.34,1s-.19.5-.24.61l-2.11,7.3a3.43,3.43,0,0,1-.19.51,1.92,1.92,0,0,1-.39.57,1.32,1.32,0,0,0-.71,0,1.34,1.34,0,0,0-.37.28l-.27.31a.54.54,0,0,1-.42.15.44.44,0,0,1-.42-.21,2.18,2.18,0,0,1-.22-.43,2.83,2.83,0,0,0-.2-.43A.39.39,0,0,0,11.87,57.34Z" style="fill:#423c25"/><path d="M19.62,56.17A5.92,5.92,0,0,1,20.09,55a6.22,6.22,0,0,0,.46-1.16,17.72,17.72,0,0,0,.52-2.25,17.86,17.86,0,0,1,.52-2.26A9.43,9.43,0,0,1,22.11,48a7.16,7.16,0,0,0,.51-1.29l0-.1.1-.26V46.3c0-.08-.09-.13-.23-.16a.58.58,0,0,0-.37,0l-.41-.46s0,0,0-.1c.18-.2.32-.37.42-.5s.2-.24.3-.35a1.34,1.34,0,0,0,.17-.2l.45-.1.17,0a1.78,1.78,0,0,0-.23-.17.62.62,0,0,0-.39-.14s0-.06,0-.08a.67.67,0,0,1,.37-.39,2.37,2.37,0,0,1,.71-.24,5.63,5.63,0,0,1,.85-.11c.3,0,.56,0,.78,0h.46q.81,0,1.59.06c.52,0,1.05.06,1.6.06a1.93,1.93,0,0,0,.49-.06,1.93,1.93,0,0,1,.49-.06l0,.19c-.05.13-.09.19-.1.19l-.16.23a1,1,0,0,0-.15.23l-.08.19-.55.31.39.31-.05.19a1.21,1.21,0,0,1-.43.48,2.72,2.72,0,0,1-.7.36,6,6,0,0,1-.76.24,2.94,2.94,0,0,1-.61.12l-.12.1a.44.44,0,0,0-.07.19l-.12.41a4.29,4.29,0,0,1-.13.44c-.06.16-.1.28-.13.38l0,.09a.59.59,0,0,0,0,.17.15.15,0,0,1-.1.14l-.45.24.38,0q.08,0,0,.12l-.1.21,0,.1c0,.06,0,.1.05.1H26a5.09,5.09,0,0,0,.94-.1,5,5,0,0,1,.91-.1.36.36,0,0,1,.35.17.56.56,0,0,1,0,.39.59.59,0,0,1-.27.28,4.68,4.68,0,0,1-.5.28l-.5.24q-.21.1-.24.18s.05.06.16.08l.33.11a1.4,1.4,0,0,1,.32.18c.08.07.1.18,0,.33a1,1,0,0,1-.45.56,2.2,2.2,0,0,1-.64.22c-.23,0-.46.07-.7.09a1.76,1.76,0,0,0-.66.21,1.59,1.59,0,0,0-.16.3,4.49,4.49,0,0,0-.23.57q-.11.33-.21.6c-.06.19-.1.3-.12.35v0c0,.1,0,.21,0,.34l-.06.38a2.72,2.72,0,0,0-.06.46H26q.15,0,.18.06a.22.22,0,0,1,0,.14,1.16,1.16,0,0,1,0,.18.25.25,0,0,0,0,.17s0,.09.1.13l.19.14a.46.46,0,0,1,.15.2.47.47,0,0,1,0,.35.45.45,0,0,1-.29.3c-.16.07-.33.13-.51.19l-.52.18a.45.45,0,0,0-.29.26,1,1,0,0,1,.17.27l0,.07a.38.38,0,0,1-.28.31,3,3,0,0,1-.54.07,11.94,11.94,0,0,0-1.25.15,2.39,2.39,0,0,1-1,0l-.72-.19L21,58.3a.49.49,0,0,1-.35,0,2.08,2.08,0,0,0-.39,0H20a1.16,1.16,0,0,1-.56-.94A3.59,3.59,0,0,1,19.62,56.17Z" style="fill:#423c25"/><path d="M32.6,54.9l-.2.2c-.06.06-.08.09-.06.11a.66.66,0,0,0,.41.19.76.76,0,0,0,.38,0,2.23,2.23,0,0,0,.46-.3.29.29,0,0,0,.09-.16.5.5,0,0,0,0-.12s0-.07.09-.12l.75-1a.87.87,0,0,0,.44-.33,1.89,1.89,0,0,0,.13-.31,1,1,0,0,1,.18-.28,1.5,1.5,0,0,1,.62-.25l1.89,0a.22.22,0,0,1,.24.16,1.49,1.49,0,0,1,0,.36,1.11,1.11,0,0,1,0,.39,3.14,3.14,0,0,1-.1.43,2.7,2.7,0,0,1-.6.95A14,14,0,0,1,36.24,56c-.41.37-.81.71-1.21,1l-1,.75,0,0a5.79,5.79,0,0,0-.72-.28,1.62,1.62,0,0,0-.5-.1c-.18,0-.28,0-.31.11a.38.38,0,0,0,0,.24,1.13,1.13,0,0,1,0,.25c0,.06-.06.1-.17.1h-1l-.63,0a2.66,2.66,0,0,1-.6-.12,2.17,2.17,0,0,1-.85-.59,1.86,1.86,0,0,1-.36-.75,3.05,3.05,0,0,1-.05-.8c0-.27.06-.52.09-.74a1.06,1.06,0,0,0-.12-.2,1.21,1.21,0,0,0-.07-.24l-.15-.34c-.05-.12-.09-.24-.13-.34a.37.37,0,0,1,0-.2,5.43,5.43,0,0,1,.06-1c.06-.32.14-.65.23-1s.21-.64.33-1a3.9,3.9,0,0,0,.22-1l.11-.09.23-.15.34-.21-.36-.16-.26-.12c-.07,0-.1-.07-.1-.08a1,1,0,0,1,.21-.4l.35-.41a3.66,3.66,0,0,0,.32-.39.61.61,0,0,0,.15-.36l.21-.3q.15-.21.33-.42c.12-.15.23-.29.32-.42a2.48,2.48,0,0,1,.22-.28,4.35,4.35,0,0,1,.36-.47q.17-.18.33-.33a2.79,2.79,0,0,1,.38-.3l.46-.36a1.72,1.72,0,0,0,.22-.27,1,1,0,0,1,.26-.26A4.74,4.74,0,0,1,34,43.8a2.9,2.9,0,0,1,.55-.17,2.69,2.69,0,0,1,.57-.07l.67,0,.25,0,.3-.07a.85.85,0,0,1,.24,0c.06,0,.09,0,.07.07s0,.15.16.21l.38.15.34.13c.09,0,.09.08,0,.11a.71.71,0,0,0-.36.33.82.82,0,0,0-.14.3s0,0,.12,0a1.73,1.73,0,0,1,.36-.11,2.25,2.25,0,0,1,.46,0,.68.68,0,0,1,.47.26l.24.31a.79.79,0,0,1,.12.26c0,.07,0,.13,0,.18l.06.18a.88.88,0,0,0,.18.27,3.2,3.2,0,0,1,.35.69.5.5,0,0,1-.06.51,1.88,1.88,0,0,0-.35.48,1.24,1.24,0,0,0-.11.36c0,.11,0,.21,0,.31a1.47,1.47,0,0,1,0,.33l0,0s-.14.13-.36.25a2.62,2.62,0,0,1-.83.26,3.49,3.49,0,0,1-1.06,0,1.9,1.9,0,0,1-1-.61v-.89a.56.56,0,0,1,0-.08.15.15,0,0,0,0-.09l0,0c.09-.35.15-.6.17-.75a2.06,2.06,0,0,1,.07-.4s0,0,0,0l-.31.2-1.73.72-.74,1.16-.12.13a.76.76,0,0,0-.1.13.25.25,0,0,0,0,.18A.41.41,0,0,0,33,49a.67.67,0,0,1,.06.12.6.6,0,0,1,0,.19q-.2.67-.51,1.56c-.2.59-.39,1.1-.55,1.54a1,1,0,0,0,.15.22q.06.09.12-.06l-.1,1.2Z" style="fill:#423c25"/><path d="M45.9,58.62l-.21-.24a.84.84,0,0,0-.22-.22s-.06,0-.22-.06a1.27,1.27,0,0,1-.31,0,.87.87,0,0,1-.12-.26.24.24,0,0,0-.12,0h-.15a1,1,0,0,0-.51.11,2.06,2.06,0,0,0-.45.4h-.37s-.07-.05-.06-.11a11.79,11.79,0,0,1,.37-1.78l.52-1.72.62-2.24.12-.21L45,52a1.33,1.33,0,0,1-.8.32c-.31,0-.62.07-.93.13-.08.44-.17.86-.27,1.29s-.22.84-.35,1.26l-.74,2.54-.1.41a.54.54,0,0,0-.18.1,1.06,1.06,0,0,1-.13.09h-.12L41,57.92h-.12a.36.36,0,0,0-.09.18.34.34,0,0,1-.12.2l-.25,0a.84.84,0,0,1-.28-.07s0,0,0-.07A.11.11,0,0,0,40,58V57.9c0-.1,0-.16,0-.17h0a.21.21,0,0,0-.18.13l-.2.3a1.27,1.27,0,0,1-.27.3.63.63,0,0,1-.41.13l-.54-.23L38,58.21c-.12-.05-.18-.08-.18-.1a2.35,2.35,0,0,0,.1-.27l.14-.42.28-1,.1-.42c0-.12.06-.21.07-.28a1.26,1.26,0,0,0,.06-.26c0-.13.05-.27.07-.41s0-.28.08-.4a1.94,1.94,0,0,0,0-.22s0-.07,0-.15a2.11,2.11,0,0,0,0-.26V53.6l0-.1a.61.61,0,0,0,.12-.18l.2-.32c.08-.11.14-.22.21-.32l.12-.21,0-.17c.19-.67.37-1.32.54-2s.33-1.28.5-1.92.34-1.3.52-2,.36-1.36.57-2.08l.24-.84a2.05,2.05,0,0,1,1-.45,2.37,2.37,0,0,1,.21.24c.1.13.18.2.23.21s.08.06.24.06a.84.84,0,0,1,.28,0,1.05,1.05,0,0,1,.12.26s.06,0,.14,0h.15a.94.94,0,0,0,.52-.11,2,2,0,0,0,.44-.39h.1l.09,0,.16,0c.06,0,.08,0,.06.1a10.47,10.47,0,0,1-.37,1.78c-.19.62-.35,1.2-.49,1.73l-.65,2.23a.14.14,0,0,0-.05.1,0,0,0,0,0,0,0l-.05,0a7.06,7.06,0,0,0,.77-.1,4.92,4.92,0,0,1,.76-.09,18.1,18.1,0,0,1,.62-2.54c.26-.82.52-1.66.78-2.53l.12-.41a.44.44,0,0,0,.16-.09.48.48,0,0,0,.12-.1h.12l.41.19H48l.23-.18.3-.2.19.1s0,0,0,.07a.16.16,0,0,0,0,.12c0,.17,0,.27,0,.29h0c.06,0,.12,0,.18-.14l.2-.3a1.58,1.58,0,0,1,.28-.3.66.66,0,0,1,.42-.13l.51.23.39.16a.41.41,0,0,1,.18.09,1.63,1.63,0,0,0-.11.28c0,.12-.09.26-.13.42l-.29,1q0,.24-.09.42a1,1,0,0,1-.08.27,1.41,1.41,0,0,0-.06.27c0,.12,0,.26-.07.4s0,.28-.07.4a1.17,1.17,0,0,0,0,.23,1.13,1.13,0,0,1,0,.14,2.26,2.26,0,0,0,0,.27v.4l0,.1a.71.71,0,0,1-.19.24,1.16,1.16,0,0,0-.22.29l0,.17c-.42,1.45-.8,2.86-1.16,4.21s-.76,2.75-1.22,4.21l-.24.84A2.16,2.16,0,0,1,45.9,58.62Z" style="fill:#423c25"/><path d="M50.67,57.3l-.72.6a.56.56,0,0,0-.43.2.56.56,0,0,1-.43.2c-.13,0-.2-.07-.22-.22a.87.87,0,0,1,0-.35l0-.1.36-.91,0-.1,0-.09.31-1.85,2.23-7.25a5.77,5.77,0,0,1-.39-1.31,3,3,0,0,1,.08-1.42s.07-.09.21-.21a4.43,4.43,0,0,1,.45-.36l.46-.31c.13-.09.22-.12.25-.08l.65.79a.26.26,0,0,0,.24-.19c0-.13.09-.28.14-.44a1.56,1.56,0,0,1,.21-.43.36.36,0,0,1,.32-.19h.14l.32,0,.31,0a23.79,23.79,0,0,1,1.73,4l-.17.45.38-.45a1,1,0,0,1,.1-.24l.21-.5.24-.55a2.75,2.75,0,0,0,.17-.47.84.84,0,0,0,.1-.26.55.55,0,0,1,.24-.31l.67-.31-.41-.32c-.08,0-.11-.13-.11-.3a2.75,2.75,0,0,1,.06-.44l.08-.19a.93.93,0,0,1,.39-.24q.3-.12.33,0l0,.09c0,.13,0,.22,0,.26l.13.1a2.28,2.28,0,0,0,.65.06l1,.06a5.83,5.83,0,0,1,.88.16c.25.07.35.18.3.32l0,.11a1.17,1.17,0,0,1-.05.11c-.06.14-.17.4-.31.77s-.3.75-.46,1.16l-.45,1.17-.31.76-.39,2.12L58,58a1.27,1.27,0,0,1-.27.17l-.33.12a1.1,1.1,0,0,1-.29.07.32.32,0,0,1-.26-.16,2,2,0,0,1-.23-.36c-.07-.13-.14-.26-.19-.38a.77.77,0,0,0-.14-.23l-.52.39-.15.45s-.06.06-.14.09l-.19,0a.81.81,0,0,1-.71-.35,1,1,0,0,1-.21-.7l.29-3.39-.17-1.58h-.09q-.27.93-.57,1.89c-.2.64-.38,1.28-.56,1.9l-.12.41c-.06.19-.13.37-.19.55s-.16.4-.29.67l-.07.06-.07,0h-.12a.46.46,0,0,1-.17-.1.25.25,0,0,0-.22.13c0,.09-.09.19-.14.3a1.39,1.39,0,0,1-.17.3.28.28,0,0,1-.24.14s0,0-.05,0a1.17,1.17,0,0,0-.09-.32.51.51,0,0,0-.2-.23.4.4,0,0,0-.26.19,1.66,1.66,0,0,0-.12.31,1,1,0,0,1-.12.3.32.32,0,0,1-.31.14c-.13,0-.18-.08-.16-.22a2.42,2.42,0,0,1,.15-.49,4.27,4.27,0,0,1,.24-.53C50.65,57.45,50.69,57.34,50.67,57.3Z" style="fill:#423c25"/><path d="M59.38,58.16l.24-.84c.36-1.46.71-2.88,1.06-4.28s.74-2.83,1.15-4.29l.05-.17.08-.21L62,48.2l0-.1a.51.51,0,0,1,.07-.14l.16-.26q.07-.15.15-.27a.51.51,0,0,0,.07-.14,1,1,0,0,1,.08-.23l.14-.4c.05-.14.1-.28.15-.4S63,46,63,46l.12-.27a2.1,2.1,0,0,0,.12-.42l.15-.51.14-.5a2,2,0,0,0,.09-.42.85.85,0,0,1,.08-.28.87.87,0,0,1,.24-.09l.47-.16.68-.23a.36.36,0,0,1,.32.13.77.77,0,0,1,.11.3,1.83,1.83,0,0,1,0,.32c0,.08,0,.12.1.12h.05a2,2,0,0,0,.22-.29.22.22,0,0,0,.09-.12s0-.07.07-.07a.92.92,0,0,1,.32-.08l.23,0a2,2,0,0,1,.19.2,1.52,1.52,0,0,0,.15.18H67l.5-.19h.13l.07.1a.18.18,0,0,0,.12.09l-.12.41c-.29,1-.63,2-1,3s-.77,2-1.15,3a1.44,1.44,0,0,1-.34.49,1.21,1.21,0,0,0-.31.47,2,2,0,0,0-.06.7c0,.24,0,.45,0,.64l-.12.48-.39,1.32-.12.44c-.16.52-.32,1.1-.49,1.72a11,11,0,0,1-.64,1.78.19.19,0,0,1-.14.11h-.34a1.25,1.25,0,0,0-.22-.4.68.68,0,0,0-.45-.11h-.18a.24.24,0,0,0-.13,0l-.27.26a1.19,1.19,0,0,1-.31,0c-.16,0-.24,0-.26.06a.37.37,0,0,0-.16.07l-.21.15-.22.14a.64.64,0,0,0-.13.1A1.09,1.09,0,0,1,59.38,58.16Z" style="fill:#423c25"/><path d="M76.68,49.2l-.06.13a1.32,1.32,0,0,0-.24.29,6,6,0,0,0-.38,1c-.08.32-.17.64-.25,1s-.21.64-.33,1a5.32,5.32,0,0,1-.51,1,.61.61,0,0,1-.09.22c-.07.11-.14.23-.23.35l-.25.35-.17.24-.24.19c0,.19,0,.38,0,.57a3.25,3.25,0,0,1,0,.39,2.16,2.16,0,0,0,.1.84,2.58,2.58,0,0,1,.07.89.39.39,0,0,1,0,.14s-.06.07-.14.07l-.1,0-.07-.08a1.07,1.07,0,0,1-.18.16l-.2.16h0c-.08,0-.13,0-.16-.05a.84.84,0,0,1,0-.17.65.65,0,0,0,0-.16s-.07,0-.17,0-.38.09-.43.24a.88.88,0,0,0,0,.26,1.42,1.42,0,0,1,0,.29.53.53,0,0,1-.13.26.54.54,0,0,1-.35.15.38.38,0,0,1-.3-.1.78.78,0,0,1-.21-.29,1.06,1.06,0,0,1-.12-.34,1.23,1.23,0,0,1,0-.28.4.4,0,0,1,0-.13.68.68,0,0,0-.06-.21,6.36,6.36,0,0,1-.66.17l-.67.13-.57.09-.4,0a8.85,8.85,0,0,1-1.21,0c-.25,0-.33-.21-.23-.55v-.05c-.15-.17-.33-.41-.57-.7s-.45-.62-.66-1a7.17,7.17,0,0,1-.5-1,1.36,1.36,0,0,1-.07-.9l.18-.43a2.86,2.86,0,0,1,.18-.38.72.72,0,0,1,.32-.28.39.39,0,0,0,.25-.25c0-.1,0-.16-.1-.18a.42.42,0,0,1-.23-.13l0-.1a.21.21,0,0,0,0-.12.22.22,0,0,1,0-.12l.05-.17.09-.26,0,0a3.16,3.16,0,0,1,.19-.46L67,50l.36-.77a2.42,2.42,0,0,0,.19-.48l0,0a5.49,5.49,0,0,0,.17-.76,3.82,3.82,0,0,1,.16-.73,1.84,1.84,0,0,1,.16-.41,2.48,2.48,0,0,1,.19-.26,1.47,1.47,0,0,1,.26-.23,3.47,3.47,0,0,0,.38-.3l.32-.26.17-.18.13-.18a2.22,2.22,0,0,1,.27-.27l.69-.67a.54.54,0,0,1,.24-.11,1.86,1.86,0,0,1,.34,0,1.55,1.55,0,0,0,.31-.06.26.26,0,0,0,.17-.17c0-.07.09-.12.21-.17l.42-.13.41-.12a.34.34,0,0,0,.23-.18c.05-.18.21-.27.5-.27a3.32,3.32,0,0,1,1.35.26,3.86,3.86,0,0,1,1,.66.5.5,0,0,1,.1.26,2.35,2.35,0,0,0,.07.26l.25.38a2.61,2.61,0,0,1,.2.3,1.92,1.92,0,0,1,.14.32,4.82,4.82,0,0,1,.11.47,1,1,0,0,0,0,.27c0,.14,0,.28.08.42s0,.29.08.42a1.13,1.13,0,0,1,0,.3,1.08,1.08,0,0,0-.12.75,1.91,1.91,0,0,1,0,.79A.53.53,0,0,0,76.68,49.2Zm-4.79,3c0,.1,0,.12.07.06a2.2,2.2,0,0,0,.29-.23c.08-.43.15-.86.2-1.3a9.41,9.41,0,0,1,.28-1.34A1.58,1.58,0,0,1,73,48.9a2.15,2.15,0,0,0,.29-.53l0-.15-.24-1.48-.2-.21s0,0,0,0-.09.1-.22.14l-.42.15a2.67,2.67,0,0,0-.43.25.8.8,0,0,0-.28.4v.05a.12.12,0,0,0,0,.08.1.1,0,0,1,0,.09l0,0s0,.11,0,.28,0,.26,0,.28-.14.38-.27.7a6.11,6.11,0,0,1-.4.81,2.69,2.69,0,0,1-.42.95c-.22.32-.41.64-.59,1a3.91,3.91,0,0,0-.36.85.55.55,0,0,0,.27.62l.07,1.18c.06.06.07.18,0,.36a.87.87,0,0,0,0,.36.59.59,0,0,1,.14.24.25.25,0,0,0,.24.19c.08,0,.23-.14.45-.43,0-.19,0-.25,0-.17a.31.31,0,0,0,0-.11,1.93,1.93,0,0,1,0-.2l.22-2.74Z" style="fill:#423c25"/><path d="M78.14,47.07l.18-.45.05-.17.86-2.21A1.31,1.31,0,0,0,79.5,44a2.47,2.47,0,0,1,.21-.27,2.81,2.81,0,0,1,.3-.26,1.7,1.7,0,0,1,.52-.23,4.4,4.4,0,0,1-.09.45,1.51,1.51,0,0,0,0,.26c0,.07,0,.08.06,0l.6-.68.12.46.21-.55.27.2a.47.47,0,0,1,.09.33l0,.33.64-.67h.12a3.1,3.1,0,0,0,.18.26.7.7,0,0,1,.14.29c-.08.43-.16.82-.24,1.15s-.18.7-.29,1.08c-.27.92-.57,1.81-.9,2.68s-.68,1.76-1.05,2.68a.35.35,0,0,1,.08.28,1.61,1.61,0,0,1-.1.36,3.29,3.29,0,0,1-.17.39,1.7,1.7,0,0,0-.12.33l0,.17.22,1.63a.57.57,0,0,0,.05.33.26.26,0,0,0,.26.18l0-.05s0-.07,0-.07l-.07-.1s0,0,0-.05.09-.12.22-.16l.45-.17a3.57,3.57,0,0,0,.47-.25.87.87,0,0,0,.32-.45v-.07a.11.11,0,0,0,0-.1.14.14,0,0,1,0-.09v0s0-.06.1-.14l.21-.27c.07-.09.13-.18.2-.26a.44.44,0,0,0,.09-.15,3.2,3.2,0,0,0,.1-.63,1.64,1.64,0,0,1,.22-.71c0-.22.1-.44.16-.65a1.92,1.92,0,0,1,.29-.57l.53-2.55.31.17,0-.53a1.94,1.94,0,0,1,.09-.23c.07-.13.14-.29.23-.48s.17-.37.25-.56a3.16,3.16,0,0,0,.17-.48,1.07,1.07,0,0,0,.14-.41L85.4,44a1.93,1.93,0,0,0,.1-.46,1,1,0,0,1,.37-.21,4.63,4.63,0,0,1,.44-.15c.1,0,.17.06.22.23a.94.94,0,0,0,.12.3,1.41,1.41,0,0,0,.57,0,6,6,0,0,1,.84-.09,2.57,2.57,0,0,1,.77.1.57.57,0,0,1,.39.54.19.19,0,0,1,0,.11l-.06.11c-.06.14-.17.4-.31.76s-.3.76-.46,1.17l-.45,1.16c-.15.37-.25.63-.32.77l-.26,1.37-.46-.19.32.93-.66,1.48q-.33.71-.66,1.38c0,.16-.06.31-.09.47a4.24,4.24,0,0,1-.1.46,2.63,2.63,0,0,1-.16.46,1.27,1.27,0,0,1-.21.29l-.27.24-.4.31a13.4,13.4,0,0,1-1.08,1.66c-.3.38-.48.53-.53.45h-.24l-.11.46a.26.26,0,0,1-.16.08.68.68,0,0,1-.21,0s-.07,0-.08-.12a2.16,2.16,0,0,1,0-.28l0-.3c0-.09,0-.15-.06-.17a.67.67,0,0,1-.06.16l-.12.28-.12.27a.67.67,0,0,0-.06.16c0,.11-.16.14-.38.09a3.69,3.69,0,0,0-.6-.07.21.21,0,0,0-.22.12c0,.23-.22.34-.53.34a4.11,4.11,0,0,1-2-.55l-.07.24,0-.27a1.6,1.6,0,0,1-.53-.43.63.63,0,0,1-.08-.29.8.8,0,0,0-.09-.29l-.29-.42c-.08-.12-.14-.23-.2-.34a2.13,2.13,0,0,1-.14-.38,3.37,3.37,0,0,1-.11-.51,1.52,1.52,0,0,0,0-.31c0-.15,0-.3-.07-.47s0-.33-.07-.47,0-.25,0-.31a3.24,3.24,0,0,0,.53-.27c.06,0,.07-.08,0-.1a.49.49,0,0,0-.22-.06.32.32,0,0,1-.23-.15s0-.09,0-.17a.4.4,0,0,0,.07-.14c.08-.32.15-.57.2-.74s.1-.37.13-.52,0-.24,0-.25a5.78,5.78,0,0,0,.41-1.08c.1-.35.2-.71.31-1.08l.48-2S78.07,47.25,78.14,47.07Z" style="fill:#423c25"/><path d="M86.84,56.17A5.92,5.92,0,0,1,87.31,55a6.27,6.27,0,0,0,.47-1.16,19.53,19.53,0,0,0,.51-2.25,17.86,17.86,0,0,1,.52-2.26A9.56,9.56,0,0,1,89.34,48a7.88,7.88,0,0,0,.5-1.29l0-.1.09-.26V46.3c0-.08-.09-.13-.23-.16a.58.58,0,0,0-.37,0L89,45.68a.16.16,0,0,1,0-.1c.18-.2.32-.37.42-.5l.3-.35a.89.89,0,0,0,.17-.2l.46-.1.16,0a2.18,2.18,0,0,0-.22-.17.67.67,0,0,0-.4-.14.11.11,0,0,1,0-.08.67.67,0,0,1,.37-.39,2.37,2.37,0,0,1,.71-.24,5.8,5.8,0,0,1,.85-.11c.3,0,.56,0,.78,0H93c.54,0,1.07,0,1.6.06s1,.06,1.59.06a1.88,1.88,0,0,0,.49-.06,2,2,0,0,1,.5-.06l0,.19c0,.13-.08.19-.1.19a2.4,2.4,0,0,1-.15.23,2,2,0,0,0-.16.23l-.07.19-.55.31.38.31,0,.19a1.14,1.14,0,0,1-.43.48,2.72,2.72,0,0,1-.7.36,5.9,5.9,0,0,1-.75.24,3.07,3.07,0,0,1-.61.12l-.12.1a.34.34,0,0,0-.08.19l-.12.41a2.71,2.71,0,0,1-.13.44c0,.16-.1.28-.13.38l0,.09a.34.34,0,0,0,0,.17.15.15,0,0,1-.09.14l-.46.24.38,0s.06,0,0,.12a2.09,2.09,0,0,1-.1.21l0,.1c0,.06,0,.1,0,.1h.12a5.08,5.08,0,0,0,.93-.1,5.06,5.06,0,0,1,.91-.1.35.35,0,0,1,.35.17.56.56,0,0,1,0,.39.67.67,0,0,1-.28.28,4.68,4.68,0,0,1-.5.28l-.49.24q-.22.1-.24.18s0,.06.15.08a2.67,2.67,0,0,1,.34.11,1.33,1.33,0,0,1,.31.18c.09.07.1.18,0,.33a1.1,1.1,0,0,1-.46.56,2.2,2.2,0,0,1-.64.22l-.69.09a1.7,1.7,0,0,0-.66.21,1.06,1.06,0,0,0-.17.3,4.49,4.49,0,0,0-.23.57c-.07.22-.14.42-.2.6a3.64,3.64,0,0,0-.12.35v0a2.75,2.75,0,0,0-.05.34l-.06.38a4.35,4.35,0,0,0-.06.46h1.78a.22.22,0,0,1,.18.06.22.22,0,0,1,0,.14,1.16,1.16,0,0,1,0,.18.48.48,0,0,0,0,.17s0,.09.1.13l.19.14a.41.41,0,0,1,.16.2.53.53,0,0,1,0,.35.48.48,0,0,1-.29.3A5.19,5.19,0,0,1,93,57l-.52.18a.41.41,0,0,0-.28.26,1.52,1.52,0,0,1,.17.27l0,.07a.38.38,0,0,1-.28.31,3,3,0,0,1-.54.07,11.72,11.72,0,0,0-1.24.15,2.44,2.44,0,0,1-1,0l-.72-.19-.34.19a.46.46,0,0,1-.34,0,2.28,2.28,0,0,0-.4,0h-.26a1.17,1.17,0,0,1-.57-.94A3.59,3.59,0,0,1,86.84,56.17Z" style="fill:#423c25"/><path d="M94.18,57.42v-.05s.08-.09.2-.11l.34-.07.47-.09s0-.06,0-.15L95,56.68c0-.08-.12-.2-.22-.34l1.46,0s0-.1-.12-.14a1,1,0,0,0-.28-.1L95.31,56c-.14,0-.27-.1-.38-.31a.26.26,0,0,0,.08-.16,1.84,1.84,0,0,1,.09-.25.76.76,0,0,1,.13-.23.26.26,0,0,1,.2-.11,1.11,1.11,0,0,1,.59.21,1.51,1.51,0,0,0,.78.2,1.32,1.32,0,0,0,.62-.15,2,2,0,0,0,.51-.39,2.59,2.59,0,0,0,.37-.5,2.43,2.43,0,0,0,.23-.54.29.29,0,0,1,.22-.17c.11,0,.15-.09.14-.17a1.18,1.18,0,0,1-.16-.18l-.28-.33c-.11-.12-.2-.24-.28-.34a.51.51,0,0,1-.12-.2,1.22,1.22,0,0,0-.09-.32c0-.16-.11-.33-.16-.52s-.12-.37-.17-.53a1.44,1.44,0,0,1-.09-.29c-.12-.3-.23-.56-.32-.76a2.78,2.78,0,0,1-.19-.6,1.91,1.91,0,0,1,0-.68,5.87,5.87,0,0,1,.24-1,8,8,0,0,1,.8-1.92,4.71,4.71,0,0,1,1.25-1.41,5.27,5.27,0,0,1,1.81-.88,9.13,9.13,0,0,1,2.47-.3h.08s0,0-.08.1l-.21.22-.22.23c-.06.07-.09.1-.07.1l.18-.07.36-.15.37-.14a.63.63,0,0,1,.22-.07,1.16,1.16,0,0,1,.4.06c.12,0,.15.14.1.32a.34.34,0,0,1-.14.2.8.8,0,0,1-.23.1l-.25.07a.38.38,0,0,0-.19.13s0,.07-.15.16l-.31.28-.41.36,1.61-.65s0,.06,0,.18a3.77,3.77,0,0,1,0,.41c0,.15,0,.3-.07.44a1.53,1.53,0,0,1-.06.29.7.7,0,0,1-.41.42,4.55,4.55,0,0,1-.67.25l-.3.07-.42.11-.41.11-.28.07c-.21.11-.32.23-.34.36a.72.72,0,0,0,0,.37c0,.17,0,.34.08.52s.07.35.1.51a2.78,2.78,0,0,1,.05.35l-.49.67.3-.09a.59.59,0,0,1,.19-.05c.17,0,.31.14.43.41s.14.46.25.8.2.72.28,1.12.13.79.17,1.16a2.75,2.75,0,0,1,0,.93l0,0a5.4,5.4,0,0,0-.69,1.07,4.32,4.32,0,0,1-.71,1l-.27.32-.42.48c-.15.17-.29.32-.44.47a3.86,3.86,0,0,1-.33.31,2,2,0,0,1-.79.36,10,10,0,0,1-1.19.23l-1.24.12-.91,0a2.18,2.18,0,0,1-.5-.07,4.44,4.44,0,0,1-.62-.19,2,2,0,0,1-.5-.28A.33.33,0,0,1,94.18,57.42Z" style="fill:#423c25"/></g></g></svg>