<svg xmlns="http://www.w3.org/2000/svg" width="125" height="80" viewBox="0 0 125 80"><g id="a3199939-5890-419b-93de-dc37cf87cadb" data-name="icon VA vecto"><g id="b8065f51-3a27-4979-a68f-96c887568416" data-name="vierge - copie 3"><rect x="-0.27" y="0.18" width="125" height="80" style="fill:#fff"/><path d="M128.7,18.8l-7.4-.37a.08.08,0,0,1-.08-.06,0,0,0,0,1,0-.05l1.3-4.15,0,0h0Z" style="fill:#423c25"/><path d="M124.06,2.29l-2.92,5.55a.23.23,0,0,1-.2.11.23.23,0,0,1-.15,0l-3.17-2.6a.11.11,0,0,1,0-.15.1.1,0,0,1,0,0Z" style="fill:#423c25"/><path d="M122.57,14.16h0v0a2.72,2.72,0,0,0,1.51-1l10.71,7.68-13.4-.64a2.75,2.75,0,0,0-.2-1.76l0,0a.08.08,0,0,0,.08.06l7.4.37Z" style="fill:#fff"/><path d="M117.64,5.11a.1.1,0,0,0,0,0l-.1,0a2.6,2.6,0,0,0-.14-1.81l12-6.22L122.59,8.71a2.84,2.84,0,0,0-1.65-.64V8a.23.23,0,0,0,.2-.11l2.92-5.55Z" style="fill:#fff"/><path d="M116.49,22.49a.09.09,0,0,1,.06.11l-.23,7.55-4-6.33a.17.17,0,0,1,0-.15.19.19,0,0,1,.12-.11l4-1.08A.14.14,0,0,1,116.49,22.49Z" style="fill:#423c25"/><path d="M113.42,12.12a2.32,2.32,0,1,1-3.27.29A2.31,2.31,0,0,1,113.42,12.12Z" style="fill:#fff"/><path d="M112.31,23.82l4,6.33.23-7.55a.09.09,0,0,0-.06-.11l.05-.07a2.75,2.75,0,0,0,1.33.51V36.64l-7.2-11.32a2.64,2.64,0,0,0,1.46-1.54.69.69,0,0,0,0-.13l.13,0A.17.17,0,0,0,112.31,23.82Z" style="fill:#fff"/><path d="M111.39,3.12a.12.12,0,0,1,0,.14.15.15,0,0,1-.11.12l-3.74,1.17a.17.17,0,0,1-.2-.08.22.22,0,0,1,0-.08l.73-7.26Z" style="fill:#423c25"/><path d="M111.39,3.12l-3.32-6-.73,7.26a.22.22,0,0,0,0,.08l-.09.1a2.78,2.78,0,0,0-1.77-.73l.94-13.49L113,2.05a2.63,2.63,0,0,0-1.47,1.27l-.11-.06A.12.12,0,0,0,111.39,3.12Z" style="fill:#fff"/><path d="M106.26,21.5a.09.09,0,0,1,0,.11l0,0L99.3,25.51l3.64-6.12a.17.17,0,0,1,.14-.08.11.11,0,0,1,.08,0Z" style="fill:#423c25"/><path d="M106.17,22.08a2.63,2.63,0,0,0,.35,1.88L94.43,30.07l6.91-11.49a2.77,2.77,0,0,0,1.74.65v.08a.17.17,0,0,0-.14.08L99.3,25.51l6.94-3.87,0,0,.07,0A1.51,1.51,0,0,0,106.17,22.08Z" style="fill:#fff"/><path d="M103,9.07c1,.77,2.54.39,3.45-.21.1-.07,2-1.34,1.49-3.12a2.47,2.47,0,0,0-.67-1.17l.09-.1a.17.17,0,0,0,.2.08l3.74-1.17a.15.15,0,0,0,.11-.12l.11.06a1.08,1.08,0,0,0-.08.19c-.41,1.28.75,2.6,1.76,3.15.12.06,2.11,1.09,3.46-.16a2.93,2.93,0,0,0,.84-1.37l.1,0a.11.11,0,0,0,0,.15l3.17,2.6a.23.23,0,0,0,.15,0v.12a2,2,0,0,0-.4,0c-1.31.3-1.86,2-1.81,3.13,0,.13.14,2.37,1.9,2.89a3.58,3.58,0,0,0,1.92,0v0l0,0-1.3,4.15a0,0,0,0,0,0,.05l0,0a1.66,1.66,0,0,0-.22-.32c-.87-1-2.6-.75-3.61-.17-.11.06-2,1.21-1.69,3a2.32,2.32,0,0,0,.89,1.49l-.05.07a.14.14,0,0,0-.09,0l-4,1.08a.19.19,0,0,0-.12.11l-.13,0c.23-1.26-1-2.45-2-2.91-.12-.06-2.17-1-3.44.35a2.19,2.19,0,0,0-.4.55l-.07,0a.09.09,0,0,0,0-.11l-3.1-2.16a.11.11,0,0,0-.08,0v-.08l.3,0c1.31-.29,1.88-1.94,1.85-3.1,0-.13-.09-2.38-1.85-2.92a2.86,2.86,0,0,0-1.56,0l0-.08a.19.19,0,0,0,.1-.1L103,9.34a.16.16,0,0,0-.09-.18Zm10.73,6.31a2.32,2.32,0,1,0-3.28.3A2.31,2.31,0,0,0,113.72,15.38Z" style="fill:#423c25"/><path d="M101.67,13l-6.5-4,7.7.15h.06a.16.16,0,0,1,.09.18L101.89,13a.19.19,0,0,1-.1.1A.14.14,0,0,1,101.67,13Z" style="fill:#423c25"/><path d="M102.82,8.92l.17.15-.06.09h-.06L95.17,9l6.5,4a.14.14,0,0,0,.12,0l0,.08a2.57,2.57,0,0,0-1.49,1L88.86,7.1l13.41-.23A2.58,2.58,0,0,0,102.82,8.92Z" style="fill:#fff"/><path d="M120.94,8.07a2.84,2.84,0,0,1,1.65.64L129.31-2.9l-12,6.22a2.6,2.6,0,0,1,.14,1.81,2.93,2.93,0,0,1-.84,1.37c-1.35,1.25-3.34.22-3.46.16-1-.55-2.17-1.87-1.76-3.15a1.08,1.08,0,0,1,.08-.19A2.63,2.63,0,0,1,113,2.05l-6.55-11.7-.94,13.49a2.78,2.78,0,0,1,1.77.73,2.47,2.47,0,0,1,.67,1.17c.47,1.78-1.39,3-1.49,3.12-.91.6-2.49,1-3.45.21l-.17-.15a2.58,2.58,0,0,1-.55-2L88.86,7.1l11.47,7.06a2.57,2.57,0,0,1,1.49-1,2.86,2.86,0,0,1,1.56,0c1.76.54,1.85,2.79,1.85,2.92,0,1.16-.54,2.81-1.85,3.1l-.3,0a2.77,2.77,0,0,1-1.74-.65L94.43,30.07,106.52,24a2.63,2.63,0,0,1-.35-1.88,1.51,1.51,0,0,1,.18-.44,2.19,2.19,0,0,1,.4-.55c1.27-1.33,3.32-.41,3.44-.35,1,.46,2.19,1.65,2,2.91a.69.69,0,0,1,0,.13,2.64,2.64,0,0,1-1.46,1.54l7.2,11.32V22.93a2.75,2.75,0,0,1-1.33-.51,2.32,2.32,0,0,1-.89-1.49c-.35-1.81,1.58-3,1.69-3,1-.58,2.74-.86,3.61.17a1.66,1.66,0,0,1,.22.32,2.75,2.75,0,0,1,.2,1.76l13.4.64-10.71-7.68a2.72,2.72,0,0,1-1.51,1,3.58,3.58,0,0,1-1.92,0c-1.76-.52-1.89-2.76-1.9-2.89,0-1.16.5-2.83,1.81-3.13A2,2,0,0,1,120.94,8.07Z" style="fill:none;stroke:#423c25;stroke-miterlimit:10;stroke-width:0.60077714920044px"/><path d="M106.28,21.61l0,0L99.3,25.51l3.64-6.12a.17.17,0,0,1,.14-.08.11.11,0,0,1,.08,0l3.1,2.16A.09.09,0,0,1,106.28,21.61Z" style="fill:none;stroke:#423c25;stroke-miterlimit:10;stroke-width:0.60077714920044px"/><path d="M112.28,23.67a.17.17,0,0,0,0,.15l4,6.33.23-7.55a.09.09,0,0,0-.06-.11.14.14,0,0,0-.09,0l-4,1.08A.19.19,0,0,0,112.28,23.67Z" style="fill:none;stroke:#423c25;stroke-miterlimit:10;stroke-width:0.60077714920044px"/><path d="M122.55,14.15h0l6.13,4.64-7.4-.37a.08.08,0,0,1-.08-.06,0,0,0,0,1,0-.05l1.3-4.15Z" style="fill:none;stroke:#423c25;stroke-miterlimit:10;stroke-width:0.60077714920044px"/><path d="M117.59,5.15a.1.1,0,0,1,0,0l6.42-2.82-2.92,5.55a.23.23,0,0,1-.2.11.23.23,0,0,1-.15,0l-3.17-2.6A.11.11,0,0,1,117.59,5.15Z" style="fill:none;stroke:#423c25;stroke-miterlimit:10;stroke-width:0.60077714920044px"/><path d="M111.4,3.26a.12.12,0,0,0,0-.14l-3.32-6-.73,7.26a.22.22,0,0,0,0,.08.17.17,0,0,0,.2.08l3.74-1.17A.15.15,0,0,0,111.4,3.26Z" style="fill:none;stroke:#423c25;stroke-miterlimit:10;stroke-width:0.60077714920044px"/><path d="M101.79,13.05a.14.14,0,0,1-.12,0l-6.5-4,7.7.15h.06a.16.16,0,0,1,.09.18L101.89,13A.19.19,0,0,1,101.79,13.05Z" style="fill:none;stroke:#423c25;stroke-miterlimit:10;stroke-width:0.60077714920044px"/><path d="M113.42,12.12a2.32,2.32,0,1,1-3.27.29A2.31,2.31,0,0,1,113.42,12.12Z" style="fill:none;stroke:#423c25;stroke-miterlimit:10;stroke-width:0.60077714920044px"/><rect x="-0.27" y="0.18" width="125" height="80" style="fill:none;stroke:#423c25;stroke-miterlimit:10;stroke-width:2px"/><path d="M20.2,32.5a.23.23,0,0,1-.21,0,4.17,4.17,0,0,0-.71.06c-.23,0-.36,0-.37-.18l-.69-.12-.61-.15q-.2,0-.21,0a.16.16,0,0,1,0-.09c-.14-.05-.19-.08-.13-.1s.06-.06,0-.14,0-.24.29-.51a2.53,2.53,0,0,1-.08-.59,1.28,1.28,0,0,1,0-.42l.22-.69.26-.46c0-.05,0-.07.12-.07a7.54,7.54,0,0,1,.79.07.55.55,0,0,0-.12-.15l-.27-.28-.27-.25c-.07-.07-.09-.11-.06-.11l1.37-5.14s0-.05.12-.12l.27-.21.26-.23a.48.48,0,0,0,.12-.13.58.58,0,0,0,0-.22c0-.13,0-.26,0-.41V21.2a2.06,2.06,0,0,1,.12-.32q.09-.24.21-.51a5,5,0,0,1,.26-.52.9.9,0,0,1,.2-.29l.17-.2a2.06,2.06,0,0,1,.19-.2l.07-.24H21c-.29,0-.41-.07-.36-.22l.08-.25c.06-.15.09-.25.11-.3L22,18.1s-.06-.05-.17-.1l-.36-.15-.36-.17c-.11-.06-.17-.09-.17-.11l.14-.38.05-.15a3.21,3.21,0,0,0,.08-.36,1.12,1.12,0,0,0,0-.24,3,3,0,0,0,.18-.6.77.77,0,0,1,.3-.48,2.72,2.72,0,0,1,1.17-.52,13.66,13.66,0,0,1,1.62-.3,15.39,15.39,0,0,1,1.58-.14l1,0,.84.07h.91a5.67,5.67,0,0,1,1.06.43,5.25,5.25,0,0,1,.89.65,2.34,2.34,0,0,1,.66.59,1.22,1.22,0,0,1,.06.8c0,.46,0,.87-.05,1.22s-.07.67-.11.94-.08.52-.13.74-.1.44-.14.65a1.79,1.79,0,0,1-.47.85,5.22,5.22,0,0,1-.7.54c-.25.16-.49.33-.73.51a1.83,1.83,0,0,0-.58.72,2.93,2.93,0,0,1,.45.6,4.36,4.36,0,0,1,.33.79,3.14,3.14,0,0,1,.13.94,4,4,0,0,1-.14,1.05l-.24.67c-.08.23-.18.48-.3.76s-.27.59-.44.94-.39.73-.65,1.16a3.56,3.56,0,0,1-.24.48,1.93,1.93,0,0,1-.29.35,2.47,2.47,0,0,1-.39.29l-.59.3A12.5,12.5,0,0,1,25,32a8.94,8.94,0,0,1-1.3.44h-.14l-.42,0h-.35l-.89.07a2.22,2.22,0,0,0-.37.09,1.66,1.66,0,0,1-.59,0l0-.24c.05-.19.05-.29,0-.31Zm2-3.91c.08,0,.23.08.46.14a5.67,5.67,0,0,0,.69.15.43.43,0,0,0,.31-.2c.17-.32.38-.66.6-1a6.39,6.39,0,0,0,.53-1l0-.24-.33-.84a.68.68,0,0,0-.11-.34,1.54,1.54,0,0,0-.27-.31,3.79,3.79,0,0,0-.35-.25.87.87,0,0,0-.33-.13l-.21.81c-.05.16-.14.48-.28.94s-.31,1-.51,1.56a.4.4,0,0,1,0,.23.73.73,0,0,1-.09.13Zm2.31-6.78a.31.31,0,0,0,.25.2,1.22,1.22,0,0,0,.54-.18,1.29,1.29,0,0,0,.4-.47l.81-.84.08-.24q.12-.5.21-1a5.81,5.81,0,0,0,.12-1s-.07-.05-.2-.11l-.28-.11-.42.07-.43.1-.35.08-.16,0a.68.68,0,0,0-.21.05.36.36,0,0,0-.08.17l0,.09c.32,0,.48.14.47.31a4.2,4.2,0,0,1-.13.75,3.58,3.58,0,0,1-.17.61l-.14.31-.16.31a3.63,3.63,0,0,0-.18.64S24.46,21.69,24.51,21.81Z" style="fill:#423c25"/><path d="M33.21,17.94a3.23,3.23,0,0,1,.7-.58,2.9,2.9,0,0,1,.88-.36A5.32,5.32,0,0,1,36,16.88h.14s.07,0,.06.14a1.5,1.5,0,0,1-.06.29l0,.14.55-.36-.29,3a.28.28,0,0,0-.14.09l0,.12-.12.36c-.15.48-.27.92-.36,1.31s-.22.84-.35,1.36l-.51,1.87c-.2.73-.46,1.69-.8,2.88a7,7,0,0,0-.18.8.39.39,0,0,0,.18.41,1.75,1.75,0,0,0,.74.18l1.52.12a.48.48,0,0,1,.11.28,2,2,0,0,1-.07.3.44.44,0,0,1-.09.16l-.16.21-.14.19a.2.2,0,0,0,0,.16.43.43,0,0,0,0,.1.64.64,0,0,0,.06.18,1.22,1.22,0,0,0,.11.24l0,.1a.57.57,0,0,1-.21.2l-.44.28c-.16.1-.31.18-.45.25a1.27,1.27,0,0,1-.27.11l-.31-.12s-.09,0-.12.05a.18.18,0,0,1-.17.09H34a17.82,17.82,0,0,1-2.43-.16,11,11,0,0,0-2.44-.08.76.76,0,0,1-.24-.27.65.65,0,0,1,0-.4,1,1,0,0,1,.11-.15A.42.42,0,0,0,29,31.2l0-.07-.1-.36,0-.05,1.36.08-1.19-.39,0-.07a1,1,0,0,0,0-.34,1.42,1.42,0,0,1,.06-.38l0-.07a.39.39,0,0,1,0-.13.73.73,0,0,0,.06-.14l0-.09a1.28,1.28,0,0,1,.42-.17,2.74,2.74,0,0,0,.39-.1v0l0-.07s0-.16,0-.33,0-.34,0-.54v-.88c.05-.16.14-.45.28-.87L31,24.88l.42-1.33c.13-.42.21-.7.26-.84A9.68,9.68,0,0,0,32,21a7.5,7.5,0,0,1,.33-1.7l0-.12a3.21,3.21,0,0,0,.12-.31l.05-.12C32.79,18.44,33,18.18,33.21,17.94Z" style="fill:#423c25"/><path d="M37.63,31.23h-.1l-.12.09-.26.94s0,0,0,0a.14.14,0,0,0-.1.06h-.07c-.1,0-.16-.08-.19-.24a.54.54,0,0,1,0-.32q0-.09.06-.27a2.73,2.73,0,0,1,.11-.4c0-.13.06-.25.1-.37l.09-.25a.21.21,0,0,1-.07-.15l0-.16,0-.15.24-.74c.11-.34.25-.71.4-1.13l.48-1.32.48-1.32.41-1.13c.12-.33.2-.58.25-.74.21-.37.43-.74.67-1.11a8.08,8.08,0,0,0,.62-1.1c.4-.82.79-1.59,1.14-2.33a15.4,15.4,0,0,1,1.41-2.28c.05-.05.11,0,.19.07s.16.22.25.35.17.27.26.39.13.18.16.18.1-.06.16-.18a3.53,3.53,0,0,0,.15-.39c0-.13.1-.26.15-.37s.09-.16.12-.14h2.21l.48-.17s.08,0,.09.06a.9.9,0,0,1,0,.19c0,.07,0,.14,0,.2s0,.1.06.1a.67.67,0,0,0,.25,0,1.36,1.36,0,0,1,.29,0,.5.5,0,0,1,.22.1q.09.07,0,.24l-.67,2.3a1.75,1.75,0,0,0,0,.54,5.16,5.16,0,0,0,.09.52c0,.18.07.35.11.52a1.9,1.9,0,0,1,0,.54c-.05.19-.12.52-.23,1s-.21,1-.32,1.5-.22,1-.33,1.5-.18.81-.22,1l0,.09a17.85,17.85,0,0,1-.29,2.3,22.68,22.68,0,0,1-.55,2.31,2.18,2.18,0,0,1-.63-.09,2,2,0,0,0-.64-.1.24.24,0,0,0-.18.1c-.06.06-.11.13-.17.2a1.12,1.12,0,0,1-.18.2.26.26,0,0,1-.21.1c-.08,0-.12-.06-.1-.17s0-.23.06-.37.05-.26.06-.37,0-.17-.07-.17,0,0-.11.11-.11.15-.17.23-.14.19-.25.33-.07.13-.17.28a.65.65,0,0,1-.24.27s0,.07-.12.1v0h0c-.24,0-.36-.15-.37-.46a4.88,4.88,0,0,1,.09-1c.06-.37.12-.72.16-1s0-.47-.12-.47H41.8a.63.63,0,0,0-.55.22l-.33,1.15L40.6,31.8a2.87,2.87,0,0,1-.18.42l-.15.3-.15.1H38.37l-.43-.46-.22-.09a.28.28,0,0,1,0-.21,1.54,1.54,0,0,1,.07-.27.85.85,0,0,0,0-.25C37.8,31.26,37.74,31.23,37.63,31.23ZM42.35,26s0,.09-.07.19a.12.12,0,0,0,.1.17,5.68,5.68,0,0,0,.67-.12.6.6,0,0,0,.48-.41.35.35,0,0,1,.08-.1l.09-.09a2.07,2.07,0,0,1,0-.41c0-.19.06-.4.09-.61s.07-.42.11-.62a2.83,2.83,0,0,1,.11-.4s0-.1,0-.2,0-.19.05-.28a.83.83,0,0,0,0-.27q0-.12-.06-.12c-.14,0-.31.16-.49.48s-.37.68-.55,1.07-.34.76-.47,1.1S42.37,25.93,42.35,26Z" style="fill:#423c25"/><path d="M49.36,31.18l-.72.6a.6.6,0,0,0-.43.2.57.57,0,0,1-.43.21c-.13,0-.2-.08-.22-.23a.73.73,0,0,1,0-.35l0-.09L48,30.6l0-.09,0-.1.31-1.85,2.23-7.24A5.44,5.44,0,0,1,50.17,20a3,3,0,0,1,.08-1.43s.07-.08.21-.2a4.43,4.43,0,0,1,.45-.36l.46-.32c.13-.08.22-.11.25-.08l.65.79a.25.25,0,0,0,.24-.19l.14-.43a1.44,1.44,0,0,1,.21-.43.37.37,0,0,1,.32-.2h.14l.31,0,.32,0a23.31,23.31,0,0,1,1.72,4l-.16.46.38-.46A1,1,0,0,1,56,21l.21-.49.24-.55a3.1,3.1,0,0,0,.17-.47,1.17,1.17,0,0,0,.1-.27.5.5,0,0,1,.24-.31l.67-.31-.41-.31c-.08,0-.12-.13-.11-.3a2.73,2.73,0,0,1,.06-.45l.08-.19a.93.93,0,0,1,.39-.24q.3-.12.33,0l0,.1c0,.13,0,.21,0,.25l.13.11a3.42,3.42,0,0,0,.65.06l1,.06a4.86,4.86,0,0,1,.88.15c.25.08.35.18.3.33a1.17,1.17,0,0,0,0,.11l0,.1c-.06.15-.17.4-.31.77s-.3.76-.46,1.17-.31.79-.45,1.16l-.31.77-.39,2.11-2.18,7.58a.94.94,0,0,1-.27.17l-.33.12a1.1,1.1,0,0,1-.29.07.34.34,0,0,1-.27-.15,3.13,3.13,0,0,1-.22-.36c-.08-.14-.14-.27-.2-.39a.56.56,0,0,0-.13-.22l-.52.38-.15.46s-.06.06-.14.08l-.19,0a.83.83,0,0,1-.71-.35,1,1,0,0,1-.21-.71l.29-3.38-.17-1.59h-.09c-.18.63-.37,1.26-.57,1.9s-.38,1.27-.56,1.89l-.12.41c-.07.19-.13.38-.19.55s-.16.4-.29.68l-.07.06-.07,0h-.12a.54.54,0,0,1-.17-.09.23.23,0,0,0-.22.13,2.09,2.09,0,0,0-.14.3,2.14,2.14,0,0,1-.17.3.27.27,0,0,1-.24.13l0,0A1.24,1.24,0,0,0,50,32a.57.57,0,0,0-.2-.23.39.39,0,0,0-.26.2,1.43,1.43,0,0,0-.12.31,1.34,1.34,0,0,1-.12.3c-.05.09-.15.13-.31.13s-.18-.07-.16-.22A3.48,3.48,0,0,1,49,32l.24-.53C49.34,31.34,49.38,31.23,49.36,31.18Z" style="fill:#423c25"/><path d="M63.38,26.67a23.29,23.29,0,0,0-.94,2.4c-.25.78-.48,1.58-.67,2.4l-.22.26c0,.05,0,.06,0,0l-.2-.16a2,2,0,0,1-.19-.22q-.09-.11-.06-.15l-.14.69c0,.12,0,.16-.11.15a.93.93,0,0,1-.25-.12l-.33-.21a.66.66,0,0,0-.34-.1.71.71,0,0,0-.38.07,1.06,1.06,0,0,0-.2.17,1.12,1.12,0,0,1-.22.16.72.72,0,0,1-.38.08.45.45,0,0,1-.37-.15.58.58,0,0,1-.16-.31,3.31,3.31,0,0,1,0-.41c0-.19.06-.39.09-.61s.07-.42.11-.61a3.07,3.07,0,0,1,.11-.41c0-.16.13-.46.24-.89s.23-.89.35-1.37.23-.93.35-1.35.19-.73.24-.9l.17-1.3v-.38l1.46-5.14.33-.74c0-.1.08-.15.15-.17a.62.62,0,0,1,.19,0,.42.42,0,0,1,.29.07.54.54,0,0,1,.11.18c0,.07.05.14.07.21a.27.27,0,0,0,.15.18l.27-.09a.83.83,0,0,1,.26-.07h.1a.42.42,0,0,1,.14,0l.17.05a.57.57,0,0,0,.07-.19l0-.1s.09-.05.29-.05v.29a4.87,4.87,0,0,0,0,.54,3.2,3.2,0,0,0,.05.43c0,.11,0,.07.09-.11l.41-1.17a.79.79,0,0,0,.14-.11.34.34,0,0,1,.12-.08h.13c.15,0,.24.06.26.19s-.07.32-.1.49-.07.34-.12.52c-.14.51-.28,1-.41,1.59a7.26,7.26,0,0,0-.19,1.53s0,.05,0,.15a2.06,2.06,0,0,0,.07.29,1.16,1.16,0,0,1,0,.16,1,1,0,0,1,0-.3.88.88,0,0,1,.4-.54L67,17.74a1.5,1.5,0,0,1,.27-.29.57.57,0,0,1,.35-.12h0a.73.73,0,0,1,.32.06.93.93,0,0,1,.28.42,1.05,1.05,0,0,1,.15-.24,2,2,0,0,1,.13-.39.29.29,0,0,1,.28-.21.47.47,0,0,1,.37.15,1.21,1.21,0,0,1,.22.32l.15.37a.55.55,0,0,0,.22.29l.26-.41a.55.55,0,0,0,.4-.23,1,1,0,0,1,.39-.3.4.4,0,0,1,0,.34l-.06.07a.27.27,0,0,0,0,.07,1,1,0,0,1-.09.22l-.15.29a2.15,2.15,0,0,1-.14.26l-.1.15c-.54.81-1,1.53-1.52,2.16l-1.52,2v0a.61.61,0,0,0,0,.33c0,.12.06.24.1.36a3.42,3.42,0,0,0,.13.34.81.81,0,0,1,.07.32,4,4,0,0,0,0,.74c0,.35,0,.72,0,1.12s0,.76,0,1.11v.72c0,.07,0,.17-.07.31s-.07.3-.1.47-.06.33-.1.48,0,.26-.07.33a2.69,2.69,0,0,0-.09.88,3,3,0,0,1-.12.92l-.09.18c0,.07-.07.08-.11,0a1.16,1.16,0,0,0-.2-.29c-.1-.11-.16-.16-.18-.16s-.06.06,0,.19a.7.7,0,0,1,0,.33.15.15,0,0,1-.12.12h0c-.09,0-.15,0-.16-.07a.44.44,0,0,1,0-.17.43.43,0,0,0,0-.16c0-.05-.05-.08-.15-.08a.69.69,0,0,0-.55.21,3.23,3.23,0,0,0-.36.45,2.88,2.88,0,0,1-.39.46.76.76,0,0,1-.57.2.3.3,0,0,1-.27-.14,1.13,1.13,0,0,1-.13-.32,2.33,2.33,0,0,1,0-.38v-.28q0-.3,0-.78c0-.33,0-.66-.06-1s0-.6,0-.85a2.33,2.33,0,0,1,0-.44.6.6,0,0,1,0-.23c0-.14,0-.28,0-.44s0-.31,0-.45,0-.22,0-.25a1.17,1.17,0,0,1-.05-.11Z" style="fill:#423c25"/><path d="M23.13,54.13a1,1,0,0,1-.2.24q-.11.1-.09.12a.67.67,0,0,0,.47.24.91.91,0,0,0,.42,0,2,2,0,0,0,.56-.35c.09-.08.14-.15.14-.2a.28.28,0,0,0,0-.13s0-.09.08-.13l.84-1.11a1.11,1.11,0,0,0,.51-.38,1.82,1.82,0,0,0,.16-.36.62.62,0,0,1,.21-.31,1.83,1.83,0,0,1,.7-.29l2.23.05c.16,0,.25.06.25.19a3.39,3.39,0,0,0,.06.41c0,.06,0,.21-.07.45a3.53,3.53,0,0,1-.09.51,2.88,2.88,0,0,1-.69,1.08q-.57.62-1.26,1.26c-.46.42-.93.82-1.39,1.18s-.82.65-1.08.84l-.05.08a3.43,3.43,0,0,0-1.39-.46c-.21,0-.33,0-.36.13a.53.53,0,0,0,0,.28,2.64,2.64,0,0,1,0,.29c0,.08-.07.12-.22.12h-1.1l-.72,0a2.13,2.13,0,0,1-.67-.15,2.56,2.56,0,0,1-1-.68A1.94,1.94,0,0,1,19,56.2a2.86,2.86,0,0,1-.06-.92c0-.3.06-.59.1-.86l-.12-.22a1.32,1.32,0,0,1-.12-.26c-.05-.13-.1-.26-.15-.41s-.11-.27-.15-.39a1.07,1.07,0,0,1-.06-.23,5.35,5.35,0,0,1,.09-1.12,10.56,10.56,0,0,1,.27-1.11c.12-.39.24-.77.37-1.14a5.27,5.27,0,0,0,.28-1.14s0-.06.12-.11l.24-.17.36-.25a.65.65,0,0,0-.2-.1l-.39-.18c-.13-.07-.2-.11-.2-.13A1.37,1.37,0,0,1,19.6,47l.4-.47.36-.47a.77.77,0,0,0,.15-.42c0-.06.13-.18.24-.34s.24-.32.38-.49l.38-.48.25-.3a5.31,5.31,0,0,1,.37-.53,3.68,3.68,0,0,1,.39-.4c.14-.13.28-.26.43-.38s.33-.25.54-.39a1.09,1.09,0,0,0,.28-.29,2,2,0,0,1,.27-.31,6.85,6.85,0,0,1,.75-.35,3.44,3.44,0,0,1,.65-.2,4.28,4.28,0,0,1,.64-.1c.23,0,.48,0,.77,0a1.92,1.92,0,0,0,.47-.08,2.25,2.25,0,0,1,.42-.07c.08,0,.11,0,.09.07s0,.16.17.23a3.71,3.71,0,0,0,.46.19l.4.16c.1.05.1.09,0,.12a.63.63,0,0,0-.41.36l-.19.36c0,.06,0,.07.14,0l.42-.14a1.64,1.64,0,0,1,.55,0,.81.81,0,0,1,.54.29l.29.36a1.36,1.36,0,0,1,.15.3c0,.07,0,.14,0,.2l.06.22a1.57,1.57,0,0,0,.18.31,4.1,4.1,0,0,1,.42.79.52.52,0,0,1-.08.58,2.62,2.62,0,0,0-.39.56,1.58,1.58,0,0,0-.11.41,2.17,2.17,0,0,0,0,.36,1,1,0,0,1-.06.4v0s-.15.14-.42.27a3,3,0,0,1-1,.3,3.36,3.36,0,0,1-1.22,0,2.23,2.23,0,0,1-1.18-.71l0-1,0-.05,0-.11,0-.08,0-.07q.16-.6.21-.87c0-.17.07-.33.1-.45s0,0,0,0l-.39.23-2,.84-.84,1.32a.53.53,0,0,1-.12.15.66.66,0,0,0-.12.16.28.28,0,0,0,0,.2,1.13,1.13,0,0,0,.1.13.26.26,0,0,1,.08.13.4.4,0,0,1,0,.22l-.27.85c-.11.31-.21.63-.33.95l-.32.93c-.1.31-.21.59-.3.84a2.62,2.62,0,0,0,.17.27c0,.06.09,0,.14-.08l-.14,1.37Z" style="fill:#423c25"/><path d="M29.66,57.23h-.1a.56.56,0,0,1-.12.09l-.26.94s0,0-.05,0a.12.12,0,0,0-.09.06H29c-.09,0-.16-.08-.19-.24a.54.54,0,0,1,0-.32,1.91,1.91,0,0,0,.06-.27,2.73,2.73,0,0,1,.11-.4c0-.13.07-.25.11-.37s.07-.2.08-.25a.21.21,0,0,1-.07-.15l.05-.16.05-.15c0-.16.12-.41.23-.74l.4-1.13.48-1.32.48-1.32.41-1.13c.12-.33.2-.58.25-.74.21-.37.43-.74.67-1.11a9.4,9.4,0,0,0,.63-1.1l1.14-2.33a15.28,15.28,0,0,1,1.4-2.28c0-.05.11,0,.19.07l.26.35c.08.14.17.27.25.39s.13.18.17.18.09-.06.15-.18a3.52,3.52,0,0,0,.16-.39,3.18,3.18,0,0,1,.14-.37c0-.11.09-.16.12-.14H38.9l.48-.17s.08,0,.09.06a.9.9,0,0,1,0,.19l0,.2c0,.07,0,.1.05.1a.71.71,0,0,0,.26,0,1.26,1.26,0,0,1,.28,0,.5.5,0,0,1,.22.1c.06.05.07.13,0,.24l-.68,2.3a1.72,1.72,0,0,0,0,.54,3.28,3.28,0,0,0,.08.52c0,.18.08.35.11.52a1.9,1.9,0,0,1,0,.54c-.05.19-.12.52-.22,1s-.22,1-.33,1.5-.22,1-.32,1.5-.18.81-.23,1l0,.09a17.83,17.83,0,0,1-.28,2.3c-.15.76-.33,1.53-.55,2.31a2.2,2.2,0,0,1-.64-.09,1.91,1.91,0,0,0-.64-.1.24.24,0,0,0-.18.1l-.17.2a1.63,1.63,0,0,1-.17.2.3.3,0,0,1-.22.1c-.08,0-.11-.06-.1-.17s0-.23.06-.37a3.12,3.12,0,0,0,.06-.37c0-.11,0-.17-.07-.17s-.05,0-.11.11l-.16.23-.26.33a3.1,3.1,0,0,1-.16.28.83.83,0,0,1-.24.27s0,.07-.13.1v0h0c-.24,0-.37-.15-.37-.46a4.83,4.83,0,0,1,.08-1l.17-1c0-.31,0-.47-.12-.47h-.68a.63.63,0,0,0-.55.22L33,56.65l-.32,1.15a4.09,4.09,0,0,1-.17.42,2.22,2.22,0,0,1-.16.3l-.14.1H30.4L30,58.16l-.22-.09a.28.28,0,0,1,0-.21c0-.08,0-.18.07-.27a.61.61,0,0,0,0-.25C29.83,57.26,29.77,57.23,29.66,57.23ZM34.39,52a1.51,1.51,0,0,0-.08.19.12.12,0,0,0,.1.17,5.34,5.34,0,0,0,.67-.12.6.6,0,0,0,.48-.41.41.41,0,0,1,.09-.1.32.32,0,0,0,.08-.09,3.31,3.31,0,0,1,.05-.41c0-.19.06-.4.1-.61s.06-.42.1-.62a2.83,2.83,0,0,1,.11-.4,1.19,1.19,0,0,1,0-.2c0-.09,0-.19,0-.28a.83.83,0,0,0,0-.27c0-.08,0-.12-.05-.12s-.31.16-.5.48-.37.68-.55,1.07-.34.76-.47,1.1A5.27,5.27,0,0,0,34.39,52Z" style="fill:#423c25"/><path d="M44.47,53.32s-.08,0-.1,0l-.19.38c0,.13-.11.35-.22.65l-.35,1-.33,1c-.11.31-.17.52-.21.65a.65.65,0,0,1-.08.35.9.9,0,0,1-.16.3c0,.06-.06.09-.14.09l-.12,0-.11,0s-.06,0-.06,0l-.17.77h-.12c-.09,0-.14,0-.14,0-.32,0-.52-.18-.59-.4a.79.79,0,0,1,.16-.71c-.08,0-.11-.07-.1-.07h-.07a.31.31,0,0,0-.22.11,1,1,0,0,0-.16.24l-.14.25a.4.4,0,0,1-.13.17h0l0,0h-.36l-.15,0-.25,0-.25,0h-.15a.32.32,0,0,1-.36-.2,1.46,1.46,0,0,1-.09-.52,2.92,2.92,0,0,1,0-.6,2.4,2.4,0,0,1,.09-.41l.05-.14.08-.21a.2.2,0,0,0,0-.15l0-.1,1.94-5.49a1.81,1.81,0,0,0,.09-.23l.08-.23a.77.77,0,0,0,.13-.24c.06-.13.12-.26.18-.41a2.66,2.66,0,0,0,.16-.41l.08-.24.12-.26.22-.43a4.14,4.14,0,0,1,.24-.43,1.63,1.63,0,0,1,.19-.27s.07-.08.17-.19a.71.71,0,0,0,.14-.19l0-.1,0-.09-.24,0c-.13,0-.25,0-.38,0a1.53,1.53,0,0,1-.34-.09c-.09,0-.13-.1-.09-.18a.78.78,0,0,1,.14-.18c.1-.1.14-.17.14-.2l.14,0,.21-.06.19-.08q.09,0,.06-.06l-.45-.26.09-.31s0-.06,0-.12,0-.08,0-.1a.43.43,0,0,1,.22-.09l.22,0,.21,0a.15.15,0,0,0,.12-.12l-.43-.55c-.1-.13-.06-.25.12-.37a3.07,3.07,0,0,1,.76-.34A11.19,11.19,0,0,1,45,43.19L46.21,43c.4-.06.77-.11,1.1-.14l.68,0a2,2,0,0,1,.69.06,2.39,2.39,0,0,0,.66.08.47.47,0,0,0,.19-.07.48.48,0,0,1,.24-.05h.1a5.4,5.4,0,0,1,1,.39,5.34,5.34,0,0,1,.82.55,2.24,2.24,0,0,1,.54.53,1.26,1.26,0,0,1,.06.72l-.48.43.33.19-.07.39-.07.21a3.6,3.6,0,0,0,0,1,3,3,0,0,1-.1,1.06.9.9,0,0,1-.19.42,1.45,1.45,0,0,1-.43.35l-2.28,2.71-.1.36c.12.86.21,1.76.29,2.68a9,9,0,0,1-.19,2.77,2,2,0,0,1-.4,0l-.22,0-.21-.05a1.15,1.15,0,0,0-.3,0,.17.17,0,0,0,0,.12.09.09,0,0,1,0,.12,1.67,1.67,0,0,1-.18.23c-.09.11-.19.21-.3.33a3.76,3.76,0,0,1-.32.28.49.49,0,0,1-.25.12c-.1,0-.16,0-.17-.09a1.37,1.37,0,0,1,0-.23.77.77,0,0,0-.06-.23.19.19,0,0,0-.19-.09.23.23,0,0,0-.14.08l-.21.18-.2.19c-.07.07-.11.11-.15.12a.24.24,0,0,1-.14.1.43.43,0,0,1-.42-.3,3.55,3.55,0,0,1-.24-.84,9.56,9.56,0,0,1-.11-1.15c0-.43,0-.84,0-1.23s0-.74,0-1,0-.54,0-.66S44.59,53.32,44.47,53.32Zm.81-2.69-.05.17c0,.06,0,.11.12.14a2.5,2.5,0,0,0,.66-.19.9.9,0,0,0,.47-.43l1.39-2.16.05-.22a.61.61,0,0,0,0-.42,3.56,3.56,0,0,0-.17-.41l-.18-.41a1,1,0,0,1-.06-.42c0-.11,0-.16-.19-.16h-.07l-.35.06-.44.07-.4.06c-.12,0-.19,0-.2,0a.94.94,0,0,0-.21,0,.47.47,0,0,0-.08.15v.07a.73.73,0,0,1,.62.3,1.05,1.05,0,0,1,.1.66,8.67,8.67,0,0,1-.49,1.52A10.23,10.23,0,0,0,45.28,50.63Z" style="fill:#423c25"/><path d="M54.81,57.68l-.24.58a.67.67,0,0,1-.29,0,2.09,2.09,0,0,0-.5,0,4.7,4.7,0,0,1-.53,0,1.62,1.62,0,0,1-.41,0c-.11,0-.15-.1-.12-.2a.58.58,0,0,0,0-.28,1.25,1.25,0,0,1,0-.29l0-.15a.26.26,0,0,0-.17-.33q-.19,0-.24.27a2.28,2.28,0,0,1-.12.47.31.31,0,0,1-.12.19H52l-.2,0h-.21a.34.34,0,0,0-.16.07.08.08,0,0,1-.11,0,1.74,1.74,0,0,1-.21-.41,3,3,0,0,1-.16-.48,2.65,2.65,0,0,1-.07-.44,1.28,1.28,0,0,1,0-.3l0-.15A.59.59,0,0,0,51,56a.88.88,0,0,1,0-.17l0-.07L53,49.69l.57-.3.4-.21c.12-.08.18-.12.18-.14l-.72-.38s0-.12.07-.23a3.43,3.43,0,0,1,.12-.33,3.73,3.73,0,0,1,.16-.35.58.58,0,0,1,.18-.24s0-.07.13-.17l.15-.17.05-.17H54a6.53,6.53,0,0,1-.73,0c-.26,0-.38-.11-.35-.22a.82.82,0,0,1,.14-.19,1.69,1.69,0,0,0,.15-.22v0a0,0,0,0,0,0-.07s0,0,.06-.08l.48-.31-.29-.29s0-.06,0-.1,0-.07,0-.09a.44.44,0,0,1,.28-.14.24.24,0,0,0,.22-.17L54,45a.7.7,0,0,0,0-.19,2.42,2.42,0,0,1-.1-.32,2.11,2.11,0,0,1-.07-.3.21.21,0,0,1,0-.18,3,3,0,0,1,1.08-.42q.75-.15,1.56-.24c.55-.05,1.06-.09,1.54-.1l1,0,.74,0h.36a2.77,2.77,0,0,0,.38,0h.12c.4.1.75.19,1,.28a3.05,3.05,0,0,1,.86.44,2.8,2.8,0,0,1,.59.48.93.93,0,0,1,.11.65,13,13,0,0,1,0,1.78c0,.43-.09.8-.12,1.12,0,.13-.07.27-.11.42s-.08.31-.11.47c-.14.48-.32,1-.53,1.67s-.45,1.28-.73,2-.59,1.33-.92,2a15.18,15.18,0,0,1-1.07,1.76,6.83,6.83,0,0,1-1.2,1.29,2.44,2.44,0,0,1-1.33.55l-1.4.29c0-.07,0-.11.08-.12s0,0,0,0Zm.41-2.25a.47.47,0,0,0,0,.17c0,.08,0,.12.11.14a1.55,1.55,0,0,0,.4-.16,3.89,3.89,0,0,0,.5-.3,2.68,2.68,0,0,0,.44-.34.7.7,0,0,0,.22-.3L59.23,48l.07-.21a.87.87,0,0,0,0-.4c0-.12-.1-.24-.16-.36l-.15-.36a1,1,0,0,1-.07-.39.24.24,0,0,1-.11-.06.29.29,0,0,0-.16-.06h.19l-.37,0L57.88,46,57.37,46h-.26l-.19.06a.41.41,0,0,0-.07.13l0,.08a.46.46,0,0,1,.38.14.86.86,0,0,1,.17.36,1.4,1.4,0,0,1,0,.46c0,.16,0,.3,0,.43a3.21,3.21,0,0,0,0,.36,3.37,3.37,0,0,1,0,.5,4.82,4.82,0,0,1-.15.64,4.16,4.16,0,0,1-.33.73,10.42,10.42,0,0,0-.65,1.37,16.37,16.37,0,0,0-.52,1.59,14.64,14.64,0,0,0-.34,1.52A4.06,4.06,0,0,0,55.22,55.43Z" style="fill:#423c25"/></g></g></svg>