<svg id="ecd40bf1-18b4-49e3-96cb-83192780b3c7" data-name="icon vecto" xmlns="http://www.w3.org/2000/svg" width="125" height="80" viewBox="0 0 125 80"><title>barbare-phrases</title><g id="fd70b415-e8a5-4970-b5ba-7764873af25e" data-name="barbare phrases - copie"><rect x="0.18" y="-0.54" width="125" height="80" style="fill:#fff"/><path d="M129.16,18.07l-7.4-.36a.1.1,0,0,1-.08-.06.06.06,0,0,1,0-.06l1.3-4.14s0,0,0,0h0Z" style="fill:#423c25"/><path d="M124.51,1.56l-2.92,5.55a.22.22,0,0,1-.2.12.27.27,0,0,1-.14-.05l-3.18-2.61a.1.1,0,0,1,0-.14.07.07,0,0,1,0,0Z" style="fill:#423c25"/><path d="M121.83,19.44a2.77,2.77,0,0,0-.21-1.76l.06,0a.1.1,0,0,0,.08.06l7.4.36L123,13.43h0v0a2.7,2.7,0,0,0,1.5-1l10.71,7.68Z" style="fill:#fff"/><path d="M121.59,7.11l2.92-5.55L118.1,4.39a.07.07,0,0,0,0,0l-.1,0a2.63,2.63,0,0,0-.14-1.8l11.95-6.23L123,8a2.88,2.88,0,0,0-1.64-.63V7.23A.22.22,0,0,0,121.59,7.11Z" style="fill:#fff"/><path d="M117,21.79a.12.12,0,0,1,0,.09l-.24,7.54-4-6.33a.14.14,0,0,1,0-.15.16.16,0,0,1,.11-.1l4-1.08A.14.14,0,0,1,117,21.79Z" style="fill:#423c25"/><path d="M113.88,11.39a2.33,2.33,0,1,1-3.27.3A2.32,2.32,0,0,1,113.88,11.39Z" style="fill:#fff"/><path d="M112.58,23.05a.28.28,0,0,0,0-.13l.13,0a.14.14,0,0,0,0,.15l4,6.33.24-7.54a.12.12,0,0,0,0-.09l0-.07a2.92,2.92,0,0,0,1.3.48V35.92l-7.2-11.32A2.58,2.58,0,0,0,112.58,23.05Z" style="fill:#fff"/><path d="M111.85,2.39a.16.16,0,0,1,0,.15.15.15,0,0,1-.12.12L108,3.83h-.11a.16.16,0,0,1-.09-.17l.72-7.26Z" style="fill:#423c25"/><path d="M107.8,3.66a.16.16,0,0,0,.09.17l-.09.1a2.71,2.71,0,0,0-1.86-.82l1-13.49,6.55,11.71A2.68,2.68,0,0,0,112,2.59l-.11,0a.16.16,0,0,0,0-.15l-3.33-6Z" style="fill:#fff"/><path d="M103.53,18.58a.17.17,0,0,0-.13.09l-3.65,6.11,7-3.86,0,0,.06,0a1.49,1.49,0,0,0-.17.44,2.59,2.59,0,0,0,.34,1.87L94.89,29.35l6.91-11.5a2.67,2.67,0,0,0,1.73.66Z" style="fill:#fff"/><path d="M106.7,20.92l-7,3.86,3.65-6.11a.17.17,0,0,1,.13-.09.12.12,0,0,1,.09,0l3.09,2.16a.1.1,0,0,1,0,.12Z" style="fill:#423c25"/><path d="M107.2,20.36a2.43,2.43,0,0,0-.4.56l-.06,0a.1.1,0,0,0,0-.12l-3.09-2.16a.12.12,0,0,0-.09,0v-.07a1.54,1.54,0,0,0,.3,0c1.31-.28,1.89-1.94,1.86-3.09,0-.14-.1-2.38-1.86-2.92a2.86,2.86,0,0,0-1.56-.06l0-.07a.18.18,0,0,0,.09-.1l1.13-3.61a.14.14,0,0,0-.08-.18l.06-.09c1,.77,2.54.39,3.44-.22.11-.07,2-1.34,1.49-3.12a2.41,2.41,0,0,0-.58-1.08l.09-.1H108l3.74-1.17a.15.15,0,0,0,.12-.12l.11,0a.7.7,0,0,0-.08.2c-.41,1.28.74,2.6,1.76,3.15.12.06,2.11,1.09,3.46-.17A2.93,2.93,0,0,0,118,4.4l.1,0a.1.1,0,0,0,0,.14l3.18,2.61a.27.27,0,0,0,.14.05v.12a1.92,1.92,0,0,0-.41.05c-1.31.3-1.85,2-1.8,3.12,0,.13.14,2.37,1.9,2.89a3.48,3.48,0,0,0,1.92,0v0s0,0,0,0l-1.3,4.14a.06.06,0,0,0,0,.06l-.06,0a1.31,1.31,0,0,0-.21-.33c-.87-1-2.6-.74-3.61-.17-.11.07-2,1.21-1.69,3a2.39,2.39,0,0,0,.91,1.52l0,.07a.14.14,0,0,0-.12,0l-4,1.08a.16.16,0,0,0-.11.1l-.13,0c.23-1.26-1-2.44-2-2.91C110.53,20,108.48,19,107.2,20.36Zm7-5.7a2.32,2.32,0,1,0-3.27.3A2.32,2.32,0,0,0,114.17,14.66Z" style="fill:#423c25"/><path d="M102.34,12.23a.18.18,0,0,1-.09.1.16.16,0,0,1-.12,0l-6.51-4,7.7.16h.07a.14.14,0,0,1,.08.18Z" style="fill:#423c25"/><path d="M102.27,12.4a2.65,2.65,0,0,0-1.49,1l-11.46-7,13.41-.24a2.6,2.6,0,0,0,.55,2.06.8.8,0,0,0,.17.15l-.06.09h-.07l-7.7-.16,6.51,4a.16.16,0,0,0,.12,0Z" style="fill:#fff"/><path d="M121.4,7.35A2.88,2.88,0,0,1,123,8l6.72-11.61L117.81,2.6A2.63,2.63,0,0,1,118,4.4a2.93,2.93,0,0,1-.84,1.37c-1.35,1.26-3.34.23-3.46.17-1-.55-2.17-1.87-1.76-3.15a.7.7,0,0,1,.08-.2,2.68,2.68,0,0,1,1.47-1.26l-6.55-11.71-1,13.49a2.71,2.71,0,0,1,1.86.82A2.41,2.41,0,0,1,108.38,5c.47,1.78-1.38,3.05-1.49,3.12-.9.61-2.48,1-3.44.22a.8.8,0,0,1-.17-.15,2.6,2.6,0,0,1-.55-2.06l-13.41.24,11.46,7.05a2.65,2.65,0,0,1,1.49-1,2.86,2.86,0,0,1,1.56.06c1.76.54,1.86,2.78,1.86,2.92,0,1.15-.55,2.81-1.86,3.09a1.54,1.54,0,0,1-.3,0,2.67,2.67,0,0,1-1.73-.66l-6.91,11.5L107,23.23a2.59,2.59,0,0,1-.34-1.87,1.49,1.49,0,0,1,.17-.44,2.43,2.43,0,0,1,.4-.56c1.28-1.32,3.33-.41,3.44-.35,1,.47,2.2,1.65,2,2.91a.28.28,0,0,1,0,.13,2.58,2.58,0,0,1-1.46,1.55l7.2,11.32V22.2a2.92,2.92,0,0,1-1.3-.48,2.39,2.39,0,0,1-.91-1.52c-.35-1.81,1.58-2.95,1.69-3,1-.57,2.74-.86,3.61.17a1.31,1.31,0,0,1,.21.33,2.77,2.77,0,0,1,.21,1.76l13.39.64L124.51,12.4a2.7,2.7,0,0,1-1.5,1,3.48,3.48,0,0,1-1.92,0c-1.76-.52-1.9-2.76-1.9-2.89,0-1.16.49-2.82,1.8-3.12A1.92,1.92,0,0,1,121.4,7.35Z" style="fill:none;stroke:#423c25;stroke-miterlimit:10;stroke-width:0.6007771492004395px"/><path d="M106.74,20.89l0,0-7,3.86,3.65-6.11a.17.17,0,0,1,.13-.09.12.12,0,0,1,.09,0l3.09,2.16A.1.1,0,0,1,106.74,20.89Z" style="fill:none;stroke:#423c25;stroke-miterlimit:10;stroke-width:0.6007771492004395px"/><path d="M112.74,22.94a.14.14,0,0,0,0,.15l4,6.33.24-7.54a.12.12,0,0,0,0-.09.14.14,0,0,0-.12,0l-4,1.08A.16.16,0,0,0,112.74,22.94Z" style="fill:none;stroke:#423c25;stroke-miterlimit:10;stroke-width:0.6007771492004395px"/><path d="M123,13.43h0l6.13,4.64-7.4-.36a.1.1,0,0,1-.08-.06.06.06,0,0,1,0-.06l1.3-4.14S123,13.43,123,13.43Z" style="fill:none;stroke:#423c25;stroke-miterlimit:10;stroke-width:0.6007771492004395px"/><path d="M118.05,4.43a.07.07,0,0,1,0,0l6.41-2.83-2.92,5.55a.22.22,0,0,1-.2.12.27.27,0,0,1-.14-.05l-3.18-2.61A.1.1,0,0,1,118.05,4.43Z" style="fill:none;stroke:#423c25;stroke-miterlimit:10;stroke-width:0.6007771492004395px"/><path d="M111.86,2.54a.16.16,0,0,0,0-.15l-3.33-6-.72,7.26a.16.16,0,0,0,.09.17H108l3.74-1.17A.15.15,0,0,0,111.86,2.54Z" style="fill:none;stroke:#423c25;stroke-miterlimit:10;stroke-width:0.6007771492004395px"/><path d="M102.25,12.33a.16.16,0,0,1-.12,0l-6.51-4,7.7.16h.07a.14.14,0,0,1,.08.18l-1.13,3.61A.18.18,0,0,1,102.25,12.33Z" style="fill:none;stroke:#423c25;stroke-miterlimit:10;stroke-width:0.6007771492004395px"/><path d="M113.88,11.39a2.33,2.33,0,1,1-3.27.3A2.32,2.32,0,0,1,113.88,11.39Z" style="fill:none;stroke:#423c25;stroke-miterlimit:10;stroke-width:0.6007771492004395px"/><path d="M17.79,32.3a.21.21,0,0,1-.21,0,4.08,4.08,0,0,0-.71.06c-.24,0-.36,0-.37-.18a5.44,5.44,0,0,1-.69-.12l-.61-.14c-.13,0-.2,0-.22,0a.3.3,0,0,1,0-.1c-.14,0-.19-.08-.13-.09s.06-.07,0-.15,0-.23.29-.5a3.25,3.25,0,0,1-.09-.59,1.56,1.56,0,0,1,0-.42l.21-.69.27-.46c0-.05,0-.07.12-.07a7.54,7.54,0,0,1,.79.07s0-.07-.12-.16-.17-.18-.27-.27l-.27-.25c-.07-.08-.09-.11-.06-.11L17.12,23s0-.05.12-.12l.26-.21.27-.23a.48.48,0,0,0,.12-.13.58.58,0,0,0,0-.22c0-.13,0-.26,0-.41V21s.06-.15.12-.31l.22-.51a5,5,0,0,1,.25-.52.91.91,0,0,1,.21-.29,1,1,0,0,1,.16-.2l.2-.21.07-.24-.27,0h-.35c-.29,0-.41-.07-.37-.22a2.13,2.13,0,0,1,.09-.25c0-.15.09-.25.11-.3l1.17-.07s-.05,0-.16-.1L19,17.65l-.35-.17c-.12-.06-.17-.09-.17-.11l.14-.38.05-.15a3.21,3.21,0,0,0,.08-.36,1.35,1.35,0,0,0,0-.24,3,3,0,0,0,.18-.6.72.72,0,0,1,.3-.48,2.85,2.85,0,0,1,1.16-.53q.78-.18,1.62-.3c.56-.07,1.09-.11,1.59-.13l1,0,.84.07h.91a5.07,5.07,0,0,1,1.06.43,4.76,4.76,0,0,1,.89.65,2.51,2.51,0,0,1,.66.58,1.21,1.21,0,0,1,.05.81c0,.46,0,.87,0,1.22s-.07.67-.11.94-.08.52-.13.74-.1.44-.15.65a1.7,1.7,0,0,1-.46.85,5.22,5.22,0,0,1-.7.54c-.25.16-.49.33-.73.51a1.75,1.75,0,0,0-.58.72,2.59,2.59,0,0,1,.44.6,3.76,3.76,0,0,1,.34.79,3.12,3.12,0,0,1,.13.93A4.48,4.48,0,0,1,27,26.25l-.24.67c-.08.23-.18.48-.3.76s-.27.59-.45.93-.39.74-.64,1.17a3.56,3.56,0,0,1-.24.48,1.93,1.93,0,0,1-.29.35,2,2,0,0,1-.4.28c-.15.09-.35.19-.58.3a11.81,11.81,0,0,1-1.25.65,7.92,7.92,0,0,1-1.3.43h-.91l-.89.07a2.22,2.22,0,0,0-.37.09,1.68,1.68,0,0,1-.59,0l0-.24c.05-.19.05-.29,0-.31Zm2-3.91.47.14a5.87,5.87,0,0,0,.68.14.41.41,0,0,0,.32-.19q.26-.48.6-1a6.82,6.82,0,0,0,.53-1l0-.24-.33-.84A.65.65,0,0,0,22,25a1.6,1.6,0,0,0-.28-.31,2.46,2.46,0,0,0-.34-.25.87.87,0,0,0-.33-.13l-.21.81c-.05.16-.15.47-.28.94s-.31,1-.52,1.56a.35.35,0,0,1,0,.23.73.73,0,0,1-.1.13Zm2.32-6.78a.33.33,0,0,0,.25.2,1.27,1.27,0,0,0,.54-.18,1.29,1.29,0,0,0,.4-.47l.81-.84.07-.24c.08-.33.16-.67.22-1a5.81,5.81,0,0,0,.12-1s-.07-.06-.2-.11L24,17.85l-.42.07-.43.1-.35.08-.17,0a.41.41,0,0,0-.2.05s-.05.07-.08.16l0,.1c.32,0,.48.14.47.31a4.2,4.2,0,0,1-.13.75,5.45,5.45,0,0,1-.17.61l-.14.31a2.94,2.94,0,0,0-.16.31,2.75,2.75,0,0,0-.18.64S22,21.49,22.1,21.61Z" style="fill:#423c25"/><path d="M27.13,31H27l-.12.09-.26.94s0,0,0,0a.27.27,0,0,0-.1.06h-.07c-.1,0-.16-.08-.19-.24a.51.51,0,0,1,0-.31q0-.09.06-.27a2.43,2.43,0,0,1,.11-.4c0-.13.06-.25.1-.37s.07-.21.09-.25a.21.21,0,0,1-.07-.15l0-.17.05-.14.24-.74c.11-.34.25-.72.4-1.13l.48-1.32.48-1.32.41-1.13c.12-.34.2-.58.25-.74.21-.37.43-.74.67-1.11a8.72,8.72,0,0,0,.62-1.1c.4-.82.79-1.59,1.14-2.33a14.43,14.43,0,0,1,1.41-2.28c.05,0,.11,0,.19.07a4.07,4.07,0,0,1,.25.35c.09.14.17.26.26.38s.13.18.16.18.1-.06.16-.18a3.34,3.34,0,0,0,.15-.38c0-.14.1-.26.15-.37s.09-.16.12-.15h2.21l.48-.16s.08,0,.09.06a.9.9,0,0,1,0,.19c0,.07,0,.14,0,.2s0,.1.06.1a1,1,0,0,0,.25,0,1.36,1.36,0,0,1,.29,0,.5.5,0,0,1,.22.1q.09.07,0,.24l-.67,2.3a1.7,1.7,0,0,0,0,.54,5.16,5.16,0,0,0,.09.52c0,.17.07.35.11.51a1.93,1.93,0,0,1,0,.54c-.05.2-.12.53-.23,1s-.21,1-.32,1.5-.22,1-.33,1.5-.18.8-.22,1l0,.09a17.7,17.7,0,0,1-.29,2.29,22.85,22.85,0,0,1-.55,2.32,1.89,1.89,0,0,1-.63-.1,2.25,2.25,0,0,0-.64-.09.26.26,0,0,0-.18.09l-.17.21a1.12,1.12,0,0,1-.18.2.26.26,0,0,1-.21.1c-.08,0-.12-.06-.1-.17s0-.24.06-.37.05-.26.06-.37,0-.17-.07-.17,0,0-.11.11l-.17.22c0,.08-.14.2-.25.34l-.17.28a.65.65,0,0,1-.24.27s0,.07-.12.1v0h0c-.24,0-.36-.15-.37-.47a4.84,4.84,0,0,1,.09-1c.06-.37.12-.72.16-1s0-.47-.12-.47H31.3a.61.61,0,0,0-.55.22l-.33,1.15L30.1,31.6a2.87,2.87,0,0,1-.18.42q-.14.28-.15.3l-.15.1H27.87L27.44,32l-.22-.09a.28.28,0,0,1,0-.21,1.34,1.34,0,0,1,.07-.27.87.87,0,0,0,0-.26C27.3,31.06,27.24,31,27.13,31Zm4.72-5.24s0,.1-.07.2,0,.15.1.16a3.29,3.29,0,0,0,.67-.12.59.59,0,0,0,.48-.4.25.25,0,0,1,.08-.1.28.28,0,0,0,.09-.1,2,2,0,0,1,0-.4c0-.2.06-.4.09-.62s.07-.42.11-.61a3.07,3.07,0,0,1,.11-.41s0-.09,0-.19,0-.19.05-.29a.77.77,0,0,0,0-.26q0-.12-.06-.12c-.14,0-.31.16-.49.48s-.37.68-.55,1.07-.34.76-.47,1.1S31.87,25.73,31.85,25.79Z" style="fill:#423c25"/><path d="M41.94,27.11s-.09,0-.1,0l-.19.38c0,.13-.11.35-.22.65s-.23.62-.35,1l-.33,1c-.11.3-.17.52-.21.65a.65.65,0,0,1-.08.35,1.69,1.69,0,0,1-.16.3c0,.06-.06.09-.14.09l-.12,0-.11,0s-.06,0-.06.05l-.17.77h-.12c-.09,0-.14,0-.14,0-.32-.05-.52-.18-.59-.4a.79.79,0,0,1,.16-.71c-.08,0-.12-.07-.1-.07h-.07a.31.31,0,0,0-.22.11,1,1,0,0,0-.16.24l-.14.25a.4.4,0,0,1-.13.17h0l0,0h-.5l-.25,0-.25,0h-.15a.33.33,0,0,1-.36-.21,1.36,1.36,0,0,1-.09-.51,2.92,2.92,0,0,1,0-.6,2.4,2.4,0,0,1,.09-.41l0-.14.08-.21a.21.21,0,0,0,0-.15l0-.1,1.94-5.5a1.11,1.11,0,0,0,.09-.22,1.71,1.71,0,0,1,.08-.23.77.77,0,0,0,.13-.24l.18-.41a2.66,2.66,0,0,0,.16-.41c0-.13.07-.21.08-.24l.12-.26.22-.43c.08-.16.16-.31.24-.44a2,2,0,0,1,.19-.26l.17-.19a.71.71,0,0,0,.14-.19l0-.1,0-.1h-.24l-.38,0a1.53,1.53,0,0,1-.34-.09c-.09,0-.13-.1-.09-.18a.78.78,0,0,1,.14-.18c.1-.1.14-.17.14-.2l.14,0a.83.83,0,0,0,.21-.06.84.84,0,0,0,.19-.07q.09,0,.06-.06L40,19.34l.09-.31s0-.06,0-.12a.16.16,0,0,0,0-.1.51.51,0,0,1,.21-.1l.23,0,.21,0a.15.15,0,0,0,.12-.12L40.38,18c-.1-.13-.06-.25.12-.37a3.07,3.07,0,0,1,.76-.34A11.19,11.19,0,0,1,42.42,17c.43-.08.85-.16,1.25-.22s.78-.11,1.11-.14a5.84,5.84,0,0,1,.68-.05,2,2,0,0,1,.69.06,2.84,2.84,0,0,0,.66.08.47.47,0,0,0,.19-.07.48.48,0,0,1,.24,0h.09a4.64,4.64,0,0,1,1,.39,4.3,4.3,0,0,1,.81.55,1.92,1.92,0,0,1,.54.53,1.16,1.16,0,0,1,.07.72l-.49.43.34.19-.07.38-.07.22a3.6,3.6,0,0,0-.05,1,3,3,0,0,1-.1,1.06.9.9,0,0,1-.19.42,1.8,1.8,0,0,1-.43.35L46.4,25.58l-.1.36c.12.86.21,1.75.29,2.67a9,9,0,0,1-.19,2.78,2,2,0,0,1-.4,0l-.22-.05-.21,0a1.15,1.15,0,0,0-.3,0s0,.07,0,.12a.09.09,0,0,1,0,.12,1.67,1.67,0,0,1-.18.23l-.3.32a2.71,2.71,0,0,1-.32.29.48.48,0,0,1-.26.12c-.09,0-.15,0-.16-.09a1.37,1.37,0,0,1,0-.23.7.7,0,0,0-.06-.23.19.19,0,0,0-.19-.1.26.26,0,0,0-.14.09,1.68,1.68,0,0,0-.21.18l-.2.19-.15.12s-.06.06-.14.1a.43.43,0,0,1-.42-.3,3.13,3.13,0,0,1-.24-.84,9.54,9.54,0,0,1-.11-1.16c0-.42,0-.83,0-1.22s0-.74,0-1.06,0-.53,0-.66S42.06,27.11,41.94,27.11Zm.81-2.68,0,.16q0,.11.12.15a2.5,2.5,0,0,0,.66-.19.88.88,0,0,0,.47-.44L45.34,22l0-.21a.61.61,0,0,0,0-.42,3.56,3.56,0,0,0-.17-.41L45,20.5a1,1,0,0,1-.06-.42c0-.11,0-.17-.19-.17h-.07l-.35.06-.44.08-.4.06a.55.55,0,0,0-.2,0l-.21.05a.47.47,0,0,0-.08.15v.07a.73.73,0,0,1,.62.3,1.05,1.05,0,0,1,.1.66,8.67,8.67,0,0,1-.49,1.52A9.86,9.86,0,0,0,42.75,24.43Z" style="fill:#423c25"/><path d="M50.45,32.37c0,.05-.11,0-.19,0a4,4,0,0,0-.62,0c-.19,0-.29,0-.29-.14l-.61-.11L48.2,32q-.16,0-.18,0a.23.23,0,0,1,0-.07c-.13-.05-.18-.08-.14-.1s.05-.05,0-.12,0-.21.21-.43c0-.18,0-.34,0-.5a1,1,0,0,1,.05-.39l.16-.6.22-.41s0,0,.12,0l.67,0a.36.36,0,0,0-.11-.13L49,29l-.22-.21c-.07-.07-.08-.1,0-.1l1.2-4.46s0-.05.11-.11l.22-.19.23-.21c.07-.06.11-.1.11-.12s0-.07,0-.16v-.36c0-.15,0-.28,0-.39s0-.17,0-.19,0-.14.09-.28.11-.28.18-.44l.22-.44a.79.79,0,0,1,.18-.26l.14-.18q.15-.15.15-.18l.07-.19h-.2l-.33,0c-.25,0-.36-.07-.31-.2s0-.09.08-.22.1-.22.11-.26l1-.07s0,0-.15-.08l-.31-.13-.31-.15-.15-.09.15-.34a1,1,0,0,0,.08-.34,2.43,2.43,0,0,0,0-.31,2.55,2.55,0,0,0,.18-.53.65.65,0,0,1,.25-.4,2.31,2.31,0,0,1,1-.46,12.74,12.74,0,0,1,1.42-.26,11.4,11.4,0,0,1,1.36-.12l.9,0,.72.07H58a4.84,4.84,0,0,1,.93.38,4.68,4.68,0,0,1,.77.56,2.24,2.24,0,0,1,.54.52,1.07,1.07,0,0,1,.06.7,10.1,10.1,0,0,1-.13,1.87q-.14.67-.21,1.2a1.61,1.61,0,0,1-.42.75,4.85,4.85,0,0,1-.6.48l-.63.44a1.7,1.7,0,0,0-.51.61,2.28,2.28,0,0,1,.39.52,3.21,3.21,0,0,1,.27.68,2.78,2.78,0,0,1,.12.83,2.73,2.73,0,0,1-.13.92c-.08.2-.15.39-.23.58s-.15.41-.25.65a8.57,8.57,0,0,1-.36.81c-.14.31-.33.65-.55,1a4.34,4.34,0,0,1-.23.4,1.05,1.05,0,0,1-.25.3,2,2,0,0,1-.35.26c-.13.08-.3.16-.49.26-.4.22-.77.41-1.1.55a9.3,9.3,0,0,1-1.13.39h-.12l-.37,0h-.3l-.77.07a1.9,1.9,0,0,0-.36.08,1.55,1.55,0,0,1-.51,0l.08-.22c0-.08,0-.13,0-.16V32ZM52.18,29a2.73,2.73,0,0,0,.42.13l.57.14a.56.56,0,0,0,.28-.17,8.75,8.75,0,0,1,.53-.9,3.84,3.84,0,0,0,.46-.9l.05-.22-.29-.72a.77.77,0,0,0-.34-.57,1.24,1.24,0,0,0-.6-.34l-.17.72c0,.13-.11.4-.25.8l-.44,1.36c0,.18-.07.28-.12.31Zm2-5.89a.3.3,0,0,0,.19.18,1.22,1.22,0,0,0,.5-.17,1,1,0,0,0,.32-.41L56,22l0-.21a8.63,8.63,0,0,0,.2-.88,6.68,6.68,0,0,0,.11-.87s-.06,0-.19-.1l-.24-.1a3.11,3.11,0,0,0-.37.08l-.38.08a3.63,3.63,0,0,0-.4.11.5.5,0,0,0-.23.05s0,.06-.09.14l0,.07c.3,0,.45.13.44.28a2.5,2.5,0,0,1-.13.63,3.55,3.55,0,0,1-.13.54,1.78,1.78,0,0,1-.12.27c0,.07-.08.16-.13.27a3,3,0,0,0-.15.56A.32.32,0,0,0,54.22,23.07Z" style="fill:#423c25"/><path d="M58.78,31h-.09l-.12.09-.27.94s0,0,0,0a.24.24,0,0,0-.09.06h-.07c-.1,0-.16-.08-.2-.24a.51.51,0,0,1,0-.31,1.91,1.91,0,0,0,.06-.27,4.1,4.1,0,0,1,.11-.4c0-.13.07-.25.11-.37l.08-.25a.26.26,0,0,1-.07-.15l0-.17.05-.14.24-.74c.11-.34.24-.72.39-1.13s.32-.86.48-1.32l.48-1.32c.16-.42.29-.79.41-1.13s.21-.58.25-.74c.21-.37.44-.74.68-1.11a10.17,10.17,0,0,0,.62-1.1L63,18.93a15.1,15.1,0,0,1,1.4-2.28s.12,0,.2.07a4.07,4.07,0,0,1,.25.35l.25.38c.08.12.14.18.17.18s.1-.06.15-.18a3.34,3.34,0,0,0,.16-.38l.14-.37q.07-.16.12-.15H68l.48-.16s.08,0,.1.06a1,1,0,0,1,0,.19l0,.2c0,.07,0,.1.06.1A1,1,0,0,0,69,17a1.38,1.38,0,0,1,.29,0,.41.41,0,0,1,.21.1c.06.05.07.13,0,.24l-.67,2.3a1.46,1.46,0,0,0,0,.54,5.06,5.06,0,0,0,.08.52c0,.17.08.35.11.51a2.38,2.38,0,0,1,0,.54c-.05.2-.13.53-.23,1s-.21,1-.33,1.5-.22,1-.32,1.5-.18.8-.23,1l0,.09a19.63,19.63,0,0,1-.29,2.29c-.14.76-.33,1.54-.55,2.32a1.91,1.91,0,0,1-.64-.1,2.18,2.18,0,0,0-.63-.09.23.23,0,0,0-.18.09l-.17.21-.18.2a.3.3,0,0,1-.22.1c-.08,0-.11-.06-.09-.17a2.83,2.83,0,0,1,.06-.37c0-.14,0-.26.06-.37s0-.17-.08-.17,0,0-.1.11a1.84,1.84,0,0,0-.17.22l-.25.34s-.08.12-.17.28A.83.83,0,0,1,64,32s0,.07-.12.1v0h-.05c-.24,0-.36-.15-.37-.47a5.52,5.52,0,0,1,.08-1c.07-.37.12-.72.17-1s0-.47-.12-.47H63a.6.6,0,0,0-.55.22l-.34,1.15-.31,1.15a2.87,2.87,0,0,1-.18.42,1.39,1.39,0,0,1-.16.3l-.14.1H59.53L59.09,32l-.21-.09a.34.34,0,0,1,0-.21,1.38,1.38,0,0,1,.08-.27.61.61,0,0,0,0-.26C59,31.06,58.89,31,58.78,31Zm4.73-5.24a1.38,1.38,0,0,0-.07.2c0,.09,0,.15.09.16a3.26,3.26,0,0,0,.68-.12.62.62,0,0,0,.48-.4.19.19,0,0,1,.08-.1.19.19,0,0,0,.08-.1,3.21,3.21,0,0,1,.05-.4c0-.2.07-.4.1-.62s.07-.42.11-.61a3.5,3.5,0,0,1,.1-.41,1.29,1.29,0,0,1,0-.19c0-.09,0-.19.05-.29a1.15,1.15,0,0,0,0-.26q0-.12-.06-.12c-.15,0-.31.16-.49.48s-.37.68-.56,1.07-.34.76-.46,1.1S63.53,25.73,63.51,25.79Z" style="fill:#423c25"/><path d="M73.59,27.11a.13.13,0,0,0-.1,0l-.19.38a6.25,6.25,0,0,1-.21.65c-.12.3-.23.62-.35,1s-.23.66-.34,1-.17.52-.2.65a.69.69,0,0,1-.09.35,1.94,1.94,0,0,1-.15.3.14.14,0,0,1-.15.09l-.12,0-.1,0s-.06,0-.06.05l-.17.77h-.12c-.1,0-.15,0-.15,0a.63.63,0,0,1-.58-.4.78.78,0,0,1,.15-.71c-.08,0-.11-.07-.09-.07h-.08a.28.28,0,0,0-.21.11,1,1,0,0,0-.17.24l-.13.25a.5.5,0,0,1-.13.17h0l0,0h-.5L69,32l-.25,0H68.6a.32.32,0,0,1-.36-.21,1.19,1.19,0,0,1-.1-.51,3.83,3.83,0,0,1,0-.6,1.61,1.61,0,0,1,.1-.41l0-.14c0-.08.06-.15.09-.21a.2.2,0,0,0,0-.15l0-.1,2-5.5.08-.22a1.33,1.33,0,0,1,.09-.23,1.08,1.08,0,0,0,.13-.24c0-.13.11-.27.18-.41a4.14,4.14,0,0,0,.15-.41,3.69,3.69,0,0,1,.21-.5l.21-.43c.08-.16.16-.31.24-.44a1.85,1.85,0,0,1,.2-.26l.16-.19a1,1,0,0,0,.15-.19l0-.1,0-.1H72l-.39,0a1.31,1.31,0,0,1-.33-.09c-.1,0-.13-.1-.1-.18l.14-.18c.1-.1.15-.17.15-.2l.13,0,.22-.06.19-.07s.07,0,.06-.06l-.46-.26.1-.31s0-.06,0-.12,0-.08,0-.1a.62.62,0,0,1,.22-.1l.23,0,.2,0a.13.13,0,0,0,.12-.12L72,18c-.1-.13-.06-.25.12-.37a3.16,3.16,0,0,1,.77-.34A11,11,0,0,1,74.07,17c.43-.08.85-.16,1.26-.22s.78-.11,1.1-.14a6,6,0,0,1,.69-.05,1.9,1.9,0,0,1,.68.06,3,3,0,0,0,.66.08.42.42,0,0,0,.19-.07.48.48,0,0,1,.24,0H79A4.76,4.76,0,0,1,80,17a4.06,4.06,0,0,1,.82.55,2.24,2.24,0,0,1,.54.53,1.1,1.1,0,0,1,.06.72l-.48.43.34.19-.08.38L81.1,20a4,4,0,0,0,0,1A3,3,0,0,1,81,22.1a1,1,0,0,1-.19.42,1.69,1.69,0,0,1-.44.35l-2.28,2.71-.09.36c.11.86.21,1.75.29,2.67a9,9,0,0,1-.2,2.78,1.92,1.92,0,0,1-.39,0l-.23-.05-.2,0a1.26,1.26,0,0,0-.3,0,.11.11,0,0,0,0,.12.1.1,0,0,1,0,.12l-.18.23-.3.32a2.74,2.74,0,0,1-.33.29.46.46,0,0,1-.25.12c-.1,0-.15,0-.17-.09a1.43,1.43,0,0,1,0-.23.7.7,0,0,0-.06-.23.22.22,0,0,0-.2-.1.26.26,0,0,0-.14.09l-.2.18c-.08.06-.14.13-.21.19l-.14.12a.42.42,0,0,1-.15.1q-.25,0-.42-.3a3.55,3.55,0,0,1-.24-.84,9.66,9.66,0,0,1-.1-1.16c0-.42,0-.83,0-1.22s0-.74,0-1.06,0-.53,0-.66S73.72,27.11,73.59,27.11Zm.82-2.68,0,.16q0,.11.12.15a2.74,2.74,0,0,0,.66-.19,1,1,0,0,0,.47-.44L77,22l0-.21a.75.75,0,0,0,0-.42c0-.14-.11-.27-.17-.41a3.65,3.65,0,0,1-.18-.41.75.75,0,0,1-.06-.42c0-.11,0-.17-.19-.17h-.08L76,20l-.45.08-.39.06a.72.72,0,0,0-.21,0l-.2.05s0,.07-.09.15v.07a.76.76,0,0,1,.63.3,1.06,1.06,0,0,1,.09.66,7.91,7.91,0,0,1-.49,1.52A9.81,9.81,0,0,0,74.41,24.43Z" style="fill:#423c25"/><path d="M80,29.85a6.19,6.19,0,0,1,.47-1.15,6.41,6.41,0,0,0,.46-1.15,17.86,17.86,0,0,0,.52-2.26A17.86,17.86,0,0,1,82,23a9.43,9.43,0,0,1,.52-1.32A7.16,7.16,0,0,0,83,20.42l0-.1.1-.26V20c0-.08-.09-.14-.23-.17a.77.77,0,0,0-.37,0l-.41-.46s0-.05,0-.09l.42-.51c.1-.13.2-.24.3-.35a1.34,1.34,0,0,0,.17-.2l.45-.1.17,0a1.78,1.78,0,0,0-.23-.17.72.72,0,0,0-.39-.14s0-.06,0-.07a.68.68,0,0,1,.37-.4,3.11,3.11,0,0,1,.71-.24,5.63,5.63,0,0,1,.85-.11l.78,0h.46q.81,0,1.59.06c.52,0,1,.06,1.6.06a1.93,1.93,0,0,0,.49-.06,1.93,1.93,0,0,1,.49-.06l0,.19c0,.13-.08.19-.09.19l-.16.23a1.26,1.26,0,0,0-.15.23l-.08.19-.55.31.39.31-.05.2a1.36,1.36,0,0,1-.43.48,3.54,3.54,0,0,1-.7.36l-.76.24a5.81,5.81,0,0,1-.61.12l-.12.09a.34.34,0,0,0-.07.19l-.12.41a4.45,4.45,0,0,1-.13.45c-.06.15-.1.27-.13.37l0,.09a.65.65,0,0,0,0,.17.16.16,0,0,1-.1.15l-.45.24.38,0s.06,0,0,.12l-.09.22,0,.09c0,.07,0,.1.05.1h.12a4.36,4.36,0,0,0,.94-.1,4.92,4.92,0,0,1,.91-.09.35.35,0,0,1,.35.16.57.57,0,0,1,0,.39.64.64,0,0,1-.27.29q-.23.13-.51.27l-.49.24q-.21.11-.24.18s.05.06.16.09a3,3,0,0,1,.33.1,1.4,1.4,0,0,1,.32.18c.08.08.09.18,0,.33a1,1,0,0,1-.45.56,2,2,0,0,1-.64.22c-.23,0-.46.07-.7.09a2,2,0,0,0-.66.21,1.59,1.59,0,0,0-.16.3,5.19,5.19,0,0,0-.23.57q-.1.33-.21.6c-.06.19-.1.3-.12.35v0c0,.09,0,.2,0,.33l-.06.39a2.59,2.59,0,0,0-.06.45h1.77q.15,0,.18.06a.24.24,0,0,1,0,.15c0,.05,0,.11,0,.18a.22.22,0,0,0,0,.16.17.17,0,0,0,.1.14l.19.13a.53.53,0,0,1,.15.2.47.47,0,0,1,0,.35.45.45,0,0,1-.29.3,3.84,3.84,0,0,1-.51.19l-.52.18a.46.46,0,0,0-.29.27,1.09,1.09,0,0,1,.17.26l0,.07a.38.38,0,0,1-.28.31,2.84,2.84,0,0,1-.54.08,12.17,12.17,0,0,0-1.25.14,2.4,2.4,0,0,1-1,0l-.72-.2-.34.2A.56.56,0,0,1,81,32a2.08,2.08,0,0,0-.39,0h-.27a1.14,1.14,0,0,1-.56-.93A3.65,3.65,0,0,1,80,29.85Z" style="fill:#423c25"/><path d="M23.32,54.71l-.48,1c-.05.14-.12.38-.22.7l-.35,1c-.13.37-.25.71-.35,1s-.18.57-.23.71l-.05.17a1.9,1.9,0,0,1-.12.36l-.09.21c0,.08-.06.12-.17.12l-.12,0-.12,0c-.05,0-.07,0-.07,0l-.22.89h-.12a.51.51,0,0,1-.19,0,2.35,2.35,0,0,0-.53,0l-.48,0a.71.71,0,0,1-.32,0c-.08,0-.09-.11-.06-.24s0-.07,0-.15a2.3,2.3,0,0,1,.1-.33l.07-.31.05-.17a.05.05,0,0,1,0-.05.08.08,0,0,0,0-.07h-.1a.34.34,0,0,0-.27.12,1.48,1.48,0,0,0-.17.28,2.1,2.1,0,0,0-.15.3.49.49,0,0,1-.15.21h-.1L18,60.64h-.24a.48.48,0,0,0-.16.07.09.09,0,0,1-.13,0,2.63,2.63,0,0,1-.2-.54,4.59,4.59,0,0,1-.13-.57,3.56,3.56,0,0,1-.07-.52,1.29,1.29,0,0,1,0-.38l.05-.17.12-.41,0-.12,2.28-6.24.12-.12.27-.21.26-.23a.48.48,0,0,0,.12-.13.5.5,0,0,0,0-.22c0-.13,0-.26,0-.41s0-.3,0-.43,0-.2,0-.22.06-.15.12-.31l.22-.51a5,5,0,0,1,.25-.52.76.76,0,0,1,.23-.29,1,1,0,0,1,.16-.2l.18-.21.07-.24h-.26a3.44,3.44,0,0,1-.45,0,2.12,2.12,0,0,1-.4-.1c-.11-.05-.15-.12-.12-.2l.14-.21c.08-.13.14-.21.15-.24l0,0a.19.19,0,0,0,0-.1s0-.06.11-.09l.55-.36-.31-.33c-.05,0-.06-.1,0-.14s.07-.07.07-.1a.67.67,0,0,1,.38-.2c.13,0,.21-.1.24-.26a.49.49,0,0,0,0-.25c0-.12-.06-.25-.1-.37a1.27,1.27,0,0,1-.07-.36c0-.12,0-.19.05-.22a2.32,2.32,0,0,1,.74-.37,8.08,8.08,0,0,1,1-.27,10.44,10.44,0,0,1,1.19-.15L25.71,43l1,0h.65l.82.07h1a6.31,6.31,0,0,1,1.15.43,4.18,4.18,0,0,1,.94.65,2.44,2.44,0,0,1,.63.58,1.37,1.37,0,0,1,.09.81c0,.46,0,.87-.05,1.22s-.07.67-.11.94-.09.52-.13.74a5.42,5.42,0,0,0-.1.65A10.74,10.74,0,0,1,31,50.39c-.22.5-.45,1-.71,1.48a13.22,13.22,0,0,1-.82,1.38,7.86,7.86,0,0,1-.81,1.06c-.43.17-.87.34-1.32.5s-.95.31-1.51.46l-1.59.28a.13.13,0,0,1,.09-.14c.05,0,.05,0,0,0Zm1-2.64a1.65,1.65,0,0,0,0,.21c0,.09,0,.14.17.15a1.11,1.11,0,0,0,.53-.19,1.43,1.43,0,0,0,.38-.48l1.39-2.64.08-.24a3,3,0,0,0,.06-1,4.62,4.62,0,0,1,0-1.05c0-.12-.09-.19-.25-.19h0l.27,0a2.57,2.57,0,0,1-.39.09l-.53.11-.49.1c-.15,0-.24,0-.25.06A.64.64,0,0,0,25,47s-.06.07-.09.16l0,.1c.39,0,.61.15.66.35a1.51,1.51,0,0,1,0,.78,9.17,9.17,0,0,1-.59,1.85A8.5,8.5,0,0,0,24.33,52.07Z" style="fill:#423c25"/><path d="M37.46,61.1l-.21-.24a.71.71,0,0,0-.22-.22s-.06,0-.22-.06l-.31,0a1.25,1.25,0,0,1-.12-.27.25.25,0,0,0-.12,0l-.15,0a1,1,0,0,0-.51.11,2.38,2.38,0,0,0-.45.4h-.37c-.05,0-.07,0-.06-.11a11.43,11.43,0,0,1,.37-1.77l.52-1.73.62-2.23.12-.22.17-.24a1.33,1.33,0,0,1-.8.32,7.46,7.46,0,0,0-.93.14c-.08.43-.17.86-.27,1.28s-.22.84-.35,1.26L33.43,60l-.1.41a.54.54,0,0,0-.18.1.5.5,0,0,1-.13.09H32.9l-.39-.19h-.12a.36.36,0,0,0-.09.18.38.38,0,0,1-.12.21l-.25,0a.65.65,0,0,1-.28-.07s0,0,0-.07a.11.11,0,0,0-.06-.12v-.12c0-.1,0-.15,0-.17h0a.21.21,0,0,0-.18.13c-.06.09-.12.19-.2.3a1.27,1.27,0,0,1-.27.3.63.63,0,0,1-.41.13l-.54-.22-.38-.16c-.12,0-.18-.08-.18-.1a2.07,2.07,0,0,0,.11-.27c0-.12.08-.26.13-.42l.29-1q0-.24.09-.42c0-.12.06-.21.07-.28a1.11,1.11,0,0,0,.06-.26c0-.13,0-.26.07-.41s0-.27.08-.39a2,2,0,0,0,0-.23s0-.07,0-.15a2,2,0,0,0,0-.26v-.41l0-.09.12-.18c.06-.11.13-.22.2-.33s.14-.22.21-.32L31,55l.05-.16c.19-.68.37-1.33.54-2s.33-1.28.5-1.92l.52-2c.17-.66.37-1.35.57-2.07L33.4,46a2.07,2.07,0,0,1,1-.46,2.37,2.37,0,0,1,.21.24.71.71,0,0,0,.23.22s.08,0,.24.06a1,1,0,0,1,.28,0,1.25,1.25,0,0,1,.12.27l.14,0h.15a1,1,0,0,0,.52-.1,2.43,2.43,0,0,0,.44-.4h.35c.06,0,.08,0,.06.11a10.37,10.37,0,0,1-.37,1.77c-.19.63-.35,1.2-.49,1.73l-.65,2.23a.16.16,0,0,0,0,.1s0,0,0,0l-.05,0a7.06,7.06,0,0,0,.77-.1,6.48,6.48,0,0,1,.77-.09,16.37,16.37,0,0,1,.61-2.53c.26-.83.52-1.67.78-2.54l.12-.4a.79.79,0,0,0,.16-.1l.13-.1H39l.4.2h.12l.23-.18a2.16,2.16,0,0,1,.3-.21l.19.1s0,0,0,.07a.16.16,0,0,0,0,.12c0,.18,0,.27,0,.29h0c.06,0,.12-.05.18-.13a3.11,3.11,0,0,1,.2-.3,1.15,1.15,0,0,1,.28-.3.61.61,0,0,1,.42-.14l.51.23.39.16.18.09a1.63,1.63,0,0,0-.11.28c0,.12-.09.26-.13.42l-.29,1q0,.24-.09.42a1,1,0,0,1-.08.27,1.41,1.41,0,0,0-.06.27c0,.13,0,.26-.07.41s0,.27-.07.39a1.17,1.17,0,0,0,0,.23,1,1,0,0,1,0,.14,2.26,2.26,0,0,0,0,.27v.41l0,.09a.71.71,0,0,1-.19.24,1.16,1.16,0,0,0-.22.29l0,.17c-.42,1.45-.8,2.86-1.15,4.21s-.77,2.76-1.23,4.21l-.24.84A2.16,2.16,0,0,1,37.46,61.1Z" style="fill:#423c25"/><path d="M45.31,55.91a.13.13,0,0,0-.1,0l-.19.38a4.89,4.89,0,0,1-.22.65c-.11.3-.22.62-.34,1s-.24.66-.34,1a5.58,5.58,0,0,0-.2.65.82.82,0,0,1-.09.35,1.2,1.2,0,0,1-.16.3c0,.06-.06.09-.14.09l-.12,0-.11,0s-.06,0-.06,0l-.16.77H43c-.1,0-.15,0-.15,0-.32,0-.52-.18-.59-.4a.79.79,0,0,1,.16-.71l-.1-.07h-.07a.28.28,0,0,0-.21.11,1,1,0,0,0-.17.24l-.13.25a.41.41,0,0,1-.14.17h0l-.05,0H41l-.25,0-.25,0h-.14a.32.32,0,0,1-.36-.21,1.19,1.19,0,0,1-.1-.51,3.83,3.83,0,0,1,0-.6,2.4,2.4,0,0,1,.09-.41l0-.14.08-.21a.21.21,0,0,0,0-.15l0-.1L42.12,53l.08-.22.08-.23a.73.73,0,0,0,.14-.24l.17-.41a2.66,2.66,0,0,0,.16-.41c0-.13.07-.21.08-.24L43,51l.21-.43c.08-.16.16-.31.24-.44s.15-.21.19-.26l.17-.19a1,1,0,0,0,.15-.19l0-.1,0-.1h-.24l-.38,0a1.53,1.53,0,0,1-.34-.09q-.14-.06-.09-.18l.14-.18c.1-.1.15-.17.15-.2l.13,0,.21-.06.2-.07s.07,0,0-.06l-.45-.26.1-.31s0-.06,0-.12,0-.08,0-.1a.55.55,0,0,1,.22-.1l.23,0,.2,0a.15.15,0,0,0,.12-.12l-.43-.55c-.1-.13-.06-.25.12-.37a3.07,3.07,0,0,1,.76-.34,11.83,11.83,0,0,1,1.16-.27c.43-.08.85-.16,1.26-.22s.77-.11,1.1-.14a6,6,0,0,1,.68,0,2,2,0,0,1,.69.06,3,3,0,0,0,.66.08.47.47,0,0,0,.19-.07.48.48,0,0,1,.24-.05h.1a4.76,4.76,0,0,1,1,.39,4.36,4.36,0,0,1,.82.55,2.24,2.24,0,0,1,.54.53,1.17,1.17,0,0,1,.06.72l-.48.43.33.19-.07.38-.07.22a3.6,3.6,0,0,0,0,1,3,3,0,0,1-.1,1.06.9.9,0,0,1-.19.42,1.62,1.62,0,0,1-.43.35l-2.28,2.71-.1.36c.12.86.21,1.75.29,2.67a9,9,0,0,1-.19,2.78,1.79,1.79,0,0,1-.39,0l-.23,0-.21,0a1.15,1.15,0,0,0-.3,0,.14.14,0,0,0,0,.12.1.1,0,0,1,0,.12,1.67,1.67,0,0,1-.18.23,2.86,2.86,0,0,1-.3.32,2.71,2.71,0,0,1-.32.29.46.46,0,0,1-.25.12c-.1,0-.16,0-.17-.09a1.37,1.37,0,0,1,0-.23.41.41,0,0,0-.06-.23.19.19,0,0,0-.19-.1.26.26,0,0,0-.14.09c-.07,0-.13.11-.21.18l-.2.19-.14.12a.42.42,0,0,1-.15.1.44.44,0,0,1-.42-.3,3.55,3.55,0,0,1-.24-.84c-.05-.35-.09-.73-.11-1.16s0-.83,0-1.22,0-.74,0-1.06,0-.53,0-.66S45.43,55.91,45.31,55.91Zm.81-2.68,0,.16q0,.11.12.15a2.74,2.74,0,0,0,.66-.19.9.9,0,0,0,.46-.44l1.39-2.16,0-.21a.61.61,0,0,0,0-.42,3.56,3.56,0,0,0-.17-.41c-.06-.14-.12-.27-.17-.41a.75.75,0,0,1-.06-.42c0-.11,0-.17-.2-.17h-.07l-.35.06-.44.08-.4.06a.55.55,0,0,0-.2,0l-.2,0a.32.32,0,0,0-.09.15v.07a.76.76,0,0,1,.63.3,1.13,1.13,0,0,1,.09.66,7.91,7.91,0,0,1-.49,1.52A9.86,9.86,0,0,0,46.12,53.23Z" style="fill:#423c25"/><path d="M51.64,59.83h-.09l-.12.09-.27.94s0,0,0,0A.24.24,0,0,0,51,61H51c-.1,0-.16-.08-.2-.24a.51.51,0,0,1,0-.31,1.91,1.91,0,0,0,.06-.27,4.1,4.1,0,0,1,.11-.4c0-.13.07-.25.11-.37l.08-.25A.26.26,0,0,1,51,59l.05-.17,0-.14.24-.74c.11-.34.24-.72.39-1.13s.32-.86.48-1.32l.48-1.32c.16-.42.29-.79.41-1.13s.21-.58.25-.74c.21-.37.44-.74.68-1.11a10.17,10.17,0,0,0,.62-1.1l1.14-2.33a15.1,15.1,0,0,1,1.4-2.28c.05-.05.12,0,.2.07a4.07,4.07,0,0,1,.25.35l.25.38c.08.12.14.18.17.18s.1-.06.15-.18a3.34,3.34,0,0,0,.16-.38l.14-.37q.08-.16.12-.15h2.21l.48-.16s.08,0,.1.06a1,1,0,0,1,0,.19l0,.2c0,.07,0,.1.06.1a1,1,0,0,0,.25,0,1.38,1.38,0,0,1,.29,0,.41.41,0,0,1,.21.1c.06,0,.07.13,0,.24l-.67,2.3a1.46,1.46,0,0,0-.05.54,5.06,5.06,0,0,0,.08.52c0,.17.08.35.11.51a2.38,2.38,0,0,1,0,.54c0,.2-.13.53-.23,1s-.21,1-.33,1.5-.22,1-.32,1.5-.18.8-.23,1l0,.09a19.63,19.63,0,0,1-.29,2.29c-.14.76-.33,1.54-.55,2.32a1.91,1.91,0,0,1-.64-.1,2.18,2.18,0,0,0-.63-.09.23.23,0,0,0-.18.09l-.17.21-.18.2a.3.3,0,0,1-.22.1c-.08,0-.11-.06-.09-.17a2.83,2.83,0,0,1,.06-.37c0-.14,0-.26.06-.37s0-.17-.08-.17,0,0-.1.11a1.84,1.84,0,0,0-.17.22l-.25.34s-.08.12-.17.28a.83.83,0,0,1-.24.27s0,.07-.12.1v0h-.05c-.24,0-.36-.15-.37-.47a5.52,5.52,0,0,1,.08-1c.07-.37.12-.72.17-1s0-.47-.12-.47h-.67a.6.6,0,0,0-.55.22l-.34,1.15-.31,1.15a2.87,2.87,0,0,1-.18.42,1.39,1.39,0,0,1-.16.3l-.14.1H52.39L52,60.76l-.21-.09a.34.34,0,0,1,0-.21,1.38,1.38,0,0,1,.08-.27.61.61,0,0,0,0-.26C51.81,59.86,51.75,59.83,51.64,59.83Zm4.73-5.24a1.38,1.38,0,0,0-.07.2c0,.09,0,.15.09.16a3.26,3.26,0,0,0,.68-.12.62.62,0,0,0,.48-.4.19.19,0,0,1,.08-.1.19.19,0,0,0,.08-.1,3.21,3.21,0,0,1,0-.4c0-.2.07-.4.1-.62s.07-.42.11-.61a3.5,3.5,0,0,1,.1-.41,1.29,1.29,0,0,1,0-.19c0-.09,0-.19,0-.29a1.15,1.15,0,0,0,0-.26q0-.12-.06-.12c-.15,0-.31.16-.49.48s-.37.68-.56,1.07-.34.76-.46,1.1S56.39,54.53,56.37,54.59Z" style="fill:#423c25"/><path d="M60.57,59.9v0c0-.05.08-.08.19-.11l.35-.07.47-.08s0-.07,0-.16a2.1,2.1,0,0,0-.13-.26,3.57,3.57,0,0,0-.22-.35l1.47,0c0-.05,0-.09-.12-.14a1.11,1.11,0,0,0-.29-.1l-.55-.12c-.15,0-.27-.1-.39-.31,0,0,.07-.07.09-.16a2.41,2.41,0,0,1,.08-.25,1.34,1.34,0,0,1,.13-.23.26.26,0,0,1,.21-.1,1.12,1.12,0,0,1,.59.2,1.37,1.37,0,0,0,.78.2,1.32,1.32,0,0,0,.62-.15,1.92,1.92,0,0,0,.5-.39,2.64,2.64,0,0,0,.38-.5,2.5,2.5,0,0,0,.23-.54.29.29,0,0,1,.21-.17c.11,0,.16-.09.14-.17l-.15-.18-.29-.33c-.1-.12-.2-.23-.28-.34a.51.51,0,0,1-.12-.2,1,1,0,0,0-.08-.31c-.06-.16-.11-.34-.17-.53a5.52,5.52,0,0,0-.17-.53,2,2,0,0,1-.08-.29c-.13-.3-.24-.55-.32-.75a2.32,2.32,0,0,1-.19-.6,2.22,2.22,0,0,1,0-.69,6.09,6.09,0,0,1,.24-1,8.4,8.4,0,0,1,.81-1.92,4.67,4.67,0,0,1,1.24-1.41,5.32,5.32,0,0,1,1.82-.88,9,9,0,0,1,2.47-.3h.07s0,0-.07.1l-.22.23-.21.22c-.07.07-.09.1-.08.1a.62.62,0,0,0,.18-.07l.36-.15a3.35,3.35,0,0,0,.38-.14.67.67,0,0,1,.21-.07,1.22,1.22,0,0,1,.41.06c.11,0,.14.15.1.32a.38.38,0,0,1-.15.21.69.69,0,0,1-.23.09l-.25.07a.38.38,0,0,0-.19.14l-.14.15-.32.28-.4.36L71,46.89s0,.06,0,.18,0,.26,0,.41,0,.3-.07.44l-.06.29a.68.68,0,0,1-.41.42,5,5,0,0,1-.67.25l-.3.07-.42.11-.41.11-.29.07q-.32.16-.33.36A.71.71,0,0,0,68,50c0,.17,0,.34.09.52l.09.52a2.47,2.47,0,0,1,0,.34l-.48.68.3-.1a.49.49,0,0,1,.18,0c.18,0,.32.14.43.41s.15.46.25.8a10.78,10.78,0,0,1,.28,1.12c.08.4.14.79.18,1.16a2.48,2.48,0,0,1,0,.93l0,.05a5.45,5.45,0,0,0-.68,1.06,4.62,4.62,0,0,1-.71,1.05l-.28.32-.42.48a4.9,4.9,0,0,1-.43.47,3.68,3.68,0,0,1-.34.31,1.76,1.76,0,0,1-.79.36,9.87,9.87,0,0,1-1.18.23c-.43.06-.84.1-1.24.12l-.91,0a2.37,2.37,0,0,1-.51-.08,3.31,3.31,0,0,1-.61-.19,2.12,2.12,0,0,1-.5-.27A.33.33,0,0,1,60.57,59.9Z" style="fill:#423c25"/><path d="M69.62,58.65a6.19,6.19,0,0,1,.47-1.15,6.41,6.41,0,0,0,.46-1.15,17.86,17.86,0,0,0,.52-2.26,17.86,17.86,0,0,1,.52-2.26,9.43,9.43,0,0,1,.52-1.32,7.16,7.16,0,0,0,.51-1.29l0-.1.1-.26v-.07c0-.08-.09-.14-.23-.17a.77.77,0,0,0-.37,0l-.41-.46s0,0,0-.09l.42-.51c.1-.13.2-.24.3-.35a1.34,1.34,0,0,0,.17-.2l.45-.1.17,0a1.78,1.78,0,0,0-.23-.17.69.69,0,0,0-.39-.14s0-.06,0-.07a.68.68,0,0,1,.37-.4,3.11,3.11,0,0,1,.71-.24,5.63,5.63,0,0,1,.85-.11l.78,0h.46q.81,0,1.59.06c.52,0,1.05.06,1.6.06a1.93,1.93,0,0,0,.49-.06,1.93,1.93,0,0,1,.49-.06l0,.19c0,.13-.09.19-.1.19l-.16.23a1.26,1.26,0,0,0-.15.23l-.08.19-.55.31.39.31,0,.2a1.36,1.36,0,0,1-.43.48,3.54,3.54,0,0,1-.7.36l-.76.24a5.36,5.36,0,0,1-.61.12l-.12.09a.44.44,0,0,0-.07.19l-.12.41a4.45,4.45,0,0,1-.13.45c-.06.15-.1.27-.13.37l0,.09a.65.65,0,0,0,0,.17.16.16,0,0,1-.1.15l-.45.24.38,0s.06,0,0,.12l-.1.22,0,.09c0,.07,0,.1,0,.1H76a4.36,4.36,0,0,0,.94-.1,4.92,4.92,0,0,1,.91-.09.35.35,0,0,1,.35.16.57.57,0,0,1,0,.39.64.64,0,0,1-.27.29l-.5.27-.5.24q-.21.11-.24.18s0,.06.16.09a3,3,0,0,1,.33.1,1.4,1.4,0,0,1,.32.18.26.26,0,0,1,0,.33,1,1,0,0,1-.45.56,1.94,1.94,0,0,1-.64.22c-.23,0-.46.07-.7.09a2,2,0,0,0-.66.21,1.59,1.59,0,0,0-.16.3,5.19,5.19,0,0,0-.23.57q-.1.33-.21.6c-.06.19-.1.3-.12.35v0c0,.09,0,.2,0,.33l-.06.39a2.59,2.59,0,0,0-.06.45H76q.15,0,.18.06a.24.24,0,0,1,0,.15s0,.11,0,.18a.22.22,0,0,0,0,.16.17.17,0,0,0,.1.14l.19.13a.53.53,0,0,1,.15.2.47.47,0,0,1,0,.35.45.45,0,0,1-.29.3,3.84,3.84,0,0,1-.51.19l-.52.18A.46.46,0,0,0,75,60a1.09,1.09,0,0,1,.17.26l0,.07a.38.38,0,0,1-.28.31,2.84,2.84,0,0,1-.54.08,12.17,12.17,0,0,0-1.25.14,2.4,2.4,0,0,1-1,0l-.72-.2-.34.2a.56.56,0,0,1-.35,0,2.08,2.08,0,0,0-.39-.05H70a1.14,1.14,0,0,1-.56-.93A3.65,3.65,0,0,1,69.62,58.65Z" style="fill:#423c25"/><path d="M77,59.9v0c0-.05.08-.08.19-.11l.35-.07.47-.08s0-.07,0-.16a2.1,2.1,0,0,0-.13-.26c0-.09-.12-.21-.21-.35l1.46,0c0-.05,0-.09-.12-.14a1.11,1.11,0,0,0-.29-.1l-.55-.12c-.14,0-.27-.1-.38-.31a.26.26,0,0,0,.08-.16,2.41,2.41,0,0,1,.08-.25,1.42,1.42,0,0,1,.14-.23.23.23,0,0,1,.2-.1,1.09,1.09,0,0,1,.59.2,1.37,1.37,0,0,0,.78.2,1.32,1.32,0,0,0,.62-.15,2.16,2.16,0,0,0,.51-.39,3.08,3.08,0,0,0,.37-.5,2.5,2.5,0,0,0,.23-.54.29.29,0,0,1,.21-.17c.11,0,.16-.09.15-.17a1.18,1.18,0,0,1-.16-.18l-.29-.33L81,55.06a.51.51,0,0,1-.12-.2,1.19,1.19,0,0,0-.09-.31L80.57,54c0-.19-.11-.37-.16-.53a1.44,1.44,0,0,1-.09-.29c-.13-.3-.23-.55-.32-.75a2.78,2.78,0,0,1-.19-.6,2.22,2.22,0,0,1,0-.69,9.17,9.17,0,0,1,.24-1,8.4,8.4,0,0,1,.81-1.92,4.71,4.71,0,0,1,1.25-1.41,5.18,5.18,0,0,1,1.81-.88,9.08,9.08,0,0,1,2.47-.3h.07s0,0-.07.1l-.22.23-.21.22c-.07.07-.09.1-.07.1l.18-.07.36-.15.37-.14a.67.67,0,0,1,.21-.07,1.22,1.22,0,0,1,.41.06c.11,0,.15.15.1.32a.34.34,0,0,1-.15.21.73.73,0,0,1-.22.09l-.26.07a.38.38,0,0,0-.19.14l-.14.15-.31.28a5.26,5.26,0,0,0-.41.36l1.61-.65s0,.06,0,.18,0,.26,0,.41,0,.3-.07.44l-.06.29a.68.68,0,0,1-.41.42,4.55,4.55,0,0,1-.67.25l-.3.07-.42.11-.41.11-.29.07q-.32.16-.33.36a.71.71,0,0,0,0,.37l.09.52.09.52a1.5,1.5,0,0,1,0,.34l-.48.68.3-.1a.49.49,0,0,1,.18,0c.18,0,.32.14.43.41s.15.46.26.8.19.72.27,1.12.14.79.18,1.16a2.75,2.75,0,0,1,0,.93l0,.05A5.45,5.45,0,0,0,85,57.41a4.62,4.62,0,0,1-.71,1.05l-.28.32-.42.48a4.9,4.9,0,0,1-.43.47,3.86,3.86,0,0,1-.33.31,1.81,1.81,0,0,1-.8.36,9.49,9.49,0,0,1-1.18.23c-.43.06-.84.1-1.24.12l-.91,0a2.37,2.37,0,0,1-.51-.08,3.57,3.57,0,0,1-.61-.19,2.12,2.12,0,0,1-.5-.27A.33.33,0,0,1,77,59.9Z" style="fill:#423c25"/><rect x="0.18" y="-0.54" width="125" height="80" style="fill:none;stroke:#423c25;stroke-miterlimit:10;stroke-width:2px"/></g></svg>