<svg id="abd72bd6-f73a-44a1-8c9d-c8bd3ebbf042" data-name="icon vecto" xmlns="http://www.w3.org/2000/svg" width="125" height="80" viewBox="0 0 125 80"><title>barbare-mots</title><g id="b1296e75-e84c-4f28-804b-9b2ba4a74de8" data-name="barbare mots - copie"><rect x="0.18" y="-0.22" width="125" height="80" style="fill:#fff"/><path d="M129.16,18.4l-7.4-.36a.13.13,0,0,1-.09-.07v0l1.3-4.15a.05.05,0,0,1,0,0h0Z" style="fill:#423c25"/><path d="M124.51,1.89l-2.92,5.54a.23.23,0,0,1-.2.13.24.24,0,0,1-.14,0L118.07,4.9a.1.1,0,0,1,0-.14.1.1,0,0,1,0,0Z" style="fill:#423c25"/><path d="M123,13.72a2.66,2.66,0,0,0,1.51-1l10.71,7.67-13.4-.64a2.72,2.72,0,0,0-.2-1.75l0,0a.13.13,0,0,0,.09.07l7.4.36L123,13.76h0Z" style="fill:#fff"/><path d="M121.59,7.43l2.92-5.54-6.42,2.82a.1.1,0,0,0,0,0l-.11,0a2.58,2.58,0,0,0-.14-1.8l12-6.22L123,8.31a2.74,2.74,0,0,0-1.64-.63V7.56A.23.23,0,0,0,121.59,7.43Z" style="fill:#fff"/><path d="M117,22.11a.12.12,0,0,1,0,.1l-.24,7.54-4-6.33a.16.16,0,0,1,0-.15.15.15,0,0,1,.11-.11l4-1.08A.12.12,0,0,1,117,22.11Z" style="fill:#423c25"/><path d="M113.88,11.72a2.32,2.32,0,1,1-3.27.29A2.33,2.33,0,0,1,113.88,11.72Z" style="fill:#fff"/><path d="M117,22.05a2.87,2.87,0,0,0,1.3.48V36.24l-7.2-11.32a2.52,2.52,0,0,0,1.46-1.54l0-.13.13,0a.16.16,0,0,0,0,.15l4,6.33.24-7.54a.12.12,0,0,0,0-.1Z" style="fill:#fff"/><path d="M111.85,2.72a.16.16,0,0,1,0,.15.2.2,0,0,1-.12.12L108,4.16a.17.17,0,0,1-.2-.1.15.15,0,0,1,0-.07l.73-7.26Z" style="fill:#423c25"/><path d="M111.86,2.87a.16.16,0,0,0,0-.15l-3.33-6L107.79,4a.15.15,0,0,0,0,.07l-.09.1a2.77,2.77,0,0,0-1.77-.72l1-13.49,6.54,11.7A2.69,2.69,0,0,0,112,2.92Z" style="fill:#fff"/><path d="M106.71,21.1a.09.09,0,0,1,0,.11l0,0-7,3.87L103.4,19a.14.14,0,0,1,.13-.08.16.16,0,0,1,.09,0Z" style="fill:#423c25"/><path d="M103.4,19l-3.65,6.12,7-3.87,0,0,.05,0a2.35,2.35,0,0,0-.17.44,2.68,2.68,0,0,0,.35,1.88L94.89,29.68l6.9-11.5a2.84,2.84,0,0,0,1.73.66v.07A.14.14,0,0,0,103.4,19Z" style="fill:#fff"/><path d="M102.25,12.65a.15.15,0,0,0,.09-.1l1.13-3.61a.14.14,0,0,0,0-.15l.07-.08c1,.73,2.5.34,3.39-.25.11-.07,2-1.34,1.49-3.12a2.47,2.47,0,0,0-.67-1.18l.09-.1a.17.17,0,0,0,.2.1L111.74,3a.2.2,0,0,0,.12-.12l.1,0a1.07,1.07,0,0,0-.07.19c-.42,1.28.74,2.61,1.76,3.15.11.06,2.11,1.1,3.46-.16a3,3,0,0,0,.83-1.38l.11,0a.1.1,0,0,0,0,.14l3.18,2.61a.24.24,0,0,0,.14,0v.12a2,2,0,0,0-.41,0c-1.31.31-1.85,2-1.8,3.13,0,.13.14,2.37,1.9,2.89a3.55,3.55,0,0,0,1.91,0v0a.05.05,0,0,0,0,0l-1.3,4.15v0l0,0a1.67,1.67,0,0,0-.21-.33c-.87-1-2.6-.75-3.61-.17-.11.06-2,1.21-1.69,3a2.37,2.37,0,0,0,.91,1.52l0,.06a.12.12,0,0,0-.12,0l-4,1.08a.15.15,0,0,0-.11.11l-.13,0c.23-1.26-1-2.44-2-2.92-.12,0-2.16-1-3.44.36a2.53,2.53,0,0,0-.41.55l-.05,0a.09.09,0,0,0,0-.11l-3.09-2.16a.16.16,0,0,0-.09,0v-.07a1.76,1.76,0,0,0,.31,0c1.31-.28,1.89-1.94,1.86-3.1,0-.13-.1-2.37-1.86-2.92a2.86,2.86,0,0,0-1.56,0ZM114.17,15a2.32,2.32,0,1,0-3.27.29A2.33,2.33,0,0,0,114.17,15Z" style="fill:#423c25"/><path d="M102.34,12.55a.15.15,0,0,1-.09.1.21.21,0,0,1-.13,0l-6.5-4,7.7.15a.12.12,0,0,1,.11,0,.14.14,0,0,1,0,.15Z" style="fill:#423c25"/><path d="M102.25,12.65l0,.08a2.65,2.65,0,0,0-1.49,1l-11.47-7,13.42-.24a2.57,2.57,0,0,0,.55,2.05,1.3,1.3,0,0,0,.22.19l-.07.08a.12.12,0,0,0-.11,0l-7.7-.15,6.5,4A.21.21,0,0,0,102.25,12.65Z" style="fill:#fff"/><path d="M121.4,7.68a2.74,2.74,0,0,1,1.64.63L129.76-3.3l-12,6.22a2.58,2.58,0,0,1,.14,1.8,3,3,0,0,1-.83,1.38c-1.35,1.26-3.35.22-3.46.16-1-.54-2.18-1.87-1.76-3.15a1.07,1.07,0,0,1,.07-.19,2.69,2.69,0,0,1,1.47-1.27L106.89-10l-1,13.49a2.77,2.77,0,0,1,1.77.72,2.47,2.47,0,0,1,.67,1.18c.47,1.78-1.38,3.05-1.49,3.12-.89.59-2.43,1-3.39.25a1.3,1.3,0,0,1-.22-.19,2.57,2.57,0,0,1-.55-2l-13.42.24,11.47,7.05a2.65,2.65,0,0,1,1.49-1,2.86,2.86,0,0,1,1.56,0c1.76.55,1.85,2.79,1.86,2.92,0,1.16-.55,2.82-1.86,3.1a1.76,1.76,0,0,1-.31,0,2.84,2.84,0,0,1-1.73-.66l-6.9,11.5L107,23.56a2.68,2.68,0,0,1-.35-1.88,2.35,2.35,0,0,1,.17-.44,2.53,2.53,0,0,1,.41-.55c1.28-1.33,3.32-.41,3.44-.36,1,.48,2.2,1.66,2,2.92l0,.13a2.52,2.52,0,0,1-1.46,1.54l7.2,11.32V22.53a2.87,2.87,0,0,1-1.3-.48,2.37,2.37,0,0,1-.91-1.52c-.35-1.81,1.58-3,1.69-3,1-.58,2.74-.86,3.61.17a1.67,1.67,0,0,1,.21.33,2.72,2.72,0,0,1,.2,1.75l13.4.64-10.71-7.67a2.66,2.66,0,0,1-1.51,1,3.55,3.55,0,0,1-1.91,0c-1.76-.52-1.9-2.76-1.9-2.89,0-1.16.49-2.82,1.8-3.13A2,2,0,0,1,121.4,7.68Z" style="fill:none;stroke:#423c25;stroke-miterlimit:10;stroke-width:0.6007771492004395px"/><path d="M106.74,21.21l0,0-7,3.87L103.4,19a.14.14,0,0,1,.13-.08.16.16,0,0,1,.09,0l3.09,2.16A.09.09,0,0,1,106.74,21.21Z" style="fill:none;stroke:#423c25;stroke-miterlimit:10;stroke-width:0.6007771492004395px"/><path d="M112.74,23.27a.16.16,0,0,0,0,.15l4,6.33.24-7.54a.12.12,0,0,0,0-.1.12.12,0,0,0-.12,0l-4,1.08A.15.15,0,0,0,112.74,23.27Z" style="fill:none;stroke:#423c25;stroke-miterlimit:10;stroke-width:0.6007771492004395px"/><path d="M123,13.75h0l6.13,4.64-7.4-.36a.13.13,0,0,1-.09-.07v0l1.3-4.15A.05.05,0,0,1,123,13.75Z" style="fill:none;stroke:#423c25;stroke-miterlimit:10;stroke-width:0.6007771492004395px"/><path d="M118.05,4.76a.1.1,0,0,1,0,0l6.42-2.82-2.92,5.54a.23.23,0,0,1-.2.13.24.24,0,0,1-.14,0L118.07,4.9A.1.1,0,0,1,118.05,4.76Z" style="fill:none;stroke:#423c25;stroke-miterlimit:10;stroke-width:0.6007771492004395px"/><path d="M111.86,2.87a.16.16,0,0,0,0-.15l-3.33-6L107.79,4a.15.15,0,0,0,0,.07.17.17,0,0,0,.2.1L111.74,3A.2.2,0,0,0,111.86,2.87Z" style="fill:none;stroke:#423c25;stroke-miterlimit:10;stroke-width:0.6007771492004395px"/><path d="M102.25,12.65a.21.21,0,0,1-.13,0l-6.5-4,7.7.15a.12.12,0,0,1,.11,0,.14.14,0,0,1,0,.15l-1.13,3.61A.15.15,0,0,1,102.25,12.65Z" style="fill:none;stroke:#423c25;stroke-miterlimit:10;stroke-width:0.6007771492004395px"/><path d="M113.88,11.72a2.32,2.32,0,1,1-3.27.29A2.33,2.33,0,0,1,113.88,11.72Z" style="fill:none;stroke:#423c25;stroke-miterlimit:10;stroke-width:0.6007771492004395px"/><path d="M17.79,32.62a.2.2,0,0,1-.22,0,4,4,0,0,0-.7.06c-.24,0-.36,0-.38-.18a5.59,5.59,0,0,1-.68-.12l-.61-.14c-.13,0-.2,0-.22,0a.2.2,0,0,1,0-.1c-.15,0-.19-.08-.13-.1s.05-.06,0-.14,0-.23.28-.5a4.59,4.59,0,0,1-.08-.59,1,1,0,0,1,0-.42l.21-.7.27-.45s0-.08.12-.08.39,0,.79.08c0,0,0-.07-.12-.16a3.69,3.69,0,0,0-.28-.28l-.26-.25c-.07-.07-.09-.11-.06-.11l1.37-5.13s0-.06.12-.12L17.5,23l.26-.23c.08-.07.12-.11.12-.13s0-.09,0-.21,0-.27,0-.41v-.65l.12-.31.22-.52c.08-.18.16-.35.25-.51a1.17,1.17,0,0,1,.2-.29.9.9,0,0,1,.17-.21l.19-.2.08-.24h-.63c-.28,0-.41-.07-.36-.21a1.59,1.59,0,0,1,.09-.25,2.38,2.38,0,0,1,.11-.3l1.17-.08-.17-.09L19,18a3,3,0,0,1-.36-.17c-.11-.05-.16-.09-.16-.1l.14-.39.05-.14a3.21,3.21,0,0,0,.08-.36,1.35,1.35,0,0,0,0-.24A3,3,0,0,0,19,16a.72.72,0,0,1,.3-.48A2.67,2.67,0,0,1,20.44,15a13.66,13.66,0,0,1,1.62-.3,15.45,15.45,0,0,1,1.59-.13l1,0,.84.08.35,0h.56a6,6,0,0,1,1.06.43,5.21,5.21,0,0,1,.88.65,2.21,2.21,0,0,1,.66.59,1.12,1.12,0,0,1,.06.8A11.21,11.21,0,0,1,29,18.25c0,.35-.06.66-.1.93s-.09.52-.14.75-.09.44-.14.65a1.68,1.68,0,0,1-.47.85,4.57,4.57,0,0,1-.69.54l-.74.5a2,2,0,0,0-.57.72,2.59,2.59,0,0,1,.44.6,4,4,0,0,1,.34.79,3.14,3.14,0,0,1,.13.94A4.48,4.48,0,0,1,27,26.58l-.24.67q-.12.33-.3.75c-.12.28-.27.6-.45.94s-.39.73-.64,1.16a2.12,2.12,0,0,1-.25.48,1.6,1.6,0,0,1-.28.35,2.41,2.41,0,0,1-.4.29,6.3,6.3,0,0,1-.59.3,12.75,12.75,0,0,1-1.24.65,9.43,9.43,0,0,1-1.3.43h-.91l-.89.07a1.53,1.53,0,0,0-.37.08,1.89,1.89,0,0,1-.59,0l0-.24c.05-.19.05-.3,0-.31Zm2-3.91.47.15a5.87,5.87,0,0,0,.68.14.44.44,0,0,0,.32-.19c.17-.32.37-.66.59-1a5.18,5.18,0,0,0,.53-1.05l.05-.24-.34-.84a.6.6,0,0,0-.1-.33A1.36,1.36,0,0,0,21.7,25a2.88,2.88,0,0,0-.35-.26,1.13,1.13,0,0,0-.32-.13l-.22.82q-.07.24-.27.93c-.14.47-.31,1-.52,1.56a.33.33,0,0,1,0,.23l-.1.13Zm2.32-6.78a.33.33,0,0,0,.25.21,1.71,1.71,0,0,0,.54-.18,1.5,1.5,0,0,0,.4-.47l.81-.84.07-.24c.08-.34.16-.68.22-1a9.36,9.36,0,0,0,.12-1,.72.72,0,0,0-.21-.11l-.27-.1a3.67,3.67,0,0,0-.42.07l-.43.09-.35.09-.17,0-.2.05s-.05.07-.09.17l0,.1c.32,0,.48.13.47.31a4.51,4.51,0,0,1-.14.74,3.81,3.81,0,0,1-.16.61,3.26,3.26,0,0,1-.15.32c0,.08-.1.19-.15.31a2.79,2.79,0,0,0-.18.63S22,21.81,22.1,21.93Z" style="fill:#423c25"/><path d="M27.12,31.35H27l-.12.1-.27.93s0,0,0,0a.21.21,0,0,0-.1.06h-.07c-.1,0-.16-.08-.19-.24s0-.26,0-.31,0-.16.06-.28a3.75,3.75,0,0,1,.1-.39c0-.13.07-.26.11-.38l.09-.25a.21.21,0,0,1-.08-.14l.05-.17.05-.14.24-.75c.11-.33.24-.71.4-1.13L27.74,27q.24-.69.48-1.32c.15-.41.28-.79.4-1.12s.21-.59.26-.75c.2-.37.43-.73.67-1.1a8.82,8.82,0,0,0,.62-1.11l1.14-2.32A14.43,14.43,0,0,1,32.72,17c0-.05.11,0,.19.07a2.93,2.93,0,0,1,.25.35l.25.38c.08.12.14.18.17.18s.1-.06.16-.18l.15-.38c0-.14.1-.26.15-.38s.08-.16.12-.14h2.21l.47-.17a.08.08,0,0,1,.1.06A1.06,1.06,0,0,1,37,17a1.36,1.36,0,0,0,0,.21q0,.09.06.09a.9.9,0,0,0,.25,0,.92.92,0,0,1,.29,0,.49.49,0,0,1,.22.09.24.24,0,0,1,0,.24l-.67,2.31a1.7,1.7,0,0,0,0,.54,4.54,4.54,0,0,0,.09.51c0,.18.07.35.11.52a2.4,2.4,0,0,1,0,.54c-.05.19-.13.52-.23,1s-.21,1-.32,1.5-.22,1-.33,1.5-.18.8-.22,1l0,.1a17.7,17.7,0,0,1-.29,2.29c-.14.76-.33,1.53-.55,2.32a2.13,2.13,0,0,1-.63-.1,2.31,2.31,0,0,0-.64-.1.24.24,0,0,0-.18.1c-.06.06-.11.13-.17.2s-.12.14-.18.21a.3.3,0,0,1-.21.09c-.09,0-.12,0-.1-.16a3,3,0,0,1,.06-.38c0-.13,0-.26.06-.37s0-.17-.07-.17-.06,0-.11.11-.11.15-.17.23l-.25.34-.17.27a.91.91,0,0,1-.24.28s0,.06-.12.09v0h0c-.24,0-.36-.16-.37-.47a5.46,5.46,0,0,1,.08-1c.07-.38.12-.72.17-1s0-.47-.12-.47H31.3a.62.62,0,0,0-.55.21l-.34,1.16-.31,1.15a4.26,4.26,0,0,1-.18.42,2.43,2.43,0,0,1-.16.3l-.14.09H27.87l-.43-.45-.22-.1a.26.26,0,0,1,0-.2,1.64,1.64,0,0,1,.07-.28.57.57,0,0,0,0-.25C27.3,31.39,27.24,31.35,27.12,31.35Zm4.73-5.23-.07.19c0,.1,0,.15.1.17a5.68,5.68,0,0,0,.67-.12A.62.62,0,0,0,33,26a.22.22,0,0,1,.08-.09l.09-.1a2.07,2.07,0,0,1,0-.41c0-.19.06-.39.09-.61s.07-.42.11-.61a2,2,0,0,1,.11-.41.84.84,0,0,1,0-.19c0-.1,0-.19.05-.29a1.17,1.17,0,0,0,0-.26q0-.12-.06-.12c-.14,0-.31.16-.49.48a11.55,11.55,0,0,0-.55,1.06c-.19.4-.34.76-.47,1.11S31.87,26.06,31.85,26.12Z" style="fill:#423c25"/><path d="M41.93,27.44a.14.14,0,0,0-.09,0l-.19.39c0,.13-.11.34-.22.65s-.23.62-.35,1-.23.65-.33,1-.18.52-.21.64a.63.63,0,0,1-.08.35,1.59,1.59,0,0,1-.16.3c0,.07-.06.1-.14.1l-.12,0-.11.05s-.06,0-.06.05l-.17.77h-.12c-.09,0-.14,0-.14,0a.66.66,0,0,1-.59-.39.81.81,0,0,1,.15-.71c-.08-.05-.11-.07-.09-.07h-.07a.28.28,0,0,0-.22.1l-.17.24-.13.26a.36.36,0,0,1-.13.16h0l0,0h-.5l-.25,0-.26,0h-.14a.31.31,0,0,1-.36-.2,1.38,1.38,0,0,1-.09-.52,4,4,0,0,1,0-.6,3.21,3.21,0,0,1,.1-.4l0-.15.08-.2a.18.18,0,0,0,0-.16l0-.09,1.94-5.5a1.33,1.33,0,0,0,.09-.23c0-.12.06-.19.08-.23a.77.77,0,0,0,.13-.24c.06-.12.12-.26.18-.4a3.12,3.12,0,0,0,.16-.41l.08-.24.12-.27.22-.43c.08-.16.16-.3.24-.43a1.15,1.15,0,0,1,.19-.26l.17-.2a.82.82,0,0,0,.14-.19l0-.09,0-.1h-.24l-.39,0a1.14,1.14,0,0,1-.33-.08c-.1,0-.13-.1-.1-.18s0-.08.15-.18.14-.17.14-.21l.13,0,.22-.06.19-.07q.09,0,.06-.06L40,19.66l.1-.31s0-.05,0-.12,0-.08,0-.09a.51.51,0,0,1,.21-.1l.23,0a1.52,1.52,0,0,0,.21,0,.15.15,0,0,0,.11-.12l-.43-.55c-.09-.13,0-.26.12-.38a2.84,2.84,0,0,1,.77-.33,9.24,9.24,0,0,1,1.15-.28l1.26-.21q.61-.11,1.11-.15l.68-.05a2.61,2.61,0,0,1,.69.06,2.37,2.37,0,0,0,.65.09A.77.77,0,0,0,47,17s.12-.05.24-.05h.09a4.44,4.44,0,0,1,1.8.93,2.24,2.24,0,0,1,.54.53,1.12,1.12,0,0,1,.06.72l-.48.43.34.2-.07.38-.07.22a3.58,3.58,0,0,0-.05,1,3,3,0,0,1-.1,1.05.9.9,0,0,1-.19.42,1.59,1.59,0,0,1-.43.35L46.4,25.9l-.1.36c.11.87.21,1.76.29,2.68a9.27,9.27,0,0,1-.19,2.77l-.4,0-.23-.05-.2-.05-.3,0s0,.07,0,.12a.1.1,0,0,1,0,.12,2.64,2.64,0,0,1-.18.23l-.3.32a2.86,2.86,0,0,1-.33.29.43.43,0,0,1-.25.12c-.09,0-.15,0-.17-.1s0-.14,0-.23a.71.71,0,0,0-.06-.22.19.19,0,0,0-.19-.1s-.08,0-.15.08l-.2.18-.2.2-.15.12a.28.28,0,0,1-.14.09q-.27,0-.42-.3a2.64,2.64,0,0,1-.24-.84,9.36,9.36,0,0,1-.11-1.15c0-.42,0-.83,0-1.22s0-.75,0-1.06,0-.53,0-.66S42.06,27.44,41.93,27.44Zm.82-2.69,0,.17c0,.06,0,.11.12.14a2.26,2.26,0,0,0,.66-.19.9.9,0,0,0,.47-.43l1.39-2.16,0-.22a.61.61,0,0,0,0-.42,3.42,3.42,0,0,0-.17-.4L45,20.83a.88.88,0,0,1-.06-.42c0-.11,0-.17-.19-.17h-.07l-.35.06-.45.07-.39.06c-.12,0-.19,0-.2.05a.68.68,0,0,0-.21.05.31.31,0,0,0-.08.14v.07a.78.78,0,0,1,.62.3,1.05,1.05,0,0,1,.1.66,8.77,8.77,0,0,1-.49,1.53A9.75,9.75,0,0,0,42.75,24.75Z" style="fill:#423c25"/><path d="M50.45,32.7c-.05,0-.11,0-.19,0a4,4,0,0,0-.62,0c-.2,0-.29,0-.29-.14l-.61-.11-.54-.13q-.18,0-.18,0a.45.45,0,0,1,0-.08c-.12,0-.17-.08-.13-.09s.05-.06,0-.12,0-.21.22-.43a4.52,4.52,0,0,1,0-.51,1.21,1.21,0,0,1,0-.38l.17-.6.22-.41s0,0,.12,0l.67,0s0-.06-.11-.13L49,29.36l-.23-.22c-.06-.06-.08-.09,0-.09l1.2-4.47s0,0,.1-.1a2.05,2.05,0,0,0,.23-.2l.23-.2c.07-.06.11-.1.11-.12a.45.45,0,0,0,0-.17v-.36c0-.14,0-.27,0-.38s0-.18,0-.19a2.57,2.57,0,0,1,.09-.28c.05-.14.11-.28.18-.44s.15-.31.22-.45a.72.72,0,0,1,.18-.25.68.68,0,0,1,.14-.18q.15-.15.15-.18l.07-.19H51.1c-.26,0-.36-.06-.31-.19a2.13,2.13,0,0,1,.08-.23c.06-.13.09-.22.11-.25l1-.07s0-.05-.14-.09L51.51,20l-.31-.14c-.1,0-.15-.08-.15-.1l.15-.33a1,1,0,0,0,.08-.34c0-.18,0-.28,0-.31a2.76,2.76,0,0,0,.18-.53.67.67,0,0,1,.25-.41,2.43,2.43,0,0,1,1-.45,12.56,12.56,0,0,1,1.41-.27c.49-.06,1-.1,1.37-.12l.9,0,.72.07H58a5,5,0,0,1,.94.38,4.59,4.59,0,0,1,.77.55,2.44,2.44,0,0,1,.54.53,1.06,1.06,0,0,1,.06.7A11.06,11.06,0,0,1,60.14,21q-.14.68-.21,1.2a1.52,1.52,0,0,1-.42.74,3.51,3.51,0,0,1-.6.48c-.21.15-.43.29-.63.45a1.62,1.62,0,0,0-.51.61,2.29,2.29,0,0,1,.39.51,3.1,3.1,0,0,1,.27.69,3.53,3.53,0,0,1,.12.83,2.76,2.76,0,0,1-.13.92c-.08.19-.16.38-.23.58s-.15.4-.25.64-.22.52-.36.82-.33.65-.55,1a4.65,4.65,0,0,1-.23.41,1.81,1.81,0,0,1-.25.3,2,2,0,0,1-.35.25l-.49.27c-.4.22-.77.4-1.11.55a8.61,8.61,0,0,1-1.12.38h-.8l-.76.07-.36.07a1.84,1.84,0,0,1-.51,0l.07-.22a.86.86,0,0,0,0-.17v-.09Zm1.73-3.41a3.2,3.2,0,0,0,.42.13l.56.13a.49.49,0,0,0,.29-.17c.15-.28.32-.58.53-.9a3.84,3.84,0,0,0,.46-.9l0-.21-.28-.72a.82.82,0,0,0-.34-.58,1.3,1.3,0,0,0-.6-.33l-.17.72c0,.12-.11.39-.25.8s-.28.86-.44,1.36a.68.68,0,0,1-.12.31Zm2-5.89a.3.3,0,0,0,.19.18,1.33,1.33,0,0,0,.49-.17,1.1,1.1,0,0,0,.33-.41l.72-.72,0-.22c.08-.28.14-.58.2-.87a6.82,6.82,0,0,0,.11-.88.5.5,0,0,0-.19-.09l-.24-.1-.38.07-.37.09-.41.1-.22.05a.32.32,0,0,0-.09.15l0,.07c.3,0,.45.12.44.27a3,3,0,0,1-.13.64,3.55,3.55,0,0,1-.13.54,2.17,2.17,0,0,1-.12.26,2.51,2.51,0,0,0-.13.28,2.86,2.86,0,0,0-.15.55A.36.36,0,0,0,54.22,23.4Z" style="fill:#423c25"/><path d="M58.78,31.35h-.1a.48.48,0,0,1-.12.1l-.26.93s0,0,0,0l-.09.06h-.08c-.09,0-.16-.08-.19-.24a.51.51,0,0,1,0-.31,2.57,2.57,0,0,0,.06-.28,4,4,0,0,1,.11-.39c0-.13.07-.26.11-.38s.07-.2.08-.25a.19.19,0,0,1-.07-.14l0-.17.05-.14q.06-.24.24-.75c.11-.33.24-.71.39-1.13L59.39,27l.48-1.32.41-1.12c.12-.34.2-.59.25-.75.21-.37.43-.73.67-1.1a10.41,10.41,0,0,0,.63-1.11L63,19.26A15.1,15.1,0,0,1,64.37,17c0-.05.11,0,.19.07a2.89,2.89,0,0,1,.26.35l.25.38c.08.12.13.18.17.18s.1-.06.15-.18.11-.25.16-.38.09-.26.14-.38.09-.16.12-.14H68l.48-.17a.08.08,0,0,1,.1.06l0,.19,0,.21q0,.09.06.09a.86.86,0,0,0,.25,0,.93.93,0,0,1,.29,0,.45.45,0,0,1,.21.09c.06.05.07.13,0,.24l-.67,2.31a1.46,1.46,0,0,0,0,.54,3,3,0,0,0,.08.51c0,.18.08.35.11.52A1.93,1.93,0,0,1,69,22c0,.19-.12.52-.22,1s-.22,1-.33,1.5-.22,1-.32,1.5-.18.8-.23,1l0,.1a19.63,19.63,0,0,1-.29,2.29c-.15.76-.33,1.53-.55,2.32a2.2,2.2,0,0,1-.64-.1,2.2,2.2,0,0,0-.64-.1.28.28,0,0,0-.18.1l-.16.2c-.06.08-.12.14-.18.21a.33.33,0,0,1-.22.09c-.08,0-.11,0-.1-.16s0-.24.06-.38a2.83,2.83,0,0,0,.06-.37c0-.11,0-.17-.07-.17s0,0-.11.11l-.16.23-.26.34s-.07.12-.16.27a.91.91,0,0,1-.24.28s0,.06-.12.09v0h-.05c-.24,0-.37-.16-.37-.47a5.46,5.46,0,0,1,.08-1c.06-.38.12-.72.17-1s0-.47-.12-.47H63a.64.64,0,0,0-.56.21l-.33,1.16-.31,1.15-.18.42a2.43,2.43,0,0,1-.16.3l-.14.09H59.52l-.43-.45-.21-.1a.25.25,0,0,1,0-.2c0-.09,0-.18.07-.28a.47.47,0,0,0,0-.25C59,31.39,58.89,31.35,58.78,31.35Zm4.73-5.23a1.15,1.15,0,0,0-.07.19c0,.1,0,.15.09.17a5.34,5.34,0,0,0,.67-.12.59.59,0,0,0,.48-.41l.09-.09a.31.31,0,0,0,.08-.1,3.31,3.31,0,0,1,.05-.41c0-.19.06-.39.1-.61s.06-.42.1-.61a3.07,3.07,0,0,1,.11-.41,1.12,1.12,0,0,1,0-.19c0-.1,0-.19,0-.29a1.23,1.23,0,0,0,0-.26q0-.12-.06-.12c-.15,0-.31.16-.5.48s-.36.67-.55,1.06-.34.76-.47,1.11S63.52,26.06,63.51,26.12Z" style="fill:#423c25"/><path d="M73.59,27.44l-.1,0-.19.39a5.43,5.43,0,0,1-.22.65c-.11.3-.22.62-.34,1s-.24.65-.34,1-.17.52-.2.64a.79.79,0,0,1-.09.35,1.26,1.26,0,0,1-.15.3.14.14,0,0,1-.15.1l-.12,0-.11.05s-.06,0-.06.05l-.16.77h-.12q-.15,0-.15,0a.67.67,0,0,1-.59-.39.78.78,0,0,1,.16-.71l-.1-.07h-.07a.26.26,0,0,0-.21.1,1.77,1.77,0,0,0-.17.24L70,32.1a.38.38,0,0,1-.14.16h0l0,0h-.51l-.25,0-.25,0H68.6a.31.31,0,0,1-.36-.2,1.21,1.21,0,0,1-.1-.52,4,4,0,0,1,0-.6,2.24,2.24,0,0,1,.09-.4l0-.15a1.29,1.29,0,0,1,.09-.2.3.3,0,0,0,0-.16l0-.09,2-5.5.08-.23c0-.12.07-.19.08-.23a.73.73,0,0,0,.14-.24c0-.12.11-.26.18-.4s.11-.28.15-.41a4.64,4.64,0,0,1,.21-.51l.21-.43c.08-.16.16-.3.24-.43a1.58,1.58,0,0,1,.19-.26,1.77,1.77,0,0,0,.17-.2c.1-.11.15-.17.15-.19l0-.09,0-.1H72l-.38,0a1.13,1.13,0,0,1-.34-.08q-.14-.06-.09-.18a.68.68,0,0,1,.14-.18c.1-.11.15-.17.15-.21l.13,0,.21-.06L72,20s.07,0,.06-.06l-.46-.27.1-.31s0-.05,0-.12,0-.08,0-.09a.62.62,0,0,1,.22-.1l.23,0a1.2,1.2,0,0,0,.2,0,.18.18,0,0,0,.12-.12L72,18.3c-.1-.13-.06-.26.12-.38a2.71,2.71,0,0,1,.77-.33,8.82,8.82,0,0,1,1.15-.28l1.26-.21c.41-.07.77-.12,1.1-.15l.69-.05a2.54,2.54,0,0,1,.68.06,2.5,2.5,0,0,0,.66.09.69.69,0,0,0,.19-.07.39.39,0,0,1,.24-.05H79a5.43,5.43,0,0,1,1,.38,5.6,5.6,0,0,1,.82.55,2.44,2.44,0,0,1,.54.53,1.12,1.12,0,0,1,.06.72l-.48.43.33.2-.07.38-.07.22a4,4,0,0,0,0,1A3.18,3.18,0,0,1,81,22.42a1,1,0,0,1-.2.42,1.45,1.45,0,0,1-.43.35L78.05,25.9l-.09.36c.11.87.2,1.76.28,2.68a9,9,0,0,1-.19,2.77l-.39,0-.23-.05-.21-.05-.3,0a.14.14,0,0,0,0,.12s0,.09,0,.12a2.64,2.64,0,0,1-.18.23,2.86,2.86,0,0,1-.3.32,4,4,0,0,1-.32.29.46.46,0,0,1-.25.12c-.1,0-.15,0-.17-.1a1.2,1.2,0,0,1,0-.23.4.4,0,0,0-.06-.22c0-.07-.09-.1-.19-.1a.29.29,0,0,0-.14.08l-.21.18-.2.2-.14.12a.32.32,0,0,1-.15.09q-.25,0-.42-.3a3.28,3.28,0,0,1-.24-.84c0-.34-.09-.73-.11-1.15s0-.83,0-1.22,0-.75,0-1.06,0-.53,0-.66S73.72,27.44,73.59,27.44Zm.81-2.69,0,.17c0,.06,0,.11.12.14a2.35,2.35,0,0,0,.66-.19.88.88,0,0,0,.46-.43L77,22.28l0-.22a.61.61,0,0,0,0-.42,3.33,3.33,0,0,0-.16-.4c-.07-.14-.13-.28-.18-.41a.77.77,0,0,1-.06-.42c0-.11,0-.17-.2-.17h-.07L76,20.3l-.44.07-.4.06a.52.52,0,0,0-.2.05.59.59,0,0,0-.2.05s-.06.06-.09.14v.07a.82.82,0,0,1,.63.3,1.13,1.13,0,0,1,.09.66,8,8,0,0,1-.49,1.53A9.75,9.75,0,0,0,74.4,24.75Z" style="fill:#423c25"/><path d="M80,30.18A6.22,6.22,0,0,1,80.46,29a5.92,5.92,0,0,0,.47-1.15,18.12,18.12,0,0,0,.52-2.25A19.69,19.69,0,0,1,82,23.36,9.83,9.83,0,0,1,82.49,22a8.07,8.07,0,0,0,.51-1.3l0-.09.1-.27v-.07c0-.08-.1-.13-.23-.17a.77.77,0,0,0-.37,0l-.41-.45s0-.05,0-.1l.42-.5a3.63,3.63,0,0,1,.3-.35l.17-.2.45-.1.17,0a1.58,1.58,0,0,0-.23-.17A.66.66,0,0,0,83,18.1s0-.05,0-.07a.64.64,0,0,1,.37-.39,2.28,2.28,0,0,1,.71-.24,4.59,4.59,0,0,1,.85-.11l.78,0h.45c.55,0,1.08,0,1.6.06s1,.06,1.6.06a1.93,1.93,0,0,0,.49-.06,1.88,1.88,0,0,1,.49-.06l0,.2a.78.78,0,0,1-.09.19l-.16.23-.16.22-.07.2-.55.31.38.31,0,.19a1.17,1.17,0,0,1-.44.48,2.66,2.66,0,0,1-.69.36,6,6,0,0,1-.76.24,3.07,3.07,0,0,1-.61.12l-.12.1a.31.31,0,0,0-.07.19l-.12.41c0,.14-.08.29-.13.44s-.1.28-.14.37l0,.1a.37.37,0,0,0,0,.17.16.16,0,0,1-.1.14l-.46.24.39,0s0,0,0,.12a2.2,2.2,0,0,1-.09.21l0,.1c0,.06,0,.09.05.09h.12a5.15,5.15,0,0,0,.94-.09,4.22,4.22,0,0,1,.91-.1.37.37,0,0,1,.35.17.6.6,0,0,1,0,.38.56.56,0,0,1-.27.29,4.86,4.86,0,0,1-.51.28l-.49.24q-.21.11-.24.18s.05.06.16.08l.33.11a1.15,1.15,0,0,1,.31.18c.09.07.1.18,0,.32a1,1,0,0,1-.46.57,2.13,2.13,0,0,1-.63.21c-.23,0-.47.08-.7.1a1.74,1.74,0,0,0-.66.2,2.33,2.33,0,0,0-.17.3,4.73,4.73,0,0,0-.22.58c-.08.22-.14.42-.21.6l-.12.35v0c0,.1,0,.21,0,.34a2.5,2.5,0,0,1-.06.38c0,.13,0,.28-.06.46h1.78q.15,0,.18.06a.22.22,0,0,1,0,.14,1.13,1.13,0,0,1,0,.18.25.25,0,0,0,0,.17c0,.05,0,.09.09.13l.2.13a.57.57,0,0,1,.15.21.47.47,0,0,1,0,.35.5.5,0,0,1-.29.3c-.16.07-.33.13-.51.19a3.52,3.52,0,0,0-.52.18.43.43,0,0,0-.29.26,1.52,1.52,0,0,1,.17.27l0,.07a.39.39,0,0,1-.28.31,3.25,3.25,0,0,1-.54.07,9.53,9.53,0,0,0-1.25.15,2.44,2.44,0,0,1-1,0l-.72-.19-.33.19a.49.49,0,0,1-.35,0,1.56,1.56,0,0,0-.4-.05h-.26a1.13,1.13,0,0,1-.56-.94A3.55,3.55,0,0,1,80,30.18Z" style="fill:#423c25"/><path d="M35.63,54.66,34.31,58.3a4.25,4.25,0,0,1-.42,1,4.77,4.77,0,0,0-.44,1,1,1,0,0,0,0,.31,1.08,1.08,0,0,0,0,.32.59.59,0,0,1-.34.2h-.31A1.88,1.88,0,0,1,32,61a1.74,1.74,0,0,1-.46-.28,1,1,0,0,1-.24-.27c-.05-.09-.1-.13-.14-.13l-.22.72s-.07,0-.16.07l-.23,0c-.19,0-.32-.11-.38-.35a3.2,3.2,0,0,1-.09-.8,7.19,7.19,0,0,1,.05-.92c.05-.32.08-.54.11-.69l.12-.41a4.34,4.34,0,0,0,.16-.62,6.13,6.13,0,0,1,.16-.65l.12-.38a34.3,34.3,0,0,1,1.28-3.78,39.27,39.27,0,0,0,1.31-3.78l0-.17c0-.06,0-.18.07-.34l0,0a.68.68,0,0,0,0-.28c0-.14,0-.28-.07-.43s-.06-.29-.09-.42a1.35,1.35,0,0,1,0-.24v-.27a.67.67,0,0,1,0-.24,1.91,1.91,0,0,1,.34-.63,4,4,0,0,0,.43-.76.35.35,0,0,1,.29-.26,1.15,1.15,0,0,1,.41,0l.41.11a.3.3,0,0,0,.28,0l-.57-1.06a.9.9,0,0,1,.29-.05c.19,0,.43,0,.73,0l1,.05a7.35,7.35,0,0,1,1,.12,3.59,3.59,0,0,1,.78.24.7.7,0,0,1,.4.37,1.68,1.68,0,0,1,0,.64c0,.28-.11.57-.16.87s-.11.6-.14.88a1.47,1.47,0,0,0,0,.64l0,.36.56.44.19.16-.65.55,1,2.52q.72-.75,1.29-1.47t1.08-1.44c.34-.48.66-.95,1-1.42s.63-.95,1-1.43c0,0,.07-.09.2-.17l.4-.26.41-.27c.13-.08.19-.13.19-.17s.18-.31.26-.46a1.66,1.66,0,0,1,.25-.41.94.94,0,0,1,.36-.29,1.43,1.43,0,0,1,.62-.11l.36,0c.19,0,.3,0,.34.09s0,.15,0,.21a.24.24,0,0,1,0,.18l-.06.1a1.39,1.39,0,0,0-.08.23.72.72,0,0,0,.44-.14l.34-.3a2.43,2.43,0,0,1,.34-.3.77.77,0,0,1,.49-.15,1.57,1.57,0,0,0-.11.41,1.49,1.49,0,0,1-.11.39c0,.09,0,.2.17.32a1,1,0,0,1,.24.32l-.1.34a3.9,3.9,0,0,1-.19.5.85.85,0,0,0-.07.51l.09.5a1.92,1.92,0,0,1,0,.63c0,.14-.05.29-.08.45s-.08.28-.13.45-.13.38-.21.66c-.19.65-.38,1.28-.57,1.88s-.39,1.2-.58,1.79-.38,1.19-.56,1.8l-.56,1.89a7.62,7.62,0,0,0-.2.82c-.06.34-.13.69-.2,1.06s-.14.72-.22,1.08-.15.64-.22.88a2,2,0,0,1-.32.33l-.38.3h-.15l-.33-.29h0a.73.73,0,0,0-.51.16c-.12.1-.26.2-.4.3h-.14L43,60.9h-.12a.41.41,0,0,0-.2.06.61.61,0,0,1-.3.06c-.45,0-.72-.07-.83-.21a.92.92,0,0,1,0-.75l.91-3.7.29-1.42c0-.16.07-.34.11-.54s0-.3,0-.32l-.08-.1c-.06,0-.09.07-.09.1a1.21,1.21,0,0,0-.29.28,1.11,1.11,0,0,1-.26.25,4.2,4.2,0,0,0-.4.6l-.61,1c-.23.36-.46.74-.7,1.11a7.57,7.57,0,0,1-.67.93l.1.43a1,1,0,0,1-.33.48.94.94,0,0,0-.32.45L39,60a2.13,2.13,0,0,1-.26.26.8.8,0,0,0-.22.27l-.38.86c-.21,0-.33,0-.36-.13a.73.73,0,0,1,0-.3,1,1,0,0,0,0-.3c0-.09-.11-.13-.29-.13,0,.11,0,.18,0,.21a.14.14,0,0,1,0,.12,1,1,0,0,1-.24.39l-.16,0-.24,0a1.07,1.07,0,0,1-.25,0h-.11a.52.52,0,0,1-.31-.24A1.12,1.12,0,0,1,36,60.7a3.53,3.53,0,0,1,0-.46c0-.17,0-.34,0-.5s0-.13,0-.31-.07-.28-.07-.31a1.12,1.12,0,0,1,0-.44c0-.25,0-.54,0-.88s0-.7.06-1.1,0-.77,0-1.11a4.66,4.66,0,0,0,0-.87c0-.25-.08-.4-.16-.45Z" style="fill:#423c25"/><path d="M48.26,52.06a1.83,1.83,0,0,1,.2-.43l.28-.44a5.05,5.05,0,0,0,.25-.45.93.93,0,0,0,.11-.4l.23-.32.33-.46c.12-.17.23-.33.34-.47s.17-.25.2-.31a4.11,4.11,0,0,1,.41-.52l.37-.37a4.94,4.94,0,0,1,.41-.34c.15-.11.32-.25.52-.43l.22-.29a2.54,2.54,0,0,1,.25-.29,5,5,0,0,1,1-.44,13.3,13.3,0,0,1,1.35-.35c.48-.09.93-.17,1.36-.23a9.74,9.74,0,0,1,1-.08c.3,0,.42.11.34.34a.41.41,0,0,1-.12.2l-.22.16a1.13,1.13,0,0,0-.21.15.32.32,0,0,0-.12.18c0,.08,0,.14.08.18l.29.1.31.07a.29.29,0,0,1,.2.11l.34.74c.06.13.11.23.13.29a.67.67,0,0,1,0,.19l0,.22a1.2,1.2,0,0,0,.15.31,3.62,3.62,0,0,0,.21.34.79.79,0,0,1,.15.24.62.62,0,0,1,0,.28,1.93,1.93,0,0,1-.08.46,7.59,7.59,0,0,1-.3.83,6.61,6.61,0,0,0-.3.85l0,0c0,.08,0,.25-.07.51s-.07.56-.11.87-.08.6-.11.87-.06.44-.07.51l0,.07a.23.23,0,0,0,0,.12.34.34,0,0,1,0,.17l0,.09,0,.1-.07.13c0,.06-.06.1-.07.13l0,.1a.63.63,0,0,1-.31.17.29.29,0,0,0-.24.19.24.24,0,0,0,.12.29.31.31,0,0,1,.17.29,2.45,2.45,0,0,0-.06.43,3.87,3.87,0,0,1-.08.48,2.84,2.84,0,0,1-.64,1,15.26,15.26,0,0,1-1.15,1.11c-.43.37-.85.72-1.28,1s-.76.59-1,.8c-.05,0-.08.06-.08.07a.2.2,0,0,0,0,.2.18.18,0,0,1,0,.19c0,.13-.21.21-.53.24s-.62,0-.91,0h-.43a4.89,4.89,0,0,1-.68-.08,6.76,6.76,0,0,1-.93-.2,7.33,7.33,0,0,1-.87-.3.79.79,0,0,1-.45-.36,1.85,1.85,0,0,0-.21-.34,3.43,3.43,0,0,1-.24-.33A3.9,3.9,0,0,1,47.5,60a.68.68,0,0,1-.06-.37l0-.15.1-.28.07-.24,0-.15a.22.22,0,0,0-.06-.24.42.42,0,0,1-.14-.24,2.36,2.36,0,0,1,0-.26c0-.13,0-.26,0-.4s0-.26,0-.37a1,1,0,0,1,0-.24,5.67,5.67,0,0,1,.1-1.09,8.61,8.61,0,0,1,.26-1.09c.12-.37.22-.73.33-1.08a5.85,5.85,0,0,0,.2-1.08s0-.1,0-.2a.88.88,0,0,1-.06-.16.5.5,0,0,0,0-.14A.8.8,0,0,1,48.26,52.06Zm2.42,4.71a.9.9,0,0,0,0,.35c.05.16.11.34.18.52a2.9,2.9,0,0,0,.24.5c.09.14.15.21.2.21a.66.66,0,0,0,.39-.2L52,57.9a2.24,2.24,0,0,1,.21-.2l.33-.31.34-.31a1.29,1.29,0,0,1,.23-.19l0-.15a18,18,0,0,0,.44-1.89,12.3,12.3,0,0,1,.54-1.92,3.43,3.43,0,0,1,0-.41A3.93,3.93,0,0,1,54.2,52c0-.16,0-.31.07-.46a1.59,1.59,0,0,1,.08-.33s.07-.14.15-.31l.14-.32,0,0,0-.1a.69.69,0,0,1,0-.1l0-.07a.41.41,0,0,0,0-.45,1,1,0,0,0-.34-.27L54,49.42c-.1,0-.11-.11-.05-.19h-.24a.11.11,0,0,0-.1.05,2.15,2.15,0,0,0-.07.24l-1.15,1.63,0,.17a1.42,1.42,0,0,0-.06.58,1.4,1.4,0,0,1-.06.6,17,17,0,0,1-.78,2.13A17.78,17.78,0,0,0,50.68,56.77Z" style="fill:#423c25"/><path d="M58.55,60.39a.3.3,0,0,0-.18.11l-.21.23-.22.23c-.07.07-.12.1-.15.1s-.27-.14-.26-.44a5.16,5.16,0,0,1,.14-1A9.31,9.31,0,0,1,58,58.5c.11-.36.19-.6.22-.72a44.77,44.77,0,0,1,1.46-4.32q.84-2.15,1.47-4.32a.12.12,0,0,1,0-.12c0-.05,0-.08,0-.08H59.22a.78.78,0,0,1,.16-.24.6.6,0,0,0,.16-.24v-.09c-.12-.15-.17-.23-.17-.27s.08-.12.2-.16a1.68,1.68,0,0,1,.4-.11,3.05,3.05,0,0,1,.41,0h.29l-.34-.22-.36,0a1.5,1.5,0,0,1-.34-.12.6.6,0,0,1-.21-.21.4.4,0,0,1,0-.31,1.41,1.41,0,0,1,.19-.3.71.71,0,0,1,.29-.23L61,46.16h.47l1,0c.39,0,.8,0,1.22,0l1,0h3.57a.48.48,0,0,1-.2.34,1,1,0,0,1-.3.1l-.32,0a.47.47,0,0,0-.3.2,1.15,1.15,0,0,0,0,.68,1.06,1.06,0,0,1,0,.66,1.79,1.79,0,0,1-.19.43,2.38,2.38,0,0,1-.43.43.7.7,0,0,1-.51.12l-.57,0a.74.74,0,0,0-.34.07s0,.13-.08.25a3.73,3.73,0,0,1-.15.38l-.15.38c-.05.13-.08.22-.1.26l-.09.36c0,.12-.1.31-.18.58l-.29.85c-.11.3-.2.58-.3.84a5,5,0,0,1-.22.54l-1.8,6.34a2.33,2.33,0,0,1-.19.45,1.64,1.64,0,0,1-.34.48,1.07,1.07,0,0,0-.61,0,.87.87,0,0,0-.32.24l-.24.27a.46.46,0,0,1-.36.14.42.42,0,0,1-.36-.17,1.79,1.79,0,0,1-.21-.39,1.91,1.91,0,0,0-.18-.38A.32.32,0,0,0,58.55,60.39Z" style="fill:#423c25"/><path d="M64.1,60.22v0s.08-.09.19-.11l.35-.07.47-.09s0-.07,0-.15-.08-.18-.13-.27-.12-.2-.22-.35l1.47,0q0-.08-.12-.15a1.2,1.2,0,0,0-.29-.09l-.55-.12c-.15,0-.28-.11-.39-.31a.26.26,0,0,0,.08-.16l.09-.25a.76.76,0,0,1,.13-.23.26.26,0,0,1,.2-.11,1.09,1.09,0,0,1,.59.21,1.51,1.51,0,0,0,.78.2,1.23,1.23,0,0,0,.63-.16,1.89,1.89,0,0,0,.5-.38,2.23,2.23,0,0,0,.37-.5,2.43,2.43,0,0,0,.23-.54.29.29,0,0,1,.22-.17c.11,0,.16-.09.14-.17l-.15-.18-.29-.34-.28-.33c-.08-.11-.12-.17-.12-.21a1.69,1.69,0,0,0-.08-.31,4.74,4.74,0,0,1-.17-.53c-.06-.19-.11-.36-.17-.52a1.14,1.14,0,0,1-.08-.29c-.13-.31-.24-.56-.33-.76a2.78,2.78,0,0,1-.19-.6,2.19,2.19,0,0,1,0-.68,5.87,5.87,0,0,1,.24-1,8.39,8.39,0,0,1,.8-1.92,5,5,0,0,1,1.25-1.42A5.54,5.54,0,0,1,71,46.27,9.13,9.13,0,0,1,73.5,46h.08s0,0-.08.09l-.21.23a2.49,2.49,0,0,1-.22.23c-.06.06-.08.1-.07.1l.18-.08.36-.14.37-.14a.85.85,0,0,1,.22-.08,1.27,1.27,0,0,1,.41.06q.17.06.09.33a.38.38,0,0,1-.14.2l-.23.1-.25.07a.36.36,0,0,0-.19.13s0,.07-.15.16-.2.18-.31.27l-.41.36,1.61-.64s0,.06,0,.18,0,.25,0,.4,0,.3-.08.45a1.53,1.53,0,0,1-.06.29A.71.71,0,0,1,74,49a6.22,6.22,0,0,1-.68.25l-.3.07-.42.11-.4.11-.29.07c-.21.11-.32.23-.34.36a.85.85,0,0,0,0,.37c0,.17,0,.34.08.52s.07.34.1.51a2.78,2.78,0,0,1,0,.35l-.48.67.3-.09a.35.35,0,0,1,.18,0c.17,0,.32.13.43.41s.15.46.25.8a10.17,10.17,0,0,1,.28,1.12c.08.4.14.78.18,1.16a2.43,2.43,0,0,1,0,.92l0,.05a5.57,5.57,0,0,0-.69,1.07,4.26,4.26,0,0,1-.71,1,2.16,2.16,0,0,1-.27.33q-.21.22-.42.48l-.43.47-.34.31a2,2,0,0,1-.79.36A12,12,0,0,1,68,61l-1.23.12-.92,0a2.25,2.25,0,0,1-.5-.07,4.31,4.31,0,0,1-.61-.19,2.05,2.05,0,0,1-.51-.28A.32.32,0,0,1,64.1,60.22Z" style="fill:#423c25"/><rect x="0.18" y="-0.22" width="125" height="80" style="fill:none;stroke:#423c25;stroke-miterlimit:10;stroke-width:2px"/></g></svg>