<svg id="a31312d8-452e-4195-be8c-a63acf621b36" data-name="icon vecto" xmlns="http://www.w3.org/2000/svg" width="125" height="80" viewBox="0 0 125 80"><title>lieu_1</title><g id="e7a03a4f-e8dd-4cdc-b4d6-1ad3e54cd60f" data-name="lieu - copie"><rect x="-0.27" y="0.18" width="125" height="80" style="fill:#fff"/><path d="M128.7,18.8l-7.4-.37a.08.08,0,0,1-.08-.05.08.08,0,0,1,0-.07l1.3-4.14,0,0h0Z" style="fill:#423c25"/><path d="M124.06,2.29l-2.92,5.54a.22.22,0,0,1-.2.12.24.24,0,0,1-.14,0l-3.19-2.6a.14.14,0,0,1,0-.15.1.1,0,0,1,0,0Z" style="fill:#423c25"/><path d="M121.3,18.43l7.4.37-6.12-4.64h0l0,0a2.66,2.66,0,0,0,1.52-1l10.71,7.68-13.4-.64a2.83,2.83,0,0,0-.2-1.76l0,0A.08.08,0,0,0,121.3,18.43Z" style="fill:#fff"/><path d="M124.06,2.29l-6.42,2.82a.1.1,0,0,0,0,0l-.1,0a2.63,2.63,0,0,0-.14-1.8l12-6.22L122.58,8.71a2.77,2.77,0,0,0-1.64-.64V8a.22.22,0,0,0,.2-.12Z" style="fill:#fff"/><path d="M116.55,22.6l-.23,7.55-4-6.33a.2.2,0,0,1,0-.15.19.19,0,0,1,.12-.11l4-1.08a.13.13,0,0,1,.12,0A.16.16,0,0,1,116.55,22.6Z" style="fill:#423c25"/><path d="M113.42,12.11a2.32,2.32,0,1,1-3.27.3A2.33,2.33,0,0,1,113.42,12.11Z" style="fill:#fff"/><path d="M112.28,23.67a.2.2,0,0,0,0,.15l4,6.33.23-7.55a.16.16,0,0,0,0-.09l0-.07a2.77,2.77,0,0,0,1.3.49V36.64l-7.21-11.32a2.59,2.59,0,0,0,1.47-1.54.68.68,0,0,0,0-.14Z" style="fill:#fff"/><path d="M111.4,3.11a.22.22,0,0,1,0,.21.15.15,0,0,1-.09.06l-3.75,1.17a.16.16,0,0,1-.19-.08.13.13,0,0,1,0-.09l.72-7.25Z" style="fill:#423c25"/><path d="M111.4,3.11l-3.34-6-.72,7.25a.13.13,0,0,0,0,.09l-.1.09a2.73,2.73,0,0,0-1.77-.72l1-13.49L113,2.05a2.71,2.71,0,0,0-1.49,1.28h-.11A.22.22,0,0,0,111.4,3.11Z" style="fill:#fff"/><path d="M106.26,21.5a.09.09,0,0,1,0,.11l0,0-7,3.87,3.65-6.12a.16.16,0,0,1,.13-.08.19.19,0,0,1,.1,0Z" style="fill:#423c25"/><path d="M103.07,19.31a.16.16,0,0,0-.13.08l-3.65,6.12,7-3.87,0,0,.06,0a1.85,1.85,0,0,0-.18.44,2.68,2.68,0,0,0,.35,1.88L94.43,30.07l6.91-11.5a2.67,2.67,0,0,0,1.73.66Z" style="fill:#fff"/><path d="M122.52,14.17l-1.3,4.14a.08.08,0,0,0,0,.07l0,0a1.66,1.66,0,0,0-.22-.32c-.87-1-2.6-.75-3.61-.17-.11.06-2,1.21-1.69,3a2.33,2.33,0,0,0,.92,1.51l0,.07a.13.13,0,0,0-.12,0l-4,1.08a.19.19,0,0,0-.12.11l-.13,0c.23-1.25-1-2.44-2-2.91-.12-.05-2.17-1-3.44.36a2.53,2.53,0,0,0-.41.55l-.06,0a.09.09,0,0,0,0-.11l-3.09-2.16a.19.19,0,0,0-.1,0v-.08a1.53,1.53,0,0,0,.3,0c1.32-.29,1.9-1.94,1.86-3.1,0-.13-.1-2.38-1.85-2.92a2.89,2.89,0,0,0-1.57,0l0-.08a.15.15,0,0,0,.09-.1L103,9.34a.17.17,0,0,0,0-.15l.06-.08a3.18,3.18,0,0,0,3.39-.25c.11-.07,2-1.34,1.5-3.12a2.57,2.57,0,0,0-.68-1.18l.1-.09a.16.16,0,0,0,.19.08l3.75-1.17a.15.15,0,0,0,.09-.06h.11l-.06.18c-.41,1.28.74,2.6,1.77,3.15.11.06,2.11,1.09,3.45-.16a2.91,2.91,0,0,0,.84-1.38l.1,0a.14.14,0,0,0,0,.15l3.19,2.6a.24.24,0,0,0,.14,0v.12a1.9,1.9,0,0,0-.4,0c-1.31.3-1.86,2-1.81,3.13,0,.13.14,2.37,1.9,2.89a3.54,3.54,0,0,0,1.91,0l0,0Zm-8.8,1.21a2.32,2.32,0,1,0-3.27.3A2.33,2.33,0,0,0,113.72,15.38Z" style="fill:#423c25"/><path d="M101.67,13,95.16,9l7.71.15a.21.21,0,0,1,.11,0,.17.17,0,0,1,0,.15L101.88,13a.15.15,0,0,1-.09.1A.17.17,0,0,1,101.67,13Z" style="fill:#423c25"/><path d="M103,9.19a.21.21,0,0,0-.11,0L95.16,9l6.51,4a.17.17,0,0,0,.12,0l0,.08a2.63,2.63,0,0,0-1.49,1L88.86,7.1l13.41-.23a2.58,2.58,0,0,0,.55,2.05l.22.19Z" style="fill:#fff"/><path d="M120.94,8.07a2.77,2.77,0,0,1,1.64.64L129.3-2.9l-12,6.22a2.63,2.63,0,0,1,.14,1.8,2.91,2.91,0,0,1-.84,1.38c-1.34,1.25-3.34.22-3.45.16-1-.55-2.18-1.87-1.77-3.15l.06-.18A2.71,2.71,0,0,1,113,2.05l-6.55-11.7-1,13.49a2.73,2.73,0,0,1,1.77.72,2.57,2.57,0,0,1,.68,1.18c.46,1.78-1.39,3-1.5,3.12a3.18,3.18,0,0,1-3.39.25l-.22-.19a2.58,2.58,0,0,1-.55-2L88.86,7.1l11.46,7.06a2.63,2.63,0,0,1,1.49-1,2.89,2.89,0,0,1,1.57,0c1.75.54,1.85,2.79,1.85,2.92,0,1.16-.54,2.81-1.86,3.1a1.53,1.53,0,0,1-.3,0,2.67,2.67,0,0,1-1.73-.66l-6.91,11.5L106.51,24a2.68,2.68,0,0,1-.35-1.88,1.85,1.85,0,0,1,.18-.44,2.53,2.53,0,0,1,.41-.55c1.27-1.33,3.32-.41,3.44-.36,1,.47,2.19,1.66,2,2.91a.68.68,0,0,1,0,.14,2.59,2.59,0,0,1-1.47,1.54l7.21,11.32V22.93a2.77,2.77,0,0,1-1.3-.49,2.33,2.33,0,0,1-.92-1.51c-.35-1.81,1.58-3,1.69-3,1-.58,2.74-.86,3.61.17a1.66,1.66,0,0,1,.22.32,2.83,2.83,0,0,1,.2,1.76l13.4.64-10.71-7.68a2.66,2.66,0,0,1-1.52,1,3.54,3.54,0,0,1-1.91,0c-1.76-.52-1.89-2.76-1.9-2.89,0-1.16.5-2.83,1.81-3.13A1.9,1.9,0,0,1,120.94,8.07Z" style="fill:none;stroke:#423c25;stroke-miterlimit:10;stroke-width:0.6007771492004395px"/><path d="M106.28,21.61l0,0-7,3.87,3.65-6.12a.16.16,0,0,1,.13-.08.19.19,0,0,1,.1,0l3.09,2.16A.09.09,0,0,1,106.28,21.61Z" style="fill:none;stroke:#423c25;stroke-miterlimit:10;stroke-width:0.6007771492004395px"/><path d="M112.28,23.67a.2.2,0,0,0,0,.15l4,6.33.23-7.55a.16.16,0,0,0,0-.09.13.13,0,0,0-.12,0l-4,1.08A.19.19,0,0,0,112.28,23.67Z" style="fill:none;stroke:#423c25;stroke-miterlimit:10;stroke-width:0.6007771492004395px"/><path d="M122.56,14.15h0l6.12,4.64-7.4-.37a.08.08,0,0,1-.08-.05.08.08,0,0,1,0-.07l1.3-4.14Z" style="fill:none;stroke:#423c25;stroke-miterlimit:10;stroke-width:0.6007771492004395px"/><path d="M117.59,5.15a.1.1,0,0,1,0,0l6.42-2.82-2.92,5.54a.22.22,0,0,1-.2.12.24.24,0,0,1-.14,0l-3.19-2.6A.14.14,0,0,1,117.59,5.15Z" style="fill:none;stroke:#423c25;stroke-miterlimit:10;stroke-width:0.6007771492004395px"/><path d="M111.38,3.32a.22.22,0,0,0,0-.21l-3.34-6-.72,7.25a.13.13,0,0,0,0,.09.16.16,0,0,0,.19.08l3.75-1.17A.15.15,0,0,0,111.38,3.32Z" style="fill:none;stroke:#423c25;stroke-miterlimit:10;stroke-width:0.6007771492004395px"/><path d="M101.79,13.05a.17.17,0,0,1-.12,0L95.16,9l7.71.15a.21.21,0,0,1,.11,0,.17.17,0,0,1,0,.15L101.88,13A.15.15,0,0,1,101.79,13.05Z" style="fill:none;stroke:#423c25;stroke-miterlimit:10;stroke-width:0.6007771492004395px"/><path d="M113.42,12.11a2.32,2.32,0,1,1-3.27.3A2.33,2.33,0,0,1,113.42,12.11Z" style="fill:none;stroke:#423c25;stroke-miterlimit:10;stroke-width:0.6007771492004395px"/><path d="M31.59,28.65a.83.83,0,0,1-.21.24c-.07.07-.09.11-.08.12a.67.67,0,0,0,.47.24.7.7,0,0,0,.42,0,2.35,2.35,0,0,0,.56-.34.36.36,0,0,0,.13-.21.27.27,0,0,0,0-.13s0-.08.07-.13l.84-1.11a1.09,1.09,0,0,0,.52-.38,2.68,2.68,0,0,0,.16-.36.62.62,0,0,1,.21-.31,1.92,1.92,0,0,1,.7-.29l2.23.05c.16,0,.24.06.25.19a3.39,3.39,0,0,0,.06.41,3.55,3.55,0,0,0-.07.45,3.22,3.22,0,0,1-.1.51,3,3,0,0,1-.68,1.08q-.57.62-1.26,1.26c-.46.42-.93.82-1.39,1.19L33.32,32l0,.07a3.43,3.43,0,0,0-1.39-.46c-.21,0-.33.05-.36.13a.65.65,0,0,0,0,.28,1.43,1.43,0,0,1,0,.29c0,.08-.07.12-.22.12H30.2l-.72,0a2.27,2.27,0,0,1-.68-.15,2.65,2.65,0,0,1-1-.68,2.12,2.12,0,0,1-.42-.85,3.52,3.52,0,0,1-.06-.91c0-.31.06-.6.11-.87l-.12-.21a2,2,0,0,1-.12-.27c0-.13-.1-.26-.15-.41s-.11-.27-.15-.39a1.07,1.07,0,0,1-.06-.23A4.27,4.27,0,0,1,27,26.31a11.2,11.2,0,0,1,.27-1.11c.11-.39.24-.77.37-1.14a5.27,5.27,0,0,0,.28-1.14s0-.05.12-.11l.24-.17.36-.25a1,1,0,0,0-.21-.1,2.13,2.13,0,0,1-.38-.18c-.13-.07-.2-.11-.2-.13a1.21,1.21,0,0,1,.26-.44l.4-.47.36-.47a.77.77,0,0,0,.15-.42l.24-.33.37-.5q.21-.24.39-.48l.25-.3a5.08,5.08,0,0,1,.37-.52,3.78,3.78,0,0,1,.39-.41,5.2,5.2,0,0,1,.43-.37c.15-.12.33-.26.54-.4a1.09,1.09,0,0,0,.28-.29,1.57,1.57,0,0,1,.27-.31,8,8,0,0,1,.75-.35,4.26,4.26,0,0,1,.64-.2,4.63,4.63,0,0,1,.65-.1l.77,0a2.43,2.43,0,0,0,.47-.07,1.75,1.75,0,0,1,.42-.08c.08,0,.11,0,.09.08s0,.15.17.22a3.76,3.76,0,0,0,.46.2,2.68,2.68,0,0,1,.39.15c.11,0,.11.09,0,.12a.63.63,0,0,0-.41.36l-.19.36c0,.07,0,.07.14,0a3.26,3.26,0,0,1,.42-.15,1.64,1.64,0,0,1,.55-.05.86.86,0,0,1,.54.29l.29.36a.93.93,0,0,1,.14.3c0,.07,0,.14,0,.21s0,.13.06.21a1,1,0,0,0,.18.31,4.16,4.16,0,0,1,.42.8.5.5,0,0,1-.08.57,2.63,2.63,0,0,0-.39.57,2,2,0,0,0-.12.4,2.17,2.17,0,0,0,0,.36,1,1,0,0,1-.06.4v.05s-.15.14-.42.27a3.08,3.08,0,0,1-1,.3,3.15,3.15,0,0,1-1.22,0,2.2,2.2,0,0,1-1.18-.71l0-1,0,0a.66.66,0,0,1,0-.11.16.16,0,0,1,0-.08l0-.07q.16-.6.21-.87c0-.17.07-.32.1-.45s0,0,0,0-.15.08-.4.22l-2,.84-.84,1.32s-.05.08-.12.15a.53.53,0,0,0-.12.17.25.25,0,0,0,0,.19.64.64,0,0,0,.1.13.35.35,0,0,1,.08.13.4.4,0,0,1,0,.22l-.27.85-.33.95-.32.93-.3.84c.06.12.12.2.16.27s.1,0,.15-.07l-.15,1.36Z" style="fill:#423c25"/><path d="M38.12,31.75H38l-.12.1-.26.93s0,0,0,0a.27.27,0,0,0-.1.06h-.07c-.09,0-.16-.08-.19-.24a.5.5,0,0,1,0-.31c0-.07,0-.16.06-.28a2.73,2.73,0,0,1,.11-.4c0-.12.06-.25.1-.37l.09-.25a.21.21,0,0,1-.07-.14l0-.17,0-.15.24-.74c.11-.34.25-.71.4-1.13l.48-1.32.48-1.32.41-1.13c.12-.33.2-.58.25-.74.21-.37.43-.74.67-1.1A10.41,10.41,0,0,0,41.17,22c.39-.81.78-1.59,1.13-2.33a16.29,16.29,0,0,1,1.41-2.28s.11,0,.19.08a3.78,3.78,0,0,1,.25.34c.09.14.17.27.26.39s.13.18.16.18.1-.06.16-.18a2.26,2.26,0,0,0,.15-.39c0-.13.1-.26.15-.37s.09-.16.12-.14h2.21l.48-.17s.08,0,.09.06a1.06,1.06,0,0,1,0,.19c0,.07,0,.14,0,.21s0,.09.06.09a.67.67,0,0,0,.25,0,1.32,1.32,0,0,1,.29,0,.4.4,0,0,1,.22.09q.09.07,0,.24l-.67,2.31a1.7,1.7,0,0,0-.05.54,5,5,0,0,0,.09.51c0,.18.08.35.11.52a1.93,1.93,0,0,1,0,.54c-.05.19-.12.52-.23,1s-.21,1-.32,1.5-.22,1-.33,1.5-.17.81-.22,1l0,.1a16.3,16.3,0,0,1-.29,2.29,22.68,22.68,0,0,1-.55,2.31,2.18,2.18,0,0,1-.63-.09,1.91,1.91,0,0,0-.64-.1.24.24,0,0,0-.18.1c-.06.06-.11.13-.17.2a1.68,1.68,0,0,1-.18.21.29.29,0,0,1-.21.09c-.08,0-.11,0-.1-.17s0-.23.06-.37,0-.26.06-.37,0-.17-.07-.17-.05,0-.11.11-.11.15-.17.23-.14.19-.25.33a2.86,2.86,0,0,1-.17.28.78.78,0,0,1-.24.28s0,.06-.12.09v0h0c-.25,0-.37-.16-.38-.47a4.79,4.79,0,0,1,.09-1c.06-.38.12-.72.16-1s0-.46-.12-.46h-.67a.63.63,0,0,0-.55.21l-.33,1.15-.32,1.16a4.26,4.26,0,0,1-.18.42c-.08.18-.14.28-.15.3l-.15.09H38.86l-.43-.45-.22-.1a.26.26,0,0,1,0-.2c0-.09,0-.18.07-.28a.85.85,0,0,0,0-.25C38.29,31.79,38.23,31.75,38.12,31.75Zm4.72-5.23s0,.09-.07.19,0,.15.1.17a5.34,5.34,0,0,0,.67-.12.6.6,0,0,0,.48-.41.58.58,0,0,1,.08-.1.38.38,0,0,0,.09-.09,3.31,3.31,0,0,1,.05-.41c0-.19.06-.4.09-.61s.07-.42.11-.61a2.68,2.68,0,0,1,.11-.41s0-.1,0-.19,0-.2,0-.29a.83.83,0,0,0,0-.27q0-.12-.06-.12c-.14,0-.31.16-.49.48s-.37.68-.55,1.07-.34.76-.47,1.11S42.86,26.45,42.84,26.52Z" style="fill:#423c25"/><path d="M52.92,27.84l-.09,0-.19.39c0,.12-.11.34-.22.64l-.35,1-.33,1c-.11.31-.18.52-.21.65a.63.63,0,0,1-.08.35,1.14,1.14,0,0,1-.16.3.13.13,0,0,1-.14.1l-.12,0-.11.05s-.06,0-.06,0l-.17.76h-.12c-.09,0-.14,0-.14,0-.32,0-.52-.18-.59-.4A.77.77,0,0,1,50,32c-.08,0-.12-.08-.1-.08h-.07a.31.31,0,0,0-.22.11,1.46,1.46,0,0,0-.17.24c0,.09-.09.17-.13.25a.4.4,0,0,1-.13.17h0l-.05,0h-.5l-.25,0-.25,0h-.15a.32.32,0,0,1-.36-.2,1.42,1.42,0,0,1-.09-.52,3.86,3.86,0,0,1,0-.6,3.5,3.5,0,0,1,.1-.41l.05-.14.08-.2a.18.18,0,0,0,0-.16l0-.1L49.73,25a1.33,1.33,0,0,0,.09-.23,1.71,1.71,0,0,1,.08-.23.77.77,0,0,0,.13-.24c.06-.13.12-.26.18-.41a3,3,0,0,0,.16-.4c0-.13.07-.21.08-.24l.12-.27.22-.43c.08-.16.16-.3.24-.43a1.63,1.63,0,0,1,.19-.27s.07-.08.17-.19a.82.82,0,0,0,.14-.19l0-.1,0-.09h-.24l-.38,0a1.54,1.54,0,0,1-.34-.08c-.1,0-.13-.1-.1-.18s0-.08.15-.18a.62.62,0,0,0,.14-.21l.13,0,.22-.06.19-.07q.09,0,.06-.06L51,20.06l.09-.31s0-.06,0-.12a.16.16,0,0,0,0-.1.5.5,0,0,1,.21-.09l.23,0,.21,0a.18.18,0,0,0,.12-.12l-.44-.56c-.09-.12,0-.25.12-.37a3,3,0,0,1,.77-.33,9.24,9.24,0,0,1,1.15-.28l1.26-.22c.41-.06.78-.11,1.11-.14l.68-.05a2.61,2.61,0,0,1,.69.06,2.39,2.39,0,0,0,.66.09.47.47,0,0,0,.19-.08.49.49,0,0,1,.24,0h.09a5.27,5.27,0,0,1,1,.38,4.83,4.83,0,0,1,.81.55,2.06,2.06,0,0,1,.54.53,1.1,1.1,0,0,1,.06.72l-.48.43.34.19-.07.39-.07.21a3.67,3.67,0,0,0,0,1,3,3,0,0,1-.1,1.05.9.9,0,0,1-.19.42,1.59,1.59,0,0,1-.43.35L57.39,26.3l-.1.36c.11.87.21,1.76.29,2.68a9,9,0,0,1-.19,2.77l-.4,0L56.76,32l-.2-.05a1.24,1.24,0,0,0-.3,0s0,.07,0,.12a.09.09,0,0,1,0,.12s-.09.12-.18.22-.19.22-.3.33a4,4,0,0,1-.32.29.48.48,0,0,1-.26.12c-.09,0-.15,0-.16-.1a1.2,1.2,0,0,1,0-.23.77.77,0,0,0-.06-.23.2.2,0,0,0-.19-.09.36.36,0,0,0-.15.08l-.2.18-.2.19a.53.53,0,0,1-.15.12s-.06.07-.14.1-.32-.08-.42-.3a2.8,2.8,0,0,1-.24-.84,9.36,9.36,0,0,1-.11-1.15c0-.43,0-.83,0-1.23V28.62c0-.31,0-.53,0-.66S53.05,27.84,52.92,27.84Zm.82-2.69-.05.17c0,.06,0,.11.12.14a2.17,2.17,0,0,0,.66-.19.94.94,0,0,0,.47-.43l1.39-2.16.05-.22a.61.61,0,0,0,0-.42c-.05-.13-.1-.27-.17-.41l-.18-.4a1,1,0,0,1-.06-.42c0-.12,0-.17-.19-.17h-.07l-.35.06-.44.07-.4.06c-.12,0-.19,0-.2.05a.47.47,0,0,0-.21.05.31.31,0,0,0-.08.14v.07a.73.73,0,0,1,.62.3,1.05,1.05,0,0,1,.1.66,9,9,0,0,1-.49,1.53A9.75,9.75,0,0,0,53.74,25.15Z" style="fill:#423c25"/><path d="M61.23,32a.3.3,0,0,0-.18.11l-.22.23-.21.22c-.08.08-.13.11-.16.11s-.26-.15-.25-.44a5.93,5.93,0,0,1,.13-1c.08-.39.18-.75.29-1.11s.18-.59.21-.72q.63-2.18,1.47-4.32a44.77,44.77,0,0,0,1.46-4.32.12.12,0,0,1,0-.12s0-.07,0-.07H61.9a.54.54,0,0,1,.16-.24.49.49,0,0,0,.15-.24V20A1,1,0,0,1,62,19.7a.34.34,0,0,1,.21-.17,2.22,2.22,0,0,1,.39-.1,3.26,3.26,0,0,1,.41-.05h.29L63,19.15a1.59,1.59,0,0,1-.36,0,.87.87,0,0,1-.33-.12.54.54,0,0,1-.22-.2.4.4,0,0,1,0-.31,1.1,1.1,0,0,1,.19-.3.65.65,0,0,1,.29-.23l1.08-.19h.47l1,0,1.21,0H70.9a.56.56,0,0,1-.2.34.75.75,0,0,1-.3.09l-.33.05a.56.56,0,0,0-.3.19,1.09,1.09,0,0,0,0,.69,1.22,1.22,0,0,1,0,.66,2.66,2.66,0,0,1-.19.43,2.54,2.54,0,0,1-.44.43.66.66,0,0,1-.5.12l-.58,0a.7.7,0,0,0-.33.07l-.09.25a2.79,2.79,0,0,1-.14.37c-.06.13-.11.26-.16.39s-.08.21-.09.26l-.1.36c0,.11-.09.31-.18.58s-.18.55-.29.85-.2.58-.3.84a5.16,5.16,0,0,1-.21.54l-1.8,6.34a3.22,3.22,0,0,1-.19.45,2,2,0,0,1-.34.48,1,1,0,0,0-.61,0,.83.83,0,0,0-.33.24l-.24.27a.45.45,0,0,1-.36.13.41.41,0,0,1-.36-.16,2,2,0,0,1-.2-.39c-.06-.14-.12-.27-.18-.38A.33.33,0,0,0,61.23,32Z" style="fill:#423c25"/><path d="M68.21,30.57a6.48,6.48,0,0,1,.47-1.15,6.19,6.19,0,0,0,.47-1.15A19.69,19.69,0,0,0,69.66,26a20.11,20.11,0,0,1,.52-2.25,8.66,8.66,0,0,1,.53-1.32,8.33,8.33,0,0,0,.5-1.3l0-.09.09-.27v-.07c0-.08-.09-.14-.23-.17a.77.77,0,0,0-.37,0l-.41-.45a.16.16,0,0,1,0-.1l.42-.5.3-.35a.86.86,0,0,0,.17-.21l.46-.09.17,0-.23-.16a.69.69,0,0,0-.4-.15.08.08,0,0,1,0-.07.71.71,0,0,1,.37-.4,3.11,3.11,0,0,1,.71-.24,5.81,5.81,0,0,1,.85-.1l.78,0h.46c.54,0,1.08,0,1.6.06s1,.06,1.59.06a1.88,1.88,0,0,0,.49-.06,2,2,0,0,1,.5-.06l0,.19c-.05.13-.08.2-.1.2s-.07.1-.15.22l-.16.23-.07.19-.55.32.38.31,0,.19a1.14,1.14,0,0,1-.43.48,3.54,3.54,0,0,1-.7.36,5.43,5.43,0,0,1-.75.24,5.81,5.81,0,0,1-.61.12l-.12.1s-.06.09-.08.19l-.12.41a2.71,2.71,0,0,1-.13.44l-.13.37,0,.1a.34.34,0,0,0,0,.17.15.15,0,0,1-.09.14l-.46.24.38,0s.06,0,0,.12a2.35,2.35,0,0,1-.1.22l0,.1c0,.06,0,.09,0,.09h.12a5,5,0,0,0,.93-.09,4.29,4.29,0,0,1,.91-.1.35.35,0,0,1,.35.17.54.54,0,0,1,0,.38.63.63,0,0,1-.28.29,4.68,4.68,0,0,1-.5.28,4.5,4.5,0,0,0-.49.24q-.23.11-.24.18s.05.06.15.08a1.67,1.67,0,0,1,.34.11,1.33,1.33,0,0,1,.31.18c.09.07.1.18,0,.32a1.18,1.18,0,0,1-.46.57,2.09,2.09,0,0,1-.64.21l-.69.1a1.74,1.74,0,0,0-.66.2,1.4,1.4,0,0,0-.17.3,4.67,4.67,0,0,0-.23.58l-.2.6a2.87,2.87,0,0,0-.12.35v0c0,.1,0,.21,0,.34l-.06.38c0,.13,0,.28-.06.46H74.6a.22.22,0,0,1,.18.06.21.21,0,0,1,0,.14,1.16,1.16,0,0,1,0,.18.48.48,0,0,0,0,.17c0,.05,0,.09.1.13l.19.13a.49.49,0,0,1,.16.21.5.5,0,0,1,0,.34.48.48,0,0,1-.29.3,3.52,3.52,0,0,1-.52.2,3.82,3.82,0,0,0-.51.18.43.43,0,0,0-.29.26,2.58,2.58,0,0,1,.17.26l0,.08a.4.4,0,0,1-.27.31,4.84,4.84,0,0,1-.54.07,11.85,11.85,0,0,0-1.25.14,2.29,2.29,0,0,1-1,0l-.72-.19-.34.19a.42.42,0,0,1-.34,0,2.15,2.15,0,0,0-.4,0H68.6a1.17,1.17,0,0,1-.57-.94A3.65,3.65,0,0,1,68.21,30.57Z" style="fill:#423c25"/><path d="M38.67,45a3.36,3.36,0,0,1,.8-.67,3.57,3.57,0,0,1,1-.41,5.63,5.63,0,0,1,1.39-.15h.17c.05,0,.07.06.06.17a2,2,0,0,1-.06.34l0,.17.65-.44-.36,3.48a.35.35,0,0,0-.17.12l0,.15-.12.41q-.15.54-.27,1c-.08.31-.17.63-.26,1s-.19.67-.28,1.05-.2.84-.35,1.35-.3,1.1-.49,1.76-.4,1.45-.66,2.37a6.06,6.06,0,0,0-.23.93.44.44,0,0,0,.22.46,2.44,2.44,0,0,0,.85.2l1.73.16a.46.46,0,0,1,.13.31c0,.08,0,.19-.06.34a.55.55,0,0,1-.12.19l-.18.24c-.05.08-.11.15-.15.23a.2.2,0,0,0-.05.18l.12.3.12.3-.05.12a.83.83,0,0,1-.25.22,5.65,5.65,0,0,1-.51.33c-.18.11-.35.21-.51.29a1.19,1.19,0,0,1-.29.12l-.36-.15c-.08,0-.13,0-.14.06a.14.14,0,0,1-.15.11h-.19a22,22,0,0,1-2.78-.18A14.2,14.2,0,0,0,34,61.37a.72.72,0,0,1-.31-.8.48.48,0,0,1,.12-.16.44.44,0,0,0,.1-.15l0-.09-.12-.41,0,0,1.56.07L34,59.35l0-.1a1.2,1.2,0,0,0,0-.38,1.14,1.14,0,0,1,.06-.43l0-.1.09-.29,0-.12a1.34,1.34,0,0,1,.48-.19,2.35,2.35,0,0,0,.46-.12l0,0,0-.07c0-.07,0-.2,0-.39s0-.4,0-.62,0-.43,0-.63v-.38c0-.18.15-.51.3-1s.32-1,.5-1.54.36-1.06.51-1.53.25-.79.3-1a11.73,11.73,0,0,0,.35-2,10.11,10.11,0,0,1,.37-1.95l0-.15a1.14,1.14,0,0,0,.09-.16,1.67,1.67,0,0,1,.08-.2l0-.12Q38.31,45.41,38.67,45Z" style="fill:#423c25"/><path d="M43,61.37l.24-.84c.36-1.46.71-2.89,1.06-4.29S45,53.41,45.41,52l.05-.17c0-.08.06-.15.08-.22a.82.82,0,0,0,.06-.16l0-.1a.4.4,0,0,1,.07-.14l.16-.27.15-.26a.41.41,0,0,0,.07-.15,1,1,0,0,1,.08-.22l.14-.4c.05-.14.1-.28.14-.41l.1-.26.12-.28a2.1,2.1,0,0,0,.12-.42l.14-.5.15-.51a2,2,0,0,0,.09-.42.32.32,0,0,1,.32-.37l.46-.15.69-.23c.16,0,.27,0,.32.13a.77.77,0,0,1,.11.3,1.72,1.72,0,0,1,0,.31c0,.08,0,.12.1.12h0a1,1,0,0,0,.21-.29.23.23,0,0,0,.1-.12s0-.07.07-.07a1.31,1.31,0,0,1,.31-.07l.24,0a1.35,1.35,0,0,1,.18.2l.16.18h.12l.5-.19h.12s0,.05.08.09a.23.23,0,0,0,.12.1l-.12.41c-.29,1-.63,2-1,3s-.77,2-1.15,3a1.54,1.54,0,0,1-.34.49,1.14,1.14,0,0,0-.31.47,1.6,1.6,0,0,0-.06.69c0,.24,0,.46,0,.65l-.12.48L48,57.43l-.12.43c-.16.53-.32,1.11-.49,1.73a11.38,11.38,0,0,1-.64,1.78.16.16,0,0,1-.14.1l-.17,0a.22.22,0,0,1-.1,0h-.07a1.1,1.1,0,0,0-.23-.39.6.6,0,0,0-.44-.11H45.4c-.07,0-.12,0-.13,0l-.27.26a1.19,1.19,0,0,1-.31,0c-.16,0-.25,0-.26.06a.33.33,0,0,0-.16.07l-.21.14-.22.15-.13.09A1.08,1.08,0,0,1,43,61.37Z" style="fill:#423c25"/><path d="M49.06,59.37a6.48,6.48,0,0,1,.47-1.15A7,7,0,0,0,50,57.07a19.69,19.69,0,0,0,.51-2.26A18.12,18.12,0,0,1,51,52.56a8.66,8.66,0,0,1,.53-1.32,8.33,8.33,0,0,0,.5-1.3l0-.09.1-.27v-.07c0-.08-.09-.14-.23-.17a.77.77,0,0,0-.37,0l-.41-.45a.16.16,0,0,1,0-.1l.42-.5.3-.35a1.23,1.23,0,0,0,.17-.21l.46-.09.16,0-.22-.16a.69.69,0,0,0-.4-.15s0,0,0-.07a.71.71,0,0,1,.37-.4,3.11,3.11,0,0,1,.71-.24,5.81,5.81,0,0,1,.85-.1l.78,0h.46q.81,0,1.59.06c.52,0,1.06.06,1.6.06a1.88,1.88,0,0,0,.49-.06,1.93,1.93,0,0,1,.49-.06l0,.19c0,.13-.08.2-.1.2l-.16.22a2.4,2.4,0,0,0-.15.23l-.07.19-.56.32.39.31-.05.19a1.14,1.14,0,0,1-.43.48,3.54,3.54,0,0,1-.7.36,6,6,0,0,1-1.37.36l-.12.1a.39.39,0,0,0-.07.19l-.12.41a2.71,2.71,0,0,1-.13.44c-.06.15-.1.28-.13.37l0,.1a.59.59,0,0,0,0,.17.15.15,0,0,1-.1.14l-.45.24.38,0q.08,0,0,.12l-.1.22,0,.1c0,.06,0,.09,0,.09h.12a5.07,5.07,0,0,0,.94-.09,4.22,4.22,0,0,1,.91-.1.36.36,0,0,1,.35.17.54.54,0,0,1,0,.38.69.69,0,0,1-.28.29,4.68,4.68,0,0,1-.5.28c-.19.08-.35.16-.5.24s-.22.13-.24.18.06.06.16.08a1.9,1.9,0,0,1,.34.11,1.33,1.33,0,0,1,.31.18c.09.07.1.18,0,.32a1.11,1.11,0,0,1-.45.57,2.19,2.19,0,0,1-.64.21l-.69.1a1.64,1.64,0,0,0-.66.2,1.06,1.06,0,0,0-.17.3,4.67,4.67,0,0,0-.23.58l-.2.6a2.87,2.87,0,0,0-.12.35v0a2.75,2.75,0,0,0-.05.34l-.06.38a2.72,2.72,0,0,0-.06.46h1.77q.15,0,.18.06a.17.17,0,0,1,0,.14,1.16,1.16,0,0,1,0,.18.48.48,0,0,0,0,.17s0,.09.1.13l.19.13a.58.58,0,0,1,.16.21.46.46,0,0,1,0,.34.44.44,0,0,1-.28.3,4,4,0,0,1-.52.2,4,4,0,0,0-.52.18.41.41,0,0,0-.28.26,1.64,1.64,0,0,1,.16.26l0,.08a.39.39,0,0,1-.28.31,4.27,4.27,0,0,1-.54.07,11.63,11.63,0,0,0-1.24.14,2.28,2.28,0,0,1-1,0l-.72-.19-.34.19a.44.44,0,0,1-.35,0,2,2,0,0,0-.39,0h-.27a1.18,1.18,0,0,1-.56-.94A3.65,3.65,0,0,1,49.06,59.37Z" style="fill:#423c25"/><path d="M59.51,50.28l.18-.46.05-.17.86-2.2a1.12,1.12,0,0,0,.27-.26l.21-.26a1.56,1.56,0,0,1,.3-.26,1.58,1.58,0,0,1,.52-.23c0,.19-.06.34-.08.44a1.76,1.76,0,0,0,0,.27q0,.1.06,0l.6-.67.12.46.21-.56a2.58,2.58,0,0,1,.27.21.42.42,0,0,1,.09.32l0,.34.65-.67h.12a1.54,1.54,0,0,0,.18.26.74.74,0,0,1,.13.29c-.08.43-.16.81-.24,1.15s-.18.7-.29,1.08c-.27.91-.57,1.8-.9,2.68s-.68,1.76-1,2.67a.41.41,0,0,1,.07.29,2,2,0,0,1-.1.36,2.59,2.59,0,0,1-.17.38,1.56,1.56,0,0,0-.12.34l0,.17.21,1.63a.63.63,0,0,0,0,.32.27.27,0,0,0,.26.18l0,0s0-.08,0-.08l-.07-.09s0,0,0-.05.09-.12.23-.17l.44-.17a1.94,1.94,0,0,0,.47-.25.81.81,0,0,0,.32-.44v-.07a.12.12,0,0,0,0-.1.2.2,0,0,1,0-.1v0a.44.44,0,0,1,.09-.15l.21-.26.2-.27c.06-.08.1-.12.1-.14a3.52,3.52,0,0,0,.09-.64,1.64,1.64,0,0,1,.22-.7A6.17,6.17,0,0,1,64.4,54a2.07,2.07,0,0,1,.28-.58l.53-2.54.31.17,0-.53a1.4,1.4,0,0,1,.09-.23l.23-.48c.09-.18.17-.37.25-.56a4.16,4.16,0,0,0,.17-.48,1.3,1.3,0,0,0,.15-.41l.33-1.15a1.93,1.93,0,0,0,.1-.46,1.12,1.12,0,0,1,.37-.22l.44-.14c.1,0,.17.06.22.23a.94.94,0,0,0,.12.3,1.52,1.52,0,0,0,.58,0,7.48,7.48,0,0,1,.84-.08,2,2,0,0,1,.76.1.56.56,0,0,1,.39.54.16.16,0,0,1,0,.1l-.06.11c-.06.15-.17.4-.31.77s-.3.76-.46,1.16l-.45,1.17-.31.77-.27,1.36-.45-.19.31.94-.66,1.47q-.33.72-.66,1.38l-.09.47a4.4,4.4,0,0,1-.1.47,2.42,2.42,0,0,1-.16.46,1.18,1.18,0,0,1-.2.28,3.48,3.48,0,0,1-.28.24l-.4.32a12.45,12.45,0,0,1-1.08,1.65c-.3.39-.48.54-.52.46h-.24l-.12.45s-.07.06-.16.09l-.2,0s-.08,0-.09-.12,0-.17,0-.27,0-.21,0-.3,0-.15-.06-.17a.67.67,0,0,1-.06.16L63.3,61l-.12.28-.06.15c0,.12-.16.15-.38.1a2.7,2.7,0,0,0-.6-.07.22.22,0,0,0-.22.12c0,.22-.22.33-.52.33a4,4,0,0,1-2-.55l-.08.24,0-.26a1.86,1.86,0,0,1-.53-.43.68.68,0,0,1-.08-.29c0-.16,0-.26-.09-.29l-.28-.42c-.08-.12-.15-.24-.21-.35a2.61,2.61,0,0,1-.14-.37,3.85,3.85,0,0,1-.11-.52,1.7,1.7,0,0,0,0-.31c0-.14,0-.3-.07-.47s-.05-.32-.07-.46,0-.25,0-.32a2.76,2.76,0,0,0,.53-.26c.07,0,.07-.08,0-.11l-.23-.06a.28.28,0,0,1-.23-.14s0-.09,0-.17l.08-.14c.08-.32.14-.57.19-.75a3.19,3.19,0,0,0,.13-.51c0-.16,0-.24,0-.26a5.91,5.91,0,0,0,.4-1.08c.1-.35.2-.71.32-1.08l.48-2A.94.94,0,0,0,59.51,50.28Z" style="fill:#423c25"/><rect x="-0.27" y="0.18" width="125" height="80" style="fill:none;stroke:#423c25;stroke-miterlimit:10;stroke-width:2px"/></g></svg>