<svg id="a7cc566c-e73b-4254-ae01-859d29ccdcb9" data-name="icon vecto" xmlns="http://www.w3.org/2000/svg" width="125" height="80" viewBox="0 0 125 80"><title>objectif_1</title><g id="bcbd0d7c-c14e-43e6-b0aa-6f1139fb5a89" data-name="objectif - copie"><rect x="-0.13" y="0.32" width="125" height="80" style="fill:#fff"/><path d="M128.85,18.94l-7.4-.37a.11.11,0,0,1-.09-.06s0,0,0-.06l1.3-4.14a0,0,0,0,1,0,0h0Z" style="fill:#423c25"/><path d="M124.2,2.43,121.28,8a.22.22,0,0,1-.34.07l-3.18-2.61a.09.09,0,0,1,0-.08.1.1,0,0,1,.06-.1Z" style="fill:#423c25"/><path d="M121.51,20.3a2.68,2.68,0,0,0-.2-1.76l0,0a.11.11,0,0,0,.09.06l7.4.37-6.13-4.65h0v0a2.67,2.67,0,0,0,1.51-1l10.71,7.68Z" style="fill:#fff"/><path d="M121.08,8.09a.24.24,0,0,0,.2-.12l2.92-5.54-6.42,2.82a.1.1,0,0,0-.06.1l-.11,0a2.62,2.62,0,0,0-.12-1.86l12-6.22-6.72,11.6a2.81,2.81,0,0,0-1.64-.63Z" style="fill:#fff"/><path d="M116.7,22.74l-.24,7.55-4-6.33a.21.21,0,0,1,0-.15.17.17,0,0,1,.12-.11l4-1.08a.09.09,0,0,1,.11,0A.13.13,0,0,1,116.7,22.74Z" style="fill:#423c25"/><path d="M113.56,12.25a2.32,2.32,0,1,1-3.26.29A2.32,2.32,0,0,1,113.56,12.25Z" style="fill:#fff"/><path d="M112.27,23.92l0-.14.12,0a.21.21,0,0,0,0,.15l4,6.33.24-7.55a.13.13,0,0,0,0-.09l0-.07a2.76,2.76,0,0,0,1.3.48V36.77l-7.2-11.31A2.61,2.61,0,0,0,112.27,23.92Z" style="fill:#fff"/><path d="M111.54,3.25a.16.16,0,0,1,0,.15.18.18,0,0,1-.12.12l-3.74,1.17h-.11a.19.19,0,0,1-.1-.17l.73-7.25Z" style="fill:#423c25"/><path d="M107.48,4.78A2.74,2.74,0,0,0,105.63,4l.94-13.49,6.55,11.71a2.71,2.71,0,0,0-1.47,1.26l-.1-.05a.16.16,0,0,0,0-.15l-3.33-6-.73,7.25a.19.19,0,0,0,.1.17Z" style="fill:#fff"/><path d="M106.4,21.63a.08.08,0,0,1,0,.11s0,0,0,0l-7,3.87,3.64-6.12a.16.16,0,0,1,.14-.08.16.16,0,0,1,.09,0Z" style="fill:#423c25"/><path d="M99.44,25.64l7-3.87s0,0,0,0l.07,0a2.11,2.11,0,0,0-.18.45,2.69,2.69,0,0,0,.35,1.88L94.58,30.21l6.9-11.5a2.69,2.69,0,0,0,1.73.66v.07a.16.16,0,0,0-.14.08Z" style="fill:#fff"/><path d="M103.16,9.47a.17.17,0,0,0,0-.14l.06-.08A3.19,3.19,0,0,0,106.58,9c.11-.07,2-1.34,1.49-3.12a2.46,2.46,0,0,0-.59-1.09l.1-.09h.11l3.74-1.17a.18.18,0,0,0,.12-.12l.1.05a1.46,1.46,0,0,0-.07.19c-.42,1.29.74,2.61,1.76,3.16.12.06,2.11,1.09,3.46-.16a2.88,2.88,0,0,0,.81-1.32l.11,0a.09.09,0,0,0,0,.08L120.94,8a.24.24,0,0,0,.14.05v.12a2,2,0,0,0-.41,0c-1.31.3-1.85,2-1.81,3.12,0,.13.14,2.38,1.91,2.89a3.54,3.54,0,0,0,1.91,0v0a0,0,0,0,0,0,0l-1.3,4.14s0,0,0,.06l0,0a2,2,0,0,0-.21-.33c-.88-1-2.61-.74-3.61-.17-.11.07-2,1.22-1.69,3a2.39,2.39,0,0,0,.91,1.52l0,.07a.09.09,0,0,0-.11,0l-4,1.08a.17.17,0,0,0-.12.11l-.12,0c.23-1.26-1-2.44-2-2.91-.12-.06-2.17-1-3.44.36a2.35,2.35,0,0,0-.4.54l-.07,0a.08.08,0,0,0,0-.11l-3.09-2.16a.16.16,0,0,0-.09,0v-.07a1.76,1.76,0,0,0,.31,0c1.31-.28,1.89-1.94,1.86-3.09,0-.14-.1-2.38-1.86-2.93a2.76,2.76,0,0,0-1.56,0l0-.09a.13.13,0,0,0,.1-.09Zm10.7,6a2.32,2.32,0,1,0-3.27.3A2.32,2.32,0,0,0,113.86,15.52Z" style="fill:#423c25"/><path d="M102,13.09a.13.13,0,0,1-.1.09.14.14,0,0,1-.11,0l-6.51-4,7.7.16a.14.14,0,0,1,.15.18Z" style="fill:#423c25"/><path d="M102,13.27a2.63,2.63,0,0,0-1.49,1L89,7.24,102.41,7A2.57,2.57,0,0,0,103,9.06a1.3,1.3,0,0,0,.22.19l-.06.08a.17.17,0,0,0-.12,0l-7.7-.16,6.51,4a.14.14,0,0,0,.11,0Z" style="fill:#fff"/><path d="M121.09,8.21a2.81,2.81,0,0,1,1.64.63l6.72-11.6-12,6.22a2.62,2.62,0,0,1,.12,1.86,2.88,2.88,0,0,1-.81,1.32c-1.35,1.25-3.34.22-3.46.16-1-.55-2.18-1.87-1.76-3.16a1.46,1.46,0,0,1,.07-.19,2.71,2.71,0,0,1,1.47-1.26L106.57-9.52,105.63,4a2.74,2.74,0,0,1,1.85.81,2.46,2.46,0,0,1,.59,1.09c.47,1.78-1.38,3.05-1.49,3.12a3.19,3.19,0,0,1-3.39.26,1.3,1.3,0,0,1-.22-.19A2.57,2.57,0,0,1,102.41,7L89,7.24l11.47,7a2.63,2.63,0,0,1,1.49-1,2.76,2.76,0,0,1,1.56,0c1.76.55,1.86,2.79,1.86,2.93,0,1.15-.55,2.81-1.86,3.09a1.76,1.76,0,0,1-.31,0,2.69,2.69,0,0,1-1.73-.66l-6.9,11.5,12.08-6.11a2.69,2.69,0,0,1-.35-1.88,2.11,2.11,0,0,1,.18-.45,2.35,2.35,0,0,1,.4-.54c1.27-1.33,3.32-.42,3.44-.36,1,.47,2.2,1.65,2,2.91l0,.14a2.61,2.61,0,0,1-1.46,1.54L118,36.77V23.06a2.76,2.76,0,0,1-1.3-.48,2.39,2.39,0,0,1-.91-1.52c-.35-1.8,1.58-2.95,1.69-3,1-.57,2.73-.85,3.61.17a2,2,0,0,1,.21.33,2.68,2.68,0,0,1,.2,1.76l13.4.64L124.2,13.26a2.67,2.67,0,0,1-1.51,1,3.54,3.54,0,0,1-1.91,0c-1.77-.51-1.9-2.76-1.91-2.89,0-1.15.5-2.82,1.81-3.12A2,2,0,0,1,121.09,8.21Z" style="fill:none;stroke:#423c25;stroke-miterlimit:10;stroke-width:0.6007771492004395px"/><path d="M106.42,21.74s0,0,0,0l-7,3.87,3.64-6.12a.16.16,0,0,1,.14-.08.16.16,0,0,1,.09,0l3.09,2.16A.08.08,0,0,1,106.42,21.74Z" style="fill:none;stroke:#423c25;stroke-miterlimit:10;stroke-width:0.6007771492004395px"/><path d="M112.42,23.81a.21.21,0,0,0,0,.15l4,6.33.24-7.55a.13.13,0,0,0,0-.09.09.09,0,0,0-.11,0l-4,1.08A.17.17,0,0,0,112.42,23.81Z" style="fill:none;stroke:#423c25;stroke-miterlimit:10;stroke-width:0.6007771492004395px"/><path d="M122.7,14.29h0l6.13,4.65-7.4-.37a.11.11,0,0,1-.09-.06s0,0,0-.06l1.3-4.14A0,0,0,0,1,122.7,14.29Z" style="fill:none;stroke:#423c25;stroke-miterlimit:10;stroke-width:0.6007771492004395px"/><path d="M117.72,5.35a.1.1,0,0,1,.06-.1l6.42-2.82L121.28,8a.22.22,0,0,1-.34.07l-3.18-2.61A.09.09,0,0,1,117.72,5.35Z" style="fill:none;stroke:#423c25;stroke-miterlimit:10;stroke-width:0.6007771492004395px"/><path d="M111.55,3.4a.16.16,0,0,0,0-.15l-3.33-6-.73,7.25a.19.19,0,0,0,.1.17h.11l3.74-1.17A.18.18,0,0,0,111.55,3.4Z" style="fill:none;stroke:#423c25;stroke-miterlimit:10;stroke-width:0.6007771492004395px"/><path d="M101.93,13.18a.14.14,0,0,1-.11,0l-6.51-4,7.7.16a.14.14,0,0,1,.15.18L102,13.09A.13.13,0,0,1,101.93,13.18Z" style="fill:none;stroke:#423c25;stroke-miterlimit:10;stroke-width:0.6007771492004395px"/><path d="M113.56,12.25a2.32,2.32,0,1,1-3.26.29A2.32,2.32,0,0,1,113.56,12.25Z" style="fill:none;stroke:#423c25;stroke-miterlimit:10;stroke-width:0.6007771492004395px"/><path d="M31.73,28.79a1,1,0,0,1-.2.24c-.07.06-.1.1-.08.12a.65.65,0,0,0,.46.24.91.91,0,0,0,.42,0A2.3,2.3,0,0,0,32.9,29c.09-.09.13-.15.13-.2a.51.51,0,0,0,0-.13s0-.09.07-.14l.84-1.1a1.19,1.19,0,0,0,.51-.38,1.38,1.38,0,0,0,.16-.36.6.6,0,0,1,.22-.32,2,2,0,0,1,.69-.28l2.23,0c.16,0,.25.07.26.2a1.49,1.49,0,0,0,.06.4c0,.07,0,.22-.08.46a3.09,3.09,0,0,1-.09.5,2.73,2.73,0,0,1-.69,1.08,15,15,0,0,1-1.26,1.26c-.46.43-.92.82-1.39,1.19s-.82.65-1.08.84l-.05.07A3.49,3.49,0,0,0,32,31.72c-.21,0-.33,0-.36.13a.53.53,0,0,0,0,.28,2.64,2.64,0,0,1,0,.28q0,.12-.21.12l-.46,0h-.65l-.72,0a1.94,1.94,0,0,1-.67-.14,2.56,2.56,0,0,1-1-.68,1.92,1.92,0,0,1-.42-.86,2.78,2.78,0,0,1-.06-.91,7.47,7.47,0,0,1,.11-.86,1.64,1.64,0,0,1-.12-.22.79.79,0,0,1-.12-.26c-.05-.13-.1-.27-.16-.41s-.1-.28-.14-.4a1,1,0,0,1-.06-.22,4.74,4.74,0,0,1,.08-1.12,8.73,8.73,0,0,1,.28-1.12c.11-.38.23-.76.37-1.14A5,5,0,0,0,28,23.05s0-.05.12-.1l.24-.17.36-.25a.65.65,0,0,0-.2-.1l-.38-.18a.72.72,0,0,1-.21-.13,1.45,1.45,0,0,1,.27-.45l.39-.46a4.55,4.55,0,0,0,.36-.47.72.72,0,0,0,.16-.42l.24-.34c.11-.16.23-.32.37-.49l.38-.48a4,4,0,0,1,.26-.3,4,4,0,0,1,.37-.53c.12-.14.25-.28.38-.41l.43-.37.54-.39a1.1,1.1,0,0,0,.28-.29,1.29,1.29,0,0,1,.28-.31,6.77,6.77,0,0,1,.74-.35,3.83,3.83,0,0,1,1.3-.3c.22,0,.48,0,.76,0a1.78,1.78,0,0,0,.47-.07,1.78,1.78,0,0,1,.42-.07c.08,0,.11,0,.1.07s0,.16.17.23a3,3,0,0,0,.45.19l.4.16c.1.05.11.09,0,.12a.66.66,0,0,0-.41.36c-.09.19-.16.31-.19.36s0,.07.14,0a4.11,4.11,0,0,1,.42-.14,1.47,1.47,0,0,1,.56-.05.81.81,0,0,1,.54.29l.28.36a1.36,1.36,0,0,1,.15.3,1.17,1.17,0,0,0,0,.2,1,1,0,0,0,.06.22,1,1,0,0,0,.18.31,4.1,4.1,0,0,1,.42.79.52.52,0,0,1-.09.58,2.2,2.2,0,0,0-.38.56,1.24,1.24,0,0,0-.12.41,1.45,1.45,0,0,0,0,.36,1.55,1.55,0,0,1-.06.4v0a1.12,1.12,0,0,1-.42.28,3.14,3.14,0,0,1-1,.3,3.37,3.37,0,0,1-1.22,0,2.19,2.19,0,0,1-1.18-.7l0-1,0-.05,0-.11,0-.08,0-.08c.11-.4.18-.68.22-.86s.06-.33.09-.46,0,0,0,0l-.4.23-2,.84-.84,1.32-.12.14a.38.38,0,0,0-.12.17.19.19,0,0,0,0,.19.42.42,0,0,0,.09.14.38.38,0,0,1,.09.13.72.72,0,0,1,0,.21c-.08.26-.18.54-.28.86s-.21.62-.32.94-.22.64-.33.94-.2.58-.3.84a1.68,1.68,0,0,0,.17.26c.05.07.1,0,.14-.07l-.14,1.37Z" style="fill:#423c25"/><path d="M38.26,31.89h-.09l-.12.09-.27.94s0,0-.05,0l-.09.06h-.07c-.1,0-.16-.08-.2-.24a.51.51,0,0,1,0-.31,1.91,1.91,0,0,0,.06-.27,4.1,4.1,0,0,1,.11-.4c0-.13.07-.25.11-.37l.08-.25a.26.26,0,0,1-.07-.15l.05-.17,0-.14L38,30c.11-.34.24-.72.39-1.13s.32-.86.48-1.32l.48-1.32.41-1.13c.12-.34.21-.58.25-.74.21-.37.44-.74.68-1.11a10.17,10.17,0,0,0,.62-1.1l1.14-2.33a15.1,15.1,0,0,1,1.4-2.28c0-.05.11,0,.2.07s.16.21.25.35.17.26.25.38.14.18.17.18.1-.06.15-.18a3.34,3.34,0,0,0,.16-.38c0-.14.09-.26.14-.37s.09-.16.12-.15H47.5l.48-.16c.05,0,.08,0,.1.06a1,1,0,0,1,0,.19l0,.2c0,.07,0,.1.06.1a1,1,0,0,0,.25,0,1.38,1.38,0,0,1,.29,0,.41.41,0,0,1,.21.1c.06,0,.07.13,0,.24l-.67,2.3a1.46,1.46,0,0,0,0,.54,5.06,5.06,0,0,0,.08.52c0,.17.08.35.11.51a2.38,2.38,0,0,1,0,.54c-.05.2-.13.53-.23,1s-.22,1-.33,1.5-.22,1-.32,1.5-.18.8-.23,1l0,.09A19.63,19.63,0,0,1,47.07,30c-.14.76-.33,1.54-.55,2.32a1.91,1.91,0,0,1-.64-.1,2.18,2.18,0,0,0-.63-.09.23.23,0,0,0-.18.09l-.17.21-.18.2a.3.3,0,0,1-.22.1c-.08,0-.11-.06-.09-.17a2.83,2.83,0,0,1,.06-.37c0-.14,0-.26.06-.37s0-.17-.08-.17-.05,0-.1.11a1.84,1.84,0,0,0-.17.22l-.25.34s-.08.12-.17.28a.83.83,0,0,1-.24.27s0,.07-.12.1v0h0c-.24,0-.36-.15-.37-.47a5.52,5.52,0,0,1,.08-1l.17-1c.05-.31,0-.47-.12-.47h-.67a.6.6,0,0,0-.55.22l-.34,1.15-.31,1.15a2.87,2.87,0,0,1-.18.42,1.39,1.39,0,0,1-.16.3l-.14.1H39l-.44-.46-.21-.09a.34.34,0,0,1,0-.21,1.38,1.38,0,0,1,.08-.27.61.61,0,0,0,0-.26C38.43,31.92,38.37,31.89,38.26,31.89ZM43,26.65a1.38,1.38,0,0,0-.07.2A.1.1,0,0,0,43,27a3.26,3.26,0,0,0,.68-.12.62.62,0,0,0,.48-.4.19.19,0,0,1,.08-.1.19.19,0,0,0,.08-.1,3.21,3.21,0,0,1,.05-.4c0-.2.07-.4.1-.62a5.51,5.51,0,0,1,.11-.61,2.2,2.2,0,0,1,.1-.41,1.29,1.29,0,0,1,0-.19c0-.09,0-.19.05-.29a1.15,1.15,0,0,0,0-.26q0-.12-.06-.12c-.15,0-.31.16-.49.48s-.37.68-.56,1.07-.34.76-.46,1.1S43,26.59,43,26.65Z" style="fill:#423c25"/><path d="M53.07,28a.13.13,0,0,0-.1,0l-.19.38a4.89,4.89,0,0,1-.22.65c-.11.3-.22.62-.34,1s-.24.66-.34,1-.17.52-.2.65a.69.69,0,0,1-.09.35,1.94,1.94,0,0,1-.15.3.14.14,0,0,1-.15.09l-.12,0-.11,0s-.06,0-.06.05l-.16.77h-.12c-.1,0-.15,0-.15,0a.63.63,0,0,1-.58-.4.75.75,0,0,1,.15-.71L50,32H50a.28.28,0,0,0-.21.11,1,1,0,0,0-.17.24l-.13.25a.5.5,0,0,1-.13.17h0l-.05,0h-.51l-.25,0-.25,0h-.14a.32.32,0,0,1-.36-.21,1.19,1.19,0,0,1-.1-.51,3.83,3.83,0,0,1,.05-.6,2.4,2.4,0,0,1,.09-.41l.05-.14a2.2,2.2,0,0,1,.09-.21.26.26,0,0,0,0-.15l0-.1,2-5.5.08-.22.08-.23a.73.73,0,0,0,.14-.24c0-.13.11-.27.18-.41a4.14,4.14,0,0,0,.15-.41,1.58,1.58,0,0,1,.09-.24,1.22,1.22,0,0,1,.12-.26l.21-.43c.08-.16.16-.31.24-.44a1.85,1.85,0,0,1,.2-.26l.16-.19a1,1,0,0,0,.15-.19l0-.1,0-.1h-.23l-.39,0a1.53,1.53,0,0,1-.34-.09q-.13-.06-.09-.18l.14-.18c.1-.1.15-.17.15-.2l.13,0a.83.83,0,0,0,.21-.06l.2-.07s.07,0,.06-.06l-.46-.26.1-.31s0-.06,0-.12,0-.08,0-.1a.62.62,0,0,1,.22-.1l.23,0,.2,0a.15.15,0,0,0,.12-.12l-.43-.55c-.1-.13-.06-.25.12-.37a3,3,0,0,1,.77-.34,11,11,0,0,1,1.15-.27c.43-.08.85-.16,1.26-.22s.77-.11,1.1-.14a6,6,0,0,1,.69,0,1.92,1.92,0,0,1,.68.06,3,3,0,0,0,.66.08.47.47,0,0,0,.19-.07.48.48,0,0,1,.24-.05h.1a4.76,4.76,0,0,1,1,.39,4.36,4.36,0,0,1,.82.55,2.24,2.24,0,0,1,.54.53,1.1,1.1,0,0,1,.06.72l-.48.43.33.19-.07.38-.07.22a4,4,0,0,0,0,1A3.24,3.24,0,0,1,60.44,23a1.15,1.15,0,0,1-.19.42,1.87,1.87,0,0,1-.44.35l-2.28,2.71-.09.36c.11.86.2,1.75.28,2.67a9,9,0,0,1-.19,2.78,1.85,1.85,0,0,1-.39,0l-.23,0-.2,0a1.26,1.26,0,0,0-.3,0,.11.11,0,0,0,0,.12.1.1,0,0,1,0,.12l-.19.23a2.86,2.86,0,0,1-.3.32,2.1,2.1,0,0,1-.32.29.46.46,0,0,1-.25.12c-.1,0-.15,0-.17-.09s0-.14,0-.23a.41.41,0,0,0-.06-.23.19.19,0,0,0-.19-.1.26.26,0,0,0-.14.09c-.07,0-.13.11-.21.18l-.2.19-.14.12a.42.42,0,0,1-.15.1q-.25,0-.42-.3a3.55,3.55,0,0,1-.24-.84,9.66,9.66,0,0,1-.1-1.16c0-.42,0-.83,0-1.22s0-.74,0-1.06,0-.53,0-.66S53.2,28,53.07,28Zm.81-2.68,0,.16q0,.11.12.15a2.74,2.74,0,0,0,.66-.19.9.9,0,0,0,.46-.44l1.4-2.16,0-.21a.61.61,0,0,0,0-.42,3.47,3.47,0,0,0-.16-.41,3.65,3.65,0,0,1-.18-.41.75.75,0,0,1-.06-.42c0-.11,0-.17-.2-.17h-.07l-.35.06-.44.08-.39.06a.64.64,0,0,0-.21,0l-.2,0s0,.07-.09.15v.07a.76.76,0,0,1,.63.3,1.13,1.13,0,0,1,.09.66,7.91,7.91,0,0,1-.49,1.52A9.86,9.86,0,0,0,53.88,25.29Z" style="fill:#423c25"/><path d="M61.37,32.13a.3.3,0,0,0-.18.1l-.21.23-.22.23c-.07.07-.12.11-.15.11s-.27-.15-.26-.45a5.36,5.36,0,0,1,.14-1,9.31,9.31,0,0,1,.28-1.1c.11-.35.19-.59.22-.72.42-1.46.9-2.9,1.46-4.32s1-2.86,1.47-4.32a.11.11,0,0,1,0-.12c0-.05,0-.07,0-.07H62a.6.6,0,0,1,.16-.24.56.56,0,0,0,.16-.24v-.1a.88.88,0,0,1-.17-.26c0-.07.08-.12.2-.17a2.34,2.34,0,0,1,.4-.11l.41,0h.29l-.34-.21a2.47,2.47,0,0,1-.36,0,.92.92,0,0,1-.34-.12.67.67,0,0,1-.21-.2.42.42,0,0,1,0-.32,1.54,1.54,0,0,1,.2-.3.6.6,0,0,1,.28-.22l1.08-.2h.47l1,0,1.22,0H71a.46.46,0,0,1-.2.33,1,1,0,0,1-.3.1l-.32.05a.46.46,0,0,0-.3.19,1.15,1.15,0,0,0,0,.68,1.06,1.06,0,0,1,0,.66,1.9,1.9,0,0,1-.19.44,2.76,2.76,0,0,1-.43.43.81.81,0,0,1-.51.12l-.57,0a.74.74,0,0,0-.34.08l-.08.25a3.59,3.59,0,0,1-.15.37l-.15.38-.1.27-.09.36c0,.11-.1.3-.18.57s-.19.56-.29.86l-.3.84c-.1.26-.17.44-.22.54l-1.8,6.33a2.37,2.37,0,0,1-.19.46,1.72,1.72,0,0,1-.34.48,1.08,1.08,0,0,0-.61,0,1.16,1.16,0,0,0-.32.24l-.24.28a.45.45,0,0,1-.36.13.42.42,0,0,1-.36-.17,1.52,1.52,0,0,1-.2-.38,2.83,2.83,0,0,0-.19-.39A.32.32,0,0,0,61.37,32.13Z" style="fill:#423c25"/><path d="M68.36,30.71a5.57,5.57,0,0,1,.47-1.15,7.26,7.26,0,0,0,.46-1.15,17.86,17.86,0,0,0,.52-2.26,17.86,17.86,0,0,1,.52-2.26,9.43,9.43,0,0,1,.52-1.32,7.16,7.16,0,0,0,.51-1.29l0-.1.1-.26v-.07c0-.08-.1-.14-.23-.17a.77.77,0,0,0-.37,0l-.41-.46s0,0,0-.09l.42-.51c.1-.13.2-.24.3-.35a1.34,1.34,0,0,0,.17-.2l.45-.1L72,19l-.23-.17a.72.72,0,0,0-.39-.14s0-.06,0-.07a.68.68,0,0,1,.37-.4,3.11,3.11,0,0,1,.71-.24,5.63,5.63,0,0,1,.85-.11l.78,0h.46q.81,0,1.59.06c.52,0,1,.06,1.6.06a1.93,1.93,0,0,0,.49-.06,1.88,1.88,0,0,1,.49-.06l0,.19c-.05.13-.08.19-.09.19l-.16.23a1.26,1.26,0,0,0-.15.23l-.08.19-.55.31.38.31,0,.2a1.36,1.36,0,0,1-.43.48,3.84,3.84,0,0,1-.7.36l-.76.24a5.81,5.81,0,0,1-.61.12l-.12.09a.34.34,0,0,0-.07.19l-.12.41A4.45,4.45,0,0,1,75,22l-.14.37,0,.09a.39.39,0,0,0,0,.17.18.18,0,0,1-.1.15l-.45.24.38,0s0,0,0,.12l-.09.22,0,.09c0,.07,0,.1.05.1h.12a4.42,4.42,0,0,0,.94-.1,4.92,4.92,0,0,1,.91-.09.36.36,0,0,1,.35.16.64.64,0,0,1,0,.39.64.64,0,0,1-.27.29c-.16.09-.32.18-.51.27l-.49.24q-.21.11-.24.18s.05.06.16.09a3,3,0,0,1,.33.1,1.15,1.15,0,0,1,.31.18c.09.08.1.18,0,.33a1,1,0,0,1-.46.56,1.89,1.89,0,0,1-.63.22c-.23,0-.46.07-.7.09a2,2,0,0,0-.66.21,1.4,1.4,0,0,0-.17.3,5.24,5.24,0,0,0-.22.57c-.08.22-.14.42-.21.6s-.1.3-.12.35v0c0,.09,0,.2,0,.33s0,.26,0,.39a4.3,4.3,0,0,0-.07.45h1.78q.15,0,.18.06a.24.24,0,0,1,0,.15c0,.05,0,.11,0,.18a.22.22,0,0,0,0,.16.17.17,0,0,0,.09.14l.2.13a.53.53,0,0,1,.15.2.47.47,0,0,1,0,.35.45.45,0,0,1-.29.3,3.84,3.84,0,0,1-.51.19l-.52.18c-.16.07-.26.15-.29.27a1.7,1.7,0,0,1,.17.26l0,.07a.38.38,0,0,1-.28.31,3,3,0,0,1-.54.08,12.17,12.17,0,0,0-1.25.14,2.45,2.45,0,0,1-1,0l-.72-.2-.33.2a.56.56,0,0,1-.35,0,2.08,2.08,0,0,0-.4,0h-.26a1.12,1.12,0,0,1-.56-.93A3.65,3.65,0,0,1,68.36,30.71Z" style="fill:#423c25"/><path d="M15.81,51.11a2.32,2.32,0,0,1,.22-.49c.09-.17.2-.34.31-.52s.21-.35.3-.51a1,1,0,0,0,.13-.47,2.72,2.72,0,0,1,.23-.35l.39-.54c.15-.19.28-.38.41-.55a3.22,3.22,0,0,1,.27-.34c.19-.24.35-.44.49-.6a3.42,3.42,0,0,1,.42-.43,5.63,5.63,0,0,1,.45-.38l.6-.51a1.85,1.85,0,0,0,.24-.32,1,1,0,0,1,.32-.33,4.74,4.74,0,0,1,1.18-.52,13.72,13.72,0,0,1,1.56-.4c.54-.1,1.06-.19,1.56-.25a9.09,9.09,0,0,1,1.19-.1q.47,0,.36.39a.61.61,0,0,1-.15.24l-.24.18-.24.16a.36.36,0,0,0-.14.21.16.16,0,0,0,.1.21,1.1,1.1,0,0,0,.32.11l.36.07c.12,0,.19.07.21.14l.41.86a2.08,2.08,0,0,1,.12.35c0,.09,0,.17,0,.24l.06.23a1.92,1.92,0,0,0,.18.33,3,3,0,0,0,.26.41,2.05,2.05,0,0,1,.16.26.73.73,0,0,1,.06.32,2.42,2.42,0,0,1-.09.52,5.25,5.25,0,0,1-.34,1,8.33,8.33,0,0,0-.36,1v0a3,3,0,0,0-.09.58c0,.32-.07.65-.11,1s-.08.7-.12,1a4.8,4.8,0,0,1-.09.56l0,.1a.4.4,0,0,0,0,.13.48.48,0,0,1-.06.21l0,.09,0,.12a.57.57,0,0,0-.06.15l-.06.14,0,.12a.66.66,0,0,1-.38.19.33.33,0,0,0-.29.22.18.18,0,0,0,0,.19l.13.14.15.15a.25.25,0,0,1,.07.19,2.07,2.07,0,0,0-.08.49q0,.38-.09.57a3,3,0,0,1-.74,1.15,18.12,18.12,0,0,1-1.33,1.28c-.49.43-1,.83-1.48,1.2s-.89.69-1.18.93a.2.2,0,0,0,0,.09.21.21,0,0,0,0,.22.22.22,0,0,1,0,.21c-.05.15-.26.24-.62.28a9.83,9.83,0,0,1-1.06.06h-.48a6.28,6.28,0,0,1-.79-.08q-.53-.09-1.08-.24a8.9,8.9,0,0,1-1-.35c-.29-.13-.47-.27-.51-.41a1.34,1.34,0,0,0-.22-.38l-.28-.39a3.84,3.84,0,0,1-.22-.39.62.62,0,0,1,0-.42l0-.17.09-.34.07-.29.05-.16a.38.38,0,0,0-.14-.27.31.31,0,0,1-.1-.29.78.78,0,0,1-.07-.28c0-.15,0-.3,0-.46s0-.3,0-.43a1.23,1.23,0,0,1,0-.27,10.34,10.34,0,0,1,.13-1.26q.12-.6.3-1.26l.38-1.24a8.4,8.4,0,0,0,.27-1.25s0-.11-.06-.22-.07-.17-.06-.19v-.14A.51.51,0,0,1,15.81,51.11Zm2.78,5.42a1.27,1.27,0,0,0,.06.41c.06.19.13.39.22.6a4,4,0,0,0,.28.55q.13.24.24.24a.66.66,0,0,0,.42-.22,1.11,1.11,0,0,1,.34-.28l.22-.22.36-.36.38-.37.27-.23.05-.16c.11-.39.2-.76.28-1.12s.16-.72.23-1.07.16-.71.25-1.07.21-.73.34-1.11a2.88,2.88,0,0,1,0-.47c0-.18.05-.37.08-.55s.06-.36.1-.53a3.59,3.59,0,0,1,.09-.4l.18-.36a1.82,1.82,0,0,0,.18-.36v0a.73.73,0,0,1,.05-.12l.05-.1,0-.1a.54.54,0,0,0-.07-.54,1.15,1.15,0,0,0-.4-.28l-.4-.2c-.12,0-.14-.13-.06-.22h-.27a.14.14,0,0,0-.13.06,1.31,1.31,0,0,0-.08.27l-1.3,1.87-.07.22a1.48,1.48,0,0,0-.05.66,1.47,1.47,0,0,1-.07.68,18.16,18.16,0,0,1-.91,2.46A17.88,17.88,0,0,0,18.59,56.53Z" style="fill:#423c25"/><path d="M28.39,62c-.05,0-.12,0-.2,0a4,4,0,0,0-.62,0c-.19,0-.29,0-.29-.14l-.61-.11-.54-.13q-.16,0-.18,0a.23.23,0,0,1,0-.07c-.13-.05-.17-.08-.13-.1s0,0,0-.12,0-.21.21-.43c0-.18,0-.34,0-.5a1.18,1.18,0,0,1,0-.39l.17-.6.21-.41s0,0,.12,0l.67,0a.4.4,0,0,0-.1-.13l-.24-.23-.23-.21c-.07-.07-.08-.1-.05-.1l1.2-4.46s0-.05.11-.11l.23-.19.22-.21c.08-.06.11-.1.11-.12s0-.07,0-.16v-.36c0-.15,0-.28,0-.39s0-.17,0-.19l.1-.28a2.93,2.93,0,0,1,.18-.44c.07-.16.14-.31.21-.44a.79.79,0,0,1,.18-.26,1.14,1.14,0,0,1,.15-.18.68.68,0,0,0,.14-.18l.07-.19h-.2l-.33,0c-.25,0-.36-.07-.31-.2a1.54,1.54,0,0,1,.09-.22c.05-.14.09-.22.1-.26l1-.07s0,0-.15-.08l-.31-.13-.31-.15c-.1,0-.14-.08-.14-.09l.14-.34a1,1,0,0,0,.08-.34,2.43,2.43,0,0,0,0-.31,2.55,2.55,0,0,0,.18-.53.65.65,0,0,1,.25-.4,2.42,2.42,0,0,1,1-.46,12.74,12.74,0,0,1,1.42-.26,11.56,11.56,0,0,1,1.37-.12l.9,0,.72.07h.79a4.59,4.59,0,0,1,.93.38,4.29,4.29,0,0,1,.77.56,2.24,2.24,0,0,1,.54.52,1.07,1.07,0,0,1,.06.7,10.1,10.1,0,0,1-.13,1.87c-.09.45-.16.85-.2,1.2a1.8,1.8,0,0,1-.42.75,7,7,0,0,1-.6.48c-.22.14-.43.29-.64.44a1.58,1.58,0,0,0-.5.61,2.58,2.58,0,0,1,.38.52,3.86,3.86,0,0,1,.28.68,3.61,3.61,0,0,1,.12.83,3,3,0,0,1-.14.92c-.08.2-.15.39-.22.58s-.16.41-.26.65a8.57,8.57,0,0,1-.36.81,10.89,10.89,0,0,1-.55,1,2.84,2.84,0,0,1-.23.4,1.05,1.05,0,0,1-.25.3,1.68,1.68,0,0,1-.35.26c-.13.08-.3.16-.49.26-.4.22-.77.41-1.1.55a8.74,8.74,0,0,1-1.13.39h-.12l-.37,0h-.3l-.77.07a1.9,1.9,0,0,0-.36.08,1.51,1.51,0,0,1-.5,0l.07-.22c0-.08,0-.13,0-.16v-.1Zm1.72-3.41a2.73,2.73,0,0,0,.42.13l.57.14a.59.59,0,0,0,.29-.17,8.58,8.58,0,0,1,.52-.9,3.84,3.84,0,0,0,.46-.9l.05-.22L32.13,56a.77.77,0,0,0-.34-.57,1.24,1.24,0,0,0-.6-.34l-.16.72c0,.13-.12.4-.26.8L30.33,58c0,.18-.07.28-.12.31Zm2-5.89a.32.32,0,0,0,.2.18,1.23,1.23,0,0,0,.49-.17.93.93,0,0,0,.32-.41l.72-.72,0-.21a8.63,8.63,0,0,0,.2-.88,5.31,5.31,0,0,0,.11-.87s-.06,0-.19-.1l-.24-.1a3.11,3.11,0,0,0-.37.08l-.37.08a3.21,3.21,0,0,0-.41.11.5.5,0,0,0-.23.05.31.31,0,0,0-.08.14l0,.07c.31,0,.45.13.45.28a3.21,3.21,0,0,1-.14.63,2.63,2.63,0,0,1-.13.54,1.78,1.78,0,0,1-.12.27c0,.07-.08.16-.13.27a2.48,2.48,0,0,0-.14.56S32.11,52.63,32.15,52.73Z" style="fill:#423c25"/><path d="M48.47,50.56,48,52.26c-.12.37-.22.73-.33,1.08a5.56,5.56,0,0,0-.2,1.08s0,.1-.07.25l-.17.52a7.44,7.44,0,0,1-.27.74s0,.07,0,.15a.27.27,0,0,1,0,.17.66.66,0,0,1-.32.14l-.28.06c-.06,0-.08.06,0,.11a1.47,1.47,0,0,0,.39.26l-.23.31-.34.47-.33.47-.23.31c-.15.21-.28.38-.4.52a4.31,4.31,0,0,1-.37.37l-.41.35-.53.42-.22.29a1.21,1.21,0,0,1-.26.28l-1,.65a3.72,3.72,0,0,1-1.16.31,10.26,10.26,0,0,1-1.12,0c-.27,0-.38-.11-.34-.33s0-.12-.14-.12a1.73,1.73,0,0,0-.3,0l-.34.05h-.25c-.06,0-.09-.05-.07-.1l0-.15a2.33,2.33,0,0,0,0-.28c0-.1,0-.19,0-.28a.63.63,0,0,0,0-.15.32.32,0,0,0-.15.17l-.19.3-.2.27q-.08.12-.15.12l-.17,0q-.12,0-.12-.09l.14-.45h-.24c-.09.08-.18-.08-.26-.46a9.22,9.22,0,0,1-.14-1.66l-.21-.31a.94.94,0,0,1-.13-.24.81.81,0,0,1,0-.29,2.37,2.37,0,0,1,.11-.45,2,2,0,0,1,.15-.47c.06-.15.12-.31.19-.47a4.18,4.18,0,0,1,.29-1,2.07,2.07,0,0,1,.38-.59,1.59,1.59,0,0,1,.44-.32l.47-.21a2.58,2.58,0,0,1,2.31.29,1.37,1.37,0,0,1-.17.71,4.68,4.68,0,0,0-.29.64l0,.13.11.25c0,.1.07.18.09.25a.49.49,0,0,1,0,.13v0s0,.07-.05.1l0,.09,0,.08a.46.46,0,0,0,.06.44.89.89,0,0,0,.32.25l.35.17c.1,0,.15.1.13.17s0,0-.07,0l-.12.09a.08.08,0,0,0-.07.07v0a.52.52,0,0,0,.37-.18,1.48,1.48,0,0,0,.25-.32L43.29,56l.05-.17a3.11,3.11,0,0,0,.13-.71.87.87,0,0,1,.35-.66c.14-.9.28-1.74.41-2.53a17.94,17.94,0,0,1,.6-2.56,12.46,12.46,0,0,0,.28-1.23,7.73,7.73,0,0,1,.36-1.31.39.39,0,0,1,.35-.13.54.54,0,0,0,.37-.11h.1v1.46l.48-1.13a.63.63,0,0,1,.28-.33l.39-.19-.09.55.38-.46.22.67s0,0,.06,0,.08-.17.12-.28.1-.25.18-.43a3.11,3.11,0,0,0,.42.13,1.57,1.57,0,0,0,.25,0,.64.64,0,0,1,.18.06,1.2,1.2,0,0,1,.2.17l-.74,2.81,0,.16a3.93,3.93,0,0,0-.08.46A.81.81,0,0,0,48.47,50.56Z" style="fill:#423c25"/><path d="M47.25,59.51a6.19,6.19,0,0,1,.47-1.15,7.33,7.33,0,0,0,.47-1.15A19.69,19.69,0,0,0,48.7,55a17.86,17.86,0,0,1,.52-2.26,9.56,9.56,0,0,1,.53-1.32,7.88,7.88,0,0,0,.5-1.29l0-.1.1-.26v-.07c0-.08-.09-.14-.23-.17a.77.77,0,0,0-.37,0L49.36,49a.13.13,0,0,1,0-.09l.42-.51.3-.35a1.34,1.34,0,0,0,.17-.2l.46-.1.16,0a2.18,2.18,0,0,0-.22-.17.75.75,0,0,0-.4-.14s0-.06,0-.07a.68.68,0,0,1,.37-.4,3.11,3.11,0,0,1,.71-.24,5.63,5.63,0,0,1,.85-.11l.78,0h.46q.81,0,1.59.06c.52,0,1.06.06,1.6.06a1.88,1.88,0,0,0,.49-.06,1.93,1.93,0,0,1,.49-.06l0,.19c0,.13-.09.19-.1.19l-.16.23a2.4,2.4,0,0,0-.15.23l-.07.19-.56.31.39.31,0,.2a1.36,1.36,0,0,1-.43.48,3.54,3.54,0,0,1-.7.36c-.25.09-.51.17-.75.24a5.92,5.92,0,0,1-.62.12l-.12.09a.44.44,0,0,0-.07.19l-.12.41a2.81,2.81,0,0,1-.13.45c-.06.15-.1.27-.13.37l0,.09a.65.65,0,0,0,0,.17.16.16,0,0,1-.1.15l-.45.24.38,0s.06,0,0,.12l-.1.22,0,.09c0,.07,0,.1,0,.1h.12a4.36,4.36,0,0,0,.94-.1,4.92,4.92,0,0,1,.91-.09.35.35,0,0,1,.35.16.57.57,0,0,1,0,.39.75.75,0,0,1-.28.29l-.5.27-.5.24q-.21.1-.24.18s.06.06.16.09l.34.1a1.33,1.33,0,0,1,.31.18c.09.08.1.18,0,.33a1,1,0,0,1-.45.56,1.94,1.94,0,0,1-.64.22l-.69.09a1.83,1.83,0,0,0-.66.21,1.06,1.06,0,0,0-.17.3,5.19,5.19,0,0,0-.23.57l-.2.6a3.64,3.64,0,0,0-.12.35v0a2.32,2.32,0,0,0-.05.33l-.06.39a2.59,2.59,0,0,0-.06.45h1.77q.15,0,.18.06a.19.19,0,0,1,0,.15s0,.11,0,.18a.43.43,0,0,0,0,.16.17.17,0,0,0,.1.14l.19.13a.54.54,0,0,1,.16.2.48.48,0,0,1,0,.35.44.44,0,0,1-.28.3,4,4,0,0,1-.52.19l-.52.18a.46.46,0,0,0-.29.27,1.09,1.09,0,0,1,.17.26l0,.07a.38.38,0,0,1-.28.31,2.84,2.84,0,0,1-.54.08,11.63,11.63,0,0,0-1.24.14,2.44,2.44,0,0,1-1,0l-.72-.2-.34.2a.55.55,0,0,1-.35,0,2.08,2.08,0,0,0-.39-.05h-.27a1.17,1.17,0,0,1-.56-.93A3.65,3.65,0,0,1,47.25,59.51Z" style="fill:#423c25"/><path d="M60.23,58.24l-.2.2c-.06.06-.08.09-.06.11a.63.63,0,0,0,.41.19.76.76,0,0,0,.38,0,2.23,2.23,0,0,0,.46-.3.31.31,0,0,0,.09-.15.37.37,0,0,0,0-.12s0-.08.09-.12l.75-1a.93.93,0,0,0,.44-.34c.06-.11.1-.22.14-.31a.75.75,0,0,1,.17-.28,1.5,1.5,0,0,1,.62-.25l1.89.05a.21.21,0,0,1,.24.17,2,2,0,0,1,0,.74,3.14,3.14,0,0,1-.1.43,2.7,2.7,0,0,1-.6,1,14,14,0,0,1-1.09,1.09c-.41.37-.81.71-1.21,1l-1,.75,0,.05a4.7,4.7,0,0,0-.72-.29,1.57,1.57,0,0,0-.5-.1c-.18,0-.28,0-.31.11a.38.38,0,0,0,0,.24,1.13,1.13,0,0,1,0,.25c0,.07-.06.1-.17.1H59l-.63,0a2.46,2.46,0,0,1-.59-.12,2.14,2.14,0,0,1-.86-.59,1.89,1.89,0,0,1-.36-.74,2.76,2.76,0,0,1,0-.81c0-.27,0-.52.08-.74a.76.76,0,0,0-.12-.19.93.93,0,0,0-.07-.24l-.15-.35c0-.12-.09-.23-.13-.34s0-.17,0-.2a4,4,0,0,1,.06-1,8.17,8.17,0,0,1,.22-1c.1-.32.21-.64.33-1a4.43,4.43,0,0,0,.23-1s0,0,.1-.1l.23-.14.34-.22-.36-.16L57,52.51c-.07,0-.1-.06-.1-.08a1,1,0,0,1,.21-.4l.35-.4.33-.4a.66.66,0,0,0,.14-.36l.22-.3a3.9,3.9,0,0,1,.32-.42,3.9,3.9,0,0,0,.32-.42,2.48,2.48,0,0,1,.22-.28,4.13,4.13,0,0,1,.36-.46,3.64,3.64,0,0,1,.34-.34,4,4,0,0,1,.37-.3l.46-.36a2,2,0,0,0,.22-.26.83.83,0,0,1,.27-.27,4.69,4.69,0,0,1,.63-.32,3.86,3.86,0,0,1,.55-.17,3.55,3.55,0,0,1,.57-.07h.67l.25,0,.3-.07a.85.85,0,0,1,.24,0c.06,0,.09,0,.07.07s0,.15.16.21.25.11.38.15l.34.14c.09,0,.09.07,0,.1a.71.71,0,0,0-.36.33,1.41,1.41,0,0,0-.14.3c0,.05,0,.05.12,0a1.73,1.73,0,0,1,.36-.11,1.77,1.77,0,0,1,.47,0,.63.63,0,0,1,.46.25l.24.31a.79.79,0,0,1,.12.26c0,.07,0,.13,0,.18l.06.18a1.24,1.24,0,0,0,.18.27,3.45,3.45,0,0,1,.35.69.5.5,0,0,1-.06.51,1.88,1.88,0,0,0-.35.48,1.46,1.46,0,0,0-.11.36c0,.11,0,.21,0,.31a1.55,1.55,0,0,1,0,.34l0,0a1,1,0,0,1-.36.26,2.62,2.62,0,0,1-.83.25,3.2,3.2,0,0,1-1.06,0,1.84,1.84,0,0,1-1-.61v-.89a.56.56,0,0,1,.05-.08.14.14,0,0,0,0-.09l0,0c.09-.36.15-.61.17-.76a2.21,2.21,0,0,1,.07-.4s0,0,0,0l-.31.21-1.73.72-.74,1.15-.12.13-.1.13a.25.25,0,0,0,0,.18l.07.11a.67.67,0,0,1,.06.12.3.3,0,0,1,0,.19c-.13.45-.3,1-.5,1.56s-.4,1.11-.56,1.54a1.53,1.53,0,0,0,.15.23s.09,0,.12-.06l-.1,1.2Z" style="fill:#423c25"/><path d="M68.08,60.93a.28.28,0,0,0-.18.1l-.22.23-.21.23a.34.34,0,0,1-.16.11c-.17,0-.26-.15-.25-.45a6.18,6.18,0,0,1,.13-1c.08-.38.18-.75.29-1.1s.19-.59.22-.72A44.77,44.77,0,0,1,69.16,54a44.77,44.77,0,0,0,1.46-4.32.12.12,0,0,1,0-.12s0-.07,0-.07H68.75a.6.6,0,0,1,.16-.24.78.78,0,0,0,.16-.24v-.1a.69.69,0,0,1-.17-.26c0-.07.08-.12.2-.17a2.11,2.11,0,0,1,.4-.11l.41,0h.28l-.33-.21a2.33,2.33,0,0,1-.36,0,.92.92,0,0,1-.34-.12.58.58,0,0,1-.21-.2.42.42,0,0,1,0-.32,1.41,1.41,0,0,1,.19-.3.62.62,0,0,1,.29-.22l1.08-.2H71l1,0,1.21,0h4.56a.46.46,0,0,1-.2.33,1,1,0,0,1-.3.1l-.33,0a.51.51,0,0,0-.3.19,1.14,1.14,0,0,0,0,.68,1.06,1.06,0,0,1,0,.66,1.9,1.9,0,0,1-.19.44,3.33,3.33,0,0,1-.43.43.81.81,0,0,1-.51.12l-.57,0a.74.74,0,0,0-.34.08s0,.13-.08.25a3.59,3.59,0,0,1-.15.37c0,.13-.11.26-.15.38l-.1.27-.09.36-.19.57c-.08.28-.18.56-.28.86s-.21.57-.3.84-.17.44-.22.54l-1.8,6.33a2.37,2.37,0,0,1-.19.46,2,2,0,0,1-.34.48,1.08,1.08,0,0,0-.61,0,1,1,0,0,0-.32.24l-.24.28a.45.45,0,0,1-.36.13.42.42,0,0,1-.36-.17,2,2,0,0,1-.21-.38,2,2,0,0,0-.18-.39A.33.33,0,0,0,68.08,60.93Z" style="fill:#423c25"/><path d="M74.44,61.5l.24-.84c.35-1.45.7-2.88,1.06-4.28s.73-2.83,1.15-4.29l0-.16.08-.22.06-.17,0-.09a.54.54,0,0,1,.08-.15c0-.08.1-.17.15-.26l.16-.27a.4.4,0,0,0,.07-.14.81.81,0,0,1,.07-.23q.08-.18.15-.39c0-.15.09-.28.14-.41l.1-.27.12-.27q.06-.18.12-.42l.14-.51.14-.5a3.1,3.1,0,0,0,.1-.42,1.26,1.26,0,0,1,.07-.28l.24-.09.47-.16.68-.23a.37.37,0,0,1,.33.14.82.82,0,0,1,.11.3c0,.11,0,.21,0,.31s0,.12.1.12h0a1.28,1.28,0,0,0,.21-.29.23.23,0,0,0,.1-.12s0-.07.07-.07a.89.89,0,0,1,.31-.07l.24,0,.18.21.16.18h.12l.5-.2h.12l.07.1a.35.35,0,0,0,.12.1l-.12.4c-.29,1-.62,2-1,3s-.77,2-1.16,3a1.41,1.41,0,0,1-.33.49,1.17,1.17,0,0,0-.31.47,1.84,1.84,0,0,0-.07.7,5.14,5.14,0,0,1,0,.65l-.12.48-.38,1.32-.12.43c-.16.53-.33,1.1-.5,1.73a11.23,11.23,0,0,1-.63,1.77.17.17,0,0,1-.15.11h-.33a1.35,1.35,0,0,0-.23-.4.65.65,0,0,0-.44-.11l-.18,0a.21.21,0,0,0-.13,0l-.27.27-.31,0c-.16,0-.25,0-.26.06a.4.4,0,0,0-.16.07l-.22.15-.21.14-.14.1A1.05,1.05,0,0,1,74.44,61.5Z" style="fill:#423c25"/><path d="M81.81,53.41l.12-.4c0-.16.1-.32.16-.48s.1-.3.13-.41l0-.19a1.68,1.68,0,0,1,.09-.22l.17-.37c.06-.14.13-.27.19-.4s.12-.23.17-.31l.17-.29,0-.05v0a.14.14,0,0,0-.09-.12l-.21-.08L82.51,50a0,0,0,0,0,0,0,0,0,0,0,1,0,0,.46.46,0,0,1,.23-.3,1.51,1.51,0,0,1,.36-.18l.33-.12c.11,0,.17-.07.18-.1s0-.08,0-.11L83.44,49a.57.57,0,0,1-.13-.08.15.15,0,0,1,0-.15.45.45,0,0,1,.17-.25l.3-.18.29-.11c.09,0,.13,0,.13-.06s0,0,0,0l-.55-.22c-.11,0-.13-.18,0-.4a1.07,1.07,0,0,1,.56-.67l3.3-.12c1.14,0,2.24-.07,3.3-.07a1.42,1.42,0,0,1,.44.06c.12,0,.16.13.11.27a.45.45,0,0,1-.22.21,3,3,0,0,1-.36.14,2,2,0,0,0-.31.12c-.08,0-.1.08,0,.13l.43.46a.08.08,0,0,0,0,.07.34.34,0,0,1-.15.18l-.23.11-.22.08a.22.22,0,0,0-.12.11.19.19,0,0,0,0,.22,1.16,1.16,0,0,0,.2.13l.21.12a.18.18,0,0,1,.06.18.39.39,0,0,1-.19.21,2.18,2.18,0,0,1-.34.14,2.74,2.74,0,0,1-.37.08,1.31,1.31,0,0,0-.25,0,.52.52,0,0,0-.17.09,3.37,3.37,0,0,1-.48.34,1.92,1.92,0,0,1-.45.18,2.39,2.39,0,0,1-.49.08,5.59,5.59,0,0,1-.62,0l0,.09-.16.6c0,.2-.11.4-.17.63a3.12,3.12,0,0,0-.13.65,1.44,1.44,0,0,0,0,.51q0,.21.18.21a3.93,3.93,0,0,0,1-.16,3.93,3.93,0,0,1,1-.16c.12,0,.17,0,.17.1a.49.49,0,0,1,0,.22.71.71,0,0,1-.28.44,2.46,2.46,0,0,1-.44.25c-.14.07-.28.12-.4.17s-.2.11-.22.19v0c.45,0,.7.12.74.36a1.79,1.79,0,0,1,0,.82,1,1,0,0,1-.63.63,4.23,4.23,0,0,1-1,.25l-1,.12c-.3,0-.46.12-.49.24l-1.4,4.11a1.41,1.41,0,0,0-.38.67.94.94,0,0,0-.07.34.41.41,0,0,1,0,.19.35.35,0,0,1-.18.11h-.13a1.35,1.35,0,0,1-.84-.24,2.2,2.2,0,0,1-.53-.6l-.09,0a.53.53,0,0,0-.41.14.91.91,0,0,0-.19.3,2.14,2.14,0,0,1-.17.3.43.43,0,0,1-.36.13.39.39,0,0,1-.41-.36,2.75,2.75,0,0,1,0-.82,7,7,0,0,1,.15-.9c.08-.29.13-.5.16-.61.24-1,.47-2,.68-3S81.52,54.42,81.81,53.41Z" style="fill:#423c25"/><rect x="-0.13" y="0.32" width="125" height="80" style="fill:none;stroke:#423c25;stroke-miterlimit:10;stroke-width:2px"/></g></svg>