<svg id="b9376490-b0ce-4f28-a57c-1ae668c1c8f6" data-name="icon vecto" xmlns="http://www.w3.org/2000/svg" width="125" height="80" viewBox="0 0 125 80"><title>objet_1</title><g id="b657652e-57ba-47d1-9122-b82e953b4c4c" data-name="objet - copie"><rect x="0.25" y="0.43" width="125" height="80" style="fill:#fff"/><path d="M129.23,19l-7.4-.36a.09.09,0,0,1-.08-.06.06.06,0,0,1,0-.06l1.3-4.14,0,0h0Z" style="fill:#423c25"/><path d="M124.58,2.53l-2.92,5.55a.21.21,0,0,1-.2.12.27.27,0,0,1-.14,0l-3.18-2.61a.1.1,0,0,1,0-.14.1.1,0,0,1,0,0Z" style="fill:#423c25"/><path d="M123.08,14.37a2.65,2.65,0,0,0,1.5-1l10.72,7.68-13.4-.64a2.78,2.78,0,0,0-.21-1.76l.06,0a.09.09,0,0,0,.08.06l7.4.36L123.1,14.4h0Z" style="fill:#fff"/><path d="M118,5.37a2.57,2.57,0,0,0-.13-1.8l12-6.23L123.11,9a2.8,2.8,0,0,0-1.64-.64V8.2a.21.21,0,0,0,.2-.12l2.92-5.55-6.41,2.83a.1.1,0,0,0,0,0Z" style="fill:#fff"/><path d="M117.05,22.76a.14.14,0,0,1,0,.09l-.24,7.55-4-6.33a.15.15,0,0,1,0-.15.15.15,0,0,1,.11-.11l4-1.08A.13.13,0,0,1,117.05,22.76Z" style="fill:#423c25"/><path d="M114,12.36a2.33,2.33,0,1,1-3.27.3A2.32,2.32,0,0,1,114,12.36Z" style="fill:#fff"/><path d="M116.84,30.4l.24-7.55a.14.14,0,0,0,0-.09l0-.07a2.8,2.8,0,0,0,1.3.48V36.89l-7.2-11.32A2.62,2.62,0,0,0,112.66,24a.68.68,0,0,0,0-.14l.13,0a.15.15,0,0,0,0,.15Z" style="fill:#fff"/><path d="M111.92,3.36a.16.16,0,0,1,0,.15.15.15,0,0,1-.12.12L108.07,4.8H108a.16.16,0,0,1-.09-.17l.72-7.25Z" style="fill:#423c25"/><path d="M111.93,3.51a.16.16,0,0,0,0-.15l-3.33-6-.72,7.25a.16.16,0,0,0,.09.17l-.09.1A2.8,2.8,0,0,0,106,4.08L107-9.41,113.51,2.3A2.68,2.68,0,0,0,112,3.56Z" style="fill:#fff"/><path d="M106.78,21.74a.1.1,0,0,1,0,.12l0,0-7,3.86,3.65-6.11a.16.16,0,0,1,.14-.08l.08,0Z" style="fill:#423c25"/><path d="M106.77,21.89l0,0,.06,0a1.49,1.49,0,0,0-.17.44A2.59,2.59,0,0,0,107,24.2L95,30.32l6.91-11.5a2.67,2.67,0,0,0,1.73.66v.08a.16.16,0,0,0-.14.08l-3.65,6.11Z" style="fill:#fff"/><path d="M117.05,22.76a.13.13,0,0,0-.12,0l-4,1.08a.15.15,0,0,0-.11.11l-.13,0c.22-1.25-1-2.44-2-2.91-.12-.06-2.17-1-3.45.36a2.19,2.19,0,0,0-.4.55l-.06,0a.1.1,0,0,0,0-.12l-3.09-2.16-.08,0v-.08a1.54,1.54,0,0,0,.3,0c1.32-.28,1.89-1.94,1.86-3.09,0-.13-.1-2.38-1.86-2.92a2.86,2.86,0,0,0-1.56,0l0-.08a.15.15,0,0,0,.09-.1l1.13-3.61a.16.16,0,0,0,0-.15l.06-.08A3.18,3.18,0,0,0,107,9.11c.11-.08,2-1.35,1.5-3.13a2.53,2.53,0,0,0-.59-1.08l.09-.1h.11l3.74-1.17a.15.15,0,0,0,.12-.12l.11.05a1.19,1.19,0,0,0-.08.2c-.41,1.28.74,2.6,1.76,3.15.12.06,2.11,1.09,3.46-.17A2.78,2.78,0,0,0,118,5.37l.11,0a.1.1,0,0,0,0,.14l3.18,2.61a.27.27,0,0,0,.14,0v.12a1.83,1.83,0,0,0-.4,0c-1.32.3-1.86,2-1.81,3.13,0,.13.14,2.36,1.9,2.89a3.58,3.58,0,0,0,1.92,0v0l0,0-1.3,4.14a.06.06,0,0,0,0,.06l-.06,0a1.26,1.26,0,0,0-.21-.32c-.87-1-2.6-.75-3.61-.18-.11.07-2,1.21-1.69,3a2.36,2.36,0,0,0,.91,1.52Zm-2.81-7.13a2.32,2.32,0,1,0-3.27.3A2.32,2.32,0,0,0,114.24,15.63Z" style="fill:#423c25"/><path d="M102.2,13.28l-6.51-4,7.7.16a.16.16,0,0,1,.12,0,.16.16,0,0,1,0,.15l-1.13,3.61a.15.15,0,0,1-.09.1A.16.16,0,0,1,102.2,13.28Z" style="fill:#423c25"/><path d="M102.2,13.28a.16.16,0,0,0,.12,0l0,.08a2.58,2.58,0,0,0-1.49,1l-11.46-7,13.41-.23a2.58,2.58,0,0,0,.55,2.05l.22.19-.06.08a.16.16,0,0,0-.12,0l-7.7-.16Z" style="fill:#fff"/><path d="M121.47,8.32a2.8,2.8,0,0,1,1.64.64l6.72-11.62-12,6.23a2.57,2.57,0,0,1,.13,1.8,2.78,2.78,0,0,1-.83,1.37c-1.35,1.26-3.34.23-3.46.17-1-.55-2.17-1.87-1.76-3.15a1.19,1.19,0,0,1,.08-.2,2.68,2.68,0,0,1,1.47-1.26L107-9.41,106,4.08a2.8,2.8,0,0,1,1.86.82A2.53,2.53,0,0,1,108.46,6c.46,1.78-1.39,3-1.5,3.13a3.18,3.18,0,0,1-3.39.25l-.22-.19a2.58,2.58,0,0,1-.55-2l-13.41.23,11.46,7.05a2.58,2.58,0,0,1,1.49-1,2.86,2.86,0,0,1,1.56,0c1.76.54,1.86,2.79,1.86,2.92,0,1.15-.54,2.81-1.86,3.09a1.54,1.54,0,0,1-.3,0,2.67,2.67,0,0,1-1.73-.66L95,30.32,107,24.2a2.59,2.59,0,0,1-.34-1.87,1.49,1.49,0,0,1,.17-.44,2.19,2.19,0,0,1,.4-.55c1.28-1.33,3.33-.42,3.45-.36,1,.47,2.18,1.66,2,2.91a.68.68,0,0,1,0,.14,2.62,2.62,0,0,1-1.47,1.54l7.2,11.32V23.17a2.8,2.8,0,0,1-1.3-.48,2.36,2.36,0,0,1-.91-1.52c-.35-1.81,1.58-3,1.69-3,1-.57,2.74-.85,3.61.18a1.26,1.26,0,0,1,.21.32,2.78,2.78,0,0,1,.21,1.76l13.4.64-10.72-7.68a2.65,2.65,0,0,1-1.5,1,3.58,3.58,0,0,1-1.92,0c-1.76-.53-1.9-2.76-1.9-2.89-.05-1.16.49-2.83,1.81-3.13A1.83,1.83,0,0,1,121.47,8.32Z" style="fill:none;stroke:#423c25;stroke-miterlimit:10;stroke-width:0.6007771492004395px"/><path d="M106.81,21.86l0,0-7,3.86,3.65-6.11a.16.16,0,0,1,.14-.08l.08,0,3.09,2.16A.1.1,0,0,1,106.81,21.86Z" style="fill:none;stroke:#423c25;stroke-miterlimit:10;stroke-width:0.6007771492004395px"/><path d="M112.81,23.92a.15.15,0,0,0,0,.15l4,6.33.24-7.55a.14.14,0,0,0,0-.09.13.13,0,0,0-.12,0l-4,1.08A.15.15,0,0,0,112.81,23.92Z" style="fill:none;stroke:#423c25;stroke-miterlimit:10;stroke-width:0.6007771492004395px"/><path d="M123.08,14.4h0L129.23,19l-7.4-.36a.09.09,0,0,1-.08-.06.06.06,0,0,1,0-.06l1.3-4.14Z" style="fill:none;stroke:#423c25;stroke-miterlimit:10;stroke-width:0.6007771492004395px"/><path d="M118.12,5.4a.1.1,0,0,1,0,0l6.41-2.83-2.92,5.55a.21.21,0,0,1-.2.12.27.27,0,0,1-.14,0l-3.18-2.61A.1.1,0,0,1,118.12,5.4Z" style="fill:none;stroke:#423c25;stroke-miterlimit:10;stroke-width:0.6007771492004395px"/><path d="M111.93,3.51a.16.16,0,0,0,0-.15l-3.33-6-.72,7.25a.16.16,0,0,0,.09.17h.11l3.74-1.17A.15.15,0,0,0,111.93,3.51Z" style="fill:none;stroke:#423c25;stroke-miterlimit:10;stroke-width:0.6007771492004395px"/><path d="M102.32,13.3a.16.16,0,0,1-.12,0l-6.51-4,7.7.16a.16.16,0,0,1,.12,0,.16.16,0,0,1,0,.15l-1.13,3.61A.15.15,0,0,1,102.32,13.3Z" style="fill:none;stroke:#423c25;stroke-miterlimit:10;stroke-width:0.6007771492004395px"/><path d="M114,12.36a2.33,2.33,0,1,1-3.27.3A2.32,2.32,0,0,1,114,12.36Z" style="fill:none;stroke:#423c25;stroke-miterlimit:10;stroke-width:0.6007771492004395px"/><path d="M32.12,28.9a1,1,0,0,1-.21.24c-.07.07-.1.11-.08.12a.67.67,0,0,0,.47.24.93.93,0,0,0,.42,0,2.19,2.19,0,0,0,.56-.35.32.32,0,0,0,.13-.2.27.27,0,0,0,0-.13s0-.09.07-.13l.84-1.11a1.15,1.15,0,0,0,.52-.38,1.73,1.73,0,0,0,.15-.36.64.64,0,0,1,.22-.31,1.75,1.75,0,0,1,.7-.29l2.23.05c.16,0,.24.06.25.19a3.39,3.39,0,0,0,.06.41,3.55,3.55,0,0,0-.07.45,3.22,3.22,0,0,1-.1.51,3,3,0,0,1-.68,1.08q-.57.62-1.26,1.26c-.47.42-.93.82-1.39,1.18l-1.08.84-.05.08a3.43,3.43,0,0,0-1.39-.46c-.21,0-.33,0-.36.13a.45.45,0,0,0,0,.28,1.36,1.36,0,0,1,0,.29c0,.08-.08.12-.22.12h-1.1l-.72,0a2.27,2.27,0,0,1-.68-.15,2.65,2.65,0,0,1-1-.68,2.05,2.05,0,0,1-.42-.85,3.56,3.56,0,0,1-.06-.92c0-.3.06-.59.11-.86a1.64,1.64,0,0,1-.12-.22,1.32,1.32,0,0,1-.12-.26l-.16-.41-.14-.39a1.07,1.07,0,0,1-.06-.23,4.74,4.74,0,0,1,.08-1.12c.08-.37.17-.75.28-1.11s.24-.77.37-1.14a5.27,5.27,0,0,0,.28-1.14s0-.06.12-.11l.24-.17.36-.25a1,1,0,0,0-.21-.1l-.38-.18c-.14-.07-.2-.11-.2-.13a1.21,1.21,0,0,1,.26-.44l.4-.47.36-.47a.77.77,0,0,0,.15-.42c.05-.06.13-.18.24-.34s.24-.32.37-.49l.39-.48c.12-.15.2-.25.25-.3a5.31,5.31,0,0,1,.37-.53,3.68,3.68,0,0,1,.39-.4,5.3,5.3,0,0,1,.43-.38q.23-.18.54-.39a1.1,1.1,0,0,0,.27-.29,1.53,1.53,0,0,1,.28-.31,6.77,6.77,0,0,1,.74-.35,3.68,3.68,0,0,1,.65-.2,4.41,4.41,0,0,1,.65-.1c.22,0,.48,0,.77,0a2,2,0,0,0,.47-.08,2.25,2.25,0,0,1,.42-.07c.08,0,.11,0,.09.07s0,.16.17.23a3.17,3.17,0,0,0,.46.19l.39.16c.11,0,.11.09,0,.12a.64.64,0,0,0-.4.36,3.36,3.36,0,0,1-.2.36c0,.06,0,.07.15,0l.42-.14a1.64,1.64,0,0,1,.55-.05.81.81,0,0,1,.54.29l.29.36a.93.93,0,0,1,.14.3c0,.07,0,.14,0,.2l.06.22a1,1,0,0,0,.18.31,4.1,4.1,0,0,1,.42.79.52.52,0,0,1-.08.58,2.29,2.29,0,0,0-.39.56,2.23,2.23,0,0,0-.12.41,2.17,2.17,0,0,0,0,.36,1,1,0,0,1-.06.4v.05a1.33,1.33,0,0,1-.42.27,3.08,3.08,0,0,1-1,.3,3.42,3.42,0,0,1-1.23,0,2.21,2.21,0,0,1-1.17-.71l0-1,0,0a.81.81,0,0,1,0-.11.59.59,0,0,1,0-.08l0-.07a7.75,7.75,0,0,0,.22-.87,3.42,3.42,0,0,1,.1-.45s0,0,0,0l-.4.23-2,.84-.84,1.32a.53.53,0,0,1-.12.15.66.66,0,0,0-.12.16.28.28,0,0,0,0,.2.51.51,0,0,0,.09.13.38.38,0,0,1,.09.13.4.4,0,0,1,0,.22c-.08.25-.17.54-.28.85s-.21.63-.32.95l-.32.93-.3.84.16.27c.05.06.1,0,.15-.08l-.15,1.37Z" style="fill:#423c25"/><path d="M38.65,32h-.1l-.12.09-.26.94s0,0-.05,0a.12.12,0,0,0-.1.06H38c-.1,0-.16-.08-.19-.24s0-.27,0-.32,0-.15.06-.27.06-.25.1-.4.07-.25.11-.37l.09-.25a.22.22,0,0,1-.08-.15l.05-.16,0-.15.24-.74c.11-.34.24-.71.4-1.13l.48-1.32q.24-.69.48-1.32l.41-1.13c.12-.33.2-.58.25-.74.21-.37.43-.74.67-1.11a8.08,8.08,0,0,0,.62-1.1l1.14-2.33a15.4,15.4,0,0,1,1.41-2.28c0-.05.11,0,.19.07s.16.22.25.35l.25.39c.08.12.14.18.17.18s.1-.06.16-.18a3.53,3.53,0,0,0,.15-.39c.05-.13.1-.26.15-.37s.08-.16.12-.14h2.21l.48-.17s.08,0,.09.06a.9.9,0,0,1,0,.19,1.23,1.23,0,0,0,0,.2c0,.07,0,.1.06.1a.66.66,0,0,0,.25,0,1.36,1.36,0,0,1,.29,0,.5.5,0,0,1,.22.1.22.22,0,0,1,0,.24l-.67,2.3a1.75,1.75,0,0,0-.05.54,5.16,5.16,0,0,0,.09.52c0,.18.07.35.11.52a2.35,2.35,0,0,1,0,.54c0,.19-.12.52-.23,1s-.21,1-.32,1.5-.22,1-.33,1.5-.18.81-.22,1l0,.09a17.85,17.85,0,0,1-.29,2.3c-.14.76-.33,1.53-.55,2.31a2.13,2.13,0,0,1-.63-.09,2,2,0,0,0-.64-.1.22.22,0,0,0-.18.1c-.06.06-.11.13-.17.2a1.71,1.71,0,0,1-.18.2.28.28,0,0,1-.21.1c-.09,0-.12-.06-.1-.17s0-.23.06-.37,0-.26.06-.37,0-.17-.07-.17-.05,0-.11.11-.11.15-.17.23l-.25.33s-.07.13-.17.28a.83.83,0,0,1-.24.27s0,.07-.12.1v0h-.05c-.24,0-.36-.15-.37-.46a4.88,4.88,0,0,1,.09-1c.06-.37.12-.72.16-1s0-.47-.12-.47h-.67a.63.63,0,0,0-.55.22l-.34,1.15-.31,1.15a2.87,2.87,0,0,1-.18.42q-.13.28-.15.3l-.15.1H39.39L39,32.93l-.22-.09a.28.28,0,0,1,0-.21,1.54,1.54,0,0,1,.07-.27.85.85,0,0,0,0-.25C38.82,32,38.76,32,38.65,32Zm4.72-5.23s0,.09-.07.19a.12.12,0,0,0,.1.17,5.68,5.68,0,0,0,.67-.12.6.6,0,0,0,.48-.41.35.35,0,0,1,.08-.1.38.38,0,0,0,.09-.09,2.07,2.07,0,0,1,.05-.41c0-.19.06-.4.09-.61s.07-.42.11-.62a1.9,1.9,0,0,1,.11-.4.92.92,0,0,1,0-.2c0-.09,0-.19,0-.28a.83.83,0,0,0,0-.27q0-.12-.06-.12c-.14,0-.31.16-.49.48a11.79,11.79,0,0,0-.55,1.07c-.19.39-.34.76-.47,1.1S43.39,26.7,43.37,26.77Z" style="fill:#423c25"/><path d="M53.45,28.09c-.05,0-.08,0-.09,0l-.19.38c0,.13-.11.35-.22.65l-.35,1c-.12.34-.23.66-.34,1s-.17.52-.2.65a.65.65,0,0,1-.08.35,1.59,1.59,0,0,1-.16.3.13.13,0,0,1-.14.09l-.12,0-.11.05s-.06,0-.06,0l-.17.77H51.1c-.1,0-.14,0-.14,0-.32,0-.52-.18-.59-.4a.82.82,0,0,1,.15-.71c-.08,0-.11-.07-.09-.07h-.07a.29.29,0,0,0-.22.11,1.46,1.46,0,0,0-.17.24l-.13.25a.4.4,0,0,1-.13.17h-.05l0,0h-.36l-.14,0-.25,0-.26,0h-.14a.31.31,0,0,1-.36-.2,1.46,1.46,0,0,1-.1-.52,3.83,3.83,0,0,1,0-.6,2.2,2.2,0,0,1,.1-.41l.05-.14.08-.21a.2.2,0,0,0,0-.15l0-.1,1.94-5.49s0-.11.08-.23a1.33,1.33,0,0,1,.09-.23,1.08,1.08,0,0,0,.13-.24c.06-.13.12-.26.18-.41a4.3,4.3,0,0,0,.16-.41c0-.12.06-.2.08-.24l.12-.26c.06-.13.14-.27.22-.43a4.14,4.14,0,0,1,.24-.43,1.63,1.63,0,0,1,.19-.27l.17-.19a1.16,1.16,0,0,0,.14-.19l0-.1,0-.09-.24,0-.39,0a1.59,1.59,0,0,1-.33-.09c-.1,0-.13-.1-.1-.18A1.14,1.14,0,0,1,51.2,21c.09-.1.14-.17.14-.2l.13,0,.22-.06.19-.08q.09,0,.06-.06l-.46-.26.1-.31s0-.06,0-.12a.16.16,0,0,0,0-.1.4.4,0,0,1,.21-.09l.23,0,.21,0a.13.13,0,0,0,.11-.12l-.43-.55c-.09-.13,0-.25.12-.37a3.16,3.16,0,0,1,.77-.34A11.59,11.59,0,0,1,53.93,18l1.26-.22c.41-.06.78-.11,1.11-.14l.68-.05a2,2,0,0,1,.69.06,2.36,2.36,0,0,0,.65.08.52.52,0,0,0,.2-.07.43.43,0,0,1,.24-.05h.09a5.52,5.52,0,0,1,1,.39,4.83,4.83,0,0,1,.81.55,2.24,2.24,0,0,1,.54.53,1.1,1.1,0,0,1,.06.72l-.48.43.34.19-.07.39L61,21a3.59,3.59,0,0,0,0,1,3,3,0,0,1-.1,1.06,1,1,0,0,1-.19.42,1.59,1.59,0,0,1-.43.35l-2.28,2.71-.1.36c.11.86.21,1.76.29,2.68a9.27,9.27,0,0,1-.19,2.77,2,2,0,0,1-.4,0l-.23,0-.2,0a1.15,1.15,0,0,0-.3,0,.13.13,0,0,0,0,.12.1.1,0,0,1,0,.12,1.67,1.67,0,0,1-.18.23c-.09.11-.19.21-.3.33a2.73,2.73,0,0,1-.33.28.43.43,0,0,1-.25.12c-.09,0-.15,0-.17-.09s0-.14,0-.23a.77.77,0,0,0-.06-.23.2.2,0,0,0-.19-.09s-.08,0-.15.08l-.2.18-.21.19a.41.41,0,0,1-.14.12.28.28,0,0,1-.14.1.43.43,0,0,1-.42-.3,2.8,2.8,0,0,1-.24-.84,7.88,7.88,0,0,1-.11-1.15c0-.43,0-.84,0-1.23s0-.74,0-1.05,0-.54,0-.66S53.58,28.09,53.45,28.09Zm.82-2.69-.05.17c0,.06,0,.11.12.14a2.61,2.61,0,0,0,.66-.19.94.94,0,0,0,.47-.43l1.39-2.16,0-.22a.61.61,0,0,0,0-.42c0-.14-.11-.27-.17-.41l-.18-.41a.75.75,0,0,1-.06-.42c0-.11,0-.16-.19-.16h-.07l-.35.06-.45.07-.39.06a.43.43,0,0,0-.21.05.81.81,0,0,0-.2,0,.47.47,0,0,0-.08.15v.07a.74.74,0,0,1,.62.3,1.05,1.05,0,0,1,.1.66,8.67,8.67,0,0,1-.49,1.52A10.23,10.23,0,0,0,54.27,25.4Z" style="fill:#423c25"/><path d="M61.76,32.24a.26.26,0,0,0-.18.11l-.22.22a2.39,2.39,0,0,1-.22.23c-.07.07-.12.11-.15.11s-.26-.15-.25-.44a5.93,5.93,0,0,1,.13-1,9,9,0,0,1,.29-1.11q.17-.53.21-.72.63-2.18,1.47-4.32c.56-1.42,1-2.86,1.46-4.32a.16.16,0,0,1,0-.12c0-.05,0-.07,0-.07H62.43a.49.49,0,0,1,.15-.24.45.45,0,0,0,.16-.24v-.1a.88.88,0,0,1-.17-.26.34.34,0,0,1,.21-.17,2.22,2.22,0,0,1,.39-.11,3.15,3.15,0,0,1,.41,0l.29,0-.34-.21a1.59,1.59,0,0,1-.36,0,.81.81,0,0,1-.33-.12.54.54,0,0,1-.22-.2.36.36,0,0,1,0-.31,1.1,1.1,0,0,1,.19-.3.6.6,0,0,1,.29-.23L64.16,18l.46,0,1,0,1.21,0h4.56a.53.53,0,0,1-.21.34.82.82,0,0,1-.3.09l-.32.05a.56.56,0,0,0-.3.19,1.1,1.1,0,0,0,0,.69,1.22,1.22,0,0,1,0,.66,2,2,0,0,1-.2.43,2.36,2.36,0,0,1-.43.43.67.67,0,0,1-.5.12c-.21,0-.4,0-.58,0a.67.67,0,0,0-.33.07l-.09.25c0,.12-.09.24-.14.37s-.11.26-.16.39a1.62,1.62,0,0,0-.09.26l-.1.36c0,.11-.09.3-.18.58s-.18.55-.29.85-.2.57-.3.84-.17.44-.21.54l-1.8,6.33a3,3,0,0,1-.2.46,1.7,1.7,0,0,1-.33.48.87.87,0,0,0-.94.26l-.24.28a.45.45,0,0,1-.36.13.4.4,0,0,1-.36-.17,1.52,1.52,0,0,1-.2-.38c-.06-.14-.12-.27-.18-.38A.33.33,0,0,0,61.76,32.24Z" style="fill:#423c25"/><path d="M68.74,30.82a6.19,6.19,0,0,1,.47-1.15,7,7,0,0,0,.47-1.15,19.69,19.69,0,0,0,.51-2.26A17.72,17.72,0,0,1,70.71,24a8.66,8.66,0,0,1,.53-1.32,8.33,8.33,0,0,0,.5-1.3l0-.1.1-.26V21c0-.08-.09-.14-.23-.17a.77.77,0,0,0-.37,0l-.41-.46s0,0,0-.09l.42-.51.3-.34a1.86,1.86,0,0,0,.17-.21l.46-.09.16,0-.22-.17a.75.75,0,0,0-.4-.14s0-.06,0-.07a.71.71,0,0,1,.37-.4,3.11,3.11,0,0,1,.71-.24,7.58,7.58,0,0,1,.85-.11l.78,0h.46q.81,0,1.59.06c.52,0,1.06.06,1.6.06a1.88,1.88,0,0,0,.49-.06,1.93,1.93,0,0,1,.49-.06l0,.19c-.05.13-.08.19-.1.19l-.15.23a1.65,1.65,0,0,0-.16.23l-.07.19-.56.31.39.32,0,.19a1.27,1.27,0,0,1-.43.48,3.54,3.54,0,0,1-.7.36c-.25.09-.51.17-.75.24a5.92,5.92,0,0,1-.62.12l-.12.09a.5.5,0,0,0-.07.2l-.12.4a2.54,2.54,0,0,1-.13.45c-.06.15-.1.27-.13.37l0,.1a.3.3,0,0,0,0,.16.15.15,0,0,1-.1.15l-.45.24.38,0s.06,0,0,.12l-.1.22,0,.09c0,.07,0,.1,0,.1h.12a4.36,4.36,0,0,0,.94-.1,4.92,4.92,0,0,1,.91-.09.34.34,0,0,1,.35.17.54.54,0,0,1,0,.38.69.69,0,0,1-.28.29,4.67,4.67,0,0,1-.5.27l-.5.24a.69.69,0,0,0-.24.18s.06.06.16.09a1.9,1.9,0,0,1,.34.11.87.87,0,0,1,.31.18c.09.07.1.18,0,.32a1,1,0,0,1-.45.56,1.94,1.94,0,0,1-.64.22l-.69.1a1.69,1.69,0,0,0-.66.2,1.06,1.06,0,0,0-.17.3,4.67,4.67,0,0,0-.23.58l-.2.6c-.07.18-.11.3-.12.34v0a2.57,2.57,0,0,0,0,.33l-.06.39a2.73,2.73,0,0,0-.06.45h1.77q.15,0,.18.06a.19.19,0,0,1,0,.15c0,.05,0,.11,0,.18a.48.48,0,0,0,0,.17.17.17,0,0,0,.1.13l.19.13a.64.64,0,0,1,.16.2.48.48,0,0,1,0,.35.44.44,0,0,1-.28.3,4,4,0,0,1-.52.19l-.52.18a.44.44,0,0,0-.28.27,2.58,2.58,0,0,1,.17.26l0,.07a.4.4,0,0,1-.28.32,4.27,4.27,0,0,1-.54.07A11.63,11.63,0,0,0,72.2,33a2.28,2.28,0,0,1-1,0l-.72-.19-.34.19a.47.47,0,0,1-.34,0,2.28,2.28,0,0,0-.4,0h-.27a1.15,1.15,0,0,1-.56-.93A3.65,3.65,0,0,1,68.74,30.82Z" style="fill:#423c25"/><path d="M28.28,51.22a2.89,2.89,0,0,1,.21-.49l.31-.52a4.63,4.63,0,0,0,.31-.51,1.15,1.15,0,0,0,.13-.47,3,3,0,0,1,.22-.35l.4-.54.41-.55c.13-.18.22-.29.26-.34.19-.24.36-.44.5-.6a3.42,3.42,0,0,1,.42-.43c.14-.13.29-.25.45-.38l.6-.51.24-.32a.93.93,0,0,1,.31-.32,4.61,4.61,0,0,1,1.19-.53A15.48,15.48,0,0,1,35.8,44c.54-.1,1.06-.19,1.56-.25a11.27,11.27,0,0,1,1.19-.1q.45,0,.36.39a.54.54,0,0,1-.16.24l-.24.18a1.46,1.46,0,0,0-.24.17.34.34,0,0,0-.13.2.17.17,0,0,0,.1.22,1.34,1.34,0,0,0,.32.1l.36.08c.12,0,.19.06.2.13l.41.86a1.2,1.2,0,0,1,.12.35c0,.09,0,.17.05.24l.06.23a1.4,1.4,0,0,0,.18.33,3.55,3.55,0,0,0,.25.41,2.29,2.29,0,0,1,.17.27.68.68,0,0,1,.06.31,2.49,2.49,0,0,1-.09.53,6.12,6.12,0,0,1-.34,1,5.76,5.76,0,0,0-.36,1v.05a2.72,2.72,0,0,0-.1.59c0,.31-.07.64-.11,1s-.08.7-.12,1-.06.5-.08.57l0,.09a.4.4,0,0,0,0,.13,1.15,1.15,0,0,1-.06.21l0,.09,0,.12a1.14,1.14,0,0,1-.06.15.64.64,0,0,1-.06.14l0,.12a.72.72,0,0,1-.38.19c-.16,0-.26.11-.29.22a.18.18,0,0,0,0,.19l.13.15.15.14a.29.29,0,0,1,.07.19,2,2,0,0,0-.09.49,4.06,4.06,0,0,1-.08.57,3.17,3.17,0,0,1-.75,1.15,14.84,14.84,0,0,1-1.33,1.28q-.74.65-1.47,1.2c-.5.38-.89.69-1.18.93l-.05.09c0,.1,0,.17,0,.22a.23.23,0,0,1,0,.22q-.07.21-.63.27a9.79,9.79,0,0,1-1,.06h-.48a6.57,6.57,0,0,1-.8-.08q-.52-.09-1.08-.24a9.45,9.45,0,0,1-1-.35c-.3-.13-.47-.26-.52-.41a1.8,1.8,0,0,0-.21-.38l-.28-.39a3.07,3.07,0,0,1-.23-.39.61.61,0,0,1,0-.42l0-.17.1-.34.07-.28.05-.17a.5.5,0,0,0-.14-.27.26.26,0,0,1-.1-.28.71.71,0,0,1-.07-.29c0-.15,0-.3-.05-.46a3.32,3.32,0,0,1,0-.43.73.73,0,0,1,0-.26,9.94,9.94,0,0,1,.13-1.26,10.41,10.41,0,0,1,.3-1.26l.37-1.25A8.41,8.41,0,0,0,28.35,52a.46.46,0,0,0-.06-.22c-.06-.11-.08-.17-.06-.19v-.14A.54.54,0,0,1,28.28,51.22Zm2.78,5.43a.84.84,0,0,0,.06.4,4.84,4.84,0,0,0,.22.6,4.19,4.19,0,0,0,.27.56q.15.24.24.24a.64.64,0,0,0,.42-.23,1.29,1.29,0,0,1,.35-.28l.22-.21.36-.36.38-.38a3.38,3.38,0,0,1,.26-.22l0-.17c.11-.39.21-.76.29-1.12s.16-.71.23-1.07.16-.7.25-1.06.21-.74.34-1.12a4.54,4.54,0,0,1,0-.47c0-.18,0-.37.09-.55l.09-.53c0-.17.07-.3.1-.39a2.74,2.74,0,0,1,.18-.36l.18-.36v0a.33.33,0,0,1,0-.12l0-.1,0-.09a.56.56,0,0,0-.07-.54,1.41,1.41,0,0,0-.4-.29l-.41-.19c-.12-.06-.14-.14-.06-.23h-.26c-.07,0-.11,0-.13.06a1.14,1.14,0,0,0-.09.27l-1.29,1.88-.08.21A1.5,1.5,0,0,0,33,51a1.52,1.52,0,0,1-.08.69A17.82,17.82,0,0,1,32,54.19,16.91,16.91,0,0,0,31.06,56.65Z" style="fill:#423c25"/><path d="M40.85,62.14c-.05,0-.11,0-.19,0a3.05,3.05,0,0,0-.62.05c-.2,0-.29,0-.29-.15-.23,0-.43-.07-.61-.11l-.54-.13q-.18,0-.18,0a.25.25,0,0,1,0-.07c-.12-.05-.17-.08-.13-.1s0,0,0-.12,0-.2.21-.43a4.26,4.26,0,0,1,0-.5,1.24,1.24,0,0,1,0-.39l.17-.6.22-.4s0-.05.12-.05a6.7,6.7,0,0,1,.67.05s0-.06-.11-.14l-.24-.22-.23-.22c-.06-.06-.08-.1,0-.1L40.28,54s0-.05.1-.11a1.92,1.92,0,0,0,.23-.19l.23-.2a.66.66,0,0,0,.11-.12.49.49,0,0,0,0-.17v-.36c0-.15,0-.27,0-.39s0-.17,0-.19a2,2,0,0,1,.09-.27q.07-.21.18-.45c.07-.16.15-.31.22-.44a.63.63,0,0,1,.18-.25.68.68,0,0,1,.14-.18l.15-.18.07-.2-.21,0H41.5c-.26,0-.36-.07-.31-.19a1.54,1.54,0,0,1,.08-.23c.06-.14.09-.22.11-.25l1-.08s0,0-.14-.08l-.31-.13-.31-.15c-.1,0-.15-.08-.15-.09l.15-.34a1,1,0,0,0,.08-.33,2.49,2.49,0,0,0,0-.32,2.68,2.68,0,0,0,.18-.52.64.64,0,0,1,.25-.41,2.43,2.43,0,0,1,1-.46,12.56,12.56,0,0,1,1.41-.26A11.74,11.74,0,0,1,46,46.4l.9,0,.72.08.3,0h.49a4.36,4.36,0,0,1,.94.39,4.08,4.08,0,0,1,.77.55,2.24,2.24,0,0,1,.54.53,1,1,0,0,1,.06.69,11,11,0,0,1-.13,1.87q-.13.67-.21,1.2a1.61,1.61,0,0,1-.42.75,4.85,4.85,0,0,1-.6.48c-.21.14-.43.29-.63.44a1.7,1.7,0,0,0-.51.61,2.62,2.62,0,0,1,.39.52,3.21,3.21,0,0,1,.27.68A3.69,3.69,0,0,1,49,56a2.79,2.79,0,0,1-.13.93l-.23.57c-.07.19-.15.41-.25.65s-.22.51-.36.82-.33.64-.55,1c-.08.16-.16.29-.23.41a1.81,1.81,0,0,1-.25.3,2.65,2.65,0,0,1-.35.25c-.14.08-.3.17-.49.26a9.45,9.45,0,0,1-1.11.55,7.32,7.32,0,0,1-1.12.39h-.5l-.3,0-.76.08a1.91,1.91,0,0,0-.36.07,1.57,1.57,0,0,1-.51,0l.07-.21a.86.86,0,0,0,0-.17v-.1Zm1.73-3.41a2.16,2.16,0,0,0,.42.14l.56.13a.49.49,0,0,0,.29-.17,8.75,8.75,0,0,1,.53-.9,3.84,3.84,0,0,0,.46-.9l0-.22-.28-.72a.8.8,0,0,0-.34-.57,1.33,1.33,0,0,0-.6-.34l-.17.72c0,.13-.11.4-.25.81s-.28.86-.44,1.35a.62.62,0,0,1-.12.31Zm2-5.89c.05.11.11.17.19.18a1.17,1.17,0,0,0,.49-.17,1.05,1.05,0,0,0,.33-.4l.72-.72,0-.22c.08-.29.14-.58.2-.88a6.47,6.47,0,0,0,.11-.87s-.07,0-.19-.1l-.24-.09a3.48,3.48,0,0,0-.38.07l-.37.08-.41.11a.69.69,0,0,0-.22.05s-.06.06-.09.14l0,.07c.3,0,.45.13.44.28a3.25,3.25,0,0,1-.13.64,4.31,4.31,0,0,1-.13.54,2.17,2.17,0,0,1-.12.26,1.49,1.49,0,0,0-.13.28,2.65,2.65,0,0,0-.15.55A.32.32,0,0,0,44.62,52.84Z" style="fill:#423c25"/><path d="M60.94,50.67l-.53,1.7c-.11.37-.22.73-.32,1.08a5.88,5.88,0,0,0-.21,1.08,1.69,1.69,0,0,1-.07.26c-.05.15-.1.32-.17.51a5.24,5.24,0,0,1-.26.75,1.13,1.13,0,0,0,0,.14.21.21,0,0,1,0,.17.61.61,0,0,1-.33.14l-.27.06c-.07,0-.08.06,0,.11a1.29,1.29,0,0,0,.38.26l-.23.32-.33.46c-.12.17-.23.33-.34.47a3.54,3.54,0,0,1-.23.31,5.39,5.39,0,0,1-.39.52,4.3,4.3,0,0,1-.37.37l-.41.35-.53.42-.23.29a1.8,1.8,0,0,1-.25.29l-1,.64a4.12,4.12,0,0,1-1.17.32c-.36,0-.73,0-1.11,0s-.39-.11-.34-.33,0-.12-.14-.12l-.3,0-.34.05a.52.52,0,0,1-.25,0c-.07,0-.09-.05-.07-.1a.69.69,0,0,1,0-.15c0-.09,0-.18,0-.28a2.16,2.16,0,0,1,.05-.27c0-.09,0-.14,0-.16a.38.38,0,0,0-.16.17c-.05.09-.12.19-.19.3l-.19.27c-.06.08-.11.12-.16.12l-.16,0c-.08,0-.12,0-.12-.09l.14-.45h-.24c-.1.08-.18-.07-.26-.46a9.89,9.89,0,0,1-.15-1.65l-.2-.32A.94.94,0,0,1,49.4,58a.5.5,0,0,1,0-.28,1.75,1.75,0,0,1,.11-.46,2.54,2.54,0,0,1,.14-.47c.07-.15.13-.31.19-.47a4.73,4.73,0,0,1,.29-1,1.89,1.89,0,0,1,.39-.59,1.59,1.59,0,0,1,.44-.32l.47-.2a2.53,2.53,0,0,1,2.3.28,1.28,1.28,0,0,1-.17.71,6,6,0,0,0-.28.64.49.49,0,0,0,0,.13c0,.07.07.16.11.25l.1.25a.87.87,0,0,1,0,.14v0a1,1,0,0,1,0,.1.31.31,0,0,0,0,.1l0,.07a.52.52,0,0,0,.06.44.9.9,0,0,0,.33.25l.35.17c.1,0,.14.11.13.17s0,0-.07,0l-.12.09s-.06,0-.08.08v0a.54.54,0,0,0,.38-.18,1.28,1.28,0,0,0,.25-.32l1.13-1.63,0-.17a3.07,3.07,0,0,0,.14-.71.89.89,0,0,1,.34-.66c.15-.89.28-1.74.41-2.53a21.59,21.59,0,0,1,.6-2.56,12.39,12.39,0,0,0,.29-1.23A7.73,7.73,0,0,1,57.94,47a.39.39,0,0,1,.35-.13.51.51,0,0,0,.37-.11h.1v1.46l.48-1.12a.65.65,0,0,1,.27-.34l.4-.19-.1.55.39-.46.21.68s0,0,.06,0a1.55,1.55,0,0,0,.12-.28c0-.11.1-.25.18-.43a2.61,2.61,0,0,0,.42.13l.25,0a.48.48,0,0,1,.18.06.92.92,0,0,1,.21.17l-.75,2.81,0,.17a3.56,3.56,0,0,0-.09.45C60.93,50.56,60.92,50.65,60.94,50.67Z" style="fill:#423c25"/><path d="M59.72,59.62a6.13,6.13,0,0,1,.46-1.15,6.19,6.19,0,0,0,.47-1.15,17.86,17.86,0,0,0,.52-2.26,19.53,19.53,0,0,1,.51-2.25,9.83,9.83,0,0,1,.53-1.32,8.45,8.45,0,0,0,.51-1.3l0-.1.1-.26v-.07c0-.08-.1-.14-.23-.17a.77.77,0,0,0-.37,0l-.41-.46s0,0,0-.09l.42-.51c.1-.12.2-.24.3-.34l.17-.21.45-.09.17,0-.23-.17a.72.72,0,0,0-.39-.14s0-.06,0-.07a.68.68,0,0,1,.37-.4,3,3,0,0,1,.71-.24,7.29,7.29,0,0,1,.85-.11l.78,0h.45c.55,0,1.08,0,1.6.06s1,.06,1.6.06a1.93,1.93,0,0,0,.49-.06,1.88,1.88,0,0,1,.49-.06l0,.19c-.05.13-.08.19-.09.19a2,2,0,0,1-.16.23l-.16.23-.07.19-.55.31.38.32,0,.19a1.3,1.3,0,0,1-.44.48,3.45,3.45,0,0,1-.69.36l-.76.24a5.81,5.81,0,0,1-.61.12l-.12.09a.38.38,0,0,0-.07.2l-.12.4a3.81,3.81,0,0,1-.13.45l-.14.37,0,.1a.32.32,0,0,0,0,.16.16.16,0,0,1-.1.15l-.46.24.39,0s0,0,0,.12l-.09.22,0,.09c0,.07,0,.1,0,.1h.12a4.42,4.42,0,0,0,.94-.1,4.92,4.92,0,0,1,.91-.09.35.35,0,0,1,.35.17.48.48,0,0,1-.24.67,4.85,4.85,0,0,1-.51.27l-.49.24a.69.69,0,0,0-.24.18s.05.06.16.09a1.82,1.82,0,0,1,.33.11.79.79,0,0,1,.31.18c.09.07.1.18,0,.32a1,1,0,0,1-.46.56,1.89,1.89,0,0,1-.63.22l-.7.1a1.74,1.74,0,0,0-.66.2,1.4,1.4,0,0,0-.17.3,4.73,4.73,0,0,0-.22.58c-.08.21-.14.41-.21.6s-.1.3-.12.34v0c0,.09,0,.21,0,.33a2.63,2.63,0,0,1-.06.39q0,.2-.06.45H66.1q.15,0,.18.06a.24.24,0,0,1,0,.15,1.68,1.68,0,0,1,0,.18.25.25,0,0,0,0,.17.17.17,0,0,0,.09.13l.2.13a.62.62,0,0,1,.15.2.47.47,0,0,1,0,.35.45.45,0,0,1-.29.3,3.84,3.84,0,0,1-.51.19l-.52.18a.46.46,0,0,0-.29.27l.17.26,0,.07a.4.4,0,0,1-.28.32,4.84,4.84,0,0,1-.54.07,11.85,11.85,0,0,0-1.25.14,2.29,2.29,0,0,1-1,0l-.72-.19-.33.19a.5.5,0,0,1-.35,0,2.08,2.08,0,0,0-.4-.05H60.1a1.1,1.1,0,0,1-.56-.93A3.65,3.65,0,0,1,59.72,59.62Z" style="fill:#423c25"/><path d="M69.92,61a.26.26,0,0,0-.18.11l-.22.22a2.39,2.39,0,0,1-.22.23c-.07.07-.12.11-.15.11-.18,0-.26-.15-.25-.44a5.08,5.08,0,0,1,.13-1,9,9,0,0,1,.29-1.11q.17-.53.21-.72.63-2.18,1.47-4.32c.56-1.42,1-2.86,1.46-4.32a.16.16,0,0,1,0-.12s0-.07,0-.07H70.59a.49.49,0,0,1,.15-.24.45.45,0,0,0,.16-.24V49a.88.88,0,0,1-.17-.26.34.34,0,0,1,.21-.17,2.22,2.22,0,0,1,.39-.11,3.15,3.15,0,0,1,.41,0l.29,0-.34-.21a1.59,1.59,0,0,1-.36,0A.81.81,0,0,1,71,48a.54.54,0,0,1-.22-.2.36.36,0,0,1,0-.31,1.1,1.1,0,0,1,.19-.3.6.6,0,0,1,.29-.23l1.08-.19.46,0,1,0,1.21,0h4.56a.53.53,0,0,1-.21.34.82.82,0,0,1-.3.09l-.32,0a.56.56,0,0,0-.3.19,1.1,1.1,0,0,0,0,.69,1.22,1.22,0,0,1,0,.66,2,2,0,0,1-.2.43,2.36,2.36,0,0,1-.43.43.67.67,0,0,1-.5.12c-.21,0-.4,0-.58,0a.67.67,0,0,0-.33.07l-.09.25c0,.12-.09.24-.14.37s-.11.26-.16.39a1.62,1.62,0,0,0-.09.26l-.1.36c0,.11-.09.3-.18.58s-.18.55-.29.85-.2.57-.3.84-.17.44-.21.54L73,60.53a3,3,0,0,1-.2.46,1.7,1.7,0,0,1-.33.48.87.87,0,0,0-.94.26l-.24.28a.45.45,0,0,1-.36.13.4.4,0,0,1-.36-.17,1.52,1.52,0,0,1-.2-.38c-.06-.14-.12-.27-.18-.38A.33.33,0,0,0,69.92,61Z" style="fill:#423c25"/><rect x="0.25" y="0.43" width="125" height="80" style="fill:none;stroke:#423c25;stroke-miterlimit:10;stroke-width:2px"/></g></svg>