<svg id="b83f5a61-bdfb-42a7-86b0-67f2b1a77d10" data-name="icon vecto" xmlns="http://www.w3.org/2000/svg" width="125" height="80" viewBox="0 0 125 80"><title>personnage_1</title><g id="bc0f4443-298f-4a37-8096-432c808852aa" data-name="personnage - copie"><rect x="-0.27" y="0.42" width="125" height="80" style="fill:#fff"/><path d="M128.71,19l-7.4-.36a.1.1,0,0,1-.08-.06.06.06,0,0,1,0-.06l1.3-4.14a0,0,0,0,1,0,0h0Z" style="fill:#423c25"/><path d="M124.06,2.52l-2.92,5.55a.22.22,0,0,1-.2.12.27.27,0,0,1-.14,0l-3.18-2.61a.1.1,0,0,1,0-.14l0,0Z" style="fill:#423c25"/><path d="M121.37,20.4a2.62,2.62,0,0,0-.2-1.76l.06,0a.1.1,0,0,0,.08.06l7.4.36-6.13-4.64h0v0a2.7,2.7,0,0,0,1.5-1L134.77,21Z" style="fill:#fff"/><path d="M122.59,9A2.8,2.8,0,0,0,121,8.31V8.19a.22.22,0,0,0,.2-.12l2.92-5.55-6.42,2.82,0,0-.1,0a2.72,2.72,0,0,0-.14-1.81l12-6.22Z" style="fill:#fff"/><path d="M116.56,22.84l-.24,7.54-4-6.33a.16.16,0,0,1,0-.15.14.14,0,0,1,.11-.1l4-1.08a.14.14,0,0,1,.12,0A.12.12,0,0,1,116.56,22.84Z" style="fill:#423c25"/><path d="M113.43,12.35a2.33,2.33,0,1,1-3.27.3A2.33,2.33,0,0,1,113.43,12.35Z" style="fill:#fff"/><path d="M116.57,22.68a2.92,2.92,0,0,0,1.3.48V36.87l-7.2-11.31A2.58,2.58,0,0,0,112.13,24l0-.13.13,0a.16.16,0,0,0,0,.15l4,6.33.24-7.54a.12.12,0,0,0,0-.09Z" style="fill:#fff"/><path d="M111.4,3.35a.16.16,0,0,1,0,.15.16.16,0,0,1-.12.12l-3.74,1.17a.16.16,0,0,1-.19-.08.14.14,0,0,1,0-.09l.72-7.26Z" style="fill:#423c25"/><path d="M111.4,3.35l-3.33-6-.72,7.26a.14.14,0,0,0,0,.09l-.1.09a2.76,2.76,0,0,0-1.77-.73l.94-13.49L113,2.29a2.68,2.68,0,0,0-1.47,1.26l-.11,0A.16.16,0,0,0,111.4,3.35Z" style="fill:#fff"/><path d="M103.08,19.54a.15.15,0,0,0-.13.09L99.3,25.74l7-3.86,0,0,.06,0a1.43,1.43,0,0,0-.17.43,2.61,2.61,0,0,0,.34,1.88L94.44,30.31l6.91-11.5a2.67,2.67,0,0,0,1.73.66Z" style="fill:#fff"/><path d="M106.25,21.88l-7,3.86L103,19.63a.15.15,0,0,1,.13-.09.12.12,0,0,1,.09,0l3.09,2.16a.1.1,0,0,1,0,.12Z" style="fill:#423c25"/><path d="M120.64,14.37a3.58,3.58,0,0,0,1.92,0v0a0,0,0,0,0,0,0l-1.3,4.14a.06.06,0,0,0,0,.06l-.06,0a1.42,1.42,0,0,0-.21-.33c-.87-1-2.6-.74-3.61-.17-.11.07-2,1.21-1.69,3a2.39,2.39,0,0,0,.91,1.52l0,.07a.14.14,0,0,0-.12,0l-4,1.08a.14.14,0,0,0-.11.1l-.13,0c.23-1.26-1-2.44-2-2.91-.11-.06-2.16-1-3.44.35a2.24,2.24,0,0,0-.4.56l-.06,0a.1.1,0,0,0,0-.12l-3.09-2.16a.12.12,0,0,0-.09,0v-.07a1.54,1.54,0,0,0,.3,0c1.31-.28,1.89-1.94,1.86-3.1,0-.12-.1-2.37-1.86-2.92a2.86,2.86,0,0,0-1.56-.05l0-.07a.16.16,0,0,0,.1-.1L103,9.58a.14.14,0,0,0-.08-.18l.06-.09c1,.77,2.54.38,3.44-.22.11-.07,2-1.34,1.49-3.12a2.44,2.44,0,0,0-.67-1.17l.1-.09a.16.16,0,0,0,.19.08l3.74-1.17a.16.16,0,0,0,.12-.12l.11,0a.7.7,0,0,0-.08.2c-.41,1.28.74,2.6,1.76,3.15.12.06,2.11,1.09,3.46-.17a2.93,2.93,0,0,0,.84-1.37l.1,0a.1.1,0,0,0,0,.14l3.18,2.61a.27.27,0,0,0,.14,0v.12a2,2,0,0,0-.41,0c-1.31.3-1.85,2-1.8,3.12C118.74,11.61,118.87,13.85,120.64,14.37Zm-6.92,1.25a2.32,2.32,0,1,0-3.27.3A2.33,2.33,0,0,0,113.72,15.62Z" style="fill:#423c25"/><path d="M101.68,13.27l-6.51-4,7.7.15.07,0a.14.14,0,0,1,.08.18l-1.13,3.61a.16.16,0,0,1-.1.1A.15.15,0,0,1,101.68,13.27Z" style="fill:#423c25"/><path d="M102.83,9.16a1.22,1.22,0,0,0,.17.15l-.06.09-.07,0-7.7-.15,6.51,4a.15.15,0,0,0,.11,0l0,.07a2.65,2.65,0,0,0-1.49,1l-11.47-7,13.41-.24A2.66,2.66,0,0,0,102.83,9.16Z" style="fill:#fff"/><path d="M121,8.31a2.8,2.8,0,0,1,1.64.64l6.72-11.62-12,6.22a2.72,2.72,0,0,1,.14,1.81,2.93,2.93,0,0,1-.84,1.37c-1.35,1.26-3.34.23-3.46.17-1-.55-2.17-1.87-1.76-3.15a.7.7,0,0,1,.08-.2A2.68,2.68,0,0,1,113,2.29L106.43-9.42l-.94,13.49a2.76,2.76,0,0,1,1.77.73A2.44,2.44,0,0,1,107.93,6c.47,1.78-1.38,3.05-1.49,3.12-.9.6-2.48,1-3.44.22a1.22,1.22,0,0,1-.17-.15,2.66,2.66,0,0,1-.56-2.06l-13.41.24,11.47,7.05a2.65,2.65,0,0,1,1.49-1,2.86,2.86,0,0,1,1.56.05c1.76.55,1.86,2.8,1.86,2.92,0,1.16-.55,2.82-1.86,3.1a1.54,1.54,0,0,1-.3,0,2.67,2.67,0,0,1-1.73-.66l-6.91,11.5,12.08-6.12a2.61,2.61,0,0,1-.34-1.88,1.43,1.43,0,0,1,.17-.43,2.24,2.24,0,0,1,.4-.56c1.28-1.32,3.33-.41,3.44-.35,1,.47,2.2,1.65,2,2.91l0,.13a2.58,2.58,0,0,1-1.46,1.55l7.2,11.31V23.16a2.92,2.92,0,0,1-1.3-.48,2.39,2.39,0,0,1-.91-1.52c-.35-1.81,1.58-2.95,1.69-3,1-.57,2.74-.86,3.61.17a1.42,1.42,0,0,1,.21.33,2.62,2.62,0,0,1,.2,1.76l13.4.64-10.71-7.68a2.7,2.7,0,0,1-1.5,1,3.58,3.58,0,0,1-1.92,0c-1.77-.52-1.9-2.76-1.9-2.89,0-1.16.49-2.82,1.8-3.12A2,2,0,0,1,121,8.31Z" style="fill:none;stroke:#423c25;stroke-miterlimit:10;stroke-width:0.6007771492004395px"/><path d="M106.29,21.85l0,0-7,3.86L103,19.63a.15.15,0,0,1,.13-.09.12.12,0,0,1,.09,0l3.09,2.16A.1.1,0,0,1,106.29,21.85Z" style="fill:none;stroke:#423c25;stroke-miterlimit:10;stroke-width:0.6007771492004395px"/><path d="M112.29,23.9a.16.16,0,0,0,0,.15l4,6.33.24-7.54a.12.12,0,0,0,0-.09.14.14,0,0,0-.12,0l-4,1.08A.14.14,0,0,0,112.29,23.9Z" style="fill:none;stroke:#423c25;stroke-miterlimit:10;stroke-width:0.6007771492004395px"/><path d="M122.56,14.38h0L128.71,19l-7.4-.36a.1.1,0,0,1-.08-.06.06.06,0,0,1,0-.06l1.3-4.14A0,0,0,0,1,122.56,14.38Z" style="fill:none;stroke:#423c25;stroke-miterlimit:10;stroke-width:0.6007771492004395px"/><path d="M117.6,5.39l0,0,6.42-2.82-2.92,5.55a.22.22,0,0,1-.2.12.27.27,0,0,1-.14,0l-3.18-2.61A.1.1,0,0,1,117.6,5.39Z" style="fill:none;stroke:#423c25;stroke-miterlimit:10;stroke-width:0.6007771492004395px"/><path d="M111.41,3.5a.16.16,0,0,0,0-.15l-3.33-6-.72,7.26a.14.14,0,0,0,0,.09.16.16,0,0,0,.19.08l3.74-1.17A.16.16,0,0,0,111.41,3.5Z" style="fill:none;stroke:#423c25;stroke-miterlimit:10;stroke-width:0.6007771492004395px"/><path d="M101.79,13.29a.15.15,0,0,1-.11,0l-6.51-4,7.7.15.07,0a.14.14,0,0,1,.08.18l-1.13,3.61A.16.16,0,0,1,101.79,13.29Z" style="fill:none;stroke:#423c25;stroke-miterlimit:10;stroke-width:0.6007771492004395px"/><path d="M113.43,12.35a2.33,2.33,0,1,1-3.27.3A2.33,2.33,0,0,1,113.43,12.35Z" style="fill:none;stroke:#423c25;stroke-miterlimit:10;stroke-width:0.6007771492004395px"/><path d="M35.6,28.89a1.29,1.29,0,0,1-.21.24c-.07.06-.1.1-.08.12a.67.67,0,0,0,.47.24.93.93,0,0,0,.42,0,2.19,2.19,0,0,0,.56-.35c.09-.09.13-.15.13-.2a.51.51,0,0,0,0-.13s0-.09.07-.14l.84-1.1a1.3,1.3,0,0,0,.52-.38,1.73,1.73,0,0,0,.15-.36.66.66,0,0,1,.22-.32,2,2,0,0,1,.7-.28l2.23,0c.16,0,.24.07.25.2a3.24,3.24,0,0,0,.06.4,4.26,4.26,0,0,0-.07.46,4.21,4.21,0,0,1-.1.5,2.81,2.81,0,0,1-.68,1.08q-.57.63-1.26,1.26c-.47.43-.93.82-1.39,1.19l-1.08.84,0,.07a3.53,3.53,0,0,0-1.4-.45c-.2,0-.32,0-.35.13a.45.45,0,0,0,0,.28,1.33,1.33,0,0,1,0,.28c0,.08-.08.12-.22.12l-.46,0h-.64l-.72,0a2,2,0,0,1-.68-.14,2.65,2.65,0,0,1-1-.68,1.92,1.92,0,0,1-.42-.86,3.46,3.46,0,0,1-.06-.91,7.47,7.47,0,0,1,.11-.86,1.64,1.64,0,0,1-.12-.22,1.7,1.7,0,0,1-.12-.26c-.05-.13-.1-.27-.16-.41l-.14-.4a1,1,0,0,1-.06-.22A4.74,4.74,0,0,1,31,26.55c.08-.38.17-.75.28-1.12s.23-.76.37-1.14a5,5,0,0,0,.28-1.14s0,0,.12-.1l.24-.17.36-.25a1,1,0,0,0-.21-.1L32,22.35a.72.72,0,0,1-.21-.13,1.45,1.45,0,0,1,.27-.45l.39-.46c.14-.16.26-.32.37-.47a.77.77,0,0,0,.15-.42l.24-.34c.11-.16.24-.32.37-.49l.39-.48.25-.3a5.31,5.31,0,0,1,.37-.53,5,5,0,0,1,.39-.41,5.48,5.48,0,0,1,.43-.37q.22-.18.54-.39a1.31,1.31,0,0,0,.27-.29,1.29,1.29,0,0,1,.28-.31,6.77,6.77,0,0,1,.74-.35A4.87,4.87,0,0,1,37.9,16a4.43,4.43,0,0,1,.65-.09c.22,0,.48,0,.77,0a1.9,1.9,0,0,0,.47-.07,1.64,1.64,0,0,1,.42-.07c.08,0,.11,0,.09.07s0,.16.17.23a3,3,0,0,0,.45.19c.16.06.3.11.4.16s.11.09,0,.12a.68.68,0,0,0-.41.36c-.09.19-.16.31-.19.36s0,.07.15,0a3.41,3.41,0,0,1,.42-.14,1.4,1.4,0,0,1,.55,0,.81.81,0,0,1,.54.29l.29.36a1.22,1.22,0,0,1,.14.3c0,.07,0,.14,0,.2s0,.14.06.22a1,1,0,0,0,.18.31,4.1,4.1,0,0,1,.42.79.52.52,0,0,1-.08.58,1.72,1.72,0,0,0-.51,1,1.45,1.45,0,0,0,0,.36,1,1,0,0,1-.06.4v0c0,.05-.16.14-.42.28a3.16,3.16,0,0,1-1,.3,3.42,3.42,0,0,1-1.23,0,2.13,2.13,0,0,1-1.17-.7l0-1,0-.05a.53.53,0,0,1,0-.11l0-.08,0-.08a7.73,7.73,0,0,0,.22-.86,3.61,3.61,0,0,1,.1-.46s0,0,0,0l-.4.23-2,.84-.84,1.32a.41.41,0,0,1-.12.14.67.67,0,0,0-.12.17A.25.25,0,0,0,36,22a.42.42,0,0,0,.09.14.38.38,0,0,1,.09.13.37.37,0,0,1,0,.21c-.08.26-.17.54-.28.86s-.21.62-.32.94-.22.64-.33.94-.2.58-.3.84a3,3,0,0,0,.17.26c0,.07.1,0,.15-.07l-.15,1.37Z" style="fill:#423c25"/><path d="M42.12,32H42l-.12.09-.27.94s0,0,0,0a.21.21,0,0,0-.1.06h-.07c-.1,0-.16-.08-.19-.24s0-.26,0-.31,0-.15.06-.27a3.89,3.89,0,0,1,.1-.4c0-.13.07-.25.11-.37s.07-.21.09-.25a.22.22,0,0,1-.08-.15l0-.17,0-.14.24-.74c.11-.34.24-.72.4-1.13l.48-1.32q.24-.71.48-1.32l.4-1.13c.13-.34.21-.58.26-.74.2-.37.43-.74.67-1.11a8.72,8.72,0,0,0,.62-1.1l1.14-2.33a14.43,14.43,0,0,1,1.41-2.28c0-.05.11,0,.19.07a4.07,4.07,0,0,1,.25.35l.25.38c.08.12.14.18.17.18s.1-.06.16-.18.1-.24.15-.38.1-.26.15-.37.08-.16.12-.15h2.21l.47-.16s.08,0,.1.06a.9.9,0,0,1,0,.19,1.23,1.23,0,0,0,0,.2c0,.07,0,.1.06.1a1,1,0,0,0,.25,0,1.36,1.36,0,0,1,.29,0,.5.5,0,0,1,.22.1.24.24,0,0,1,0,.24l-.67,2.3a1.7,1.7,0,0,0,0,.54,5.16,5.16,0,0,0,.09.52c0,.17.07.35.11.51a2.4,2.4,0,0,1,0,.54c-.05.2-.13.53-.23,1s-.21,1-.32,1.5-.22,1-.33,1.5-.18.8-.22,1l0,.09a17.7,17.7,0,0,1-.29,2.29c-.14.76-.33,1.54-.55,2.32a1.85,1.85,0,0,1-.63-.1,2.3,2.3,0,0,0-.64-.09.23.23,0,0,0-.18.09l-.17.21-.18.2a.28.28,0,0,1-.21.1c-.09,0-.12-.06-.1-.17a2.83,2.83,0,0,1,.06-.37c0-.14,0-.26.06-.37s0-.17-.07-.17-.06,0-.11.11L48,32l-.25.34-.17.28a.83.83,0,0,1-.24.27s0,.07-.12.1v0h0c-.24,0-.36-.15-.37-.47a5.52,5.52,0,0,1,.08-1c.07-.37.12-.72.17-1S47.1,30,47,30H46.3a.6.6,0,0,0-.55.22l-.34,1.15-.31,1.15a2.87,2.87,0,0,1-.18.42,1.39,1.39,0,0,1-.16.3l-.14.1H42.87l-.43-.46-.22-.09a.28.28,0,0,1,0-.21,1.34,1.34,0,0,1,.07-.27.61.61,0,0,0,0-.26C42.3,32,42.24,32,42.12,32Zm4.73-5.24s0,.1-.07.2,0,.15.1.16a3.29,3.29,0,0,0,.67-.12.62.62,0,0,0,.48-.4.19.19,0,0,1,.08-.1.28.28,0,0,0,.09-.1,2,2,0,0,1,0-.4c0-.2.06-.4.09-.62s.07-.42.11-.61a2,2,0,0,1,.11-.41.89.89,0,0,1,0-.19c0-.09,0-.19.05-.29a1.15,1.15,0,0,0,0-.26q0-.12-.06-.12c-.14,0-.31.16-.49.48A11.79,11.79,0,0,0,47.54,25c-.19.39-.34.76-.47,1.1S46.87,26.69,46.85,26.75Z" style="fill:#423c25"/><path d="M56.93,28.07s-.08,0-.09,0l-.2.38a6.25,6.25,0,0,1-.21.65c-.11.3-.23.62-.35,1s-.23.66-.34,1-.17.52-.2.65a.65.65,0,0,1-.08.35,2.87,2.87,0,0,1-.16.3.13.13,0,0,1-.14.09l-.12,0-.11,0s-.06,0-.06.05l-.17.77h-.12c-.1,0-.14,0-.14,0-.32-.05-.52-.18-.59-.4A.81.81,0,0,1,54,32.2c-.08-.05-.11-.07-.09-.07h-.07a.29.29,0,0,0-.22.11,1.46,1.46,0,0,0-.17.24l-.13.25a.4.4,0,0,1-.13.17h0l0,0h-.5l-.25,0-.26,0h-.14a.32.32,0,0,1-.36-.21,1.36,1.36,0,0,1-.1-.51,3.83,3.83,0,0,1,.05-.6,2.2,2.2,0,0,1,.1-.41l0-.14.08-.21a.2.2,0,0,0,0-.15l0-.1,1.94-5.5a1.4,1.4,0,0,0,.08-.22,1.33,1.33,0,0,1,.09-.23A1.08,1.08,0,0,0,54,24.5l.18-.41a4.3,4.3,0,0,0,.16-.41,1.54,1.54,0,0,1,.08-.24l.12-.26c.06-.13.14-.27.22-.43s.16-.31.24-.44a2,2,0,0,1,.19-.26l.17-.19a1.16,1.16,0,0,0,.14-.19l0-.1,0-.1h-.24l-.39,0a1.44,1.44,0,0,1-.33-.09c-.1,0-.13-.1-.1-.18a1.14,1.14,0,0,1,.15-.18c.09-.1.14-.17.14-.2l.13,0a.9.9,0,0,0,.22-.06l.19-.07q.09,0,.06-.06L55,20.3l.1-.31s0-.06,0-.12a.16.16,0,0,0,0-.1.51.51,0,0,1,.21-.1l.23,0,.2,0a.13.13,0,0,0,.12-.12l-.43-.55c-.09-.13,0-.25.12-.37a3.16,3.16,0,0,1,.77-.34A11.59,11.59,0,0,1,57.41,18c.43-.08.85-.16,1.26-.22s.78-.11,1.11-.14a5.71,5.71,0,0,1,.68-.05,1.9,1.9,0,0,1,.68.06,3,3,0,0,0,.66.08.52.52,0,0,0,.2-.07.43.43,0,0,1,.24-.05h.09a4.86,4.86,0,0,1,1,.39,4.3,4.3,0,0,1,.81.55,2.24,2.24,0,0,1,.54.53,1.1,1.1,0,0,1,.06.72l-.48.43.34.19-.07.38-.08.22a3.59,3.59,0,0,0,0,1,3,3,0,0,1-.1,1.06,1,1,0,0,1-.19.42,1.8,1.8,0,0,1-.43.35L61.4,26.54l-.1.36c.11.86.21,1.75.29,2.67a9.34,9.34,0,0,1-.19,2.78,2,2,0,0,1-.4,0l-.23,0-.2,0a1.15,1.15,0,0,0-.3,0s0,.07,0,.12a.1.1,0,0,1,0,.12,1.67,1.67,0,0,1-.18.23l-.3.32a2.14,2.14,0,0,1-.33.29.43.43,0,0,1-.25.12c-.09,0-.15,0-.17-.09s0-.14,0-.23a.7.7,0,0,0-.06-.23.2.2,0,0,0-.19-.1s-.08,0-.15.09l-.2.18-.21.19-.14.12a.35.35,0,0,1-.14.1.43.43,0,0,1-.42-.3,2.8,2.8,0,0,1-.24-.84,7.89,7.89,0,0,1-.11-1.16c0-.42,0-.83,0-1.22s0-.74,0-1.06,0-.53,0-.66S57.06,28.07,56.93,28.07Zm.82-2.68,0,.16q0,.11.12.15a2.74,2.74,0,0,0,.66-.19.92.92,0,0,0,.47-.44l1.39-2.16,0-.21a.61.61,0,0,0,0-.42c0-.14-.11-.27-.17-.41L60,21.46A.75.75,0,0,1,60,21c0-.11,0-.17-.19-.17h-.07l-.35.06-.45.08-.39.06a.72.72,0,0,0-.21,0l-.2.05a.47.47,0,0,0-.08.15v.07a.74.74,0,0,1,.62.3,1.05,1.05,0,0,1,.1.66,8.72,8.72,0,0,1-.5,1.52A11,11,0,0,0,57.75,25.39Z" style="fill:#423c25"/><path d="M65.24,32.23a.28.28,0,0,0-.18.1l-.22.23a2.39,2.39,0,0,1-.22.23c-.07.07-.12.11-.15.11s-.26-.15-.25-.45a5.26,5.26,0,0,1,.13-1,9.32,9.32,0,0,1,.29-1.1q.17-.52.21-.72.63-2.19,1.47-4.32c.56-1.42,1-2.86,1.46-4.32a.16.16,0,0,1,0-.12c0-.05,0-.07,0-.07H65.91a.49.49,0,0,1,.15-.24.54.54,0,0,0,.16-.24v-.1a.88.88,0,0,1-.17-.26c0-.07.09-.12.21-.17a2.22,2.22,0,0,1,.39-.11l.41-.05h.29L67,19.39a2.47,2.47,0,0,1-.36,0,.81.81,0,0,1-.33-.12.62.62,0,0,1-.22-.2.38.38,0,0,1,0-.32,1.1,1.1,0,0,1,.19-.3.58.58,0,0,1,.29-.22l1.08-.2h.46l1,0,1.21,0h4.56a.5.5,0,0,1-.21.33.81.81,0,0,1-.3.1l-.32.05a.51.51,0,0,0-.3.19,1.06,1.06,0,0,0,0,.68,1.23,1.23,0,0,1,0,.66,1.85,1.85,0,0,1-.2.44,2.36,2.36,0,0,1-.43.43.78.78,0,0,1-.5.12l-.58,0a.67.67,0,0,0-.33.08s0,.13-.09.25-.09.24-.14.37-.11.26-.16.38a2,2,0,0,0-.09.27l-.1.36q0,.17-.18.57c-.09.28-.18.56-.29.86l-.3.84c-.09.26-.17.44-.21.54l-1.8,6.33a3.55,3.55,0,0,1-.2.46,1.7,1.7,0,0,1-.33.48.87.87,0,0,0-.94.26l-.24.28a.45.45,0,0,1-.36.13.42.42,0,0,1-.36-.17,1.52,1.52,0,0,1-.2-.38c-.06-.15-.12-.27-.18-.39A.34.34,0,0,0,65.24,32.23Z" style="fill:#423c25"/><path d="M72.22,30.81a6.19,6.19,0,0,1,.47-1.15,7.33,7.33,0,0,0,.47-1.15,19.69,19.69,0,0,0,.51-2.26A17.86,17.86,0,0,1,74.19,24a9.56,9.56,0,0,1,.53-1.32,7.88,7.88,0,0,0,.5-1.29l0-.1.1-.26V21c0-.08-.09-.14-.23-.17a.77.77,0,0,0-.37,0l-.41-.46a.13.13,0,0,1,0-.09l.42-.51.3-.35a1.34,1.34,0,0,0,.17-.2l.46-.1.16,0a2.18,2.18,0,0,0-.22-.17.75.75,0,0,0-.4-.14s0-.06,0-.07a.68.68,0,0,1,.37-.4A3.11,3.11,0,0,1,76.3,18a5.8,5.8,0,0,1,.85-.11l.78,0h.46q.81,0,1.59.06c.52,0,1.06.06,1.6.06a1.88,1.88,0,0,0,.49-.06,1.93,1.93,0,0,1,.49-.06l0,.19c0,.13-.08.19-.1.19l-.16.23a2.4,2.4,0,0,0-.15.23l-.07.19-.56.31.39.31-.05.2a1.27,1.27,0,0,1-.43.48,3.54,3.54,0,0,1-.7.36c-.25.09-.51.17-.75.24a5.92,5.92,0,0,1-.62.12L79.2,21a.44.44,0,0,0-.07.19l-.12.41a2.81,2.81,0,0,1-.13.45c-.06.15-.1.27-.13.37l0,.09a.65.65,0,0,0,0,.17.16.16,0,0,1-.1.15l-.45.24.38,0s.06,0,0,.12l-.1.22,0,.09c0,.07,0,.1,0,.1h.12a4.36,4.36,0,0,0,.94-.1,4.92,4.92,0,0,1,.91-.09.35.35,0,0,1,.35.16.57.57,0,0,1,0,.39.75.75,0,0,1-.28.29l-.5.27-.5.24q-.21.11-.24.18s.06.06.16.09l.34.1a1.33,1.33,0,0,1,.31.18c.09.08.1.18,0,.33a1,1,0,0,1-.45.56,1.94,1.94,0,0,1-.64.22q-.34.06-.69.09a1.83,1.83,0,0,0-.66.21,1.06,1.06,0,0,0-.17.3,5.19,5.19,0,0,0-.23.57c-.07.22-.14.42-.2.6a3.64,3.64,0,0,0-.12.35v0A2.32,2.32,0,0,0,77,29l-.06.39a2.59,2.59,0,0,0-.06.45H78.6q.15,0,.18.06a.19.19,0,0,1,0,.15s0,.11,0,.18a.43.43,0,0,0,0,.16.17.17,0,0,0,.1.14l.19.13a.54.54,0,0,1,.16.2.48.48,0,0,1,0,.35.44.44,0,0,1-.28.3,4,4,0,0,1-.52.19l-.52.18c-.16.07-.25.15-.28.27a1.25,1.25,0,0,1,.16.26l0,.07a.38.38,0,0,1-.28.31,2.84,2.84,0,0,1-.54.08,11.63,11.63,0,0,0-1.24.14,2.44,2.44,0,0,1-1,0l-.72-.2-.34.2a.55.55,0,0,1-.35,0,2.08,2.08,0,0,0-.39,0H72.6A1.17,1.17,0,0,1,72,32,3.65,3.65,0,0,1,72.22,30.81Z" style="fill:#423c25"/><path d="M9.89,55.67l-.48,1c0,.14-.12.38-.22.7l-.35,1.05c-.13.37-.25.71-.35,1s-.18.57-.23.71l0,.17a1.9,1.9,0,0,1-.12.36L8,61c0,.08-.06.12-.17.12l-.12,0-.12,0s-.07,0-.07,0l-.22.89H7.18a.51.51,0,0,1-.19,0,2.35,2.35,0,0,0-.53,0l-.48,0a.71.71,0,0,1-.32,0c-.08,0-.09-.11-.06-.24s0-.07,0-.15a2.3,2.3,0,0,1,.1-.33l.07-.31,0-.17a.05.05,0,0,1,0-.05.08.08,0,0,0,0-.07h-.1a.31.31,0,0,0-.26.12,1.12,1.12,0,0,0-.18.28,2.1,2.1,0,0,0-.15.3.49.49,0,0,1-.15.21h-.1l-.24-.07H4.35a.59.59,0,0,0-.16.07.09.09,0,0,1-.13,0,2.63,2.63,0,0,1-.2-.54,4.59,4.59,0,0,1-.13-.57A2.52,2.52,0,0,1,3.67,60a1.06,1.06,0,0,1,0-.38l0-.17.12-.41,0-.12,2.28-6.24.12-.12.27-.21.26-.23A.48.48,0,0,0,6.94,52a.5.5,0,0,0,0-.22c0-.13,0-.26,0-.41s0-.3,0-.43,0-.2,0-.22.06-.15.12-.31l.22-.51a5,5,0,0,1,.25-.52.76.76,0,0,1,.23-.29,1,1,0,0,1,.16-.2l.18-.21.07-.24H7.93a3.44,3.44,0,0,1-.45-.05,2.12,2.12,0,0,1-.4-.1c-.11-.05-.15-.12-.12-.2l.14-.21c.08-.13.14-.21.15-.24l0,0a.19.19,0,0,0,0-.1s0-.06.11-.09L8,47.08l-.31-.33s-.06-.1,0-.14.07-.07.07-.1a.67.67,0,0,1,.38-.2c.13,0,.21-.1.24-.26a.46.46,0,0,0,0-.25c0-.12-.07-.25-.11-.37a1.27,1.27,0,0,1-.07-.36c0-.12,0-.19.06-.22a2.15,2.15,0,0,1,.73-.37,8.08,8.08,0,0,1,1-.27,10.44,10.44,0,0,1,1.19-.15L12.28,44l1,0h.65l.82.07h1a6.31,6.31,0,0,1,1.15.43,4.18,4.18,0,0,1,.94.65,2.44,2.44,0,0,1,.63.58,1.37,1.37,0,0,1,.09.81c0,.46,0,.87,0,1.22s-.07.67-.11.94-.08.52-.13.74a5.42,5.42,0,0,0-.1.65,9.35,9.35,0,0,1-.49,1.34c-.22.5-.45,1-.71,1.48a13.22,13.22,0,0,1-.82,1.38,7.86,7.86,0,0,1-.81,1.06c-.43.17-.87.34-1.32.5s-.95.31-1.51.46l-1.59.28a.13.13,0,0,1,.09-.14c.05,0,.05,0,0,0Zm1-2.64a1.65,1.65,0,0,0-.05.21c0,.09,0,.14.17.15a1.07,1.07,0,0,0,.53-.19,1.43,1.43,0,0,0,.38-.48l1.4-2.64.07-.24a3,3,0,0,0,.06-1,4.62,4.62,0,0,1,0-1c0-.12-.08-.19-.24-.19h0l.27,0a2.3,2.3,0,0,1-.39.09l-.53.11-.49.1c-.15,0-.24,0-.25.06a.64.64,0,0,0-.22.05s-.06.07-.09.16l0,.1c.39,0,.61.15.66.35a1.51,1.51,0,0,1,0,.78,9.17,9.17,0,0,1-.59,1.85A8.5,8.5,0,0,0,10.9,53Z" style="fill:#423c25"/><path d="M16.68,59.61a7,7,0,0,1,.47-1.15,6.48,6.48,0,0,0,.47-1.15,19.77,19.77,0,0,0,.52-2.26,19.69,19.69,0,0,1,.51-2.26,11,11,0,0,1,.53-1.32,7.07,7.07,0,0,0,.5-1.29l0-.1.09-.26v-.07c0-.08-.09-.14-.22-.17a.77.77,0,0,0-.37,0l-.41-.46s0,0,0-.09l.42-.51c.1-.13.2-.24.3-.35a1.06,1.06,0,0,0,.16-.2l.46-.1.17,0-.23-.17a.72.72,0,0,0-.4-.14.08.08,0,0,1,0-.07.7.7,0,0,1,.38-.4,3,3,0,0,1,.7-.24,5.94,5.94,0,0,1,.86-.11l.78,0h.45c.55,0,1.08,0,1.6.06s1.05.06,1.59.06a2,2,0,0,0,.5-.06A1.88,1.88,0,0,1,27,46.7l-.05.19c-.05.13-.08.19-.1.19a1.26,1.26,0,0,1-.15.23l-.16.23-.07.19L26,48l.38.31,0,.2a1.3,1.3,0,0,1-.44.48,3.75,3.75,0,0,1-.69.36l-.76.24a5.81,5.81,0,0,1-.61.12l-.12.09a.34.34,0,0,0-.07.19l-.12.41a4.59,4.59,0,0,1-.14.45c-.05.15-.09.27-.13.37l0,.09a.39.39,0,0,0,0,.17.18.18,0,0,1-.1.15l-.46.24.39,0s.05,0,0,.12a1.47,1.47,0,0,1-.1.22l0,.09c0,.07,0,.1.05.1h.12a4.33,4.33,0,0,0,.93-.1,5.11,5.11,0,0,1,.92-.09c.17,0,.29,0,.34.16a.57.57,0,0,1,0,.39.64.64,0,0,1-.27.29c-.16.09-.32.18-.51.27l-.49.24q-.23.1-.24.18s.05.06.16.09a3,3,0,0,1,.33.1,1.33,1.33,0,0,1,.31.18c.09.08.1.18,0,.33a1,1,0,0,1-.46.56,1.89,1.89,0,0,1-.63.22l-.7.09a2,2,0,0,0-.66.21,1.4,1.4,0,0,0-.17.3,5.24,5.24,0,0,0-.22.57l-.21.6c-.06.19-.1.3-.12.35v0c0,.09,0,.2-.05.33a2.63,2.63,0,0,1-.06.39c0,.12,0,.28-.06.45h1.78c.1,0,.15,0,.18.06a.24.24,0,0,1,0,.15l0,.18a.22.22,0,0,0,0,.16.17.17,0,0,0,.09.14l.2.13a.53.53,0,0,1,.15.2.47.47,0,0,1,0,.35.45.45,0,0,1-.29.3,3.84,3.84,0,0,1-.51.19l-.52.18c-.16.07-.26.15-.29.27a1.7,1.7,0,0,1,.17.26l0,.07a.39.39,0,0,1-.28.31,3.12,3.12,0,0,1-.54.08,11.85,11.85,0,0,0-1.25.14,2.45,2.45,0,0,1-1,0l-.72-.2-.33.2a.56.56,0,0,1-.35,0,2.17,2.17,0,0,0-.4-.05h-.26a1.15,1.15,0,0,1-.57-.93A4.29,4.29,0,0,1,16.68,59.61Z" style="fill:#423c25"/><path d="M29.91,56.87a.13.13,0,0,0-.1,0l-.19.38a4.89,4.89,0,0,1-.22.65c-.11.3-.22.62-.34,1s-.24.66-.34,1-.17.52-.2.65a.82.82,0,0,1-.09.35,1.94,1.94,0,0,1-.15.3.14.14,0,0,1-.15.09l-.12,0-.11,0s-.06,0-.06,0l-.16.77h-.12c-.1,0-.15,0-.15,0a.63.63,0,0,1-.58-.4A.75.75,0,0,1,27,61l-.1-.07h-.07a.28.28,0,0,0-.21.11,1,1,0,0,0-.17.24l-.13.25a.5.5,0,0,1-.13.17h-.05l-.05,0h-.51l-.25,0-.25,0h-.14a.32.32,0,0,1-.36-.21,1.19,1.19,0,0,1-.1-.51,3.83,3.83,0,0,1,.05-.6,2.4,2.4,0,0,1,.09-.41l0-.14a2.2,2.2,0,0,1,.09-.21.26.26,0,0,0,0-.15l0-.1L26.72,54s0-.1.08-.22l.08-.23A.73.73,0,0,0,27,53.3c.05-.13.11-.27.18-.41a4.14,4.14,0,0,0,.15-.41,3.69,3.69,0,0,1,.21-.5l.21-.43c.08-.16.16-.31.24-.44a1.85,1.85,0,0,1,.2-.26l.16-.19a1,1,0,0,0,.15-.19l0-.1,0-.1h-.23l-.39,0a1.53,1.53,0,0,1-.34-.09q-.13-.06-.09-.18l.14-.18c.1-.1.15-.17.15-.2l.13,0a.83.83,0,0,0,.21-.06l.2-.07q.07,0,.06-.06l-.46-.26.1-.31s0-.06,0-.12,0-.08,0-.1a.62.62,0,0,1,.22-.1l.23,0,.2,0a.15.15,0,0,0,.12-.12l-.43-.55c-.1-.13-.06-.25.12-.37a3,3,0,0,1,.77-.34,11,11,0,0,1,1.15-.27c.43-.08.85-.16,1.26-.22s.77-.11,1.1-.14a6,6,0,0,1,.69,0,1.92,1.92,0,0,1,.68.06,3,3,0,0,0,.66.08.47.47,0,0,0,.19-.07.48.48,0,0,1,.24,0h.1a4.76,4.76,0,0,1,1,.39,4.36,4.36,0,0,1,.82.55,2.24,2.24,0,0,1,.54.53,1.1,1.1,0,0,1,.06.72l-.48.43.33.19-.07.38-.07.22a4,4,0,0,0-.05,1,3.24,3.24,0,0,1-.09,1.06,1,1,0,0,1-.2.42,1.62,1.62,0,0,1-.43.35l-2.28,2.71-.09.36c.11.86.2,1.75.28,2.67a9,9,0,0,1-.19,2.78,1.85,1.85,0,0,1-.39,0l-.23,0-.21,0a1.12,1.12,0,0,0-.29,0,.11.11,0,0,0,0,.12.1.1,0,0,1,0,.12l-.19.23a2.86,2.86,0,0,1-.3.32,2.71,2.71,0,0,1-.32.29.46.46,0,0,1-.25.12c-.1,0-.15,0-.17-.09a1.37,1.37,0,0,1,0-.23.41.41,0,0,0-.06-.23.19.19,0,0,0-.19-.1.26.26,0,0,0-.14.09c-.07,0-.13.11-.21.18l-.2.19-.14.12a.42.42,0,0,1-.15.1q-.26,0-.42-.3a3.55,3.55,0,0,1-.24-.84c-.05-.35-.09-.73-.11-1.16s0-.83,0-1.22,0-.74,0-1.06,0-.53,0-.66S30,56.87,29.91,56.87Zm.81-2.68,0,.16q0,.1.12.15a2.74,2.74,0,0,0,.66-.19.9.9,0,0,0,.46-.44l1.4-2.16,0-.21a.61.61,0,0,0,0-.42,3.47,3.47,0,0,0-.16-.41,3.65,3.65,0,0,1-.18-.41.75.75,0,0,1-.06-.42c0-.11-.05-.17-.2-.17h-.07l-.35.06-.44.08-.4.06a.62.62,0,0,0-.2,0l-.2.05a.32.32,0,0,0-.09.15v.07a.76.76,0,0,1,.63.3,1.13,1.13,0,0,1,.09.66,7.91,7.91,0,0,1-.49,1.52A9.86,9.86,0,0,0,30.72,54.19Z" style="fill:#423c25"/><path d="M35.36,60.86v0c0-.05.08-.08.19-.11l.35-.07.47-.08s0-.07,0-.16a2.1,2.1,0,0,0-.13-.26,3.57,3.57,0,0,0-.22-.35l1.47,0s0-.09-.12-.14a1.25,1.25,0,0,0-.29-.1l-.55-.12c-.15,0-.28-.1-.39-.31a.26.26,0,0,0,.08-.16l.09-.25a.89.89,0,0,1,.13-.23.25.25,0,0,1,.2-.1,1.07,1.07,0,0,1,.59.2,1.42,1.42,0,0,0,.78.2,1.33,1.33,0,0,0,.63-.15,1.92,1.92,0,0,0,.5-.39,2.23,2.23,0,0,0,.37-.5,2.09,2.09,0,0,0,.23-.54.29.29,0,0,1,.22-.17c.11,0,.16-.09.14-.17a.89.89,0,0,1-.15-.18l-.29-.33a3.84,3.84,0,0,1-.28-.34.51.51,0,0,1-.12-.2,1.51,1.51,0,0,0-.08-.31A5.52,5.52,0,0,1,39,55c-.06-.19-.11-.37-.17-.53a1.14,1.14,0,0,1-.08-.29l-.33-.75a2.78,2.78,0,0,1-.19-.6,2.24,2.24,0,0,1,0-.69,6.09,6.09,0,0,1,.24-1,8.39,8.39,0,0,1,.8-1.92,4.84,4.84,0,0,1,1.25-1.41,5.36,5.36,0,0,1,1.81-.88,9.13,9.13,0,0,1,2.47-.3h.08s0,0-.08.1l-.21.23c-.08.08-.15.16-.22.22s-.08.1-.07.1a.62.62,0,0,0,.18-.07L44.8,47a2.61,2.61,0,0,0,.37-.14.7.7,0,0,1,.22-.07,1.27,1.27,0,0,1,.41.06c.11,0,.14.15.09.32a.37.37,0,0,1-.14.21.79.79,0,0,1-.23.09l-.25.07a.34.34,0,0,0-.19.14.85.85,0,0,1-.15.15l-.31.28-.41.36,1.61-.65s0,.06,0,.18,0,.26,0,.41,0,.3-.08.44a1.36,1.36,0,0,1-.06.29.66.66,0,0,1-.4.42,4.67,4.67,0,0,1-.68.25l-.3.07-.42.11-.4.11-.29.07c-.21.11-.32.23-.34.36a.86.86,0,0,0,0,.37c0,.17,0,.34.08.52s.07.35.1.52a2.47,2.47,0,0,1,0,.34l-.48.68.3-.1a.49.49,0,0,1,.18,0c.17,0,.32.14.43.41s.15.46.25.8A10.78,10.78,0,0,1,44,55.17c.08.4.14.79.18,1.16a2.48,2.48,0,0,1,0,.93l0,.05a5.5,5.5,0,0,0-.69,1.06,4.32,4.32,0,0,1-.71,1.05c0,.06-.14.17-.27.32s-.28.31-.42.48-.29.33-.43.47-.26.25-.34.31a1.76,1.76,0,0,1-.79.36,9.67,9.67,0,0,1-1.19.23c-.42.06-.84.1-1.24.12l-.91,0a2.3,2.3,0,0,1-.5-.08,3.31,3.31,0,0,1-.61-.19,2.43,2.43,0,0,1-.51-.27C35.38,61.1,35.32,61,35.36,60.86Z" style="fill:#423c25"/><path d="M45.6,52.7a1.9,1.9,0,0,1,.21-.43l.27-.45c.1-.15.18-.3.26-.44a1,1,0,0,0,.1-.41l.23-.31.34-.47.33-.47a2.08,2.08,0,0,0,.21-.31,4.11,4.11,0,0,1,.41-.52c.12-.13.25-.26.37-.37a3.68,3.68,0,0,1,.41-.33c.15-.12.32-.26.51-.44a3,3,0,0,0,.23-.28,1.42,1.42,0,0,1,.25-.29,4.84,4.84,0,0,1,1-.45c.44-.13.89-.25,1.36-.34s.92-.18,1.36-.23a7.8,7.8,0,0,1,1-.09c.3,0,.41.12.33.34a.28.28,0,0,1-.12.2,1.16,1.16,0,0,1-.21.16l-.22.16a.36.36,0,0,0-.12.18q0,.12.09.18a1.15,1.15,0,0,0,.28.09l.32.07a.34.34,0,0,1,.2.11l.34.75.13.28a1.46,1.46,0,0,1,0,.2,2.11,2.11,0,0,0,0,.21,1.07,1.07,0,0,0,.15.31,2.65,2.65,0,0,0,.21.34,1.05,1.05,0,0,1,.15.24.67.67,0,0,1,0,.29,2.69,2.69,0,0,1-.08.45,6.91,6.91,0,0,1-.3.83,7.19,7.19,0,0,0-.3.85l0,0c0,.08,0,.25-.07.52s-.07.55-.11.86-.07.61-.1.88-.06.44-.08.5l0,.07a.17.17,0,0,0,0,.12.5.5,0,0,1,0,.17l0,.1,0,.09-.07.14a1.17,1.17,0,0,0-.08.13l0,.09a.63.63,0,0,1-.31.17.3.3,0,0,0-.24.19.24.24,0,0,0,.12.29.32.32,0,0,1,.17.29,2.63,2.63,0,0,0-.06.43,3,3,0,0,1-.09.48,2.53,2.53,0,0,1-.63,1A13.81,13.81,0,0,1,52.62,60c-.42.37-.84.71-1.27,1l-1,.81s-.07.05-.07.07a.18.18,0,0,0,0,.19.18.18,0,0,1,0,.19c0,.13-.21.21-.53.24s-.63,0-.92,0h-.43a4.42,4.42,0,0,1-.67-.07,8.92,8.92,0,0,1-.94-.21,4.81,4.81,0,0,1-.86-.3.78.78,0,0,1-.46-.36,1.17,1.17,0,0,0-.2-.33A3.53,3.53,0,0,1,45,61a2.37,2.37,0,0,1-.19-.35.6.6,0,0,1-.06-.37l0-.14.1-.29.07-.24,0-.14a.19.19,0,0,0-.06-.24.47.47,0,0,1-.13-.24,1.25,1.25,0,0,1,0-.27c0-.13,0-.26,0-.39a2.55,2.55,0,0,1,0-.38.69.69,0,0,1,0-.24,5.74,5.74,0,0,1,.1-1.09,9,9,0,0,1,.26-1.09c.11-.37.22-.73.32-1.08a4.92,4.92,0,0,0,.21-1.08.33.33,0,0,0,0-.19.85.85,0,0,1-.06-.17.24.24,0,0,0,0-.13Q45.58,52.78,45.6,52.7ZM48,57.4a.73.73,0,0,0,0,.35,3.32,3.32,0,0,0,.18.53,2.79,2.79,0,0,0,.24.49c.08.14.15.22.2.22a.59.59,0,0,0,.38-.21l.27-.25.2-.19.34-.31.33-.32c.11-.09.18-.16.23-.19l0-.14a18.2,18.2,0,0,0,.44-1.9,11.29,11.29,0,0,1,.54-1.92c0-.11,0-.25,0-.41l.06-.48c0-.16.05-.31.08-.45a1.55,1.55,0,0,1,.08-.34s.06-.13.14-.31a3.06,3.06,0,0,1,.15-.31l0,0a.3.3,0,0,0,0-.1l0-.09,0-.07a.45.45,0,0,0,0-.46,1,1,0,0,0-.35-.26l-.34-.17c-.1-.05-.12-.11,0-.19h-.24a.11.11,0,0,0-.1,0,1.54,1.54,0,0,0-.07.24l-1.15,1.64,0,.16a1.17,1.17,0,0,0-.06.58,1.57,1.57,0,0,1-.06.6,17.78,17.78,0,0,1-.78,2.14A17,17,0,0,0,48,57.4Z" style="fill:#423c25"/><path d="M56.76,60.74l-.72.6a.6.6,0,0,0-.43.2.57.57,0,0,1-.43.21c-.13,0-.2-.08-.22-.23a.89.89,0,0,1,0-.35l0-.1.36-.91,0-.09,0-.1.31-1.85L58,50.87a5.84,5.84,0,0,1-.39-1.3,3,3,0,0,1,.08-1.43s.07-.09.21-.21a4.43,4.43,0,0,1,.45-.36l.46-.31c.13-.09.22-.11.25-.08l.65.79a.25.25,0,0,0,.24-.19c.05-.13.09-.27.14-.43a1.63,1.63,0,0,1,.21-.44.38.38,0,0,1,.32-.19h.14l.32,0,.31,0a23.79,23.79,0,0,1,1.73,4l-.17.45.38-.45a1,1,0,0,1,.1-.24l.21-.49.24-.56A3,3,0,0,0,64,49a1.17,1.17,0,0,0,.1-.27.55.55,0,0,1,.24-.31l.67-.31-.41-.31c-.08,0-.11-.14-.11-.3a2.73,2.73,0,0,1,.06-.45l.08-.19a.93.93,0,0,1,.39-.24q.3-.12.33,0l0,.1c0,.12,0,.21,0,.25a.75.75,0,0,1,.13.11,3.42,3.42,0,0,0,.65.06,8.18,8.18,0,0,1,1,.06,4.86,4.86,0,0,1,.88.15q.38.1.3.33l0,.1a1.17,1.17,0,0,1-.05.11c-.06.15-.17.4-.31.77s-.3.76-.46,1.16L67,51l-.31.77-.39,2.11-2.18,7.58a1.27,1.27,0,0,1-.27.17l-.33.12a1.1,1.1,0,0,1-.29.07.33.33,0,0,1-.26-.15,3.17,3.17,0,0,1-.23-.36c-.07-.14-.14-.27-.19-.39a.94.94,0,0,0-.14-.23l-.52.39-.15.45s-.06.06-.14.09l-.19,0a.82.82,0,0,1-.71-.34,1,1,0,0,1-.21-.71l.29-3.39-.17-1.58h-.09c-.18.62-.37,1.26-.57,1.9s-.38,1.27-.56,1.89l-.12.41c-.06.19-.13.38-.19.55s-.16.4-.29.67l-.07.06a.13.13,0,0,1-.07,0h-.12a.46.46,0,0,1-.17-.1.24.24,0,0,0-.22.14,2.15,2.15,0,0,0-.14.3,2.14,2.14,0,0,1-.17.3.29.29,0,0,1-.24.13s0,0,0,0a1.17,1.17,0,0,0-.09-.32.57.57,0,0,0-.2-.23.4.4,0,0,0-.26.19,1.52,1.52,0,0,0-.12.32,1.34,1.34,0,0,1-.12.3.34.34,0,0,1-.31.13c-.13,0-.18-.07-.16-.22a2.42,2.42,0,0,1,.15-.49,5.05,5.05,0,0,1,.24-.53C56.74,60.89,56.78,60.79,56.76,60.74Z" style="fill:#423c25"/><path d="M68,60.74l-.72.6a.58.58,0,0,0-.43.2.59.59,0,0,1-.44.21c-.12,0-.2-.08-.21-.23a.75.75,0,0,1,0-.35l0-.1.36-.91,0-.09,0-.1.32-1.85,2.23-7.25a5.36,5.36,0,0,1-.4-1.3,2.88,2.88,0,0,1,.09-1.43s.06-.09.2-.21.29-.24.46-.36l.45-.31c.14-.09.22-.11.25-.08l.65.79a.25.25,0,0,0,.24-.19c0-.13.1-.27.15-.43a1.35,1.35,0,0,1,.2-.44.41.41,0,0,1,.32-.19h.15l.31,0,.31,0a23,23,0,0,1,1.73,4l-.17.45.39-.45a1.33,1.33,0,0,1,.09-.24l.22-.49.24-.56A4.74,4.74,0,0,0,75.2,49l.09-.27a.55.55,0,0,1,.24-.31l.67-.31-.4-.31c-.08,0-.12-.14-.11-.3a2.73,2.73,0,0,1,.06-.45l.07-.19a1,1,0,0,1,.4-.24c.2-.08.3-.08.32,0l0,.1c0,.12,0,.21,0,.25a.5.5,0,0,1,.13.11,3.53,3.53,0,0,0,.65.06,8.47,8.47,0,0,1,1,.06,4.89,4.89,0,0,1,.87.15q.38.1.3.33a.93.93,0,0,1,0,.1s0,.08,0,.11-.17.4-.32.77-.29.76-.45,1.16-.31.8-.46,1.17-.25.62-.31.77l-.38,2.11-2.19,7.58a1.29,1.29,0,0,1-.26.17l-.34.12a1,1,0,0,1-.29.07.34.34,0,0,1-.26-.15,3.17,3.17,0,0,1-.23-.36l-.19-.39a1.66,1.66,0,0,0-.13-.23l-.53.39-.14.45s-.07.06-.15.09l-.19,0a.83.83,0,0,1-.71-.34,1,1,0,0,1-.2-.71L72,57.23l-.17-1.58h-.1c-.17.62-.36,1.26-.56,1.9s-.39,1.27-.57,1.89l-.12.41c-.06.19-.12.38-.19.55a6.16,6.16,0,0,1-.29.67.22.22,0,0,1-.07.06s0,0-.07,0H69.7a.56.56,0,0,1-.17-.1.23.23,0,0,0-.21.14,2.09,2.09,0,0,0-.15.3,1.46,1.46,0,0,1-.17.3.29.29,0,0,1-.24.13.05.05,0,0,1,0,0,1.19,1.19,0,0,0-.1-.32.55.55,0,0,0-.19-.23.4.4,0,0,0-.27.19c0,.1-.08.2-.12.32a1.34,1.34,0,0,1-.12.3.33.33,0,0,1-.31.13c-.13,0-.18-.07-.15-.22a2.33,2.33,0,0,1,.14-.49,5.05,5.05,0,0,1,.24-.53A.63.63,0,0,0,68,60.74Z" style="fill:#423c25"/><path d="M77.21,60.79h-.09l-.12.09-.27.94s0,0,0,0l-.09.06h-.07c-.1,0-.16-.08-.2-.24a.51.51,0,0,1,0-.31,1.91,1.91,0,0,0,.06-.27,4.1,4.1,0,0,1,.11-.4c0-.13.07-.25.11-.37l.08-.25a.26.26,0,0,1-.07-.15l0-.17,0-.14.24-.74c.11-.34.24-.72.39-1.13s.32-.86.48-1.32l.48-1.32c.16-.42.29-.79.41-1.13s.21-.58.25-.74c.21-.37.44-.74.68-1.11a10.17,10.17,0,0,0,.62-1.1l1.14-2.33a15.1,15.1,0,0,1,1.4-2.28s.12,0,.2.07a4.07,4.07,0,0,1,.25.35c.08.14.17.26.25.38s.14.18.17.18.1-.06.15-.18a3.34,3.34,0,0,0,.16-.38l.14-.37q.07-.16.12-.15h2.21l.48-.16s.08,0,.1.06a1,1,0,0,1,0,.19l0,.2c0,.07,0,.1.06.1a1,1,0,0,0,.25,0,1.38,1.38,0,0,1,.29,0,.41.41,0,0,1,.21.1c.06,0,.07.13,0,.24l-.67,2.3a1.46,1.46,0,0,0,0,.54,5.06,5.06,0,0,0,.08.52c0,.17.08.35.11.51a2.38,2.38,0,0,1,0,.54c0,.2-.13.53-.23,1s-.21,1-.33,1.5-.22,1-.32,1.5-.18.8-.23,1l0,.09A19.63,19.63,0,0,1,86,58.85c-.14.76-.33,1.54-.55,2.32a1.91,1.91,0,0,1-.64-.1A2.18,2.18,0,0,0,84.2,61a.23.23,0,0,0-.18.09l-.17.21-.18.2a.3.3,0,0,1-.22.1c-.08,0-.11-.06-.09-.17a2.83,2.83,0,0,1,.06-.37c0-.14,0-.26.06-.37s0-.17-.08-.17-.05,0-.1.11a1.84,1.84,0,0,0-.17.22l-.25.34s-.08.12-.17.28a.83.83,0,0,1-.24.27s0,.07-.12.1v0h0c-.24,0-.36-.15-.37-.47a5.52,5.52,0,0,1,.08-1c.07-.37.12-.72.17-1s0-.47-.12-.47h-.67a.6.6,0,0,0-.55.22l-.34,1.15-.31,1.15a2.87,2.87,0,0,1-.18.42,1.39,1.39,0,0,1-.16.3l-.14.1H78l-.44-.46-.21-.09a.34.34,0,0,1,0-.21,1.38,1.38,0,0,1,.08-.27.61.61,0,0,0,0-.26C77.38,60.82,77.32,60.79,77.21,60.79Zm4.73-5.24a1.38,1.38,0,0,0-.07.2.1.1,0,0,0,.09.16,3.26,3.26,0,0,0,.68-.12.62.62,0,0,0,.48-.4.19.19,0,0,1,.08-.1.19.19,0,0,0,.08-.1,3.21,3.21,0,0,1,0-.4c0-.2.07-.4.1-.62s.07-.42.11-.61a3.5,3.5,0,0,1,.1-.41,1.29,1.29,0,0,1,0-.19c0-.09,0-.19,0-.29a1.15,1.15,0,0,0,0-.26q0-.12-.06-.12c-.15,0-.31.16-.49.48s-.37.68-.56,1.07-.34.76-.46,1.1S82,55.49,81.94,55.55Z" style="fill:#423c25"/><path d="M93.89,53.63a1.21,1.21,0,0,0,.77.22,4.59,4.59,0,0,0,.73-.06c.25,0,.47-.09.66-.14l.43-.15c.1,0,.12-.06,0-.06H98.6l-.12.41-.1.84a2,2,0,0,1-.35.1l-.5.09c-.17,0-.31.07-.42.1S97,55,97,55.05a.78.78,0,0,1,.33.16,1.82,1.82,0,0,0,.63.2,1.62,1.62,0,0,1-.62.78,2.08,2.08,0,0,1-.85.28,1.17,1.17,0,0,1-.13.28,1.13,1.13,0,0,0-.13.32,1.39,1.39,0,0,0-.06.33,1.92,1.92,0,0,0,0,.46,1.26,1.26,0,0,1-.15.68,2.42,2.42,0,0,1-.69.9,1.06,1.06,0,0,0-.25.3l-.06.21a1.08,1.08,0,0,0-.08.19.92.92,0,0,1-.23.26l-.43.58a3.83,3.83,0,0,1-.79.45,3.4,3.4,0,0,1-.72.27c-.12,0-.28,0-.51,0l-.69,0-.65,0h-.36a4.18,4.18,0,0,1-1.14-.11,2,2,0,0,1-.85-.54s0-.07.18-.13a.61.61,0,0,0,.27-.15,1.91,1.91,0,0,0-.35-.41L88.35,60a3.46,3.46,0,0,1-.34-.44,1.33,1.33,0,0,1-.17-.52,2,2,0,0,0,0-.3c0-.14,0-.28-.07-.44a4.14,4.14,0,0,1-.07-.45,2.13,2.13,0,0,1,0-.3,1.36,1.36,0,0,0,.17-.79,2.31,2.31,0,0,1,.1-.84.71.71,0,0,1,.2-.19c.12-.1.18-.15.18-.17l-.12-.23-.08-.15a.22.22,0,0,1,0-.1,3.73,3.73,0,0,0,.26-.9,7,7,0,0,1,.2-.88,5.63,5.63,0,0,1,.39-1q.25-.53.45-1c.09-.24.26-.59.49-1.06a9.38,9.38,0,0,1,.87-1.4A7,7,0,0,1,92,47.53a2.74,2.74,0,0,1,1.51-.64,2.9,2.9,0,0,1,.64-.13,4.66,4.66,0,0,1,.61,0h.51l.35,0a.45.45,0,0,1,.35.12,1.09,1.09,0,0,0,.28.22,1,1,0,0,0,.48.14,2.61,2.61,0,0,0,.93-.2l0,0a5.43,5.43,0,0,1,.55,4.59,4.33,4.33,0,0,1-.27.37.4.4,0,0,1-.33.18l-1.9.05a.89.89,0,0,1-.41-.21.25.25,0,0,1,0-.19.86.86,0,0,0,.06-.23c0-.08,0-.18-.21-.31l-.12-1s-.06-.09,0-.12a.29.29,0,0,0,.1-.12.23.23,0,0,0,0-.18,1.09,1.09,0,0,0-.31-.3.21.21,0,0,0-.12-.05s-.13.06-.24.17a.29.29,0,0,0-.1.05l-.14.11L94,50a.11.11,0,0,0,0,.13l-1.11,1.2-.57,1.25c0-.1,0-.12-.1-.06a1.3,1.3,0,0,0-.26.23c-.1.46-.19.94-.27,1.45a12.81,12.81,0,0,1-.31,1.45,3.27,3.27,0,0,0-.08.35s0,.15-.09.3a.21.21,0,0,0,0,.14.43.43,0,0,1,0,.15l-.36,1.22,1.24.74.22.21s0,0,0,0a1.24,1.24,0,0,1,.26-.41,2.43,2.43,0,0,0,.37-.79l.07-.27.05-.14.09-.3c0-.11.07-.21.1-.3l0-.15-.72-.26a.58.58,0,0,1,0-.47.7.7,0,0,1,.5-.15l-.15-.44Z" style="fill:#423c25"/><path d="M98.23,59.61a7,7,0,0,1,.47-1.15,6.48,6.48,0,0,0,.47-1.15,19.77,19.77,0,0,0,.52-2.26,19.69,19.69,0,0,1,.51-2.26,11,11,0,0,1,.53-1.32,7.07,7.07,0,0,0,.5-1.29l0-.1.09-.26v-.07c0-.08-.09-.14-.22-.17a.81.81,0,0,0-.38,0l-.4-.46s0,0,0-.09l.42-.51c.1-.13.2-.24.3-.35a1.06,1.06,0,0,0,.16-.2l.46-.1.17,0-.23-.17a.72.72,0,0,0-.4-.14.08.08,0,0,1,0-.07.7.7,0,0,1,.38-.4,3,3,0,0,1,.7-.24,5.94,5.94,0,0,1,.86-.11l.78,0h.45c.55,0,1.08,0,1.6.06s1,.06,1.59.06a2,2,0,0,0,.5-.06,1.88,1.88,0,0,1,.49-.06l0,.19c0,.13-.08.19-.1.19a1.26,1.26,0,0,1-.15.23l-.16.23-.07.19-.55.31.38.31,0,.2a1.27,1.27,0,0,1-.43.48,3.75,3.75,0,0,1-.69.36l-.76.24a5.81,5.81,0,0,1-.61.12l-.12.09a.34.34,0,0,0-.07.19l-.12.41a4.59,4.59,0,0,1-.14.45c0,.15-.1.27-.13.37l0,.09a.37.37,0,0,0,0,.17.16.16,0,0,1-.09.15l-.46.24.39,0s0,0,0,.12a1.47,1.47,0,0,1-.1.22l0,.09c0,.07,0,.1,0,.1h.12a4.33,4.33,0,0,0,.93-.1,5.11,5.11,0,0,1,.92-.09c.17,0,.29,0,.34.16a.57.57,0,0,1,0,.39.64.64,0,0,1-.27.29l-.51.27-.49.24q-.22.1-.24.18s0,.06.16.09a3,3,0,0,1,.33.1,1.33,1.33,0,0,1,.31.18c.09.08.1.18,0,.33a1,1,0,0,1-.46.56,1.89,1.89,0,0,1-.63.22l-.7.09a2,2,0,0,0-.66.21,1.4,1.4,0,0,0-.17.3c-.08.17-.15.36-.23.57s-.14.42-.2.6-.1.3-.12.35v0c0,.09,0,.2-.05.33a2.63,2.63,0,0,1-.06.39c0,.12,0,.28-.06.45h1.78a.22.22,0,0,1,.18.06.24.24,0,0,1,0,.15s0,.11,0,.18a.22.22,0,0,0,0,.16.17.17,0,0,0,.09.14l.2.13a.53.53,0,0,1,.15.2.47.47,0,0,1,0,.35.45.45,0,0,1-.29.3,3.84,3.84,0,0,1-.51.19l-.52.18c-.16.07-.26.15-.29.27a1.7,1.7,0,0,1,.17.26l0,.07a.37.37,0,0,1-.27.31,3.12,3.12,0,0,1-.54.08,11.85,11.85,0,0,0-1.25.14,2.45,2.45,0,0,1-1,0l-.72-.2-.33.2a.56.56,0,0,1-.35,0,2.17,2.17,0,0,0-.4-.05h-.26a1.15,1.15,0,0,1-.57-.93A4.29,4.29,0,0,1,98.23,59.61Z" style="fill:#423c25"/><rect x="-0.27" y="0.42" width="125" height="80" style="fill:none;stroke:#423c25;stroke-miterlimit:10;stroke-width:2px"/></g></svg>