<svg id="ab50cc4c-6fa3-4663-8b1f-017c486ef34e" data-name="icon vecto" xmlns="http://www.w3.org/2000/svg" width="125" height="80" viewBox="0 0 125 80"><title>techniques_1</title><g id="b863ed9a-2aaa-428c-a027-865c42db498d" data-name="techniques - copie"><rect width="125" height="80" style="fill:#fff"/><path d="M129,18.61l-7.39-.36a.09.09,0,0,1-.09-.06s0,0,0-.06l1.3-4.14,0,0h0Z" style="fill:#423c25"/><path d="M124.33,2.1l-2.92,5.55a.22.22,0,0,1-.2.12.24.24,0,0,1-.14,0l-3.18-2.61a.1.1,0,0,1,0-.14.08.08,0,0,1,0,0Z" style="fill:#423c25"/><path d="M121.64,20a2.76,2.76,0,0,0-.2-1.76l0,0a.09.09,0,0,0,.09.06l7.39.36L122.85,14h0v0a2.64,2.64,0,0,0,1.51-1L135,20.62Z" style="fill:#fff"/><path d="M117.76,4.94a2.57,2.57,0,0,0-.14-1.8l12-6.23L122.86,8.53a2.81,2.81,0,0,0-1.65-.64V7.77a.22.22,0,0,0,.2-.12l2.92-5.55-6.42,2.83a.08.08,0,0,0,0,0Z" style="fill:#fff"/><path d="M116.83,22.42,116.59,30l-4-6.33a.16.16,0,0,1,0-.15.14.14,0,0,1,.11-.11l4-1.08a.12.12,0,0,1,.12,0A.18.18,0,0,1,116.83,22.42Z" style="fill:#423c25"/><path d="M113.7,11.93a2.33,2.33,0,1,1-3.27.3A2.33,2.33,0,0,1,113.7,11.93Z" style="fill:#fff"/><path d="M116.84,22.26a2.76,2.76,0,0,0,1.3.48V36.46l-7.2-11.32a2.61,2.61,0,0,0,1.46-1.54l0-.14.13,0a.16.16,0,0,0,0,.15l4,6.33.24-7.55a.18.18,0,0,0,0-.09Z" style="fill:#fff"/><path d="M111.67,2.93a.18.18,0,0,1,0,.2.23.23,0,0,1-.1.07l-3.74,1.17a.17.17,0,0,1-.2-.08.25.25,0,0,1,0-.09L108.34-3Z" style="fill:#423c25"/><path d="M111.67,2.93l-3.33-6-.73,7.25a.25.25,0,0,0,0,.09l-.09.1a2.73,2.73,0,0,0-1.77-.74l.94-13.49,6.55,11.71a2.7,2.7,0,0,0-1.48,1.28l-.11,0A.18.18,0,0,0,111.67,2.93Z" style="fill:#fff"/><path d="M106.53,21.31a.1.1,0,0,1,0,.12l0,0-7,3.86,3.64-6.11a.17.17,0,0,1,.14-.08l.09,0Z" style="fill:#423c25"/><path d="M101.61,18.39a2.7,2.7,0,0,0,1.74.66v.08a.17.17,0,0,0-.14.08l-3.64,6.11,7-3.86,0,0,0,0a1.49,1.49,0,0,0-.17.44,2.65,2.65,0,0,0,.35,1.87L94.71,29.89Z" style="fill:#fff"/><path d="M111.56,3.2a.23.23,0,0,0,.1-.07l.11,0-.06.18c-.42,1.28.74,2.6,1.76,3.15.11.06,2.11,1.09,3.46-.16a3,3,0,0,0,.83-1.38l.11,0a.1.1,0,0,0,0,.14l3.18,2.61a.24.24,0,0,0,.14,0v.12a2,2,0,0,0-.4.05c-1.31.3-1.86,2-1.81,3.13,0,.13.14,2.37,1.91,2.89a3.55,3.55,0,0,0,1.91,0v0l0,0-1.3,4.14s0,.05,0,.06l0,0a1.66,1.66,0,0,0-.22-.32c-.87-1-2.6-.75-3.6-.18-.12.07-2,1.21-1.69,3a2.32,2.32,0,0,0,.91,1.52l0,.07a.12.12,0,0,0-.12,0l-4,1.08a.14.14,0,0,0-.11.11l-.13,0c.22-1.25-1-2.44-2-2.91-.12-.06-2.17-1-3.44.36a2.53,2.53,0,0,0-.41.55l0,0a.1.1,0,0,0,0-.12l-3.09-2.16-.09,0v-.08a1.65,1.65,0,0,0,.3,0c1.31-.28,1.89-1.94,1.85-3.09,0-.13-.09-2.38-1.85-2.92a2.86,2.86,0,0,0-1.56-.05l0-.08a.19.19,0,0,0,.1-.1l1.13-3.61a.14.14,0,0,0,0-.15l.06-.08a3.2,3.2,0,0,0,3.4-.25c.1-.08,2-1.35,1.49-3.13a2.41,2.41,0,0,0-.67-1.16l.09-.1a.17.17,0,0,0,.2.08Zm2.43,12a2.32,2.32,0,1,0-3.27.3A2.33,2.33,0,0,0,114,15.2Z" style="fill:#423c25"/><path d="M102.16,12.77a.19.19,0,0,1-.1.1.18.18,0,0,1-.12,0l-6.5-4,7.7.16a.12.12,0,0,1,.11,0,.14.14,0,0,1,0,.15Z" style="fill:#423c25"/><path d="M103.14,9l-7.7-.16,6.5,4a.18.18,0,0,0,.12,0l0,.08a2.55,2.55,0,0,0-1.49,1l-11.47-7,13.41-.23a2.62,2.62,0,0,0,.55,2.05l.22.19-.06.08A.12.12,0,0,0,103.14,9Z" style="fill:#fff"/><path d="M121.21,7.89a2.81,2.81,0,0,1,1.65.64l6.72-11.62-12,6.23a2.57,2.57,0,0,1,.14,1.8,3,3,0,0,1-.83,1.38c-1.35,1.25-3.35.22-3.46.16-1-.55-2.18-1.87-1.76-3.15l.06-.18a2.7,2.7,0,0,1,1.48-1.28L106.7-9.84l-.94,13.49a2.73,2.73,0,0,1,1.77.74,2.41,2.41,0,0,1,.67,1.16c.47,1.78-1.39,3.05-1.49,3.13a3.2,3.2,0,0,1-3.4.25l-.22-.19a2.62,2.62,0,0,1-.55-2l-13.41.23L100.6,14a2.55,2.55,0,0,1,1.49-1,2.86,2.86,0,0,1,1.56.05c1.76.54,1.85,2.79,1.85,2.92,0,1.15-.54,2.81-1.85,3.09a1.65,1.65,0,0,1-.3,0,2.7,2.7,0,0,1-1.74-.66l-6.9,11.5,12.08-6.12a2.65,2.65,0,0,1-.35-1.87,1.49,1.49,0,0,1,.17-.44,2.53,2.53,0,0,1,.41-.55c1.27-1.33,3.32-.42,3.44-.36,1,.47,2.19,1.66,2,2.91l0,.14a2.61,2.61,0,0,1-1.46,1.54l7.2,11.32V22.74a2.76,2.76,0,0,1-1.3-.48,2.32,2.32,0,0,1-.91-1.52c-.35-1.81,1.57-2.95,1.69-3,1-.57,2.73-.85,3.6.18a1.66,1.66,0,0,1,.22.32,2.76,2.76,0,0,1,.2,1.76l13.4.64-10.71-7.68a2.64,2.64,0,0,1-1.51,1,3.55,3.55,0,0,1-1.91,0c-1.77-.52-1.9-2.76-1.91-2.89,0-1.16.5-2.83,1.81-3.13A2,2,0,0,1,121.21,7.89Z" style="fill:none;stroke:#423c25;stroke-miterlimit:10;stroke-width:0.6007771492004395px"/><path d="M106.56,21.43l0,0-7,3.86,3.64-6.11a.17.17,0,0,1,.14-.08l.09,0,3.09,2.16A.1.1,0,0,1,106.56,21.43Z" style="fill:none;stroke:#423c25;stroke-miterlimit:10;stroke-width:0.6007771492004395px"/><path d="M112.56,23.49a.16.16,0,0,0,0,.15l4,6.33.24-7.55a.18.18,0,0,0,0-.09.12.12,0,0,0-.12,0l-4,1.08A.14.14,0,0,0,112.56,23.49Z" style="fill:none;stroke:#423c25;stroke-miterlimit:10;stroke-width:0.6007771492004395px"/><path d="M122.83,14h0L129,18.61l-7.39-.36a.09.09,0,0,1-.09-.06s0,0,0-.06l1.3-4.14Z" style="fill:none;stroke:#423c25;stroke-miterlimit:10;stroke-width:0.6007771492004395px"/><path d="M117.87,5a.08.08,0,0,1,0,0l6.42-2.83-2.92,5.55a.22.22,0,0,1-.2.12.24.24,0,0,1-.14,0l-3.18-2.61A.1.1,0,0,1,117.87,5Z" style="fill:none;stroke:#423c25;stroke-miterlimit:10;stroke-width:0.6007771492004395px"/><path d="M111.66,3.13a.18.18,0,0,0,0-.2l-3.33-6-.73,7.25a.25.25,0,0,0,0,.09.17.17,0,0,0,.2.08l3.74-1.17A.23.23,0,0,0,111.66,3.13Z" style="fill:none;stroke:#423c25;stroke-miterlimit:10;stroke-width:0.6007771492004395px"/><path d="M102.06,12.87a.18.18,0,0,1-.12,0l-6.5-4,7.7.16a.12.12,0,0,1,.11,0,.14.14,0,0,1,0,.15l-1.13,3.61A.19.19,0,0,1,102.06,12.87Z" style="fill:none;stroke:#423c25;stroke-miterlimit:10;stroke-width:0.6007771492004395px"/><path d="M113.7,11.93a2.33,2.33,0,1,1-3.27.3A2.33,2.33,0,0,1,113.7,11.93Z" style="fill:none;stroke:#423c25;stroke-miterlimit:10;stroke-width:0.6007771492004395px"/><path d="M3.06,31.57a.34.34,0,0,0-.2.12L2.59,32l-.24.27q-.11.12-.18.12c-.21,0-.31-.18-.3-.52A5.94,5.94,0,0,1,2,30.66c.09-.44.21-.86.33-1.26s.21-.69.24-.83a52,52,0,0,1,1.7-5c.64-1.63,1.21-3.29,1.69-5a.18.18,0,0,1,0-.14s0-.07,0-.07H3.85A.49.49,0,0,1,4,18.13a.5.5,0,0,0,.17-.27l0-.12c-.14-.16-.21-.26-.19-.31s.09-.14.23-.19a2.55,2.55,0,0,1,.44-.12l.47-.06h.32l-.38-.24a2.1,2.1,0,0,1-.43,0,2,2,0,0,1-.39-.13A.62.62,0,0,1,4,16.4.44.44,0,0,1,4,16a1,1,0,0,1,.22-.35.82.82,0,0,1,.36-.27l1.22-.22h.54l1.19,0c.45,0,.9,0,1.37,0l1.12,0h4.11a.58.58,0,0,1-.23.38,1,1,0,0,1-.34.1l-.37.06a.53.53,0,0,0-.33.23,1.17,1.17,0,0,0-.06.43c0,.13,0,.25,0,.36s0,.23,0,.35a1,1,0,0,1-.06.4,2.78,2.78,0,0,1-.22.5,2.64,2.64,0,0,1-.45.51.83.83,0,0,1-.58.13,5.58,5.58,0,0,0-.7,0,.72.72,0,0,0-.4.1l-.1.27-.16.44c-.05.15-.11.3-.16.44a1.7,1.7,0,0,0-.11.31l-.12.41q0,.19-.21.66l-.32,1c-.11.35-.22.67-.34,1s-.19.5-.24.62L6.61,31a2.87,2.87,0,0,1-.19.52,2,2,0,0,1-.38.56,1.29,1.29,0,0,0-.71,0,1,1,0,0,0-.37.27l-.28.32a.57.57,0,0,1-.42.14.48.48,0,0,1-.42-.2,2.26,2.26,0,0,1-.22-.44,2.39,2.39,0,0,0-.2-.43A.4.4,0,0,0,3.06,31.57Z" style="fill:#423c25"/><path d="M10.81,30.39a6.19,6.19,0,0,1,.47-1.15,6.19,6.19,0,0,0,.47-1.15,19.69,19.69,0,0,0,.51-2.26,19.62,19.62,0,0,1,.52-2.25,8.66,8.66,0,0,1,.53-1.32,8.33,8.33,0,0,0,.5-1.3l0-.1.09-.26v-.07c0-.08-.09-.14-.23-.17a.77.77,0,0,0-.37,0l-.41-.46s0,0,0-.09l.42-.51.3-.34a1.11,1.11,0,0,0,.17-.21l.46-.09.17,0-.23-.17a.75.75,0,0,0-.4-.14.08.08,0,0,1,0-.07.71.71,0,0,1,.37-.4,3.11,3.11,0,0,1,.71-.24,7.58,7.58,0,0,1,.85-.11l.78,0H17c.54,0,1.08,0,1.6.06s1.05.06,1.59.06a1.88,1.88,0,0,0,.49-.06,2,2,0,0,1,.5-.06l-.05.19c-.05.13-.08.19-.1.19a1.55,1.55,0,0,1-.15.23l-.16.23-.07.19-.55.31.38.32-.05.19a1.27,1.27,0,0,1-.43.48,3.54,3.54,0,0,1-.7.36q-.37.13-.75.24a5.81,5.81,0,0,1-.61.12l-.12.09a.38.38,0,0,0-.08.2l-.12.4a2.54,2.54,0,0,1-.13.45c0,.15-.1.27-.13.37l0,.1a.3.3,0,0,0,0,.16.16.16,0,0,1-.09.15l-.46.24.38,0q.07,0,0,.12c0,.08-.07.15-.1.22l0,.09c0,.07,0,.1,0,.1h.12a4.33,4.33,0,0,0,.93-.1,5,5,0,0,1,.91-.09c.18,0,.3.05.35.17a.54.54,0,0,1,0,.38.63.63,0,0,1-.28.29,4.67,4.67,0,0,1-.5.27l-.49.24q-.22.12-.24.18s0,.06.15.09a1.67,1.67,0,0,1,.34.11.87.87,0,0,1,.31.18c.09.07.1.18,0,.32a1.1,1.1,0,0,1-.46.56,1.87,1.87,0,0,1-.64.22l-.69.1a1.74,1.74,0,0,0-.66.2,1.4,1.4,0,0,0-.17.3,4.67,4.67,0,0,0-.23.58c-.07.21-.14.41-.2.6s-.11.3-.12.34v0c0,.09,0,.21-.05.33l-.06.39q0,.2-.06.45H17.2a.22.22,0,0,1,.18.06.24.24,0,0,1,0,.15c0,.05,0,.11,0,.18a.48.48,0,0,0,0,.17.19.19,0,0,0,.1.13l.19.13a.44.44,0,0,1,.15.55.48.48,0,0,1-.29.3,3.52,3.52,0,0,1-.52.19l-.51.18a.46.46,0,0,0-.29.27l.17.26,0,.07a.41.41,0,0,1-.27.32,4.84,4.84,0,0,1-.54.07,11.85,11.85,0,0,0-1.25.14,2.29,2.29,0,0,1-1,0l-.72-.19-.34.19a.47.47,0,0,1-.34,0,2.28,2.28,0,0,0-.4,0H11.2a1.14,1.14,0,0,1-.57-.93A3.65,3.65,0,0,1,10.81,30.39Z" style="fill:#423c25"/><path d="M23.8,29.12l-.21.2c-.05.06-.07.1-.06.11a.63.63,0,0,0,.41.19.58.58,0,0,0,.38,0,1.48,1.48,0,0,0,.46-.3c.06-.07.1-.12.1-.15a.21.21,0,0,0,0-.12s0-.07.1-.12l.74-1a1,1,0,0,0,.45-.34,2.58,2.58,0,0,0,.13-.31.67.67,0,0,1,.18-.28,1.58,1.58,0,0,1,.61-.25l1.9.05a.24.24,0,0,1,.24.17,1.37,1.37,0,0,1,0,.36,1.05,1.05,0,0,1,0,.38,1.59,1.59,0,0,1-.1.43,2.61,2.61,0,0,1-.6.95,12.45,12.45,0,0,1-1.09,1.09c-.41.37-.81.72-1.21,1s-.72.56-1,.74l0,0a5.68,5.68,0,0,0-.72-.29,2,2,0,0,0-.51-.1c-.18,0-.28,0-.31.11a.38.38,0,0,0,0,.24,2.29,2.29,0,0,1,0,.25c0,.07-.06.1-.17.1h-1c-.19,0-.4,0-.62,0a2.45,2.45,0,0,1-.6-.12,2,2,0,0,1-.85-.59,1.65,1.65,0,0,1-.36-.74,2.44,2.44,0,0,1-.05-.81c0-.27.05-.52.08-.74a1,1,0,0,0-.12-.19.64.64,0,0,0-.07-.24,3.65,3.65,0,0,1-.14-.35c-.05-.12-.1-.23-.14-.34s-.05-.17,0-.2a4,4,0,0,1,.06-1,6.51,6.51,0,0,1,.23-1c.09-.32.2-.65.32-1a3.85,3.85,0,0,0,.23-1s0-.05.11-.1l.22-.14.34-.22-.36-.15-.25-.12c-.07,0-.11-.07-.11-.09a.86.86,0,0,1,.22-.39c.11-.14.22-.28.34-.41l.33-.4a.66.66,0,0,0,.14-.36l.22-.3c.09-.13.2-.27.32-.42s.23-.28.33-.42a1.58,1.58,0,0,1,.21-.27,3.54,3.54,0,0,1,.36-.47c.11-.12.23-.23.34-.34a4,4,0,0,1,.37-.3,5,5,0,0,0,.47-.36l.21-.26a1.1,1.1,0,0,1,.27-.27,4.69,4.69,0,0,1,.63-.32,4,4,0,0,1,.56-.17,3.43,3.43,0,0,1,.56-.07H27a.85.85,0,0,0,.25,0l.3-.07a1.48,1.48,0,0,1,.24,0c.07,0,.09,0,.08.08s0,.14.15.2a3.52,3.52,0,0,0,.39.16,2.85,2.85,0,0,1,.33.13c.09,0,.09.07,0,.11a.64.64,0,0,0-.36.32,1.41,1.41,0,0,0-.14.3s0,0,.12,0l.36-.11a1.77,1.77,0,0,1,.47,0,.69.69,0,0,1,.47.25l.24.31a1.41,1.41,0,0,1,.12.27c0,.06,0,.12,0,.18a1.89,1.89,0,0,1,.06.18,1.55,1.55,0,0,0,.18.26,3.5,3.5,0,0,1,.35.7.49.49,0,0,1-.06.5,2.16,2.16,0,0,0-.35.48,1.4,1.4,0,0,0-.1.36,1.8,1.8,0,0,0,0,.31,1.12,1.12,0,0,1-.05.34l0,.05a1.16,1.16,0,0,1-.36.25,2.54,2.54,0,0,1-.83.25,2.89,2.89,0,0,1-1.05,0,1.77,1.77,0,0,1-1-.61v-.89a.59.59,0,0,1,0-.08.11.11,0,0,0,0-.08l0-.05a5.64,5.64,0,0,0,.17-.76,3.08,3.08,0,0,1,.07-.39s0,0,0,0l-.31.21-1.73.72-.75,1.15-.12.13a1.06,1.06,0,0,0-.09.13.26.26,0,0,0,0,.18l.07.11a.23.23,0,0,1,.06.12.3.3,0,0,1,0,.19c-.13.45-.29,1-.5,1.56s-.39,1.11-.55,1.54a.82.82,0,0,0,.14.23q.07.08.12-.06l-.1,1.2Z" style="fill:#423c25"/><path d="M37.09,32.84l-.2-.24a.83.83,0,0,0-.23-.22s-.06-.05-.22-.06a1.47,1.47,0,0,1-.31,0L36,32l-.12,0h-.14a1,1,0,0,0-.52.1,2.43,2.43,0,0,0-.44.4h-.37c-.06,0-.08,0-.06-.11a9.49,9.49,0,0,1,.37-1.77c.18-.63.35-1.2.51-1.73l.63-2.23a1.64,1.64,0,0,1,.12-.22,1.77,1.77,0,0,1,.17-.24,1.46,1.46,0,0,1-.81.33,5.66,5.66,0,0,0-.92.13c-.08.43-.17.86-.28,1.28s-.22.85-.35,1.26l-.74,2.55-.1.4a.54.54,0,0,0-.18.1.76.76,0,0,1-.13.1h-.12l-.38-.2H32a.35.35,0,0,0-.1.18.34.34,0,0,1-.12.21l-.25,0a.65.65,0,0,1-.28-.07s0,0,0-.07a.11.11,0,0,0-.06-.12v-.12a.45.45,0,0,0,0-.17h-.05c-.06,0-.12.05-.18.13l-.19.3a1,1,0,0,1-.28.3.64.64,0,0,1-.41.14l-.54-.23-.38-.16L29,32.34c0-.07.07-.16.11-.28l.13-.42.29-1q0-.24.09-.42c0-.12.06-.21.08-.27l.06-.27c0-.13,0-.26.07-.41s.05-.27.07-.39,0-.2,0-.23a1,1,0,0,1,0-.14,2.26,2.26,0,0,0,0-.27v-.41l0-.09a1.28,1.28,0,0,0,.12-.18c.07-.11.14-.21.21-.33l.2-.32a1.08,1.08,0,0,0,.12-.2l.05-.17c.19-.67.37-1.33.54-2s.34-1.28.5-1.92l.52-2c.18-.66.37-1.35.58-2.07l.24-.84a2.11,2.11,0,0,1,1-.46l.2.24a.83.83,0,0,0,.23.22s.08.05.24.06l.29,0,.12.27a.24.24,0,0,0,.13,0l.16,0a1,1,0,0,0,.51-.11,2.38,2.38,0,0,0,.45-.4h.34c.06,0,.08,0,.06.11a9.49,9.49,0,0,1-.37,1.77c-.18.63-.35,1.2-.49,1.73l-.65,2.23a.19.19,0,0,0,0,.1s0,0,0,0l0,0a6.73,6.73,0,0,0,.77-.09,6.76,6.76,0,0,1,.77-.1A17.94,17.94,0,0,1,37.32,21c.26-.83.52-1.67.78-2.53l.12-.41.17-.1.12-.09h.12L39,18h.12a1.64,1.64,0,0,1,.22-.18c.14-.11.24-.17.3-.21l.2.1s0,0,0,.07a.17.17,0,0,0,.05.12c0,.18,0,.27,0,.29H40c.06,0,.12,0,.18-.13s.12-.19.2-.3a2,2,0,0,1,.28-.3.6.6,0,0,1,.42-.13l.52.22.38.16c.12.05.18.08.18.1a2.07,2.07,0,0,0-.11.27l-.13.42-.29,1c0,.16-.06.3-.08.42a1.15,1.15,0,0,1-.09.28l-.06.26c0,.13,0,.26-.07.41s-.05.27-.07.39,0,.2,0,.23a1.14,1.14,0,0,1,0,.15,2.09,2.09,0,0,0,0,.26v.41l0,.09a.8.8,0,0,1-.2.24,1,1,0,0,0-.21.29l0,.17c-.42,1.46-.8,2.86-1.15,4.21s-.76,2.76-1.23,4.21l-.24.84A2,2,0,0,1,37.09,32.84Z" style="fill:#423c25"/><path d="M41.87,31.52l-.72.6a.62.62,0,0,0-.44.2.56.56,0,0,1-.43.21c-.13,0-.2-.08-.21-.23a.75.75,0,0,1,0-.35l0-.09.35-.92,0-.09,0-.1.31-1.85,2.24-7.24a5.44,5.44,0,0,1-.4-1.31,3,3,0,0,1,.08-1.43s.07-.08.21-.2a4.61,4.61,0,0,1,.46-.36l.45-.32c.14-.08.22-.11.25-.08l.65.79a.25.25,0,0,0,.24-.19c.05-.13.1-.27.15-.43a1.22,1.22,0,0,1,.2-.43.38.38,0,0,1,.32-.2h.15l.31,0,.31,0a23.34,23.34,0,0,1,1.73,4L48,22l.38-.46a2.08,2.08,0,0,1,.1-.24l.22-.49.24-.55a4.79,4.79,0,0,0,.17-.47s0-.11.09-.27a.58.58,0,0,1,.24-.31l.67-.31-.41-.31c-.08,0-.11-.13-.1-.3a2,2,0,0,1,.06-.45l.07-.19a.93.93,0,0,1,.39-.24q.3-.12.33,0l0,.1c0,.13,0,.21,0,.25a.81.81,0,0,1,.13.11,3.42,3.42,0,0,0,.65.06l1,.06a4.89,4.89,0,0,1,.87.15c.25.08.35.18.3.33a1.17,1.17,0,0,0,0,.11,1,1,0,0,1,0,.1c-.07.15-.17.4-.32.77l-.45,1.17-.46,1.16c-.14.37-.25.62-.31.77l-.39,2.11-2.18,7.58a1,1,0,0,1-.26.17l-.34.12a1,1,0,0,1-.29.07.34.34,0,0,1-.26-.15,3.17,3.17,0,0,1-.23-.36l-.19-.39a1,1,0,0,0-.13-.22l-.53.38-.15.46s-.06.06-.14.08a.93.93,0,0,1-.19,0,.84.84,0,0,1-.71-.35.92.92,0,0,1-.2-.71L45.88,28l-.17-1.59h-.1c-.18.63-.36,1.26-.56,1.9s-.39,1.27-.57,1.89l-.12.41c-.06.19-.13.38-.19.55a7.14,7.14,0,0,1-.29.68l-.07.06-.07,0h-.12a.68.68,0,0,1-.17-.09.22.22,0,0,0-.21.13q-.08.14-.15.3a1.46,1.46,0,0,1-.17.3.27.27,0,0,1-.24.13l0,0a1,1,0,0,0-.09-.33.55.55,0,0,0-.19-.23.41.41,0,0,0-.27.2c0,.09-.08.2-.12.31a1.34,1.34,0,0,1-.12.3c-.05.09-.15.13-.31.13s-.18-.07-.15-.22a2.51,2.51,0,0,1,.14-.49,5.05,5.05,0,0,1,.24-.53A.6.6,0,0,0,41.87,31.52Z" style="fill:#423c25"/><path d="M50.58,32.38l.24-.84c.35-1.45.7-2.88,1.06-4.28S52.61,24.43,53,23l0-.17c0-.08.06-.15.09-.22l.06-.17,0-.09a.75.75,0,0,1,.07-.15l.16-.26.16-.26a.75.75,0,0,0,.07-.15.81.81,0,0,1,.07-.23l.15-.39a3.93,3.93,0,0,1,.14-.41c0-.13.08-.22.09-.26a1.55,1.55,0,0,0,.12-.28,2.1,2.1,0,0,0,.12-.42l.15-.5.14-.51a3.1,3.1,0,0,0,.1-.42.74.74,0,0,1,.07-.27,1.07,1.07,0,0,1,.24-.1l.47-.16.68-.22a.37.37,0,0,1,.33.13.76.76,0,0,1,.1.3,1.71,1.71,0,0,1,0,.31q0,.12.09.12h.05a1.17,1.17,0,0,0,.22-.29.18.18,0,0,0,.09-.12c0-.05,0-.07.08-.07a.83.83,0,0,1,.31-.07l.24,0,.18.21.15.18h.12l.51-.19h.12a.45.45,0,0,1,.07.09.23.23,0,0,0,.12.1l-.12.41a31.27,31.27,0,0,1-1,3c-.38,1-.77,2-1.15,3a1.35,1.35,0,0,1-.34.5,1.29,1.29,0,0,0-.31.46,2.06,2.06,0,0,0-.06.7,5.25,5.25,0,0,1,0,.65l-.12.48-.39,1.32-.12.43c-.16.53-.32,1.1-.49,1.73a12.34,12.34,0,0,1-.63,1.77.19.19,0,0,1-.15.11h-.33a1.51,1.51,0,0,0-.23-.4.67.67,0,0,0-.45-.1H53l-.13,0-.26.27a1.47,1.47,0,0,1-.31,0q-.24,0-.27.06a.36.36,0,0,0-.15.08,1.64,1.64,0,0,0-.22.14l-.21.14-.14.1A1,1,0,0,1,50.58,32.38Z" style="fill:#423c25"/><path d="M67.87,23.42c0,.07,0,.12-.06.13l-.24.29a6.27,6.27,0,0,0-.37,1c-.09.32-.17.64-.25,1s-.21.65-.34,1a6.39,6.39,0,0,1-.5,1,.83.83,0,0,1-.1.21,2.33,2.33,0,0,1-.23.35l-.25.35-.17.24-.24.19a5.63,5.63,0,0,1,0,.58,1.74,1.74,0,0,1,0,.38,2.62,2.62,0,0,0,.1.84,2.36,2.36,0,0,1,.07.89.59.59,0,0,1,0,.14.14.14,0,0,1-.15.08L65,32,65,31.93l-.18.15a1.05,1.05,0,0,1-.2.16h0c-.08,0-.13,0-.15-.05a.42.42,0,0,1-.05-.17.54.54,0,0,0,0-.15s-.07-.05-.17,0-.38.1-.43.24a1.76,1.76,0,0,0,0,.27,1.33,1.33,0,0,1,0,.28.49.49,0,0,1-.13.27.49.49,0,0,1-.35.14.34.34,0,0,1-.3-.09,1,1,0,0,1-.21-.29,1.12,1.12,0,0,1-.12-.35,1.16,1.16,0,0,1,0-.28.35.35,0,0,1,0-.13,1.36,1.36,0,0,0-.06-.2l-.66.17-.68.13a4.56,4.56,0,0,1-.57.08l-.4,0a11,11,0,0,1-1.21-.05c-.25,0-.32-.22-.23-.55v-.05l-.56-.71a11.37,11.37,0,0,1-.66-.95,6.22,6.22,0,0,1-.51-1,1.43,1.43,0,0,1-.07-.9c0-.08.09-.23.18-.44s.15-.33.18-.38a.69.69,0,0,1,.33-.28.39.39,0,0,0,.25-.25c0-.09,0-.15-.11-.18a.4.4,0,0,1-.23-.13l0-.1a.37.37,0,0,0,0-.12.5.5,0,0,1,0-.12l.05-.16c0-.08.07-.17.1-.27l0,0c0-.06.08-.21.19-.45s.24-.5.36-.77l.36-.77a2.72,2.72,0,0,0,.2-.48l0-.05a4.05,4.05,0,0,0,.17-.75,3.68,3.68,0,0,1,.17-.73A1.55,1.55,0,0,1,59.3,21a1.85,1.85,0,0,1,.19-.27,1.52,1.52,0,0,1,.27-.22l.37-.3c.14-.12.25-.2.32-.27a.7.7,0,0,0,.17-.18,1.4,1.4,0,0,0,.13-.18,2.33,2.33,0,0,1,.27-.26l.69-.67a.45.45,0,0,1,.24-.11,2.15,2.15,0,0,1,.34-.05,1.42,1.42,0,0,0,.31-.06.23.23,0,0,0,.17-.17c0-.06.09-.12.22-.17l.42-.13.4-.12a.34.34,0,0,0,.23-.18c0-.17.22-.26.51-.26a3.27,3.27,0,0,1,1.34.25,4.48,4.48,0,0,1,1.06.66.65.65,0,0,1,.09.26,2.16,2.16,0,0,0,.07.27c.1.14.18.27.26.37s.13.2.19.3a2.37,2.37,0,0,1,.14.32,3,3,0,0,1,.11.47,1.85,1.85,0,0,0,0,.28c0,.13.06.27.08.42s0,.28.09.42a1.37,1.37,0,0,1,0,.3,1.16,1.16,0,0,0-.12.74,1.9,1.9,0,0,1,0,.79A.91.91,0,0,0,67.87,23.42Zm-4.79,3c0,.09,0,.11.07.06l.29-.23c.08-.43.15-.87.21-1.31a8,8,0,0,1,.27-1.33,1.66,1.66,0,0,1,.27-.53,2.26,2.26,0,0,0,.28-.53l0-.14L64.26,21l-.21-.2s0,0,0,0-.09.09-.21.13a3.22,3.22,0,0,0-.42.16,1.61,1.61,0,0,0-.44.25.77.77,0,0,0-.27.39v.05a.1.1,0,0,0,0,.09.13.13,0,0,1,0,.08l0,0s0,.11,0,.27,0,.26,0,.28-.14.38-.28.71a5.92,5.92,0,0,1-.4.8,2.62,2.62,0,0,1-.42.95c-.21.33-.41.65-.58,1a3.26,3.26,0,0,0-.36.85.54.54,0,0,0,.26.63l.07,1.17c.07.07.07.19,0,.36a.79.79,0,0,0-.05.36.49.49,0,0,1,.14.24.25.25,0,0,0,.24.19c.08,0,.23-.14.46-.43,0-.19,0-.25,0-.17a.43.43,0,0,0,0-.1c0-.06,0-.13,0-.21l.21-2.73Z" style="fill:#423c25"/><path d="M69.33,21.3a4.24,4.24,0,0,0,.18-.46l0-.17.87-2.21a1,1,0,0,0,.26-.25,2.53,2.53,0,0,1,.22-.26,2,2,0,0,1,.3-.27,1.76,1.76,0,0,1,.51-.22c0,.19-.06.34-.08.44a1.66,1.66,0,0,0,0,.26c0,.08,0,.09.06,0l.6-.67.12.45.22-.55a2.32,2.32,0,0,1,.26.21A.42.42,0,0,1,73,18l0,.34.65-.68h.12l.18.27a.69.69,0,0,1,.13.29c-.08.43-.16.81-.24,1.15s-.18.69-.29,1.08q-.4,1.36-.9,2.67c-.33.88-.67,1.77-1,2.68a.37.37,0,0,1,.07.29,2,2,0,0,1-.1.36,3.08,3.08,0,0,1-.16.38.93.93,0,0,0-.12.34l0,.17.21,1.63a.65.65,0,0,0,0,.32.27.27,0,0,0,.27.18l0-.05s0-.07,0-.07l-.08-.09,0,0c0-.07.09-.12.23-.17l.44-.17a2.37,2.37,0,0,0,.47-.25.81.81,0,0,0,.32-.44v-.08a.15.15,0,0,0,0-.09.12.12,0,0,1,0-.1v-.05a.61.61,0,0,1,.09-.14l.21-.26.2-.27a.5.5,0,0,0,.1-.14,2.81,2.81,0,0,0,.09-.64,1.68,1.68,0,0,1,.22-.71,6,6,0,0,1,.17-.64,1.86,1.86,0,0,1,.29-.58L75,21.9l.32.16,0-.52a.88.88,0,0,1,.1-.23l.22-.48c.09-.19.18-.37.26-.57a3,3,0,0,0,.16-.48s.08-.15.15-.4l.33-1.16a1.43,1.43,0,0,0,.1-.45,1.12,1.12,0,0,1,.37-.22,4.39,4.39,0,0,1,.45-.14c.09,0,.16.06.21.23a1.24,1.24,0,0,0,.12.3,1.51,1.51,0,0,0,.58,0,5.7,5.7,0,0,1,.84-.08,2.33,2.33,0,0,1,.77.09.59.59,0,0,1,.38.54.17.17,0,0,1,0,.11l-.06.11-.31.77-.45,1.16c-.16.41-.32.8-.46,1.17s-.25.62-.31.76l-.27,1.37-.45-.19.31.94q-.33.77-.66,1.47t-.66,1.38c0,.16-.06.32-.08.47a4.52,4.52,0,0,1-.11.47,2.08,2.08,0,0,1-.16.45.88.88,0,0,1-.2.29,2.32,2.32,0,0,1-.28.24l-.39.31a15.16,15.16,0,0,1-1.08,1.66c-.31.38-.48.54-.53.46H74l-.12.45a.31.31,0,0,1-.16.09l-.2,0s-.08,0-.09-.12,0-.17,0-.27,0-.21,0-.3,0-.16-.06-.17a.68.68,0,0,1-.06.15l-.12.28-.12.28a.68.68,0,0,0-.06.15c0,.11-.16.15-.39.1a2.7,2.7,0,0,0-.6-.07.2.2,0,0,0-.21.12c0,.22-.23.33-.53.33a4,4,0,0,1-2-.55l-.07.24,0-.26a1.89,1.89,0,0,1-.53-.44.57.57,0,0,1-.08-.28.63.63,0,0,0-.08-.29c-.12-.16-.21-.3-.29-.42s-.15-.24-.21-.35a3.18,3.18,0,0,1-.14-.37,3.85,3.85,0,0,1-.11-.52,2.55,2.55,0,0,0,0-.31c0-.14,0-.3-.08-.47s0-.32-.07-.47a2.39,2.39,0,0,1,0-.31,3.83,3.83,0,0,0,.52-.26c.07-.05.08-.09,0-.11l-.23-.06a.33.33,0,0,1-.23-.14s0-.09,0-.17a.75.75,0,0,0,.07-.15c.08-.32.14-.56.19-.74a3,3,0,0,0,.13-.52,2,2,0,0,0,0-.25,7.63,7.63,0,0,0,.41-1.08c.09-.35.2-.71.31-1.08l.48-2S69.26,21.47,69.33,21.3Z" style="fill:#423c25"/><path d="M78,30.39a7,7,0,0,1,.47-1.15A6.19,6.19,0,0,0,79,28.09a19.77,19.77,0,0,0,.52-2.26A19.53,19.53,0,0,1,80,23.58a9.83,9.83,0,0,1,.53-1.32A8.33,8.33,0,0,0,81,21l0-.1.09-.26v-.07c0-.08-.09-.14-.22-.17a.81.81,0,0,0-.38,0l-.4-.46s0,0,0-.09l.42-.51c.1-.12.2-.24.3-.34a1.38,1.38,0,0,0,.16-.21l.46-.09.17,0-.23-.17a.75.75,0,0,0-.4-.14.08.08,0,0,1,0-.07.73.73,0,0,1,.38-.4,3,3,0,0,1,.7-.24A7.76,7.76,0,0,1,83,17.5l.78,0h.45c.55,0,1.08,0,1.6.06s1,.06,1.59.06a2,2,0,0,0,.5-.06,1.88,1.88,0,0,1,.49-.06l0,.19c0,.13-.08.19-.1.19a1,1,0,0,1-.15.23l-.16.23-.07.19-.55.31.38.32-.05.19a1.27,1.27,0,0,1-.43.48,3.75,3.75,0,0,1-.69.36l-.76.24a5.81,5.81,0,0,1-.61.12l-.12.09a.38.38,0,0,0-.07.2l-.12.4a3.88,3.88,0,0,1-.14.45c0,.15-.1.27-.13.37l0,.1a.3.3,0,0,0,0,.16.16.16,0,0,1-.09.15l-.46.24.39,0s.05,0,0,.12a1.47,1.47,0,0,1-.1.22l0,.09c0,.07,0,.1,0,.1h.12a4.33,4.33,0,0,0,.93-.1,5,5,0,0,1,.92-.09c.17,0,.29.05.34.17a.54.54,0,0,1,0,.38.6.6,0,0,1-.27.29c-.16.09-.33.19-.51.27l-.49.24q-.22.12-.24.18s0,.06.15.09a1.67,1.67,0,0,1,.34.11.87.87,0,0,1,.31.18c.09.07.1.18,0,.32a1.06,1.06,0,0,1-.46.56,1.89,1.89,0,0,1-.63.22l-.7.1a1.74,1.74,0,0,0-.66.2,1.4,1.4,0,0,0-.17.3c-.08.17-.15.36-.23.58s-.14.41-.2.6-.1.3-.12.34v0c0,.09,0,.21,0,.33a2.63,2.63,0,0,1-.06.39q0,.2-.06.45h1.78a.22.22,0,0,1,.18.06.24.24,0,0,1,0,.15q0,.07,0,.18a.25.25,0,0,0,0,.17.17.17,0,0,0,.09.13l.2.13a.62.62,0,0,1,.15.2.47.47,0,0,1,0,.35.45.45,0,0,1-.29.3,3.52,3.52,0,0,1-.52.19l-.51.18a.46.46,0,0,0-.29.27l.17.26,0,.07a.39.39,0,0,1-.27.32,4.84,4.84,0,0,1-.54.07,11.85,11.85,0,0,0-1.25.14,2.29,2.29,0,0,1-1,0l-.72-.19-.33.19a.5.5,0,0,1-.35,0,2.17,2.17,0,0,0-.4,0h-.26a1.14,1.14,0,0,1-.57-.93A4.29,4.29,0,0,1,78,30.39Z" style="fill:#423c25"/><path d="M85.38,31.64v-.05c0-.05.08-.08.19-.11l.35-.07.47-.08s0-.07,0-.16-.08-.17-.13-.26a3.57,3.57,0,0,0-.22-.35l1.47,0s0-.09-.12-.14a1.25,1.25,0,0,0-.29-.1l-.55-.12c-.15,0-.28-.1-.39-.31,0,0,.06-.07.09-.15a2,2,0,0,1,.08-.26,1,1,0,0,1,.13-.22.25.25,0,0,1,.21-.11,1.15,1.15,0,0,1,.58.2,1.42,1.42,0,0,0,.78.21,1.34,1.34,0,0,0,.63-.16,1.89,1.89,0,0,0,.5-.38,2.29,2.29,0,0,0,.37-.51,2.09,2.09,0,0,0,.23-.54.33.33,0,0,1,.22-.17c.11,0,.16-.08.14-.16l-.15-.18-.29-.34a3.84,3.84,0,0,1-.28-.34.51.51,0,0,1-.12-.2,1.51,1.51,0,0,0-.08-.31c-.06-.16-.11-.34-.17-.53s-.11-.37-.17-.53a1.66,1.66,0,0,1-.08-.29l-.33-.75a3.47,3.47,0,0,1-.19-.6,2.24,2.24,0,0,1,0-.69,5.8,5.8,0,0,1,.24-1,8.86,8.86,0,0,1,.8-1.92,4.88,4.88,0,0,1,1.25-1.42,5.55,5.55,0,0,1,1.81-.88,9.15,9.15,0,0,1,2.48-.3h.07s0,0-.07.1a2.49,2.49,0,0,0-.22.23l-.22.23c-.06.06-.08.09-.07.09a.62.62,0,0,0,.18-.07,3,3,0,0,1,.36-.14l.37-.15a.78.78,0,0,1,.22-.07,1.22,1.22,0,0,1,.41.06c.11,0,.14.15.09.32a.37.37,0,0,1-.14.21.69.69,0,0,1-.23.09l-.25.08a.31.31,0,0,0-.19.13.59.59,0,0,1-.15.15l-.31.28-.41.36,1.61-.65s0,.06,0,.18a3.32,3.32,0,0,1,0,.41c0,.15,0,.3-.08.44a1.36,1.36,0,0,1-.06.29.64.64,0,0,1-.4.42,3.74,3.74,0,0,1-.68.25l-.3.08-.42.1-.4.11-.29.07c-.21.12-.32.24-.34.36a.9.9,0,0,0,0,.38c0,.16,0,.34.08.51s.07.35.1.52a2.55,2.55,0,0,1,0,.35l-.48.67a1.73,1.73,0,0,0,.3-.1.49.49,0,0,1,.18-.05c.17,0,.32.14.43.41s.15.46.25.81A10,10,0,0,1,94,26q.12.6.18,1.17a2.44,2.44,0,0,1,0,.92l0,.05a5.75,5.75,0,0,0-.69,1.07,4.75,4.75,0,0,1-.7,1c0,.06-.14.17-.28.32l-.42.48c-.14.17-.29.33-.43.47a3.53,3.53,0,0,1-.34.31,1.76,1.76,0,0,1-.79.36,8.1,8.1,0,0,1-1.19.23q-.63.09-1.23.12c-.4,0-.71,0-.92,0a3.07,3.07,0,0,1-.5-.07,4.35,4.35,0,0,1-.61-.2,2.43,2.43,0,0,1-.51-.27A.34.34,0,0,1,85.38,31.64Z" style="fill:#423c25"/><path d="M21,60l-.84.7a.5.5,0,0,0-.27.07,1.77,1.77,0,0,0-.24.17l-.24.17a.56.56,0,0,1-.26.07c-.16,0-.25-.09-.26-.27a1,1,0,0,1,0-.4l.05-.1.43-1.06.05-.12,0-.09L19.79,57l2.54-8.33a8.13,8.13,0,0,1-.41-1.5A3.79,3.79,0,0,1,22,45.56a1.08,1.08,0,0,1,.25-.24l.49-.41a4.9,4.9,0,0,1,.52-.36c.16-.09.26-.13.3-.09l.74.91c.13,0,.22-.08.29-.23s.12-.32.17-.49a3.14,3.14,0,0,1,.21-.49.4.4,0,0,1,.39-.23h.14l.36,0,.38,0a22.59,22.59,0,0,1,1.12,2.26c.33.76.62,1.54.88,2.32l-.2.53.44-.53a2.18,2.18,0,0,1,.1-.27c.08-.17.16-.36.25-.57s.19-.42.28-.63a3.37,3.37,0,0,0,.18-.54c.05,0,.1-.11.15-.29a.48.48,0,0,1,.26-.36l.86-.34L30,45.2c-.13-.05-.19-.16-.18-.35a1.7,1.7,0,0,1,.08-.51l.07-.22a.84.84,0,0,1,.18-.13,1.51,1.51,0,0,1,.28-.15.49.49,0,0,1,.26,0c.08,0,.12.06.12.15s0,.26,0,.3l.14.11a4.21,4.21,0,0,0,.74.07l1.13.07a6.15,6.15,0,0,1,1,.18c.29.09.41.22.36.38a.22.22,0,0,1-.06.12.17.17,0,0,0-.06.12c-.06.17-.18.47-.35.88l-.53,1.34-.52,1.34-.35.88-.48,2.44-2.5,8.72a.91.91,0,0,1-.29.19,1.54,1.54,0,0,1-.38.14,1.6,1.6,0,0,1-.36.07.39.39,0,0,1-.31-.18,1.8,1.8,0,0,1-.25-.4c-.08-.16-.15-.3-.21-.45a1,1,0,0,0-.14-.26l-.63.45L26.7,61a.31.31,0,0,1-.17.09l-.24,0a.93.93,0,0,1-.79-.39,1.24,1.24,0,0,1-.26-.81L25.57,56l-.21-1.82h-.08c-.2.72-.42,1.44-.66,2.17s-.46,1.45-.68,2.17l-.12.48-.23.64q-.11.3-.3.78l-.11.06-.08,0H23a1,1,0,0,1-.17-.1.27.27,0,0,0-.24.16l-.18.33a3.72,3.72,0,0,1-.19.34.32.32,0,0,1-.28.15.08.08,0,0,1-.07,0,2.29,2.29,0,0,0-.12-.37.6.6,0,0,0-.24-.28.48.48,0,0,0-.27.23,1.6,1.6,0,0,0-.14.35,1.33,1.33,0,0,1-.13.35c-.05.1-.17.15-.35.15s-.2-.08-.19-.25a1.92,1.92,0,0,1,.16-.56q.13-.32.27-.6A1.16,1.16,0,0,0,21,60Z" style="fill:#423c25"/><path d="M30.8,61.18l.24-.84c.35-1.45.71-2.88,1.06-4.28s.73-2.83,1.15-4.28l0-.17c0-.08.06-.15.08-.22a.7.7,0,0,0,.06-.17l0-.09a.41.41,0,0,1,.07-.15l.16-.26a3,3,0,0,1,.15-.26.41.41,0,0,0,.07-.15,1,1,0,0,1,.08-.23l.14-.39c0-.15.1-.28.14-.41s.08-.22.1-.26l.12-.28a2.1,2.1,0,0,0,.12-.42l.14-.5.15-.51a2,2,0,0,0,.09-.42.32.32,0,0,1,.32-.37l.46-.16.69-.22c.16,0,.27,0,.32.13a.77.77,0,0,1,.11.3,1.67,1.67,0,0,1,0,.31c0,.08,0,.12.1.12h0a1.28,1.28,0,0,0,.21-.29.23.23,0,0,0,.1-.12c0-.05,0-.07.07-.07a.89.89,0,0,1,.31-.07l.24,0,.18.21.16.18h.12l.5-.19h.12s0,0,.08.09a.23.23,0,0,0,.12.1l-.12.41c-.29,1-.63,2-1,3s-.77,2-1.15,3a1.48,1.48,0,0,1-.34.5,1.17,1.17,0,0,0-.31.46,1.66,1.66,0,0,0-.06.7c0,.24,0,.46,0,.65l-.12.48-.38,1.32-.12.43c-.16.53-.32,1.1-.49,1.73a11.26,11.26,0,0,1-.64,1.77.17.17,0,0,1-.14.11h-.34a1.27,1.27,0,0,0-.23-.4.66.66,0,0,0-.44-.1h-.18l-.13,0-.27.27a1.47,1.47,0,0,1-.31,0c-.16,0-.25,0-.26.06a.38.38,0,0,0-.16.08l-.21.14-.22.14a.64.64,0,0,0-.13.1A1.06,1.06,0,0,1,30.8,61.18Z" style="fill:#423c25"/><path d="M38.75,60.32l-.72.6a.62.62,0,0,0-.44.2.56.56,0,0,1-.43.21c-.13,0-.2-.08-.21-.23a.75.75,0,0,1,0-.35l0-.09.35-.92,0-.09,0-.1.31-1.85L40,50.46a5.44,5.44,0,0,1-.4-1.31,3,3,0,0,1,.08-1.43s.07-.08.21-.2.29-.24.45-.36l.46-.32c.14-.08.22-.11.25-.08l.65.79a.25.25,0,0,0,.24-.19c0-.13.1-.27.15-.43a1.22,1.22,0,0,1,.2-.43.38.38,0,0,1,.32-.2h.15l.31,0,.31,0a23.34,23.34,0,0,1,1.73,4l-.17.46.38-.46a2.08,2.08,0,0,1,.1-.24l.22-.49.24-.55a4.79,4.79,0,0,0,.17-.47l.09-.27a.58.58,0,0,1,.24-.31l.67-.31-.41-.31c-.08,0-.11-.13-.1-.3a2,2,0,0,1,.06-.45l.07-.19a.93.93,0,0,1,.39-.24q.3-.12.33,0l0,.1c0,.13,0,.21,0,.25a.81.81,0,0,1,.13.11,3.42,3.42,0,0,0,.65.06l1,.06A4.89,4.89,0,0,1,50,47c.25.08.35.18.3.33a1.17,1.17,0,0,0,0,.11,1,1,0,0,1,0,.1c-.07.15-.17.4-.32.77l-.45,1.17L49,50.6c-.14.37-.25.62-.31.77l-.39,2.11-2.18,7.58a1,1,0,0,1-.26.17l-.34.12a1,1,0,0,1-.29.07.34.34,0,0,1-.26-.15,3.17,3.17,0,0,1-.23-.36l-.19-.39a1,1,0,0,0-.13-.22l-.53.38-.15.46s-.06.06-.14.08a.93.93,0,0,1-.19,0,.84.84,0,0,1-.71-.35.92.92,0,0,1-.2-.71l.28-3.38-.16-1.59h-.1c-.18.63-.36,1.26-.56,1.9s-.39,1.27-.57,1.89l-.12.41c-.06.19-.13.38-.19.55a7.14,7.14,0,0,1-.29.68l-.07.06-.07,0H40.5a.68.68,0,0,1-.17-.09.22.22,0,0,0-.21.13l-.15.3a1.46,1.46,0,0,1-.17.3.27.27,0,0,1-.24.13l-.05,0a1,1,0,0,0-.09-.33.55.55,0,0,0-.19-.23.41.41,0,0,0-.27.2c0,.09-.08.2-.12.31a1.34,1.34,0,0,1-.12.3c0,.09-.15.13-.31.13s-.18-.07-.16-.22a3.68,3.68,0,0,1,.15-.49,5.05,5.05,0,0,1,.24-.53A.6.6,0,0,0,38.75,60.32Z" style="fill:#423c25"/><path d="M59.77,50.24l-.53,1.7c-.11.37-.22.73-.32,1.08a5.88,5.88,0,0,0-.21,1.08,1.69,1.69,0,0,1-.07.26c0,.15-.1.32-.17.51a5.24,5.24,0,0,1-.26.75,1.13,1.13,0,0,0,0,.14.21.21,0,0,1,0,.17.61.61,0,0,1-.33.14l-.27.06c-.07,0-.08.06-.05.11a1.29,1.29,0,0,0,.38.26l-.23.32-.33.46c-.12.17-.23.33-.34.47a3.54,3.54,0,0,1-.23.31,5.39,5.39,0,0,1-.39.52A4.3,4.3,0,0,1,56,59l-.41.35-.53.42-.23.29a1.8,1.8,0,0,1-.25.29l-1,.64a4.12,4.12,0,0,1-1.17.32c-.36,0-.73,0-1.11,0S51,61.19,51,61s0-.12-.14-.12l-.3,0-.34.05a.52.52,0,0,1-.25,0c-.07,0-.09-.05-.07-.1a.69.69,0,0,1,0-.15c0-.09,0-.18,0-.28a2.16,2.16,0,0,1,.05-.27c0-.09,0-.14,0-.16a.38.38,0,0,0-.16.17c0,.09-.12.19-.19.3l-.19.27c-.06.08-.11.12-.16.12l-.16,0c-.08,0-.12,0-.12-.09l.14-.45H49c-.1.08-.18-.07-.26-.46a9.89,9.89,0,0,1-.15-1.65l-.2-.32a.94.94,0,0,1-.13-.24.5.5,0,0,1,0-.28,1.75,1.75,0,0,1,.11-.46,2.54,2.54,0,0,1,.14-.47c.07-.15.13-.31.19-.47a4.73,4.73,0,0,1,.29-1,1.89,1.89,0,0,1,.39-.59,1.59,1.59,0,0,1,.44-.32l.47-.2a2.53,2.53,0,0,1,2.3.28,1.28,1.28,0,0,1-.17.71,6,6,0,0,0-.28.64.49.49,0,0,0,0,.13c0,.07.07.16.11.25l.1.25a.87.87,0,0,1,0,.14v0a1,1,0,0,1,0,.1.31.31,0,0,0-.05.1l0,.07a.52.52,0,0,0,.06.44.9.9,0,0,0,.33.25l.35.17c.1,0,.14.11.13.17s0,0-.07,0l-.12.09s-.06,0-.08.08v0a.54.54,0,0,0,.38-.18,1.28,1.28,0,0,0,.25-.32l1.13-1.63,0-.17a3.07,3.07,0,0,0,.14-.71.89.89,0,0,1,.34-.66c.15-.89.28-1.74.41-2.53a21.59,21.59,0,0,1,.6-2.56,12.39,12.39,0,0,0,.29-1.23,7.73,7.73,0,0,1,.36-1.31.39.39,0,0,1,.35-.13.51.51,0,0,0,.37-.11h.1v1.46l.48-1.12a.65.65,0,0,1,.27-.34l.4-.19-.1.55.39-.46.21.68s0,0,.06,0a1.55,1.55,0,0,0,.12-.28c0-.11.1-.25.18-.43a2.61,2.61,0,0,0,.42.13l.25,0a.48.48,0,0,1,.18.06.92.92,0,0,1,.21.17l-.75,2.81,0,.17a3.56,3.56,0,0,0-.09.45C59.76,50.13,59.75,50.22,59.77,50.24Z" style="fill:#423c25"/><path d="M58.47,60.37h-.09l-.12.09L58,61.4s0,0,0,0a.12.12,0,0,0-.1.06h-.07c-.1,0-.16-.08-.19-.24s0-.27,0-.32,0-.15.06-.27.06-.25.1-.4.07-.25.11-.37l.09-.25a.22.22,0,0,1-.08-.15l.05-.16,0-.15.24-.74c.11-.34.24-.71.4-1.13L59.09,56q.24-.69.48-1.32l.4-1.13c.12-.33.21-.58.26-.74.2-.37.43-.74.67-1.11a8.08,8.08,0,0,0,.62-1.1l1.14-2.33A15.4,15.4,0,0,1,64.07,46c0-.05.11,0,.19.07s.16.22.25.35l.25.39c.08.12.14.18.17.18s.1-.06.16-.18.1-.25.15-.39.1-.26.15-.37.08-.16.12-.14h2.2l.48-.17s.08,0,.1.06a.9.9,0,0,1,0,.19,1.23,1.23,0,0,0,0,.2c0,.07,0,.1.06.1a.66.66,0,0,0,.25,0,1.36,1.36,0,0,1,.29,0,.5.5,0,0,1,.22.1.24.24,0,0,1,0,.24l-.67,2.3a1.75,1.75,0,0,0,0,.54,5.16,5.16,0,0,0,.09.52c0,.18.07.35.1.52a1.87,1.87,0,0,1,0,.54c0,.19-.13.52-.23,1s-.21,1-.32,1.5-.22,1-.33,1.5-.18.81-.23,1l0,.09a17.85,17.85,0,0,1-.29,2.3c-.14.76-.33,1.53-.55,2.31a2.25,2.25,0,0,1-.64-.09,1.89,1.89,0,0,0-.63-.1.21.21,0,0,0-.18.1c-.06.06-.11.13-.17.2l-.18.2a.28.28,0,0,1-.22.1c-.08,0-.11-.06-.09-.17a3.12,3.12,0,0,1,.06-.37c0-.14,0-.26.06-.37s0-.17-.07-.17-.06,0-.11.11-.11.15-.17.23l-.25.33s-.07.13-.17.28a.83.83,0,0,1-.24.27s0,.07-.12.1v0h0c-.24,0-.36-.15-.37-.46a5.56,5.56,0,0,1,.08-1c.07-.37.12-.72.17-1s0-.47-.12-.47h-.67a.62.62,0,0,0-.55.22l-.34,1.15-.31,1.15a2.87,2.87,0,0,1-.18.42,1.39,1.39,0,0,1-.16.3l-.14.1H59.22l-.43-.46-.22-.09a.28.28,0,0,1,0-.21,1.54,1.54,0,0,1,.07-.27.59.59,0,0,0,0-.25C58.65,60.4,58.59,60.37,58.47,60.37Zm4.73-5.23s0,.09-.07.19a.12.12,0,0,0,.1.17,5.68,5.68,0,0,0,.67-.12.64.64,0,0,0,.48-.41.24.24,0,0,1,.08-.1.38.38,0,0,0,.09-.09,2.83,2.83,0,0,1,0-.41c0-.19.07-.4.1-.61s.07-.42.11-.62a1.9,1.9,0,0,1,.11-.4.92.92,0,0,1,0-.2c0-.09,0-.19,0-.28A1.26,1.26,0,0,0,65,52q0-.12-.06-.12c-.14,0-.31.16-.49.48a11.79,11.79,0,0,0-.55,1.07c-.19.39-.34.76-.47,1.1S63.22,55.07,63.2,55.14Z" style="fill:#423c25"/><path d="M67.4,60.44v0s.08-.08.19-.11l.35-.07.47-.08s0-.07,0-.16l-.14-.26c0-.09-.12-.21-.21-.35l1.46,0s0-.09-.12-.14a1.11,1.11,0,0,0-.29-.1L68.53,59c-.14,0-.27-.1-.38-.31,0,0,.06-.07.08-.15a2,2,0,0,1,.08-.26,1,1,0,0,1,.14-.22.22.22,0,0,1,.2-.11,1.18,1.18,0,0,1,.59.2,1.4,1.4,0,0,0,.78.21,1.33,1.33,0,0,0,.62-.16,2.12,2.12,0,0,0,.51-.38,3.17,3.17,0,0,0,.37-.51,2.5,2.5,0,0,0,.23-.54.31.31,0,0,1,.21-.17c.11,0,.16-.08.15-.16L72,56.28l-.29-.34-.27-.34a.51.51,0,0,1-.12-.2,1.19,1.19,0,0,0-.09-.31L71,54.56c-.05-.19-.11-.37-.16-.53a1.27,1.27,0,0,1-.09-.29c-.13-.3-.23-.55-.32-.75a2.78,2.78,0,0,1-.19-.6,2.22,2.22,0,0,1,0-.69,8.58,8.58,0,0,1,.24-1,8.4,8.4,0,0,1,.81-1.92,4.74,4.74,0,0,1,1.25-1.42,5.36,5.36,0,0,1,1.81-.88,9.08,9.08,0,0,1,2.47-.3h.07s0,0-.07.1l-.22.23-.21.23c-.07.06-.09.09-.07.09l.18-.07a2.08,2.08,0,0,1,.36-.14l.37-.15a.67.67,0,0,1,.21-.07,1.22,1.22,0,0,1,.41.06c.11,0,.15.15.1.32a.34.34,0,0,1-.15.21.73.73,0,0,1-.22.09l-.26.08a.31.31,0,0,0-.19.13.46.46,0,0,1-.14.15l-.31.28-.41.36,1.61-.65s0,.06,0,.18,0,.26,0,.41,0,.3-.07.44l-.06.29a.68.68,0,0,1-.41.42,3.65,3.65,0,0,1-.67.25l-.3.08-.42.1-.41.11-.29.07c-.2.12-.32.24-.33.36a.74.74,0,0,0,0,.38c0,.16.06.34.09.51s.06.35.1.52a2.14,2.14,0,0,1,0,.35l-.48.67a1.73,1.73,0,0,0,.3-.1.55.55,0,0,1,.18,0c.18,0,.32.14.43.41s.15.46.26.81.19.71.27,1.11.14.79.18,1.17a2.7,2.7,0,0,1,0,.92l0,0A5.23,5.23,0,0,0,75.48,58a4.79,4.79,0,0,1-.71,1l-.27.32-.42.48c-.15.17-.29.33-.44.47a2.71,2.71,0,0,1-.33.31,1.81,1.81,0,0,1-.8.36,8,8,0,0,1-1.18.23c-.43.06-.84.1-1.24.12s-.7,0-.91,0a3,3,0,0,1-.51-.07,4.82,4.82,0,0,1-.61-.2,2.12,2.12,0,0,1-.5-.27A.33.33,0,0,1,67.4,60.44Z" style="fill:#423c25"/><rect width="125" height="80" style="fill:none;stroke:#423c25;stroke-miterlimit:10;stroke-width:2px"/></g></svg>