<svg id="bb3d5078-c655-4545-9622-acb948decd71" data-name="icon vecto" xmlns="http://www.w3.org/2000/svg" width="125" height="80" viewBox="0 0 125 80"><title>vierge_1</title><g id="fbcd3ce3-2fa4-40b5-a2d7-c08796e5b003" data-name="vierge - copie"><rect x="-0.27" y="0.18" width="125" height="80" style="fill:#fff"/><path d="M128.7,18.8l-7.4-.37a.08.08,0,0,1-.08-.06,0,0,0,0,1,0-.05l1.3-4.15,0,0h0Z" style="fill:#423c25"/><path d="M124.06,2.29l-2.92,5.55a.23.23,0,0,1-.2.11.23.23,0,0,1-.15,0l-3.17-2.6a.11.11,0,0,1,0-.15.1.1,0,0,1,0,0Z" style="fill:#423c25"/><path d="M122.57,14.16h0v0a2.72,2.72,0,0,0,1.51-1l10.71,7.68-13.4-.64a2.75,2.75,0,0,0-.2-1.76l0,0a.08.08,0,0,0,.08.06l7.4.37Z" style="fill:#fff"/><path d="M117.64,5.11a.1.1,0,0,0,0,0l-.1,0a2.6,2.6,0,0,0-.14-1.81l12-6.22L122.59,8.71a2.84,2.84,0,0,0-1.65-.64V8a.23.23,0,0,0,.2-.11l2.92-5.55Z" style="fill:#fff"/><path d="M116.49,22.49a.09.09,0,0,1,.06.11l-.23,7.55-4-6.33a.17.17,0,0,1,0-.15.19.19,0,0,1,.12-.11l4-1.08A.14.14,0,0,1,116.49,22.49Z" style="fill:#423c25"/><path d="M113.42,12.12a2.32,2.32,0,1,1-3.27.29A2.31,2.31,0,0,1,113.42,12.12Z" style="fill:#fff"/><path d="M112.31,23.82l4,6.33.23-7.55a.09.09,0,0,0-.06-.11l.05-.07a2.75,2.75,0,0,0,1.33.51V36.64l-7.2-11.32a2.64,2.64,0,0,0,1.46-1.54.69.69,0,0,0,0-.13l.13,0A.17.17,0,0,0,112.31,23.82Z" style="fill:#fff"/><path d="M111.39,3.12a.12.12,0,0,1,0,.14.15.15,0,0,1-.11.12l-3.74,1.17a.17.17,0,0,1-.2-.08.22.22,0,0,1,0-.08l.73-7.26Z" style="fill:#423c25"/><path d="M111.39,3.12l-3.32-6-.73,7.26a.22.22,0,0,0,0,.08l-.09.1a2.78,2.78,0,0,0-1.77-.73l.94-13.49L113,2.05a2.63,2.63,0,0,0-1.47,1.27l-.11-.06A.12.12,0,0,0,111.39,3.12Z" style="fill:#fff"/><path d="M106.26,21.5a.09.09,0,0,1,0,.11l0,0L99.3,25.51l3.64-6.12a.17.17,0,0,1,.14-.08.11.11,0,0,1,.08,0Z" style="fill:#423c25"/><path d="M106.17,22.08a2.63,2.63,0,0,0,.35,1.88L94.43,30.07l6.91-11.49a2.77,2.77,0,0,0,1.74.65v.08a.17.17,0,0,0-.14.08L99.3,25.51l6.94-3.87,0,0,.07,0A1.51,1.51,0,0,0,106.17,22.08Z" style="fill:#fff"/><path d="M103,9.07c1,.77,2.54.39,3.45-.21.1-.07,2-1.34,1.49-3.12a2.47,2.47,0,0,0-.67-1.17l.09-.1a.17.17,0,0,0,.2.08l3.74-1.17a.15.15,0,0,0,.11-.12l.11.06a1.08,1.08,0,0,0-.08.19c-.41,1.28.75,2.6,1.76,3.15.12.06,2.11,1.09,3.46-.16a2.93,2.93,0,0,0,.84-1.37l.1,0a.11.11,0,0,0,0,.15l3.17,2.6a.23.23,0,0,0,.15,0v.12a2,2,0,0,0-.4,0c-1.31.3-1.86,2-1.81,3.13,0,.13.14,2.37,1.9,2.89a3.58,3.58,0,0,0,1.92,0v0l0,0-1.3,4.15a0,0,0,0,0,0,.05l0,0a1.66,1.66,0,0,0-.22-.32c-.87-1-2.6-.75-3.61-.17-.11.06-2,1.21-1.69,3a2.32,2.32,0,0,0,.89,1.49l-.05.07a.14.14,0,0,0-.09,0l-4,1.08a.19.19,0,0,0-.12.11l-.13,0c.23-1.26-1-2.45-2-2.91-.12-.06-2.17-1-3.44.35a2.19,2.19,0,0,0-.4.55l-.07,0a.09.09,0,0,0,0-.11l-3.1-2.16a.11.11,0,0,0-.08,0v-.08l.3,0c1.31-.29,1.88-1.94,1.85-3.1,0-.13-.09-2.38-1.85-2.92a2.86,2.86,0,0,0-1.56,0l0-.08a.19.19,0,0,0,.1-.1L103,9.34a.16.16,0,0,0-.09-.18Zm10.73,6.31a2.32,2.32,0,1,0-3.28.3A2.31,2.31,0,0,0,113.72,15.38Z" style="fill:#423c25"/><path d="M101.67,13l-6.5-4,7.7.15h.06a.16.16,0,0,1,.09.18L101.89,13a.19.19,0,0,1-.1.1A.14.14,0,0,1,101.67,13Z" style="fill:#423c25"/><path d="M102.82,8.92l.17.15-.06.09h-.06L95.17,9l6.5,4a.14.14,0,0,0,.12,0l0,.08a2.57,2.57,0,0,0-1.49,1L88.86,7.1l13.41-.23A2.58,2.58,0,0,0,102.82,8.92Z" style="fill:#fff"/><path d="M120.94,8.07a2.84,2.84,0,0,1,1.65.64L129.31-2.9l-12,6.22a2.6,2.6,0,0,1,.14,1.81,2.93,2.93,0,0,1-.84,1.37c-1.35,1.25-3.34.22-3.46.16-1-.55-2.17-1.87-1.76-3.15a1.08,1.08,0,0,1,.08-.19A2.63,2.63,0,0,1,113,2.05l-6.55-11.7-.94,13.49a2.78,2.78,0,0,1,1.77.73,2.47,2.47,0,0,1,.67,1.17c.47,1.78-1.39,3-1.49,3.12-.91.6-2.49,1-3.45.21l-.17-.15a2.58,2.58,0,0,1-.55-2L88.86,7.1l11.47,7.06a2.57,2.57,0,0,1,1.49-1,2.86,2.86,0,0,1,1.56,0c1.76.54,1.85,2.79,1.85,2.92,0,1.16-.54,2.81-1.85,3.1l-.3,0a2.77,2.77,0,0,1-1.74-.65L94.43,30.07,106.52,24a2.63,2.63,0,0,1-.35-1.88,1.51,1.51,0,0,1,.18-.44,2.19,2.19,0,0,1,.4-.55c1.27-1.33,3.32-.41,3.44-.35,1,.46,2.19,1.65,2,2.91a.69.69,0,0,1,0,.13,2.64,2.64,0,0,1-1.46,1.54l7.2,11.32V22.93a2.75,2.75,0,0,1-1.33-.51,2.32,2.32,0,0,1-.89-1.49c-.35-1.81,1.58-3,1.69-3,1-.58,2.74-.86,3.61.17a1.66,1.66,0,0,1,.22.32,2.75,2.75,0,0,1,.2,1.76l13.4.64-10.71-7.68a2.72,2.72,0,0,1-1.51,1,3.58,3.58,0,0,1-1.92,0c-1.76-.52-1.89-2.76-1.9-2.89,0-1.16.5-2.83,1.81-3.13A2,2,0,0,1,120.94,8.07Z" style="fill:none;stroke:#423c25;stroke-miterlimit:10;stroke-width:0.6007771492004395px"/><path d="M106.28,21.61l0,0L99.3,25.51l3.64-6.12a.17.17,0,0,1,.14-.08.11.11,0,0,1,.08,0l3.1,2.16A.09.09,0,0,1,106.28,21.61Z" style="fill:none;stroke:#423c25;stroke-miterlimit:10;stroke-width:0.6007771492004395px"/><path d="M112.28,23.67a.17.17,0,0,0,0,.15l4,6.33.23-7.55a.09.09,0,0,0-.06-.11.14.14,0,0,0-.09,0l-4,1.08A.19.19,0,0,0,112.28,23.67Z" style="fill:none;stroke:#423c25;stroke-miterlimit:10;stroke-width:0.6007771492004395px"/><path d="M122.55,14.15h0l6.13,4.64-7.4-.37a.08.08,0,0,1-.08-.06,0,0,0,0,1,0-.05l1.3-4.15Z" style="fill:none;stroke:#423c25;stroke-miterlimit:10;stroke-width:0.6007771492004395px"/><path d="M117.59,5.15a.1.1,0,0,1,0,0l6.42-2.82-2.92,5.55a.23.23,0,0,1-.2.11.23.23,0,0,1-.15,0l-3.17-2.6A.11.11,0,0,1,117.59,5.15Z" style="fill:none;stroke:#423c25;stroke-miterlimit:10;stroke-width:0.6007771492004395px"/><path d="M111.4,3.26a.12.12,0,0,0,0-.14l-3.32-6-.73,7.26a.22.22,0,0,0,0,.08.17.17,0,0,0,.2.08l3.74-1.17A.15.15,0,0,0,111.4,3.26Z" style="fill:none;stroke:#423c25;stroke-miterlimit:10;stroke-width:0.6007771492004395px"/><path d="M101.79,13.05a.14.14,0,0,1-.12,0l-6.5-4,7.7.15h.06a.16.16,0,0,1,.09.18L101.89,13A.19.19,0,0,1,101.79,13.05Z" style="fill:none;stroke:#423c25;stroke-miterlimit:10;stroke-width:0.6007771492004395px"/><path d="M113.42,12.12a2.32,2.32,0,1,1-3.27.29A2.31,2.31,0,0,1,113.42,12.12Z" style="fill:none;stroke:#423c25;stroke-miterlimit:10;stroke-width:0.6007771492004395px"/><path d="M31.59,28.66a1.59,1.59,0,0,1-.2.24q-.11.09-.09.12a.75.75,0,0,0,.47.24.91.91,0,0,0,.42,0,2.28,2.28,0,0,0,.56-.35c.09-.09.14-.16.14-.21a.31.31,0,0,0,0-.13s0-.08.08-.13l.84-1.1a1.12,1.12,0,0,0,.51-.39,1.82,1.82,0,0,0,.16-.36.66.66,0,0,1,.21-.31,2,2,0,0,1,.7-.29l2.23.05c.16,0,.24.06.25.19a3.12,3.12,0,0,0,.06.41c0,.06,0,.22-.07.46a3.33,3.33,0,0,1-.09.5,2.88,2.88,0,0,1-.69,1.08q-.57.63-1.26,1.26c-.46.42-.93.82-1.39,1.19s-.82.65-1.08.84l0,.07a3.6,3.6,0,0,0-1.39-.46c-.21,0-.33.05-.36.14a.49.49,0,0,0,0,.27,2.83,2.83,0,0,1,0,.29c0,.08-.07.12-.22.12H30.2c-.23,0-.47,0-.72,0a2.14,2.14,0,0,1-.67-.14,2.7,2.7,0,0,1-1-.69,2,2,0,0,1-.41-.85,2.8,2.8,0,0,1-.06-.91c0-.31.06-.59.1-.87a2,2,0,0,0-.12-.21,2,2,0,0,1-.12-.27c0-.12-.1-.26-.15-.4s-.11-.28-.15-.4a1.07,1.07,0,0,1-.06-.23A5.2,5.2,0,0,1,27,26.32a10.74,10.74,0,0,1,.27-1.12c.11-.38.24-.76.37-1.14a5.27,5.27,0,0,0,.28-1.14s0-.05.12-.11l.24-.17.36-.25a.77.77,0,0,0-.2-.09L28,22.12c-.13-.08-.2-.12-.2-.14a1.37,1.37,0,0,1,.26-.44l.4-.47c.13-.16.25-.31.36-.47a.77.77,0,0,0,.15-.42l.24-.33c.12-.16.24-.33.38-.49l.38-.48a2.06,2.06,0,0,1,.25-.3,4.35,4.35,0,0,1,.37-.53,3.78,3.78,0,0,1,.39-.41l.43-.37.54-.4a1.09,1.09,0,0,0,.28-.29,2,2,0,0,1,.27-.31c.28-.14.52-.26.75-.35a6,6,0,0,1,.65-.2,4.28,4.28,0,0,1,.64-.1l.77,0a1.84,1.84,0,0,0,.47-.07,1.64,1.64,0,0,1,.42-.07c.08,0,.11,0,.09.07s0,.15.17.23l.46.19.4.15c.1,0,.1.09,0,.12a.63.63,0,0,0-.41.36,3.88,3.88,0,0,1-.19.36c0,.07,0,.08.14,0a3.26,3.26,0,0,1,.42-.15,1.64,1.64,0,0,1,.55,0,.8.8,0,0,1,.54.28l.29.36a1.36,1.36,0,0,1,.15.3c0,.08,0,.14,0,.21s0,.13.06.21a1.59,1.59,0,0,0,.18.32,3.83,3.83,0,0,1,.42.79.5.5,0,0,1-.08.57,2.9,2.9,0,0,0-.39.57,1.48,1.48,0,0,0-.11.41,2.17,2.17,0,0,0,0,.36.93.93,0,0,1-.06.39v.05s-.15.14-.42.28a3.59,3.59,0,0,1-1,.3,3.37,3.37,0,0,1-1.22,0,2.17,2.17,0,0,1-1.18-.71l0-1,0,0s0-.08,0-.1l0-.09,0-.07c.11-.4.18-.69.21-.86l.1-.46s0,0,0,0l-.39.23-2,.84-.84,1.32a.41.41,0,0,1-.12.14.53.53,0,0,0-.12.17.25.25,0,0,0,0,.19.64.64,0,0,0,.1.13.31.31,0,0,1,.08.13.4.4,0,0,1,0,.22l-.27.85c-.11.31-.21.63-.33.95s-.22.63-.32.94-.21.58-.3.84a1.68,1.68,0,0,0,.17.26c0,.06.09,0,.14-.07l-.14,1.37Z" style="fill:#423c25"/><path d="M38.12,31.75H38a.48.48,0,0,1-.12.1l-.26.93s0,0,0,0a.24.24,0,0,0-.09.06h-.08c-.09,0-.16-.08-.19-.24a.51.51,0,0,1,0-.31,2.57,2.57,0,0,0,.06-.28,2.33,2.33,0,0,1,.11-.39c0-.13.07-.26.11-.38s.07-.2.08-.25a.19.19,0,0,1-.07-.14l0-.17,0-.14c0-.16.12-.41.23-.75l.4-1.13.48-1.32.48-1.32.41-1.12c.12-.34.2-.59.25-.75.21-.37.43-.73.67-1.1A10.41,10.41,0,0,0,41.17,22l1.14-2.32a14.33,14.33,0,0,1,1.4-2.28c0-.05.11,0,.19.07a2.89,2.89,0,0,1,.26.35l.25.38c.08.12.13.18.17.18s.09-.06.15-.18.11-.25.16-.38a3.35,3.35,0,0,1,.14-.38c0-.11.09-.16.12-.14h2.21l.48-.17a.07.07,0,0,1,.09.06,1.06,1.06,0,0,1,0,.19c0,.08,0,.14,0,.21s0,.09,0,.09a1,1,0,0,0,.26,0,.86.86,0,0,1,.28,0,.49.49,0,0,1,.22.09c.06,0,.07.13,0,.24l-.68,2.31a1.68,1.68,0,0,0,0,.54,3,3,0,0,0,.08.51c0,.18.08.35.11.52a1.93,1.93,0,0,1,0,.54c-.05.19-.12.52-.22,1s-.22,1-.33,1.5-.22,1-.32,1.5-.18.8-.23,1l0,.1a17.68,17.68,0,0,1-.28,2.29c-.15.76-.33,1.53-.55,2.32a2.2,2.2,0,0,1-.64-.1,2.2,2.2,0,0,0-.64-.1.28.28,0,0,0-.18.1l-.17.2a1.73,1.73,0,0,1-.17.21.33.33,0,0,1-.22.09c-.08,0-.11,0-.1-.16s0-.24.06-.38a2.83,2.83,0,0,0,.06-.37c0-.11,0-.17-.07-.17s-.05,0-.11.11L44,31.8l-.26.34s-.07.12-.16.27a.91.91,0,0,1-.24.28s-.05.06-.13.09v0h0c-.24,0-.37-.16-.38-.47a5.52,5.52,0,0,1,.09-1c.06-.38.12-.72.17-1s0-.47-.12-.47h-.68a.63.63,0,0,0-.55.21l-.33,1.16-.32,1.15c0,.09-.09.23-.17.42s-.15.28-.16.3l-.14.09H38.86l-.43-.45-.22-.1a.26.26,0,0,1,0-.2c0-.09,0-.18.07-.28a.59.59,0,0,0,0-.25C38.29,31.79,38.23,31.75,38.12,31.75Zm4.73-5.23s0,.1-.08.19,0,.15.1.17a5.34,5.34,0,0,0,.67-.12.59.59,0,0,0,.48-.41.38.38,0,0,1,.09-.09l.08-.1a3.31,3.31,0,0,1,.05-.41c0-.19.06-.39.09-.61s.07-.42.11-.61a3.07,3.07,0,0,1,.11-.41,1.12,1.12,0,0,1,0-.19c0-.1,0-.19,0-.29a.78.78,0,0,0,0-.26c0-.08,0-.12-.05-.12s-.31.16-.5.48-.37.67-.55,1.06-.34.76-.47,1.11A5.45,5.45,0,0,0,42.85,26.52Z" style="fill:#423c25"/><path d="M52.93,27.84l-.1,0-.19.39c0,.13-.11.34-.22.65s-.23.62-.35,1-.23.65-.33,1-.17.52-.21.64a.63.63,0,0,1-.08.35.9.9,0,0,1-.16.3c0,.07-.06.1-.14.1l-.12,0-.11.05s-.06,0-.06,0l-.17.77h-.12c-.09,0-.14,0-.14,0a.66.66,0,0,1-.59-.39A.78.78,0,0,1,50,32l-.1-.07h-.07a.3.3,0,0,0-.22.1,1.67,1.67,0,0,0-.16.24l-.14.26a.36.36,0,0,1-.13.16h0l0,0h-.51l-.25,0-.25,0h-.15a.32.32,0,0,1-.36-.2,1.38,1.38,0,0,1-.09-.52,3,3,0,0,1,.05-.6,2.24,2.24,0,0,1,.09-.4l.05-.15.08-.2a.23.23,0,0,0,0-.16l0-.09L49.73,25a1.33,1.33,0,0,0,.09-.23c0-.12.07-.19.08-.23a.77.77,0,0,0,.13-.24c.06-.12.12-.26.18-.4a3.12,3.12,0,0,0,.16-.41c0-.13.07-.21.08-.24l.12-.27c.07-.12.14-.27.22-.43s.16-.3.24-.43a1.15,1.15,0,0,1,.19-.26l.17-.2c.1-.11.14-.17.14-.19l0-.09,0-.1h-.24l-.38,0a1.13,1.13,0,0,1-.34-.08c-.09,0-.13-.1-.09-.18s0-.08.14-.18.14-.17.14-.21l.14,0,.21-.06.19-.07q.09,0,.06-.06L51,20.06l.09-.31s0-.05,0-.12,0-.08,0-.09a.55.55,0,0,1,.22-.1l.22,0a1.33,1.33,0,0,0,.21,0,.18.18,0,0,0,.12-.12l-.43-.55c-.1-.13-.06-.26.12-.38a2.76,2.76,0,0,1,.76-.33,9,9,0,0,1,1.16-.28l1.26-.21c.4-.07.77-.12,1.1-.15l.68-.05a2.61,2.61,0,0,1,.69.06,2.39,2.39,0,0,0,.66.09.69.69,0,0,0,.19-.07.39.39,0,0,1,.24-.05h.1a5.43,5.43,0,0,1,1,.38,6.18,6.18,0,0,1,.82.55,2.44,2.44,0,0,1,.54.53,1.28,1.28,0,0,1,.06.72l-.48.43.33.2-.07.38-.07.22a3.58,3.58,0,0,0,0,1,3,3,0,0,1-.1,1.05.9.9,0,0,1-.19.42,1.45,1.45,0,0,1-.43.35L57.39,26.3l-.1.36c.12.87.21,1.76.29,2.68a9,9,0,0,1-.19,2.77l-.4,0L56.77,32,56.56,32l-.3,0a.17.17,0,0,0,0,.12.09.09,0,0,1,0,.12,2.64,2.64,0,0,1-.18.23l-.3.32a4,4,0,0,1-.32.29.49.49,0,0,1-.25.12c-.1,0-.16,0-.17-.1a1.2,1.2,0,0,1,0-.23.71.71,0,0,0-.06-.22c0-.07-.09-.1-.19-.1a.29.29,0,0,0-.14.08l-.21.18c-.07.07-.14.13-.2.2a1,1,0,0,1-.15.12s-.06.06-.14.09-.32-.08-.42-.3a3.28,3.28,0,0,1-.24-.84,9.36,9.36,0,0,1-.11-1.15c0-.42,0-.83,0-1.22s0-.75,0-1.06,0-.53,0-.66S53.05,27.84,52.93,27.84Zm.81-2.69-.05.17c0,.06,0,.11.12.14a2.17,2.17,0,0,0,.66-.19.87.87,0,0,0,.47-.43l1.39-2.16.05-.22a.61.61,0,0,0,0-.42,3.42,3.42,0,0,0-.17-.4L56,21.23a1,1,0,0,1-.06-.42c0-.11,0-.17-.19-.17h-.07l-.35.06-.44.07-.4.06c-.12,0-.19,0-.2.05a.78.78,0,0,0-.21.05.31.31,0,0,0-.08.14v.07a.78.78,0,0,1,.62.3,1.05,1.05,0,0,1,.1.66,8.77,8.77,0,0,1-.49,1.53A9.75,9.75,0,0,0,53.74,25.15Z" style="fill:#423c25"/><path d="M61.23,32a.3.3,0,0,0-.18.11l-.22.23-.21.23a.29.29,0,0,1-.16.1c-.17,0-.26-.14-.25-.44a5.93,5.93,0,0,1,.13-1c.08-.38.18-.75.29-1.1s.18-.6.22-.72a44.77,44.77,0,0,1,1.46-4.32c.56-1.43,1-2.87,1.46-4.32a.14.14,0,0,1,0-.12c0-.05,0-.08,0-.08H61.9a.63.63,0,0,1,.16-.24.49.49,0,0,0,.15-.24V20c-.11-.15-.16-.23-.16-.27s.08-.12.2-.16a1.56,1.56,0,0,1,.4-.11,3.12,3.12,0,0,1,.4-.05h.29L63,19.15a2.19,2.19,0,0,1-.36,0,1.5,1.5,0,0,1-.34-.12.64.64,0,0,1-.22-.21.45.45,0,0,1,0-.31,1.41,1.41,0,0,1,.19-.3.65.65,0,0,1,.29-.23l1.08-.19h.47l1,0c.39,0,.8,0,1.21,0l1,0H70.9a.52.52,0,0,1-.2.34,1,1,0,0,1-.3.1l-.33,0a.53.53,0,0,0-.3.2,1.14,1.14,0,0,0,0,.68,1.22,1.22,0,0,1,0,.66,1.79,1.79,0,0,1-.19.43,2.79,2.79,0,0,1-.43.43.7.7,0,0,1-.51.12l-.57,0a.74.74,0,0,0-.34.07c0,.05,0,.13-.08.25a3.73,3.73,0,0,1-.15.38c0,.12-.11.25-.15.38s-.08.22-.1.26l-.1.36c0,.12-.09.31-.18.58s-.18.56-.28.85l-.3.84a5,5,0,0,1-.22.54l-1.8,6.34a3.22,3.22,0,0,1-.19.45,1.64,1.64,0,0,1-.34.48,1.07,1.07,0,0,0-.61,0,.8.8,0,0,0-.32.24l-.24.27a.46.46,0,0,1-.36.14.42.42,0,0,1-.36-.17,1.79,1.79,0,0,1-.21-.39,1.91,1.91,0,0,0-.18-.38A.33.33,0,0,0,61.23,32Z" style="fill:#423c25"/><path d="M68.21,30.58a7.05,7.05,0,0,1,.47-1.16,5.92,5.92,0,0,0,.47-1.15A20.11,20.11,0,0,0,69.67,26a19.69,19.69,0,0,1,.51-2.26,9.83,9.83,0,0,1,.53-1.32,8,8,0,0,0,.5-1.3l0-.09.09-.27v-.07c0-.08-.09-.13-.22-.17a.81.81,0,0,0-.38,0l-.4-.45s0-.05,0-.1l.42-.5a3.63,3.63,0,0,1,.3-.35,1.06,1.06,0,0,0,.16-.2l.46-.1.17,0a1.58,1.58,0,0,0-.23-.17.69.69,0,0,0-.4-.15.08.08,0,0,1,0-.07.69.69,0,0,1,.38-.39,2.31,2.31,0,0,1,.7-.24,4.82,4.82,0,0,1,.86-.11l.78,0h.45c.55,0,1.08,0,1.6.06s1,.06,1.59.06a2,2,0,0,0,.5-.06,1.88,1.88,0,0,1,.49-.06l0,.2c-.05.12-.08.19-.1.19a1.26,1.26,0,0,1-.15.23l-.16.22-.07.2-.55.31.38.31,0,.19a1.14,1.14,0,0,1-.43.48,2.83,2.83,0,0,1-.69.36,6,6,0,0,1-.76.24,3.07,3.07,0,0,1-.61.12l-.12.1a.31.31,0,0,0-.07.19l-.12.41a4.43,4.43,0,0,1-.14.44l-.13.37,0,.1a.34.34,0,0,0,0,.17.15.15,0,0,1-.09.14l-.46.24.39,0s0,0,0,.12a1,1,0,0,1-.1.21l0,.1c0,.06,0,.09,0,.09h.12a5,5,0,0,0,.93-.09,4.31,4.31,0,0,1,.92-.1.34.34,0,0,1,.34.17.46.46,0,0,1-.24.67,4.68,4.68,0,0,1-.5.28l-.49.24q-.23.11-.24.18s.05.06.15.08a2.67,2.67,0,0,1,.34.11,1.33,1.33,0,0,1,.31.18c.09.07.1.18,0,.32a1.08,1.08,0,0,1-.46.57,2.13,2.13,0,0,1-.63.21c-.24,0-.47.08-.7.1a1.74,1.74,0,0,0-.66.2,2.33,2.33,0,0,0-.17.3c-.08.17-.15.36-.23.58l-.2.6-.12.35v0c0,.1,0,.21,0,.34a2.5,2.5,0,0,1-.06.38c0,.13,0,.28-.06.46H74.6a.22.22,0,0,1,.18.06.22.22,0,0,1,0,.14l0,.18a.25.25,0,0,0,0,.17c0,.05,0,.09.09.13l.19.13a.49.49,0,0,1,.16.21.47.47,0,0,1,0,.35.5.5,0,0,1-.29.3,5.19,5.19,0,0,1-.52.19,3.82,3.82,0,0,0-.51.18.43.43,0,0,0-.29.26,1.52,1.52,0,0,1,.17.27l0,.07a.38.38,0,0,1-.27.31,3.25,3.25,0,0,1-.54.07,9.53,9.53,0,0,0-1.25.15,2.44,2.44,0,0,1-1,0l-.72-.19-.33.19a.49.49,0,0,1-.35,0,1.56,1.56,0,0,0-.4-.05H68.6a1.17,1.17,0,0,1-.57-.94A4.17,4.17,0,0,1,68.21,30.58Z" style="fill:#423c25"/><path d="M31.4,50.46a14.26,14.26,0,0,0,.65-2.25s.05,0,.09-.14a3.17,3.17,0,0,0,.07-.5c0-.19.07-.32.15-.36l.77-2.67a4,4,0,0,1,.18-.48,1.05,1.05,0,0,1,.18-.33l.17-.12h2l.48.53.22.11a.22.22,0,0,1,.07.22c0,.1,0,.21-.07.34a.63.63,0,0,0,0,.29c0,.08.08.11.21.11h.12s0-.05.12-.11L37.09,44s0,0,.06,0a.21.21,0,0,0,.1-.06h0c.13,0,.21.09.24.28a.94.94,0,0,1,0,.34c0,.18-.11.44-.19.77-.05.16-.1.31-.15.44a2.57,2.57,0,0,0-.09.28,1.31,1.31,0,0,0,.09.17l0,.19,0,.17c-.09.18-.2.46-.35.84s-.32.82-.5,1.31-.35,1-.55,1.52l-.54,1.52c-.16.49-.31.93-.44,1.31s-.22.67-.26.84a13.16,13.16,0,0,1-.77,1.28,6.63,6.63,0,0,0-.7,1.27,17.18,17.18,0,0,1-1.62,2.71L29.48,61.8c-.05.06-.07.06-.07,0v-.33a2.22,2.22,0,0,0,0-.37q0-.18-.12-.18s-.08.06-.15.18-.15.25-.24.38l-.24.35c-.07.1-.13.13-.18.1l-2.12-.1-.55.19s-.08,0-.09-.07a1.24,1.24,0,0,1,0-.22,1.8,1.8,0,0,1,0-.22c0-.08,0-.11-.06-.11a1.32,1.32,0,0,0-.3,0h-.34a.32.32,0,0,1-.24-.09c-.06-.06-.06-.16,0-.3L25,58.34a6.7,6.7,0,0,0,.25-1.29c0-.45.07-.89.08-1.32a8.17,8.17,0,0,0,.2-1.12c.06-.52.12-1.07.17-1.65s.12-1.14.17-1.66A9,9,0,0,1,26,50.18l.05-.12a16.56,16.56,0,0,1,.3-2.62c.17-.88.39-1.77.66-2.68a2.09,2.09,0,0,1,.72.12,2.13,2.13,0,0,0,.72.12q.12,0,.18-.15a1.85,1.85,0,0,0,.11-.31,2,2,0,0,1,.11-.32.2.2,0,0,1,.2-.13.25.25,0,0,1,.21.11,1.83,1.83,0,0,1,.15.25,1.56,1.56,0,0,0,.17.25.29.29,0,0,0,.22.11l.12,0,.07,0a3.19,3.19,0,0,1,.19-.31.88.88,0,0,1,.26-.31s.06-.08.17-.12a0,0,0,0,1,0,0c.28,0,.44.15.48.46a3.25,3.25,0,0,1-.09,1c-.09.39-.19.78-.31,1.15a3.2,3.2,0,0,0-.18.78l-.22,1.66a.21.21,0,0,0-.06.1.32.32,0,0,1,0,.09l-.05.17-.07.29-.15.5a6.8,6.8,0,0,0-.21.85,2.39,2.39,0,0,1-.07.35.23.23,0,0,0,0,.11.15.15,0,0,1,0,.13c0,.1,0,.26-.07.48s-.07.47-.1.73-.07.51-.11.74-.06.38-.08.48,0,.23.17.23.3-.14.48-.44a8.31,8.31,0,0,0,.48-1c.14-.37.26-.72.37-1s.17-.53.2-.61S31.19,51,31.4,50.46Z" style="fill:#423c25"/><path d="M33.94,61.37l.24-.84c.35-1.46.71-2.89,1.06-4.29S36,53.42,36.39,52l0-.17.08-.21a.88.88,0,0,0,.06-.17l0-.1a.51.51,0,0,1,.07-.14q.07-.12.15-.27l.16-.26a.51.51,0,0,0,.07-.14,1.19,1.19,0,0,1,.07-.23c0-.12.1-.25.15-.4s.1-.28.14-.41l.1-.26.12-.28a2.1,2.1,0,0,0,.12-.42l.14-.5.15-.5a2.92,2.92,0,0,0,.09-.42,1.13,1.13,0,0,1,.07-.28,1,1,0,0,1,.25-.1l.46-.15.69-.23c.16,0,.27,0,.32.13a.77.77,0,0,1,.11.3c0,.11,0,.22,0,.31s0,.12.1.12h.05a1.1,1.1,0,0,0,.21-.28.31.31,0,0,0,.1-.13.08.08,0,0,1,.07-.07,1.2,1.2,0,0,1,.31-.07l.24,0,.18.2a1.18,1.18,0,0,0,.16.18h.12l.5-.19h.12l.07.1a.28.28,0,0,0,.13.09l-.13.41a29.4,29.4,0,0,1-1,3c-.39,1-.77,2-1.16,3a1.51,1.51,0,0,1-.33.49,1.21,1.21,0,0,0-.31.47,1.6,1.6,0,0,0-.06.69c0,.24,0,.46,0,.65l-.12.48L39,57.43l-.12.43c-.16.53-.33,1.11-.49,1.73a11.38,11.38,0,0,1-.64,1.78.19.19,0,0,1-.14.11H37.3l-.07,0a1.1,1.1,0,0,0-.23-.39.65.65,0,0,0-.44-.11h-.18c-.07,0-.12,0-.13,0l-.27.26a1.27,1.27,0,0,1-.31,0c-.16,0-.25,0-.26.06a.33.33,0,0,0-.16.07l-.21.14-.22.15-.13.09A1.08,1.08,0,0,1,33.94,61.37Z" style="fill:#423c25"/><path d="M40,59.38a6.27,6.27,0,0,1,.47-1.16A5.87,5.87,0,0,0,41,57.07a17.86,17.86,0,0,0,.52-2.26A18.12,18.12,0,0,1,42,52.56a8.56,8.56,0,0,1,.52-1.32,7.23,7.23,0,0,0,.51-1.3l0-.09.1-.27v-.07c0-.08-.09-.13-.23-.17a.77.77,0,0,0-.37,0l-.41-.45s0,0,0-.1c.18-.21.32-.37.42-.5a3.63,3.63,0,0,1,.3-.35,1.23,1.23,0,0,0,.17-.21l.45-.09.17,0a1.11,1.11,0,0,0-.23-.17A.64.64,0,0,0,43,47.3s0,0,0-.07a.71.71,0,0,1,.37-.4,2.69,2.69,0,0,1,.71-.23,4.59,4.59,0,0,1,.85-.11l.78,0h.46q.81,0,1.59.06c.52,0,1.05.06,1.6.06a1.93,1.93,0,0,0,.49-.06,1.93,1.93,0,0,1,.49-.06l-.05.2a.5.5,0,0,1-.09.19l-.16.23a1.36,1.36,0,0,0-.15.22l-.08.2-.55.31.39.31,0,.19a1.21,1.21,0,0,1-.43.48,2.72,2.72,0,0,1-.7.36,6,6,0,0,1-.76.24,2.94,2.94,0,0,1-.61.12l-.12.1a.39.39,0,0,0-.07.19l-.12.41a4.29,4.29,0,0,1-.13.44c-.06.15-.1.28-.13.37l0,.1a.59.59,0,0,0,0,.17.15.15,0,0,1-.1.14l-.45.24.38,0s.06,0,0,.11l-.1.22,0,.1c0,.06,0,.09,0,.09h.12a5.07,5.07,0,0,0,.94-.09,4.22,4.22,0,0,1,.91-.1.36.36,0,0,1,.35.17.54.54,0,0,1,0,.38.6.6,0,0,1-.27.29,4.68,4.68,0,0,1-.5.28l-.5.24q-.21.11-.24.18s0,.06.16.08l.33.11a1.4,1.4,0,0,1,.32.18.25.25,0,0,1,0,.32,1.07,1.07,0,0,1-.45.57,2.29,2.29,0,0,1-.64.21c-.23,0-.46.08-.7.1a1.74,1.74,0,0,0-.66.2,2.87,2.87,0,0,0-.16.3,4.67,4.67,0,0,0-.23.58q-.11.33-.21.6l-.12.35v0c0,.1,0,.21,0,.34l-.06.38a2.72,2.72,0,0,0-.06.46h1.77q.15,0,.18.06a.22.22,0,0,1,0,.14,1.16,1.16,0,0,1,0,.18.25.25,0,0,0,0,.17s0,.09.1.13l.19.13a.57.57,0,0,1,.15.21.45.45,0,0,1,0,.34.49.49,0,0,1-.29.31c-.16.07-.33.13-.51.19a3.52,3.52,0,0,0-.52.18.45.45,0,0,0-.29.26,1,1,0,0,1,.17.27l0,.07a.39.39,0,0,1-.28.31,3,3,0,0,1-.54.07,9.75,9.75,0,0,0-1.25.15,2.39,2.39,0,0,1-1,0l-.72-.19-.34.19a.49.49,0,0,1-.35,0,1.49,1.49,0,0,0-.39,0h-.27a1.16,1.16,0,0,1-.56-.94A3.55,3.55,0,0,1,40,59.38Z" style="fill:#423c25"/><path d="M53.26,56.64a.14.14,0,0,0-.09,0l-.2.39c0,.13-.1.34-.21.65s-.23.62-.35,1l-.34,1c-.1.3-.17.52-.2.64a.63.63,0,0,1-.08.35,1.59,1.59,0,0,1-.16.3.12.12,0,0,1-.14.1l-.12,0-.11,0s-.06,0-.06.05L51,61.9h-.12c-.1,0-.14,0-.14,0a.66.66,0,0,1-.59-.39.81.81,0,0,1,.15-.71c-.08-.05-.11-.07-.09-.07h-.07a.28.28,0,0,0-.22.1l-.17.24-.13.25a.35.35,0,0,1-.13.17h-.05l0,0h-.5l-.25,0-.26,0h-.14a.31.31,0,0,1-.36-.2,1.38,1.38,0,0,1-.1-.52,4,4,0,0,1,0-.6,2.44,2.44,0,0,1,.1-.41l0-.14.08-.2a.22.22,0,0,0,0-.16l0-.1,1.94-5.49a1.71,1.71,0,0,0,.08-.23,1.81,1.81,0,0,1,.09-.23,1.08,1.08,0,0,0,.13-.24c.06-.12.12-.26.18-.4s.12-.28.16-.41a1.54,1.54,0,0,1,.08-.24l.12-.27.22-.43c.08-.16.16-.3.24-.43a1.15,1.15,0,0,1,.19-.26l.17-.2a.82.82,0,0,0,.14-.19l0-.09,0-.1h-.24l-.39,0a1.07,1.07,0,0,1-.33-.08c-.1,0-.13-.1-.1-.18s0-.08.15-.18.14-.17.14-.21l.13,0,.22-.06.19-.07q.09,0,.06-.06l-.46-.27.1-.31s0,0,0-.12a.16.16,0,0,0,0-.1.67.67,0,0,1,.21-.09l.23,0a1.2,1.2,0,0,0,.2,0,.15.15,0,0,0,.12-.12l-.43-.55c-.09-.13-.05-.26.12-.38a2.84,2.84,0,0,1,.77-.33,9.24,9.24,0,0,1,1.15-.28L55,46.29c.41-.06.78-.11,1.11-.14l.68,0a2.5,2.5,0,0,1,.68.06,2.5,2.5,0,0,0,.66.09.77.77,0,0,0,.2-.07s.12,0,.24,0h.09a4.44,4.44,0,0,1,1.8.93,2.44,2.44,0,0,1,.54.53,1.11,1.11,0,0,1,.06.72l-.48.43.34.2-.07.38-.08.22a3.58,3.58,0,0,0,0,1,3,3,0,0,1-.1,1,1,1,0,0,1-.19.42,1.59,1.59,0,0,1-.43.35L57.73,55.1l-.1.36c.11.87.21,1.76.29,2.68a9.27,9.27,0,0,1-.19,2.77l-.4,0-.23,0-.2-.05-.3,0s0,.07,0,.12a.1.1,0,0,1,0,.12,1.75,1.75,0,0,1-.18.22q-.14.17-.3.33a2.86,2.86,0,0,1-.33.29.43.43,0,0,1-.25.12c-.09,0-.15,0-.17-.1s0-.14,0-.23a.71.71,0,0,0-.06-.22.19.19,0,0,0-.19-.1s-.08,0-.15.08l-.2.18-.21.19a.72.72,0,0,1-.14.13.28.28,0,0,1-.14.09q-.27,0-.42-.3a2.64,2.64,0,0,1-.24-.84,7.74,7.74,0,0,1-.11-1.15c0-.42,0-.83,0-1.22s0-.75,0-1.06,0-.53,0-.66S53.39,56.64,53.26,56.64ZM54.08,54l0,.17c0,.06,0,.11.12.14a2.35,2.35,0,0,0,.66-.19.9.9,0,0,0,.47-.43l1.39-2.16,0-.22a.61.61,0,0,0,0-.42c0-.13-.11-.27-.17-.4L56.37,50a.77.77,0,0,1-.06-.42c0-.11-.05-.17-.19-.17h-.07l-.35.06-.45.07-.39.06a.6.6,0,0,0-.21,0,.59.59,0,0,0-.2,0,.31.31,0,0,0-.08.14v.07a.8.8,0,0,1,.62.3,1.05,1.05,0,0,1,.1.66,8.82,8.82,0,0,1-.5,1.53A10.86,10.86,0,0,0,54.08,54Z" style="fill:#423c25"/><path d="M66.46,53.4a1.28,1.28,0,0,0,.77.22,4.59,4.59,0,0,0,.73-.06,4.64,4.64,0,0,0,.66-.15c.19-.06.34-.1.43-.14s.12-.06,0-.06h2.07l-.12.41-.1.84a1.52,1.52,0,0,1-.35.09l-.5.1-.42.09c-.11,0-.14.06-.07.07a1.13,1.13,0,0,1,.33.16,2,2,0,0,0,.63.21A1.73,1.73,0,0,1,70,56a1.94,1.94,0,0,1-.85.27,1.23,1.23,0,0,1-.13.29,1.2,1.2,0,0,0-.13.31,1.59,1.59,0,0,0-.06.34,1.82,1.82,0,0,0,0,.45,1.29,1.29,0,0,1-.15.69,2.42,2.42,0,0,1-.69.9,1.06,1.06,0,0,0-.25.3l-.06.2c0,.07-.06.13-.08.19a.81.81,0,0,1-.23.27l-.43.57a4.65,4.65,0,0,1-1.51.72,4.58,4.58,0,0,1-.51,0H63.2a4.62,4.62,0,0,1-1.14-.11,2,2,0,0,1-.85-.54s0-.08.18-.13a.59.59,0,0,0,.27-.16,2.18,2.18,0,0,0-.35-.41,5.16,5.16,0,0,1-.39-.41,3.46,3.46,0,0,1-.34-.44,1.23,1.23,0,0,1-.17-.52,1.8,1.8,0,0,0,0-.29c0-.14,0-.29-.07-.45a4.39,4.39,0,0,1-.07-.44,2.44,2.44,0,0,1,0-.3,1.38,1.38,0,0,0,.17-.79,2.26,2.26,0,0,1,.1-.84s.08-.1.2-.2.18-.15.18-.17l-.12-.22c0-.06-.06-.11-.08-.16a.22.22,0,0,1,0-.1,3.8,3.8,0,0,0,.26-.89,7,7,0,0,1,.2-.88,6,6,0,0,1,.39-1q.26-.51.45-1c.09-.24.26-.59.49-1.05a9.45,9.45,0,0,1,.87-1.41,7.38,7.38,0,0,1,1.23-1.27A2.72,2.72,0,0,1,66,46.66a2.88,2.88,0,0,1,.64-.14l.61,0h.86a.45.45,0,0,1,.35.12,1.11,1.11,0,0,0,.28.23,1,1,0,0,0,.48.13,2.55,2.55,0,0,0,.93-.19l0,.05a5.41,5.41,0,0,1,.55,4.58,3.18,3.18,0,0,1-.27.37.4.4,0,0,1-.33.18l-1.9.05a1,1,0,0,1-.41-.2.25.25,0,0,1,0-.19,1,1,0,0,0,.06-.23c0-.08-.05-.19-.21-.31l-.12-1c0-.05-.06-.09,0-.12a.29.29,0,0,0,.1-.12.23.23,0,0,0,0-.18,1.09,1.09,0,0,0-.31-.3.16.16,0,0,0-.12,0s-.13.06-.24.17a.17.17,0,0,0-.1,0,.71.71,0,0,0-.14.1l-.14.12a.12.12,0,0,0,0,.14l-1.11,1.2-.57,1.24c0-.09,0-.11-.1-.06a2.53,2.53,0,0,0-.26.23c-.1.47-.19,1-.27,1.45a13,13,0,0,1-.31,1.46,3.29,3.29,0,0,0-.08.34,2,2,0,0,1-.09.3.23.23,0,0,0,0,.15.39.39,0,0,1,.05.14l-.36,1.23,1.24.74c.13.13.2.2.22.2s0,0,0,0a1.34,1.34,0,0,1,.26-.41,2.33,2.33,0,0,0,.37-.79l.07-.26,0-.15q0-.13.09-.3c0-.1.07-.2.1-.3l0-.14-.72-.26a.58.58,0,0,1,0-.47.75.75,0,0,1,.5-.16l-.15-.43Z" style="fill:#423c25"/><path d="M70.81,59.38a6.22,6.22,0,0,1,.46-1.16,5.92,5.92,0,0,0,.47-1.15,17.86,17.86,0,0,0,.52-2.26,20,20,0,0,1,.51-2.25,9.83,9.83,0,0,1,.53-1.32,8.07,8.07,0,0,0,.51-1.3l0-.09.1-.27v-.07c0-.08-.1-.13-.23-.17a.77.77,0,0,0-.37,0l-.41-.45s0,0,0-.1l.42-.5a3.63,3.63,0,0,1,.3-.35,2.17,2.17,0,0,0,.17-.21l.45-.09.17,0a1.58,1.58,0,0,0-.23-.17.66.66,0,0,0-.39-.15s0,0,0-.07a.68.68,0,0,1,.37-.4,2.57,2.57,0,0,1,.71-.23,4.59,4.59,0,0,1,.85-.11l.78,0H77c.55,0,1.08,0,1.6.06s1.05.06,1.6.06a1.93,1.93,0,0,0,.49-.06,1.88,1.88,0,0,1,.49-.06l-.05.2a.78.78,0,0,1-.09.19l-.16.23-.16.22-.07.2-.55.31.38.31,0,.19a1.17,1.17,0,0,1-.44.48,2.66,2.66,0,0,1-.69.36,6,6,0,0,1-.76.24,3.07,3.07,0,0,1-.61.12l-.12.1a.31.31,0,0,0-.07.19l-.12.41a4.29,4.29,0,0,1-.13.44c-.06.15-.1.28-.14.37l0,.1a.37.37,0,0,0,0,.17.16.16,0,0,1-.1.14l-.46.24.39,0s0,0,0,.11a1.65,1.65,0,0,1-.09.22l0,.1c0,.06,0,.09,0,.09h.12a5.15,5.15,0,0,0,.94-.09A4.22,4.22,0,0,1,79,52a.37.37,0,0,1,.35.17.48.48,0,0,1-.24.67,4.86,4.86,0,0,1-.51.28c-.18.09-.35.16-.49.24s-.22.13-.24.18,0,.06.16.08l.33.11a1.15,1.15,0,0,1,.31.18c.09.07.1.18,0,.32a1,1,0,0,1-.46.57,2.13,2.13,0,0,1-.63.21c-.23,0-.47.08-.7.1a1.74,1.74,0,0,0-.66.2,2.33,2.33,0,0,0-.17.3,4.73,4.73,0,0,0-.22.58c-.08.22-.14.42-.21.6l-.12.35v0c0,.1,0,.21,0,.34a2.5,2.5,0,0,1-.06.38c0,.13,0,.28-.06.46h1.78q.15,0,.18.06a.22.22,0,0,1,0,.14,1.13,1.13,0,0,1,0,.18.25.25,0,0,0,0,.17s0,.09.09.13l.2.13a.57.57,0,0,1,.15.21.45.45,0,0,1,0,.34.49.49,0,0,1-.29.31c-.16.07-.33.13-.51.19a3.52,3.52,0,0,0-.52.18.43.43,0,0,0-.29.26,1.52,1.52,0,0,1,.17.27l0,.07a.39.39,0,0,1-.28.31,3.25,3.25,0,0,1-.54.07,9.53,9.53,0,0,0-1.25.15,2.44,2.44,0,0,1-1,0l-.72-.19-.33.19a.49.49,0,0,1-.35,0,1.51,1.51,0,0,0-.4,0h-.26a1.13,1.13,0,0,1-.56-.94A3.55,3.55,0,0,1,70.81,59.38Z" style="fill:#423c25"/><rect x="-0.27" y="0.18" width="125" height="80" style="fill:none;stroke:#423c25;stroke-miterlimit:10;stroke-width:2px"/></g></svg>